<?xml version="1.0" encoding="UTF-8"?>
<svg width="75px" height="80px" viewBox="0 0 75 80" version="1.1" xmlns="http://www.w3.org/2000/svg" xmlns:xlink="http://www.w3.org/1999/xlink">
    <!-- Generator: Sketch 60.1 (88133) - https://sketch.com -->
    <title>Group 23</title>
    <desc>Created with Sketch.</desc>
    <defs>
        <polygon id="path-1" points="0 0.158981818 34.8831085 0.158981818 34.8831085 32 0 32"></polygon>
        <polygon id="path-3" points="0.71934192 0.712863967 29.9165854 0.712863967 29.9165854 36.5164608 0.71934192 36.5164608"></polygon>
    </defs>
    <g id="Page-1" stroke="none" stroke-width="1" fill="none" fill-rule="evenodd">
        <g id="PATHWAR-Landing-Page" transform="translate(-1080.000000, -784.000000)">
            <g id="Group-23" transform="translate(1080.000000, 784.000000)">
                <path d="M31.5399771,70 C31.293918,70 31.0463812,69.9163295 30.8468738,69.7438955 C30.4072188,69.3670146 30.361406,68.7100193 30.7449034,68.2778431 L36.644409,61.6176722 C41.4266735,56.216924 40.8562303,47.9917512 35.3719956,43.2821941 C32.7148536,41.0012638 29.3151009,39.8749863 25.7978607,40.1107188 C22.2806204,40.3471788 19.0678135,41.9172737 16.7505729,44.5336135 L10.8518063,51.1937844 C10.4683088,51.6274158 9.80106767,51.6717976 9.36215155,51.294189 C8.92249652,50.9165805 8.87668372,50.2603128 9.26018114,49.827409 L15.1596867,43.1672381 C17.8471242,40.1325458 21.5742167,38.3099843 25.653772,38.0356906 C29.7340663,37.7621245 33.6776611,39.0681117 36.7596799,41.715737 C43.1217468,47.1790561 43.7838156,56.718947 38.2360341,62.9833201 L32.3365285,69.6442185 C32.1274153,69.879951 31.8340657,70 31.5399771,70" id="Fill-1" fill="#0081FF"></path>
                <g id="Group-5" transform="translate(0.000000, 48.000000)">
                    <mask id="mask-2" fill="white">
                        <use xlink:href="#path-1"></use>
                    </mask>
                    <g id="Clip-4"></g>
                    <path d="M5.86322917,2.23752727 C4.77020833,2.23752727 3.731875,2.70734545 3.014375,3.52843636 C2.3515625,4.28625455 2.02416667,5.25716364 2.09270833,6.2608 C2.16125,7.26516364 2.6184375,8.18225455 3.37822917,8.84334545 L26.5423958,28.9931636 C27.2307292,29.5917091 28.1115625,29.9211636 29.0230208,29.9211636 C30.1160417,29.9211636 31.154375,29.4513455 31.8711458,28.6302545 C33.2405208,27.0651636 33.0771875,24.6804364 31.5072917,23.3146182 L8.34385417,3.1648 C7.65552083,2.56698182 6.7746875,2.23752727 5.86322917,2.23752727 M29.0230208,32.0004364 C27.6077083,32.0004364 26.2405208,31.4884364 25.1722917,30.5597091 L2.00885417,10.4098909 C0.8290625,9.38370909 0.121041667,7.96043636 0.0138541667,6.40334545 C-0.0926041667,4.8448 0.414895833,3.33934545 1.44447917,2.16189091 C2.5571875,0.889163636 4.16791667,0.158981818 5.86322917,0.158981818 C7.2778125,0.158981818 8.64572917,0.670254545 9.71322917,1.59898182 L32.8773958,21.7488 C35.3128125,23.8673455 35.5658333,27.5677091 33.4417708,29.9968 C32.3283333,31.2695273 30.7176042,32.0004364 29.0230208,32.0004364" id="Fill-3" fill="#0081FF" mask="url(#mask-2)"></path>
                </g>
                <path d="M56.1356222,35 C52.7191934,35 49.9814199,33.3573034 47.4520181,31.6304776 C46.9802876,31.3084656 46.8580139,30.6637162 47.1792537,30.1908517 C47.5004935,29.7179872 48.1436967,29.5954196 48.6154272,29.9181568 C51.4023996,31.8197685 54.2067363,33.4689923 57.8778418,32.755344 C63.6565408,31.6326534 65.5109049,26.1323396 64.7873918,21.4965267 C64.191217,17.6700953 58.9247652,12.9465268 53.2799161,12.8188824 C51.6968694,12.783345 50.5305663,12.2814704 49.8150119,11.3277636 C48.9496902,10.1760629 48.8259695,8.48332389 49.4380616,6.15453862 C50.1102052,3.59584836 53.3016215,-0.630197038 56.0784647,0.0790997524 C57.6535527,0.482340054 57.5790309,2.19538609 57.5240439,3.44572112 C57.4473515,5.19648027 57.5500903,5.97757705 58.3843009,6.2872598 C58.9197006,6.48597894 59.1931886,7.08213636 58.994946,7.6188231 C58.7967034,8.15550983 58.2012521,8.42892996 57.6665759,8.23093607 C55.2840473,7.34685347 55.3932978,4.84835915 55.458414,3.35506458 C55.4765018,2.942396 55.5025483,2.34696382 55.4461143,2.07064268 C54.3854441,2.03365481 52.002192,4.53432489 51.4371282,6.68252232 C51.009532,8.31143908 51.0196612,9.48634788 51.4660688,10.0810548 C51.782244,10.5017012 52.4088063,10.7258041 53.3269444,10.7468364 C60.1482258,10.9005899 66.0824802,16.3798714 66.8305927,21.1759651 C67.729196,26.940996 65.078244,33.4682671 58.2714329,34.7904021 C57.529832,34.934002 56.8186186,35 56.1356222,35" id="Fill-6" fill="#0081FF"></path>
                <path d="M31.6054948,40 L30,38.6343406 C38.0498348,29.6343618 38.0528162,29.6314546 38.0572884,29.626367 C39.7880029,27.6908955 41.5604572,26.8383577 43.4715476,27.0251456 C45.0285944,27.1777739 46.6214182,28.0092344 48.6353676,29.7223047 C49.0781085,30.0995145 49.1243205,30.755816 48.7374812,31.1875359 C48.350642,31.6207094 47.6775863,31.6643175 47.2348454,31.2878345 C45.5973003,29.8952834 44.3339235,29.1975543 43.2583761,29.0921681 C42.5092942,29.0180344 41.3219436,29.136503 39.656075,30.9992944 C39.6024094,31.0581653 31.6054948,40 31.6054948,40" id="Fill-8" fill="#0081FF"></path>
                <path d="M40.0492406,47 C39.8045839,47 39.5584578,46.9148699 39.3600876,46.7409404 C38.9229382,46.3607905 38.8773865,45.6988308 39.2586983,45.2621722 L46.1590454,37.3590187 C46.5403572,36.923094 47.2030609,36.8775934 47.6402102,37.2584772 C48.0773595,37.638627 48.1221765,38.3005867 47.7415994,38.7372453 L40.8412524,46.6403988 C40.6333309,46.8781759 40.3416531,47 40.0492406,47" id="Fill-10" fill="#0081FF"></path>
                <g id="Group-14" transform="translate(45.000000, 6.000000)">
                    <mask id="mask-4" fill="white">
                        <use xlink:href="#path-3"></use>
                    </mask>
                    <g id="Clip-13"></g>
                    <path d="M11.8456098,36.5164608 C7.9997561,36.5164608 4.25926829,35.3056176 1.14365854,33.0217745 C0.67902439,32.6815196 0.58097561,32.0322059 0.924146341,31.5722451 C1.26804878,31.1115588 1.92292683,31.0143431 2.38682927,31.354598 C9.01829268,36.2146569 18.4646341,35.1888137 23.8917073,29.0177941 C26.694878,25.8314412 28.0785366,21.7541863 27.7880488,17.5361863 C27.497561,13.3181863 25.5673171,9.46438235 22.3536585,6.6857549 C19.3587805,4.0957549 15.5180488,2.71079412 11.5521951,2.78914706 C10.9843902,2.80438235 10.4970732,2.34587255 10.4860976,1.77346078 C10.4743902,1.20104902 10.9331707,0.728029412 11.5104878,0.716421569 C16.0053659,0.627911765 20.34,2.19351961 23.7285366,5.12377451 C27.3629268,8.26659804 29.5456098,12.6238922 29.8741463,17.3947157 C30.2026829,22.1655392 28.637561,26.7774804 25.4678049,30.3809902 C22.4670732,33.7922451 18.3153659,35.9346176 13.7787805,36.4141667 C13.1334146,36.4830882 12.4873171,36.5164608 11.8456098,36.5164608" id="Fill-12" fill="#0081FF" mask="url(#mask-4)"></path>
                </g>
                <path d="M29.0037418,64 C28.7696943,64 28.5342411,63.9139371 28.3444729,63.7381018 C27.9262799,63.3537866 27.8827035,62.6845736 28.2474802,62.2431304 C32.002783,57.6981206 35.0025271,53.6761653 33.6692294,50.4881295 C33.4450217,49.9524623 33.6748522,49.3270227 34.1823065,49.0903498 C34.689058,48.8544188 35.2829624,49.0962851 35.5064672,49.6326942 C37.4645944,54.3127337 33.1927002,59.4824413 29.7614092,63.6372005 C29.5625039,63.8768411 29.2834743,64 29.0037418,64" id="Fill-15" fill="#0081FF"></path>
                <path d="M33.7341064,46.392695 C33.7533505,46.4158646 33.7732583,46.4416821 33.7925025,46.4701475 C33.7845394,46.4582317 33.7772398,46.4396961 33.7341064,46.392695 M33.0519336,48 C32.8183491,48 32.5841011,47.9132797 32.4016132,47.7365291 C32.3750695,47.7113736 32.3485259,47.6848941 32.3213186,47.6551047 C31.9297992,47.3115333 31.8906472,46.7164068 32.2337244,46.3238483 C32.5781288,45.9306279 33.1773525,45.8895847 33.5708627,46.2331561 C33.6226229,46.2775092 33.6743831,46.3231863 33.7268068,46.3840892 C34.0851466,46.7495061 34.0937733,47.3399987 33.7360971,47.7087256 C33.5489641,47.9020259 33.3007807,48 33.0519336,48" id="Fill-17" fill="#0081FF"></path>
                <path d="M39.0068727,40 C38.7721929,40 38.5361036,39.9237891 38.3451179,39.7680823 C37.9257951,39.4277613 37.8828057,38.8351558 38.2478632,38.4442465 L40.2338323,36.3215101 C40.5995945,35.9312577 41.2359785,35.8905243 41.6545965,36.2308454 C42.0739193,36.5718235 42.1176134,37.1650859 41.7518512,37.5553383 L39.7658821,39.6780746 C39.5671443,39.8909396 39.2873608,40 39.0068727,40" id="Fill-19" fill="#0081FF"></path>
                <path d="M43,36 C42.7375787,36 42.480056,35.8922323 42.2925122,35.7046886 C42.1077677,35.519944 42,35.2624213 42,35 C42,34.7375787 42.1077677,34.480056 42.2925122,34.2925122 C42.480056,34.1049685 42.7375787,34 43,34 C43.2645206,34 43.5227432,34.1049685 43.7074878,34.2925122 C43.8950315,34.480056 44,34.7375787 44,35 C44,35.2624213 43.8950315,35.519944 43.7074878,35.7046886 C43.5227432,35.8922323 43.2645206,36 43,36" id="Fill-21" fill="#0081FF"></path>
            </g>
        </g>
    </g>
</svg>