<?xml version="1.0" encoding="utf-8"?>
<!-- Generator: Adobe Illustrator 23.0.6, SVG Export Plug-In . SVG Version: 6.00 Build 0)  -->
<svg version="1.1" xmlns="http://www.w3.org/2000/svg" xmlns:xlink="http://www.w3.org/1999/xlink" x="0px" y="0px"
	 viewBox="0 0 2000 2000" style="enable-background:new 0 0 2000 2000;" xml:space="preserve">
<style type="text/css">
	.st0{fill:#030D1E;}
	.st1{clip-path:url(#SVGID_2_);}
	.st2{fill:#FFFFFF;}
	.st3{fill:#00FFFF;}
	.st4{fill:none;}
	.st5{fill:#DD3652;}
	.st6{fill:#C42749;}
</style>
<g id="Calque_2">
	<rect class="st0" width="2000" height="2000"/>
</g>
<g id="Calque_1">
	<g>
		<defs>
			<rect id="SVGID_1_" x="318" y="318" width="1364" height="1364"/>
		</defs>
		<clipPath id="SVGID_2_">
			<use xlink:href="#SVGID_1_"  style="overflow:visible;"/>
		</clipPath>
		<g class="st1">
			<path class="st2" d="M946.8,1281.6l-107.3,30v75c0,12.4-6.8,23.8-17.7,29.8l-19.5,10.5c-2.8,1.5-5.7,2.7-8.6,3.7
				c-13.7,4.4-28.8,2.9-41.4-4.6l-40-23.7c-5.9-3.5-9.1-10.1-8.2-16.9l7.3-52.2l-38-26.3c-5.6-3.9-8.4-10.8-6.9-17.4l4.6-21.7
				c6.3,5.4,13.4,9.8,21,13.1v0c2,0.9,4.1,1.7,6.2,2.4l21,7.2c7.2,2.4,14.5,3.7,22,3.7c6.2,0,12.4-0.8,18.4-2.5
				c1.8-0.5,3.7-1.1,5.7-1.9c3-1.1,6-2.5,8.9-4.2c1.9-1,3.5-2.1,4.6-2.8l0.4-0.2l0.4-0.3c0.6-0.4,1.7-1.1,2.9-2.2
				c0.9-0.7,2.1-1.6,3.4-2.8l27.8-21.7l10.5-8.2l50.6,14.1L946.8,1281.6z"/>
			<path class="st2" d="M1364.7,1168.4l-4.6,21.6c-8-6.8-17.2-12.1-27.3-15.5l-20.9-7.2c-7.2-2.4-14.5-3.7-22-3.7
				c-16.5,0-32.3,6-44.6,16.8l-28,21.8l-7.7,6l-10.9,3.1l-53.9-15l-72.1-20.1l118.9-33.2v-71.8c0-12.4,6.8-23.8,17.7-29.7l8.4-4.6
				l11.1-6c15.7-8.5,34.7-8.2,50,0.9l40,23.6c5.9,3.5,9.1,10.2,8.2,16.9l-7.3,52.2l38,26.3
				C1363.4,1154.8,1366.1,1161.7,1364.7,1168.4z"/>
			<g>
				<g>
					<path class="st2" d="M1357.8,1306.9l-38,26.3l7.3,52.2c1,6.7-2.3,13.4-8.2,16.9l-40,23.6c-7.9,4.7-16.9,7.1-25.9,7.1
						c-8.3,0-16.6-2-24.2-6.1l-12-6.5l-7.5-4.1c-10.9-5.9-17.7-17.3-17.7-29.8v-71.8l-181.8-50.7l-125.9-35.1l-67-18.7l-24,18.7
						l-28.8,22.5c-0.8,0.8-1.6,1.4-2.5,2.1c-0.4,0.3-0.8,0.6-1.3,1c-0.9,0.6-1.8,1.1-2.7,1.6c-1.4,0.8-2.8,1.5-4.3,2
						c-1,0.4-1.9,0.7-2.9,1c-1.3,0.4-2.6,0.6-3.9,0.8c-1.8,0.3-3.6,0.4-5.3,0.4c-3.7,0-7.4-0.6-11-1.8l-20.9-7.2
						c-11.7-4-21.3-12-27.4-22.4c-2.7-4.6-4.7-9.7-5.8-15.1l-9.7-45.5c-1.4-6.7,1.3-13.6,6.9-17.4l38-26.3l-7.3-52.2
						c-1-6.8,2.3-13.4,8.2-16.9l11.7-6.9l28.3-16.7c8-4.7,16.9-7,25.9-7c8.3,0,16.6,2,24.2,6.1l19.5,10.5
						c10.9,5.9,17.7,17.4,17.7,29.8v75l170.3,47.5l125.9,35.1l75.5,21.1l27-21.1l28.8-22.5c6.3-5.8,14.5-8.9,22.9-8.9
						c3.7,0,7.4,0.6,11,1.8l20.9,7.2c11.7,4,21.3,12.1,27.4,22.5c2.7,4.6,4.7,9.7,5.8,15l9.7,45.5
						C1366.1,1296.1,1363.4,1303,1357.8,1306.9z"/>
				</g>
			</g>
			<path class="st3" d="M746.5,1259.9c-1.8,0.3-3.6,0.4-5.3,0.4c-3.7,0-7.4-0.6-11-1.8l-20.9-7.2c-11.7-4-21.3-12-27.4-22.4
				c-2.7-4.6-4.7-9.7-5.8-15.1l-9.7-45.5c-1.4-6.7,1.3-13.6,6.9-17.4l38-26.3l-7.3-52.2c-1-6.8,2.3-13.4,8.2-16.9l11.7-6.9l10,84.2
				l-47.6,34.6l15.2,60.6L746.5,1259.9z"/>
			<path class="st3" d="M793.7,1430.6c-13.7,4.4-28.8,2.9-41.4-4.6l-40-23.7c-5.9-3.5-9.1-10.1-8.2-16.9l7.3-52.2l-38-26.3
				c-5.6-3.9-8.4-10.8-6.9-17.4l4.6-21.7c6.3,5.4,13.4,9.8,21,13.1v0l0.9,16.4l47.6,26l-8.7,65L793.7,1430.6z"/>
			<path class="st3" d="M1217.7,1036.9l-5.2,98l-20.9,6.5v-70.2c0-12.4,6.8-23.8,17.7-29.7L1217.7,1036.9z"/>
			<path class="st3" d="M1216.8,1321.2v99.2l-7.5-4.1c-10.9-5.9-17.7-17.3-17.7-29.8v-71.7L1216.8,1321.2z"/>
			<g>
				<path class="st2" d="M509.8,1575.6h-14.4v14.4h-72.2v57.7h-57.7v-144.3h129.9v14.4h14.4V1575.6z M452,1561.1v-28.9h-28.9v28.9
					H452z"/>
				<path class="st2" d="M668,1517.8v-14.4H552.5v14.4h-14.4v129.9h57.7V1590h28.9v57.7h57.7v-129.9H668z M624.7,1561.1h-28.9v-28.9
					h28.9V1561.1z"/>
				<path class="st2" d="M711.3,1503.4v28.9h43.3v115.5h57.7v-115.5h43.3v-28.9H711.3z"/>
				<path class="st2" d="M1028.8,1647.7h-57.7V1590h-28.9v57.7h-57.7v-144.3h57.7v57.7h28.9v-57.7h57.7V1647.7z"/>
				<path class="st2" d="M1288.6,1633.3h-14.4v14.4h-216.5v-144.3h57.7v115.5h28.9v-115.5h57.7v115.5h28.9v-115.5h57.7V1633.3z"/>
				<path class="st2" d="M1447.4,1517.8v-14.4h-115.5v14.4h-14.4v129.9h57.7V1590h28.9v57.7h57.7v-129.9H1447.4z M1404.1,1561.1
					h-28.9v-28.9h28.9V1561.1z"/>
				<path class="st2" d="M1635,1647.7h-57.7V1590h-28.9v57.7h-57.7v-144.3h129.9v14.4h14.4v43.3h-14.4v28.9h14.4V1647.7z
					 M1577.3,1561.1v-28.9h-28.9v28.9H1577.3z"/>
			</g>
			<rect x="365.9" y="1503" class="st3" width="30.3" height="145.1"/>
			<rect x="753.5" y="1531.2" class="st3" width="30.3" height="116.9"/>
			<polygon class="st3" points="567.3,1503.4 567.3,1647.7 538.1,1647.7 538.1,1517.8 552.5,1517.8 552.5,1503.4 			"/>
			<rect x="711.3" y="1503.4" class="st3" width="27.1" height="28.9"/>
			<rect x="883.4" y="1503" class="st3" width="30.3" height="145.1"/>
			<rect x="1054.4" y="1503" class="st3" width="30.3" height="145.1"/>
			<rect x="1143.2" y="1503" class="st3" width="30.3" height="116.9"/>
			<rect x="1225.5" y="1503" class="st3" width="30.3" height="116.9"/>
			<polygon class="st3" points="1346.7,1503.4 1346.7,1647.7 1317.5,1647.7 1317.5,1517.8 1331.9,1517.8 1331.9,1503.4 			"/>
			<rect x="1489.6" y="1503" class="st3" width="30.3" height="145.1"/>
			<g>
				<path class="st2" d="M1286,647.8l-562.1,41.8v192.1c0,21,6.9,41.1,19.1,57.4c2.4,1.8,5,3.4,7.6,4.8L851.6,997
					c19.6,10.3,31.8,30.6,31.8,52.7v65.3c5.8,6,13.1,10.5,21.5,12.8c0.3,0.1,0.6,0.2,0.9,0.3l6.2,1.6l30.2-44.7l-2.6,51.9l61.4,16
					l13.9-52.3l15.4,52.4l62.1-16.2l-2.5-50.7l29.6,43.7l6.6-1.7c21.1-5.5,35.9-24.6,35.9-46.4v-61.3l97.3-55.2
					c30-17,48.6-48.9,48.6-83.5V647.8H1286z M962.9,882.3c-0.7,27.9-18.9,56.7-97.3,44.6c-156.4-24.1-85.4-174.6-58.4-190
					c1-0.6,1.9-0.9,2.8-1.1c51.2-11.3,143,102.6,143,102.6S963.5,860,962.9,882.3z M988.2,978.5c-13.4-5.8,15.8-65,15.8-65
					S1018.7,991.8,988.2,978.5z M1046.7,978.5c-30.4,13.3-15.8-65-15.8-65S1060.1,972.7,1046.7,978.5z M1231.3,902.1
					c-15.1,11.5-36.3,20.3-65.3,24.8c-140.7,21.7-87.4-88.5-87.4-88.5s88.6-110,140.3-103.1c0.9,0.1,1.8,0.3,2.7,0.5
					C1241.6,740.2,1300.5,849.4,1231.3,902.1z"/>
				<path class="st4" d="M1046.7,978.5c13.4-5.8-15.8-65-15.8-65S1016.2,991.8,1046.7,978.5z"/>
				<path class="st4" d="M908.1,456.2c-7.2,0-13,5.8-13,13c0,7.2,5.8,13,13,13c7.2,0,13-5.8,13-13
					C921.1,462,915.3,456.2,908.1,456.2z"/>
				<path class="st4" d="M807.4,456.2c-7.2,0-13,5.8-13,13c0,7.2,5.8,13,13,13c7.2,0,13-5.8,13-13
					C820.4,462,814.6,456.2,807.4,456.2z"/>
				<path class="st4" d="M908.1,404.2c7.2,0,13-5.8,13-13c0-7.2-5.8-13-13-13c-7.2,0-13,5.8-13,13
					C895.1,398.4,900.9,404.2,908.1,404.2z"/>
				<circle class="st4" cx="885.4" cy="427" r="13"/>
				<path class="st4" d="M859.4,456.2c-7.2,0-13,5.8-13,13c0,0.5,0,1.1,0.1,1.6c0.8,6.4,6.2,11.4,12.9,11.4c7.2,0,13-5.8,13-13
					c0-3.1-1.1-5.9-2.9-8.2C867.1,458.1,863.5,456.2,859.4,456.2z"/>
				<path class="st4" d="M988.2,978.5c30.4,13.3,15.8-65,15.8-65S974.8,972.7,988.2,978.5z"/>
				<path class="st4" d="M969.1,478.4c2.4-2.4,3.9-5.6,3.9-9.3c0-7.2-5.8-13-13-13c-7.2,0-13,5.8-13,13c0,5.3,3.1,9.8,7.6,11.8
					l10.8-1.9C966.7,478.8,967.9,478.7,969.1,478.4z"/>
				<path class="st4" d="M1206.8,514.6c0-7.2-5.8-13-13-13c-7.2,0-13,5.8-13,13c0,0.6,0.1,1.2,0.1,1.8l20.5,8.7
					C1204.7,522.8,1206.8,519,1206.8,514.6z"/>
				<path class="st4" d="M1026.9,474.9c0.8-1.7,1.3-3.6,1.3-5.7c0-7.2-5.8-13-13-13c-7.2,0-13,5.8-13,13c0,2.1,0.5,4,1.3,5.7
					C1011.4,474.6,1019.1,474.6,1026.9,474.9z"/>
				<path class="st4" d="M849.7,514.6c0-7.2-5.8-13-13-13c-7.2,0-13,5.8-13,13c0,4.5,2.3,8.5,5.8,10.8l20-8.5
					C849.6,516.2,849.7,515.4,849.7,514.6z"/>
				<path class="st4" d="M882.1,501.7c-4.6,0-8.7,2.4-11,6.1l13.6-5.8C883.9,501.8,883,501.7,882.1,501.7z"/>
				<path class="st4" d="M865.6,926.9c78.4,12.1,96.6-16.7,97.3-44.6c0.6-22.2-9.9-43.8-9.9-43.8s-91.8-113.9-143-102.6
					c-0.8,0.2-1.8,0.6-2.8,1.1C780.2,752.3,709.2,902.8,865.6,926.9z"/>
				<path class="st4" d="M1038,414c-7,0-12.6,5.5-13,12.3c0,0.2,0,0.4,0,0.6c0,7.2,5.8,13,13,13c6.7,0,12.2-5,12.9-11.5
					c0.1-0.5,0.1-1,0.1-1.5C1051,419.8,1045.1,414,1038,414z"/>
				<path class="st4" d="M1167.9,456.2c-3.5,0-6.7,1.4-9,3.6c-2.4,2.4-4,5.7-4,9.3c0,7.2,5.8,13,13,13c7.2,0,13-5.8,13-13
					c0,0,0,0,0,0C1180.8,462,1175,456.2,1167.9,456.2z"/>
				<path class="st4" d="M1141.9,414c-7.2,0-13,5.8-13,13c0,7.2,5.8,13,13,13c7.2,0,13-5.8,13-13C1154.9,419.8,1149,414,1141.9,414z
					"/>
				<path class="st4" d="M1115.9,456.2c-7.2,0-13,5.8-13,13c0,7.2,5.8,13,13,13c7.2,0,13-5.8,13-13
					C1128.9,462,1123.1,456.2,1115.9,456.2z"/>
				<path class="st4" d="M1219.8,456.2c-7.2,0-13,5.8-13,13c0,7.2,5.8,13,13,13c7.2,0,13-5.8,13-13
					C1232.8,462,1227,456.2,1219.8,456.2z"/>
				<path class="st4" d="M1089.9,414c-7.2,0-13,5.8-13,13c0,2.2,0.6,4.3,1.5,6.1c2.2,4.1,6.5,6.9,11.5,6.9c3,0,5.7-1,7.9-2.7
					c3.1-2.4,5.1-6.1,5.1-10.3C1102.9,419.8,1097.1,414,1089.9,414z"/>
				<path class="st4" d="M1166.1,926.9c29-4.5,50.2-13.3,65.3-24.8c69.2-52.8,10.3-161.9-9.7-166.3c-0.9-0.2-1.8-0.3-2.7-0.5
					c-51.7-7-140.3,103.1-140.3,103.1S1025.3,948.6,1166.1,926.9z"/>
				<path class="st4" d="M1015.2,378.3c-7.2,0-13,5.8-13,13c0,7.2,5.8,13,13,13c7.2,0,13-5.8,13-13
					C1028.2,384.1,1022.4,378.3,1015.2,378.3z"/>
				<path class="st4" d="M934.1,414c-7.2,0-13,5.8-13,13c0,5.1,2.9,9.5,7.2,11.6c1.7,0.9,3.7,1.4,5.7,1.4c4.3,0,8.1-2.1,10.5-5.3
					c1.6-2.1,2.5-4.8,2.5-7.7C947.1,419.8,941.2,414,934.1,414z"/>
				<path class="st4" d="M1073.7,480.4c3.9-2.2,6.5-6.4,6.5-11.2c0-7.2-5.8-13-13-13c-7.2,0-13,5.8-13,13c0,3.2,1.2,6.2,3.2,8.5
					c2.9,0.4,5.9,0.9,8.8,1.4L1073.7,480.4z"/>
				<path class="st4" d="M986,414c-7.2,0-13,5.8-13,13c0,0.8,0.1,1.6,0.3,2.4c1.1,6,6.4,10.6,12.7,10.6c7.2,0,13-5.8,13-13
					c0-0.1,0-0.2,0-0.3C998.8,419.6,993.1,414,986,414z"/>
				<path class="st4" d="M960.1,378.3c-7.2,0-13,5.8-13,13c0,7.2,5.8,13,13,13c7.2,0,13-5.8,13-13
					C973,384.1,967.2,378.3,960.1,378.3z"/>
				<path class="st4" d="M1115.9,404.2c7.2,0,13-5.8,13-13c0-7.2-5.8-13-13-13c-7.2,0-13,5.8-13,13
					C1102.9,398.4,1108.7,404.2,1115.9,404.2z"/>
				<path class="st4" d="M1067.2,378.3c-7.2,0-13,5.8-13,13c0,7.2,5.8,13,13,13c7.2,0,13-5.8,13-13
					C1080.2,384.1,1074.4,378.3,1067.2,378.3z"/>
				<path class="st3" d="M1193.8,527.6c2.8,0,5.5-0.9,7.6-2.5l-20.5-8.7C1181.9,522.8,1187.3,527.6,1193.8,527.6z"/>
				<path class="st3" d="M934.1,501.7c-7.2,0-13,5.8-13,13c0,7.2,5.8,13,13,13c7.2,0,13-5.8,13-13
					C947.1,507.5,941.2,501.7,934.1,501.7z"/>
				<path class="st3" d="M1093.2,501.7c-7.2,0-13,5.8-13,13c0,7.2,5.8,13,13,13c7.2,0,13-5.8,13-13
					C1106.2,507.5,1100.3,501.7,1093.2,501.7z"/>
				<path class="st3" d="M849.4,517l-20,8.5c2.1,1.4,4.5,2.2,7.2,2.2C843.1,527.6,848.3,523,849.4,517z"/>
				<path class="st3" d="M1067.2,482.2c2.4,0,4.6-0.6,6.5-1.8l-7.5-1.3c-2.9-0.5-5.8-1-8.8-1.4
					C1059.8,480.4,1063.3,482.2,1067.2,482.2z"/>
				<path class="st3" d="M1141.9,501.7c-7.2,0-13,5.8-13,13c0,7.2,5.8,13,13,13c7.2,0,13-5.8,13-13
					C1154.9,507.5,1149,501.7,1141.9,501.7z"/>
				<path class="st3" d="M1015.2,482.2c5.1,0,9.6-3,11.7-7.3c-7.8-0.3-15.6-0.3-23.3,0C1005.7,479.2,1010.1,482.2,1015.2,482.2z"/>
				<path class="st3" d="M882.1,527.6c7.2,0,13-5.8,13-13c0-6.3-4.4-11.5-10.3-12.7l-13.6,5.8c-1.3,2-2,4.4-2,6.9
					C869.1,521.8,875,527.6,882.1,527.6z"/>
				<path class="st3" d="M969.1,478.4c-1.2,0.2-2.5,0.4-3.7,0.6l-10.8,1.9c1.6,0.7,3.5,1.2,5.4,1.2
					C963.6,482.2,966.8,480.7,969.1,478.4z"/>
				<path class="st5" d="M1345.7,605.5h-38c-10.5-73.3-47.9-138-101.9-183.6c0.6,1.5,1,3.2,1,5c0,7.2-5.8,13-13,13
					c-7.2,0-13-5.8-13-13s5.8-13,13-13c0.8,0,1.6,0.1,2.4,0.2c-50-38.8-112.8-61.9-181-61.9c-68.2,0-131,23.1-181,61.9
					c0.8-0.1,1.6-0.2,2.4-0.2c7.2,0,13,5.8,13,13s-5.8,13-13,13c-7.2,0-13-5.8-13-13c0-1.8,0.3-3.5,1-5
					c-10.8,9.1-20.9,18.9-30.2,29.5c-5,5.6-9.7,11.3-14.2,17.3c-29.6,38.8-49.8,85.1-57.2,135.6c0,0,0,0.1,0,0.1
					c0,0.4-0.1,0.7-0.2,1.1h-34.3c-11.6,0-21.1,9.5-21.1,21.1s9.5,21.1,21.1,21.1h657.2c10.9,0,19.8-8.9,19.8-19.8v-2.7
					C1365.5,614.5,1356.6,605.5,1345.7,605.5z M1141.9,414c7.2,0,13,5.8,13,13s-5.8,13-13,13c-7.2,0-13-5.8-13-13
					S1134.7,414,1141.9,414z M1115.9,378.3c7.2,0,13,5.8,13,13c0,7.2-5.8,13-13,13c-7.2,0-13-5.8-13-13
					C1102.9,384.1,1108.7,378.3,1115.9,378.3z M1089.9,414c7.2,0,13,5.8,13,13c0,4.2-2,7.9-5.1,10.3c-2.2,1.7-4.9,2.7-7.9,2.7
					c-5,0-9.3-2.8-11.5-6.9c-1-1.8-1.5-3.9-1.5-6.1C1076.9,419.8,1082.8,414,1089.9,414z M1067.2,378.3c7.2,0,13,5.8,13,13
					c0,7.2-5.8,13-13,13c-7.2,0-13-5.8-13-13C1054.2,384.1,1060,378.3,1067.2,378.3z M1015.2,378.3c7.2,0,13,5.8,13,13
					c0,7.2-5.8,13-13,13c-7.2,0-13-5.8-13-13C1002.3,384.1,1008.1,378.3,1015.2,378.3z M960,378.3c7.2,0,13,5.8,13,13
					c0,7.2-5.8,13-13,13c-7.2,0-13-5.8-13-13C947.1,384.1,952.9,378.3,960,378.3z M934.1,414c7.2,0,13,5.8,13,13
					c0,2.9-1,5.5-2.5,7.7c-2.4,3.2-6.2,5.3-10.5,5.3c-2.1,0-4-0.5-5.8-1.4c-4.3-2.1-7.2-6.5-7.2-11.6
					C921.1,419.8,926.9,414,934.1,414z M908.1,378.3c7.2,0,13,5.8,13,13c0,7.2-5.8,13-13,13c-7.2,0-13-5.8-13-13
					C895.1,384.1,900.9,378.3,908.1,378.3z M885.4,414c7.2,0,13,5.8,13,13s-5.8,13-13,13c-7.2,0-13-5.8-13-13S878.2,414,885.4,414z
					 M807.5,482.2c-7.2,0-13-5.8-13-13c0-7.2,5.8-13,13-13s13,5.8,13,13C820.4,476.4,814.6,482.2,807.5,482.2z M849.5,517
					c-1.1,6.1-6.4,10.7-12.8,10.7c-2.7,0-5.2-0.8-7.2-2.2c-3.5-2.3-5.8-6.3-5.8-10.8c0-7.2,5.8-13,13-13c7.2,0,13,5.8,13,13
					C849.7,515.4,849.6,516.2,849.5,517z M859.4,482.2c-6.6,0-12.1-5-12.9-11.4c-0.1-0.5-0.1-1.1-0.1-1.6c0-7.2,5.8-13,13-13
					c4.1,0,7.7,1.9,10.1,4.8c1.8,2.3,2.9,5.1,2.9,8.2C872.4,476.4,866.6,482.2,859.4,482.2z M882.1,527.6c-7.2,0-13-5.8-13-13
					c0-2.6,0.7-4.9,2-6.9c2.3-3.6,6.3-6.1,11-6.1c0.9,0,1.8,0.1,2.7,0.3c5.9,1.2,10.3,6.5,10.3,12.7
					C895.1,521.8,889.3,527.6,882.1,527.6z M908.1,482.2c-7.2,0-13-5.8-13-13c0-7.2,5.8-13,13-13c7.2,0,13,5.8,13,13
					C921.1,476.4,915.3,482.2,908.1,482.2z M934.1,527.6c-7.2,0-13-5.8-13-13c0-7.2,5.8-13,13-13c7.2,0,13,5.8,13,13
					C947.1,521.8,941.3,527.6,934.1,527.6z M969.1,478.5c-2.3,2.3-5.5,3.7-9.1,3.7c-1.9,0-3.7-0.4-5.4-1.2c-4.5-2-7.6-6.5-7.6-11.8
					c0-7.2,5.8-13,13-13c7.2,0,13,5.8,13,13C973,472.8,971.5,476.1,969.1,478.5z M999,427c0,7.2-5.8,13-13,13
					c-6.3,0-11.6-4.5-12.7-10.6c-0.2-0.8-0.2-1.6-0.2-2.4c0-7.2,5.8-13,13-13c7.1,0,12.8,5.7,13,12.7V427z M1026.9,474.9
					c-2.1,4.3-6.5,7.3-11.7,7.3c-5.1,0-9.5-3-11.6-7.3c-0.8-1.7-1.3-3.7-1.3-5.7c0-7.2,5.8-13,13-13c7.2,0,13,5.8,13,13
					C1028.2,471.2,1027.7,473.1,1026.9,474.9z M1050.9,428.4c-0.7,6.5-6.2,11.5-12.9,11.5c-7.2,0-13-5.8-13-13c0-0.2,0-0.4,0-0.6
					c0.3-6.9,6-12.3,12.9-12.3c7.2,0,13,5.8,13,13C1051,427.5,1050.9,427.9,1050.9,428.4z M1073.7,480.4c-1.9,1.1-4.1,1.8-6.5,1.8
					c-3.9,0-7.4-1.7-9.8-4.5c-1.9-2.3-3.2-5.2-3.2-8.5c0-7.2,5.8-13,13-13c7.2,0,13,5.8,13,13C1080.2,474,1077.6,478.2,1073.7,480.4
					z M1093.2,527.6c-7.2,0-13-5.8-13-13c0-7.2,5.8-13,13-13c7.2,0,13,5.8,13,13C1106.2,521.8,1100.3,527.6,1093.2,527.6z
					 M1115.9,482.2c-7.2,0-13-5.8-13-13c0-7.2,5.8-13,13-13c7.2,0,13,5.8,13,13C1128.9,476.4,1123.1,482.2,1115.9,482.2z
					 M1141.9,527.6c-7.2,0-13-5.8-13-13c0-7.2,5.8-13,13-13c7.2,0,13,5.8,13,13C1154.9,521.8,1149.1,527.6,1141.9,527.6z
					 M1167.9,482.2c-7.2,0-13-5.8-13-13c0-3.7,1.5-7,4-9.3c2.3-2.3,5.5-3.6,9-3.6c7.2,0,13,5.8,13,13c0,0,0,0,0,0
					C1180.8,476.4,1175,482.2,1167.9,482.2z M1201.5,525.1c-2.1,1.6-4.8,2.5-7.6,2.5c-6.6,0-12-4.9-12.8-11.2
					c-0.1-0.6-0.2-1.2-0.2-1.8c0-7.2,5.8-13,13-13c7.2,0,13,5.8,13,13C1206.8,519,1204.7,522.8,1201.5,525.1z M1219.8,482.2
					c-7.2,0-13-5.8-13-13c0-7.2,5.8-13,13-13c7.2,0,13,5.8,13,13C1232.8,476.4,1227,482.2,1219.8,482.2z"/>
			</g>
			<path class="st3" d="M905,1049.7v74.1c0,1.3,0,2.7-0.2,4c-20.7-5.8-35-24.6-35-46.2v-61.3l-97.3-55.2
				c-30.1-17-48.6-48.9-48.6-83.5V647.8h583.7l-562.1,41.8l-5.1,0.4v201.2c0,19.1,9.1,36.8,24.2,47.9c2.4,1.8,5,3.4,7.6,4.8
				L873.2,997C892.8,1007.3,905,1027.6,905,1049.7z"/>
			<path class="st3" d="M962.6,830.8c0.6,0.7,0.9,1.6,0.9,2.5v49.3l-0.6-0.3c0.6-20.4-8.2-40.3-9.6-43.4c-0.1-0.3-0.3-0.5-0.5-0.8
				c-5.7-7-93.2-113.2-142.7-102.2c-0.1,0-0.2,0.1-0.3,0.1c-1.6,0.4-3.3-0.1-4.2-1.5v0l22.5-14.3c0.8-0.5,1.8-0.7,2.8-0.5l42.6,8.1
				c0.9,0.2,1.6,0.6,2.2,1.3L962.6,830.8z"/>
			<path class="st3" d="M1279.6,838.4l-15.2,43.3l-33.1,20.5c69.2-52.8,10.3-161.9-9.7-166.3c-0.9-0.2-1.8-0.3-2.7-0.5v-0.9h26
				l28.1,28.1L1279.6,838.4z"/>
			<polygon class="st3" points="940.8,1113.4 950.5,1089.5 955.5,1141 939.7,1137.1 			"/>
			<polygon class="st3" points="1022.8,1127.8 1028.4,1104.7 1043.7,1149.5 1028.4,1152.3 			"/>
			<polygon class="st3" points="1102.3,1104.7 1102.1,1089.5 1125.9,1128.5 1119.4,1128.5 			"/>
			<path class="st6" d="M753.5,604.5h-30.3l-0.2-0.2c7.4-50.5,27.6-96.8,57.2-135.6l3.2,0.4C752.7,561.2,753.5,604.5,753.5,604.5z"
				/>
		</g>
	</g>
</g>
</svg>
