<?xml version="1.0" encoding="utf-8"?>
<!-- Generator: Adobe Illustrator 23.0.6, SVG Export Plug-In . SVG Version: 6.00 Build 0)  -->
<svg version="1.1" id="Calque_1" xmlns="http://www.w3.org/2000/svg" xmlns:xlink="http://www.w3.org/1999/xlink" x="0px" y="0px"
	 viewBox="0 0 2000 2000" style="enable-background:new 0 0 2000 2000;" xml:space="preserve">
<style type="text/css">
	.st0{clip-path:url(#SVGID_2_);}
	.st1{fill:#FFFFFF;}
	.st2{fill:#00FFFF;}
	.st3{fill:none;}
	.st4{fill:#DD3652;}
	.st5{fill:#C42749;}
</style>
<g>
	<defs>
		<rect id="SVGID_1_" width="2000" height="2000"/>
	</defs>
	<clipPath id="SVGID_2_">
		<use xlink:href="#SVGID_1_"  style="overflow:visible;"/>
	</clipPath>
	<g class="st0">
		<path class="st1" d="M922,1412.9l-157.4,43.9v110c0,18.2-10,35-26,43.7l-28.5,15.4c-4.1,2.2-8.3,4-12.6,5.4
			c-20.1,6.5-42.2,4.2-60.8-6.7l-58.7-34.7c-8.6-5.1-13.4-14.9-12-24.8l10.6-76.6l-55.8-38.6c-8.2-5.7-12.3-15.8-10.2-25.6l6.7-31.7
			c9.2,7.9,19.6,14.4,30.8,19.2v0c3,1.3,6,2.5,9.1,3.6l30.8,10.6c10.5,3.6,21.3,5.4,32.2,5.4c9.1,0,18.2-1.2,27-3.7
			c2.6-0.7,5.4-1.7,8.4-2.8c4.4-1.6,8.8-3.7,13-6.1c2.7-1.5,5.1-3,6.8-4.2l0.6-0.3l0.5-0.4c0.9-0.6,2.5-1.7,4.3-3.2
			c1.3-1,3.1-2.4,5-4.1l40.8-31.8l15.4-12l74.2,20.7L922,1412.9z"/>
		<path class="st1" d="M1534.8,1246.9l-6.8,31.6c-11.7-9.9-25.3-17.7-40.1-22.7l-30.6-10.5c-10.5-3.6-21.3-5.4-32.2-5.4
			c-24.2,0-47.3,8.8-65.4,24.6l-41,32l-11.3,8.8l-16,4.5l-79-22l-105.7-29.5l174.3-48.6v-105.3c0-18.2,10-35,26-43.6l12.3-6.7
			l16.2-8.8c23-12.5,50.8-12,73.4,1.4l58.7,34.7c8.6,5.1,13.4,14.9,12,24.8l-10.6,76.6l55.7,38.6
			C1532.8,1227,1536.8,1237.1,1534.8,1246.9z"/>
		<g>
			<g>
				<path class="st1" d="M1524.6,1450l-55.7,38.6l10.6,76.6c1.4,9.9-3.3,19.7-12,24.8l-58.7,34.6c-11.7,6.9-24.8,10.4-37.9,10.4
					c-12.2,0-24.4-3-35.5-9l-17.5-9.5l-11-6c-16-8.7-26-25.4-26-43.7v-105.2l-266.6-74.4l-184.6-51.5l-98.3-27.5l-35.2,27.5
					l-42.2,33c-1.1,1.1-2.4,2.1-3.7,3c-0.6,0.5-1.2,1-1.9,1.4c-1.3,0.8-2.6,1.7-3.9,2.4c-2,1.1-4.1,2.2-6.3,3
					c-1.4,0.5-2.9,1-4.3,1.4c-1.9,0.5-3.8,1-5.7,1.2c-2.6,0.4-5.2,0.6-7.8,0.6c-5.4,0-10.9-0.9-16.1-2.7l-30.7-10.5
					c-17.1-5.9-31.2-17.7-40.1-32.9c-3.9-6.8-6.9-14.2-8.5-22.1l-14.2-66.7c-2.1-9.8,1.9-19.9,10.2-25.6l55.8-38.6l-10.6-76.6
					c-1.4-9.9,3.3-19.7,12-24.8l17.2-10.2l41.5-24.5c11.7-6.9,24.8-10.3,37.9-10.3c12.2,0,24.4,3,35.5,9l28.5,15.4
					c16,8.7,26,25.5,26,43.7v110l249.7,69.7l184.6,51.5l110.8,30.9l39.6-30.9l42.3-33c9.3-8.5,21.3-13.1,33.6-13.1
					c5.4,0,10.9,0.9,16.2,2.7l30.7,10.5c17.2,5.9,31.3,17.7,40.2,32.9c3.9,6.8,6.8,14.2,8.5,22l14.2,66.7
					C1536.8,1434.2,1532.8,1444.3,1524.6,1450z"/>
			</g>
		</g>
		<path class="st2" d="M628.2,1381.1c-2.6,0.4-5.2,0.6-7.8,0.6c-5.4,0-10.9-0.9-16.1-2.7l-30.7-10.5c-17.1-5.9-31.2-17.7-40.1-32.9
			c-3.9-6.8-6.9-14.2-8.5-22.1l-14.2-66.7c-2.1-9.8,1.9-19.9,10.2-25.6l55.8-38.6l-10.6-76.6c-1.4-9.9,3.3-19.7,12-24.8l17.2-10.2
			l14.7,123.5l-69.8,50.8l22.2,88.9L628.2,1381.1z"/>
		<path class="st2" d="M697.4,1631.4c-20.1,6.5-42.2,4.2-60.8-6.7l-58.7-34.7c-8.6-5.1-13.4-14.9-12-24.8l10.6-76.6l-55.8-38.6
			c-8.2-5.7-12.3-15.8-10.2-25.6l6.7-31.7c9.2,7.9,19.6,14.4,30.8,19.2v0l1.3,24.1l69.8,38.1l-12.7,95.2L697.4,1631.4z"/>
		<path class="st2" d="M1319.2,1054.2l-7.7,143.7l-30.6,9.5v-103c0-18.2,10-35,26-43.6L1319.2,1054.2z"/>
		<path class="st2" d="M1317.9,1470.9v145.5l-11-6c-16-8.7-26-25.4-26-43.7v-105.1L1317.9,1470.9z"/>
		<g>
			<path class="st1" d="M281.2,1843.9H260v21.2H154.2v84.7H69.5v-211.6H260v21.2h21.2V1843.9z M196.5,1822.8v-42.3h-42.3v42.3H196.5
				z"/>
			<path class="st1" d="M513.1,1759.3v-21.1H343.8v21.1h-21.1v190.5h84.6v-84.6h42.3v84.6h84.6v-190.5H513.1z M449.6,1822.8h-42.3
				v-42.3h42.3V1822.8z"/>
			<path class="st1" d="M576.6,1738.1v42.3h63.5v169.3h84.6v-169.3h63.5v-42.3H576.6z"/>
			<path class="st1" d="M1042.2,1949.8h-84.7v-84.7h-42.3v84.7h-84.7v-211.6h84.7v84.7h42.3v-84.7h84.7V1949.8z"/>
			<path class="st1" d="M1423.2,1928.6H1402v21.2h-317.5v-211.6h84.7v169.3h42.3v-169.3h84.7v169.3h42.3v-169.3h84.7V1928.6z"/>
			<path class="st1" d="M1656,1759.3v-21.1h-169.3v21.1h-21.2v190.5h84.7v-84.6h42.3v84.6h84.7v-190.5H1656z M1592.5,1822.8h-42.3
				v-42.3h42.3V1822.8z"/>
			<path class="st1" d="M1931.1,1949.8h-84.7v-84.7h-42.3v84.7h-84.7v-211.6H1910v21.2h21.2v63.5H1910v42.3h21.2V1949.8z
				 M1846.5,1822.8v-42.3h-42.3v42.3H1846.5z"/>
		</g>
		<rect x="70.3" y="1737.6" class="st2" width="44.4" height="212.7"/>
		<rect x="638.5" y="1778.9" class="st2" width="44.4" height="171.4"/>
		<polygon class="st2" points="365.5,1738.1 365.5,1949.7 322.7,1949.7 322.7,1759.3 343.8,1759.3 343.8,1738.1 		"/>
		<rect x="576.6" y="1738.1" class="st2" width="39.7" height="42.3"/>
		<rect x="829" y="1737.6" class="st2" width="44.4" height="212.7"/>
		<rect x="1079.8" y="1737.6" class="st2" width="44.4" height="212.7"/>
		<rect x="1210" y="1737.6" class="st2" width="44.4" height="171.4"/>
		<rect x="1330.6" y="1737.6" class="st2" width="44.4" height="171.4"/>
		<polygon class="st2" points="1508.4,1738.1 1508.4,1949.7 1465.5,1949.7 1465.5,1759.3 1486.7,1759.3 1486.7,1738.1 		"/>
		<rect x="1717.9" y="1737.6" class="st2" width="44.4" height="212.7"/>
		<g>
			<path class="st1" d="M1419.4,483.5l-824.2,61.3v281.7c0,30.9,10.1,60.3,27.9,84.2c3.5,2.6,7.3,5,11.2,7l148,77.9
				c28.7,15.1,46.6,44.8,46.6,77.2v95.8c8.4,8.8,19.2,15.4,31.5,18.8c0.4,0.2,0.9,0.3,1.3,0.4l9,2.3l44.3-65.5l-3.8,76.1l90,23.5
				l20.3-76.7l22.5,76.8l91-23.7l-3.7-74.3l43.3,64l9.7-2.5c31-8,52.6-36,52.6-68.1v-89.9l142.7-80.9c44-25,71.3-71.7,71.3-122.4
				v-343H1419.4z M945.5,827.4c-1,40.9-27.7,83.2-142.6,65.5c-229.3-35.3-125.2-256-85.6-278.5c1.5-0.8,2.8-1.4,4.1-1.7
				c75.1-16.6,209.7,150.4,209.7,150.4S946.4,794.8,945.5,827.4z M982.7,968.5c-19.7-8.6,23.1-95.4,23.1-95.4
				S1027.4,988,982.7,968.5z M1068.4,968.5c-44.6,19.5-23.1-95.4-23.1-95.4S1088.1,960,1068.4,968.5z M1339.2,856.5
				c-22.1,16.8-53.2,29.8-95.7,36.3c-206.3,31.9-128.2-129.7-128.2-129.7s130-161.3,205.8-151.1c1.3,0.2,2.6,0.4,3.9,0.7
				C1354.3,619.1,1440.7,779.1,1339.2,856.5z"/>
			<path class="st3" d="M1068.4,968.5c19.7-8.6-23.1-95.4-23.1-95.4S1023.8,988,1068.4,968.5z"/>
			<path class="st3" d="M865.3,202.6c-10.5,0-19,8.5-19,19c0,10.5,8.5,19,19,19c10.5,0,19-8.5,19-19
				C884.3,211.2,875.8,202.6,865.3,202.6z"/>
			<path class="st3" d="M717.7,202.6c-10.5,0-19,8.5-19,19c0,10.5,8.5,19,19,19s19-8.5,19-19C736.7,211.2,728.2,202.6,717.7,202.6z"
				/>
			<path class="st3" d="M865.3,126.5c10.5,0,19-8.5,19-19c0-10.5-8.5-19-19-19c-10.5,0-19,8.5-19,19
				C846.2,117.9,854.7,126.5,865.3,126.5z"/>
			<circle class="st3" cx="831.9" cy="159.8" r="19"/>
			<path class="st3" d="M793.8,202.6c-10.5,0-19,8.5-19,19c0,0.8,0.1,1.6,0.2,2.3c1.1,9.4,9.1,16.7,18.9,16.7c10.5,0,19-8.5,19-19
				c0-4.5-1.6-8.7-4.3-12C805.1,205.4,799.8,202.6,793.8,202.6z"/>
			<path class="st3" d="M982.7,968.5c44.6,19.5,23.1-95.4,23.1-95.4S963,960,982.7,968.5z"/>
			<path class="st3" d="M954.7,235.3c3.5-3.5,5.7-8.3,5.7-13.6c0-10.5-8.5-19-19-19c-10.5,0-19,8.5-19,19c0,7.7,4.6,14.3,11.2,17.3
				l15.8-2.8C951.1,235.8,952.9,235.6,954.7,235.3z"/>
			<path class="st3" d="M1303.2,288.3c0-10.5-8.5-19-19-19c-10.5,0-19,8.5-19,19c0,0.9,0.1,1.8,0.2,2.6l30,12.8
				C1300.1,300.3,1303.2,294.7,1303.2,288.3z"/>
			<path class="st3" d="M1039.5,230c1.2-2.5,1.9-5.3,1.9-8.3c0-10.5-8.5-19-19-19c-10.5,0-19,8.5-19,19c0,3,0.7,5.9,2,8.4
				C1016.7,229.6,1028.1,229.6,1039.5,230z"/>
			<path class="st3" d="M779.6,288.3c0-10.5-8.5-19-19-19c-10.5,0-19,8.5-19,19c0,6.6,3.4,12.4,8.5,15.8l29.3-12.5
				C779.4,290.6,779.6,289.5,779.6,288.3z"/>
			<path class="st3" d="M827.2,269.3c-6.8,0-12.7,3.6-16.1,8.9l20-8.5C829.8,269.4,828.5,269.3,827.2,269.3z"/>
			<path class="st3" d="M802.9,892.8c115,17.7,141.6-24.5,142.6-65.5c0.9-32.6-14.4-64.3-14.4-64.3s-134.6-167-209.7-150.4
				c-1.2,0.3-2.6,0.8-4.1,1.7C677.7,636.8,573.6,857.5,802.9,892.8z"/>
			<path class="st3" d="M1055.7,140.7c-10.2,0-18.5,8-19,18.1c0,0.3-0.1,0.6-0.1,0.9c0,10.5,8.5,19,19,19c9.8,0,17.9-7.4,18.9-16.9
				c0.1-0.7,0.1-1.4,0.1-2.1C1074.7,149.3,1066.2,140.7,1055.7,140.7z"/>
			<path class="st3" d="M1246.1,202.6c-5.1,0-9.8,2-13.2,5.3c-3.6,3.5-5.8,8.3-5.8,13.7c0,10.5,8.5,19,19,19c10.5,0,19-8.5,19-19
				c0,0,0,0,0,0C1265.2,211.2,1256.6,202.6,1246.1,202.6z"/>
			<path class="st3" d="M1208,140.7c-10.5,0-19,8.5-19,19c0,10.5,8.5,19,19,19c10.5,0,19-8.5,19-19
				C1227.1,149.3,1218.5,140.7,1208,140.7z"/>
			<path class="st3" d="M1169.9,202.6c-10.5,0-19,8.5-19,19c0,10.5,8.5,19,19,19c10.5,0,19-8.5,19-19
				C1189,211.2,1180.5,202.6,1169.9,202.6z"/>
			<path class="st3" d="M1322.3,202.6c-10.5,0-19,8.5-19,19c0,10.5,8.5,19,19,19c10.5,0,19-8.5,19-19
				C1341.3,211.2,1332.8,202.6,1322.3,202.6z"/>
			<path class="st3" d="M1131.9,140.7c-10.5,0-19,8.5-19,19c0,3.2,0.8,6.2,2.2,8.9c3.2,6.1,9.5,10.2,16.8,10.2
				c4.3,0,8.3-1.5,11.5-3.9c4.6-3.5,7.5-9,7.5-15.1C1150.9,149.3,1142.4,140.7,1131.9,140.7z"/>
			<path class="st3" d="M1243.5,892.8c42.5-6.5,73.6-19.5,95.7-36.3c101.5-77.4,15.1-237.4-14.2-243.9c-1.3-0.3-2.6-0.5-3.9-0.7
				c-75.8-10.2-205.8,151.1-205.8,151.1S1037.1,924.7,1243.5,892.8z"/>
			<path class="st3" d="M1022.4,88.4c-10.5,0-19,8.5-19,19c0,10.5,8.5,19,19,19c10.5,0,19-8.5,19-19
				C1041.4,96.9,1032.9,88.4,1022.4,88.4z"/>
			<path class="st3" d="M903.3,140.7c-10.5,0-19,8.5-19,19c0,7.5,4.3,13.9,10.6,17c2.5,1.3,5.4,2,8.4,2c6.3,0,11.9-3.1,15.4-7.8
				c2.3-3.1,3.7-7,3.7-11.2C922.4,149.3,913.9,140.7,903.3,140.7z"/>
			<path class="st3" d="M1108.1,238.1c5.7-3.3,9.5-9.4,9.5-16.5c0-10.5-8.5-19-19-19c-10.5,0-19,8.5-19,19c0,4.8,1.8,9.1,4.6,12.4
				c4.3,0.6,8.6,1.3,12.9,2.1L1108.1,238.1z"/>
			<path class="st3" d="M979.5,140.7c-10.5,0-19,8.5-19,19c0,1.2,0.1,2.4,0.4,3.6c1.7,8.8,9.4,15.5,18.7,15.5c10.5,0,19-8.5,19-19
				c0-0.2,0-0.3,0-0.5C998.3,149,989.9,140.7,979.5,140.7z"/>
			<path class="st3" d="M941.4,88.4c-10.5,0-19,8.5-19,19c0,10.5,8.5,19,19,19c10.5,0,19-8.5,19-19
				C960.5,96.9,951.9,88.4,941.4,88.4z"/>
			<path class="st3" d="M1169.9,126.5c10.5,0,19-8.5,19-19c0-10.5-8.5-19-19-19c-10.5,0-19,8.5-19,19
				C1150.9,117.9,1159.4,126.5,1169.9,126.5z"/>
			<path class="st3" d="M1098.5,88.4c-10.5,0-19,8.5-19,19c0,10.5,8.5,19,19,19c10.5,0,19-8.5,19-19
				C1117.6,96.9,1109,88.4,1098.5,88.4z"/>
			<path class="st2" d="M1284.2,307.4c4.2,0,8-1.4,11.2-3.6l-30-12.8C1266.7,300.2,1274.6,307.4,1284.2,307.4z"/>
			<path class="st2" d="M903.3,269.3c-10.5,0-19,8.5-19,19c0,10.5,8.5,19,19,19c10.5,0,19-8.5,19-19
				C922.4,277.8,913.9,269.3,903.3,269.3z"/>
			<path class="st2" d="M1136.6,269.3c-10.5,0-19,8.5-19,19c0,10.5,8.5,19,19,19c10.5,0,19-8.5,19-19
				C1155.7,277.8,1147.1,269.3,1136.6,269.3z"/>
			<path class="st2" d="M779.2,291.7L750,304.2c3,2,6.6,3.2,10.6,3.2C769.9,307.4,777.6,300.6,779.2,291.7z"/>
			<path class="st2" d="M1098.5,240.7c3.5,0,6.7-0.9,9.5-2.6l-11.1-2c-4.3-0.8-8.6-1.4-12.9-2.1
				C1087.6,238.1,1092.8,240.7,1098.5,240.7z"/>
			<path class="st2" d="M1208,269.3c-10.5,0-19,8.5-19,19c0,10.5,8.5,19,19,19c10.5,0,19-8.5,19-19
				C1227.1,277.8,1218.5,269.3,1208,269.3z"/>
			<path class="st2" d="M1022.4,240.7c7.5,0,14-4.4,17.1-10.7c-11.4-0.4-22.8-0.4-34.2,0.1C1008.4,236.4,1014.8,240.7,1022.4,240.7z
				"/>
			<path class="st2" d="M827.2,307.4c10.5,0,19-8.5,19-19c0-9.2-6.5-16.8-15.1-18.6l-20,8.5c-1.9,2.9-2.9,6.4-2.9,10.1
				C808.1,298.8,816.7,307.4,827.2,307.4z"/>
			<path class="st2" d="M954.7,235.3c-1.8,0.3-3.6,0.6-5.4,0.9l-15.8,2.8c2.4,1.1,5.1,1.7,7.9,1.7
				C946.6,240.7,951.3,238.6,954.7,235.3z"/>
			<path class="st4" d="M1506.9,421.6h-55.8c-15.4-107.5-70.2-202.3-149.4-269.1c0.9,2.2,1.4,4.7,1.4,7.3c0,10.5-8.5,19-19,19
				c-10.5,0-19-8.5-19-19c0-10.5,8.5-19,19-19c1.2,0,2.4,0.2,3.5,0.3c-73.3-56.9-165.4-90.8-265.4-90.8c-100,0-192,33.9-265.3,90.8
				c1.1-0.2,2.3-0.3,3.5-0.3c10.5,0,19,8.5,19,19c0,10.5-8.5,19-19,19c-10.5,0-19-8.5-19-19c0-2.6,0.5-5.1,1.4-7.3
				c-15.8,13.3-30.6,27.8-44.3,43.2c-7.3,8.2-14.3,16.6-20.9,25.4c-43.4,56.9-73,124.8-83.9,198.8c0,0.1,0,0.1,0,0.2
				c-0.1,0.5-0.2,1-0.2,1.6h-50.3c-17,0-31,13.9-31,31c0,17,13.9,31,31,31h963.7c15.9,0,29-13,29-29v-3.9
				C1535.9,434.7,1522.9,421.6,1506.9,421.6z M1208,140.7c10.5,0,19,8.5,19,19c0,10.5-8.5,19-19,19c-10.5,0-19-8.5-19-19
				C1189,149.3,1197.5,140.7,1208,140.7z M1170,88.4c10.5,0,19,8.5,19,19s-8.5,19-19,19c-10.5,0-19-8.5-19-19S1159.4,88.4,1170,88.4
				z M1131.9,140.7c10.5,0,19,8.5,19,19c0,6.2-3,11.7-7.5,15.1c-3.2,2.4-7.2,3.9-11.5,3.9c-7.3,0-13.7-4.1-16.8-10.2
				c-1.4-2.6-2.2-5.7-2.2-8.9C1112.8,149.3,1121.4,140.7,1131.9,140.7z M1098.5,88.4c10.5,0,19,8.5,19,19s-8.5,19-19,19
				c-10.5,0-19-8.5-19-19S1088,88.4,1098.5,88.4z M1022.3,88.4c10.5,0,19,8.5,19,19s-8.5,19-19,19c-10.5,0-19-8.5-19-19
				S1011.8,88.4,1022.3,88.4z M941.4,88.4c10.5,0,19,8.5,19,19s-8.5,19-19,19c-10.5,0-19-8.5-19-19S930.9,88.4,941.4,88.4z
				 M903.4,140.7c10.5,0,19,8.5,19,19c0,4.2-1.4,8.1-3.7,11.2c-3.5,4.7-9,7.8-15.3,7.8c-3,0-5.9-0.7-8.4-2
				c-6.3-3.1-10.6-9.6-10.6-17C884.3,149.3,892.8,140.7,903.4,140.7z M865.3,88.4c10.5,0,19,8.5,19,19s-8.5,19-19,19
				c-10.5,0-19-8.5-19-19S854.7,88.4,865.3,88.4z M831.9,140.7c10.5,0,19,8.5,19,19c0,10.5-8.5,19-19,19c-10.5,0-19-8.5-19-19
				C812.9,149.3,821.4,140.7,831.9,140.7z M717.7,240.7c-10.5,0-19-8.5-19-19c0-10.5,8.5-19,19-19s19,8.5,19,19
				C736.7,232.2,728.2,240.7,717.7,240.7z M779.3,291.7c-1.6,8.9-9.4,15.6-18.7,15.6c-3.9,0-7.6-1.2-10.6-3.2
				c-5.1-3.4-8.5-9.2-8.5-15.8c0-10.5,8.5-19,19-19c10.5,0,19,8.5,19,19C779.6,289.5,779.4,290.6,779.3,291.7z M793.8,240.7
				c-9.7,0-17.7-7.3-18.9-16.7c-0.1-0.8-0.2-1.6-0.2-2.3c0-10.5,8.5-19,19-19c6,0,11.3,2.8,14.8,7c2.7,3.3,4.3,7.5,4.3,12
				C812.9,232.2,804.3,240.7,793.8,240.7z M827.2,307.4c-10.5,0-19-8.5-19-19c0-3.7,1.1-7.2,3-10.2c3.4-5.3,9.3-8.9,16.1-8.9
				c1.3,0,2.6,0.1,3.9,0.4c8.6,1.8,15.1,9.5,15.1,18.7C846.2,298.9,837.7,307.4,827.2,307.4z M865.3,240.7c-10.5,0-19-8.5-19-19
				c0-10.5,8.5-19,19-19c10.5,0,19,8.5,19,19C884.3,232.2,875.8,240.7,865.3,240.7z M903.4,307.4c-10.5,0-19-8.5-19-19
				c0-10.5,8.5-19,19-19c10.5,0,19,8.5,19,19C922.4,298.9,913.9,307.4,903.4,307.4z M954.8,235.3c-3.4,3.4-8.1,5.4-13.3,5.4
				c-2.8,0-5.5-0.6-7.9-1.7c-6.6-3-11.1-9.6-11.1-17.3c0-10.5,8.5-19,19-19c10.5,0,19,8.5,19,19C960.5,227,958.3,231.8,954.8,235.3z
				 M998.5,159.8c0,10.5-8.5,19-19,19c-9.3,0-17-6.7-18.7-15.5c-0.2-1.1-0.3-2.3-0.3-3.6c0-10.5,8.5-19,19-19
				c10.4,0,18.8,8.3,19,18.6V159.8z M1039.4,230c-3.1,6.3-9.6,10.7-17.1,10.7c-7.5,0-14-4.3-17.1-10.7c-1.2-2.5-1.9-5.4-1.9-8.4
				c0-10.5,8.5-19,19-19c10.5,0,19,8.5,19,19C1041.4,224.7,1040.7,227.5,1039.4,230z M1074.6,161.9c-1,9.5-9.1,16.9-18.9,16.9
				c-10.5,0-19-8.5-19-19c0-0.3,0-0.6,0.1-1c0.5-10.1,8.8-18.1,19-18.1c10.5,0,19,8.5,19,19C1074.7,160.5,1074.7,161.2,1074.6,161.9
				z M1108.1,238.1c-2.8,1.7-6,2.6-9.5,2.6c-5.7,0-10.9-2.5-14.4-6.6c-2.9-3.3-4.6-7.7-4.6-12.4c0-10.5,8.5-19,19-19
				c10.5,0,19,8.5,19,19C1117.6,228.7,1113.7,234.9,1108.1,238.1z M1136.6,307.4c-10.5,0-19-8.5-19-19c0-10.5,8.5-19,19-19
				c10.5,0,19,8.5,19,19C1155.7,298.9,1147.1,307.4,1136.6,307.4z M1170,240.7c-10.5,0-19-8.5-19-19c0-10.5,8.5-19,19-19
				c10.5,0,19,8.5,19,19C1189,232.2,1180.5,240.7,1170,240.7z M1208,307.4c-10.5,0-19-8.5-19-19c0-10.5,8.5-19,19-19
				c10.5,0,19,8.5,19,19C1227.1,298.9,1218.6,307.4,1208,307.4z M1246.1,240.7c-10.5,0-19-8.5-19-19c0-5.4,2.3-10.2,5.8-13.7
				c3.4-3.3,8.1-5.3,13.2-5.3c10.5,0,19,8.5,19,19c0,0,0,0,0,0C1265.1,232.2,1256.6,240.7,1246.1,240.7z M1295.4,303.7
				c-3.1,2.3-7,3.7-11.2,3.7c-9.6,0-17.6-7.1-18.8-16.4c-0.1-0.9-0.2-1.7-0.2-2.6c0-10.5,8.5-19,19-19c10.5,0,19,8.5,19,19
				C1303.2,294.7,1300.1,300.3,1295.4,303.7z M1322.3,240.7c-10.5,0-19-8.5-19-19c0-10.5,8.5-19,19-19c10.5,0,19,8.5,19,19
				C1341.3,232.2,1332.8,240.7,1322.3,240.7z"/>
		</g>
		<path class="st2" d="M860.8,1072.8v108.7c0,2-0.1,3.9-0.2,5.9c-30.3-8.4-51.3-36.1-51.3-67.7v-89.9l-142.7-80.9
			c-44.1-25-71.3-71.7-71.3-122.4v-343h855.9L627,544.8l-7.5,0.6v295c0,27.9,13.4,53.9,35.4,70.2c3.5,2.6,7.3,5,11.2,7l148,77.9
			C842.8,1010.7,860.8,1040.4,860.8,1072.8z"/>
		<path class="st2" d="M945.1,751.9c0.9,1,1.4,2.3,1.4,3.7v72.3l-0.9-0.5c0.8-29.9-12-59-14.1-63.7c-0.2-0.4-0.4-0.8-0.7-1.2
			c-8.3-10.2-136.6-165.9-209.3-149.9c-0.2,0-0.3,0.1-0.5,0.1c-2.3,0.6-4.8-0.2-6.2-2.1l0,0l33-21c1.2-0.8,2.7-1.1,4.1-0.8
			l62.5,11.9c1.3,0.2,2.4,0.9,3.2,1.9L945.1,751.9z"/>
		<path class="st2" d="M1410,763l-22.2,63.5l-48.6,30c101.5-77.4,15.1-237.4-14.2-243.9c-1.3-0.3-2.6-0.5-3.9-0.7v-1.4h38.1
			l41.3,41.3L1410,763z"/>
		<polygon class="st2" points="913.1,1166.2 927.4,1131.2 934.7,1206.8 911.5,1201.1 		"/>
		<polygon class="st2" points="1033.4,1187.4 1041.7,1153.5 1064,1219.2 1041.7,1223.3 		"/>
		<polygon class="st2" points="1150,1153.5 1149.6,1131.2 1184.6,1188.4 1175,1188.4 		"/>
		<path class="st5" d="M638.5,420.1h-44.4l-0.3-0.3c10.9-74,40.5-142,83.9-198.8l4.7,0.6C637.4,356.6,638.5,420.1,638.5,420.1z"/>
	</g>
</g>
</svg>
