<?xml version="1.0" encoding="utf-8"?>
<!-- Generator: Adobe Illustrator 23.0.6, SVG Export Plug-In . SVG Version: 6.00 Build 0)  -->
<svg version="1.1" id="Calque_1" xmlns="http://www.w3.org/2000/svg" xmlns:xlink="http://www.w3.org/1999/xlink" x="0px" y="0px"
	 viewBox="0 0 2000 2000" style="enable-background:new 0 0 2000 2000;" xml:space="preserve">
<g>
	<path d="M636.7,1647.6c18.5,11,40.7,13.2,60.8,6.7c4.3-1.4,8.6-3.2,12.6-5.4l28.5-15.4c16-8.7,26-25.5,26-43.7v-110l157.4-43.9
		l-105.7-29.4l-74.2-20.7l-15.4,12l-40.8,31.8c-1.9,1.7-3.6,3-5,4.1c-1.8,1.5-3.4,2.5-4.3,3.2l-0.5,0.4l-0.6,0.3
		c-1.7,1.1-4.1,2.7-6.8,4.2c-4.3,2.4-8.6,4.5-13,6.1c-3,1.1-5.8,2.1-8.4,2.8c-8.8,2.5-17.9,3.7-27,3.7c-10.9,0-21.7-1.8-32.2-5.4
		l-30.8-10.6c-3.1-1-6.1-2.3-9.1-3.6v0c-11.2-4.8-21.6-11.3-30.8-19.2l-6.7,31.7c-2.1,9.8,1.9,19.8,10.2,25.6l55.8,38.6l-10.6,76.6
		c-1.4,9.9,3.3,19.7,12,24.8L636.7,1647.6z"/>
	<path d="M1467.5,1104.4l-58.7-34.7c-22.5-13.3-50.4-13.8-73.4-1.4l-16.2,8.8l-12.3,6.7c-16,8.7-26,25.4-26,43.6v105.3l-174.3,48.6
		l105.7,29.5l79,22l16-4.5l11.3-8.8l41-32c18.1-15.9,41.3-24.6,65.4-24.6c10.9,0,21.7,1.8,32.2,5.4l30.6,10.5
		c14.8,5,28.3,12.8,40.1,22.7l6.8-31.6c2.1-9.8-1.9-19.9-10.2-25.6l-55.7-38.6l10.6-76.6C1480.8,1119.3,1476.1,1109.5,1467.5,1104.4
		z"/>
	<path d="M524.9,1336.6c1.7,7.9,4.6,15.3,8.5,22.1c8.9,15.2,23,27,40.1,32.9l30.7,10.5c5.3,1.8,10.7,2.7,16.1,2.7
		c2.6,0,5.3-0.2,7.8-0.6c1.9-0.3,3.8-0.7,5.7-1.2c1.5-0.4,2.9-0.9,4.3-1.4c2.2-0.8,4.2-1.8,6.3-3c1.4-0.7,2.6-1.6,3.9-2.4
		c0.6-0.4,1.3-0.9,1.9-1.4c1.2-1,2.5-1.9,3.7-3l42.2-33l35.2-27.5l98.3,27.5l184.6,51.5l266.6,74.4v105.2c0,18.2,10,35,26,43.7l11,6
		l17.5,9.5c11.1,6,23.3,9,35.5,9c13.1,0,26.3-3.5,37.9-10.4l58.7-34.6c8.6-5.1,13.4-14.9,12-24.8l-10.6-76.6l55.7-38.6
		c8.3-5.7,12.3-15.8,10.2-25.6l-14.2-66.7c-1.7-7.9-4.6-15.3-8.5-22c-8.9-15.2-23-27-40.2-32.9l-30.7-10.5
		c-5.3-1.8-10.7-2.7-16.2-2.7c-12.3,0-24.3,4.5-33.6,13.1l-42.3,33l-39.6,30.9l-110.8-30.9l-184.6-51.5l-249.7-69.7v-110
		c0-18.2-10-35-26-43.7l-28.5-15.4c-11.1-6-23.3-9-35.5-9c-13.1,0-26.2,3.4-37.9,10.3l-41.5,24.5l-17.2,10.2
		c-8.6,5-13.4,14.9-12,24.8l10.6,76.6l-55.8,38.6c-8.2,5.7-12.3,15.8-10.2,25.6L524.9,1336.6z"/>
	<path d="M260,1761.1H69.5v211.6h84.7v-84.7H260v-21.2h21.2v-84.7H260V1761.1z M196.5,1845.8h-42.3v-42.3h42.3V1845.8z"/>
	<path d="M513.1,1761.1H343.8v21.1h-21.1v190.5h84.6v-84.6h42.3v84.6h84.6v-190.5h-21.1V1761.1z M449.6,1845.8h-42.3v-42.3h42.3
		V1845.8z"/>
	<polygon points="576.6,1803.4 640.1,1803.4 640.1,1972.7 724.8,1972.7 724.8,1803.4 788.2,1803.4 788.2,1761.1 576.6,1761.1 	"/>
	<polygon points="957.6,1845.8 915.2,1845.8 915.2,1761.1 830.6,1761.1 830.6,1972.8 915.2,1972.8 915.2,1888.1 957.6,1888.1 
		957.6,1972.8 1042.2,1972.8 1042.2,1761.1 957.6,1761.1 	"/>
	<polygon points="1338.5,1930.4 1296.2,1930.4 1296.2,1761.1 1211.5,1761.1 1211.5,1930.4 1169.2,1930.4 1169.2,1761.1 
		1084.6,1761.1 1084.6,1972.8 1402,1972.8 1402,1951.6 1423.2,1951.6 1423.2,1761.1 1338.5,1761.1 	"/>
	<path d="M1656,1761.1h-169.3v21.1h-21.2v190.5h84.7v-84.6h42.3v84.6h84.7v-190.5H1656V1761.1z M1592.5,1845.8h-42.3v-42.3h42.3
		V1845.8z"/>
	<path d="M1931.1,1845.8v-63.5H1910v-21.2h-190.5v211.6h84.7v-84.7h42.3v84.7h84.7v-84.7H1910v-42.3H1931.1z M1846.5,1845.8h-42.3
		v-42.3h42.3V1845.8z"/>
</g>
<path d="M1506.9,444.6h-55.8c-15.4-107.5-70.2-202.3-149.4-269.1c0.9,2.2,1.4,4.7,1.4,7.3c0,10.5-8.5,19-19,19
	c-10.5,0-19.1-8.5-19.1-19s8.5-19,19.1-19c1.2,0,2.4,0.2,3.5,0.3c-73.3-56.9-165.4-90.8-265.4-90.8c-100,0-192,33.9-265.3,90.8
	c1.1-0.2,2.3-0.3,3.5-0.3c10.5,0,19,8.5,19,19s-8.5,19-19,19c-10.5,0-19.1-8.5-19.1-19c0-2.6,0.5-5.1,1.4-7.3
	c-15.8,13.3-30.6,27.8-44.3,43.2c-7.3,8.2-14.2,16.6-20.9,25.4c-43.4,56.8-73,124.8-83.9,198.8c0,0.1,0,0.1,0,0.2
	c-0.1,0.5-0.2,1-0.2,1.6h-50.2c-17,0-30.9,13.9-30.9,31c0,17,13.9,30.9,30.9,30.9h51.9v343c0,1.4,0,2.8,0.1,4.2c0,0.3,0,0.5,0,0.8
	c0,1.4,0.1,2.7,0.2,4.1c0,0.3,0,0.5,0,0.8c0.1,1.3,0.2,2.6,0.3,3.9c0,0.1,0,0.2,0,0.4c0.1,1.4,0.3,2.7,0.5,4.1
	c0,0.3,0.1,0.6,0.1,0.9c0.2,1.3,0.4,2.6,0.6,3.9c0,0.3,0.1,0.5,0.1,0.8c0.2,1.2,0.4,2.4,0.6,3.5c0,0.2,0.1,0.5,0.1,0.7
	c0.3,1.3,0.5,2.5,0.8,3.8c0.1,0.4,0.2,0.7,0.2,1.1c0.3,1.2,0.6,2.5,1,3.7c0.1,0.3,0.2,0.6,0.2,0.8c0.3,1.1,0.6,2.1,0.9,3.1
	c0.1,0.4,0.2,0.7,0.3,1c0.4,1.2,0.8,2.3,1.1,3.5c0.1,0.4,0.3,0.8,0.4,1.2c0.4,1.1,0.8,2.1,1.2,3.2c0.2,0.4,0.3,0.8,0.5,1.2
	c0.3,0.9,0.7,1.8,1.1,2.7c0.2,0.4,0.4,0.9,0.5,1.3c0.4,1,0.9,2.1,1.4,3.1c0.2,0.5,0.4,1,0.7,1.4c0.4,0.8,0.7,1.5,1.1,2.3
	c0.3,0.7,0.6,1.3,1,2c0.4,0.7,0.7,1.4,1.1,2.1c0.3,0.5,0.6,1.1,0.8,1.6c0.5,0.9,1,1.8,1.5,2.7c0.3,0.6,0.7,1.1,1,1.7
	c0.3,0.5,0.6,1,1,1.6c0.6,0.9,1.1,1.8,1.7,2.7c0.3,0.5,0.6,0.9,0.9,1.4c0.4,0.6,0.8,1.2,1.2,1.9c0.3,0.4,0.5,0.7,0.8,1.1
	c0.7,1.1,1.5,2.1,2.3,3.1c0.1,0.1,0.2,0.3,0.3,0.5c0,0,0,0,0,0c11.5,15.4,26.1,28.5,43.4,38.2l142.7,80.9v89.9
	c0,24.2,12.3,46.1,31.7,58.8c0.2,0.1,0.4,0.3,0.6,0.4c0.4,0.3,0.9,0.6,1.3,0.8l1,0.6c0.4,0.2,0.8,0.5,1.2,0.7
	c0.4,0.2,0.8,0.5,1.2,0.7c0.3,0.2,0.7,0.4,1,0.5c0.8,0.4,1.5,0.8,2.3,1.1c0.2,0.1,0.4,0.2,0.6,0.3c0.6,0.3,1.2,0.6,1.8,0.8
	c0.3,0.1,0.6,0.2,0.8,0.4c0.6,0.2,1.1,0.4,1.7,0.7c0.3,0.1,0.6,0.2,0.9,0.3c0.6,0.2,1.2,0.4,1.8,0.6c0.3,0.1,0.5,0.2,0.8,0.3
	c0.9,0.3,1.7,0.5,2.6,0.8c0.4,0.2,0.9,0.2,1.3,0.4l9,2.3l44.3-65.5l-3.8,76.1l90,23.5l20.3-76.7l22.5,76.8l91.1-23.7l-3.7-74.3
	l43.3,64l9.7-2.5c30.9-8,52.6-36,52.6-68.1v-89.9l142.7-80.9c44-25,71.3-71.8,71.3-122.4v-343h55.8c15.9,0,29-13,29-29v-3.9
	C1535.9,457.7,1522.9,444.6,1506.9,444.6z M1322.3,225.6c10.5,0,19.1,8.5,19.1,19c0,10.5-8.5,19.1-19.1,19.1c-10.5,0-19-8.5-19-19.1
	C1303.2,234.1,1311.8,225.6,1322.3,225.6z M1284.2,292.3c10.5,0,19,8.5,19,19c0,6.3-3.1,11.9-7.8,15.4c0,0,0,0,0,0l-30-12.8
	c-0.1-0.9-0.2-1.7-0.2-2.6C1265.2,300.8,1273.7,292.3,1284.2,292.3z M1246.1,225.6c10.5,0,19,8.5,19,19c0,0,0,0,0,0
	c0,10.5-8.5,19-19,19c-10.5,0-19-8.5-19-19.1c0-5.4,2.2-10.2,5.8-13.7C1236.3,227.7,1241,225.6,1246.1,225.6z M1208,163.7
	c10.5,0,19.1,8.5,19.1,19s-8.5,19-19.1,19c-10.5,0-19-8.5-19-19S1197.5,163.7,1208,163.7z M1170,111.4c10.5,0,19,8.5,19,19
	s-8.5,19-19,19c-10.5,0-19.1-8.5-19.1-19S1159.4,111.4,1170,111.4z M1189,244.6c0,10.5-8.5,19.1-19,19.1c-10.5,0-19.1-8.5-19.1-19.1
	c0-10.5,8.5-19,19.1-19C1180.5,225.6,1189,234.1,1189,244.6z M1131.9,163.7c10.5,0,19,8.5,19,19c0,6.2-2.9,11.7-7.5,15.1
	c-3.2,2.5-7.2,3.9-11.5,3.9c-7.3,0-13.7-4.1-16.8-10.2c-1.4-2.6-2.2-5.7-2.2-8.9C1112.8,172.3,1121.3,163.7,1131.9,163.7z
	 M1098.5,111.4c10.5,0,19.1,8.5,19.1,19s-8.5,19-19.1,19s-19.1-8.5-19.1-19S1088,111.4,1098.5,111.4z M1022.3,111.4
	c10.5,0,19,8.5,19,19s-8.5,19-19,19c-10.5,0-19-8.5-19-19S1011.8,111.4,1022.3,111.4z M941.4,111.4c10.5,0,19,8.5,19,19
	s-8.5,19-19,19c-10.5,0-19-8.5-19-19S930.9,111.4,941.4,111.4z M903.3,163.7c10.5,0,19.1,8.5,19.1,19c0,4.2-1.4,8.1-3.7,11.2
	c-3.5,4.7-9,7.8-15.3,7.8c-3,0-5.9-0.7-8.4-2c-6.3-3.1-10.6-9.6-10.6-17C884.3,172.3,892.8,163.7,903.3,163.7z M865.3,111.4
	c10.5,0,19,8.5,19,19s-8.5,19-19,19c-10.5,0-19-8.5-19-19S854.7,111.4,865.3,111.4z M884.3,244.6c0,10.5-8.5,19.1-19,19.1
	c-10.5,0-19-8.5-19-19.1c0-10.5,8.5-19,19-19C875.8,225.6,884.3,234.1,884.3,244.6z M831.9,163.7c10.5,0,19,8.5,19,19s-8.5,19-19,19
	c-10.5,0-19-8.5-19-19S821.4,163.7,831.9,163.7z M832.1,292.9c-0.3-0.1-0.7-0.2-1-0.2l-20,8.5c3.4-5.3,9.3-8.9,16.1-8.9
	c1.3,0,2.6,0.1,3.9,0.4C831.4,292.8,831.8,292.8,832.1,292.9z M793.8,225.6c6,0,11.3,2.8,14.8,7c2.7,3.3,4.3,7.5,4.3,12
	c0,10.5-8.5,19.1-19,19.1c-9.8,0-17.8-7.3-18.9-16.7c-0.1-0.8-0.2-1.6-0.2-2.4C774.8,234.1,783.3,225.6,793.8,225.6z M750,327.2
	C750.7,327.6,750.7,327.6,750,327.2c-5.1-3.4-8.5-9.2-8.5-15.8c0-10.5,8.5-19,19.1-19c10.5,0,19,8.5,19,19c0,1.1-0.7,5.2-0.3,3.4
	L750,327.2z M717.7,225.6c10.5,0,19,8.5,19,19c0,10.5-8.5,19.1-19,19.1s-19-8.5-19-19.1C698.6,234.1,707.2,225.6,717.7,225.6z
	 M945.5,850.4L945.5,850.4c-1,40.9-27.7,83.2-142.6,65.5c-229.3-35.3-125.2-256-85.6-278.5c1.5-0.8,2.8-1.4,4.1-1.6
	c0.6-0.1,1.1-0.2,1.7-0.4c0.2,0,0.4-0.1,0.6-0.1c0.4-0.1,0.8-0.1,1.2-0.2c0.2,0,0.5-0.1,0.7-0.1c0.4,0,0.7-0.1,1.1-0.1
	c0.3,0,0.5,0,0.8-0.1c0.3,0,0.7-0.1,1-0.1c0.3,0,0.5,0,0.8,0c0.3,0,0.7,0,1-0.1c0.3,0,0.6,0,0.8,0c0.3,0,0.7,0,1,0
	c0.3,0,0.6,0,0.9,0c0.3,0,0.7,0,1,0c0.3,0,0.6,0,0.9,0c0.3,0,0.7,0,1,0c0.3,0,0.6,0,0.9,0.1c0.3,0,0.7,0,1,0.1
	c0.3,0,0.6,0.1,0.9,0.1c0.3,0,0.7,0.1,1,0.1c0.3,0,0.6,0.1,0.9,0.1c0.3,0,0.7,0.1,1,0.1c0.3,0,0.6,0.1,0.9,0.1c0.3,0,0.7,0.1,1,0.2
	c0.3,0.1,0.6,0.1,0.9,0.2c0.3,0.1,0.7,0.1,1,0.2c0.3,0.1,0.6,0.1,0.9,0.2c0.4,0.1,0.7,0.1,1,0.2c0.3,0.1,0.6,0.1,0.9,0.2
	c0.4,0.1,0.7,0.2,1,0.2c0.3,0.1,0.6,0.2,1,0.2c0.3,0.1,0.7,0.2,1,0.3c0.3,0.1,0.6,0.2,1,0.3c0.3,0.1,0.7,0.2,1.1,0.3
	c0.3,0.1,0.6,0.2,1,0.3c0.4,0.1,0.7,0.2,1,0.3c0.3,0.1,0.7,0.2,1,0.3c0.3,0.1,0.7,0.2,1.1,0.3c0.3,0.1,0.6,0.2,1,0.3
	c0.4,0.1,0.7,0.2,1.1,0.4c0.3,0.1,0.7,0.2,1,0.3c0.4,0.1,0.7,0.3,1.1,0.4c0.3,0.1,0.7,0.2,1,0.4c0.4,0.1,0.7,0.3,1.1,0.4
	c0.3,0.1,0.7,0.2,1,0.4c0.4,0.1,0.7,0.3,1.1,0.5c0.3,0.1,0.6,0.3,1,0.4c0.4,0.2,0.8,0.3,1.1,0.5c0.3,0.1,0.6,0.3,1,0.4
	c0.4,0.2,0.8,0.3,1.2,0.5l0.9,0.4c0.4,0.2,0.8,0.4,1.2,0.6c0.3,0.1,0.6,0.3,0.9,0.4c0.4,0.2,0.8,0.4,1.2,0.6
	c0.3,0.1,0.6,0.3,0.9,0.4c0.4,0.2,0.8,0.4,1.3,0.6c0.3,0.1,0.6,0.3,0.8,0.4c0.5,0.3,1,0.5,1.5,0.8c0.2,0.1,0.4,0.2,0.6,0.3
	c0.7,0.4,1.4,0.8,2.1,1.1c0.2,0.1,0.4,0.2,0.6,0.3c0.5,0.3,1,0.5,1.5,0.8c0.3,0.2,0.6,0.3,0.9,0.5c0.4,0.2,0.8,0.5,1.3,0.7
	c0.3,0.2,0.6,0.4,0.9,0.5c0.4,0.2,0.8,0.5,1.2,0.7c0.3,0.2,0.6,0.4,1,0.6c0.4,0.2,0.8,0.5,1.2,0.7c0.3,0.2,0.7,0.4,1,0.6
	c0.4,0.2,0.8,0.5,1.2,0.7c0.3,0.2,0.7,0.4,1,0.6c0.4,0.2,0.8,0.5,1.1,0.7c0.3,0.2,0.7,0.4,1,0.7c0.4,0.2,0.8,0.5,1.1,0.7
	c0.3,0.2,0.7,0.4,1,0.7c0.4,0.2,0.8,0.5,1.1,0.7c0.3,0.2,0.7,0.5,1,0.7c0.4,0.2,0.8,0.5,1.1,0.7c0.3,0.2,0.7,0.5,1,0.7
	c0.4,0.3,0.7,0.5,1.1,0.8c0.3,0.2,0.7,0.5,1,0.7c0.4,0.3,0.8,0.5,1.1,0.8c0.3,0.2,0.7,0.5,1,0.7c0.4,0.3,0.8,0.5,1.1,0.8
	c0.3,0.2,0.7,0.5,1,0.7c0.4,0.3,0.8,0.5,1.1,0.8c0.3,0.2,0.7,0.5,1,0.7c0.4,0.3,0.8,0.5,1.1,0.8c0.4,0.2,0.7,0.5,1,0.8
	c0.4,0.3,0.7,0.6,1.1,0.8c0.4,0.3,0.7,0.5,1,0.8c0.4,0.3,0.7,0.6,1.1,0.8c0.3,0.3,0.7,0.5,1,0.8c0.4,0.3,0.8,0.6,1.1,0.9
	c0.3,0.3,0.7,0.5,1,0.8c0.4,0.3,0.8,0.6,1.1,0.9c0.3,0.3,0.7,0.5,1,0.8c0.4,0.3,0.8,0.6,1.1,0.9c0.3,0.3,0.7,0.5,1,0.8
	c0.4,0.3,0.8,0.6,1.1,0.9c0.3,0.3,0.7,0.5,1,0.8c0.4,0.3,0.8,0.6,1.1,0.9c0.3,0.3,0.6,0.5,1,0.8c0.4,0.3,0.8,0.6,1.2,0.9
	c0.3,0.3,0.6,0.5,1,0.8c0.4,0.3,0.8,0.6,1.1,0.9c0.3,0.3,0.6,0.5,1,0.8c0.4,0.3,0.8,0.6,1.1,0.9c0.3,0.3,0.6,0.5,1,0.8
	c0.4,0.3,0.8,0.6,1.2,1c0.3,0.3,0.6,0.5,0.9,0.8c0.4,0.3,0.8,0.7,1.2,1c0.3,0.2,0.6,0.5,0.9,0.7c0.4,0.4,0.9,0.7,1.3,1.1
	c0.3,0.2,0.5,0.4,0.8,0.7c0.5,0.4,0.9,0.8,1.4,1.2c0.2,0.2,0.4,0.4,0.6,0.6c1.4,1.2,2.7,2.4,4.1,3.6c0.2,0.2,0.4,0.3,0.5,0.5
	c0.5,0.4,1,0.9,1.5,1.3c0.2,0.2,0.5,0.4,0.7,0.7c0.4,0.4,0.9,0.8,1.3,1.2c0.3,0.2,0.5,0.5,0.8,0.7c0.4,0.4,0.8,0.7,1.2,1.1
	c0.3,0.3,0.6,0.5,0.9,0.8c0.4,0.3,0.8,0.7,1.1,1c0.3,0.3,0.6,0.6,0.9,0.8c0.4,0.3,0.7,0.7,1.1,1c0.3,0.3,0.6,0.6,0.9,0.8
	c0.4,0.3,0.7,0.7,1.1,1c0.3,0.3,0.6,0.5,0.9,0.8c0.4,0.3,0.7,0.7,1.1,1c0.3,0.3,0.6,0.6,0.9,0.8c0.4,0.3,0.7,0.7,1.1,1
	c0.3,0.3,0.6,0.6,0.9,0.8c0.3,0.3,0.7,0.7,1,1c0.3,0.3,0.6,0.5,0.9,0.8c0.3,0.3,0.7,0.7,1,1c0.3,0.3,0.6,0.6,0.9,0.8
	c0.3,0.3,0.7,0.7,1,1c0.3,0.3,0.6,0.6,0.8,0.8c0.3,0.3,0.7,0.7,1,1c0.3,0.3,0.6,0.6,0.9,0.9c0.3,0.3,0.7,0.6,1,1
	c0.3,0.3,0.6,0.5,0.8,0.8c0.3,0.3,0.7,0.7,1,1c0.3,0.3,0.5,0.5,0.8,0.8c0.3,0.3,0.7,0.7,1,1c0.3,0.3,0.5,0.5,0.8,0.8
	c0.3,0.3,0.7,0.7,1,1c0.3,0.3,0.5,0.5,0.8,0.8c0.3,0.3,0.7,0.7,1,1c0.2,0.2,0.5,0.5,0.8,0.8c0.3,0.3,0.7,0.7,1,1
	c0.2,0.2,0.5,0.5,0.7,0.7c0.3,0.4,0.7,0.7,1,1c0.2,0.2,0.5,0.5,0.7,0.7c0.3,0.3,0.7,0.7,1,1c0.2,0.2,0.5,0.5,0.7,0.7
	c0.3,0.3,0.6,0.7,1,1c0.2,0.2,0.5,0.5,0.7,0.7c0.3,0.3,0.7,0.7,1,1c0.2,0.2,0.4,0.5,0.7,0.7c0.3,0.3,0.7,0.7,1,1
	c0.2,0.2,0.5,0.5,0.7,0.7c0.3,0.4,0.7,0.7,1,1.1c0.2,0.2,0.4,0.4,0.6,0.6c0.4,0.4,0.7,0.7,1,1.1c0.2,0.2,0.4,0.4,0.6,0.6
	c0.4,0.4,0.8,0.8,1.2,1.2c0.1,0.1,0.3,0.3,0.4,0.4c0.5,0.5,0.9,1,1.4,1.5c0.1,0,0.1,0.1,0.2,0.2c1,1.1,2,2.2,3,3.3
	c0,0,0.1,0,0.1,0.1c0.5,0.5,0.9,1,1.4,1.5c0.1,0.1,0.2,0.2,0.3,0.3c0.4,0.4,0.8,0.8,1.1,1.2c0.1,0.1,0.3,0.3,0.4,0.5
	c0.3,0.4,0.7,0.7,1,1.1c0.1,0.1,0.3,0.3,0.4,0.4c0.3,0.4,0.7,0.7,1,1.1c0.1,0.2,0.3,0.3,0.4,0.5c0.3,0.4,0.6,0.7,0.9,1
	c0.2,0.2,0.3,0.3,0.5,0.5c0.3,0.3,0.6,0.6,0.9,0.9c0.2,0.2,0.3,0.3,0.5,0.5c0.3,0.3,0.6,0.6,0.9,1c0.1,0.2,0.3,0.3,0.4,0.5
	c0.3,0.3,0.6,0.6,0.8,0.9c0.2,0.2,0.3,0.3,0.4,0.5c0.3,0.3,0.5,0.6,0.8,0.9c0.1,0.2,0.3,0.3,0.4,0.5c0.3,0.3,0.5,0.6,0.8,0.9
	c0.1,0.2,0.3,0.3,0.4,0.5c0.3,0.3,0.5,0.6,0.8,0.9c0.1,0.1,0.2,0.3,0.4,0.4c0.3,0.3,0.5,0.6,0.8,0.9c0.1,0.1,0.2,0.3,0.4,0.4
	c0.2,0.3,0.5,0.5,0.7,0.8c0.1,0.2,0.3,0.3,0.4,0.5c0.2,0.3,0.4,0.5,0.7,0.8c0.1,0.2,0.2,0.3,0.4,0.4c0.2,0.3,0.4,0.5,0.7,0.8
	c0.1,0.1,0.2,0.3,0.4,0.4c0.2,0.3,0.5,0.5,0.7,0.8c0.1,0.1,0.2,0.2,0.3,0.3c0.2,0.3,0.5,0.5,0.7,0.8c0.1,0.1,0.2,0.2,0.3,0.3
	c0.2,0.2,0.4,0.5,0.6,0.8c0.1,0.1,0.2,0.2,0.3,0.3c0.2,0.2,0.4,0.5,0.6,0.7c0.1,0.1,0.2,0.2,0.2,0.3c0.2,0.2,0.4,0.5,0.6,0.7
	c0.1,0.1,0.1,0.2,0.2,0.3c0.2,0.3,0.4,0.5,0.7,0.8c0,0,0.1,0.1,0.1,0.1c0.2,0.3,0.5,0.5,0.7,0.8c0,0,0.1,0.1,0.1,0.1
	c3.2,3.8,5.4,6.4,6.2,7.5c0.3,0.4,0.5,0.7,0.7,1.2c0,0,0,0.1,0.1,0.1c0,0,0,0.1,0.1,0.2c0.1,0.1,0.1,0.3,0.2,0.4
	c0,0.1,0.1,0.2,0.1,0.2c0.1,0.1,0.1,0.3,0.2,0.5c0,0.1,0.1,0.2,0.1,0.3c0.1,0.2,0.2,0.4,0.2,0.6c0.1,0.1,0.1,0.2,0.2,0.4
	c0.1,0.2,0.2,0.4,0.3,0.7c0.1,0.1,0.1,0.3,0.2,0.4c0.1,0.3,0.2,0.5,0.3,0.8c0.1,0.1,0.1,0.3,0.2,0.4c0.1,0.3,0.3,0.6,0.4,1
	c0.1,0.1,0.1,0.2,0.1,0.3c0.2,0.5,0.4,1,0.6,1.5c0.2,0.5,0.4,1,0.6,1.6c0.1,0.2,0.1,0.3,0.2,0.5c0.1,0.4,0.3,0.8,0.4,1.2
	c0.1,0.2,0.2,0.5,0.2,0.7c0.1,0.4,0.3,0.7,0.4,1.1c0.1,0.2,0.2,0.5,0.3,0.8c0.1,0.4,0.3,0.8,0.4,1.2c0.1,0.3,0.2,0.5,0.3,0.8
	c0.1,0.4,0.3,0.8,0.4,1.2c0.1,0.3,0.2,0.6,0.3,0.9c0.1,0.4,0.3,0.8,0.4,1.2c0.1,0.3,0.2,0.6,0.3,0.9c0.1,0.4,0.3,0.8,0.4,1.3
	c0.1,0.3,0.2,0.6,0.3,1c0.1,0.4,0.3,0.9,0.4,1.4c0.1,0.3,0.2,0.6,0.3,1c0.1,0.5,0.3,1,0.4,1.5c0.1,0.3,0.2,0.6,0.2,0.9
	c0.1,0.6,0.3,1.1,0.4,1.7c0.1,0.3,0.1,0.5,0.2,0.8c0.2,0.8,0.4,1.7,0.6,2.5c0,0,0,0.1,0,0.1c0.2,0.8,0.4,1.6,0.5,2.5
	c0.1,0.3,0.1,0.6,0.2,0.9c0.1,0.6,0.2,1.2,0.4,1.8c0.1,0.3,0.1,0.7,0.2,1c0.1,0.6,0.2,1.1,0.3,1.7c0.1,0.4,0.1,0.8,0.2,1.1
	c0.1,0.5,0.2,1.1,0.3,1.6c0.1,0.4,0.1,0.8,0.2,1.2c0.1,0.5,0.2,1.1,0.2,1.6c0,0.4,0.1,0.8,0.2,1.2c0.1,0.5,0.1,1.1,0.2,1.6
	c0,0.4,0.1,0.8,0.1,1.2c0,0.6,0.1,1.1,0.1,1.6c0,0.4,0.1,0.8,0.1,1.2c0,0.6,0.1,1.1,0.1,1.7c0,0.4,0.1,0.8,0.1,1.2
	c0,0.6,0.1,1.2,0.1,1.8c0,0.4,0,0.8,0,1.2c0,0.6,0,1.3,0,1.9c0,0.3,0,0.7,0,1C945.6,848.4,945.6,849.4,945.5,850.4z M954.8,258.3
	c-0.4,0.4-0.8,0.8-1.3,1.1C953.9,259,954.3,258.7,954.8,258.3c-1.8,0.3-3.6,0.6-5.4,0.9l-15.8,2.8c0,0,0,0,0,0
	c-6.6-3-11.1-9.6-11.1-17.3c0-10.5,8.5-19,19-19c10.5,0,19,8.5,19,19C960.5,250,958.3,254.8,954.8,258.3z M960.8,186.3
	c-0.2-1.1-0.3-2.3-0.3-3.5c0-10.5,8.5-19,19-19c10.4,0,18.8,8.3,19.1,18.6v0.5c0,10.5-8.5,19-19.1,19
	C970.2,201.8,962.5,195.2,960.8,186.3z M982.7,991.5c-19.7-8.6,23.1-95.4,23.1-95.4S1027.3,1011,982.7,991.5z M1005.3,253
	C1005.3,253,1005.3,253,1005.3,253c-1.2-2.5-2-5.4-2-8.4c0-10.5,8.5-19,19-19c10.5,0,19,8.5,19,19c0,3-0.7,5.8-1.9,8.3
	C1028.1,252.5,1016.7,252.6,1005.3,253z M1068.4,991.5c-44.6,19.5-23.1-95.4-23.1-95.4S1088.1,983,1068.4,991.5z M1074.6,184.9
	c-1,9.5-9.1,16.9-18.9,16.9c-10.5,0-19-8.5-19-19c0-0.3,0-0.6,0.1-1c0.5-10.1,8.8-18.1,19-18.1c10.5,0,19.1,8.5,19.1,19
	C1074.7,183.5,1074.7,184.2,1074.6,184.9z M1084.1,257.1L1084.1,257.1c-2.9-3.3-4.7-7.7-4.7-12.5c0-10.5,8.5-19,19.1-19
	s19.1,8.5,19.1,19c0,7.1-3.9,13.2-9.5,16.5h0l-11-2C1092.7,258.4,1088.4,257.7,1084.1,257.1z M1385.3,802.3
	c-0.8,4.9-1.9,9.8-3.2,14.6c-0.5,1.6-0.9,3.2-1.5,4.8c-0.8,2.4-1.6,4.8-2.6,7.1c-0.9,2.3-1.9,4.7-3,7c-7.6,16.1-19.2,31-35.9,43.7
	c-22.1,16.8-53.2,29.8-95.7,36.3c-206.3,31.9-128.2-129.8-128.2-129.8s130-161.3,205.8-151.1c0.5,0.1,1,0.1,1.5,0.2
	c0.8,0.1,1.6,0.3,2.4,0.5c0.9,0.2,1.9,0.5,2.9,1c20.1,9.8,59.1,75.2,59.3,140.8C1387.2,785.8,1386.6,794.1,1385.3,802.3z"/>
</svg>
