<?xml version="1.0" encoding="UTF-8"?>
<svg width="19px" height="19px" viewBox="0 0 19 19" version="1.1" xmlns="http://www.w3.org/2000/svg" xmlns:xlink="http://www.w3.org/1999/xlink">
    <title>noun_Quitting_961108</title>
    <defs>
        <filter id="filter-1">
            <feColorMatrix in="SourceGraphic" type="matrix" values="0 0 0 0 0.847000 0 0 0 0 0.847000 0 0 0 0 0.847000 0 0 0 1.000000 0"></feColorMatrix>
        </filter>
    </defs>
    <g id="Pathwar-v2" stroke="none" stroke-width="1" fill="none" fill-rule="evenodd">
        <g id="Challenges" transform="translate(-1725.000000, -283.000000)">
            <g id="Menu" transform="translate(0.000000, 40.000000)">
                <g id="noun_Quitting_961108" transform="translate(1700.000000, 0.000000)" filter="url(#filter-1)">
                    <g transform="translate(25.000000, 243.000000)">
                        <path d="M9.5,0 C4.26184615,0 0,4.26184615 0,9.5 C0,14.7385192 4.26184615,19 9.5,19 C14.7381538,19 19,14.7385192 19,9.5 C19,4.26184615 14.7385192,0 9.5,0 Z M14.1506154,13.1169423 C14.4359808,13.4023077 14.4359808,13.8648846 14.1506154,14.15025 C14.00775,14.2931154 13.8210385,14.3643654 13.6339615,14.3643654 C13.4468846,14.3643654 13.2601731,14.2931154 13.1173077,14.15025 L9.5,10.5333077 L5.88305769,14.15025 C5.74055769,14.2931154 5.55348077,14.3643654 5.36640385,14.3643654 C5.17932692,14.3643654 4.99225,14.2931154 4.84975,14.15025 C4.56438462,13.8648846 4.56438462,13.4023077 4.84975,13.1169423 L8.46669231,9.5 L4.84975,5.88305769 C4.56438462,5.59769231 4.56438462,5.13511538 4.84975,4.84975 C5.13475,4.56438462 5.59805769,4.56438462 5.88305769,4.84975 L9.5,8.46669231 L13.1173077,4.84975 C13.4026731,4.56438462 13.86525,4.56438462 14.1506154,4.84975 C14.4359808,5.13511538 14.4359808,5.59769231 14.1506154,5.88305769 L10.5333077,9.5 L14.1506154,13.1169423 Z" id="Shape" fill="#000000" fill-rule="nonzero"></path>
                    </g>
                </g>
            </g>
        </g>
    </g>
</svg>