<?xml version="1.0" encoding="UTF-8"?>
<svg width="23px" height="20px" viewBox="0 0 23 20" version="1.1" xmlns="http://www.w3.org/2000/svg" xmlns:xlink="http://www.w3.org/1999/xlink">
    <title>noun_notification_3408005</title>
    <defs>
        <filter id="filter-1">
            <feColorMatrix in="SourceGraphic" type="matrix" values="0 0 0 0 0.847000 0 0 0 0 0.847000 0 0 0 0 0.847000 0 0 0 1.000000 0"></feColorMatrix>
        </filter>
    </defs>
    <g id="Pathwar-v2" stroke="none" stroke-width="1" fill="none" fill-rule="evenodd">
        <g id="Challenges" transform="translate(-1723.000000, -237.000000)">
            <g id="Menu" transform="translate(0.000000, 40.000000)">
                <g id="noun_notification_3408005" transform="translate(1700.000000, 0.000000)" filter="url(#filter-1)">
                    <g transform="translate(23.000000, 197.000000)" id="Group" fill="#000000" fill-rule="nonzero">
                        <path d="M17.1302083,13.3414634 C16.5072917,12.5609756 16.171875,11.6097561 16.171875,10.6097561 L16.171875,8.70731707 C16.171875,6.41463415 14.590625,4.51219512 12.4822917,4.04878049 L12.4822917,3.14634146 C12.4822917,2.58536585 12.0270833,2.12195122 11.4760417,2.12195122 C10.925,2.12195122 10.4697917,2.58536585 10.4697917,3.14634146 L10.4697917,4.04878049 C8.36145833,4.51219512 6.78020833,6.41463415 6.78020833,8.70731707 L6.78020833,10.6097561 C6.78020833,11.6097561 6.44479167,12.5609756 5.821875,13.3414634 L5.03125,14.3658537 C4.45625,15.097561 4.959375,16.1707317 5.86979167,16.1707317 L17.1302083,16.1707317 C18.040625,16.1707317 18.54375,15.097561 17.96875,14.3658537 L17.1302083,13.3414634 Z" id="Path"></path>
                        <path d="M15.9322917,2.85365854 C15.6208333,3.19512195 15.6208333,3.73170732 15.95625,4.04878049 C17.0822917,5.14634146 17.753125,6.63414634 17.8489583,8.19512195 C17.8729167,8.63414634 18.25625,8.97560976 18.6875,8.97560976 C18.7114583,8.97560976 18.7354167,8.97560976 18.7354167,8.97560976 C19.190625,8.95121951 19.55,8.53658537 19.5020833,8.07317073 C19.3583333,6.09756098 18.5197917,4.2195122 17.10625,2.82926829 C16.7708333,2.51219512 16.24375,2.53658537 15.9322917,2.85365854 Z" id="Path"></path>
                        <path d="M5.175,8.2195122 C5.29479167,6.65853659 5.965625,5.17073171 7.06770833,4.07317073 C7.403125,3.75609756 7.403125,3.19512195 7.09166667,2.87804878 C6.78020833,2.53658537 6.22916667,2.53658537 5.91770833,2.85365854 C4.50416667,4.24390244 3.665625,6.12195122 3.521875,8.09756098 C3.49791667,8.56097561 3.83333333,8.97560976 4.28854167,9 C4.3125,9 4.33645833,9 4.33645833,9 C4.76770833,9.02439024 5.12708333,8.65853659 5.175,8.2195122 Z" id="Path"></path>
                        <path d="M4.86354167,1.51219512 C5.19895833,1.19512195 5.22291667,0.658536585 4.91145833,0.317073171 C4.6,-0.0243902439 4.07291667,-0.0487804878 3.7375,0.268292683 C1.4375,2.43902439 0.119791667,5.51219512 0.119791667,8.70731707 L0.119791667,8.92682927 C0.119791667,9.3902439 0.503125,9.7804878 0.958333333,9.7804878 C1.41354167,9.7804878 1.796875,9.3902439 1.796875,8.92682927 L1.796875,8.70731707 C1.796875,5.95121951 2.875,3.3902439 4.86354167,1.51219512 Z" id="Path"></path>
                        <path d="M19.2864583,0.268292683 C18.9510417,-0.0487804878 18.4239583,-0.0487804878 18.1125,0.317073171 C17.8010417,0.658536585 17.8010417,1.19512195 18.1604167,1.51219512 C20.1489583,3.3902439 21.2270833,5.95121951 21.2270833,8.70731707 L21.2270833,8.92682927 C21.2270833,9.3902439 21.6104167,9.7804878 22.065625,9.7804878 C22.5208333,9.7804878 22.9041667,9.3902439 22.9041667,8.92682927 L22.9041667,8.70731707 C22.8802083,5.51219512 21.5625,2.43902439 19.2864583,0.268292683 Z" id="Path"></path>
                        <path d="M11.5,19.9756098 C12.8177083,19.9756098 13.8958333,18.8780488 13.8958333,17.5365854 L9.10416667,17.5365854 C9.10416667,18.8780488 10.1822917,19.9756098 11.5,19.9756098 Z" id="Path"></path>
                    </g>
                </g>
            </g>
        </g>
    </g>
</svg>