<?xml version="1.0" encoding="UTF-8"?>
<svg width="20px" height="20px" viewBox="0 0 20 20" version="1.1" xmlns="http://www.w3.org/2000/svg" xmlns:xlink="http://www.w3.org/1999/xlink">
    <title>noun_profile_3237561</title>
    <defs>
        <filter id="filter-1">
            <feColorMatrix in="SourceGraphic" type="matrix" values="0 0 0 0 0.847000 0 0 0 0 0.847000 0 0 0 0 0.847000 0 0 0 1.000000 0"></feColorMatrix>
        </filter>
    </defs>
    <g id="Pathwar-v2" stroke="none" stroke-width="1" fill="none" fill-rule="evenodd">
        <g id="Challenges" transform="translate(-1724.000000, -106.000000)">
            <g id="Menu" transform="translate(0.000000, 40.000000)">
                <g id="noun_profile_3237561" transform="translate(1700.000000, 0.000000)" filter="url(#filter-1)">
                    <g transform="translate(24.000000, 66.000000)">
                        <circle id="Oval" fill="#000000" fill-rule="nonzero" cx="10.5" cy="6.5" r="3.5"></circle>
                        <path d="M19.2,6.08985025 C18.7,4.89184692 17.9666667,3.82695507 17.0666667,2.92845258 C16.1333333,1.99667221 15.0666667,1.29783694 13.9,0.798668885 C12.6666667,0.266222962 11.3333333,0 10,0 C8.66666667,0 7.33333333,0.266222962 6.1,0.798668885 C4.9,1.29783694 3.83333333,2.02995008 2.93333333,2.92845258 C2,3.86023295 1.3,4.92512479 0.8,6.08985025 C0.266666667,7.32113145 0,8.65224626 0,9.98336106 C0,11.2479201 0.233333333,12.4459235 0.666666667,13.6106489 C1.1,14.7420965 1.73333333,15.7404326 2.53333333,16.6389351 C3,17.1381032 3.5,17.6039933 4.06666667,18.0366057 C4.63333333,18.4359401 5.23333333,18.8019967 5.83333333,19.1014975 C6.46666667,19.4009983 7.13333333,19.6006656 7.83333333,19.7670549 C8.53333333,19.9334443 9.26666667,20 10,20 C10.7333333,20 11.4666667,19.9334443 12.1666667,19.7670549 C12.8666667,19.6006656 13.5333333,19.4009983 14.1666667,19.1014975 C14.8,18.8019967 15.4,18.469218 15.9333333,18.0366057 C16.5,17.6372712 17,17.171381 17.4666667,16.6389351 C18.2666667,15.7404326 18.9,14.7088186 19.3333333,13.6106489 C19.8,12.4459235 20,11.2479201 20,9.98336106 C20,8.65224626 19.7333333,7.32113145 19.2,6.08985025 Z M17,15.7071547 C16.5,13.1780366 14.6666667,11.1148087 12.2333333,10.3494176 C11.5666667,10.7154742 10.8,10.9484193 10,10.9484193 C9.2,10.9484193 8.43333333,10.7487521 7.76666667,10.3494176 C5.33333333,11.1148087 3.5,13.1780366 3,15.7071547 C1.66666667,14.0765391 0.966666667,12.0798669 0.966666667,9.98336106 C0.966666667,4.99168053 5,0.965058236 10,0.965058236 C15,0.965058236 19.0333333,4.99168053 19.0333333,9.98336106 C19.0333333,12.0798669 18.3333333,14.0765391 17,15.7071547 Z" id="Shape" fill="#000000" fill-rule="nonzero"></path>
                    </g>
                </g>
            </g>
        </g>
    </g>
</svg>