<?xml version="1.0" encoding="UTF-8"?>
<svg width="99px" height="91px" viewBox="0 0 99 91" version="1.1" xmlns="http://www.w3.org/2000/svg" xmlns:xlink="http://www.w3.org/1999/xlink">
    <!-- Generator: Sketch 60.1 (88133) - https://sketch.com -->
    <title>Group 40</title>
    <desc>Created with Sketch.</desc>
    <defs>
        <polygon id="path-1" points="0 0.411580909 13.734922 0.411580909 13.734922 10.4631214 0 10.4631214"></polygon>
        <polygon id="path-3" points="0.515937521 0.506724125 44.2578975 0.506724125 44.2578975 62 0.515937521 62"></polygon>
        <polygon id="path-5" points="0.325013793 0.621 14.7981767 0.621 14.7981767 8.7336 0.325013793 8.7336"></polygon>
    </defs>
    <g id="Page-1" stroke="none" stroke-width="1" fill="none" fill-rule="evenodd">
        <g id="PATHWAR-Landing-Page" transform="translate(-671.000000, -784.000000)">
            <g id="Group-40" transform="translate(671.000000, 784.000000)">
                <path d="M33.0095588,56 L33,53.9754427 L34.0507353,53.9704841 C34.7654412,53.9676505 35.4492647,53.8011806 36.0852941,53.4753247 L37.0125,53 L38,54.7865407 L37.0720588,55.2618654 C36.1330882,55.7442739 35.1191176,55.9900826 34.0602941,55.9950413 L33.0095588,56 Z" id="Fill-1" fill="#0081FF"></path>
                <path d="M60.7687787,36.3169451 L58.7045812,35.5146426 L59.1078053,34.4878497 C59.2194674,34.2024152 59.330354,33.9154378 59.4412407,33.6284604 C60.0499541,32.0547132 60.6796041,30.426965 61.5263749,28.9565914 L62.0769309,28 L64,29.0962229 L63.4486685,30.0528143 C62.6864198,31.3766134 62.114927,32.8547014 61.5100908,34.4199626 C61.3976533,34.7100258 61.2852158,35.000089 61.1720029,35.2901522 L60.7687787,36.3169451 Z M30.5967554,44.0059342 L29.2374248,42.2647836 L30.1128864,41.5882266 C31.9421284,40.1749399 34.1117845,39.3826662 36.2217325,39.3564371 L37.3298235,39.3433226 L37.3569636,41.5481114 L36.2488726,41.5619974 C34.6189164,41.5812836 32.9222732,42.2092395 31.4722171,43.3301487 L30.5967554,44.0059342 Z M48.215325,44.5158591 L47.1335986,44.2759398 C45.7091317,43.9619618 44.2823385,43.4952378 42.9028466,43.0447141 C42.398041,42.8788535 41.89246,42.7137644 41.3899806,42.5571611 L40.3330681,42.2262113 L40.9960616,40.1232531 L42.0537496,40.4534314 C42.5663096,40.6131205 43.0796449,40.7812954 43.5953066,40.9502418 C44.9228446,41.3837937 46.2969085,41.8327745 47.6135904,42.1243806 L48.6953168,42.3635285 L48.215325,44.5158591 Z M52.169248,44.5953179 L51.5458014,42.4792452 L52.6096929,42.1698959 C52.9989593,42.055722 53.3827977,41.9068332 53.7488011,41.7270866 C54.9166003,41.1523603 55.8897664,40.3253716 56.7249056,39.1990624 L57.3824712,38.311901 L59.1659627,39.6210426 L58.5076217,40.508204 C57.4584634,41.923805 56.2232017,42.9683411 54.7320478,43.7027564 C54.2505051,43.9395899 53.7456994,44.1363083 53.232364,44.2851972 L52.169248,44.5953179 Z M28.1122743,54 L27.428344,53.1321247 C26.4939496,51.9471857 26,50.549328 26,49.0912975 C26,48.7017179 26.0356698,48.3075097 26.1070095,47.9187016 C26.190756,47.4566062 26.3140496,46.9921965 26.473013,46.5362727 L26.8366901,45.4948224 L28.9295786,46.2184375 L28.5666769,47.2598878 C28.4449342,47.6078094 28.351107,47.9619025 28.2875217,48.3121384 C28.2402204,48.5713438 28.216182,48.833635 28.216182,49.0912975 C28.216182,50.0517461 28.5465157,50.9782512 29.1722885,51.7720678 L29.8562188,52.6391716 L28.1122743,54 Z" id="Fill-3" fill="#0081FF"></path>
                <path d="M65.958041,28 L65,25.9071695 L65.9036231,25.352673 C66.7034226,24.8619975 67.6006015,24.4906755 68.5693828,24.249482 L69.5696692,24 L70,26.3149606 L69.0004296,26.5644426 C68.2149506,26.7600497 67.4953458,27.055947 66.861664,27.4446747 L65.958041,28 Z" id="Fill-5" fill="#0081FF"></path>
                <polygon id="Fill-7" fill="#0081FF" points="46.1360785 69 44 68.1780929 51.8639215 49 54 49.8219071"></polygon>
                <polygon id="Fill-9" fill="#0081FF" points="58.1165409 64 40 55.9273454 40.8842097 54 59 62.0733945"></polygon>
                <g id="Group-13" transform="translate(0.000000, 26.000000)">
                    <mask id="mask-2" fill="white">
                        <use xlink:href="#path-1"></use>
                    </mask>
                    <g id="Clip-12"></g>
                    <path d="M1.11268889,10.4631214 C1.08857778,10.4631214 1.06446667,10.4623357 1.04035556,10.4607643 C0.427466667,10.4206929 -0.0368666667,9.88719286 0.00202222222,9.26805 C0.151355556,6.92269286 0.526244444,4.26226429 3.0968,2.37340714 C6.11068889,0.158478571 10.7610222,-0.60445 13.4428,2.34669286 C13.8573556,2.80319286 13.8270222,3.51347857 13.3751333,3.93226429 C12.9232444,4.35183571 12.2201333,4.32197857 11.8048,3.86547857 C9.88291111,1.74955 6.32068889,2.78197857 4.40424444,4.18919286 C2.77946667,5.38269286 2.37346667,7.00833571 2.22102222,9.41183571 C2.18291111,10.0066214 1.69368889,10.4631214 1.11268889,10.4631214" id="Fill-11" fill="#0081FF" mask="url(#mask-2)"></path>
                </g>
                <path d="M26.9158831,91 C26.8384215,91 26.759441,90.9915467 26.6812199,90.97464 C22.1755357,89.9686927 20.4721395,85.5060986 19.4537471,82.8386861 C19.3497055,82.5658738 19.2509799,82.3076627 19.1560514,82.0702008 C18.5492688,80.5501369 17.8338879,78.7841576 17.072182,76.9021371 C14.983756,71.7417583 12.6151012,65.8935852 11.0939676,61.7283948 C6.29970091,48.6126562 3.21566526,42.1473893 1.37253437,38.2842137 C0.876628122,37.2436846 0.447551505,36.3453253 0.0951770795,35.546869 C-0.150118048,34.9927911 0.0951770795,34.3434211 0.641964981,34.0959688 C1.18875288,33.8485165 1.83122867,34.0959688 2.07576437,34.6500467 C2.41598795,35.4193005 2.83822972,36.3045956 3.32730112,37.3297549 C5.18637998,41.2275124 8.29851446,47.7527211 13.1292337,60.9668259 C14.6382164,65.0958974 16.9977581,70.9263954 19.0808681,76.0698675 C19.8433335,77.9541935 20.5602331,79.7247836 21.1685347,81.247153 C21.2672603,81.4953738 21.369783,81.7635751 21.4783812,82.0471462 C22.4496891,84.5923695 23.7809658,88.0782189 27.1482679,88.8297975 C27.7337866,88.96044 28.1028685,89.5460258 27.9745252,90.138528 C27.8628893,90.6511077 27.4140676,91 26.9158831,91" id="Fill-14" fill="#0081FF"></path>
                <g id="Group-18" transform="translate(11.000000, 29.000000)">
                    <mask id="mask-4" fill="white">
                        <use xlink:href="#path-3"></use>
                    </mask>
                    <g id="Clip-17"></g>
                    <path d="M17.6811207,62.0002296 C16.239569,62.0002296 14.7685345,61.4598346 13.4518966,60.4318593 C11.5937069,58.9821309 10.3624138,56.7738593 10.2390517,54.6696864 C10.0567241,51.5872914 11.9909483,49.0123778 15.2860345,47.9514889 C17.1031034,47.3651679 18.9457759,47.3621062 20.5091379,47.8604025 C17.5818103,40.718921 10.1009483,23.7041309 5.69094828,13.6731432 C3.09724138,7.77242716 1.04896552,3.11247654 0.596637931,2.01025432 C0.367758621,1.45072346 0.642413793,0.813118519 1.20956897,0.586550617 C1.7775,0.360748148 2.4237931,0.630180247 2.65267241,1.19047654 C3.09413793,2.26743951 5.13775862,6.91667407 7.72525862,12.8028469 C15.9959483,31.615637 23.4550862,48.660279 23.8872414,50.5753901 C24.0028448,51.0928222 23.7274138,51.6186741 23.2324138,51.822279 C22.7374138,52.0274148 22.1640517,51.8513654 21.8731034,51.4066494 C20.7108621,49.6300815 18.0248276,49.3690691 15.9742241,50.0304025 C15.1021552,50.311316 12.2710345,51.4671185 12.4525862,54.5426247 C12.5410345,56.0428716 13.4511207,57.6426247 14.8282759,58.7165259 C15.9377586,59.5829951 17.1605172,59.9542296 18.2637931,59.7628716 C21.5107759,59.1995136 25.4769828,56.4041556 29.6751724,53.4457605 C33.9943966,50.4024025 38.4610345,47.2541802 42.8462069,46.0271926 C43.4358621,45.8618593 44.0480172,46.1986494 44.2156034,46.7796123 C44.3824138,47.3613407 44.0410345,47.9660321 43.4513793,48.1306 C39.4362931,49.2557852 35.1294828,52.2907235 30.9646552,55.2253901 C26.555431,58.3330444 22.3906034,61.2684765 18.6486207,61.917563 C18.3289655,61.9726741 18.005431,62.0002296 17.6811207,62.0002296" id="Fill-16" fill="#0081FF" mask="url(#mask-4)"></path>
                </g>
                <g id="Group-21" transform="translate(64.000000, 0.000000)">
                    <mask id="mask-6" fill="white">
                        <use xlink:href="#path-5"></use>
                    </mask>
                    <g id="Clip-20"></g>
                    <path d="M1.397775,8.7336 C0.818775,8.7336 0.341775,8.2716 0.326775,7.68885 C0.231525,3.9711 4.016025,1.21185 7.729275,0.69135 C10.763775,0.26535 12.788775,1.84185 14.447775,3.3516 C14.885775,3.74985 14.917275,4.42785 14.519025,4.86585 C14.120775,5.30385 13.443525,5.3361 13.005525,4.9371 C11.304525,3.38835 9.944775,2.5446 8.026275,2.81385 C5.744025,3.1341 2.399025,4.88685 2.469525,7.6341 C2.484525,8.22585 2.017275,8.71785 1.425525,8.73285 C1.415775,8.7336 1.406775,8.7336 1.397775,8.7336" id="Fill-19" fill="#0081FF" mask="url(#mask-6)"></path>
                </g>
                <path d="M96.2977045,64 C96.0686456,64 95.8380749,63.9258589 95.6422787,63.7737151 C95.1682858,63.4037817 95.0783254,62.7102531 95.4404348,62.2260187 C97.6992723,59.2086287 96.783037,56.9898006 95.8123719,54.6404532 C95.711828,54.395633 95.61204,54.1554466 95.5182997,53.9183494 C93.2949929,48.2990687 90.5372155,41.6170984 88.1415475,36.0441559 C82.5640032,23.0710008 79.5930423,13.9778987 77.8180255,8.54551553 C77.0696155,6.25409088 76.5290972,4.59904436 76.086099,3.53558237 C75.8532603,2.97488998 76.1087781,2.3269273 76.658368,2.0882855 C77.207958,1.8496437 77.8414606,2.11145461 78.0750552,2.67291929 C78.5505601,3.81670086 79.103174,5.50727334 79.8674593,7.84735311 C81.6303806,13.2434381 84.5816863,22.2763004 90.1191642,35.1560068 C92.5231478,40.7482569 95.2907528,47.452624 97.5216194,53.0912123 C97.6108238,53.3182695 97.706076,53.5491883 97.8028401,53.7831963 C98.8044999,56.2082294 100.177341,59.5306793 97.156486,63.5667377 C96.9440585,63.8509454 96.6227714,64 96.2977045,64" id="Fill-22" fill="#0081FF"></path>
                <path d="M68.4986008,72 C68.1072253,72 67.7288956,71.7902769 67.5309057,71.4221134 C67.2454317,70.8893861 67.4457239,70.227304 67.9806038,69.941805 C71.9549838,67.8193154 77.3245024,67.0217553 82.5175184,66.2502192 C87.5647277,65.5001147 92.3333698,64.7913425 95.0346283,62.9711909 C95.9547445,62.3519719 96.5648299,61.2474813 96.7505414,59.8643804 C96.9815297,58.1467941 96.5149487,56.3725673 95.5334403,55.2336331 C94.083816,53.5504904 92.3901577,53.6645369 91.2260073,54.0579591 C88.8493603,54.8578154 86.8042314,57.393628 86.6660989,59.7112979 C86.637705,60.18815 86.3023499,60.592288 85.8373036,60.7078653 C85.3722574,60.8226772 84.8864914,60.6259661 84.636318,60.2172357 C83.6064632,58.5409817 76.9262203,40.8852052 69.5783368,21.3694756 C67.3075914,15.3387883 65.5141706,10.5748592 65.0798205,9.50404672 C64.8534367,8.94376457 65.1250973,8.30617572 65.6860689,8.07961354 C66.2478079,7.85381677 66.8862872,8.12477289 67.1134384,8.68428963 C67.5569974,9.78036073 69.2660038,14.3192585 71.6311398,20.6002358 C75.663075,31.3083605 82.583515,49.6905138 85.3768619,56.5141687 C86.4504586,54.4697512 88.3628268,52.7123634 90.5253684,51.9844559 C93.0386132,51.1386747 95.4697458,51.8038185 97.1964025,53.8069037 C98.5738908,55.405851 99.2361596,57.8383328 98.9238266,60.1544719 C98.6537008,62.1652112 97.7082603,63.8100833 96.2624731,64.7836883 C93.1483518,66.8816848 88.1418148,67.625666 82.840595,68.4132757 C77.8325232,69.1572569 72.6548553,69.9264968 69.015063,71.8698798 C68.8500714,71.9579023 68.6735687,72 68.4986008,72" id="Fill-24" fill="#0081FF"></path>
                <path d="M64.1667726,19 C63.7075445,19 63.2727869,18.7647149 63.0876274,18.376319 C62.8429233,17.8643106 63.1284115,17.2778538 63.7238582,17.0671508 C65.4302615,16.4645401 65.6513109,15.5866108 65.6684402,14.9783813 C65.6847538,14.4242323 66.2288126,13.9796489 66.863412,14.0007192 C67.5069838,14.0140638 68.0151527,14.4748011 67.9996547,15.0289501 C67.9629491,16.272098 67.3454791,17.9577223 64.6088714,18.9248492 C64.4636803,18.975418 64.3135951,19 64.1667726,19" id="Fill-26" fill="#0081FF"></path>
                <path d="M61.2685964,19 C60.6242804,19 60.0723903,18.6234349 60.0066256,18.1186044 C59.9355287,17.5801643 60.4447606,17.0993407 61.1423993,17.0444678 C61.2828158,17.0341792 61.4258984,17.0218328 61.5716472,17.0081146 C62.2683972,16.9388376 62.9020487,17.32089 62.9900312,17.8579582 C63.077125,18.3950265 62.5838899,18.8854529 61.8880286,18.9526721 C61.7218395,18.9684481 61.5583165,18.9828522 61.3983483,18.9951986 C61.3548015,18.9986282 61.3112546,19 61.2685964,19" id="Fill-28" fill="#0081FF"></path>
                <path d="M28.1132197,30 C27.7349344,30 27.3659894,29.8135565 27.1573877,29.4767553 C26.8429283,28.9670428 27.0141685,28.3077244 27.5418999,28.0032501 C33.9120376,24.3277568 43.9731814,19.6110366 55.7319388,18.0104792 C56.3413985,17.9285343 56.9033779,18.3360036 56.988998,18.9239021 C57.0746182,19.5110488 56.6511877,20.0545918 56.0432848,20.1372885 C44.6511372,21.6874761 34.8764317,26.2733851 28.6822044,29.847387 C28.5039588,29.9511338 28.3078109,30 28.1132197,30" id="Fill-30" fill="#0081FF"></path>
                <path d="M17.7822511,37 C16.8421002,37 15.9399943,36.6129719 15.2105542,35.5498489 C14.8630276,35.0439822 14.9552136,34.3245274 15.4168753,33.94312 C15.8778053,33.5617126 16.5333502,33.6636889 16.8808769,34.1695556 C17.6549467,35.2985215 19.2052812,34.5092089 21.4550587,32.8735733 L21.6979615,32.6977245 C21.8757488,32.5684474 22.0974342,32.4022341 22.362286,32.2014933 C22.8378488,31.8433719 23.4882723,31.9750578 23.8160447,32.4977867 C24.1430856,33.0189096 24.0223658,33.7343496 23.5468031,34.0932741 C23.2673185,34.3044533 23.0331953,34.4794993 22.8466284,34.614397 L22.6095787,34.7862311 C21.4857873,35.6044504 19.5667088,37 17.7822511,37" id="Fill-32" fill="#0081FF"></path>
                <path d="M57.0890892,76 C56.6586565,76 56.2510787,75.7493549 56.0796674,75.3350838 C55.8541664,74.7913996 56.1238534,74.1718524 56.6807495,73.9517012 L61.260858,72.1443787 L62.4630223,66.8332306 C62.543776,66.4747411 62.8081302,66.1839333 63.1616183,66.0612138 C63.5151064,65.9392382 63.9082095,66.0017135 64.2022751,66.2293023 L67.5878376,68.852523 C68.0586472,69.2169625 68.1378773,69.8855975 67.7645817,70.3452375 C67.3905242,70.8056213 66.7056411,70.8814842 66.2348315,70.5177885 L64.2137025,68.9514423 L63.2629414,73.1499343 C63.185235,73.4920611 62.9399264,73.7746877 62.6077695,73.9063322 L57.4966671,75.9226496 C57.3633472,75.9754561 57.2246945,76 57.0890892,76" id="Fill-34" fill="#0081FF"></path>
                <path d="M28.8837517,38 C28.6447455,38 28.4073015,37.9212808 28.2089107,37.7662523 L23.4412845,34.0439606 C22.949994,33.6608071 22.854704,32.9402859 23.2272724,32.4358406 C23.5998408,31.9305922 24.2996759,31.8317916 24.7909663,32.2157483 L27.608271,34.4150652 L27.3388033,30.2228683 C27.2981879,29.5907053 27.7637032,29.0444907 28.3791831,29.0027214 C28.994663,28.9593455 29.5257878,29.439693 29.5664032,30.0718561 L29.9975516,36.77664 C30.0264511,37.2248573 29.7975988,37.6489768 29.4125333,37.8626431 C29.2469473,37.9542144 29.0649589,38 28.8837517,38" id="Fill-36" fill="#0081FF"></path>
                <path d="M86.8337545,63 C86.7586084,63 86.6810119,62.992635 86.6050491,62.977905 C85.8617566,62.8289686 85.2638555,62.258591 85.0449517,61.4877221 C84.8685219,60.8682446 85.2270992,60.2225805 85.8462373,60.0450025 C86.4278024,59.878881 87.0346885,60.1865739 87.2527754,60.7389482 C87.7730801,60.9394395 88.0900004,61.4918138 87.9772813,62.058918 C87.8670126,62.6145655 87.3785633,63 86.8337545,63" id="Fill-38" fill="#0081FF"></path>
            </g>
        </g>
    </g>
</svg>