<?xml version="1.0" encoding="UTF-8"?>
<svg width="59px" height="60px" viewBox="0 0 59 60" version="1.1" xmlns="http://www.w3.org/2000/svg" xmlns:xlink="http://www.w3.org/1999/xlink">
    <title>mono--MONO-pathwar-logotype</title>
    <g id="Pathwar-v2" stroke="none" stroke-width="1" fill="none" fill-rule="evenodd">
        <g id="Ressources/TreasureList" transform="translate(-202.000000, -40.000000)" fill="#0071DE" fill-rule="nonzero">
            <g id="mono--MONO-pathwar-logotype" transform="translate(202.000000, 40.000000)">
                <g id="Group" transform="translate(0.000000, 32.000000)">
                    <path d="M17.9786903,18.0315098 C18.5645733,18.3684902 19.2676329,18.4358862 19.9041868,18.2367615 C20.040365,18.1938731 20.1765432,18.1387309 20.3032206,18.0713348 L21.2057971,17.5995624 C21.7125067,17.3330416 22.0292002,16.8183807 22.0292002,16.2608315 L22.0292002,12.8910284 L27.013956,11.5461707 L23.6665056,10.6455142 L21.3166398,10.0113786 L20.8289318,10.3789934 L19.5368223,11.3531729 C19.4766506,11.4052516 19.4228127,11.4450766 19.3784756,11.4787746 C19.3214707,11.5247265 19.2707998,11.5553611 19.2422974,11.5768053 L19.2264627,11.5890591 L19.2074611,11.5982495 C19.1536232,11.6319475 19.0776167,11.6809628 18.9921095,11.7269147 C18.8559313,11.8004376 18.7197531,11.8647702 18.5804079,11.9137856 C18.4853999,11.9474836 18.3967257,11.9781182 18.3143854,11.9995624 C18.0356951,12.0761488 17.747504,12.1129103 17.4593129,12.1129103 C17.114117,12.1129103 16.772088,12.0577681 16.4395598,11.9474836 L15.4641439,11.6227571 C15.3659689,11.5921225 15.2709608,11.5522976 15.1759528,11.5124726 L15.1759528,11.5124726 C14.821256,11.3654267 14.4918948,11.166302 14.2005368,10.9242888 L13.9883521,11.8954048 C13.9218465,12.1956236 14.0485239,12.5019694 14.3113795,12.6796499 L16.0785293,13.8621444 L15.7428341,16.2087527 C15.698497,16.512035 15.847343,16.8122538 16.1228663,16.9684902 L17.9786903,18.0315098 Z" id="Path"></path>
                    <path d="M44.2895867,1.39080963 L42.4305958,0.327789934 C41.7180354,-0.0796498906 40.8344605,-0.0949671772 40.1060655,0.284901532 L39.593022,0.554485777 L39.203489,0.759737418 C38.6967794,1.02625821 38.3800859,1.53785558 38.3800859,2.09540481 L38.3800859,5.32122538 L32.8601181,6.81006565 L36.2075684,7.71378556 L38.7094471,8.38774617 L39.2161567,8.24989059 L39.5740204,7.98030635 L40.8724638,7 C41.445679,6.51291028 42.1804079,6.2463895 42.9436393,6.2463895 C43.2888352,6.2463895 43.6308642,6.30153173 43.9633924,6.41181619 L44.9324745,6.73347921 C45.4011809,6.88665208 45.8287171,7.12560175 46.2024155,7.42888403 L46.417767,6.46083151 C46.4842727,6.16061269 46.3575953,5.8512035 46.0947397,5.67658643 L44.3307568,4.4940919 L44.666452,2.14748359 C44.710789,1.84726477 44.5619431,1.54704595 44.2895867,1.39080963 Z" id="Path"></path>
                    <path d="M14.4380569,8.50415755 C14.4918948,8.74617068 14.5837359,8.97286652 14.7072464,9.18118162 C14.9891036,9.64682713 15.4356414,10.0083151 15.9771873,10.1890591 L16.9494364,10.5107221 C17.117284,10.5658643 17.2882984,10.5934354 17.4593129,10.5934354 C17.5416532,10.5934354 17.6271605,10.5873085 17.7063339,10.5750547 C17.7665056,10.5658643 17.8266774,10.5536105 17.8868492,10.5382932 C17.9343532,10.5260394 17.9786903,10.5107221 18.0230274,10.4954048 C18.0926999,10.4708972 18.1560386,10.4402626 18.2225443,10.4035011 C18.2668814,10.3820569 18.3048846,10.3544858 18.3460548,10.3299781 C18.3650564,10.3177243 18.3872249,10.302407 18.4062265,10.2870897 C18.4442297,10.2564551 18.4853999,10.228884 18.5234031,10.195186 L19.8598497,9.18424508 L20.9746108,8.34179431 L24.087708,9.18424508 L29.9338701,10.7619256 L38.3769189,13.0411379 L38.3769189,16.263895 C38.3769189,16.8214442 38.6936125,17.336105 39.2003221,17.6026258 L39.5486849,17.7864333 L40.1028986,18.0774617 C40.4544283,18.2612691 40.8407944,18.3531729 41.2271605,18.3531729 C41.642029,18.3531729 42.0600644,18.2459519 42.4274289,18.0345733 L44.2864198,16.9746171 C44.5587762,16.8183807 44.710789,16.5181619 44.666452,16.2148796 L44.3307568,13.8682713 L46.0947397,12.6857768 C46.3575953,12.5111597 46.4842727,12.2017505 46.417767,11.9015317 L45.9680623,9.85820569 C45.9142244,9.61619256 45.8223833,9.38949672 45.6988728,9.18424508 C45.4170156,8.71859956 44.9704777,8.3571116 44.4257649,8.17636761 L43.4535158,7.8547046 C43.2856683,7.79956236 43.1146538,7.77199125 42.9404724,7.77199125 C42.5509393,7.77199125 42.1709071,7.90984683 41.8763822,8.17330416 L40.5367687,9.18424508 L39.2826624,10.1308534 L35.7736983,9.18424508 L29.9275362,7.60656455 L22.0196994,5.47133479 L22.0196994,2.10153173 C22.0196994,1.54398249 21.7030059,1.02932166 21.1962963,0.762800875 L20.2937198,0.291028446 C19.94219,0.107221007 19.5558239,0.0153172867 19.1694579,0.0153172867 C18.7545894,0.0153172867 18.3397209,0.119474836 17.9691895,0.330853392 L16.6549114,1.08140044 L16.1101986,1.39387309 C15.8378422,1.54704595 15.6858293,1.85032823 15.7301664,2.1536105 L16.0658615,4.50021882 L14.2987118,5.68271335 C14.0390231,5.85733042 13.9091787,6.16673961 13.9756844,6.46695842 L14.4380569,8.50415755 Z" id="Path"></path>
                    <path d="M6.04884595,21.5085339 L0.0158346753,21.5085339 L0.0158346753,27.9908096 L2.69822866,27.9908096 L2.69822866,25.3960613 L6.04884595,25.3960613 L6.04884595,24.7466083 L6.72023618,24.7466083 L6.72023618,22.15186 L6.04884595,22.15186 L6.04884595,21.5085339 Z M4.03784219,24.1032823 L2.69822866,24.1032823 L2.69822866,22.8074398 L4.03784219,22.8074398 L4.03784219,24.1032823 Z" id="Shape"></path>
                    <path d="M14.0643586,21.5085339 L8.70273752,21.5085339 L8.70273752,22.1549234 L8.03451422,22.1549234 L8.03451422,27.9908096 L10.7137413,27.9908096 L10.7137413,25.3991247 L12.0533548,25.3991247 L12.0533548,27.9908096 L14.7325819,27.9908096 L14.7325819,22.1549234 L14.0643586,22.1549234 L14.0643586,21.5085339 L14.0643586,21.5085339 Z M12.0533548,24.1032823 L10.7137413,24.1032823 L10.7137413,22.8074398 L12.0533548,22.8074398 L12.0533548,24.1032823 Z" id="Shape"></path>
                    <polygon id="Path" points="16.0753623 22.8043764 18.0863661 22.8043764 18.0863661 27.9908096 20.7687601 27.9908096 20.7687601 22.8043764 22.7765969 22.8043764 22.7765969 21.5085339 16.0753623 21.5085339"></polygon>
                    <polygon id="Path" points="28.1413849 24.1032823 26.7986044 24.1032823 26.7986044 21.5085339 24.1193773 21.5085339 24.1193773 27.9938731 26.7986044 27.9938731 26.7986044 25.3991247 28.1413849 25.3991247 28.1413849 27.9938731 30.8206119 27.9938731 30.8206119 21.5085339 28.1413849 21.5085339"></polygon>
                    <polygon id="Path" points="40.2042405 26.6949672 38.8646269 26.6949672 38.8646269 21.5085339 36.182233 21.5085339 36.182233 26.6949672 34.8426194 26.6949672 34.8426194 21.5085339 32.1633924 21.5085339 32.1633924 27.9938731 42.2152442 27.9938731 42.2152442 27.3444201 42.8866345 27.3444201 42.8866345 21.5085339 40.2042405 21.5085339"></polygon>
                    <path d="M50.2592593,21.5085339 L44.8976382,21.5085339 L44.8976382,22.1549234 L44.226248,22.1549234 L44.226248,27.9908096 L46.908642,27.9908096 L46.908642,25.3991247 L48.2482555,25.3991247 L48.2482555,27.9908096 L50.9306495,27.9908096 L50.9306495,22.1549234 L50.2592593,22.1549234 L50.2592593,21.5085339 Z M48.2482555,24.1032823 L46.908642,24.1032823 L46.908642,22.8074398 L48.2482555,22.8074398 L48.2482555,24.1032823 Z" id="Shape"></path>
                    <path d="M58.9714976,24.1032823 L58.9714976,22.1579869 L58.3032743,22.1579869 L58.3032743,21.5085339 L52.270263,21.5085339 L52.270263,27.9908096 L54.952657,27.9908096 L54.952657,25.3960613 L56.2922705,25.3960613 L56.2922705,27.9908096 L58.9746645,27.9908096 L58.9746645,25.3960613 L58.3032743,25.3960613 L58.3032743,24.1002188 L58.9714976,24.1002188 L58.9714976,24.1032823 Z M56.2922705,24.1032823 L54.952657,24.1032823 L54.952657,22.8074398 L56.2922705,22.8074398 L56.2922705,24.1032823 Z" id="Shape"></path>
                </g>
                <path d="M45.1050166,11.702956 L43.3599332,11.702956 C42.8783152,8.31467757 41.1645058,5.32668882 38.6876132,3.22122838 C38.7157597,3.2905699 38.7313967,3.36936707 38.7313967,3.45131613 C38.7313967,3.78226425 38.4655686,4.05017463 38.1371927,4.05017463 C37.8088168,4.05017463 37.5398613,3.78226425 37.5398613,3.45131613 C37.5398613,3.120368 37.8056894,2.85245762 38.1371927,2.85245762 C38.1747213,2.85245762 38.21225,2.85876139 38.2466513,2.86191328 C35.9542747,1.06848965 33.073949,0 29.9465594,0 C26.8191698,0 23.9419714,1.06848965 21.6495949,2.86191328 C21.6839962,2.85560951 21.7215248,2.85245762 21.7590535,2.85245762 C22.0874294,2.85245762 22.3532575,3.120368 22.3532575,3.45131613 C22.3532575,3.78226425 22.0874294,4.05017463 21.7590535,4.05017463 C21.4306776,4.05017463 21.1617221,3.78226425 21.1617221,3.45131613 C21.1617221,3.36936707 21.1773591,3.2905699 21.2055056,3.22122838 C20.711378,3.64042934 20.2485244,4.09745293 19.820072,4.58284351 C19.5917725,4.84129824 19.3759827,5.10605673 19.1664476,5.38342278 C17.8091605,7.17369452 16.8834532,9.3169776 16.5425677,11.6493739 C16.5425677,11.6525258 16.5425677,11.6525258 16.5425677,11.6556777 C16.5394403,11.6714371 16.5363129,11.6871965 16.5363129,11.7061078 L14.9663634,11.7061078 C14.4347071,11.7061078 14,12.1442201 14,12.6831928 C14,13.2190135 14.4347071,13.6571258 14.9663634,13.6571258 L16.5894786,13.6571258 L16.5894786,24.4680978 C16.5894786,24.5122242 16.5894786,24.5563506 16.5926059,24.600477 C16.5926059,24.6099327 16.5926059,24.6162365 16.5926059,24.6256921 C16.5926059,24.6698186 16.5957333,24.7107931 16.5988607,24.7549195 C16.5988607,24.7643752 16.5988607,24.7706789 16.5988607,24.7801346 C16.6019881,24.8211091 16.6051155,24.8620837 16.6082429,24.9030582 C16.6082429,24.9062101 16.6082429,24.909362 16.6082429,24.9156657 C16.6113703,24.9597921 16.6176251,25.0007667 16.6238798,25.0448931 C16.6238798,25.0543488 16.6270072,25.0638044 16.6270072,25.0732601 C16.633262,25.1142346 16.6395168,25.1552091 16.6457716,25.1961837 C16.6457716,25.2056393 16.648899,25.2119431 16.648899,25.2213988 C16.6551537,25.2592214 16.6614085,25.297044 16.6676633,25.3317148 C16.6676633,25.3380186 16.6707907,25.3474742 16.6707907,25.353778 C16.6801729,25.3947525 16.6864276,25.4325752 16.6958098,25.4735497 C16.6989372,25.4861573 16.7020646,25.4956129 16.7020646,25.5082205 C16.7114468,25.5460431 16.7208289,25.5870176 16.7333385,25.6248403 C16.7364659,25.6342959 16.7395933,25.6437516 16.7395933,25.6500554 C16.7489754,25.6847261 16.7583576,25.716245 16.7677398,25.7477639 C16.7708672,25.7603714 16.7739945,25.7698271 16.7771219,25.7792827 C16.7896315,25.8171054 16.8021411,25.8517761 16.8115232,25.8895988 C16.8146506,25.9022063 16.8209054,25.9148139 16.8240328,25.9274214 C16.8365423,25.9620922 16.8490519,25.993611 16.8615615,26.0282818 C16.8678162,26.0408893 16.8709436,26.0534969 16.8771984,26.0661044 C16.8865806,26.0944714 16.8990901,26.1228384 16.9115997,26.1512054 C16.9178545,26.1638129 16.9241092,26.1795724 16.9272366,26.1921799 C16.9397462,26.2236988 16.9553831,26.2583695 16.9710201,26.2898884 C16.9772749,26.3056478 16.9835296,26.3214073 16.9929118,26.3340148 C17.0054214,26.3592299 17.0148035,26.3812931 17.0273131,26.4065082 C17.0366953,26.4285714 17.0460774,26.4474827 17.058587,26.469546 C17.0710966,26.4916092 17.0804787,26.5136724 17.0929883,26.5357356 C17.1023704,26.551495 17.1117526,26.5704063 17.1180074,26.5861658 C17.1336443,26.6145328 17.1492813,26.6428997 17.1649182,26.6712667 C17.1743004,26.690178 17.18681,26.7059375 17.1961921,26.7248488 C17.2055743,26.7406082 17.2149565,26.7563677 17.227466,26.775279 C17.2462304,26.803646 17.2618673,26.8320129 17.2806317,26.8603799 C17.2900138,26.8761394 17.299396,26.8887469 17.3087782,26.9045063 C17.3212877,26.9234177 17.3337973,26.942329 17.3463068,26.9643922 C17.355689,26.9769997 17.3619438,26.9864554 17.371326,26.999063 C17.3932177,27.0337337 17.4182368,27.0652526 17.4432559,27.0967714 C17.4463833,27.0999233 17.4495107,27.1062271 17.4526381,27.1125309 C17.4526381,27.1125309 17.4526381,27.1125309 17.4526381,27.1125309 C17.8122879,27.5979215 18.2688868,28.0108186 18.8099252,28.3165517 L23.2727101,30.8664281 L23.2727101,33.6999744 C23.2727101,34.4627311 23.657379,35.1529943 24.2640926,35.5532839 C24.2703473,35.5564358 24.2766021,35.5627396 24.2828569,35.5658915 C24.2953664,35.5753471 24.3110034,35.5848028 24.323513,35.5911066 L24.3547868,35.6100179 C24.3672964,35.6163217 24.379806,35.6257773 24.3923155,35.6320811 C24.4048251,35.6383849 24.4173346,35.6478405 24.4298442,35.6541443 C24.4392264,35.6604481 24.4517359,35.6667519 24.4611181,35.6699037 C24.4861372,35.6825113 24.5080289,35.6951188 24.5330481,35.7045745 C24.5393028,35.7077264 24.5455576,35.7108783 24.5518124,35.7140302 C24.5705767,35.7234858 24.5893411,35.7329415 24.6081054,35.7392453 C24.6174876,35.7423971 24.6268697,35.745549 24.6331245,35.7518528 C24.6518889,35.7581566 24.6675258,35.7644603 24.6862901,35.773916 C24.6956723,35.7770679 24.7050545,35.7802198 24.7144366,35.7833717 C24.733201,35.7896754 24.7519653,35.7959792 24.7707297,35.802283 C24.7801118,35.8054349 24.7863666,35.8085868 24.7957488,35.8117386 C24.8238953,35.8211943 24.8489144,35.8274981 24.8770609,35.8369537 C24.8895705,35.8432575 24.9052074,35.8432575 24.917717,35.8495613 L25.199182,35.9220547 L26.5846156,33.8575688 L26.4657748,36.2561547 L29.2804254,36.9968481 L29.9152855,34.5793509 L30.6189481,37 L33.468,36.2530028 L33.3522866,33.9111509 L34.7064463,35.9283585 L35.0098031,35.8495613 C35.9761665,35.5974103 36.65481,34.714882 36.65481,33.7031263 L36.65481,30.86958 L41.1175949,28.3197036 C42.4936463,27.5317318 43.3474237,26.0566488 43.3474237,24.461794 L43.3474237,13.650822 L45.0925071,13.650822 C45.589762,13.650822 45.9997312,13.2410768 45.9997312,12.7367749 L45.9997312,12.6138513 C46.0119596,12.1158531 45.6053989,11.702956 45.1050166,11.702956 Z M39.3318555,4.80032371 C39.6602314,4.80032371 39.9291869,5.06823409 39.9291869,5.39918221 C39.9291869,5.73013033 39.6633588,6.00119261 39.3318555,6.00119261 C39.0034796,6.00119261 38.7376515,5.73328222 38.7376515,5.39918221 C38.7345241,5.06823409 39.0034796,4.80032371 39.3318555,4.80032371 Z M38.1403201,6.90263225 C38.468696,6.90263225 38.7345241,7.17054264 38.7345241,7.50149076 C38.7345241,7.70005963 38.637575,7.8765653 38.4905877,7.98688134 C38.4905877,7.98688134 38.4905877,7.98688134 38.4905877,7.98688134 L37.5523708,7.58343982 C37.5492434,7.55507283 37.546116,7.52985774 37.546116,7.50149076 C37.546116,7.17054264 37.8119441,6.90263225 38.1403201,6.90263225 Z M36.9487846,4.80032371 C37.2771605,4.80032371 37.5429886,5.06823409 37.5429886,5.39918221 C37.5429886,5.39918221 37.5429886,5.39918221 37.5429886,5.39918221 C37.5429886,5.73013033 37.2771605,5.99804072 36.9487846,5.99804072 C36.6204087,5.99804072 36.3545806,5.73013033 36.3545806,5.39603033 C36.3545806,5.22582844 36.4233832,5.07453787 36.5359692,4.96422182 C36.6423004,4.86651333 36.7892878,4.80032371 36.9487846,4.80032371 Z M35.7572492,2.84930573 C36.0856251,2.84930573 36.3545806,3.11721612 36.3545806,3.44816424 C36.3545806,3.77911236 36.0887525,4.04702274 35.7572492,4.04702274 C35.4288733,4.04702274 35.1630452,3.77911236 35.1630452,3.44816424 C35.1630452,3.11721612 35.4288733,2.84930573 35.7572492,2.84930573 Z M34.5688412,1.2008689 C34.8972171,1.2008689 35.1630452,1.46877928 35.1630452,1.7997274 C35.1630452,2.13067553 34.8972171,2.39858591 34.5688412,2.39858591 C34.2404653,2.39858591 33.9715098,2.13067553 33.9715098,1.7997274 C33.9715098,1.46877928 34.2373379,1.2008689 34.5688412,1.2008689 Z M35.1630452,5.39918221 C35.1630452,5.73013033 34.8972171,6.00119261 34.5688412,6.00119261 C34.2404653,6.00119261 33.9715098,5.73328222 33.9715098,5.39918221 C33.9715098,5.06823409 34.2373379,4.80032371 34.5688412,4.80032371 C34.8972171,4.80032371 35.1630452,5.06823409 35.1630452,5.39918221 Z M33.3773057,2.84930573 C33.7056816,2.84930573 33.9715098,3.11721612 33.9715098,3.44816424 C33.9715098,3.64358122 33.8808155,3.816935 33.7369555,3.92409916 C33.6368791,4.00289633 33.5117835,4.04702274 33.3773057,4.04702274 C33.1490063,4.04702274 32.9488534,3.91779538 32.8519043,3.72553028 C32.8081208,3.64358122 32.7831017,3.54587273 32.7831017,3.44501235 C32.7799743,3.120368 33.0458024,2.84930573 33.3773057,2.84930573 Z M32.3327576,1.2008689 C32.6611335,1.2008689 32.930089,1.46877928 32.930089,1.7997274 C32.930089,2.13067553 32.6642609,2.39858591 32.3327576,2.39858591 C32.0012543,2.39858591 31.7354262,2.13067553 31.7354262,1.7997274 C31.7354262,1.46877928 32.0043817,1.2008689 32.3327576,1.2008689 Z M29.9496868,1.2008689 C30.2780627,1.2008689 30.5438908,1.46877928 30.5438908,1.7997274 C30.5438908,2.13067553 30.2780627,2.39858591 29.9496868,2.39858591 C29.6213109,2.39858591 29.3554828,2.13067553 29.3554828,1.7997274 C29.3554828,1.46877928 29.6213109,1.2008689 29.9496868,1.2008689 Z M27.4196286,1.2008689 C27.7480045,1.2008689 28.0138326,1.46877928 28.0138326,1.7997274 C28.0138326,2.13067553 27.7480045,2.39858591 27.4196286,2.39858591 C27.0912527,2.39858591 26.8254246,2.13067553 26.8254246,1.7997274 C26.8254246,1.46877928 27.0912527,1.2008689 27.4196286,1.2008689 Z M26.2280932,2.84930573 C26.5564691,2.84930573 26.8254246,3.11721612 26.8254246,3.44816424 C26.8254246,3.58054349 26.7816412,3.70346708 26.7097112,3.80117557 C26.6002526,3.94931425 26.4282461,4.04702274 26.2312206,4.04702274 C26.1373989,4.04702274 26.0467046,4.02495954 25.9685199,3.98398501 C25.7714943,3.88627651 25.6370166,3.68140387 25.6370166,3.44816424 C25.6338892,3.120368 25.8997173,2.84930573 26.2280932,2.84930573 Z M25.0396852,1.2008689 C25.3680611,1.2008689 25.6338892,1.46877928 25.6338892,1.7997274 C25.6338892,2.13067553 25.3680611,2.39858591 25.0396852,2.39858591 C24.7113093,2.39858591 24.4454811,2.13067553 24.4454811,1.7997274 C24.4454811,1.46877928 24.7081819,1.2008689 25.0396852,1.2008689 Z M25.6338892,5.39918221 C25.6338892,5.73013033 25.3680611,6.00119261 25.0396852,6.00119261 C24.7113093,6.00119261 24.4454811,5.73328222 24.4454811,5.39918221 C24.4454811,5.06823409 24.7113093,4.80032371 25.0396852,4.80032371 C25.3680611,4.80032371 25.6338892,5.06823409 25.6338892,5.39918221 Z M23.995137,2.84930573 C24.323513,2.84930573 24.5893411,3.11721612 24.5893411,3.44816424 C24.5893411,3.77911236 24.323513,4.04702274 23.995137,4.04702274 C23.6667611,4.04702274 23.400933,3.77911236 23.400933,3.44816424 C23.400933,3.11721612 23.6667611,2.84930573 23.995137,2.84930573 Z M24.0013918,6.92154357 C23.9920097,6.91839169 23.9795001,6.9152398 23.9701179,6.9152398 L23.34464,7.18315018 C23.4509713,7.01610018 23.6354872,6.90263225 23.8481497,6.90263225 C23.8888058,6.90263225 23.9294619,6.90578414 23.9701179,6.9152398 C23.9795001,6.91839169 23.9920097,6.91839169 24.0013918,6.92154357 Z M22.8036016,4.80032371 C22.991245,4.80032371 23.1569966,4.88857654 23.2664553,5.02095579 C23.3508948,5.12496806 23.400933,5.2573473 23.400933,5.39918221 C23.400933,5.73013033 23.1351049,6.00119261 22.806729,6.00119261 C22.5002448,6.00119261 22.2500537,5.77110486 22.2156524,5.4748275 C22.212525,5.4496124 22.2093976,5.42439731 22.2093976,5.39918221 C22.2093976,5.06823409 22.4752257,4.80032371 22.8036016,4.80032371 Z M21.433805,8.00264077 C21.4556967,8.01524832 21.4556967,8.01524832 21.433805,8.00264077 C21.2743081,7.89547662 21.1679769,7.71266718 21.1679769,7.50464264 C21.1679769,7.17369452 21.433805,6.90578414 21.7653083,6.90578414 C22.0936842,6.90578414 22.3595123,7.17369452 22.3595123,7.50464264 C22.3595123,7.5393134 22.3376206,7.66854076 22.3501301,7.6118068 L21.433805,8.00264077 Z M20.4236582,4.80032371 C20.7520341,4.80032371 21.0178622,5.06823409 21.0178622,5.39918221 C21.0178622,5.73013033 20.7520341,6.00119261 20.4236582,6.00119261 C20.0952823,6.00119261 19.8294541,5.73328222 19.8294541,5.39918221 C19.8263268,5.06823409 20.0952823,4.80032371 20.4236582,4.80032371 Z M27.5478516,24.4933129 L27.5478516,24.4933129 C27.5165777,25.7824346 26.6815647,27.1156828 23.0881941,26.5577988 C15.9170898,25.4451827 19.1727023,18.4889684 20.4111486,17.7797938 C20.4580595,17.7545788 20.4987155,17.7356674 20.5393716,17.7293637 C20.5581359,17.7262118 20.5737729,17.7230599 20.5925372,17.7167561 C20.598792,17.7167561 20.6050468,17.7136042 20.6113015,17.7136042 C20.6238111,17.7104523 20.6363207,17.7104523 20.6488302,17.7073005 C20.655085,17.7073005 20.6644672,17.7041486 20.6707219,17.7041486 C20.6832315,17.7041486 20.6926137,17.7009967 20.7051232,17.7009967 C20.7145054,17.7009967 20.7207602,17.7009967 20.7301423,17.6978448 C20.7395245,17.6978448 20.7520341,17.6946929 20.7614162,17.6946929 C20.7707984,17.6946929 20.7770532,17.6946929 20.7864354,17.6946929 C20.7958175,17.6946929 20.8083271,17.6946929 20.8177093,17.691541 C20.8270914,17.691541 20.8364736,17.691541 20.8427284,17.691541 C20.8521105,17.691541 20.8646201,17.691541 20.8740023,17.691541 C20.8833844,17.691541 20.8927666,17.691541 20.9021488,17.691541 C20.9115309,17.691541 20.9240405,17.691541 20.9334227,17.691541 C20.9428048,17.691541 20.952187,17.691541 20.9615692,17.691541 C20.9709513,17.691541 20.9834609,17.691541 20.9928431,17.691541 C21.0022252,17.691541 21.0116074,17.691541 21.0209896,17.6946929 C21.0303717,17.6946929 21.0428813,17.6946929 21.0522635,17.6978448 C21.0616456,17.6978448 21.0710278,17.7009967 21.08041,17.7009967 C21.0897921,17.7009967 21.1023017,17.7041486 21.1116839,17.7041486 C21.121066,17.7041486 21.1304482,17.7073005 21.1398304,17.7073005 C21.1492125,17.7073005 21.1617221,17.7104523 21.1711043,17.7104523 C21.1804864,17.7104523 21.1898686,17.7136042 21.1992508,17.7136042 C21.2086329,17.7136042 21.2211425,17.7167561 21.2305247,17.719908 C21.2399068,17.7230599 21.249289,17.7230599 21.2586712,17.7262118 C21.2680533,17.7293637 21.2805629,17.7293637 21.2899451,17.7325155 C21.2993272,17.7356674 21.3087094,17.7356674 21.3180916,17.7388193 C21.3306011,17.7419712 21.3399833,17.7419712 21.3493655,17.7451231 C21.3587476,17.748275 21.3681298,17.748275 21.377512,17.7514269 C21.3900215,17.7545788 21.3994037,17.7577306 21.4087859,17.7577306 C21.418168,17.7608825 21.4275502,17.7640344 21.4400598,17.7640344 C21.4494419,17.7671863 21.4619515,17.7703382 21.4713337,17.7734901 C21.4807158,17.776642 21.490098,17.7797938 21.5026076,17.7829457 C21.5119897,17.7860976 21.5244993,17.7892495 21.5370089,17.7924014 C21.546391,17.7955533 21.5557732,17.7987052 21.5682827,17.8018571 C21.5807923,17.8050089 21.5901745,17.8081608 21.5995566,17.8113127 C21.6089388,17.8144646 21.6214484,17.8176165 21.6308305,17.8207684 C21.6402127,17.8239203 21.6527223,17.8270722 21.6652318,17.830224 C21.674614,17.8333759 21.6839962,17.8365278 21.6965057,17.8396797 C21.7090153,17.8428316 21.7183974,17.8459835 21.730907,17.8522872 C21.7402892,17.8554391 21.7527987,17.858591 21.7621809,17.8617429 C21.7746905,17.8648948 21.7840726,17.8711986 21.7965822,17.8743505 C21.8059644,17.8775023 21.8184739,17.8806542 21.8278561,17.886958 C21.8403656,17.8901099 21.8497478,17.8964137 21.8622574,17.8995656 C21.8716395,17.9027174 21.8841491,17.9058693 21.8935313,17.9121731 C21.9060408,17.915325 21.915423,17.9216288 21.9279325,17.9279325 C21.9373147,17.9310844 21.9466969,17.9373882 21.9592064,17.9405401 C21.971716,17.9468439 21.9842256,17.9499957 21.9936077,17.9562995 C22.0029899,17.9594514 22.0123721,17.9657552 22.0248816,17.9689071 C22.0373912,17.9752108 22.0499007,17.9783627 22.0624103,17.9846665 L22.0905568,17.997274 C22.1030664,18.0035778 22.1155759,18.0098816 22.1280855,18.0161854 C22.1374676,18.0193373 22.1468498,18.025641 22.156232,18.0287929 C22.1687415,18.0350967 22.1812511,18.0414005 22.1937607,18.0477042 C22.2031428,18.0508561 22.212525,18.0571599 22.2219072,18.0603118 C22.2344167,18.0666156 22.2469263,18.0729193 22.2625632,18.0792231 C22.2719454,18.082375 22.2813276,18.0886788 22.2875823,18.0918306 C22.3032193,18.1012863 22.3188562,18.1075901 22.3344932,18.1170457 C22.340748,18.1201976 22.3470027,18.1233495 22.3532575,18.1265014 C22.3751493,18.139109 22.397041,18.1517165 22.4189327,18.1611722 C22.4251875,18.164324 22.4314423,18.1674759 22.437697,18.1706278 C22.453334,18.1800835 22.4689709,18.1863873 22.4846079,18.1958429 C22.4939901,18.2021467 22.5033722,18.2052986 22.5127544,18.2116024 C22.525264,18.2179061 22.5377735,18.2273618 22.5534105,18.2336656 C22.5627926,18.2399693 22.5721748,18.2462731 22.581557,18.249425 C22.5940665,18.2557288 22.6065761,18.2651844 22.6190856,18.2714882 C22.6284678,18.277792 22.63785,18.2840957 22.6503595,18.2903995 C22.6628691,18.2967033 22.6753787,18.306159 22.6878882,18.3124627 C22.6972704,18.3187665 22.7097799,18.3250703 22.7191621,18.3313741 C22.7316717,18.3376778 22.7441812,18.3471335 22.7566908,18.3534373 C22.766073,18.359741 22.7785825,18.3660448 22.7879647,18.3723486 C22.8004742,18.3786524 22.8129838,18.388108 22.822366,18.3944118 C22.8317481,18.4007156 22.8442577,18.4070193 22.8536399,18.416475 C22.8661494,18.4227788 22.878659,18.4322344 22.8880411,18.4385382 C22.8974233,18.444842 22.9099329,18.4511458 22.919315,18.4606014 C22.9318246,18.4669052 22.9443342,18.4763608 22.9537163,18.4826646 C22.9630985,18.4889684 22.9756081,18.4984241 22.9849902,18.5047278 C22.9974998,18.5110316 23.0100093,18.5204873 23.0193915,18.526791 C23.0287737,18.5330948 23.0412832,18.5425505 23.0506654,18.5488542 C23.063175,18.5583099 23.0725571,18.5646137 23.0850667,18.5740693 C23.0944489,18.5803731 23.1069584,18.5898288 23.1163406,18.5961325 C23.1288501,18.6055882 23.1413597,18.611892 23.1507419,18.6213476 C23.160124,18.6276514 23.1726336,18.6371071 23.1820158,18.6434109 C23.1945253,18.6528665 23.2070349,18.6591703 23.216417,18.6686259 C23.2257992,18.6749297 23.2383088,18.6843854 23.2476909,18.6906892 C23.2602005,18.7001448 23.2727101,18.7064486 23.2820922,18.7159043 C23.2914744,18.722208 23.303984,18.7316637 23.3133661,18.7379675 C23.3258757,18.7474231 23.3383852,18.7537269 23.3477674,18.7631826 C23.360277,18.7694863 23.3696591,18.778942 23.3790413,18.7883976 C23.3915509,18.7978533 23.400933,18.807309 23.4134426,18.8136127 C23.4259521,18.8230684 23.4353343,18.8293722 23.4447165,18.8388278 C23.457226,18.8482835 23.4666082,18.8577392 23.4791178,18.8640429 C23.4884999,18.8734986 23.5010095,18.8798024 23.5103917,18.889258 C23.5229012,18.8987137 23.5354108,18.9081694 23.544793,18.917625 C23.5541751,18.9270807 23.5666847,18.9333844 23.5760668,18.9428401 C23.5885764,18.9522958 23.601086,18.9617514 23.6104681,18.9712071 C23.6198503,18.9806627 23.6323599,18.9869665 23.641742,18.9964222 C23.6542516,19.0058778 23.6667611,19.0153335 23.6761433,19.0247892 C23.6855255,19.0342448 23.698035,19.0405486 23.7074172,19.0500043 C23.7199268,19.0594599 23.7324363,19.0689156 23.7418185,19.0783712 C23.7512007,19.0878269 23.7637102,19.0941307 23.7730924,19.1035863 C23.7856019,19.113042 23.7981115,19.1224977 23.8074937,19.1319533 C23.8168758,19.141409 23.826258,19.1477128 23.8387676,19.1571684 C23.8512771,19.1666241 23.8637867,19.1760797 23.8762962,19.1855354 C23.8856784,19.1949911 23.8950606,19.2012948 23.9075701,19.2107505 C23.9200797,19.2202062 23.9325893,19.2296618 23.9419714,19.2391175 C23.9513536,19.2485731 23.9607358,19.2548769 23.9732453,19.2643326 C23.9857549,19.2737882 23.9982644,19.2832439 24.0076466,19.2926995 C24.0170288,19.3021552 24.0264109,19.308459 24.0389205,19.3179146 C24.0514301,19.3273703 24.0639396,19.336826 24.0764492,19.3494335 C24.0858313,19.3588892 24.0952135,19.3651929 24.1045957,19.3746486 C24.1171052,19.3841043 24.1296148,19.3967118 24.1421244,19.4061675 C24.1515065,19.4124712 24.1608887,19.4219269 24.1702709,19.4282307 C24.1827804,19.4408382 24.1984174,19.4502939 24.2109269,19.4629014 C24.2203091,19.4692052 24.2265639,19.475509 24.235946,19.4849646 C24.251583,19.4975722 24.2640926,19.5101797 24.2797295,19.5227873 C24.2859843,19.5290911 24.2922391,19.5353948 24.2984938,19.5416986 C24.3422773,19.5795213 24.3829334,19.6173439 24.4267168,19.6551665 C24.4329716,19.6614703 24.4392264,19.6646222 24.4423538,19.670926 C24.4579907,19.6835335 24.4736277,19.699293 24.4892646,19.7119005 C24.4955194,19.7182043 24.5049015,19.7245081 24.5111563,19.7339637 C24.5236659,19.7465713 24.5393028,19.7591788 24.5518124,19.7717864 C24.5611946,19.7780901 24.5674493,19.7875458 24.5768315,19.7938496 C24.5893411,19.8064571 24.6018506,19.8159128 24.6143602,19.8285203 C24.6237424,19.837976 24.6331245,19.8442798 24.6425067,19.8537354 C24.6550162,19.8631911 24.6675258,19.8757986 24.676908,19.8852543 C24.6862901,19.8947099 24.6956723,19.9041656 24.7050545,19.9104694 C24.717564,19.919925 24.7269462,19.9325326 24.7394558,19.9419882 C24.7488379,19.9514439 24.7582201,19.9608996 24.7676023,19.9672033 C24.7801118,19.976659 24.789494,19.9892665 24.8020036,19.9987222 C24.8113857,20.0081779 24.8207679,20.0144816 24.8301501,20.0239373 C24.8426596,20.033393 24.8520418,20.0460005 24.8645513,20.0554562 C24.8739335,20.0649118 24.8833157,20.0743675 24.8926979,20.0806713 C24.9052074,20.0901269 24.9145896,20.1027345 24.9270991,20.1121901 C24.9364813,20.1216458 24.9458635,20.1311015 24.9552456,20.1374052 C24.9646278,20.1468609 24.9771374,20.1594684 24.9865195,20.1689241 C24.9959017,20.1783798 25.0052839,20.1846835 25.014666,20.1941392 C25.0240482,20.2035949 25.0365578,20.2162024 25.0459399,20.2256581 C25.0553221,20.2351137 25.0647043,20.2445694 25.0740864,20.2508732 C25.0834686,20.2603288 25.0959782,20.2729364 25.1053603,20.282392 C25.1147425,20.2918477 25.1241247,20.3013033 25.1303795,20.3076071 C25.1397616,20.3170628 25.1522712,20.3296703 25.1616534,20.339126 C25.1710355,20.3485817 25.1804177,20.3580373 25.1897999,20.367493 C25.199182,20.3769486 25.2116916,20.3864043 25.2210738,20.3990118 C25.2304559,20.4084675 25.2398381,20.4147713 25.2460929,20.4242269 C25.255475,20.4336826 25.2679846,20.4462901 25.2773668,20.4557458 C25.2867489,20.4652015 25.2930037,20.4715052 25.3023859,20.4809609 C25.3117681,20.4904166 25.3242776,20.5030241 25.3336598,20.5124798 C25.343042,20.5219354 25.3492967,20.5282392 25.3586789,20.5376949 C25.3680611,20.5471505 25.3805706,20.5597581 25.3899528,20.5692137 C25.399335,20.5786694 25.4055897,20.5849732 25.4149719,20.5944288 C25.4243541,20.6038845 25.4368636,20.616492 25.4462458,20.6259477 C25.4525006,20.6322515 25.4618828,20.6417071 25.4712649,20.6511628 C25.4806471,20.6606185 25.4931567,20.673226 25.5025388,20.6826817 C25.5087936,20.6889854 25.5181758,20.6984411 25.5244305,20.7047449 C25.5338127,20.7173524 25.5463223,20.7268081 25.5557044,20.7362637 C25.5619592,20.7425675 25.5713414,20.7520232 25.5775962,20.7583269 C25.5869783,20.7677826 25.5994879,20.7803902 25.6088701,20.7898458 C25.6151248,20.7961496 25.624507,20.8056052 25.6307618,20.811909 C25.640144,20.8213647 25.6495261,20.8339722 25.6620357,20.8434279 C25.6682905,20.8497317 25.6776726,20.8591873 25.6839274,20.8654911 C25.6933096,20.8749468 25.7058191,20.8875543 25.7152013,20.89701 C25.7214561,20.9033137 25.7277109,20.9127694 25.737093,20.9190732 C25.7464752,20.9285288 25.7589848,20.9411364 25.7683669,20.950592 C25.7746217,20.9568958 25.7840039,20.9663515 25.7902587,20.9726553 C25.7996408,20.9852628 25.8121504,20.9947185 25.8215326,21.007326 C25.8277873,21.0136298 25.8340421,21.0199336 25.8402969,21.0262373 C25.8528065,21.0388449 25.8621886,21.0483005 25.8715708,21.0609081 C25.8778256,21.0672119 25.8840803,21.0735156 25.8903351,21.0798194 C25.9028447,21.092427 25.9153542,21.1050345 25.9278638,21.117642 C25.9309912,21.1207939 25.937246,21.1270977 25.9403734,21.1302496 C25.9560103,21.146009 25.9685199,21.1617685 25.9841568,21.1775279 C25.9872842,21.1775279 25.9872842,21.1806798 25.9904116,21.1838317 C26.0216855,21.2185024 26.0529594,21.2531732 26.0842333,21.2878439 C26.0842333,21.2878439 26.0873607,21.2878439 26.0873607,21.2909958 C26.1029976,21.3067553 26.1155072,21.3225147 26.1311441,21.3382741 C26.1342715,21.341426 26.1373989,21.3445779 26.1405263,21.3477298 C26.1530358,21.3603373 26.1655454,21.3729449 26.1749276,21.3855524 C26.178055,21.3887043 26.1843097,21.3950081 26.1874371,21.4013119 C26.1968193,21.4139194 26.2093289,21.4233751 26.218711,21.4359826 C26.2218384,21.4391345 26.2280932,21.4454383 26.2312206,21.4485902 C26.2406028,21.4611977 26.2531123,21.4706534 26.2624945,21.4832609 C26.2656219,21.4895647 26.2718767,21.4927166 26.275004,21.4990204 C26.2843862,21.5116279 26.2937684,21.5210836 26.3031505,21.5305392 C26.3094053,21.536843 26.3125327,21.5399949 26.3187875,21.5462987 C26.3281697,21.5557543 26.3375518,21.56521 26.346934,21.5746656 C26.3531888,21.5809694 26.3563162,21.5841213 26.3625709,21.5904251 C26.3719531,21.5998807 26.3813353,21.6093364 26.3907175,21.6219439 C26.3938448,21.6282477 26.4000996,21.6313996 26.403227,21.6377034 C26.4126092,21.647159 26.4219914,21.6566147 26.4282461,21.6660704 C26.4345009,21.6723741 26.4376283,21.675526 26.4407557,21.6818298 C26.4501379,21.6912855 26.4563926,21.7007411 26.4657748,21.7101968 C26.4689022,21.7165006 26.475157,21.7196524 26.4782844,21.7259562 C26.4876665,21.7354119 26.4939213,21.7448675 26.5033035,21.7543232 C26.5064309,21.760627 26.5126856,21.7637789 26.515813,21.7700826 C26.5251952,21.7795383 26.53145,21.788994 26.5408322,21.7984496 C26.5439595,21.8016015 26.5470869,21.8079053 26.5533417,21.8110572 C26.5627239,21.8205128 26.5689787,21.8299685 26.5783608,21.8394241 C26.5814882,21.842576 26.5846156,21.8488798 26.5908704,21.8520317 C26.5971252,21.8614873 26.6065073,21.8677911 26.6127621,21.8772468 C26.6158895,21.8835506 26.6221443,21.8867024 26.6252717,21.8930062 C26.6315265,21.9024619 26.6377812,21.9087657 26.6471634,21.9182213 C26.6502908,21.9245251 26.6534182,21.927677 26.659673,21.9308289 C26.6659277,21.9402845 26.6721825,21.9465883 26.6815647,21.956044 C26.6846921,21.9591958 26.6878195,21.9654996 26.6940742,21.9686515 C26.700329,21.9781072 26.7097112,21.9844109 26.715966,21.9938666 C26.7190934,21.9970185 26.7222207,22.0001704 26.7253481,22.0033223 C26.7316029,22.0127779 26.7409851,22.0190817 26.7472399,22.0285374 C26.7503673,22.0316892 26.7534946,22.0348411 26.756622,22.037993 C26.7628768,22.0442968 26.7691316,22.0537524 26.7753864,22.0632081 C26.7785138,22.06636 26.7816412,22.0695119 26.7847685,22.0726638 C26.7910233,22.0789675 26.7972781,22.0884232 26.8035329,22.094727 C26.8066603,22.0978789 26.8097877,22.1010308 26.8097877,22.1041826 C26.8160424,22.1104864 26.8222972,22.1199421 26.828552,22.1262458 C26.8316794,22.1293977 26.8316794,22.1325496 26.8348068,22.1357015 C26.8410616,22.1451572 26.8473163,22.1514609 26.8566985,22.1609166 C26.8566985,22.1609166 26.8598259,22.1640685 26.8598259,22.1640685 C26.8660807,22.1735242 26.8754628,22.1798279 26.8817176,22.1892836 C26.8817176,22.1892836 26.884845,22.1924355 26.884845,22.1924355 C26.9849215,22.3122072 27.053724,22.3941562 27.0787432,22.428827 C27.0881253,22.4414345 27.0943801,22.4508902 27.1006349,22.4666496 C27.1006349,22.4666496 27.1006349,22.4698015 27.1037623,22.4698015 C27.1037623,22.4698015 27.1037623,22.4729534 27.1068897,22.4761053 C27.1100171,22.4792572 27.1100171,22.485561 27.1131444,22.4887128 C27.1131444,22.4918647 27.1162718,22.4950166 27.1162718,22.4950166 C27.1193992,22.4981685 27.1193992,22.5044723 27.1225266,22.510776 C27.1225266,22.5139279 27.125654,22.5170798 27.125654,22.5202317 C27.1287814,22.5265355 27.1319088,22.5328393 27.1319088,22.539143 C27.1350362,22.5422949 27.1350362,22.5454468 27.1381636,22.5517506 C27.141291,22.5580543 27.1444183,22.5643581 27.1475457,22.5738138 C27.1506731,22.5769657 27.1506731,22.5832694 27.1538005,22.5864213 C27.1569279,22.595877 27.1600553,22.6021808 27.1631827,22.6116364 C27.1663101,22.6147883 27.1663101,22.6210921 27.1694375,22.624244 C27.1725648,22.6336996 27.1788196,22.6431553 27.181947,22.6557628 C27.1850744,22.6589147 27.1850744,22.6620666 27.1850744,22.6652185 C27.1913292,22.6809779 27.197584,22.6967374 27.2038387,22.7124968 C27.2100935,22.7282562 27.2163483,22.7440157 27.2226031,22.762927 C27.2257305,22.7692308 27.2257305,22.7723827 27.2288579,22.7786864 C27.2319852,22.791294 27.23824,22.8039015 27.2413674,22.8165091 C27.2444948,22.8228128 27.2476222,22.8322685 27.2476222,22.8385723 C27.2507496,22.8511798 27.2570044,22.8606355 27.2601318,22.873243 C27.2632591,22.8795468 27.2663865,22.8890025 27.2695139,22.8984581 C27.2726413,22.9110657 27.2788961,22.9236732 27.2820235,22.9362808 C27.2851509,22.9457364 27.2882783,22.9520402 27.2914057,22.9614959 C27.294533,22.9741034 27.3007878,22.986711 27.3039152,22.9993185 C27.3070426,23.0087742 27.31017,23.0182298 27.3132974,23.0276855 C27.3164248,23.040293 27.3226795,23.0529006 27.3258069,23.0655081 C27.3289343,23.0749638 27.3320617,23.0844195 27.3351891,23.0938751 C27.3383165,23.1064827 27.3445713,23.1190902 27.3476987,23.1348496 C27.3508261,23.1443053 27.3539534,23.153761 27.3570808,23.1663685 C27.3602082,23.1789761 27.366463,23.1947355 27.3695904,23.2104949 C27.3727178,23.2199506 27.3758452,23.2294063 27.3789726,23.2420138 C27.3820999,23.2577732 27.3883547,23.2735327 27.3914821,23.2892921 C27.3946095,23.2987478 27.3977369,23.3082034 27.3977369,23.3176591 C27.4008643,23.3365704 27.4071191,23.3523298 27.4102465,23.3712412 C27.4133738,23.3806968 27.4133738,23.3870006 27.4165012,23.3964563 C27.422756,23.4216714 27.4290108,23.4500383 27.4352656,23.4752534 C27.4352656,23.4752534 27.4352656,23.4784053 27.4352656,23.4784053 C27.4415203,23.5036204 27.4477751,23.5288355 27.4509025,23.5572025 C27.4540299,23.5666581 27.4540299,23.5761138 27.4571573,23.5855695 C27.4602847,23.6044808 27.4634121,23.6233921 27.4696669,23.6423034 C27.4727942,23.6517591 27.4727942,23.6643666 27.4759216,23.6738223 C27.479049,23.6927336 27.4821764,23.7084931 27.4853038,23.7274044 C27.4884312,23.7400119 27.4884312,23.7526195 27.4915586,23.7620751 C27.494686,23.7778346 27.4978134,23.7967459 27.5009408,23.8125053 C27.5040681,23.8251129 27.5040681,23.8377204 27.5071955,23.850328 C27.5103229,23.8660874 27.5134503,23.8849987 27.5134503,23.9007582 C27.5134503,23.9133657 27.5165777,23.9259733 27.5197051,23.9385808 C27.5228325,23.9543402 27.5228325,23.9732516 27.5259599,23.989011 C27.5259599,24.0016185 27.5290873,24.0142261 27.5290873,24.0268336 C27.5290873,24.045745 27.5322146,24.0615044 27.5322146,24.0772638 C27.5322146,24.0898714 27.535342,24.1024789 27.535342,24.1150865 C27.535342,24.1339978 27.5384694,24.1497572 27.5384694,24.1686685 C27.5384694,24.1812761 27.5415968,24.1938836 27.5415968,24.2064912 C27.5415968,24.2254025 27.5447242,24.2443138 27.5447242,24.2632251 C27.5447242,24.2758327 27.5447242,24.2884402 27.5447242,24.3010478 C27.5447242,24.3199591 27.5447242,24.3420223 27.5447242,24.3609336 C27.5447242,24.3703893 27.5447242,24.3829968 27.5447242,24.3924525 C27.550979,24.4302752 27.550979,24.461794 27.5478516,24.4933129 Z M27.8386988,5.83099071 C27.8261893,5.84359826 27.8136797,5.85620581 27.7980428,5.86566147 C27.8105523,5.85305392 27.8230619,5.84359826 27.8386988,5.83099071 C27.7824058,5.84044638 27.7261128,5.84990204 27.6698198,5.8593577 L27.1756922,5.94761053 C27.1756922,5.94761053 27.1756922,5.94761053 27.1756922,5.94761053 C26.9692845,5.85305392 26.828552,5.64502939 26.828552,5.4023341 C26.828552,5.07138598 27.0943801,4.80347559 27.422756,4.80347559 C27.7511319,4.80347559 28.01696,5.07138598 28.01696,5.4023341 C28.01696,5.5693841 27.9481575,5.72067467 27.8386988,5.83099071 Z M28.0263422,3.56163217 C28.0200874,3.52696141 28.01696,3.48913877 28.01696,3.45131613 C28.01696,3.120368 28.2827881,2.85245762 28.611164,2.85245762 C28.9364126,2.85245762 29.1991133,3.11406423 29.2084955,3.43870858 L29.2084955,3.45446801 C29.2084955,3.78541613 28.9426673,4.05332652 28.611164,4.05332652 C28.3203168,4.05017463 28.0795078,3.8421501 28.0263422,3.56163217 Z M28.7112405,28.9406253 C28.0951448,28.669563 29.4336675,25.9337252 29.4336675,25.9337252 C29.4336675,25.9337252 30.1060563,29.5552432 28.7112405,28.9406253 Z M29.4180306,5.66394071 C29.4180306,5.66394071 29.4180306,5.66394071 29.4180306,5.66394071 C29.3805019,5.58514354 29.3554828,5.49373882 29.3554828,5.39918221 C29.3554828,5.06823409 29.6213109,4.80032371 29.9496868,4.80032371 C30.2780627,4.80032371 30.5438908,5.06823409 30.5438908,5.39918221 C30.5438908,5.49373882 30.5219991,5.58199165 30.4844704,5.66078882 C30.1310754,5.64818128 29.774553,5.65133316 29.4180306,5.66394071 Z M31.3914134,28.9406253 C29.9965976,29.5552432 30.6689864,25.9337252 30.6689864,25.9337252 C30.6689864,25.9337252 32.0075091,28.6727149 31.3914134,28.9406253 Z M31.5853115,3.51750575 C31.5540376,3.816935 31.3007191,4.05017463 30.9942349,4.05017463 C30.665859,4.05017463 30.4000309,3.78226425 30.4000309,3.45131613 C30.4000309,3.44186047 30.4000309,3.4324048 30.4031583,3.41979726 C30.4187952,3.10145668 30.6783685,2.84930573 30.9973623,2.84930573 C31.3257382,2.84930573 31.5946937,3.11721612 31.5946937,3.44816424 C31.5884389,3.47337933 31.5884389,3.49544254 31.5853115,3.51750575 Z M31.8824135,5.79316807 L31.8824135,5.79316807 C31.7917192,5.68915581 31.7354262,5.55047278 31.7354262,5.39918221 C31.7354262,5.06823409 32.0012543,4.80032371 32.3327576,4.80032371 C32.6642609,4.80032371 32.930089,5.06823409 32.930089,5.39918221 C32.930089,5.62296618 32.8081208,5.81523128 32.632987,5.91924355 L32.632987,5.91924355 L32.2889742,5.85620581 C32.151369,5.8341426 32.0168913,5.81207939 31.8824135,5.79316807 Z M41.3021109,22.9772553 C41.2770918,23.1316978 41.2426905,23.2861402 41.2020344,23.4374308 C41.1863975,23.487861 41.1738879,23.5382912 41.1551236,23.5887214 C41.1301045,23.6643666 41.1050854,23.7400119 41.0738115,23.8125053 C41.045665,23.8849987 41.0143911,23.960644 40.9799898,24.0331374 C40.7423082,24.5405912 40.379531,25.0102223 39.8572569,25.410512 C39.1661038,25.940029 38.1934857,26.3497743 36.8643451,26.5546469 C30.4125404,27.5600988 32.8550317,22.4634977 32.8550317,22.4634977 C32.8550317,22.4634977 36.9206381,17.3795042 39.2911994,17.7009967 C39.3068364,17.7041486 39.3224733,17.7041486 39.3381103,17.7073005 C39.3631294,17.7104523 39.3881485,17.7167561 39.4131676,17.7230599 C39.4413141,17.7293637 39.472588,17.7388193 39.5038619,17.7545788 C40.1324672,18.0634637 41.3521491,20.1247977 41.3584039,22.1924355 C41.3615313,22.457194 41.342767,22.7188006 41.3021109,22.9772553 Z" id="Shape"></path>
            </g>
        </g>
    </g>
</svg>