<?xml version="1.0" encoding="UTF-8"?>
<svg width="91px" height="94px" viewBox="0 0 91 94" version="1.1" xmlns="http://www.w3.org/2000/svg" xmlns:xlink="http://www.w3.org/1999/xlink">
    <!-- Generator: Sketch 55.2 (78181) - https://sketchapp.com -->
    <title>MONO-pathwar-logotype</title>
    <desc>Created with Sketch.</desc>
    <g id="Page-1" stroke="none" stroke-width="1" fill="none" fill-rule="evenodd">
        <g id="PATHWAR-Landing-Page" transform="translate(-51.000000, -37.000000)" fill="#00376C" fill-rule="nonzero">
            <g id="MONO-pathwar-logotype" transform="translate(51.000000, 37.000000)">
                <g id="Group" transform="translate(0.000000, 49.000000)">
                    <path d="M27.7298443,28.9792123 C28.6334944,29.5207877 29.7178744,29.6291028 30.6996779,29.309081 C30.9097155,29.2401532 31.1197531,29.1515317 31.3151369,29.0432166 L32.7072464,28.2850109 C33.4887815,27.856674 33.977241,27.0295405 33.977241,26.1334792 L33.977241,20.7177243 L41.6655931,18.5563457 L36.5025765,17.1088621 L32.8782072,16.0897155 L32.1259796,16.6805252 L30.1330649,18.2461707 C30.0402576,18.3298687 29.9572195,18.3938731 29.8888352,18.4480306 C29.8009125,18.5218818 29.722759,18.571116 29.6787976,18.6055799 L29.6543747,18.6252735 L29.6250671,18.6400438 C29.542029,18.6942013 29.4247987,18.7729759 29.2929147,18.8468271 C29.0828771,18.9649891 28.8728395,19.0683807 28.6579173,19.1471554 C28.5113795,19.2013129 28.3746108,19.250547 28.2476114,19.2850109 C27.817767,19.4080963 27.3732689,19.4671772 26.9287708,19.4671772 C26.39635,19.4671772 25.8688137,19.3785558 25.3559313,19.2013129 L23.8514761,18.6794311 C23.7000537,18.6301969 23.5535158,18.5661926 23.406978,18.5021882 L23.406978,18.5021882 C22.8599034,18.2658643 22.3519055,17.9458425 21.9025228,17.5568928 L21.575255,19.1176149 C21.4726785,19.6001094 21.6680623,20.0924508 22.0734836,20.3780088 L24.7990875,22.2784464 L24.2813205,26.0497812 C24.2129361,26.5371991 24.4425121,27.0196937 24.8674718,27.2707877 L27.7298443,28.9792123 Z" id="Path"></path>
                    <path d="M68.3110574,2.23522976 L65.4438003,0.526805252 C64.3447665,-0.128008753 62.9819646,-0.152625821 61.8585078,0.457877462 L61.0672034,0.891137856 L60.4663983,1.22100656 C59.6848631,1.64934354 59.1964037,2.47155361 59.1964037,3.36761488 L59.1964037,8.55196937 L50.682555,10.9447484 L55.8455717,12.3971554 L59.7044015,13.4803063 L60.4859367,13.2587527 L61.0378959,12.8254923 L63.0405797,11.25 C63.9246914,10.4671772 65.0579173,10.0388403 66.2351047,10.0388403 C66.7675255,10.0388403 67.2950617,10.1274617 67.8079442,10.3047046 L69.3026302,10.821663 C70.0255502,11.0678337 70.6849705,11.45186 71.2613527,11.9392779 L71.5935051,10.3834792 C71.6960816,9.90098468 71.5006978,9.40371991 71.0952764,9.12308534 L68.3745572,7.2226477 L68.8923242,3.45131291 C68.9607085,2.96881838 68.7311326,2.48632385 68.3110574,2.23522976 Z" id="Path"></path>
                    <path d="M22.2688674,13.6673961 C22.3519055,14.0563457 22.4935588,14.4206783 22.684058,14.7554705 C23.1187869,15.5038293 23.8075148,16.0847921 24.6427805,16.3752735 L26.142351,16.8922319 C26.4012346,16.9808534 26.6650027,17.0251641 26.9287708,17.0251641 C27.0557703,17.0251641 27.1876543,17.0153173 27.3097692,16.9956236 C27.4025765,16.9808534 27.4953838,16.9611597 27.5881911,16.9365427 C27.66146,16.916849 27.7298443,16.8922319 27.7982287,16.8676149 C27.9056897,16.8282276 28.0033816,16.7789934 28.1059581,16.7199125 C28.1743425,16.6854486 28.2329576,16.6411379 28.2964573,16.6017505 C28.3257649,16.5820569 28.3599571,16.5574398 28.3892646,16.5328228 C28.4478798,16.4835886 28.5113795,16.4392779 28.5699946,16.3851204 L30.6312936,14.7603939 L32.350671,13.4064551 L37.1522276,14.7603939 L46.1691895,17.2959519 L59.1915191,20.9589716 L59.1915191,26.1384026 C59.1915191,27.0344639 59.6799785,27.8615974 60.4615137,28.2899344 L60.9988191,28.5853392 L61.8536232,29.0530635 C62.3958132,29.3484683 62.9917338,29.4961707 63.5876543,29.4961707 C64.2275362,29.4961707 64.8723027,29.3238512 65.4389157,28.9841357 L68.3061728,27.2806346 C68.726248,27.0295405 68.9607085,26.547046 68.8923242,26.059628 L68.3745572,22.2882932 L71.0952764,20.3878556 C71.5006978,20.107221 71.6960816,19.6099562 71.5935051,19.1274617 L70.8998926,15.8435449 C70.8168545,15.4545952 70.6752013,15.0902626 70.4847021,14.7603939 C70.0499732,14.012035 69.3612453,13.4310722 68.521095,13.1405908 L67.0215244,12.6236324 C66.7626409,12.5350109 66.4988728,12.4907002 66.2302201,12.4907002 C65.6294149,12.4907002 65.0432636,12.7122538 64.5889962,13.1356674 L62.5228127,14.7603939 L60.5885132,16.2817287 L55.1763822,14.7603939 L46.1594203,12.2248359 L33.9625872,8.79321663 L33.9625872,3.37746171 C33.9625872,2.48140044 33.4741278,1.65426696 32.6925926,1.22592998 L31.3004831,0.467724289 C30.7582931,0.172319475 30.1623725,0.0246170678 29.566452,0.0246170678 C28.92657,0.0246170678 28.2866881,0.192013129 27.7151906,0.531728665 L25.6880837,1.73796499 L24.8479334,2.24015317 C24.4278583,2.48632385 24.1933977,2.97374179 24.2617821,3.46115974 L24.7795491,7.23249453 L22.0539452,9.13293217 C21.6534085,9.41356674 21.4531401,9.91083151 21.5557166,10.393326 L22.2688674,13.6673961 Z" id="Path"></path>
                    <path d="M9.32957595,34.5672867 L0.0244229737,34.5672867 L0.0244229737,44.9852298 L4.16167472,44.9852298 L4.16167472,40.8150985 L9.32957595,40.8150985 L9.32957595,39.7713348 L10.36511,39.7713348 L10.36511,35.6012035 L9.32957595,35.6012035 L9.32957595,34.5672867 Z M6.22785829,38.7374179 L4.16167472,38.7374179 L4.16167472,36.654814 L6.22785829,36.654814 L6.22785829,38.7374179 Z" id="Shape"></path>
                    <path d="M21.6924852,34.5672867 L13.4228663,34.5672867 L13.4228663,35.6061269 L12.3922169,35.6061269 L12.3922169,44.9852298 L16.524584,44.9852298 L16.524584,40.8200219 L18.5907676,40.8200219 L18.5907676,44.9852298 L22.7231347,44.9852298 L22.7231347,35.6061269 L21.6924852,35.6061269 L21.6924852,34.5672867 L21.6924852,34.5672867 Z M18.5907676,38.7374179 L16.524584,38.7374179 L16.524584,36.654814 L18.5907676,36.654814 L18.5907676,38.7374179 Z" id="Shape"></path>
                    <polygon id="Path" points="24.7942029 36.6498906 27.8959206 36.6498906 27.8959206 44.9852298 32.0331723 44.9852298 32.0331723 36.6498906 35.1300054 36.6498906 35.1300054 34.5672867 24.7942029 34.5672867"></polygon>
                    <polygon id="Path" points="43.4045089 38.7374179 41.3334407 38.7374179 41.3334407 34.5672867 37.2010735 34.5672867 37.2010735 44.9901532 41.3334407 44.9901532 41.3334407 40.8200219 43.4045089 40.8200219 43.4045089 44.9901532 47.536876 44.9901532 47.536876 34.5672867 43.4045089 34.5672867"></polygon>
                    <polygon id="Path" points="62.0099302 42.9026258 59.9437466 42.9026258 59.9437466 34.5672867 55.8064949 34.5672867 55.8064949 42.9026258 53.7403113 42.9026258 53.7403113 34.5672867 49.6079442 34.5672867 49.6079442 44.9901532 65.1116479 44.9901532 65.1116479 43.9463895 66.147182 43.9463895 66.147182 34.5672867 62.0099302 34.5672867"></polygon>
                    <path d="M77.5185185,34.5672867 L69.2488996,34.5672867 L69.2488996,35.6061269 L68.2133655,35.6061269 L68.2133655,44.9852298 L72.3506173,44.9852298 L72.3506173,40.8200219 L74.4168009,40.8200219 L74.4168009,44.9852298 L78.5540526,44.9852298 L78.5540526,35.6061269 L77.5185185,35.6061269 L77.5185185,34.5672867 Z M74.4168009,38.7374179 L72.3506173,38.7374179 L72.3506173,36.654814 L74.4168009,36.654814 L74.4168009,38.7374179 Z" id="Shape"></path>
                    <path d="M90.9560386,38.7374179 L90.9560386,35.6110503 L89.9253892,35.6110503 L89.9253892,34.5672867 L80.6202362,34.5672867 L80.6202362,44.9852298 L84.7574879,44.9852298 L84.7574879,40.8150985 L86.8236715,40.8150985 L86.8236715,44.9852298 L90.9609232,44.9852298 L90.9609232,40.8150985 L89.9253892,40.8150985 L89.9253892,38.7324945 L90.9560386,38.7324945 L90.9560386,38.7374179 Z M86.8236715,38.7374179 L84.7574879,38.7374179 L84.7574879,36.654814 L86.8236715,36.654814 L86.8236715,38.7374179 Z" id="Shape"></path>
                </g>
                <path d="M70.6015885,18.3451742 L67.8748957,18.3451742 C67.1223676,13.0338189 64.4445403,8.34994463 60.5743957,5.04949314 C60.6183746,5.15819065 60.6428073,5.28171054 60.6428073,5.41017122 C60.6428073,5.92895477 60.2274509,6.3489224 59.7143635,6.3489224 C59.2012762,6.3489224 58.7810332,5.92895477 58.7810332,5.41017122 C58.7810332,4.89138768 59.1963896,4.47142005 59.7143635,4.47142005 C59.7730021,4.47142005 59.8316406,4.48130164 59.8853927,4.48624244 C56.3035543,1.67492972 51.8030452,0 46.916499,0 C42.0299529,0 37.5343304,1.67492972 33.952492,4.48624244 C34.006244,4.47636085 34.0648826,4.47142005 34.1235211,4.47142005 C34.6366085,4.47142005 35.0519649,4.89138768 35.0519649,5.41017122 C35.0519649,5.92895477 34.6366085,6.3489224 34.1235211,6.3489224 C33.6104338,6.3489224 33.1901908,5.92895477 33.1901908,5.41017122 C33.1901908,5.28171054 33.2146235,5.15819065 33.2586024,5.04949314 C32.4865281,5.70661896 31.7633193,6.42303433 31.0938625,7.18391686 C30.7371446,7.5890621 30.3999729,8.00408893 30.0725743,8.43887895 C27.9518133,11.2452509 26.5053956,14.6049919 25.9727621,18.2611807 C25.9727621,18.2661215 25.9727621,18.2661215 25.9727621,18.2710623 C25.9678755,18.2957662 25.962989,18.3204702 25.962989,18.350115 L23.5099428,18.350115 C22.6792299,18.350115 22,19.0368856 22,19.8817616 C22,20.7216969 22.6792299,21.4084675 23.5099428,21.4084675 L26.0460602,21.4084675 L26.0460602,38.3553965 C26.0460602,38.4245677 26.0460602,38.4937388 26.0509468,38.56291 C26.0509468,38.5777323 26.0509468,38.5876139 26.0509468,38.6024363 C26.0509468,38.6716075 26.0558333,38.7358378 26.0607199,38.8050089 C26.0607199,38.8198313 26.0607199,38.8297129 26.0607199,38.8445353 C26.0656064,38.9087657 26.070493,38.972996 26.0753795,39.0372263 C26.0753795,39.0421671 26.0753795,39.0471079 26.0753795,39.0569895 C26.0802661,39.1261607 26.0900392,39.190391 26.0998123,39.2595621 C26.0998123,39.2743845 26.1046988,39.2892069 26.1046988,39.3040293 C26.1144719,39.3682596 26.124245,39.43249 26.1340181,39.4967203 C26.1340181,39.5115427 26.1389046,39.5214243 26.1389046,39.5362467 C26.1486777,39.5955362 26.1584508,39.6548258 26.1682239,39.7091745 C26.1682239,39.7190561 26.1731105,39.7338785 26.1731105,39.7437601 C26.1877701,39.8079905 26.1975432,39.86728 26.2122028,39.9315104 C26.2170894,39.9512735 26.2219759,39.9660959 26.2219759,39.9858591 C26.2366356,40.0451486 26.2512952,40.109379 26.2708414,40.1686685 C26.2757279,40.1834909 26.2806145,40.1983133 26.2806145,40.2081949 C26.2952741,40.2625437 26.3099337,40.3119516 26.3245934,40.3613596 C26.3294799,40.3811228 26.3343665,40.3959451 26.339253,40.4107675 C26.3587992,40.4700571 26.3783454,40.5244058 26.393005,40.5836954 C26.3978916,40.6034586 26.4076647,40.6232217 26.4125512,40.6429849 C26.4320974,40.6973337 26.4516436,40.7467416 26.4711898,40.8010904 C26.4809629,40.8208536 26.4858494,40.8406167 26.4956225,40.8603799 C26.5102821,40.9048471 26.5298283,40.9493143 26.5493745,40.9937814 C26.5591476,41.0135446 26.5689207,41.0382486 26.5738072,41.0580118 C26.5933534,41.1074197 26.6177862,41.1617685 26.6422189,41.2111764 C26.651992,41.2358804 26.6617651,41.2605844 26.6764247,41.2803476 C26.6959709,41.3198739 26.7106305,41.3544595 26.7301767,41.3939859 C26.7448364,41.4285714 26.759496,41.4582162 26.7790422,41.4928018 C26.7985884,41.5273873 26.813248,41.5619729 26.8327942,41.5965585 C26.8474538,41.6212625 26.8621135,41.6509072 26.8718866,41.6756112 C26.8963193,41.7200784 26.920752,41.7645455 26.9451847,41.8090127 C26.9598444,41.8386575 26.9793906,41.8633614 26.9940502,41.8930062 C27.0087098,41.9177102 27.0233695,41.9424142 27.0429157,41.9720589 C27.072235,42.0165261 27.0966677,42.0609933 27.125987,42.1054604 C27.1406466,42.1301644 27.1553062,42.1499276 27.1699659,42.1746316 C27.1895121,42.2042763 27.2090582,42.2339211 27.2286044,42.2685067 C27.2432641,42.2882699 27.2530372,42.3030923 27.2676968,42.3228554 C27.3019026,42.3772042 27.340995,42.4266121 27.3800874,42.4760201 C27.3849739,42.4809609 27.3898605,42.4908425 27.394747,42.5007241 C27.394747,42.5007241 27.394747,42.5007241 27.394747,42.5007241 C27.9566998,43.2616066 28.6701356,43.9088508 29.515508,44.388108 L36.4886095,48.3852117 L36.4886095,52.826987 C36.4886095,54.0226595 37.0896547,55.1046938 38.0376446,55.7321748 C38.0474177,55.7371156 38.0571908,55.7469972 38.0669639,55.751938 C38.0865101,55.7667604 38.1109428,55.7815828 38.130489,55.7914643 L38.1793545,55.8211091 C38.1989006,55.8309907 38.2184468,55.8458131 38.237993,55.8556947 C38.2575392,55.8655763 38.2770854,55.8803987 38.2966316,55.8902803 C38.3112912,55.9001619 38.3308374,55.9100434 38.345497,55.9149842 C38.3845894,55.9347474 38.4187952,55.9545106 38.4578876,55.969333 C38.4676607,55.9742738 38.4774338,55.9792146 38.4872069,55.9841554 C38.5165261,55.9989778 38.5458454,56.0138002 38.5751647,56.0236817 C38.5898243,56.0286225 38.604484,56.0335633 38.6142571,56.0434449 C38.6435763,56.0533265 38.6680091,56.0632081 38.6973283,56.0780305 C38.711988,56.0829713 38.7266476,56.0879121 38.7413073,56.0928529 C38.7706265,56.1027345 38.7999458,56.1126161 38.8292651,56.1224977 C38.8439247,56.1274385 38.8536978,56.1323792 38.8683575,56.13732 C38.9123364,56.1521424 38.9514288,56.162024 38.9954077,56.1768464 C39.0149539,56.186728 39.0393866,56.186728 39.0589328,56.1966096 L39.4987219,56.3102479 L41.6634619,53.0740267 L41.4777731,56.8339722 L45.8756647,57.9950592 L46.8676336,54.2054689 L47.9671065,58 L52.4187501,56.8290314 L52.2379479,53.1580203 L54.3538224,56.3201295 L54.8278173,56.1966096 C56.3377601,55.8013459 57.3981406,54.4179232 57.3981406,52.8319278 L57.3981406,48.3901525 L64.3712421,44.3930488 C66.5213224,43.1578499 67.8553495,40.8455575 67.8553495,38.345515 L67.8553495,21.3985859 L70.5820423,21.3985859 C71.3590031,21.3985859 71.99958,20.7562825 71.99958,19.9657552 L71.99958,19.7730641 C72.0186869,18.9924184 71.3834358,18.3451742 70.6015885,18.3451742 Z M61.5810242,7.52483176 C62.0941115,7.52483176 62.5143545,7.94479939 62.5143545,8.46358293 C62.5143545,8.98236647 62.0989981,9.4072749 61.5810242,9.4072749 C61.0679368,9.4072749 60.6525804,8.98730727 60.6525804,8.46358293 C60.6476939,7.94479939 61.0679368,7.52483176 61.5810242,7.52483176 Z M59.7192501,10.8203424 C60.2323374,10.8203424 60.6476939,11.2403101 60.6476939,11.7590936 C60.6476939,12.0703637 60.4962109,12.3470483 60.2665433,12.5199761 C60.2665433,12.5199761 60.2665433,12.5199761 60.2665433,12.5199761 L58.8005794,11.8875543 C58.7956928,11.8430871 58.7908063,11.8035608 58.7908063,11.7590936 C58.7908063,11.2403101 59.2061627,10.8203424 59.7192501,10.8203424 Z M57.857476,7.52483176 C58.3705633,7.52483176 58.7859198,7.94479939 58.7859198,8.46358293 C58.7859198,8.46358293 58.7859198,8.46358293 58.7859198,8.46358293 C58.7859198,8.98236647 58.3705633,9.4023341 57.857476,9.4023341 C57.3443886,9.4023341 56.9290322,8.98236647 56.9290322,8.45864213 C56.9290322,8.19183917 57.0365362,7.95468098 57.2124519,7.78175313 C57.3785945,7.62858847 57.6082621,7.52483176 57.857476,7.52483176 Z M55.9957019,4.46647926 C56.5087892,4.46647926 56.9290322,4.88644689 56.9290322,5.40523043 C56.9290322,5.92401397 56.5136758,6.3439816 55.9957019,6.3439816 C55.4826145,6.3439816 55.0672581,5.92401397 55.0672581,5.40523043 C55.0672581,4.88644689 55.4826145,4.46647926 55.9957019,4.46647926 Z M54.1388143,1.88244314 C54.6519017,1.88244314 55.0672581,2.30241077 55.0672581,2.82119431 C55.0672581,3.33997785 54.6519017,3.75994548 54.1388143,3.75994548 C53.625727,3.75994548 53.205484,3.33997785 53.205484,2.82119431 C53.205484,2.30241077 53.6208404,1.88244314 54.1388143,1.88244314 Z M55.0672581,8.46358293 C55.0672581,8.98236647 54.6519017,9.4072749 54.1388143,9.4072749 C53.625727,9.4072749 53.205484,8.98730727 53.205484,8.46358293 C53.205484,7.94479939 53.6208404,7.52483176 54.1388143,7.52483176 C54.6519017,7.52483176 55.0672581,7.94479939 55.0672581,8.46358293 Z M52.2770402,4.46647926 C52.7901276,4.46647926 53.205484,4.88644689 53.205484,5.40523043 C53.205484,5.71155976 53.0637742,5.98330352 52.838993,6.15129057 C52.6826236,6.27481046 52.4871617,6.3439816 52.2770402,6.3439816 C51.9203224,6.3439816 51.6075834,6.14140898 51.4561005,5.84002044 C51.3876888,5.71155976 51.3485964,5.55839509 51.3485964,5.40028963 C51.3437099,4.89138768 51.7590663,4.46647926 52.2770402,4.46647926 Z M50.6449338,1.88244314 C51.1580211,1.88244314 51.5782641,2.30241077 51.5782641,2.82119431 C51.5782641,3.33997785 51.1629077,3.75994548 50.6449338,3.75994548 C50.1269599,3.75994548 49.7116035,3.33997785 49.7116035,2.82119431 C49.7116035,2.30241077 50.1318464,1.88244314 50.6449338,1.88244314 Z M46.9213856,1.88244314 C47.4344729,1.88244314 47.8498294,2.30241077 47.8498294,2.82119431 C47.8498294,3.33997785 47.4344729,3.75994548 46.9213856,3.75994548 C46.4082982,3.75994548 45.9929418,3.33997785 45.9929418,2.82119431 C45.9929418,2.30241077 46.4082982,1.88244314 46.9213856,1.88244314 Z M42.9681697,1.88244314 C43.4812571,1.88244314 43.8966135,2.30241077 43.8966135,2.82119431 C43.8966135,3.33997785 43.4812571,3.75994548 42.9681697,3.75994548 C42.4550824,3.75994548 42.0397259,3.33997785 42.0397259,2.82119431 C42.0397259,2.30241077 42.4550824,1.88244314 42.9681697,1.88244314 Z M41.1063956,4.46647926 C41.619483,4.46647926 42.0397259,4.88644689 42.0397259,5.40523043 C42.0397259,5.61274385 41.9713143,5.80543488 41.8589237,5.95859954 C41.6878946,6.19081694 41.4191346,6.3439816 41.1112822,6.3439816 C40.9646858,6.3439816 40.8229759,6.30939603 40.7008123,6.24516569 C40.3929599,6.09200102 40.1828384,5.77084931 40.1828384,5.40523043 C40.1779518,4.89138768 40.5933083,4.46647926 41.1063956,4.46647926 Z M39.2495081,1.88244314 C39.7625954,1.88244314 40.1779518,2.30241077 40.1779518,2.82119431 C40.1779518,3.33997785 39.7625954,3.75994548 39.2495081,3.75994548 C38.7364207,3.75994548 38.3210643,3.33997785 38.3210643,2.82119431 C38.3210643,2.30241077 38.7315342,1.88244314 39.2495081,1.88244314 Z M40.1779518,8.46358293 C40.1779518,8.98236647 39.7625954,9.4072749 39.2495081,9.4072749 C38.7364207,9.4072749 38.3210643,8.98730727 38.3210643,8.46358293 C38.3210643,7.94479939 38.7364207,7.52483176 39.2495081,7.52483176 C39.7625954,7.52483176 40.1779518,7.94479939 40.1779518,8.46358293 Z M37.6174016,4.46647926 C38.130489,4.46647926 38.5458454,4.88644689 38.5458454,5.40523043 C38.5458454,5.92401397 38.130489,6.3439816 37.6174016,6.3439816 C37.1043143,6.3439816 36.6889579,5.92401397 36.6889579,5.40523043 C36.6889579,4.88644689 37.1043143,4.46647926 37.6174016,4.46647926 Z M37.6271747,10.8499872 C37.6125151,10.8450464 37.5929689,10.8401056 37.5783093,10.8401056 L36.601,11.2600733 C36.7671426,10.9982111 37.0554488,10.8203424 37.387734,10.8203424 C37.4512591,10.8203424 37.5147842,10.8252832 37.5783093,10.8401056 C37.5929689,10.8450464 37.6125151,10.8450464 37.6271747,10.8499872 Z M35.7556275,7.52483176 C36.0488203,7.52483176 36.3078073,7.66317404 36.4788364,7.87068745 C36.6107731,8.03373371 36.6889579,8.24124712 36.6889579,8.46358293 C36.6889579,8.98236647 36.2736014,9.4072749 35.7605141,9.4072749 C35.2816326,9.4072749 34.8907089,9.04659681 34.8369569,8.58216202 C34.8320703,8.54263566 34.8271838,8.50310929 34.8271838,8.46358293 C34.8271838,7.94479939 35.2425402,7.52483176 35.7556275,7.52483176 Z M33.6153203,12.5446801 C33.6495261,12.5644433 33.6495261,12.5644433 33.6153203,12.5446801 C33.3661064,12.3766931 33.1999639,12.0901269 33.1999639,11.7640344 C33.1999639,11.2452509 33.6153203,10.8252832 34.1332942,10.8252832 C34.6463816,10.8252832 35.061738,11.2452509 35.061738,11.7640344 C35.061738,11.8183832 35.0275322,12.0209558 35.0470783,11.9320215 L33.6153203,12.5446801 Z M32.0369659,7.52483176 C32.5500532,7.52483176 32.9654097,7.94479939 32.9654097,8.46358293 C32.9654097,8.98236647 32.5500532,9.4072749 32.0369659,9.4072749 C31.5238785,9.4072749 31.1085221,8.98730727 31.1085221,8.46358293 C31.1036356,7.94479939 31.5238785,7.52483176 32.0369659,7.52483176 Z M43.1685181,38.3949229 L43.1685181,38.3949229 C43.1196527,40.4157083 41.8149448,42.5056649 36.2003032,41.631144 C24.9954528,39.8870432 30.0823474,28.9827072 32.0174197,27.8710282 C32.0907179,27.8315018 32.154243,27.8018571 32.2177681,27.7919755 C32.2470874,27.7870347 32.2715201,27.7820939 32.3008394,27.7722123 C32.3106125,27.7722123 32.3203856,27.7672715 32.3301587,27.7672715 C32.3497048,27.7623307 32.369251,27.7623307 32.3887972,27.7573899 C32.3985703,27.7573899 32.4132299,27.7524491 32.423003,27.7524491 C32.4425492,27.7524491 32.4572089,27.7475083 32.476755,27.7475083 C32.4914147,27.7475083 32.5011878,27.7475083 32.5158474,27.7425675 C32.5305071,27.7425675 32.5500532,27.7376267 32.5647129,27.7376267 C32.5793725,27.7376267 32.5891456,27.7376267 32.6038052,27.7376267 C32.6184649,27.7376267 32.6380111,27.7376267 32.6526707,27.7326859 C32.6673303,27.7326859 32.68199,27.7326859 32.6917631,27.7326859 C32.7064227,27.7326859 32.7259689,27.7326859 32.7406285,27.7326859 C32.7552882,27.7326859 32.7699478,27.7326859 32.7846075,27.7326859 C32.7992671,27.7326859 32.8188133,27.7326859 32.8334729,27.7326859 C32.8481326,27.7326859 32.8627922,27.7326859 32.8774518,27.7326859 C32.8921115,27.7326859 32.9116577,27.7326859 32.9263173,27.7326859 C32.9409769,27.7326859 32.9556366,27.7326859 32.9702962,27.7376267 C32.9849558,27.7376267 33.004502,27.7376267 33.0191617,27.7425675 C33.0338213,27.7425675 33.0484809,27.7475083 33.0631406,27.7475083 C33.0778002,27.7475083 33.0973464,27.7524491 33.112006,27.7524491 C33.1266657,27.7524491 33.1413253,27.7573899 33.155985,27.7573899 C33.1706446,27.7573899 33.1901908,27.7623307 33.2048504,27.7623307 C33.2195101,27.7623307 33.2341697,27.7672715 33.2488293,27.7672715 C33.263489,27.7672715 33.2830352,27.7722123 33.2976948,27.7771531 C33.3123544,27.7820939 33.3270141,27.7820939 33.3416737,27.7870347 C33.3563334,27.7919755 33.3758795,27.7919755 33.3905392,27.7969163 C33.4051988,27.8018571 33.4198585,27.8018571 33.4345181,27.8067979 C33.4540643,27.8117386 33.4687239,27.8117386 33.4833836,27.8166794 C33.4980432,27.8216202 33.5127028,27.8216202 33.5273625,27.826561 C33.5469087,27.8315018 33.5615683,27.8364426 33.5762279,27.8364426 C33.5908876,27.8413834 33.6055472,27.8463242 33.6250934,27.8463242 C33.639753,27.851265 33.6592992,27.8562058 33.6739589,27.8611466 C33.6886185,27.8660874 33.7032781,27.8710282 33.7228243,27.875969 C33.737484,27.8809098 33.7570301,27.8858506 33.7765763,27.8907914 C33.791236,27.8957322 33.8058956,27.900673 33.8254418,27.9056138 C33.844988,27.9105546 33.8596476,27.9154954 33.8743073,27.9204362 C33.8889669,27.9253769 33.9085131,27.9303177 33.9231727,27.9352585 C33.9378324,27.9401993 33.9573785,27.9451401 33.9769247,27.9500809 C33.9915844,27.9550217 34.006244,27.9599625 34.0257902,27.9649033 C34.0453364,27.9698441 34.059996,27.9747849 34.0795422,27.9846665 C34.0942018,27.9896073 34.113748,27.9945481 34.1284077,27.9994889 C34.1479538,28.0044297 34.1626135,28.0143113 34.1821597,28.0192521 C34.1968193,28.0241929 34.2163655,28.0291337 34.2310251,28.0390152 C34.2505713,28.043956 34.2652309,28.0538376 34.2847771,28.0587784 C34.2994368,28.0637192 34.318983,28.06866 34.3336426,28.0785416 C34.3531888,28.0834824 34.3678484,28.093364 34.3873946,28.1032456 C34.4020542,28.1081864 34.4167139,28.118068 34.4362601,28.1230088 C34.4558063,28.1328904 34.4753524,28.1378312 34.4900121,28.1477128 C34.5046717,28.1526535 34.5193314,28.1625351 34.5388775,28.1674759 C34.5584237,28.1773575 34.5779699,28.1822983 34.5975161,28.1921799 L34.641495,28.2119431 C34.6610412,28.2218247 34.6805874,28.2317063 34.7001336,28.2415879 C34.7147932,28.2465287 34.7294528,28.2564103 34.7441125,28.2613511 C34.7636587,28.2712326 34.7832048,28.2811142 34.802751,28.2909958 C34.8174107,28.2959366 34.8320703,28.3058182 34.8467299,28.310759 C34.8662761,28.3206406 34.8858223,28.3305222 34.910255,28.3404038 C34.9249147,28.3453446 34.9395743,28.3552262 34.9493474,28.360167 C34.9737801,28.3749894 34.9982129,28.3848709 35.0226456,28.3996933 C35.0324187,28.4046341 35.0421918,28.4095749 35.0519649,28.4145157 C35.0861707,28.4342789 35.1203765,28.4540421 35.1545824,28.4688645 C35.1643554,28.4738053 35.1741285,28.4787461 35.1839016,28.4836869 C35.2083344,28.4985092 35.2327671,28.5083908 35.2571998,28.5232132 C35.2718595,28.5330948 35.2865191,28.5380356 35.3011787,28.5479172 C35.3207249,28.5577988 35.3402711,28.5726212 35.3647038,28.5825028 C35.3793635,28.5923844 35.3940231,28.602266 35.4086828,28.6072067 C35.4282289,28.6170883 35.4477751,28.6319107 35.4673213,28.6417923 C35.481981,28.6516739 35.4966406,28.6615555 35.5161868,28.6714371 C35.535733,28.6813187 35.5552791,28.6961411 35.5748253,28.7060227 C35.589485,28.7159043 35.6090312,28.7257858 35.6236908,28.7356674 C35.643237,28.745549 35.6627832,28.7603714 35.6823293,28.770253 C35.696989,28.7801346 35.7165352,28.7900162 35.7311948,28.7998978 C35.750741,28.8097794 35.7702872,28.8246018 35.7849468,28.8344833 C35.7996065,28.8443649 35.8191526,28.8542465 35.8338123,28.8690689 C35.8533585,28.8789505 35.8729046,28.8937729 35.8875643,28.9036545 C35.9022239,28.9135361 35.9217701,28.9234177 35.9364297,28.9382401 C35.9559759,28.9481216 35.9755221,28.962944 35.9901818,28.9728256 C36.0048414,28.9827072 36.0243876,28.9975296 36.0390472,29.0074112 C36.0585934,29.0172928 36.0781396,29.0321152 36.0927992,29.0419968 C36.1074589,29.0518784 36.127005,29.0667007 36.1416647,29.0765823 C36.1612109,29.0914047 36.1758705,29.1012863 36.1954167,29.1161087 C36.2100763,29.1259903 36.2296225,29.1408127 36.2442822,29.1506943 C36.2638283,29.1655167 36.2833745,29.1753982 36.2980342,29.1902206 C36.3126938,29.2001022 36.33224,29.2149246 36.3468996,29.2248062 C36.3664458,29.2396286 36.385992,29.2495102 36.4006516,29.2643326 C36.4153113,29.2742142 36.4348575,29.2890365 36.4495171,29.2989181 C36.4690633,29.3137405 36.4886095,29.3236221 36.5032691,29.3384445 C36.5179287,29.3483261 36.5374749,29.3631485 36.5521346,29.3730301 C36.5716808,29.3878525 36.5912269,29.397734 36.6058866,29.4125564 C36.6254328,29.422438 36.6400924,29.4372604 36.654752,29.4520828 C36.6742982,29.4669052 36.6889579,29.4817276 36.708504,29.4916092 C36.7280502,29.5064316 36.7427099,29.5163131 36.7573695,29.5311355 C36.7769157,29.5459579 36.7915753,29.5607803 36.8111215,29.5706619 C36.8257812,29.5854843 36.8453273,29.5953659 36.859987,29.6101883 C36.8795332,29.6250106 36.8990793,29.639833 36.913739,29.6546554 C36.9283986,29.6694778 36.9479448,29.6793594 36.9626044,29.6941818 C36.9821506,29.7090042 37.0016968,29.7238266 37.0163565,29.7386489 C37.0310161,29.7534713 37.0505623,29.7633529 37.0652219,29.7781753 C37.0847681,29.7929977 37.1043143,29.8078201 37.1189739,29.8226425 C37.1336336,29.8374649 37.1531798,29.8473465 37.1678394,29.8621688 C37.1873856,29.8769912 37.2069318,29.8918136 37.2215914,29.906636 C37.236251,29.9214584 37.2557972,29.93134 37.2704569,29.9461624 C37.290003,29.9609848 37.3095492,29.9758071 37.3242089,29.9906295 C37.3388685,30.0054519 37.3535281,30.0153335 37.3730743,30.0301559 C37.3926205,30.0449783 37.4121667,30.0598007 37.4317129,30.0746231 C37.4463725,30.0894454 37.4610322,30.099327 37.4805783,30.1141494 C37.5001245,30.1289718 37.5196707,30.1437942 37.5343304,30.1586166 C37.54899,30.173439 37.5636496,30.1833206 37.5831958,30.1981429 C37.602742,30.2129653 37.6222882,30.2277877 37.6369478,30.2426101 C37.6516075,30.2574325 37.6662671,30.2673141 37.6858133,30.2821365 C37.7053595,30.2969589 37.7249057,30.3117812 37.7444518,30.3315444 C37.7591115,30.3463668 37.7737711,30.3562484 37.7884308,30.3710708 C37.8079769,30.3858932 37.8275231,30.4056564 37.8470693,30.4204787 C37.8617289,30.4303603 37.8763886,30.4451827 37.8910482,30.4550643 C37.9105944,30.4748275 37.9350271,30.4896499 37.9545733,30.5094131 C37.969233,30.5192947 37.9790061,30.5291763 37.9936657,30.5439986 C38.0180984,30.5637618 38.0376446,30.583525 38.0620773,30.6032882 C38.0718504,30.6131698 38.0816235,30.6230514 38.0913966,30.632933 C38.1598083,30.6922225 38.2233334,30.7515121 38.291745,30.8108016 C38.3015181,30.8206832 38.3112912,30.825624 38.3161777,30.8355056 C38.3406105,30.8552688 38.3650432,30.8799727 38.3894759,30.8997359 C38.399249,30.9096175 38.4139087,30.9194991 38.4236818,30.9343215 C38.4432279,30.9540847 38.4676607,30.9738479 38.4872069,30.993611 C38.5018665,31.0034926 38.5116396,31.018315 38.5262992,31.0281966 C38.5458454,31.0479598 38.5653916,31.0627822 38.5849378,31.0825454 C38.5995974,31.0973677 38.6142571,31.1072493 38.6289167,31.1220717 C38.6484629,31.1368941 38.6680091,31.1566573 38.6826687,31.1714797 C38.6973283,31.1863021 38.711988,31.2011245 38.7266476,31.211006 C38.7461938,31.2258284 38.7608534,31.2455916 38.7803996,31.260414 C38.7950593,31.2752364 38.8097189,31.2900588 38.8243785,31.2999404 C38.8439247,31.3147628 38.8585844,31.3345259 38.8781306,31.3493483 C38.8927902,31.3641707 38.9074498,31.3740523 38.9221095,31.3888747 C38.9416557,31.4036971 38.9563153,31.4234603 38.9758615,31.4382826 C38.9905211,31.453105 39.0051808,31.4679274 39.0198404,31.477809 C39.0393866,31.4926314 39.0540462,31.5123946 39.0735924,31.527217 C39.088252,31.5420394 39.1029117,31.5568617 39.1175713,31.5667433 C39.132231,31.5815657 39.1517771,31.6013289 39.1664368,31.6161513 C39.1810964,31.6309737 39.1957561,31.6408553 39.2104157,31.6556777 C39.2250753,31.6705 39.2446215,31.6902632 39.2592812,31.7050856 C39.2739408,31.719908 39.2886004,31.7347304 39.3032601,31.744612 C39.3179197,31.7594344 39.3374659,31.7791975 39.3521255,31.7940199 C39.3667852,31.8088423 39.3814448,31.8236647 39.3912179,31.8335463 C39.4058775,31.8483687 39.4254237,31.8681319 39.4400834,31.8829543 C39.454743,31.8977766 39.4694026,31.912599 39.4840623,31.9274214 C39.4987219,31.9422438 39.5182681,31.9570662 39.5329277,31.9768294 C39.5475874,31.9916518 39.562247,32.0015334 39.5720201,32.0163557 C39.5866798,32.0311781 39.6062259,32.0509413 39.6208856,32.0657637 C39.6355452,32.0805861 39.6453183,32.0904677 39.6599779,32.1052901 C39.6746376,32.1201124 39.6941838,32.1398756 39.7088434,32.154698 C39.723503,32.1695204 39.7332761,32.179402 39.7479358,32.1942244 C39.7625954,32.2090468 39.7821416,32.2288099 39.7968012,32.2436323 C39.8114609,32.2584547 39.821234,32.2683363 39.8358936,32.2831587 C39.8505533,32.2979811 39.8700994,32.3177443 39.8847591,32.3325667 C39.8945322,32.3424482 39.9091918,32.3572706 39.9238514,32.372093 C39.9385111,32.3869154 39.9580573,32.4066786 39.9727169,32.421501 C39.98249,32.4313826 39.9971496,32.446205 40.0069227,32.4560865 C40.0215824,32.4758497 40.0411286,32.4906721 40.0557882,32.5054945 C40.0655613,32.5153761 40.0802209,32.5301985 40.089994,32.5400801 C40.1046537,32.5549025 40.1241998,32.5746656 40.1388595,32.589488 C40.1486326,32.5993696 40.1632922,32.614192 40.1730653,32.6240736 C40.1877249,32.638896 40.2023846,32.6586592 40.2219308,32.6734816 C40.2317039,32.6833631 40.2463635,32.6981855 40.2561366,32.7080671 C40.2707962,32.7228895 40.2903424,32.7426527 40.305002,32.7574751 C40.3147751,32.7673567 40.3245482,32.7821791 40.3392079,32.7920607 C40.3538675,32.806883 40.3734137,32.8266462 40.3880733,32.8414686 C40.3978464,32.8513502 40.4125061,32.8661726 40.4222792,32.8760542 C40.4369388,32.8958174 40.456485,32.9106397 40.4711446,32.9304029 C40.4809177,32.9402845 40.4906908,32.9501661 40.5004639,32.9600477 C40.5200101,32.9798109 40.5346697,32.9946333 40.5493294,33.0143965 C40.5591024,33.024278 40.5688755,33.0341596 40.5786486,33.0440412 C40.5981948,33.0638044 40.617741,33.0835676 40.6372872,33.1033308 C40.6421737,33.1082716 40.6519468,33.1181532 40.6568334,33.123094 C40.6812661,33.1477979 40.7008123,33.1725019 40.725245,33.1972059 C40.7301316,33.1972059 40.7301316,33.2021467 40.7350181,33.2070875 C40.7838836,33.2614362 40.832749,33.315785 40.8816145,33.3701337 C40.8816145,33.3701337 40.886501,33.3701337 40.886501,33.3750745 C40.9109338,33.3997785 40.93048,33.4244825 40.9549127,33.4491865 C40.9597992,33.4541273 40.9646858,33.4590681 40.9695723,33.4640089 C40.9891185,33.483772 41.0086647,33.5035352 41.0233243,33.5232984 C41.0282109,33.5282392 41.037984,33.5381208 41.0428705,33.5480024 C41.0575302,33.5677656 41.0770763,33.582588 41.091736,33.6023511 C41.0966225,33.6072919 41.1063956,33.6171735 41.1112822,33.6221143 C41.1259418,33.6418775 41.145488,33.6566999 41.1601476,33.6764631 C41.1650342,33.6863447 41.1748073,33.6912855 41.1796938,33.7011671 C41.1943535,33.7209302 41.2090131,33.7357526 41.2236727,33.750575 C41.2334458,33.7604566 41.2383324,33.7653974 41.2481055,33.775279 C41.2627651,33.7901014 41.2774247,33.8049238 41.2920844,33.8197461 C41.3018575,33.8296277 41.306744,33.8345685 41.3165171,33.8444501 C41.3311767,33.8592725 41.3458364,33.8740949 41.360496,33.8938581 C41.3653826,33.9037397 41.3751557,33.9086805 41.3800422,33.9185621 C41.3947018,33.9333844 41.4093615,33.9482068 41.4191346,33.9630292 C41.4289077,33.9729108 41.4337942,33.9778516 41.4386808,33.9877332 C41.4533404,34.0025556 41.4631135,34.017378 41.4777731,34.0322004 C41.4826597,34.0420819 41.4924328,34.0470227 41.4973193,34.0569043 C41.511979,34.0717267 41.521752,34.0865491 41.5364117,34.1013715 C41.5412982,34.1112531 41.5510713,34.1161939 41.5559579,34.1260755 C41.5706175,34.1408979 41.5803906,34.1557202 41.5950502,34.1705426 C41.5999368,34.1754834 41.6048233,34.185365 41.6145964,34.1903058 C41.6292561,34.2051282 41.6390292,34.2199506 41.6536888,34.234773 C41.6585753,34.2397138 41.6634619,34.2495954 41.673235,34.2545362 C41.6830081,34.2693585 41.6976677,34.2792401 41.7074408,34.2940625 C41.7123274,34.3039441 41.7221004,34.3088849 41.726987,34.3187665 C41.7367601,34.3335889 41.7465332,34.3434705 41.7611928,34.3582929 C41.7660794,34.3681745 41.7709659,34.3731153 41.780739,34.3780561 C41.7905121,34.3928784 41.8002852,34.40276 41.8149448,34.4175824 C41.8198314,34.4225232 41.8247179,34.4324048 41.834491,34.4373456 C41.8442641,34.452168 41.8589237,34.4620496 41.8686968,34.476872 C41.8735834,34.4818128 41.8784699,34.4867536 41.8833565,34.4916944 C41.8931296,34.5065167 41.9077892,34.5163983 41.9175623,34.5312207 C41.9224488,34.5361615 41.9273354,34.5411023 41.9322219,34.5460431 C41.941995,34.5559247 41.9517681,34.5707471 41.9615412,34.5855695 C41.9664278,34.5905103 41.9713143,34.5954511 41.9762008,34.6003919 C41.9859739,34.6102734 41.995747,34.6250958 42.0055201,34.6349774 C42.0104067,34.6399182 42.0152932,34.644859 42.0152932,34.6497998 C42.0250663,34.6596814 42.0348394,34.6745038 42.0446125,34.6843854 C42.049499,34.6893262 42.049499,34.694267 42.0543856,34.6992078 C42.0641587,34.7140302 42.0739318,34.7239117 42.0885914,34.7387341 C42.0885914,34.7387341 42.093478,34.7436749 42.093478,34.7436749 C42.103251,34.7584973 42.1179107,34.7683789 42.1276838,34.7832013 C42.1276838,34.7832013 42.1325703,34.7881421 42.1325703,34.7881421 C42.2889398,34.9758923 42.3964438,35.104353 42.4355362,35.1587018 C42.4501958,35.1784649 42.4599689,35.1932873 42.469742,35.2179913 C42.469742,35.2179913 42.469742,35.2229321 42.4746286,35.2229321 C42.4746286,35.2229321 42.4746286,35.2278729 42.4795151,35.2328137 C42.4844016,35.2377545 42.4844016,35.2476361 42.4892882,35.2525769 C42.4892882,35.2575177 42.4941747,35.2624585 42.4941747,35.2624585 C42.4990613,35.2673993 42.4990613,35.2772809 42.5039478,35.2871624 C42.5039478,35.2921032 42.5088344,35.297044 42.5088344,35.3019848 C42.5137209,35.3118664 42.5186075,35.321748 42.5186075,35.3316296 C42.523494,35.3365704 42.523494,35.3415112 42.5283806,35.3513928 C42.5332671,35.3612744 42.5381537,35.371156 42.5430402,35.3859784 C42.5479268,35.3909192 42.5479268,35.4008007 42.5528133,35.4057415 C42.5576998,35.4205639 42.5625864,35.4304455 42.5674729,35.4452679 C42.5723595,35.4502087 42.5723595,35.4600903 42.577246,35.4650311 C42.5821326,35.4798535 42.5919057,35.4946759 42.5967922,35.514439 C42.6016788,35.5193798 42.6016788,35.5243206 42.6016788,35.5292614 C42.6114519,35.5539654 42.6212249,35.5786694 42.630998,35.6033734 C42.6407711,35.6280773 42.6505442,35.6527813 42.6603173,35.6824261 C42.6652039,35.6923077 42.6652039,35.6972485 42.6700904,35.7071301 C42.674977,35.7268933 42.68475,35.7466564 42.6896366,35.7664196 C42.6945231,35.7763012 42.6994097,35.7911236 42.6994097,35.8010052 C42.7042962,35.8207684 42.7140693,35.8355908 42.7189559,35.8553539 C42.7238424,35.8652355 42.728729,35.8800579 42.7336155,35.8948803 C42.7385021,35.9146435 42.7482751,35.9344067 42.7531617,35.9541699 C42.7580482,35.9689922 42.7629348,35.9788738 42.7678213,35.9936962 C42.7727079,36.0134594 42.782481,36.0332226 42.7873675,36.0529858 C42.7922541,36.0678082 42.7971406,36.0826305 42.8020272,36.0974529 C42.8069137,36.1172161 42.8166868,36.1369793 42.8215733,36.1567425 C42.8264599,36.1715649 42.8313464,36.1863873 42.836233,36.2012096 C42.8411195,36.2209728 42.8508926,36.240736 42.8557792,36.26544 C42.8606657,36.2802624 42.8655523,36.2950848 42.8704388,36.3148479 C42.8753253,36.3346111 42.8850984,36.3593151 42.889985,36.3840191 C42.8948715,36.3988415 42.8997581,36.4136639 42.9046446,36.433427 C42.9095312,36.458131 42.9193043,36.482835 42.9241908,36.507539 C42.9290774,36.5223614 42.9339639,36.5371837 42.9339639,36.5520061 C42.9388504,36.5816509 42.9486235,36.6063549 42.9535101,36.6359997 C42.9583966,36.650822 42.9583966,36.6607036 42.9632832,36.675526 C42.9730563,36.7150524 42.9828294,36.7595196 42.9926025,36.7990459 C42.9926025,36.7990459 42.9926025,36.8039867 42.9926025,36.8039867 C43.0023755,36.8435131 43.0121486,36.8830394 43.0170352,36.9275066 C43.0219217,36.942329 43.0219217,36.9571514 43.0268083,36.9719738 C43.0316948,37.0016185 43.0365814,37.0312633 43.0463545,37.0609081 C43.051241,37.0757305 43.051241,37.0954937 43.0561276,37.110316 C43.0610141,37.1399608 43.0659006,37.1646648 43.0707872,37.1943096 C43.0756737,37.2140727 43.0756737,37.2338359 43.0805603,37.2486583 C43.0854468,37.2733623 43.0903334,37.3030071 43.0952199,37.327711 C43.1001065,37.3474742 43.1001065,37.3672374 43.104993,37.3870006 C43.1098796,37.4117046 43.1147661,37.4413493 43.1147661,37.4660533 C43.1147661,37.4858165 43.1196527,37.5055797 43.1245392,37.5253429 C43.1294257,37.5500469 43.1294257,37.5796916 43.1343123,37.6043956 C43.1343123,37.6241588 43.1391988,37.643922 43.1391988,37.6636852 C43.1391988,37.6933299 43.1440854,37.7180339 43.1440854,37.7427379 C43.1440854,37.7625011 43.1489719,37.7822642 43.1489719,37.8020274 C43.1489719,37.8316722 43.1538585,37.8563762 43.1538585,37.886021 C43.1538585,37.9057841 43.158745,37.9255473 43.158745,37.9453105 C43.158745,37.9749553 43.1636316,38.0046001 43.1636316,38.0342448 C43.1636316,38.054008 43.1636316,38.0737712 43.1636316,38.0935344 C43.1636316,38.1231791 43.1636316,38.1577647 43.1636316,38.1874095 C43.1636316,38.2022319 43.1636316,38.2219951 43.1636316,38.2368174 C43.1734047,38.296107 43.1734047,38.345515 43.1685181,38.3949229 Z M43.6229669,9.14047193 C43.6034207,9.16023511 43.5838745,9.1799983 43.5594418,9.19482068 C43.578988,9.1750575 43.5985342,9.16023511 43.6229669,9.14047193 C43.5350091,9.15529432 43.4470513,9.17011671 43.3590934,9.18493909 L42.5870191,9.32328137 C42.5870191,9.32328137 42.5870191,9.32328137 42.5870191,9.32328137 C42.2645071,9.1750575 42.0446125,8.84896499 42.0446125,8.46852372 C42.0446125,7.94974018 42.4599689,7.52977255 42.9730563,7.52977255 C43.4861436,7.52977255 43.9015,7.94974018 43.9015,8.46852372 C43.9015,8.73038589 43.793996,8.96754408 43.6229669,9.14047193 Z M43.9161597,5.58309907 C43.9063866,5.52875032 43.9015,5.46946077 43.9015,5.41017122 C43.9015,4.89138768 44.3168565,4.47142005 44.8299438,4.47142005 C45.3381446,4.47142005 45.7486145,4.88150609 45.7632741,5.39040804 L45.7632741,5.41511202 C45.7632741,5.93389556 45.3479177,6.35386319 44.8299438,6.35386319 C44.375495,6.3489224 43.999231,6.02282988 43.9161597,5.58309907 Z M44.9863133,45.3663856 C44.0236637,44.9414771 46.1151055,40.6528665 46.1151055,40.6528665 C46.1151055,40.6528665 47.1657129,46.3298407 44.9863133,45.3663856 Z M46.0906727,8.87860976 C46.0906727,8.87860976 46.0906727,8.87860976 46.0906727,8.87860976 C46.0320342,8.75508987 45.9929418,8.6118068 45.9929418,8.46358293 C45.9929418,7.94479939 46.4082982,7.52483176 46.9213856,7.52483176 C47.4344729,7.52483176 47.8498294,7.94479939 47.8498294,8.46358293 C47.8498294,8.6118068 47.8156235,8.75014908 47.756985,8.87366897 C47.2048053,8.85390578 46.647739,8.85884658 46.0906727,8.87860976 Z M49.1740834,45.3663856 C46.9946838,46.3298407 48.0452912,40.6528665 48.0452912,40.6528665 C48.0452912,40.6528665 50.136733,44.9464179 49.1740834,45.3663856 Z M49.4770493,5.51392793 C49.4281838,5.98330352 49.0323736,6.3489224 48.553492,6.3489224 C48.0404047,6.3489224 47.6250482,5.92895477 47.6250482,5.41017122 C47.6250482,5.39534884 47.6250482,5.38052645 47.6299348,5.36076327 C47.6543675,4.86174291 48.0599509,4.46647926 48.5583786,4.46647926 C49.0714659,4.46647926 49.4917089,4.88644689 49.4917089,5.40523043 C49.4819358,5.44475679 49.4819358,5.47934236 49.4770493,5.51392793 Z M49.9412711,9.08118238 L49.9412711,9.08118238 C49.7995613,8.91813613 49.7116035,8.70074112 49.7116035,8.46358293 C49.7116035,7.94479939 50.1269599,7.52483176 50.6449338,7.52483176 C51.1629077,7.52483176 51.5782641,7.94479939 51.5782641,8.46358293 C51.5782641,8.81437942 51.3876888,9.11576795 51.1140422,9.27881421 L51.1140422,9.27881421 L50.5765221,9.1799983 C50.3615141,9.14541273 50.1513926,9.11082716 49.9412711,9.08118238 Z M64.6595483,36.0184002 C64.6204559,36.2604992 64.5667039,36.5025982 64.5031788,36.7397564 C64.4787461,36.8188091 64.4591999,36.8978618 64.4298806,36.9769146 C64.3907882,37.0954937 64.3516959,37.2140727 64.3028304,37.327711 C64.2588515,37.4413493 64.209986,37.5599284 64.156234,37.6735667 C63.7848565,38.4690348 63.2180172,39.2052134 62.4019639,39.8326944 C61.3220372,40.6627481 59.8023214,41.3050515 57.7255392,41.6262033 C47.6445944,43.2023171 51.460987,35.2130505 51.460987,35.2130505 C51.460987,35.2130505 57.8134971,27.2435472 61.5174991,27.7475083 C61.5419318,27.7524491 61.5663645,27.7524491 61.5907973,27.7573899 C61.6298896,27.7623307 61.668982,27.7722123 61.7080744,27.7820939 C61.7520533,27.7919755 61.8009188,27.8067979 61.8497842,27.8315018 C62.83198,28.3156998 64.737733,31.5469802 64.7475061,34.7881421 C64.7523904,35.2031689 64.7230734,35.613255 64.6595483,36.0184002 Z" id="Shape"></path>
            </g>
        </g>
    </g>
</svg>