<?xml version="1.0" encoding="UTF-8"?>
<svg width="63px" height="65px" viewBox="0 0 63 65" version="1.1" xmlns="http://www.w3.org/2000/svg" xmlns:xlink="http://www.w3.org/1999/xlink">
    <!-- Generator: Sketch 55.2 (78181) - https://sketchapp.com -->
    <title>MONO-pathwar-logotype</title>
    <desc>Created with Sketch.</desc>
    <g id="Page-1" stroke="none" stroke-width="1" fill="none" fill-rule="evenodd">
        <g id="PATHWAR-Landing-Page-Dark-mode" transform="translate(-143.000000, -1223.000000)" fill="#955499" fill-rule="nonzero">
            <g id="MONO-pathwar-logotype" transform="translate(143.000000, 1223.000000)">
                <g id="Group" transform="translate(0.000000, 34.000000)">
                    <path d="M19.1975845,19.9634573 C19.8231884,20.3365427 20.573913,20.4111597 21.2536232,20.1907002 C21.3990338,20.1432166 21.5444444,20.0821663 21.6797101,20.0075492 L22.6434783,19.4852298 C23.1845411,19.1901532 23.5227053,18.6203501 23.5227053,18.0030635 L23.5227053,14.2722101 L28.8454106,12.7832604 L25.2710145,11.786105 L22.7618357,11.0840263 L22.2410628,11.4910284 L20.8613527,12.5695842 C20.7971014,12.6272429 20.7396135,12.6713348 20.6922705,12.7086433 C20.631401,12.7595186 20.5772947,12.7934354 20.5468599,12.8171772 L20.5299517,12.830744 L20.5096618,12.840919 C20.4521739,12.8782276 20.3710145,12.9324945 20.2797101,12.9833698 C20.1342995,13.0647702 19.9888889,13.1359956 19.8400966,13.1902626 C19.7386473,13.2275711 19.6439614,13.261488 19.5560386,13.2852298 C19.2584541,13.3700219 18.9507246,13.4107221 18.6429952,13.4107221 C18.2743961,13.4107221 17.9091787,13.3496718 17.5541063,13.2275711 L16.5125604,12.8680525 C16.4077295,12.8341357 16.3062802,12.7900438 16.2048309,12.7459519 L16.2048309,12.7459519 C15.826087,12.583151 15.4743961,12.3626915 15.163285,12.0947484 L14.936715,13.1699125 C14.8657005,13.5022976 15.0009662,13.8414661 15.2816425,14.0381838 L17.168599,15.3473742 L16.8101449,17.9454048 C16.7628019,18.2811816 16.9217391,18.6135667 17.215942,18.7865427 L19.1975845,19.9634573 Z" id="Path"></path>
                    <path d="M47.2922705,1.53982495 L45.3072464,0.362910284 C44.5463768,-0.0881838074 43.6028986,-0.105142232 42.8251208,0.315426696 L42.2772947,0.613894967 L41.8613527,0.841137856 C41.3202899,1.13621444 40.9821256,1.70262582 40.9821256,2.31991247 L40.9821256,5.89135667 L35.0879227,7.53971554 L38.6623188,8.54026258 L41.3338164,9.28643326 L41.8748792,9.13380744 L42.2570048,8.83533917 L43.6434783,7.75 C44.2555556,7.2107221 45.0400966,6.91564551 45.8550725,6.91564551 C46.2236715,6.91564551 46.5888889,6.97669584 46.9439614,7.0987965 L47.978744,7.45492341 C48.4792271,7.62450766 48.9357488,7.88905908 49.3347826,8.22483589 L49.5647343,7.15306346 C49.6357488,6.82067834 49.5004831,6.47811816 49.2198068,6.28479212 L47.3362319,4.97560175 L47.694686,2.37757112 C47.742029,2.045186 47.5830918,1.71280088 47.2922705,1.53982495 Z" id="Path"></path>
                    <path d="M15.4169082,9.41531729 C15.4743961,9.68326039 15.5724638,9.93424508 15.7043478,10.1648796 C16.005314,10.6804158 16.4821256,11.0806346 17.0603865,11.280744 L18.0985507,11.6368709 C18.2777778,11.6979212 18.4603865,11.7284464 18.6429952,11.7284464 C18.7309179,11.7284464 18.8222222,11.721663 18.9067633,11.7080963 C18.9710145,11.6979212 19.0352657,11.6843545 19.0995169,11.6673961 C19.1502415,11.6538293 19.1975845,11.6368709 19.2449275,11.6199125 C19.3193237,11.592779 19.3869565,11.5588621 19.457971,11.5181619 C19.505314,11.4944201 19.5458937,11.463895 19.5898551,11.4367615 C19.6101449,11.4231947 19.6338164,11.4062363 19.6541063,11.3892779 C19.694686,11.3553611 19.7386473,11.3248359 19.7792271,11.2875274 L21.2062802,10.1682713 L22.3966184,9.23555799 L25.7207729,10.1682713 L31.963285,11.9149891 L40.978744,14.4384026 L40.978744,18.0064551 C40.978744,18.6237418 41.3169082,19.1935449 41.857971,19.4886214 L42.2299517,19.6921225 L42.8217391,20.0143326 C43.1971014,20.2178337 43.6096618,20.3195842 44.0222222,20.3195842 C44.4652174,20.3195842 44.9115942,20.2008753 45.3038647,19.966849 L47.2888889,18.793326 C47.5797101,18.6203501 47.742029,18.287965 47.694686,17.9521882 L47.3362319,15.3541575 L49.2198068,14.0449672 C49.5004831,13.8516411 49.6357488,13.509081 49.5647343,13.1766958 L49.0845411,10.914442 C49.0270531,10.6464989 48.9289855,10.3955142 48.7971014,10.1682713 C48.4961353,9.65273523 48.0193237,9.25251641 47.4376812,9.052407 L46.3995169,8.69628009 C46.2202899,8.63522976 46.0376812,8.6047046 45.8516908,8.6047046 C45.4357488,8.6047046 45.0299517,8.75733042 44.7154589,9.04901532 L43.2850242,10.1682713 L41.9458937,11.216302 L38.1990338,10.1682713 L31.9565217,8.42155361 L23.5125604,6.05754923 L23.5125604,2.32669584 C23.5125604,1.70940919 23.1743961,1.13960613 22.6333333,0.84452954 L21.6695652,0.322210066 C21.2942029,0.118708972 20.8816425,0.0169584245 20.4690821,0.0169584245 C20.026087,0.0169584245 19.5830918,0.132275711 19.1874396,0.366301969 L17.784058,1.19726477 L17.2024155,1.54321663 C16.9115942,1.71280088 16.7492754,2.04857768 16.7966184,2.38435449 L17.1550725,4.98238512 L15.2681159,6.29157549 C14.9908213,6.48490153 14.8521739,6.82746171 14.9231884,7.15984683 L15.4169082,9.41531729 Z" id="Path"></path>
                    <path d="M6.4589372,23.8130197 L0.0169082126,23.8130197 L0.0169082126,30.9898249 L2.88115942,30.9898249 L2.88115942,28.1170678 L6.4589372,28.1170678 L6.4589372,27.3980306 L7.17584541,27.3980306 L7.17584541,24.5252735 L6.4589372,24.5252735 L6.4589372,23.8130197 Z M4.3115942,26.6857768 L2.88115942,26.6857768 L2.88115942,25.2510941 L4.3115942,25.2510941 L4.3115942,26.6857768 Z" id="Shape"></path>
                    <path d="M15.0178744,23.8130197 L9.29275362,23.8130197 L9.29275362,24.5286652 L8.57922705,24.5286652 L8.57922705,30.9898249 L11.4400966,30.9898249 L11.4400966,28.1204595 L12.8705314,28.1204595 L12.8705314,30.9898249 L15.731401,30.9898249 L15.731401,24.5286652 L15.0178744,24.5286652 L15.0178744,23.8130197 L15.0178744,23.8130197 Z M12.8705314,26.6857768 L11.4400966,26.6857768 L11.4400966,25.2510941 L12.8705314,25.2510941 L12.8705314,26.6857768 Z" id="Shape"></path>
                    <polygon id="Path" points="17.1652174 25.2477024 19.3125604 25.2477024 19.3125604 30.9898249 22.1768116 30.9898249 22.1768116 25.2477024 24.3207729 25.2477024 24.3207729 23.8130197 17.1652174 23.8130197"></polygon>
                    <polygon id="Path" points="30.0492754 26.6857768 28.6154589 26.6857768 28.6154589 23.8130197 25.7545894 23.8130197 25.7545894 30.9932166 28.6154589 30.9932166 28.6154589 28.1204595 30.0492754 28.1204595 30.0492754 30.9932166 32.9101449 30.9932166 32.9101449 23.8130197 30.0492754 23.8130197"></polygon>
                    <polygon id="Path" points="42.9299517 29.5551422 41.4995169 29.5551422 41.4995169 23.8130197 38.6352657 23.8130197 38.6352657 29.5551422 37.2048309 29.5551422 37.2048309 23.8130197 34.3439614 23.8130197 34.3439614 30.9932166 45.0772947 30.9932166 45.0772947 30.2741794 45.7942029 30.2741794 45.7942029 23.8130197 42.9299517 23.8130197"></polygon>
                    <path d="M53.6666667,23.8130197 L47.9415459,23.8130197 L47.9415459,24.5286652 L47.2246377,24.5286652 L47.2246377,30.9898249 L50.0888889,30.9898249 L50.0888889,28.1204595 L51.5193237,28.1204595 L51.5193237,30.9898249 L54.3835749,30.9898249 L54.3835749,24.5286652 L53.6666667,24.5286652 L53.6666667,23.8130197 Z M51.5193237,26.6857768 L50.0888889,26.6857768 L50.0888889,25.2510941 L51.5193237,25.2510941 L51.5193237,26.6857768 Z" id="Shape"></path>
                    <path d="M62.9695652,26.6857768 L62.9695652,24.5320569 L62.2560386,24.5320569 L62.2560386,23.8130197 L55.8140097,23.8130197 L55.8140097,30.9898249 L58.6782609,30.9898249 L58.6782609,28.1170678 L60.1086957,28.1170678 L60.1086957,30.9898249 L62.9729469,30.9898249 L62.9729469,28.1170678 L62.2560386,28.1170678 L62.2560386,26.6823851 L62.9695652,26.6823851 L62.9695652,26.6857768 Z M60.1086957,26.6857768 L58.6782609,26.6857768 L58.6782609,25.2510941 L60.1086957,25.2510941 L60.1086957,26.6857768 Z" id="Shape"></path>
                </g>
                <path d="M49.0211119,12.6518443 L47.112427,12.6518443 C46.5856573,8.98884062 44.7111782,5.7585825 42.002077,3.48240906 C42.0328622,3.55737286 42.0499651,3.64255899 42.0499651,3.73115257 C42.0499651,4.08893432 41.7592156,4.37856717 41.4000545,4.37856717 C41.0408933,4.37856717 40.7467232,4.08893432 40.7467232,3.73115257 C40.7467232,3.37337082 41.0374727,3.08373797 41.4000545,3.08373797 C41.4411015,3.08373797 41.4821484,3.09055286 41.5197749,3.0939603 C39.012488,1.15512395 35.8621317,0 32.4415493,0 C29.020967,0 25.8740312,1.15512395 23.3667444,3.0939603 C23.4043708,3.08714541 23.4454178,3.08373797 23.4864648,3.08373797 C23.8456259,3.08373797 24.1363754,3.37337082 24.1363754,3.73115257 C24.1363754,4.08893432 23.8456259,4.37856717 23.4864648,4.37856717 C23.1273036,4.37856717 22.8331336,4.08893432 22.8331336,3.73115257 C22.8331336,3.64255899 22.8502365,3.55737286 22.8810217,3.48240906 C22.3405697,3.93559928 21.8343235,4.42967885 21.3657037,4.95442542 C21.1160012,5.23383593 20.879981,5.52006133 20.650802,5.81991652 C19.1662693,7.75534543 18.1537769,10.0724082 17.7809334,12.5939177 C17.7809334,12.5973252 17.7809334,12.5973252 17.7809334,12.6007326 C17.7775129,12.6177698 17.7740923,12.6348071 17.7740923,12.6552517 L16.0569599,12.6552517 C15.4754609,12.6552517 15,13.1288866 15,13.7115598 C15,14.2908255 15.4754609,14.7644603 16.0569599,14.7644603 L17.8322422,14.7644603 L17.8322422,26.4519976 C17.8322422,26.4997018 17.8322422,26.5474061 17.8356628,26.5951103 C17.8356628,26.6053327 17.8356628,26.6121475 17.8356628,26.6223699 C17.8356628,26.6700741 17.8390833,26.7143709 17.8425039,26.7620751 C17.8425039,26.7722975 17.8425039,26.7791124 17.8425039,26.7893347 C17.8459245,26.8336315 17.8493451,26.8779283 17.8527657,26.9222251 C17.8527657,26.9256325 17.8527657,26.92904 17.8527657,26.9358548 C17.8561863,26.9835591 17.8630274,27.0278559 17.8698686,27.0755601 C17.8698686,27.0857824 17.8732892,27.0960048 17.8732892,27.1062271 C17.8801303,27.1505239 17.8869715,27.1948207 17.8938127,27.2391175 C17.8938127,27.2493398 17.8972332,27.2561547 17.8972332,27.266377 C17.9040744,27.3072664 17.9109156,27.3481557 17.9177567,27.3856376 C17.9177567,27.3924525 17.9211773,27.4026748 17.9211773,27.4094897 C17.9314391,27.4537865 17.9382802,27.4946759 17.948542,27.5389727 C17.9519626,27.5526024 17.9553831,27.5628248 17.9553831,27.5764546 C17.9656449,27.6173439 17.9759066,27.6616407 17.989589,27.70253 C17.9930095,27.7127524 17.9964301,27.7229747 17.9964301,27.7297896 C18.0066919,27.7672715 18.0169536,27.8013459 18.0272154,27.8354204 C18.030636,27.8490502 18.0340565,27.8592725 18.0374771,27.8694948 C18.0511594,27.9103842 18.0648418,27.9478661 18.0751035,27.9887554 C18.0785241,28.0023852 18.0853653,28.016015 18.0887858,28.0296448 C18.1024682,28.0671267 18.1161505,28.1012011 18.1298328,28.138683 C18.136674,28.1523128 18.1400946,28.1659426 18.1469357,28.1795724 C18.1571975,28.2102394 18.1708798,28.2409064 18.1845622,28.2715734 C18.1914033,28.2852032 18.1982445,28.3022404 18.2016651,28.3158702 C18.2153474,28.3499446 18.2324503,28.3874265 18.2495532,28.421501 C18.2563944,28.4385382 18.2632355,28.4555754 18.2734973,28.4692052 C18.2871796,28.4964648 18.2974414,28.5203169 18.3111237,28.5475765 C18.3213854,28.5714286 18.3316472,28.5918732 18.3453295,28.6157254 C18.3590119,28.6395775 18.3692736,28.6634296 18.3829559,28.6872817 C18.3932177,28.7043189 18.4034794,28.7247636 18.4103206,28.7418008 C18.4274235,28.7724678 18.4445264,28.8031348 18.4616293,28.8338019 C18.4718911,28.8542465 18.4855734,28.8712838 18.4958351,28.8917284 C18.5060969,28.9087657 18.5163586,28.9258029 18.530041,28.9462476 C18.5505645,28.9769146 18.5676674,29.0075816 18.5881909,29.0382486 C18.5984526,29.0552858 18.6087144,29.0689156 18.6189761,29.0859528 C18.6326584,29.1063975 18.6463408,29.1268422 18.6600231,29.1506943 C18.6702848,29.164324 18.677126,29.1745464 18.6873878,29.1881762 C18.7113318,29.2256581 18.7386965,29.2597325 18.7660612,29.293807 C18.7694817,29.2972144 18.7729023,29.3040293 18.7763229,29.3108442 C18.7763229,29.3108442 18.7763229,29.3108442 18.7763229,29.3108442 C19.1696899,29.8355908 19.6690949,30.2819661 20.2608556,30.6124883 L25.1420266,33.3691115 L25.1420266,36.4324048 C25.1420266,37.2570066 25.5627583,38.0032371 26.2263512,38.4359826 C26.2331924,38.4393901 26.2400336,38.446205 26.2468747,38.4496124 C26.2605571,38.4598347 26.27766,38.4700571 26.2913423,38.476872 L26.3255481,38.4973166 C26.3392304,38.5041315 26.3529128,38.5143539 26.3665951,38.5211688 C26.3802774,38.5279836 26.3939598,38.538206 26.4076421,38.5450209 C26.4179038,38.5518358 26.4315862,38.5586507 26.4418479,38.5620581 C26.4692126,38.5756879 26.4931567,38.5893177 26.5205213,38.59954 C26.5273625,38.6029474 26.5342036,38.6063549 26.5410448,38.6097623 C26.5615683,38.6199847 26.5820918,38.630207 26.6026153,38.6370219 C26.612877,38.6404293 26.6231388,38.6438368 26.6299799,38.6506517 C26.6505034,38.6574666 26.6676063,38.6642815 26.6881298,38.6745038 C26.6983916,38.6779112 26.7086533,38.6813187 26.7189151,38.6847261 C26.7394386,38.691541 26.7599621,38.6983559 26.7804856,38.7051708 C26.7907473,38.7085782 26.7975885,38.7119857 26.8078502,38.7153931 C26.8386355,38.7256155 26.8660001,38.7324304 26.8967854,38.7426527 C26.9104677,38.7494676 26.9275706,38.7494676 26.9412529,38.7562825 L27.2491053,38.8346537 L28.7644233,36.6027771 L28.6344412,39.1958429 L31.7129653,39.9965926 L32.4073435,37.383082 L33.1769745,40 L36.293125,39.1924355 L36.1665635,36.6607036 L37.6476757,38.8414686 L37.9794721,38.7562825 C39.0364321,38.4836869 39.7786984,37.5296022 39.7786984,36.4358122 L39.7786984,33.372519 L44.6598694,30.6158957 C46.1649257,29.7640344 47.0987446,28.16935 47.0987446,26.4451827 L47.0987446,14.7576455 L49.0074296,14.7576455 C49.5513022,14.7576455 49.999706,14.3146776 49.999706,13.7694863 L49.999706,13.636596 C50.0130808,13.0982196 49.5684051,12.6518443 49.0211119,12.6518443 Z M42.7067169,5.18953914 C43.0658781,5.18953914 43.3600482,5.47917199 43.3600482,5.83695374 C43.3600482,6.1947355 43.0692987,6.48777579 42.7067169,6.48777579 C42.3475558,6.48777579 42.0568063,6.19814294 42.0568063,5.83695374 C42.0533857,5.47917199 42.3475558,5.18953914 42.7067169,5.18953914 Z M41.4034751,7.46230514 C41.7626362,7.46230514 42.0533857,7.75193798 42.0533857,8.10971974 C42.0533857,8.32438879 41.9473476,8.51520572 41.7865803,8.63446631 C41.7865803,8.63446631 41.7865803,8.63446631 41.7865803,8.63446631 L40.7604056,8.19831331 C40.756985,8.16764631 40.7535644,8.14038675 40.7535644,8.10971974 C40.7535644,7.75193798 41.0443139,7.46230514 41.4034751,7.46230514 Z M40.1002332,5.18953914 C40.4593943,5.18953914 40.7501438,5.47917199 40.7501438,5.83695374 C40.7501438,5.83695374 40.7501438,5.83695374 40.7501438,5.83695374 C40.7501438,6.1947355 40.4593943,6.48436834 40.1002332,6.48436834 C39.741072,6.48436834 39.4503225,6.1947355 39.4503225,5.8335463 C39.4503225,5.64954425 39.5255754,5.48598688 39.6487163,5.3667263 C39.7650161,5.26109549 39.9257835,5.18953914 40.1002332,5.18953914 Z M38.7969913,3.08033052 C39.1561525,3.08033052 39.4503225,3.36996337 39.4503225,3.72774512 C39.4503225,4.08552688 39.159573,4.37515972 38.7969913,4.37515972 C38.4378302,4.37515972 38.1470807,4.08552688 38.1470807,3.72774512 C38.1470807,3.36996337 38.4378302,3.08033052 38.7969913,3.08033052 Z M37.49717,1.29823665 C37.8563312,1.29823665 38.1470807,1.58786949 38.1470807,1.94565125 C38.1470807,2.303433 37.8563312,2.59306585 37.49717,2.59306585 C37.1380089,2.59306585 36.8438388,2.303433 36.8438388,1.94565125 C36.8438388,1.58786949 37.1345883,1.29823665 37.49717,1.29823665 Z M38.1470807,5.83695374 C38.1470807,6.1947355 37.8563312,6.48777579 37.49717,6.48777579 C37.1380089,6.48777579 36.8438388,6.19814294 36.8438388,5.83695374 C36.8438388,5.47917199 37.1345883,5.18953914 37.49717,5.18953914 C37.8563312,5.18953914 38.1470807,5.47917199 38.1470807,5.83695374 Z M36.1939282,3.08033052 C36.5530893,3.08033052 36.8438388,3.36996337 36.8438388,3.72774512 C36.8438388,3.93900673 36.7446419,4.12641622 36.5872951,4.24226936 C36.4778365,4.32745549 36.3410132,4.37515972 36.1939282,4.37515972 C35.9442256,4.37515972 35.7253084,4.23545447 35.6192703,4.02760031 C35.5713822,3.93900673 35.5440175,3.83337593 35.5440175,3.72433768 C35.5405969,3.37337082 35.8313464,3.08033052 36.1939282,3.08033052 Z M35.0514537,1.29823665 C35.4106148,1.29823665 35.7047849,1.58786949 35.7047849,1.94565125 C35.7047849,2.303433 35.4140354,2.59306585 35.0514537,2.59306585 C34.6888719,2.59306585 34.3981224,2.303433 34.3981224,1.94565125 C34.3981224,1.58786949 34.6922925,1.29823665 35.0514537,1.29823665 Z M32.4449699,1.29823665 C32.8041311,1.29823665 33.0948806,1.58786949 33.0948806,1.94565125 C33.0948806,2.303433 32.8041311,2.59306585 32.4449699,2.59306585 C32.0858088,2.59306585 31.7950593,2.303433 31.7950593,1.94565125 C31.7950593,1.58786949 32.0858088,1.29823665 32.4449699,1.29823665 Z M29.6777188,1.29823665 C30.03688,1.29823665 30.3276295,1.58786949 30.3276295,1.94565125 C30.3276295,2.303433 30.03688,2.59306585 29.6777188,2.59306585 C29.3185577,2.59306585 29.0278082,2.303433 29.0278082,1.94565125 C29.0278082,1.58786949 29.3185577,1.29823665 29.6777188,1.29823665 Z M28.3744769,3.08033052 C28.7336381,3.08033052 29.0278082,3.36996337 29.0278082,3.72774512 C29.0278082,3.87085782 28.97992,4.00374819 28.9012466,4.10937899 C28.7815262,4.26952892 28.5933942,4.37515972 28.3778975,4.37515972 C28.27528,4.37515972 28.1760832,4.35130761 28.0905686,4.30701082 C27.8750719,4.20138002 27.7279869,3.97989607 27.7279869,3.72774512 C27.7245663,3.37337082 28.0153158,3.08033052 28.3744769,3.08033052 Z M27.0746556,1.29823665 C27.4338168,1.29823665 27.7245663,1.58786949 27.7245663,1.94565125 C27.7245663,2.303433 27.4338168,2.59306585 27.0746556,2.59306585 C26.7154945,2.59306585 26.424745,2.303433 26.424745,1.94565125 C26.424745,1.58786949 26.7120739,1.29823665 27.0746556,1.29823665 Z M27.7245663,5.83695374 C27.7245663,6.1947355 27.4338168,6.48777579 27.0746556,6.48777579 C26.7154945,6.48777579 26.424745,6.19814294 26.424745,5.83695374 C26.424745,5.47917199 26.7154945,5.18953914 27.0746556,5.18953914 C27.4338168,5.18953914 27.7245663,5.47917199 27.7245663,5.83695374 Z M25.9321811,3.08033052 C26.2913423,3.08033052 26.5820918,3.36996337 26.5820918,3.72774512 C26.5820918,4.08552688 26.2913423,4.37515972 25.9321811,4.37515972 C25.57302,4.37515972 25.2822705,4.08552688 25.2822705,3.72774512 C25.2822705,3.36996337 25.57302,3.08033052 25.9321811,3.08033052 Z M25.9390223,7.48274981 C25.9287606,7.47934236 25.9150782,7.47593492 25.9048165,7.47593492 L25.2207,7.76556777 C25.3369998,7.58497317 25.5388142,7.46230514 25.7714138,7.46230514 C25.8158813,7.46230514 25.8603489,7.46571258 25.9048165,7.47593492 C25.9150782,7.47934236 25.9287606,7.47934236 25.9390223,7.48274981 Z M24.6289393,5.18953914 C24.8341742,5.18953914 25.0154651,5.28494761 25.1351855,5.42806031 C25.2275412,5.54050601 25.2822705,5.68361871 25.2822705,5.83695374 C25.2822705,6.1947355 24.991521,6.48777579 24.6323599,6.48777579 C24.2971428,6.48777579 24.0234962,6.23903229 23.9858698,5.91873243 C23.9824492,5.89147287 23.9790286,5.86421331 23.9790286,5.83695374 C23.9790286,5.47917199 24.2697781,5.18953914 24.6289393,5.18953914 Z M23.1307242,8.65150354 C23.1546683,8.66513332 23.1546683,8.66513332 23.1307242,8.65150354 C22.9562745,8.5356504 22.8399747,8.33801857 22.8399747,8.11312718 C22.8399747,7.75534543 23.1307242,7.46571258 23.4933059,7.46571258 C23.8524671,7.46571258 24.1432166,7.75534543 24.1432166,8.11312718 C24.1432166,8.15060908 24.1192725,8.29031434 24.1329548,8.22898032 L23.1307242,8.65150354 Z M22.0258761,5.18953914 C22.3850373,5.18953914 22.6757868,5.47917199 22.6757868,5.83695374 C22.6757868,6.1947355 22.3850373,6.48777579 22.0258761,6.48777579 C21.666715,6.48777579 21.3759655,6.19814294 21.3759655,5.83695374 C21.3725449,5.47917199 21.666715,5.18953914 22.0258761,5.18953914 Z M29.8179627,26.4792572 L29.8179627,26.4792572 C29.7837569,27.8729023 28.8704614,29.3142516 24.9402123,28.7111338 C17.096817,27.5083056 20.6576432,19.9880739 22.0121938,19.2213988 C22.0635025,19.1941392 22.1079701,19.1736945 22.1524377,19.1668796 C22.1729612,19.1634722 22.1900641,19.1600647 22.2105876,19.1532499 C22.2174287,19.1532499 22.2242699,19.1498424 22.2311111,19.1498424 C22.2447934,19.146435 22.2584757,19.146435 22.272158,19.1430275 C22.2789992,19.1430275 22.289261,19.1396201 22.2961021,19.1396201 C22.3097845,19.1396201 22.3200462,19.1362126 22.3337285,19.1362126 C22.3439903,19.1362126 22.3508314,19.1362126 22.3610932,19.1328052 C22.3713549,19.1328052 22.3850373,19.1293977 22.395299,19.1293977 C22.4055608,19.1293977 22.4124019,19.1293977 22.4226637,19.1293977 C22.4329254,19.1293977 22.4466077,19.1293977 22.4568695,19.1259903 C22.4671312,19.1259903 22.477393,19.1259903 22.4842342,19.1259903 C22.4944959,19.1259903 22.5081782,19.1259903 22.51844,19.1259903 C22.5287017,19.1259903 22.5389635,19.1259903 22.5492252,19.1259903 C22.559487,19.1259903 22.5731693,19.1259903 22.583431,19.1259903 C22.5936928,19.1259903 22.6039545,19.1259903 22.6142163,19.1259903 C22.624478,19.1259903 22.6381604,19.1259903 22.6484221,19.1259903 C22.6586839,19.1259903 22.6689456,19.1259903 22.6792073,19.1293977 C22.6894691,19.1293977 22.7031514,19.1293977 22.7134132,19.1328052 C22.7236749,19.1328052 22.7339367,19.1362126 22.7441984,19.1362126 C22.7544602,19.1362126 22.7681425,19.1396201 22.7784042,19.1396201 C22.788666,19.1396201 22.7989277,19.1430275 22.8091895,19.1430275 C22.8194512,19.1430275 22.8331336,19.146435 22.8433953,19.146435 C22.853657,19.146435 22.8639188,19.1498424 22.8741805,19.1498424 C22.8844423,19.1498424 22.8981246,19.1532499 22.9083864,19.1566573 C22.9186481,19.1600647 22.9289099,19.1600647 22.9391716,19.1634722 C22.9494334,19.1668796 22.9631157,19.1668796 22.9733774,19.1702871 C22.9836392,19.1736945 22.9939009,19.1736945 23.0041627,19.177102 C23.017845,19.1805094 23.0281067,19.1805094 23.0383685,19.1839169 C23.0486302,19.1873243 23.058892,19.1873243 23.0691537,19.1907317 C23.0828361,19.1941392 23.0930978,19.1975466 23.1033596,19.1975466 C23.1136213,19.2009541 23.123883,19.2043615 23.1375654,19.2043615 C23.1478271,19.207769 23.1615095,19.2111764 23.1717712,19.2145839 C23.1820329,19.2179913 23.1922947,19.2213988 23.205977,19.2248062 C23.2162388,19.2282136 23.2299211,19.2316211 23.2436034,19.2350285 C23.2538652,19.238436 23.2641269,19.2418434 23.2778093,19.2452509 C23.2914916,19.2486583 23.3017533,19.2520658 23.3120151,19.2554732 C23.3222768,19.2588807 23.3359592,19.2622881 23.3462209,19.2656955 C23.3564826,19.269103 23.370165,19.2725104 23.3838473,19.2759179 C23.3941091,19.2793253 23.4043708,19.2827328 23.4180531,19.2861402 C23.4317355,19.2895477 23.4419972,19.2929551 23.4556795,19.29977 C23.4659413,19.3031774 23.4796236,19.3065849 23.4898854,19.3099923 C23.5035677,19.3133998 23.5138294,19.3202147 23.5275118,19.3236221 C23.5377735,19.3270296 23.5514558,19.330437 23.5617176,19.3372519 C23.5753999,19.3406593 23.5856617,19.3474742 23.599344,19.3508817 C23.6096057,19.3542891 23.6232881,19.3576966 23.6335498,19.3645115 C23.6472321,19.3679189 23.6574939,19.3747338 23.6711762,19.3815487 C23.681438,19.3849561 23.6916997,19.391771 23.705382,19.3951785 C23.7190644,19.4019934 23.7327467,19.4054008 23.7430085,19.4122157 C23.7532702,19.4156231 23.7635319,19.422438 23.7772143,19.4258455 C23.7908966,19.4326604 23.8045789,19.4360678 23.8182613,19.4428827 L23.8490465,19.4565125 C23.8627288,19.4633274 23.8764112,19.4701423 23.8900935,19.4769572 C23.9003552,19.4803646 23.910617,19.4871795 23.9208787,19.4905869 C23.9345611,19.4974018 23.9482434,19.5042167 23.9619257,19.5110316 C23.9721875,19.514439 23.9824492,19.5212539 23.992711,19.5246614 C24.0063933,19.5314763 24.0200756,19.5382912 24.0371785,19.5451061 C24.0474403,19.5485135 24.057702,19.5553284 24.0645432,19.5587358 C24.0816461,19.5689582 24.098749,19.5757731 24.1158519,19.5859954 C24.1226931,19.5894028 24.1295343,19.5928103 24.1363754,19.5962177 C24.1603195,19.6098475 24.1842636,19.6234773 24.2082077,19.6336996 C24.2150488,19.6371071 24.22189,19.6405145 24.2287311,19.643922 C24.2458341,19.6541443 24.262937,19.6609592 24.2800399,19.6711815 C24.2903016,19.6779964 24.3005634,19.6814039 24.3108251,19.6882188 C24.3245074,19.6950336 24.3381898,19.705256 24.3552927,19.7120709 C24.3655544,19.7188858 24.3758162,19.7257007 24.3860779,19.7291081 C24.3997603,19.735923 24.4134426,19.7461453 24.4271249,19.7529602 C24.4373867,19.7597751 24.4476484,19.76659 24.4613307,19.7734049 C24.4750131,19.7802198 24.4886954,19.7904421 24.5023777,19.797257 C24.5126395,19.8040719 24.5263218,19.8108868 24.5365836,19.8177017 C24.5502659,19.8245166 24.5639482,19.8347389 24.5776305,19.8415538 C24.5878923,19.8483687 24.6015746,19.8551836 24.6118364,19.8619985 C24.6255187,19.8688134 24.639201,19.8790357 24.6494628,19.8858506 C24.6597245,19.8926655 24.6734068,19.8994804 24.6836686,19.9097027 C24.6973509,19.9165176 24.7110333,19.9267399 24.721295,19.9335548 C24.7315567,19.9403697 24.7452391,19.9471846 24.7555008,19.9574069 C24.7691832,19.9642218 24.7828655,19.9744442 24.7931272,19.9812591 C24.803389,19.9880739 24.8170713,19.9982963 24.8273331,20.0051112 C24.8410154,20.0119261 24.8546977,20.0221484 24.8649595,20.0289633 C24.8752212,20.0357782 24.8889035,20.0460005 24.8991653,20.0528154 C24.9128476,20.0630377 24.9231094,20.0698526 24.9367917,20.080075 C24.9470534,20.0868899 24.9607358,20.0971122 24.9709975,20.1039271 C24.9846798,20.1141494 24.9983622,20.1209643 25.0086239,20.1311866 C25.0188857,20.1380015 25.032568,20.1482239 25.0428297,20.1550388 C25.0565121,20.1652611 25.0701944,20.172076 25.0804561,20.1822983 C25.0907179,20.1891132 25.1044002,20.1993355 25.114662,20.2061504 C25.1283443,20.2163728 25.1420266,20.2231877 25.1522884,20.23341 C25.1625501,20.2402249 25.1762325,20.2504472 25.1864942,20.2572621 C25.2001765,20.2674845 25.2138589,20.2742993 25.2241206,20.2845217 C25.2378029,20.2913366 25.2480647,20.3015589 25.2583264,20.3117812 C25.2720088,20.3220036 25.2822705,20.3322259 25.2959528,20.3390408 C25.3096352,20.3492631 25.3198969,20.356078 25.3301587,20.3663004 C25.343841,20.3765227 25.3541027,20.386745 25.3677851,20.3935599 C25.3780468,20.4037823 25.3917291,20.4105972 25.4019909,20.4208195 C25.4156732,20.4310418 25.4293555,20.4412642 25.4396173,20.4514865 C25.449879,20.4617088 25.4635614,20.4685237 25.4738231,20.4787461 C25.4875054,20.4889684 25.5011878,20.4991907 25.5114495,20.5094131 C25.5217113,20.5196354 25.5353936,20.5264503 25.5456553,20.5366726 C25.5593377,20.546895 25.57302,20.5571173 25.5832817,20.5673396 C25.5935435,20.577562 25.6072258,20.5843769 25.6174876,20.5945992 C25.6311699,20.6048215 25.6448522,20.6150439 25.655114,20.6252662 C25.6653757,20.6354885 25.6790581,20.6423034 25.6893198,20.6525258 C25.7030021,20.6627481 25.7166845,20.6729704 25.7269462,20.6831928 C25.737208,20.6934151 25.7474697,20.70023 25.761152,20.7104523 C25.7748344,20.7206747 25.7885167,20.730897 25.802199,20.7411193 C25.8124608,20.7513417 25.8227225,20.7581566 25.8364048,20.7683789 C25.8500872,20.7786012 25.8637695,20.7888236 25.8740312,20.7990459 C25.884293,20.8092683 25.8945547,20.8160831 25.9082371,20.8263055 C25.9219194,20.8365278 25.9356017,20.8467501 25.9458635,20.8569725 C25.9561252,20.8671948 25.966387,20.8740097 25.9800693,20.884232 C25.9937516,20.8944544 26.007434,20.9046767 26.0211163,20.9183065 C26.031378,20.9285288 26.0416398,20.9353437 26.0519015,20.9455661 C26.0655839,20.9557884 26.0792662,20.9694182 26.0929485,20.9796405 C26.1032103,20.9864554 26.113472,20.9966777 26.1237338,21.0034926 C26.1374161,21.0171224 26.154519,21.0273447 26.1682013,21.0409745 C26.1784631,21.0477894 26.1853042,21.0546043 26.195566,21.0648266 C26.2126689,21.0784564 26.2263512,21.0920862 26.2434541,21.105716 C26.2502953,21.1125309 26.2571365,21.1193458 26.2639776,21.1261607 C26.3118658,21.16705 26.3563334,21.2079393 26.4042215,21.2488287 C26.4110627,21.2556436 26.4179038,21.259051 26.4213244,21.2658659 C26.4384273,21.2794957 26.4555302,21.2965329 26.4726332,21.3101627 C26.4794743,21.3169776 26.4897361,21.3237925 26.4965772,21.3340148 C26.5102596,21.3476446 26.5273625,21.3612744 26.5410448,21.3749042 C26.5513066,21.3817191 26.5581477,21.3919414 26.5684095,21.3987563 C26.5820918,21.4123861 26.5957741,21.4226084 26.6094565,21.4362382 C26.6197182,21.4464605 26.6299799,21.4532754 26.6402417,21.4634977 C26.653924,21.4737201 26.6676063,21.4873499 26.6778681,21.4975722 C26.6881298,21.5077945 26.6983916,21.5180169 26.7086533,21.5248318 C26.7223357,21.5350541 26.7325974,21.5486839 26.7462797,21.5589062 C26.7565415,21.5691285 26.7668032,21.5793509 26.777065,21.5861658 C26.7907473,21.5963881 26.8010091,21.6100179 26.8146914,21.6202402 C26.8249531,21.6304626 26.8352149,21.6372775 26.8454766,21.6474998 C26.859159,21.6577221 26.8694207,21.6713519 26.883103,21.6815742 C26.8933648,21.6917966 26.9036265,21.7020189 26.9138883,21.7088338 C26.9275706,21.7190561 26.9378324,21.7326859 26.9515147,21.7429083 C26.9617764,21.7531306 26.9720382,21.7633529 26.9822999,21.7701678 C26.9925617,21.7803902 27.006244,21.7940199 27.0165057,21.8042423 C27.0267675,21.8144646 27.0370292,21.8212795 27.047291,21.8315018 C27.0575527,21.8417242 27.0712351,21.8553539 27.0814968,21.8655763 C27.0917586,21.8757986 27.1020203,21.886021 27.1122821,21.8928358 C27.1225438,21.9030582 27.1362261,21.916688 27.1464879,21.9269103 C27.1567496,21.9371326 27.1670114,21.947355 27.1738525,21.9541699 C27.1841143,21.9643922 27.1977966,21.978022 27.2080584,21.9882443 C27.2183201,21.9984666 27.2285819,22.008689 27.2388436,22.0189113 C27.2491053,22.0291337 27.2627877,22.039356 27.2730494,22.0529858 C27.2833112,22.0632081 27.2935729,22.070023 27.3004141,22.0802453 C27.3106758,22.0904677 27.3243582,22.1040975 27.3346199,22.1143198 C27.3448817,22.1245421 27.3517228,22.131357 27.3619846,22.1415794 C27.3722463,22.1518017 27.3859286,22.1654315 27.3961904,22.1756538 C27.4064521,22.1858761 27.4132933,22.192691 27.423555,22.2029134 C27.4338168,22.2131357 27.4474991,22.2267655 27.4577609,22.2369878 C27.4680226,22.2472102 27.4748638,22.254025 27.4851255,22.2642474 C27.4953873,22.2744697 27.5090696,22.2880995 27.5193314,22.2983218 C27.5261725,22.3051367 27.5364343,22.3153591 27.546696,22.3255814 C27.5569578,22.3358037 27.5706401,22.3494335 27.5809018,22.3596558 C27.587743,22.3664707 27.5980047,22.3766931 27.6048459,22.383508 C27.6151077,22.3971377 27.62879,22.4073601 27.6390517,22.4175824 C27.6458929,22.4243973 27.6561546,22.4346196 27.6629958,22.4414345 C27.6732576,22.4516569 27.6869399,22.4652867 27.6972016,22.475509 C27.7040428,22.4823239 27.7143045,22.4925462 27.7211457,22.4993611 C27.7314075,22.5095834 27.7416692,22.5232132 27.7553515,22.5334356 C27.7621927,22.5402504 27.7724544,22.5504728 27.7792956,22.5572877 C27.7895574,22.56751 27.8032397,22.5811398 27.8135014,22.5913621 C27.8203426,22.598177 27.8271838,22.6083994 27.8374455,22.6152142 C27.8477073,22.6254366 27.8613896,22.6390664 27.8716513,22.6492887 C27.8784925,22.6561036 27.8887542,22.6663259 27.8955954,22.6731408 C27.9058572,22.6867706 27.9195395,22.6969929 27.9298012,22.7106227 C27.9366424,22.7174376 27.9434836,22.7242525 27.9503247,22.7310674 C27.9640071,22.7446972 27.9742688,22.7549195 27.9845305,22.7685493 C27.9913717,22.7753642 27.9982129,22.7821791 28.005054,22.788994 C28.0187364,22.8026237 28.0324187,22.8162535 28.046101,22.8298833 C28.0495216,22.8332907 28.0563628,22.8401056 28.0597834,22.8435131 C28.0768863,22.8605503 28.0905686,22.8775875 28.1076715,22.8946248 C28.1110921,22.8946248 28.1110921,22.8980322 28.1145127,22.9014396 C28.1487185,22.9389215 28.1829243,22.9764034 28.2171301,23.0138853 C28.2171301,23.0138853 28.2205507,23.0138853 28.2205507,23.0172928 C28.2376536,23.03433 28.251336,23.0513672 28.2684389,23.0684045 C28.2718595,23.0718119 28.27528,23.0752194 28.2787006,23.0786268 C28.292383,23.0922566 28.3060653,23.1058864 28.316327,23.1195161 C28.3197476,23.1229236 28.3265888,23.1297385 28.3300094,23.1365534 C28.3402711,23.1501832 28.3539534,23.1604055 28.3642152,23.1740353 C28.3676358,23.1774427 28.3744769,23.1842576 28.3778975,23.187665 C28.3881593,23.2012948 28.4018416,23.2115172 28.4121033,23.2251469 C28.4155239,23.2319618 28.4223651,23.2353693 28.4257857,23.2421842 C28.4360474,23.255814 28.4463092,23.2660363 28.4565709,23.2762586 C28.4634121,23.2830735 28.4668327,23.286481 28.4736738,23.2932959 C28.4839356,23.3035182 28.4941973,23.3137405 28.5044591,23.3239629 C28.5113002,23.3307777 28.5147208,23.3341852 28.521562,23.3410001 C28.5318237,23.3512224 28.5420855,23.3614448 28.5523472,23.3750745 C28.5557678,23.3818894 28.562609,23.3852969 28.5660295,23.3921118 C28.5762913,23.4023341 28.586553,23.4125564 28.5933942,23.4227788 C28.6002354,23.4295937 28.603656,23.4330011 28.6070765,23.439816 C28.6173383,23.4500383 28.6241794,23.4602607 28.6344412,23.470483 C28.6378618,23.4772979 28.6447029,23.4807053 28.6481235,23.4875202 C28.6583853,23.4977426 28.6652264,23.5079649 28.6754882,23.5181872 C28.6789088,23.5250021 28.6857499,23.5284096 28.6891705,23.5352245 C28.6994323,23.5454468 28.7062734,23.5556691 28.7165352,23.5658915 C28.7199558,23.5692989 28.7233763,23.5761138 28.7302175,23.5795213 C28.7404792,23.5897436 28.7473204,23.5999659 28.7575822,23.6101883 C28.7610027,23.6135957 28.7644233,23.6204106 28.7712645,23.623818 C28.7781057,23.6340404 28.7883674,23.6408553 28.7952086,23.6510776 C28.7986291,23.6578925 28.8054703,23.6612999 28.8088909,23.6681148 C28.8157321,23.6783372 28.8225732,23.6851521 28.832835,23.6953744 C28.8362556,23.7021893 28.8396761,23.7055967 28.8465173,23.7090042 C28.8533585,23.7192265 28.8601996,23.7260414 28.8704614,23.7362637 C28.873882,23.7396712 28.8773025,23.7464861 28.8841437,23.7498935 C28.8909849,23.7601159 28.9012466,23.7669307 28.9080878,23.7771531 C28.9115084,23.7805605 28.9149289,23.783968 28.9183495,23.7873754 C28.9251907,23.7975978 28.9354524,23.8044126 28.9422936,23.814635 C28.9457142,23.8180424 28.9491348,23.8214499 28.9525554,23.8248573 C28.9593965,23.8316722 28.9662377,23.8418945 28.9730788,23.8521169 C28.9764994,23.8555243 28.97992,23.8589318 28.9833406,23.8623392 C28.9901818,23.8691541 28.9970229,23.8793764 29.0038641,23.8861913 C29.0072847,23.8895988 29.0107053,23.8930062 29.0107053,23.8964137 C29.0175464,23.9032286 29.0243876,23.9134509 29.0312287,23.9202658 C29.0346493,23.9236732 29.0346493,23.9270807 29.0380699,23.9304881 C29.0449111,23.9407105 29.0517522,23.9475253 29.062014,23.9577477 C29.062014,23.9577477 29.0654346,23.9611551 29.0654346,23.9611551 C29.0722757,23.9713775 29.0825375,23.9781924 29.0893786,23.9884147 C29.0893786,23.9884147 29.0927992,23.9918221 29.0927992,23.9918221 C29.2022579,24.1213051 29.2775107,24.2098986 29.3048753,24.2473805 C29.3151371,24.2610103 29.3219782,24.2712326 29.3288194,24.2882699 C29.3288194,24.2882699 29.3288194,24.2916773 29.33224,24.2916773 C29.33224,24.2916773 29.33224,24.2950848 29.3356606,24.2984922 C29.3390812,24.3018997 29.3390812,24.3087145 29.3425017,24.312122 C29.3425017,24.3155294 29.3459223,24.3189369 29.3459223,24.3189369 C29.3493429,24.3223443 29.3493429,24.3291592 29.3527635,24.3359741 C29.3527635,24.3393815 29.3561841,24.342789 29.3561841,24.3461964 C29.3596046,24.3530113 29.3630252,24.3598262 29.3630252,24.3666411 C29.3664458,24.3700486 29.3664458,24.373456 29.3698664,24.3802709 C29.373287,24.3870858 29.3767076,24.3939007 29.3801281,24.404123 C29.3835487,24.4075305 29.3835487,24.4143453 29.3869693,24.4177528 C29.3903899,24.4279751 29.3938105,24.43479 29.3972311,24.4450124 C29.4006516,24.4484198 29.4006516,24.4552347 29.4040722,24.4586421 C29.4074928,24.4688645 29.414334,24.4790868 29.4177545,24.4927166 C29.4211751,24.496124 29.4211751,24.4995315 29.4211751,24.5029389 C29.4280163,24.5199761 29.4348575,24.5370134 29.4416986,24.5540506 C29.4485398,24.5710878 29.455381,24.5881251 29.4622221,24.6085697 C29.4656427,24.6153846 29.4656427,24.6187921 29.4690633,24.625607 C29.4724839,24.6392367 29.479325,24.6528665 29.4827456,24.6664963 C29.4861662,24.6733112 29.4895868,24.6835335 29.4895868,24.6903484 C29.4930074,24.7039782 29.4998485,24.7142005 29.5032691,24.7278303 C29.5066897,24.7346452 29.5101103,24.7448675 29.5135309,24.7550899 C29.5169514,24.7687197 29.5237926,24.7823494 29.5272132,24.7959792 C29.5306338,24.8062016 29.5340543,24.8130164 29.5374749,24.8232388 C29.5408955,24.8368686 29.5477367,24.8504983 29.5511573,24.8641281 C29.5545778,24.8743505 29.5579984,24.8845728 29.561419,24.8947951 C29.5648396,24.9084249 29.5716808,24.9220547 29.5751013,24.9356845 C29.5785219,24.9459068 29.5819425,24.9561291 29.5853631,24.9663515 C29.5887837,24.9799813 29.5956248,24.993611 29.5990454,25.0106483 C29.602466,25.0208706 29.6058866,25.0310929 29.6093072,25.0447227 C29.6127277,25.0583525 29.6195689,25.0753897 29.6229895,25.092427 C29.6264101,25.1026493 29.6298307,25.1128716 29.6332512,25.1265014 C29.6366718,25.1435386 29.643513,25.1605759 29.6469336,25.1776131 C29.6503541,25.1878354 29.6537747,25.1980578 29.6537747,25.2082801 C29.6571953,25.2287248 29.6640365,25.245762 29.6674571,25.2662067 C29.6708776,25.276429 29.6708776,25.2832439 29.6742982,25.2934662 C29.6811394,25.3207258 29.6879806,25.3513928 29.6948217,25.3786524 C29.6948217,25.3786524 29.6948217,25.3820598 29.6948217,25.3820598 C29.7016629,25.4093194 29.708504,25.4365789 29.7119246,25.4672459 C29.7153452,25.4774683 29.7153452,25.4876906 29.7187658,25.4979129 C29.7221864,25.5183576 29.725607,25.5388023 29.7324481,25.559247 C29.7358687,25.5694693 29.7358687,25.5830991 29.7392893,25.5933214 C29.7427099,25.6137661 29.7461305,25.6308033 29.749551,25.651248 C29.7529716,25.6648778 29.7529716,25.6785075 29.7563922,25.6887299 C29.7598128,25.7057671 29.7632334,25.7262118 29.7666539,25.743249 C29.7700745,25.7568788 29.7700745,25.7705086 29.7734951,25.7841383 C29.7769157,25.8011756 29.7803363,25.8216202 29.7803363,25.8386575 C29.7803363,25.8522872 29.7837569,25.865917 29.7871774,25.8795468 C29.790598,25.896584 29.790598,25.9170287 29.7940186,25.9340659 C29.7940186,25.9476957 29.7974392,25.9613255 29.7974392,25.9749553 C29.7974392,25.9953999 29.8008598,26.0124372 29.8008598,26.0294744 C29.8008598,26.0431042 29.8042804,26.056734 29.8042804,26.0703637 C29.8042804,26.0908084 29.8077009,26.1078456 29.8077009,26.1282903 C29.8077009,26.1419201 29.8111215,26.1555499 29.8111215,26.1691797 C29.8111215,26.1896243 29.8145421,26.210069 29.8145421,26.2305137 C29.8145421,26.2441435 29.8145421,26.2577732 29.8145421,26.271403 C29.8145421,26.2918477 29.8145421,26.3156998 29.8145421,26.3361445 C29.8145421,26.3463668 29.8145421,26.3599966 29.8145421,26.3702189 C29.8213833,26.4111083 29.8213833,26.4451827 29.8179627,26.4792572 Z M30.1360768,6.30377375 C30.1223945,6.31740353 30.1087122,6.33103331 30.0916093,6.34125564 C30.1052916,6.32762586 30.1189739,6.31740353 30.1360768,6.30377375 C30.0745064,6.31399608 30.0129359,6.32421842 29.9513654,6.33444075 L29.4109134,6.42984922 C29.4109134,6.42984922 29.4109134,6.42984922 29.4109134,6.42984922 C29.1851549,6.32762586 29.0312287,6.10273447 29.0312287,5.84036119 C29.0312287,5.48257944 29.3219782,5.19294659 29.6811394,5.19294659 C30.0403005,5.19294659 30.33105,5.48257944 30.33105,5.84036119 C30.33105,6.02095579 30.2557972,6.18451316 30.1360768,6.30377375 Z M30.3413118,3.85041315 C30.3344706,3.81293125 30.33105,3.77204191 30.33105,3.73115257 C30.33105,3.37337082 30.6217995,3.08373797 30.9809607,3.08373797 C31.3367012,3.08373797 31.6240302,3.36655592 31.6342919,3.71752279 L31.6342919,3.73456001 C31.6342919,4.09234177 31.3435424,4.38197461 30.9809607,4.38197461 C30.6628465,4.37856717 30.3994617,4.15367578 30.3413118,3.85041315 Z M31.0904193,31.2871624 C30.4165646,30.9941222 31.8805738,28.0364597 31.8805738,28.0364597 C31.8805738,28.0364597 32.615999,31.9516143 31.0904193,31.2871624 Z M31.8634709,6.12317915 C31.8634709,6.12317915 31.8634709,6.12317915 31.8634709,6.12317915 C31.8224239,6.03799301 31.7950593,5.9391771 31.7950593,5.83695374 C31.7950593,5.47917199 32.0858088,5.18953914 32.4449699,5.18953914 C32.8041311,5.18953914 33.0948806,5.47917199 33.0948806,5.83695374 C33.0948806,5.9391771 33.0709365,6.03458557 33.0298895,6.1197717 C32.6433637,6.10614192 32.2534173,6.10954937 31.8634709,6.12317915 Z M34.0218584,31.2871624 C32.4962787,31.9516143 33.2317039,28.0364597 33.2317039,28.0364597 C33.2317039,28.0364597 34.6957131,30.9975296 34.0218584,31.2871624 Z M34.2339345,3.80270892 C34.1997287,4.12641622 33.9226615,4.37856717 33.5874444,4.37856717 C33.2282833,4.37856717 32.9375338,4.08893432 32.9375338,3.73115257 C32.9375338,3.72093023 32.9375338,3.7107079 32.9409544,3.69707812 C32.9580573,3.35292614 33.2419656,3.08033052 33.590865,3.08033052 C33.9500261,3.08033052 34.2441962,3.36996337 34.2441962,3.72774512 C34.2373551,3.75500469 34.2373551,3.7788568 34.2339345,3.80270892 Z M34.5588898,6.2628844 L34.5588898,6.2628844 C34.4596929,6.15043871 34.3981224,6.00051112 34.3981224,5.83695374 C34.3981224,5.47917199 34.6888719,5.18953914 35.0514537,5.18953914 C35.4140354,5.18953914 35.7047849,5.47917199 35.7047849,5.83695374 C35.7047849,6.07888236 35.5713822,6.28673652 35.3798296,6.39918221 L35.3798296,6.39918221 L35.0035655,6.33103331 C34.8530599,6.30718119 34.7059748,6.28332907 34.5588898,6.2628844 Z M44.8616838,24.840276 C44.8343191,25.0072408 44.7966927,25.1742056 44.7522252,25.337763 C44.7351223,25.3922821 44.7214399,25.4468013 44.7009164,25.5013204 C44.6735518,25.5830991 44.6461871,25.6648778 44.6119813,25.743249 C44.581196,25.8216202 44.5469902,25.9033989 44.5093638,25.9817702 C44.2493996,26.5303689 43.852612,27.0380782 43.2813748,27.4708237 C42.5254261,28.0432746 41.461625,28.4862424 40.0078775,28.7077264 C32.9512161,29.7947014 35.6226909,24.2848624 35.6226909,24.2848624 C35.6226909,24.2848624 40.0694479,18.7886532 42.6622494,19.1362126 C42.6793523,19.1396201 42.6964552,19.1396201 42.7135581,19.1430275 C42.7409227,19.146435 42.7682874,19.1532499 42.7956521,19.1600647 C42.8264373,19.1668796 42.8606431,19.177102 42.894849,19.1941392 C43.582386,19.5280688 44.9164131,21.756538 44.9232543,23.9918221 C44.9266749,24.2780475 44.9061514,24.5608655 44.8616838,24.840276 Z" id="Shape"></path>
            </g>
        </g>
    </g>
</svg>