<?xml version="1.0" standalone="no"?>
<!DOCTYPE svg PUBLIC "-//W3C//DTD SVG 20010904//EN"
 "http://www.w3.org/TR/2001/REC-SVG-20010904/DTD/svg10.dtd">
<svg version="1.0" xmlns="http://www.w3.org/2000/svg"
 width="200.000000pt" height="200.000000pt" viewBox="0 0 200.000000 200.000000"
 preserveAspectRatio="xMidYMid meet">
<metadata>
Created by potrace 1.15, written by Peter Selinger 2001-2017
</metadata>
<g transform="translate(0.000000,200.000000) scale(0.100000,-0.100000)"
fill="#000000" stroke="none">
<path d="M210 1883 c-49 -19 -110 -93 -110 -135 0 -20 -5 -28 -18 -28 -20 0
-52 -31 -71 -67 -18 -35 -13 -87 12 -124 l23 -34 95 0 c93 0 97 -1 152 -37 37
-25 55 -43 51 -52 -4 -9 4 -16 23 -20 16 -4 54 -27 86 -53 48 -40 57 -51 57
-79 0 -74 71 -214 109 -214 10 0 24 -7 31 -15 10 -12 8 -22 -14 -55 -14 -22
-26 -41 -26 -43 0 -2 27 -16 60 -32 54 -26 58 -30 45 -45 -8 -9 -13 -27 -12
-41 2 -22 -14 -38 -96 -103 -54 -42 -119 -90 -145 -106 -46 -28 -50 -29 -115
-20 -47 7 -74 7 -88 -1 -30 -16 -59 -69 -59 -109 0 -44 41 -107 75 -116 19 -5
25 -13 25 -35 0 -21 13 -43 48 -79 53 -55 80 -62 132 -35 46 24 64 67 56 140
l-6 61 52 50 c76 73 164 145 170 139 3 -3 -12 -23 -33 -44 -47 -46 -50 -76
-14 -138 21 -34 30 -42 48 -39 77 16 127 15 197 -4 l75 -19 52 34 c36 24 58
47 71 77 31 69 49 79 162 92 69 8 105 16 116 28 16 16 20 15 58 -15 22 -18 71
-60 108 -95 l67 -63 -2 -68 c-2 -77 11 -109 53 -134 44 -26 75 -21 121 21 42
37 75 95 64 112 -4 6 0 10 8 10 26 0 65 40 82 85 17 42 17 45 -4 88 -28 58
-51 68 -137 57 -67 -9 -71 -8 -122 23 -29 18 -110 78 -178 135 -140 116 -138
110 -77 195 27 37 41 47 63 47 16 0 33 7 38 16 7 13 19 12 99 -14 l91 -29 11
41 c7 27 7 42 0 44 -17 6 -95 49 -137 76 -60 38 -58 70 6 113 77 51 83 53 151
43 79 -11 105 -2 131 49 23 45 25 72 9 104 -16 32 -61 77 -75 77 -7 0 -16 15
-20 32 -9 41 -49 95 -85 114 -46 23 -77 18 -116 -21 -33 -33 -34 -36 -32 -105
2 -59 -1 -76 -20 -100 -12 -17 -25 -30 -29 -30 -4 0 -19 24 -35 53 -20 38 -26
61 -21 83 8 42 -37 84 -151 140 -102 50 -212 80 -317 89 -89 7 -129 -3 -146
-38 -9 -18 -40 -39 -106 -70 -91 -44 -170 -106 -207 -167 l-16 -24 -65 47
c-36 25 -86 69 -112 98 l-47 52 6 71 c7 78 -3 107 -45 137 -30 21 -60 29 -80
22z m65 -78 c35 -34 31 -68 -15 -136 -41 -60 -39 -84 2 -29 24 33 37 26 39
-20 0 -14 3 -19 6 -12 3 9 17 -1 41 -29 20 -23 63 -62 97 -87 l60 -45 -60 8
c-33 4 -70 8 -81 10 -12 1 -32 10 -45 20 -20 14 -20 16 -4 11 19 -7 19 -6 2
11 -15 15 -35 18 -121 18 -114 0 -132 8 -156 65 -10 23 -9 33 6 54 20 31 50
50 65 41 5 -4 19 -26 30 -50 20 -43 55 -83 64 -73 3 3 -10 31 -30 63 -61 102
-57 139 20 186 39 25 51 24 80 -6z m968 -211 c81 -50 127 -107 127 -155 0 -12
-14 -47 -31 -77 -28 -50 -31 -62 -27 -121 3 -36 8 -74 13 -83 5 -14 2 -18 -11
-18 -13 -1 -8 -7 16 -19 98 -52 97 -108 -2 -181 l-38 -28 -46 24 c-50 25 -114
31 -158 15 l-25 -10 27 -29 c21 -23 29 -27 35 -16 10 18 22 18 53 -2 23 -16
24 -18 8 -35 -15 -17 -15 -20 5 -45 12 -15 21 -32 21 -39 0 -15 -70 -26 -71
-10 0 5 -5 -2 -11 -17 -8 -25 -15 -28 -52 -28 -23 0 -52 -7 -64 -16 -12 -8
-30 -14 -40 -12 -9 1 -22 -1 -29 -5 -14 -9 -63 12 -63 27 1 6 7 28 14 48 11
31 11 40 1 48 -10 8 -16 7 -23 -6 -8 -14 -13 -15 -24 -7 -17 13 -88 27 -88 16
0 -4 7 -17 15 -27 13 -18 15 -18 21 -2 5 14 9 15 15 4 14 -21 10 -55 -7 -72
-20 -21 -34 -12 -35 22 -1 17 -3 21 -6 10 -2 -10 -9 -18 -15 -18 -14 0 -1 101
18 140 12 23 13 37 6 58 -8 19 -11 22 -11 8 -1 -16 -7 -18 -42 -13 -52 7 -54
10 -39 47 8 20 19 30 34 30 17 0 14 6 -23 38 -30 26 -41 41 -33 46 7 4 22 -4
37 -22 28 -34 73 -55 106 -50 25 3 54 45 64 93 7 30 7 30 -9 8 -10 -13 -26
-28 -37 -34 -28 -14 -83 5 -109 39 -11 15 -17 19 -14 10 4 -13 1 -18 -13 -18
-10 0 -24 -5 -31 -12 -8 -8 -15 -8 -26 1 -15 13 -49 78 -61 118 l-6 22 43 -18
c48 -21 148 -38 148 -24 -1 4 -28 20 -61 35 l-59 27 13 33 14 33 107 -1 c58
-1 108 -3 110 -5 3 -2 1 -20 -3 -39 -7 -35 -16 -39 -56 -25 -19 6 -19 6 -2 -5
11 -7 25 -28 33 -46 8 -19 18 -32 23 -30 5 3 11 32 15 65 9 75 59 177 123 250
47 54 153 131 180 131 7 0 32 -12 56 -26z m480 5 c32 -17 87 -71 87 -86 0 -8
-9 -38 -19 -68 -24 -68 -11 -81 19 -20 19 39 24 43 41 35 54 -29 60 -96 14
-140 -23 -22 -30 -23 -110 -16 -67 5 -92 3 -115 -9 -37 -19 -38 -24 -2 -17 26
4 26 4 -8 -20 -19 -14 -39 -23 -43 -20 -9 4 -5 46 8 92 7 24 7 24 -7 6 -8 -10
-17 -15 -20 -10 -3 5 8 25 24 44 l30 35 -4 -32 c-3 -18 -1 -33 4 -33 12 0 68
91 68 109 0 9 -11 -2 -25 -24 l-24 -40 -1 92 c0 87 1 93 26 112 31 25 29 24
57 10z m-342 -707 c-16 -30 -13 -117 5 -184 14 -49 15 -63 4 -83 -13 -23 -17
-25 -107 -24 -92 1 -95 1 -148 -35 -61 -40 -69 -52 -27 -41 l27 7 -22 -24
c-13 -14 -23 -30 -23 -36 0 -6 -17 -23 -38 -37 -34 -23 -42 -24 -94 -15 -32 5
-66 14 -77 19 -11 6 -22 7 -25 2 -11 -16 -59 -22 -88 -10 -16 7 -31 22 -34 36
-5 20 2 34 42 74 l48 49 -34 35 c-29 29 -32 38 -20 45 12 7 125 7 125 -1 0 -1
28 -3 62 -4 44 -2 66 2 74 12 8 9 22 12 42 7 16 -3 32 -2 36 2 3 5 27 16 54
25 l47 17 0 -34 c0 -50 17 -41 23 11 5 53 7 55 37 58 20 1 22 5 17 50 -3 33
-1 47 7 44 6 -3 29 10 51 29 43 36 53 37 36 6z m129 -230 c49 -37 63 -32 19 6
-24 22 -53 55 -63 73 l-20 34 53 -45 c29 -25 87 -72 129 -104 42 -32 67 -56
54 -52 -34 11 -26 -3 11 -19 25 -10 58 -12 124 -8 89 6 90 6 111 -22 13 -16
25 -38 28 -51 7 -25 -19 -69 -49 -86 -17 -9 -23 -6 -40 16 -30 42 -38 30 -17
-24 11 -27 16 -50 11 -50 -4 0 -13 17 -19 39 -7 21 -19 44 -27 51 -18 15 -19
2 -4 -37 6 -15 15 -43 19 -61 8 -31 5 -35 -30 -58 -36 -24 -40 -25 -68 -10
-36 18 -44 45 -36 123 3 32 1 69 -4 83 -9 21 -11 22 -11 5 -1 -15 -6 -12 -26
17 -25 36 -106 103 -178 147 -45 27 -53 41 -62 106 l-8 50 39 -52 c22 -28 51
-60 64 -71z m-801 28 c0 -8 -27 -33 -60 -55 -54 -35 -119 -104 -119 -125 0 -5
26 17 58 49 61 60 126 100 139 87 9 -8 -1 -17 -97 -86 -35 -25 -75 -63 -89
-84 -25 -38 -26 -38 -32 -15 -4 13 -7 -19 -8 -72 -1 -77 -5 -101 -18 -117 -30
-35 -56 -35 -101 -2 -51 37 -61 69 -39 131 10 26 17 52 17 58 0 22 -22 -1 -39
-41 l-16 -39 -28 21 c-44 35 -50 55 -31 95 24 51 45 59 137 52 57 -5 88 -3
113 8 41 17 45 28 7 19 -26 -6 -24 -4 12 23 22 17 72 55 110 86 71 56 83 57
84 7z"/>
<path d="M1162 1439 c-22 -16 -60 -58 -83 -92 -30 -44 -40 -54 -35 -34 13 55
-3 24 -34 -68 -29 -83 -35 -92 -46 -77 -12 15 -13 14 -14 -13 0 -41 -27 -78
-52 -72 -12 4 -18 1 -15 -6 2 -7 19 -12 38 -12 24 0 40 -7 53 -23 l19 -24 23
26 c14 14 40 28 61 31 66 11 99 25 122 49 25 26 51 103 51 150 1 30 1 30 16
11 15 -19 16 -18 9 20 -3 22 -17 64 -31 94 -29 64 -28 58 -6 64 11 3 8 5 -9 6
-14 0 -43 -13 -67 -30z"/>
</g>
</svg>
