<svg width="1026" height="1585" viewBox="0 0 1026 1585" fill="none" xmlns="http://www.w3.org/2000/svg">
<path d="M126.944 1574.3C145.444 1585.3 167.644 1587.5 187.744 1581C192.044 1579.6 196.344 1577.8 200.344 1575.6L228.844 1560.2C244.844 1551.5 254.844 1534.7 254.844 1516.5V1406.5L412.244 1362.6L306.544 1333.2L232.344 1312.5L216.944 1324.5L176.144 1356.3C174.244 1358 172.544 1359.3 171.144 1360.4C169.344 1361.9 167.744 1362.9 166.844 1363.6L166.344 1364L165.744 1364.3C164.044 1365.4 161.644 1367 158.944 1368.5C154.644 1370.9 150.344 1373 145.944 1374.6C142.944 1375.7 140.144 1376.7 137.544 1377.4C128.744 1379.9 119.644 1381.1 110.544 1381.1C99.6443 1381.1 88.8443 1379.3 78.3443 1375.7L47.5443 1365.1C44.4443 1364.1 41.4443 1362.8 38.4443 1361.5C27.2443 1356.7 16.8444 1350.2 7.64435 1342.3L0.944339 1374C-1.15566 1383.8 2.84435 1393.8 11.1444 1399.6L66.9443 1438.2L56.3443 1514.8C54.9443 1524.7 59.6443 1534.5 68.3443 1539.6L126.944 1574.3Z" fill="black"/>
<path d="M957.744 1031.1L899.044 996.4C876.544 983.1 848.644 982.6 825.644 995L809.444 1003.8L797.144 1010.5C781.144 1019.2 771.144 1035.9 771.144 1054.1V1159.4L596.844 1208L702.544 1237.5L781.544 1259.5L797.544 1255L808.844 1246.2L849.844 1214.2C867.944 1198.3 891.144 1189.6 915.244 1189.6C926.144 1189.6 936.944 1191.4 947.444 1195L978.044 1205.5C992.844 1210.5 1006.34 1218.3 1018.14 1228.2L1024.94 1196.6C1027.04 1186.8 1023.04 1176.7 1014.74 1171L959.044 1132.4L969.644 1055.8C971.044 1046 966.344 1036.2 957.744 1031.1Z" fill="black"/>
<path d="M15.1442 1263.3C16.8442 1271.2 19.7442 1278.6 23.6442 1285.4C32.5442 1300.6 46.6441 1312.4 63.7441 1318.3L94.4442 1328.8C99.7442 1330.6 105.144 1331.5 110.544 1331.5C113.144 1331.5 115.844 1331.3 118.344 1330.9C120.244 1330.6 122.144 1330.2 124.044 1329.7C125.544 1329.3 126.944 1328.8 128.344 1328.3C130.544 1327.5 132.544 1326.5 134.644 1325.3C136.044 1324.6 137.244 1323.7 138.544 1322.9C139.144 1322.5 139.844 1322 140.444 1321.5C141.644 1320.5 142.944 1319.6 144.144 1318.5L186.344 1285.5L221.544 1258L319.844 1285.5L504.444 1337L771.044 1411.4V1516.6C771.044 1534.8 781.044 1551.6 797.044 1560.3L808.044 1566.3L825.544 1575.8C836.644 1581.8 848.844 1584.8 861.044 1584.8C874.144 1584.8 887.344 1581.3 898.944 1574.4L957.644 1539.8C966.244 1534.7 971.044 1524.9 969.644 1515L959.044 1438.4L1014.74 1399.8C1023.04 1394.1 1027.04 1384 1024.94 1374.2L1010.74 1307.5C1009.04 1299.6 1006.14 1292.2 1002.24 1285.5C993.344 1270.3 979.244 1258.5 962.044 1252.6L931.344 1242.1C926.044 1240.3 920.644 1239.4 915.144 1239.4C902.844 1239.4 890.844 1243.9 881.544 1252.5L839.244 1285.5L799.644 1316.4L688.844 1285.5L504.244 1234L254.544 1164.3V1054.3C254.544 1036.1 244.544 1019.3 228.544 1010.6L200.044 995.2C188.944 989.2 176.744 986.2 164.544 986.2C151.444 986.2 138.344 989.6 126.644 996.5L85.1442 1021L67.9442 1031.2C59.3442 1036.2 54.5442 1046.1 55.9442 1056L66.5441 1132.6L10.7441 1171.2C2.54415 1176.9 -1.55587 1187 0.544133 1196.8L15.1442 1263.3Z" fill="black"/>
<path d="M997.144 371.3H941.344C925.944 263.8 871.144 169 791.944 102.2C792.844 104.4 793.344 106.9 793.344 109.5C793.344 120 784.844 128.5 774.344 128.5C763.844 128.5 755.244 120 755.244 109.5C755.244 99 763.744 90.5 774.344 90.5C775.544 90.5 776.744 90.7 777.844 90.8C704.544 33.9 612.444 0 512.444 0C412.444 0 320.444 33.9 247.144 90.8C248.244 90.6 249.444 90.5 250.644 90.5C261.144 90.5 269.644 99 269.644 109.5C269.644 120 261.144 128.5 250.644 128.5C240.144 128.5 231.544 120 231.544 109.5C231.544 106.9 232.044 104.4 232.944 102.2C217.144 115.5 202.344 130 188.644 145.4C181.344 153.6 174.444 162 167.744 170.8C124.344 227.6 94.7439 295.6 83.8439 369.6C83.8439 369.7 83.8439 369.7 83.8439 369.8C83.7439 370.3 83.644 370.8 83.644 371.4H33.444C16.444 371.4 2.54395 385.3 2.54395 402.4C2.54395 419.4 16.444 433.3 33.444 433.3H85.3439V776.3C85.3439 777.7 85.344 779.1 85.444 780.5C85.444 780.8 85.444 781 85.444 781.3C85.444 782.7 85.544 784 85.644 785.4C85.644 785.7 85.644 785.9 85.644 786.2C85.744 787.5 85.844 788.8 85.944 790.1C85.944 790.2 85.944 790.3 85.944 790.5C86.044 791.9 86.244 793.2 86.444 794.6C86.444 794.9 86.5439 795.2 86.5439 795.5C86.7439 796.8 86.944 798.1 87.144 799.4C87.144 799.7 87.244 799.9 87.244 800.2C87.444 801.4 87.6439 802.6 87.8439 803.7C87.8439 803.9 87.944 804.2 87.944 804.4C88.244 805.7 88.444 806.9 88.744 808.2C88.844 808.6 88.944 808.9 88.944 809.3C89.244 810.5 89.544 811.8 89.944 813C90.044 813.3 90.144 813.6 90.144 813.8C90.444 814.9 90.7439 815.9 91.0439 816.9C91.1439 817.3 91.2439 817.6 91.3439 817.9C91.7439 819.1 92.144 820.2 92.444 821.4C92.544 821.8 92.7439 822.2 92.8439 822.6C93.2439 823.7 93.6439 824.7 94.0439 825.8C94.2439 826.2 94.3439 826.6 94.5439 827C94.8439 827.9 95.244 828.8 95.644 829.7C95.844 830.1 96.044 830.6 96.144 831C96.544 832 97.0439 833.1 97.5439 834.1C97.7439 834.6 97.944 835.1 98.244 835.5C98.644 836.3 98.9439 837 99.3439 837.8C99.6439 838.5 99.9439 839.1 100.344 839.8C100.744 840.5 101.044 841.2 101.444 841.9C101.744 842.4 102.044 843 102.244 843.5C102.744 844.4 103.244 845.3 103.744 846.2C104.044 846.8 104.444 847.3 104.744 847.9C105.044 848.4 105.344 848.9 105.744 849.5C106.344 850.4 106.844 851.3 107.444 852.2C107.744 852.7 108.044 853.1 108.344 853.6C108.744 854.2 109.144 854.8 109.544 855.5C109.844 855.9 110.044 856.2 110.344 856.6C111.044 857.7 111.844 858.7 112.644 859.7C112.744 859.8 112.844 860 112.944 860.2C124.444 875.6 139.044 888.7 156.344 898.4L299.044 979.3V1069.2C299.044 1093.4 311.344 1115.3 330.744 1128C330.944 1128.1 331.144 1128.3 331.344 1128.4C331.744 1128.7 332.244 1129 332.644 1129.2L333.644 1129.8C334.044 1130 334.444 1130.3 334.844 1130.5C335.244 1130.7 335.644 1131 336.044 1131.2C336.344 1131.4 336.744 1131.6 337.044 1131.7C337.844 1132.1 338.544 1132.5 339.344 1132.8C339.544 1132.9 339.744 1133 339.944 1133.1C340.544 1133.4 341.144 1133.7 341.744 1133.9C342.044 1134 342.344 1134.1 342.544 1134.3C343.144 1134.5 343.644 1134.7 344.244 1135C344.544 1135.1 344.844 1135.2 345.144 1135.3C345.744 1135.5 346.344 1135.7 346.944 1135.9C347.244 1136 347.444 1136.1 347.744 1136.2C348.644 1136.5 349.444 1136.7 350.344 1137C350.744 1137.2 351.244 1137.2 351.644 1137.4L360.644 1139.7L404.944 1074.2L401.144 1150.3L491.144 1173.8L511.444 1097.1L533.944 1173.9L625.044 1150.2L621.344 1075.9L664.644 1139.9L674.344 1137.4C705.244 1129.4 726.944 1101.4 726.944 1069.3V979.4L869.644 898.5C913.644 873.5 940.944 826.7 940.944 776.1V433.1H996.744C1012.64 433.1 1025.74 420.1 1025.74 404.1V400.2C1026.14 384.4 1013.14 371.3 997.144 371.3ZM812.544 152.3C823.044 152.3 831.644 160.8 831.644 171.3C831.644 181.8 823.144 190.4 812.544 190.4C802.044 190.4 793.544 181.9 793.544 171.3C793.444 160.8 802.044 152.3 812.544 152.3ZM774.444 219C784.944 219 793.444 227.5 793.444 238C793.444 244.3 790.344 249.9 785.644 253.4L755.644 240.6C755.544 239.7 755.444 238.9 755.444 238C755.444 227.5 763.944 219 774.444 219ZM736.344 152.3C746.844 152.3 755.344 160.8 755.344 171.3C755.344 181.8 746.844 190.3 736.344 190.3C725.844 190.3 717.344 181.8 717.344 171.2C717.344 165.8 719.544 161 723.144 157.5C726.544 154.4 731.244 152.3 736.344 152.3ZM698.244 90.4C708.744 90.4 717.344 98.9 717.344 109.4C717.344 119.9 708.844 128.4 698.244 128.4C687.744 128.4 679.244 119.9 679.244 109.4C679.244 98.9 687.744 90.4 698.244 90.4ZM660.244 38.1C670.744 38.1 679.244 46.6 679.244 57.1C679.244 67.6 670.744 76.1 660.244 76.1C649.744 76.1 641.144 67.6 641.144 57.1C641.144 46.6 649.644 38.1 660.244 38.1ZM679.244 171.3C679.244 181.8 670.744 190.4 660.244 190.4C649.744 190.4 641.144 181.9 641.144 171.3C641.144 160.8 649.644 152.3 660.244 152.3C670.744 152.3 679.244 160.8 679.244 171.3ZM622.144 90.4C632.644 90.4 641.144 98.9 641.144 109.4C641.144 115.6 638.244 121.1 633.644 124.5C630.444 127 626.444 128.4 622.144 128.4C614.844 128.4 608.444 124.3 605.344 118.2C603.944 115.6 603.144 112.5 603.144 109.3C603.044 99 611.544 90.4 622.144 90.4ZM588.744 38.1C599.244 38.1 607.844 46.6 607.844 57.1C607.844 67.6 599.344 76.1 588.744 76.1C578.144 76.1 569.644 67.6 569.644 57.1C569.644 46.6 578.244 38.1 588.744 38.1ZM512.544 38.1C523.044 38.1 531.544 46.6 531.544 57.1C531.544 67.6 523.044 76.1 512.544 76.1C502.044 76.1 493.544 67.6 493.544 57.1C493.544 46.6 502.044 38.1 512.544 38.1ZM431.644 38.1C442.144 38.1 450.644 46.6 450.644 57.1C450.644 67.6 442.144 76.1 431.644 76.1C421.144 76.1 412.644 67.6 412.644 57.1C412.644 46.6 421.144 38.1 431.644 38.1ZM393.544 90.4C404.044 90.4 412.644 98.9 412.644 109.4C412.644 113.6 411.244 117.5 408.944 120.6C405.444 125.3 399.944 128.4 393.644 128.4C390.644 128.4 387.744 127.7 385.244 126.4C378.944 123.3 374.644 116.8 374.644 109.4C374.544 99 383.044 90.4 393.544 90.4ZM355.544 38.1C366.044 38.1 374.544 46.6 374.544 57.1C374.544 67.6 366.044 76.1 355.544 76.1C345.044 76.1 336.544 67.6 336.544 57.1C336.544 46.6 344.944 38.1 355.544 38.1ZM374.544 171.3C374.544 181.8 366.044 190.4 355.544 190.4C345.044 190.4 336.544 181.9 336.544 171.3C336.544 160.8 345.044 152.3 355.544 152.3C366.044 152.3 374.544 160.8 374.544 171.3ZM322.144 90.4C332.644 90.4 341.144 98.9 341.144 109.4C341.144 119.9 332.644 128.4 322.144 128.4C311.644 128.4 303.144 119.9 303.144 109.4C303.144 98.9 311.644 90.4 322.144 90.4ZM322.344 219.6C322.044 219.5 321.644 219.4 321.344 219.4L301.344 227.9C304.744 222.6 310.644 219 317.444 219C318.744 219 320.044 219.1 321.344 219.4C321.644 219.5 322.044 219.5 322.344 219.6ZM284.044 152.3C290.044 152.3 295.344 155.1 298.844 159.3C301.544 162.6 303.144 166.8 303.144 171.3C303.144 181.8 294.644 190.4 284.144 190.4C274.344 190.4 266.344 183.1 265.244 173.7C265.144 172.9 265.044 172.1 265.044 171.3C265.044 160.8 273.544 152.3 284.044 152.3ZM240.244 253.9C240.944 254.3 240.944 254.3 240.244 253.9C235.144 250.5 231.744 244.7 231.744 238.1C231.744 227.6 240.244 219.1 250.844 219.1C261.344 219.1 269.844 227.6 269.844 238.1C269.844 239.2 269.144 243.3 269.544 241.5L240.244 253.9ZM207.944 152.3C218.444 152.3 226.944 160.8 226.944 171.3C226.944 181.8 218.444 190.4 207.944 190.4C197.444 190.4 188.944 181.9 188.944 171.3C188.844 160.8 197.444 152.3 207.944 152.3ZM435.744 777.1C434.744 818 408.044 860.3 293.144 842.6C63.844 807.3 167.944 586.6 207.544 564.1C209.044 563.3 210.344 562.7 211.644 562.5C212.244 562.4 212.744 562.3 213.344 562.1C213.544 562.1 213.744 562 213.944 562C214.344 561.9 214.744 561.9 215.144 561.8C215.344 561.8 215.644 561.7 215.844 561.7C216.244 561.7 216.544 561.6 216.944 561.6C217.244 561.6 217.444 561.6 217.744 561.5C218.044 561.5 218.444 561.4 218.744 561.4C219.044 561.4 219.244 561.4 219.544 561.4C219.844 561.4 220.244 561.4 220.544 561.3C220.844 561.3 221.144 561.3 221.344 561.3C221.644 561.3 222.044 561.3 222.344 561.3C222.644 561.3 222.944 561.3 223.244 561.3C223.544 561.3 223.944 561.3 224.244 561.3C224.544 561.3 224.844 561.3 225.144 561.3C225.444 561.3 225.844 561.3 226.144 561.3C226.444 561.3 226.744 561.3 227.044 561.4C227.344 561.4 227.744 561.4 228.044 561.5C228.344 561.5 228.644 561.6 228.944 561.6C229.244 561.6 229.644 561.7 229.944 561.7C230.244 561.7 230.544 561.8 230.844 561.8C231.144 561.8 231.544 561.9 231.844 561.9C232.144 561.9 232.444 562 232.744 562C233.044 562 233.444 562.1 233.744 562.2C234.044 562.3 234.344 562.3 234.644 562.4C234.944 562.5 235.344 562.5 235.644 562.6C235.944 562.7 236.244 562.7 236.544 562.8C236.944 562.9 237.244 562.9 237.544 563C237.844 563.1 238.144 563.1 238.444 563.2C238.844 563.3 239.144 563.4 239.444 563.4C239.744 563.5 240.044 563.6 240.444 563.6C240.744 563.7 241.144 563.8 241.444 563.9C241.744 564 242.044 564.1 242.444 564.2C242.744 564.3 243.144 564.4 243.544 564.5C243.844 564.6 244.144 564.7 244.544 564.8C244.944 564.9 245.244 565 245.544 565.1C245.844 565.2 246.244 565.3 246.544 565.4C246.844 565.5 247.244 565.6 247.644 565.7C247.944 565.8 248.244 565.9 248.644 566C249.044 566.1 249.344 566.2 249.744 566.4C250.044 566.5 250.444 566.6 250.744 566.7C251.144 566.8 251.444 567 251.844 567.1C252.144 567.2 252.544 567.3 252.844 567.5C253.244 567.6 253.544 567.8 253.944 567.9C254.244 568 254.644 568.1 254.944 568.3C255.344 568.4 255.644 568.6 256.044 568.8C256.344 568.9 256.644 569.1 257.044 569.2C257.444 569.4 257.844 569.5 258.144 569.7C258.444 569.8 258.744 570 259.144 570.1C259.544 570.3 259.944 570.4 260.344 570.6L261.244 571C261.644 571.2 262.044 571.4 262.444 571.6C262.744 571.7 263.044 571.9 263.344 572C263.744 572.2 264.144 572.4 264.544 572.6C264.844 572.7 265.144 572.9 265.444 573C265.844 573.2 266.244 573.4 266.744 573.6C267.044 573.7 267.344 573.9 267.544 574C268.044 574.3 268.544 574.5 269.044 574.8C269.244 574.9 269.444 575 269.644 575.1C270.344 575.5 271.044 575.9 271.744 576.2C271.944 576.3 272.144 576.4 272.344 576.5C272.844 576.8 273.344 577 273.844 577.3C274.144 577.5 274.444 577.6 274.744 577.8C275.144 578 275.544 578.3 276.044 578.5C276.344 578.7 276.644 578.9 276.944 579C277.344 579.2 277.744 579.5 278.144 579.7C278.444 579.9 278.744 580.1 279.144 580.3C279.544 580.5 279.944 580.8 280.344 581C280.644 581.2 281.044 581.4 281.344 581.6C281.744 581.8 282.144 582.1 282.544 582.3C282.844 582.5 283.244 582.7 283.544 582.9C283.944 583.1 284.344 583.4 284.644 583.6C284.944 583.8 285.344 584 285.644 584.3C286.044 584.5 286.444 584.8 286.744 585C287.044 585.2 287.444 585.4 287.744 585.7C288.144 585.9 288.544 586.2 288.844 586.4C289.144 586.6 289.544 586.9 289.844 587.1C290.244 587.3 290.644 587.6 290.944 587.8C291.244 588 291.644 588.3 291.944 588.5C292.344 588.8 292.644 589 293.044 589.3C293.344 589.5 293.744 589.8 294.044 590C294.444 590.3 294.844 590.5 295.144 590.8C295.444 591 295.844 591.3 296.144 591.5C296.544 591.8 296.944 592 297.244 592.3C297.544 592.5 297.944 592.8 298.244 593C298.644 593.3 299.044 593.5 299.344 593.8C299.644 594 300.044 594.3 300.344 594.5C300.744 594.8 301.144 595 301.444 595.3C301.844 595.5 302.144 595.8 302.444 596.1C302.844 596.4 303.144 596.7 303.544 596.9C303.944 597.2 304.244 597.4 304.544 597.7C304.944 598 305.244 598.3 305.644 598.5C305.944 598.8 306.344 599 306.644 599.3C307.044 599.6 307.444 599.9 307.744 600.2C308.044 600.5 308.444 600.7 308.744 601C309.144 601.3 309.544 601.6 309.844 601.9C310.144 602.2 310.544 602.4 310.844 602.7C311.244 603 311.644 603.3 311.944 603.6C312.244 603.9 312.644 604.1 312.944 604.4C313.344 604.7 313.744 605 314.044 605.3C314.344 605.6 314.744 605.8 315.044 606.1C315.444 606.4 315.844 606.7 316.144 607C316.444 607.3 316.744 607.5 317.144 607.8C317.544 608.1 317.944 608.4 318.344 608.7C318.644 609 318.944 609.2 319.344 609.5C319.744 609.8 320.144 610.1 320.444 610.4C320.744 610.7 321.044 610.9 321.444 611.2C321.844 611.5 322.244 611.8 322.544 612.1C322.844 612.4 323.144 612.6 323.544 612.9C323.944 613.2 324.344 613.5 324.744 613.9C325.044 614.2 325.344 614.4 325.644 614.7C326.044 615 326.444 615.4 326.844 615.7C327.144 615.9 327.444 616.2 327.744 616.4C328.144 616.8 328.644 617.1 329.044 617.5C329.344 617.7 329.544 617.9 329.844 618.2C330.344 618.6 330.744 619 331.244 619.4C331.444 619.6 331.644 619.8 331.844 620C333.244 621.2 334.544 622.4 335.944 623.6C336.144 623.8 336.344 623.9 336.444 624.1C336.944 624.5 337.444 625 337.944 625.4C338.144 625.6 338.444 625.8 338.644 626.1C339.044 626.5 339.544 626.9 339.944 627.3C340.244 627.5 340.444 627.8 340.744 628C341.144 628.4 341.544 628.7 341.944 629.1C342.244 629.4 342.544 629.6 342.844 629.9C343.244 630.2 343.644 630.6 343.944 630.9C344.244 631.2 344.544 631.5 344.844 631.7C345.244 632 345.544 632.4 345.944 632.7C346.244 633 346.544 633.3 346.844 633.5C347.244 633.8 347.544 634.2 347.944 634.5C348.244 634.8 348.544 635 348.844 635.3C349.244 635.6 349.544 636 349.944 636.3C350.244 636.6 350.544 636.9 350.844 637.1C351.244 637.4 351.544 637.8 351.944 638.1C352.244 638.4 352.544 638.7 352.844 638.9C353.144 639.2 353.544 639.6 353.844 639.9C354.144 640.2 354.444 640.4 354.744 640.7C355.044 641 355.444 641.4 355.744 641.7C356.044 642 356.344 642.3 356.644 642.5C356.944 642.8 357.344 643.2 357.644 643.5C357.944 643.8 358.244 644.1 358.444 644.3C358.744 644.6 359.144 645 359.444 645.3C359.744 645.6 360.044 645.9 360.344 646.2C360.644 646.5 361.044 646.8 361.344 647.2C361.644 647.5 361.944 647.7 362.144 648C362.444 648.3 362.844 648.7 363.144 649C363.444 649.3 363.644 649.5 363.944 649.8C364.244 650.1 364.644 650.5 364.944 650.8C365.244 651.1 365.444 651.3 365.744 651.6C366.044 651.9 366.444 652.3 366.744 652.6C367.044 652.9 367.244 653.1 367.544 653.4C367.844 653.7 368.244 654.1 368.544 654.4C368.744 654.6 369.044 654.9 369.344 655.2C369.644 655.5 370.044 655.9 370.344 656.2C370.544 656.4 370.844 656.7 371.044 656.9C371.344 657.3 371.744 657.6 372.044 657.9C372.244 658.1 372.544 658.4 372.744 658.6C373.044 658.9 373.444 659.3 373.744 659.6C373.944 659.8 374.244 660.1 374.444 660.3C374.744 660.6 375.044 661 375.444 661.3C375.644 661.5 375.944 661.8 376.144 662C376.444 662.3 376.844 662.7 377.144 663C377.344 663.2 377.544 663.5 377.844 663.7C378.144 664 378.544 664.4 378.844 664.7C379.044 664.9 379.344 665.2 379.544 665.4C379.844 665.8 380.244 666.1 380.544 666.5C380.744 666.7 380.944 666.9 381.144 667.1C381.544 667.5 381.844 667.8 382.144 668.2C382.344 668.4 382.544 668.6 382.744 668.8C383.144 669.2 383.544 669.6 383.944 670C384.044 670.1 384.244 670.3 384.344 670.4C384.844 670.9 385.244 671.4 385.744 671.9C385.844 671.9 385.844 672 385.944 672.1C386.944 673.2 387.944 674.3 388.944 675.4C388.944 675.4 389.044 675.4 389.044 675.5C389.544 676 389.944 676.5 390.444 677C390.544 677.1 390.644 677.2 390.744 677.3C391.144 677.7 391.544 678.1 391.844 678.5C391.944 678.6 392.144 678.8 392.244 679C392.544 679.4 392.944 679.7 393.244 680.1C393.344 680.2 393.544 680.4 393.644 680.5C393.944 680.9 394.344 681.2 394.644 681.6C394.744 681.8 394.944 681.9 395.044 682.1C395.344 682.5 395.644 682.8 395.944 683.1C396.144 683.3 396.244 683.4 396.444 683.6C396.744 683.9 397.044 684.2 397.344 684.5C397.544 684.7 397.644 684.8 397.844 685C398.144 685.3 398.444 685.6 398.744 686C398.844 686.2 399.044 686.3 399.144 686.5C399.444 686.8 399.744 687.1 399.944 687.4C400.144 687.6 400.244 687.7 400.344 687.9C400.644 688.2 400.844 688.5 401.144 688.8C401.244 689 401.444 689.1 401.544 689.3C401.844 689.6 402.044 689.9 402.344 690.2C402.444 690.4 402.644 690.5 402.744 690.7C403.044 691 403.244 691.3 403.544 691.6C403.644 691.7 403.744 691.9 403.944 692C404.244 692.3 404.444 692.6 404.744 692.9C404.844 693 404.944 693.2 405.144 693.3C405.344 693.6 405.644 693.8 405.844 694.1C405.944 694.3 406.144 694.4 406.244 694.6C406.444 694.9 406.644 695.1 406.944 695.4C407.044 695.6 407.144 695.7 407.344 695.8C407.544 696.1 407.744 696.3 408.044 696.6C408.144 696.7 408.244 696.9 408.444 697C408.644 697.3 408.944 697.5 409.144 697.8C409.244 697.9 409.344 698 409.444 698.1C409.644 698.4 409.944 698.6 410.144 698.9C410.244 699 410.344 699.1 410.444 699.2C410.644 699.4 410.844 699.7 411.044 700C411.144 700.1 411.244 700.2 411.344 700.3C411.544 700.5 411.744 700.8 411.944 701C412.044 701.1 412.144 701.2 412.144 701.3C412.344 701.5 412.544 701.8 412.744 702C412.844 702.1 412.844 702.2 412.944 702.3C413.144 702.6 413.344 702.8 413.644 703.1L413.744 703.2C413.944 703.5 414.244 703.7 414.444 704L414.544 704.1C417.744 707.9 419.944 710.5 420.744 711.6C421.044 712 421.244 712.3 421.444 712.8C421.444 712.8 421.444 712.9 421.544 712.9C421.544 712.9 421.544 713 421.644 713.1C421.744 713.2 421.744 713.4 421.844 713.5C421.844 713.6 421.944 713.7 421.944 713.7C422.044 713.8 422.044 714 422.144 714.2C422.144 714.3 422.244 714.4 422.244 714.5C422.344 714.7 422.444 714.9 422.444 715.1C422.544 715.2 422.544 715.3 422.644 715.5C422.744 715.7 422.844 715.9 422.944 716.2C423.044 716.3 423.044 716.5 423.144 716.6C423.244 716.9 423.344 717.1 423.444 717.4C423.544 717.5 423.544 717.7 423.644 717.8C423.744 718.1 423.944 718.4 424.044 718.8C424.144 718.9 424.144 719 424.144 719.1C424.344 719.6 424.544 720.1 424.744 720.6C424.944 721.1 425.144 721.6 425.344 722.2C425.444 722.4 425.444 722.5 425.544 722.7C425.644 723.1 425.844 723.5 425.944 723.9C426.044 724.1 426.144 724.4 426.144 724.6C426.244 725 426.444 725.3 426.544 725.7C426.644 725.9 426.744 726.2 426.844 726.5C426.944 726.9 427.144 727.3 427.244 727.7C427.344 728 427.444 728.2 427.544 728.5C427.644 728.9 427.844 729.3 427.944 729.7C428.044 730 428.144 730.3 428.244 730.6C428.344 731 428.544 731.4 428.644 731.8C428.744 732.1 428.844 732.4 428.944 732.7C429.044 733.1 429.244 733.5 429.344 734C429.444 734.3 429.544 734.6 429.644 735C429.744 735.4 429.944 735.9 430.044 736.4C430.144 736.7 430.244 737 430.344 737.4C430.444 737.9 430.644 738.4 430.744 738.9C430.844 739.2 430.944 739.5 430.944 739.8C431.044 740.4 431.244 740.9 431.344 741.5C431.444 741.8 431.444 742 431.544 742.3C431.744 743.1 431.944 744 432.144 744.8V744.9C432.344 745.7 432.544 746.5 432.644 747.4C432.744 747.7 432.744 748 432.844 748.3C432.944 748.9 433.044 749.5 433.244 750.1C433.344 750.4 433.344 750.8 433.444 751.1C433.544 751.7 433.644 752.2 433.744 752.8C433.844 753.2 433.844 753.6 433.944 753.9C434.044 754.4 434.144 755 434.244 755.5C434.344 755.9 434.344 756.3 434.444 756.7C434.544 757.2 434.644 757.8 434.644 758.3C434.644 758.7 434.744 759.1 434.844 759.5C434.944 760 434.944 760.6 435.044 761.1C435.044 761.5 435.144 761.9 435.144 762.3C435.144 762.9 435.244 763.4 435.244 763.9C435.244 764.3 435.344 764.7 435.344 765.1C435.344 765.7 435.444 766.2 435.444 766.8C435.444 767.2 435.544 767.6 435.544 768C435.544 768.6 435.644 769.2 435.644 769.8C435.644 770.2 435.644 770.6 435.644 771C435.644 771.6 435.644 772.3 435.644 772.9C435.644 773.2 435.644 773.6 435.644 773.9C435.844 775.1 435.844 776.1 435.744 777.1ZM445.044 185C444.644 185.4 444.244 185.8 443.744 186.1C444.144 185.7 444.544 185.4 445.044 185C443.244 185.3 441.444 185.6 439.644 185.9L423.844 188.7C417.244 185.7 412.744 179.1 412.744 171.4C412.744 160.9 421.244 152.4 431.744 152.4C442.244 152.4 450.744 160.9 450.744 171.4C450.744 176.7 448.544 181.5 445.044 185ZM451.044 113C450.844 111.9 450.744 110.7 450.744 109.5C450.744 99 459.244 90.5 469.744 90.5C480.144 90.5 488.544 98.8 488.844 109.1V109.6C488.844 120.1 480.344 128.6 469.744 128.6C460.444 128.5 452.744 121.9 451.044 113ZM472.944 918.2C453.244 909.6 496.044 822.8 496.044 822.8C496.044 822.8 517.544 937.7 472.944 918.2ZM495.544 179.7C494.344 177.2 493.544 174.3 493.544 171.3C493.544 160.8 502.044 152.3 512.544 152.3C523.044 152.3 531.544 160.8 531.544 171.3C531.544 174.3 530.844 177.1 529.644 179.6C518.344 179.2 506.944 179.3 495.544 179.7ZM558.644 918.2C514.044 937.7 535.544 822.8 535.544 822.8C535.544 822.8 578.344 909.7 558.644 918.2ZM564.844 111.6C563.844 121.1 555.744 128.5 545.944 128.5C535.444 128.5 526.944 120 526.944 109.5C526.944 109.2 526.944 108.9 527.044 108.5C527.544 98.4 535.844 90.4 546.044 90.4C556.544 90.4 565.144 98.9 565.144 109.4C564.944 110.2 564.944 110.9 564.844 111.6ZM574.344 183.8C571.444 180.5 569.644 176.1 569.644 171.3C569.644 160.8 578.144 152.3 588.744 152.3C599.344 152.3 607.844 160.8 607.844 171.3C607.844 178.4 603.944 184.5 598.344 187.8L587.344 185.8C582.944 185.1 578.644 184.4 574.344 183.8ZM875.544 729C874.744 733.9 873.644 738.8 872.344 743.6C871.844 745.2 871.444 746.8 870.844 748.4C870.044 750.8 869.244 753.2 868.244 755.5C867.344 757.8 866.344 760.2 865.244 762.5C857.644 778.6 846.044 793.5 829.344 806.2C807.244 823 776.144 836 733.644 842.5C527.344 874.4 605.444 712.7 605.444 712.7C605.444 712.7 735.444 551.4 811.244 561.6C811.744 561.7 812.244 561.7 812.744 561.8C813.544 561.9 814.344 562.1 815.144 562.3C816.044 562.5 817.044 562.8 818.044 563.3C838.144 573.1 877.144 638.5 877.344 704.1C877.444 712.5 876.844 720.8 875.544 729Z" fill="black"/>
</svg>
