<svg width="1863" height="212" viewBox="0 0 1863 212" fill="none" xmlns="http://www.w3.org/2000/svg">
<path d="M191 0.0999756H0.5V211.7H85.2V127H191V105.8H212.2V21.1H191V0.0999756ZM127.5 84.8H85.2V42.5H127.5V84.8Z" fill="black"/>
<path d="M444.1 0.0999756H274.8V21.2H253.7V211.7H338.3V127.1H380.6V211.7H465.2V21.2H444.1V0.0999756ZM380.6 84.8H338.3V42.5H380.6V84.8Z" fill="black"/>
<path d="M507.6 42.4H571.1V211.7H655.8V42.4H719.2V0.0999756H507.6V42.4Z" fill="black"/>
<path d="M888.6 84.8H846.2V0.0999756H761.6V211.8H846.2V127.1H888.6V211.8H973.2V0.0999756H888.6V84.8Z" fill="black"/>
<path d="M1269.5 169.4H1227.2V0.0999756H1142.5V169.4H1100.2V0.0999756H1015.6V211.8H1333V190.6H1354.2V0.0999756H1269.5V169.4Z" fill="black"/>
<path d="M1587 0.0999756H1417.7V21.2H1396.5V211.7H1481.2V127.1H1523.5V211.7H1608.2V21.2H1587V0.0999756ZM1523.5 84.8H1481.2V42.5H1523.5V84.8Z" fill="black"/>
<path d="M1862.1 84.8V21.3H1841V0.0999756H1650.5V211.7H1735.2V127H1777.5V211.7H1862.2V127H1841V84.7H1862.1V84.8ZM1777.5 84.8H1735.2V42.5H1777.5V84.8Z" fill="black"/>
</svg>
