<?xml version="1.0" encoding="UTF-8" standalone="no"?>
<svg
   xmlns:dc="http://purl.org/dc/elements/1.1/"
   xmlns:cc="http://creativecommons.org/ns#"
   xmlns:rdf="http://www.w3.org/1999/02/22-rdf-syntax-ns#"
   xmlns:svg="http://www.w3.org/2000/svg"
   xmlns="http://www.w3.org/2000/svg"
   xmlns:xlink="http://www.w3.org/1999/xlink"
   height="1000"
   width="1000"
   xml:space="preserve"
   viewBox="0 0 1000 1000"
   y="0px"
   x="0px"
   id="Calque_1"
   version="1.1"><metadata
   id="metadata165"><rdf:RDF><cc:Work
       rdf:about=""><dc:format>image/svg+xml</dc:format><dc:type
         rdf:resource="http://purl.org/dc/dcmitype/StillImage" /><dc:title></dc:title></cc:Work></rdf:RDF></metadata><defs
   id="defs163"><linearGradient
     id="linearGradient1448"><stop
       id="stop1444"
       offset="0"
       style="stop-color:#21214e;stop-opacity:1" /><stop
       id="stop1446"
       offset="1"
       style="stop-color:#000a15;stop-opacity:0.97685188" /></linearGradient><linearGradient
     id="linearGradient1438"><stop
       id="stop1434"
       offset="0"
       style="stop-color:#21214e;stop-opacity:1" /><stop
       id="stop1436"
       offset="1"
       style="stop-color:#000a15;stop-opacity:0.97685188" /></linearGradient><clipPath
     id="SVGID_2_"><use
       id="use7"
       style="overflow:visible"
       xlink:href="#SVGID_1_"
       x="0"
       y="0"
       width="100%"
       height="100%" /></clipPath><rect
     height="2000"
     width="2000"
     id="SVGID_1_"
     x="0"
     y="0" /><radialGradient
     r="500"
     fy="1500"
     fx="500"
     cy="1500"
     cx="500"
     gradientUnits="userSpaceOnUse"
     id="radialGradient1442"
     xlink:href="#linearGradient1438" /><radialGradient
     gradientUnits="userSpaceOnUse"
     r="500.04907"
     fy="1500"
     fx="500"
     cy="1500"
     cx="500"
     id="radialGradient1452"
     xlink:href="#linearGradient1448" /></defs>
<style
   id="style2"
   type="text/css">
	.st0{clip-path:url(#SVGID_2_);}
	.st1{fill:#FFFFFF;}
	.st2{fill:#00FFFF;}
	.st3{fill:none;}
	.st4{fill:#DD3652;}
	.st5{fill:#C42749;}
</style>

<g
   transform="translate(0,-1000)"
   id="layer1"><rect
     ry="91.29174"
     y="1000"
     x="0"
     height="1000"
     width="1000"
     id="rect1403"
     style="opacity:1;fill:url(#radialGradient1452);fill-opacity:1;stroke:url(#radialGradient1442);stroke-width:0.09812911;stroke-linecap:round;stroke-linejoin:round;stroke-miterlimit:4;stroke-dasharray:none;stroke-opacity:1" /></g><g
   transform="translate(0,-1000)"
   id="layer2" /><g
   id="g158"
   transform="matrix(0.46319948,0,0,0.46319948,48.61626,36.844923)"><defs
     id="defs5"><rect
       height="2000"
       width="2000"
       id="rect1323"
       x="0"
       y="0" /></defs><clipPath
     id="clipPath987"><use
       id="use985"
       style="overflow:visible"
       xlink:href="#SVGID_1_"
       x="0"
       y="0"
       width="100%"
       height="100%" /></clipPath><g
     transform="matrix(1.1979236,0,0,1.1979236,-239.59939,-16.558752)"
     id="g156"
     clip-path="url(#SVGID_2_)"
     class="st0"><path
       style="fill:#ffffff"
       id="path10"
       d="m 922,1412.9 -157.4,43.9 v 110 c 0,18.2 -10,35 -26,43.7 l -28.5,15.4 c -4.1,2.2 -8.3,4 -12.6,5.4 -20.1,6.5 -42.2,4.2 -60.8,-6.7 L 578,1589.9 c -8.6,-5.1 -13.4,-14.9 -12,-24.8 l 10.6,-76.6 -55.8,-38.6 c -8.2,-5.7 -12.3,-15.8 -10.2,-25.6 l 6.7,-31.7 c 9.2,7.9 19.6,14.4 30.8,19.2 v 0 c 3,1.3 6,2.5 9.1,3.6 L 588,1426 c 10.5,3.6 21.3,5.4 32.2,5.4 9.1,0 18.2,-1.2 27,-3.7 2.6,-0.7 5.4,-1.7 8.4,-2.8 4.4,-1.6 8.8,-3.7 13,-6.1 2.7,-1.5 5.1,-3 6.8,-4.2 l 0.6,-0.3 0.5,-0.4 c 0.9,-0.6 2.5,-1.7 4.3,-3.2 1.3,-1 3.1,-2.4 5,-4.1 l 40.8,-31.8 15.4,-12 74.2,20.7 z"
       class="st1" /><path
       style="fill:#ffffff"
       id="path12"
       d="m 1534.8,1246.9 -6.8,31.6 c -11.7,-9.9 -25.3,-17.7 -40.1,-22.7 l -30.6,-10.5 c -10.5,-3.6 -21.3,-5.4 -32.2,-5.4 -24.2,0 -47.3,8.8 -65.4,24.6 l -41,32 -11.3,8.8 -16,4.5 -79,-22 -105.7,-29.5 174.3,-48.6 v -105.3 c 0,-18.2 10,-35 26,-43.6 l 12.3,-6.7 16.2,-8.8 c 23,-12.5 50.8,-12 73.4,1.4 l 58.7,34.7 c 8.6,5.1 13.4,14.9 12,24.8 l -10.6,76.6 55.7,38.6 c 8.1,5.6 12.1,15.7 10.1,25.5 z"
       class="st1" /><g
       id="g18"><g
         id="g16"><path
           style="fill:#ffffff"
           id="path14"
           d="m 1524.6,1450 -55.7,38.6 10.6,76.6 c 1.4,9.9 -3.3,19.7 -12,24.8 l -58.7,34.6 c -11.7,6.9 -24.8,10.4 -37.9,10.4 -12.2,0 -24.4,-3 -35.5,-9 l -17.5,-9.5 -11,-6 c -16,-8.7 -26,-25.4 -26,-43.7 v -105.2 l -266.6,-74.4 -184.6,-51.5 -98.3,-27.5 -35.2,27.5 -42.2,33 c -1.1,1.1 -2.4,2.1 -3.7,3 -0.6,0.5 -1.2,1 -1.9,1.4 -1.3,0.8 -2.6,1.7 -3.9,2.4 -2,1.1 -4.1,2.2 -6.3,3 -1.4,0.5 -2.9,1 -4.3,1.4 -1.9,0.5 -3.8,1 -5.7,1.2 -2.6,0.4 -5.2,0.6 -7.8,0.6 -5.4,0 -10.9,-0.9 -16.1,-2.7 l -30.7,-10.5 c -17.1,-5.9 -31.2,-17.7 -40.1,-32.9 -3.9,-6.8 -6.9,-14.2 -8.5,-22.1 l -14.2,-66.7 c -2.1,-9.8 1.9,-19.9 10.2,-25.6 l 55.8,-38.6 -10.6,-76.6 c -1.4,-9.9 3.3,-19.7 12,-24.8 l 17.2,-10.2 41.5,-24.5 c 11.7,-6.9 24.8,-10.3 37.9,-10.3 12.2,0 24.4,3 35.5,9 l 28.5,15.4 c 16,8.7 26,25.5 26,43.7 v 110 l 249.7,69.7 184.6,51.5 110.8,30.9 39.6,-30.9 42.3,-33 c 9.3,-8.5 21.3,-13.1 33.6,-13.1 5.4,0 10.9,0.9 16.2,2.7 l 30.7,10.5 c 17.2,5.9 31.3,17.7 40.2,32.9 3.9,6.8 6.8,14.2 8.5,22 l 14.2,66.7 c 1.6,10 -2.4,20.1 -10.6,25.8 z"
           class="st1" /></g></g><path
       style="fill:#00ffff"
       id="path20"
       d="m 628.2,1381.1 c -2.6,0.4 -5.2,0.6 -7.8,0.6 -5.4,0 -10.9,-0.9 -16.1,-2.7 l -30.7,-10.5 c -17.1,-5.9 -31.2,-17.7 -40.1,-32.9 -3.9,-6.8 -6.9,-14.2 -8.5,-22.1 l -14.2,-66.7 c -2.1,-9.8 1.9,-19.9 10.2,-25.6 l 55.8,-38.6 -10.6,-76.6 c -1.4,-9.9 3.3,-19.7 12,-24.8 l 17.2,-10.2 14.7,123.5 -69.8,50.8 22.2,88.9 z"
       class="st2" /><path
       style="fill:#00ffff"
       id="path22"
       d="m 697.4,1631.4 c -20.1,6.5 -42.2,4.2 -60.8,-6.7 L 577.9,1590 c -8.6,-5.1 -13.4,-14.9 -12,-24.8 l 10.6,-76.6 -55.8,-38.6 c -8.2,-5.7 -12.3,-15.8 -10.2,-25.6 l 6.7,-31.7 c 9.2,7.9 19.6,14.4 30.8,19.2 v 0 l 1.3,24.1 69.8,38.1 -12.7,95.2 z"
       class="st2" /><path
       style="fill:#00ffff"
       id="path24"
       d="m 1319.2,1054.2 -7.7,143.7 -30.6,9.5 v -103 c 0,-18.2 10,-35 26,-43.6 z"
       class="st2" /><path
       style="fill:#00ffff"
       id="path26"
       d="m 1317.9,1470.9 v 145.5 l -11,-6 c -16,-8.7 -26,-25.4 -26,-43.7 v -105.1 z"
       class="st2" /><g
       id="g140"><path
         style="fill:#ffffff"
         id="path64"
         d="m 1419.4,483.5 -824.2,61.3 v 281.7 c 0,30.9 10.1,60.3 27.9,84.2 3.5,2.6 7.3,5 11.2,7 l 148,77.9 c 28.7,15.1 46.6,44.8 46.6,77.2 v 95.8 c 8.4,8.8 19.2,15.4 31.5,18.8 0.4,0.2 0.9,0.3 1.3,0.4 l 9,2.3 44.3,-65.5 -3.8,76.1 90,23.5 20.3,-76.7 22.5,76.8 91,-23.7 -3.7,-74.3 43.3,64 9.7,-2.5 c 31,-8 52.6,-36 52.6,-68.1 v -89.9 l 142.7,-80.9 c 44,-25 71.3,-71.7 71.3,-122.4 v -343 z M 945.5,827.4 c -1,40.9 -27.7,83.2 -142.6,65.5 -229.3,-35.3 -125.2,-256 -85.6,-278.5 1.5,-0.8 2.8,-1.4 4.1,-1.7 75.1,-16.6 209.7,150.4 209.7,150.4 0,0 15.3,31.7 14.4,64.3 z m 37.2,141.1 c -19.7,-8.6 23.1,-95.4 23.1,-95.4 0,0 21.6,114.9 -23.1,95.4 z m 85.7,0 c -44.6,19.5 -23.1,-95.4 -23.1,-95.4 0,0 42.8,86.9 23.1,95.4 z m 270.8,-112 c -22.1,16.8 -53.2,29.8 -95.7,36.3 -206.3,31.9 -128.2,-129.7 -128.2,-129.7 0,0 130,-161.3 205.8,-151.1 1.3,0.2 2.6,0.4 3.9,0.7 29.3,6.4 115.7,166.4 14.2,243.8 z"
         class="st1" /><path
         style="fill:none"
         id="path66"
         d="m 1068.4,968.5 c 19.7,-8.6 -23.1,-95.4 -23.1,-95.4 0,0 -21.5,114.9 23.1,95.4 z"
         class="st3" /><path
         style="fill:none"
         id="path68"
         d="m 865.3,202.6 c -10.5,0 -19,8.5 -19,19 0,10.5 8.5,19 19,19 10.5,0 19,-8.5 19,-19 0,-10.4 -8.5,-19 -19,-19 z"
         class="st3" /><path
         style="fill:none"
         id="path70"
         d="m 717.7,202.6 c -10.5,0 -19,8.5 -19,19 0,10.5 8.5,19 19,19 10.5,0 19,-8.5 19,-19 0,-10.4 -8.5,-19 -19,-19 z"
         class="st3" /><path
         style="fill:none"
         id="path72"
         d="m 865.3,126.5 c 10.5,0 19,-8.5 19,-19 0,-10.5 -8.5,-19 -19,-19 -10.5,0 -19,8.5 -19,19 -0.1,10.4 8.4,19 19,19 z"
         class="st3" /><circle
         style="fill:none"
         id="circle74"
         r="19"
         cy="159.8"
         cx="831.90002"
         class="st3" /><path
         style="fill:none"
         id="path76"
         d="m 793.8,202.6 c -10.5,0 -19,8.5 -19,19 0,0.8 0.1,1.6 0.2,2.3 1.1,9.4 9.1,16.7 18.9,16.7 10.5,0 19,-8.5 19,-19 0,-4.5 -1.6,-8.7 -4.3,-12 -3.5,-4.2 -8.8,-7 -14.8,-7 z"
         class="st3" /><path
         style="fill:none"
         id="path78"
         d="m 982.7,968.5 c 44.6,19.5 23.1,-95.4 23.1,-95.4 0,0 -42.8,86.9 -23.1,95.4 z"
         class="st3" /><path
         style="fill:none"
         id="path80"
         d="m 954.7,235.3 c 3.5,-3.5 5.7,-8.3 5.7,-13.6 0,-10.5 -8.5,-19 -19,-19 -10.5,0 -19,8.5 -19,19 0,7.7 4.6,14.3 11.2,17.3 l 15.8,-2.8 c 1.7,-0.4 3.5,-0.6 5.3,-0.9 z"
         class="st3" /><path
         style="fill:none"
         id="path82"
         d="m 1303.2,288.3 c 0,-10.5 -8.5,-19 -19,-19 -10.5,0 -19,8.5 -19,19 0,0.9 0.1,1.8 0.2,2.6 l 30,12.8 c 4.7,-3.4 7.8,-9 7.8,-15.4 z"
         class="st3" /><path
         style="fill:none"
         id="path84"
         d="m 1039.5,230 c 1.2,-2.5 1.9,-5.3 1.9,-8.3 0,-10.5 -8.5,-19 -19,-19 -10.5,0 -19,8.5 -19,19 0,3 0.7,5.9 2,8.4 11.3,-0.5 22.7,-0.5 34.1,-0.1 z"
         class="st3" /><path
         style="fill:none"
         id="path86"
         d="m 779.6,288.3 c 0,-10.5 -8.5,-19 -19,-19 -10.5,0 -19,8.5 -19,19 0,6.6 3.4,12.4 8.5,15.8 l 29.3,-12.5 c 0,-1 0.2,-2.1 0.2,-3.3 z"
         class="st3" /><path
         style="fill:none"
         id="path88"
         d="m 827.2,269.3 c -6.8,0 -12.7,3.6 -16.1,8.9 l 20,-8.5 c -1.3,-0.3 -2.6,-0.4 -3.9,-0.4 z"
         class="st3" /><path
         style="fill:none"
         id="path90"
         d="m 802.9,892.8 c 115,17.7 141.6,-24.5 142.6,-65.5 0.9,-32.6 -14.4,-64.3 -14.4,-64.3 0,0 -134.6,-167 -209.7,-150.4 -1.2,0.3 -2.6,0.8 -4.1,1.7 -39.6,22.5 -143.7,243.2 85.6,278.5 z"
         class="st3" /><path
         style="fill:none"
         id="path92"
         d="m 1055.7,140.7 c -10.2,0 -18.5,8 -19,18.1 0,0.3 -0.1,0.6 -0.1,0.9 0,10.5 8.5,19 19,19 9.8,0 17.9,-7.4 18.9,-16.9 0.1,-0.7 0.1,-1.4 0.1,-2.1 0.1,-10.4 -8.4,-19 -18.9,-19 z"
         class="st3" /><path
         style="fill:none"
         id="path94"
         d="m 1246.1,202.6 c -5.1,0 -9.8,2 -13.2,5.3 -3.6,3.5 -5.8,8.3 -5.8,13.7 0,10.5 8.5,19 19,19 10.5,0 19,-8.5 19,-19 0,0 0,0 0,0 0.1,-10.4 -8.5,-19 -19,-19 z"
         class="st3" /><path
         style="fill:none"
         id="path96"
         d="m 1208,140.7 c -10.5,0 -19,8.5 -19,19 0,10.5 8.5,19 19,19 10.5,0 19,-8.5 19,-19 0.1,-10.4 -8.5,-19 -19,-19 z"
         class="st3" /><path
         style="fill:none"
         id="path98"
         d="m 1169.9,202.6 c -10.5,0 -19,8.5 -19,19 0,10.5 8.5,19 19,19 10.5,0 19,-8.5 19,-19 0.1,-10.4 -8.4,-19 -19,-19 z"
         class="st3" /><path
         style="fill:none"
         id="path100"
         d="m 1322.3,202.6 c -10.5,0 -19,8.5 -19,19 0,10.5 8.5,19 19,19 10.5,0 19,-8.5 19,-19 0,-10.4 -8.5,-19 -19,-19 z"
         class="st3" /><path
         style="fill:none"
         id="path102"
         d="m 1131.9,140.7 c -10.5,0 -19,8.5 -19,19 0,3.2 0.8,6.2 2.2,8.9 3.2,6.1 9.5,10.2 16.8,10.2 4.3,0 8.3,-1.5 11.5,-3.9 4.6,-3.5 7.5,-9 7.5,-15.1 0,-10.5 -8.5,-19.1 -19,-19.1 z"
         class="st3" /><path
         style="fill:none"
         id="path104"
         d="m 1243.5,892.8 c 42.5,-6.5 73.6,-19.5 95.7,-36.3 101.5,-77.4 15.1,-237.4 -14.2,-243.9 -1.3,-0.3 -2.6,-0.5 -3.9,-0.7 -75.8,-10.2 -205.8,151.1 -205.8,151.1 0,0 -78.2,161.7 128.2,129.8 z"
         class="st3" /><path
         style="fill:none"
         id="path106"
         d="m 1022.4,88.4 c -10.5,0 -19,8.5 -19,19 0,10.5 8.5,19 19,19 10.5,0 19,-8.5 19,-19 0,-10.5 -8.5,-19 -19,-19 z"
         class="st3" /><path
         style="fill:none"
         id="path108"
         d="m 903.3,140.7 c -10.5,0 -19,8.5 -19,19 0,7.5 4.3,13.9 10.6,17 2.5,1.3 5.4,2 8.4,2 6.3,0 11.9,-3.1 15.4,-7.8 2.3,-3.1 3.7,-7 3.7,-11.2 0,-10.4 -8.5,-19 -19.1,-19 z"
         class="st3" /><path
         style="fill:none"
         id="path110"
         d="m 1108.1,238.1 c 5.7,-3.3 9.5,-9.4 9.5,-16.5 0,-10.5 -8.5,-19 -19,-19 -10.5,0 -19,8.5 -19,19 0,4.8 1.8,9.1 4.6,12.4 4.3,0.6 8.6,1.3 12.9,2.1 z"
         class="st3" /><path
         style="fill:none"
         id="path112"
         d="m 979.5,140.7 c -10.5,0 -19,8.5 -19,19 0,1.2 0.1,2.4 0.4,3.6 1.7,8.8 9.4,15.5 18.7,15.5 10.5,0 19,-8.5 19,-19 0,-0.2 0,-0.3 0,-0.5 -0.3,-10.3 -8.7,-18.6 -19.1,-18.6 z"
         class="st3" /><path
         style="fill:none"
         id="path114"
         d="m 941.4,88.4 c -10.5,0 -19,8.5 -19,19 0,10.5 8.5,19 19,19 10.5,0 19,-8.5 19,-19 0.1,-10.5 -8.5,-19 -19,-19 z"
         class="st3" /><path
         style="fill:none"
         id="path116"
         d="m 1169.9,126.5 c 10.5,0 19,-8.5 19,-19 0,-10.5 -8.5,-19 -19,-19 -10.5,0 -19,8.5 -19,19 0,10.4 8.5,19 19,19 z"
         class="st3" /><path
         style="fill:none"
         id="path118"
         d="m 1098.5,88.4 c -10.5,0 -19,8.5 -19,19 0,10.5 8.5,19 19,19 10.5,0 19,-8.5 19,-19 0.1,-10.5 -8.5,-19 -19,-19 z"
         class="st3" /><path
         style="fill:#00ffff"
         id="path120"
         d="m 1284.2,307.4 c 4.2,0 8,-1.4 11.2,-3.6 l -30,-12.8 c 1.3,9.2 9.2,16.4 18.8,16.4 z"
         class="st2" /><path
         style="fill:#00ffff"
         id="path122"
         d="m 903.3,269.3 c -10.5,0 -19,8.5 -19,19 0,10.5 8.5,19 19,19 10.5,0 19,-8.5 19,-19 0.1,-10.5 -8.4,-19 -19,-19 z"
         class="st2" /><path
         style="fill:#00ffff"
         id="path124"
         d="m 1136.6,269.3 c -10.5,0 -19,8.5 -19,19 0,10.5 8.5,19 19,19 10.5,0 19,-8.5 19,-19 0.1,-10.5 -8.5,-19 -19,-19 z"
         class="st2" /><path
         style="fill:#00ffff"
         id="path126"
         d="M 779.2,291.7 750,304.2 c 3,2 6.6,3.2 10.6,3.2 9.3,0 17,-6.8 18.6,-15.7 z"
         class="st2" /><path
         style="fill:#00ffff"
         id="path128"
         d="m 1098.5,240.7 c 3.5,0 6.7,-0.9 9.5,-2.6 l -11.1,-2 c -4.3,-0.8 -8.6,-1.4 -12.9,-2.1 3.6,4.1 8.8,6.7 14.5,6.7 z"
         class="st2" /><path
         style="fill:#00ffff"
         id="path130"
         d="m 1208,269.3 c -10.5,0 -19,8.5 -19,19 0,10.5 8.5,19 19,19 10.5,0 19,-8.5 19,-19 0.1,-10.5 -8.5,-19 -19,-19 z"
         class="st2" /><path
         style="fill:#00ffff"
         id="path132"
         d="m 1022.4,240.7 c 7.5,0 14,-4.4 17.1,-10.7 -11.4,-0.4 -22.8,-0.4 -34.2,0.1 3.1,6.3 9.5,10.6 17.1,10.6 z"
         class="st2" /><path
         style="fill:#00ffff"
         id="path134"
         d="m 827.2,307.4 c 10.5,0 19,-8.5 19,-19 0,-9.2 -6.5,-16.8 -15.1,-18.6 l -20,8.5 c -1.9,2.9 -2.9,6.4 -2.9,10.1 -0.1,10.4 8.5,19 19,19 z"
         class="st2" /><path
         style="fill:#00ffff"
         id="path136"
         d="m 954.7,235.3 c -1.8,0.3 -3.6,0.6 -5.4,0.9 l -15.8,2.8 c 2.4,1.1 5.1,1.7 7.9,1.7 5.2,0 9.9,-2.1 13.3,-5.4 z"
         class="st2" /><path
         style="fill:#dd3652"
         id="path138"
         d="m 1506.9,421.6 h -55.8 c -15.4,-107.5 -70.2,-202.3 -149.4,-269.1 0.9,2.2 1.4,4.7 1.4,7.3 0,10.5 -8.5,19 -19,19 -10.5,0 -19,-8.5 -19,-19 0,-10.5 8.5,-19 19,-19 1.2,0 2.4,0.2 3.5,0.3 -73.3,-56.9 -165.4,-90.8 -265.4,-90.8 -100,0 -192,33.9 -265.3,90.8 1.1,-0.2 2.3,-0.3 3.5,-0.3 10.5,0 19,8.5 19,19 0,10.5 -8.5,19 -19,19 -10.5,0 -19,-8.5 -19,-19 0,-2.6 0.5,-5.1 1.4,-7.3 -15.8,13.3 -30.6,27.8 -44.3,43.2 -7.3,8.2 -14.3,16.6 -20.9,25.4 -43.4,56.9 -73,124.8 -83.9,198.8 0,0.1 0,0.1 0,0.2 -0.1,0.5 -0.2,1 -0.2,1.6 h -50.3 c -17,0 -31,13.9 -31,31 0,17 13.9,31 31,31 h 963.7 c 15.9,0 29,-13 29,-29 v -3.9 c 0,-16.1 -13,-29.2 -29,-29.2 z M 1208,140.7 c 10.5,0 19,8.5 19,19 0,10.5 -8.5,19 -19,19 -10.5,0 -19,-8.5 -19,-19 0,-10.4 8.5,-19 19,-19 z m -38,-52.3 c 10.5,0 19,8.5 19,19 0,10.5 -8.5,19 -19,19 -10.5,0 -19,-8.5 -19,-19 0,-10.5 8.4,-19 19,-19 z m -38.1,52.3 c 10.5,0 19,8.5 19,19 0,6.2 -3,11.7 -7.5,15.1 -3.2,2.4 -7.2,3.9 -11.5,3.9 -7.3,0 -13.7,-4.1 -16.8,-10.2 -1.4,-2.6 -2.2,-5.7 -2.2,-8.9 -0.1,-10.3 8.5,-18.9 19,-18.9 z m -33.4,-52.3 c 10.5,0 19,8.5 19,19 0,10.5 -8.5,19 -19,19 -10.5,0 -19,-8.5 -19,-19 0,-10.5 8.5,-19 19,-19 z m -76.2,0 c 10.5,0 19,8.5 19,19 0,10.5 -8.5,19 -19,19 -10.5,0 -19,-8.5 -19,-19 0,-10.5 8.5,-19 19,-19 z m -80.9,0 c 10.5,0 19,8.5 19,19 0,10.5 -8.5,19 -19,19 -10.5,0 -19,-8.5 -19,-19 0,-10.5 8.5,-19 19,-19 z m -38,52.3 c 10.5,0 19,8.5 19,19 0,4.2 -1.4,8.1 -3.7,11.2 -3.5,4.7 -9,7.8 -15.3,7.8 -3,0 -5.9,-0.7 -8.4,-2 -6.3,-3.1 -10.6,-9.6 -10.6,-17 -0.1,-10.4 8.4,-19 19,-19 z M 865.3,88.4 c 10.5,0 19,8.5 19,19 0,10.5 -8.5,19 -19,19 -10.5,0 -19,-8.5 -19,-19 0,-10.5 8.4,-19 19,-19 z m -33.4,52.3 c 10.5,0 19,8.5 19,19 0,10.5 -8.5,19 -19,19 -10.5,0 -19,-8.5 -19,-19 0,-10.4 8.5,-19 19,-19 z m -114.2,100 c -10.5,0 -19,-8.5 -19,-19 0,-10.5 8.5,-19 19,-19 10.5,0 19,8.5 19,19 0,10.5 -8.5,19 -19,19 z m 61.6,51 c -1.6,8.9 -9.4,15.6 -18.7,15.6 -3.9,0 -7.6,-1.2 -10.6,-3.2 -5.1,-3.4 -8.5,-9.2 -8.5,-15.8 0,-10.5 8.5,-19 19,-19 10.5,0 19,8.5 19,19 0.1,1.2 -0.1,2.3 -0.2,3.4 z m 14.5,-51 c -9.7,0 -17.7,-7.3 -18.9,-16.7 -0.1,-0.8 -0.2,-1.6 -0.2,-2.3 0,-10.5 8.5,-19 19,-19 6,0 11.3,2.8 14.8,7 2.7,3.3 4.3,7.5 4.3,12 0.1,10.5 -8.5,19 -19,19 z m 33.4,66.7 c -10.5,0 -19,-8.5 -19,-19 0,-3.7 1.1,-7.2 3,-10.2 3.4,-5.3 9.3,-8.9 16.1,-8.9 1.3,0 2.6,0.1 3.9,0.4 8.6,1.8 15.1,9.5 15.1,18.7 -0.1,10.5 -8.6,19 -19.1,19 z m 38.1,-66.7 c -10.5,0 -19,-8.5 -19,-19 0,-10.5 8.5,-19 19,-19 10.5,0 19,8.5 19,19 0,10.5 -8.5,19 -19,19 z m 38.1,66.7 c -10.5,0 -19,-8.5 -19,-19 0,-10.5 8.5,-19 19,-19 10.5,0 19,8.5 19,19 0,10.5 -8.5,19 -19,19 z m 51.4,-72.1 c -3.4,3.4 -8.1,5.4 -13.3,5.4 -2.8,0 -5.5,-0.6 -7.9,-1.7 -6.6,-3 -11.1,-9.6 -11.1,-17.3 0,-10.5 8.5,-19 19,-19 10.5,0 19,8.5 19,19 0,5.3 -2.2,10.1 -5.7,13.6 z m 43.7,-75.5 c 0,10.5 -8.5,19 -19,19 -9.3,0 -17,-6.7 -18.7,-15.5 -0.2,-1.1 -0.3,-2.3 -0.3,-3.6 0,-10.5 8.5,-19 19,-19 10.4,0 18.8,8.3 19,18.6 z m 40.9,70.2 c -3.1,6.3 -9.6,10.7 -17.1,10.7 -7.5,0 -14,-4.3 -17.1,-10.7 -1.2,-2.5 -1.9,-5.4 -1.9,-8.4 0,-10.5 8.5,-19 19,-19 10.5,0 19,8.5 19,19 0.1,3.1 -0.6,5.9 -1.9,8.4 z m 35.2,-68.1 c -1,9.5 -9.1,16.9 -18.9,16.9 -10.5,0 -19,-8.5 -19,-19 0,-0.3 0,-0.6 0.1,-1 0.5,-10.1 8.8,-18.1 19,-18.1 10.5,0 19,8.5 19,19 -0.1,0.8 -0.1,1.5 -0.2,2.2 z m 33.5,76.2 c -2.8,1.7 -6,2.6 -9.5,2.6 -5.7,0 -10.9,-2.5 -14.4,-6.6 -2.9,-3.3 -4.6,-7.7 -4.6,-12.4 0,-10.5 8.5,-19 19,-19 10.5,0 19,8.5 19,19 0,7 -3.9,13.2 -9.5,16.4 z m 28.5,69.3 c -10.5,0 -19,-8.5 -19,-19 0,-10.5 8.5,-19 19,-19 10.5,0 19,8.5 19,19 0.1,10.5 -8.5,19 -19,19 z m 33.4,-66.7 c -10.5,0 -19,-8.5 -19,-19 0,-10.5 8.5,-19 19,-19 10.5,0 19,8.5 19,19 0,10.5 -8.5,19 -19,19 z m 38,66.7 c -10.5,0 -19,-8.5 -19,-19 0,-10.5 8.5,-19 19,-19 10.5,0 19,8.5 19,19 0.1,10.5 -8.4,19 -19,19 z m 38.1,-66.7 c -10.5,0 -19,-8.5 -19,-19 0,-5.4 2.3,-10.2 5.8,-13.7 3.4,-3.3 8.1,-5.3 13.2,-5.3 10.5,0 19,8.5 19,19 0,0 0,0 0,0 0,10.5 -8.5,19 -19,19 z m 49.3,63 c -3.1,2.3 -7,3.7 -11.2,3.7 -9.6,0 -17.6,-7.1 -18.8,-16.4 -0.1,-0.9 -0.2,-1.7 -0.2,-2.6 0,-10.5 8.5,-19 19,-19 10.5,0 19,8.5 19,19 0,6.3 -3.1,11.9 -7.8,15.3 z m 26.9,-63 c -10.5,0 -19,-8.5 -19,-19 0,-10.5 8.5,-19 19,-19 10.5,0 19,8.5 19,19 0,10.5 -8.5,19 -19,19 z"
         class="st4" /></g><path
       style="fill:#00ffff"
       id="path142"
       d="m 860.8,1072.8 v 108.7 c 0,2 -0.1,3.9 -0.2,5.9 -30.3,-8.4 -51.3,-36.1 -51.3,-67.7 v -89.9 L 666.6,948.9 c -44.1,-25 -71.3,-71.7 -71.3,-122.4 v -343 h 855.9 l -824.2,61.3 -7.5,0.6 v 295 c 0,27.9 13.4,53.9 35.4,70.2 3.5,2.6 7.3,5 11.2,7 l 148,77.9 c 28.7,15.2 46.7,44.9 46.7,77.3 z"
       class="st2" /><path
       style="fill:#00ffff"
       id="path144"
       d="m 945.1,751.9 c 0.9,1 1.4,2.3 1.4,3.7 v 72.3 l -0.9,-0.5 c 0.8,-29.9 -12,-59 -14.1,-63.7 -0.2,-0.4 -0.4,-0.8 -0.7,-1.2 -8.3,-10.2 -136.6,-165.9 -209.3,-149.9 -0.2,0 -0.3,0.1 -0.5,0.1 -2.3,0.6 -4.8,-0.2 -6.2,-2.1 v 0 l 33,-21 c 1.2,-0.8 2.7,-1.1 4.1,-0.8 l 62.5,11.9 c 1.3,0.2 2.4,0.9 3.2,1.9 z"
       class="st2" /><path
       style="fill:#00ffff"
       id="path146"
       d="m 1410,763 -22.2,63.5 -48.6,30 c 101.5,-77.4 15.1,-237.4 -14.2,-243.9 -1.3,-0.3 -2.6,-0.5 -3.9,-0.7 v -1.4 h 38.1 l 41.3,41.3 z"
       class="st2" /><polygon
       style="fill:#00ffff"
       id="polygon148"
       points="911.5,1201.1 913.1,1166.2 927.4,1131.2 934.7,1206.8 "
       class="st2" /><polygon
       style="fill:#00ffff"
       id="polygon150"
       points="1041.7,1223.3 1033.4,1187.4 1041.7,1153.5 1064,1219.2 "
       class="st2" /><polygon
       style="fill:#00ffff"
       id="polygon152"
       points="1175,1188.4 1150,1153.5 1149.6,1131.2 1184.6,1188.4 "
       class="st2" /><path
       style="fill:#c42749"
       id="path154"
       d="m 638.5,420.1 h -44.4 l -0.3,-0.3 c 10.9,-74 40.5,-142 83.9,-198.8 l 4.7,0.6 c -45,135 -43.9,198.5 -43.9,198.5 z"
       class="st5" /></g></g></svg>