<?xml version="1.0" encoding="UTF-8"?>
<svg width="92px" height="87px" viewBox="0 0 92 87" version="1.1" xmlns="http://www.w3.org/2000/svg" xmlns:xlink="http://www.w3.org/1999/xlink">
    <!-- Generator: Sketch 60.1 (88133) - https://sketch.com -->
    <title>Group 47</title>
    <desc>Created with Sketch.</desc>
    <defs>
        <polygon id="path-1" points="0 87 92 87 92 0 0 0"></polygon>
    </defs>
    <g id="Page-1" stroke="none" stroke-width="1" fill="none" fill-rule="evenodd">
        <g id="PATHWAR-Landing-Page" transform="translate(-275.000000, -784.000000)">
            <g id="Group-47" transform="translate(275.000000, 784.000000)">
                <path d="M24.4796923,73 C21.9996248,70.519081 20.1491417,67.7575286 18.3609418,65.0870327 C14.5924397,59.460183 11.0325485,54.1460605 2,52.078628 L2.48100553,50 C12.3442454,52.2577557 16.3101022,58.1786734 20.1453897,63.9040434 C21.8773098,66.4894535 23.667761,69.1629348 26,71.4960735 L24.4796923,73 Z" id="Fill-1" fill="#0081FF"></path>
                <path d="M68.0265707,77 C67.5717202,69.0406918 72.9891252,59.9094608 81.7801304,59 L82,61.1698881 C74.4382999,61.9511699 69.7847717,69.9211597 70.1821992,76.8748728 L68.0265707,77 Z" id="Fill-3" fill="#0081FF"></path>
                <polygon id="Fill-5" fill="#0081FF" points="77.8789872 72 76 71.9530306 76.1210128 65 78 65.0454037"></polygon>
                <path d="M56.2923809,59 L36.9150361,59 C36.4576826,59 36.0507282,58.7049432 35.900283,58.2658068 L33.3366964,50.7805616 L1,50.6357155 L1.00977894,48.445398 L34.1054715,48.594076 C34.5613205,48.5963751 34.9660182,48.8906655 35.1157112,49.3290355 L37.6785456,56.8096825 L55.2174498,56.8096825 L55.2174498,48.2622329 C55.2174498,47.66139 55.6936089,47.1724388 56.2833542,47.1678405 L75.9390227,47 C76.2579665,46.9992367 76.5701404,47.14255 76.7762503,47.3969885 C76.9372267,47.5947149 80.7164108,52.3117912 81,57.7975479 L78.8531467,57.9125051 C78.6515501,54.0008954 76.2737633,50.3766787 75.4207389,49.1941525 L57.367312,49.3481951 L57.367312,57.9048413 C57.367312,58.509516 56.8858873,59 56.2923809,59" id="Fill-7" fill="#0081FF"></path>
                <mask id="mask-2" fill="white">
                    <use xlink:href="#path-1"></use>
                </mask>
                <g id="Clip-10"></g>
                <polygon id="Fill-9" fill="#0081FF" mask="url(#mask-2)" points="41 19 43 19 43 16 41 16"></polygon>
                <path d="M47.967672,59 L42.032328,59 C41.4623442,59 41,58.5023328 41,57.8888025 L41,44.277605 L43.0639335,44.277605 L43.0639335,56.777605 L46.935344,56.777605 L46.935344,44 L49,44 L49,57.8888025 C49,58.5023328 48.5376558,59 47.967672,59" id="Fill-11" fill="#0081FF" mask="url(#mask-2)"></path>
                <polygon id="Fill-12" fill="#0081FF" mask="url(#mask-2)" points="47 18.8575 49 18.8575 49 18.1425 47 18.1425"></polygon>
                <path d="M30.1268046,46 C29.6698749,44.9320351 29.2909047,43.7729309 29,42.5546251 L30.9987969,42 C31.2579403,43.0889971 31.5950433,44.1203505 32,45.0675755 L30.1268046,46 Z" id="Fill-13" fill="#0081FF" mask="url(#mask-2)"></path>
                <path d="M31.4336785,47 L29.6599676,45.7186841 C29.8768908,45.4207036 35.0738482,38.6145246 54.1975786,41.4285297 C52.7151427,31.8557169 53.8764097,24.0982926 57.6545518,18.3113595 C35.9737344,19.659912 32.1212405,23.5879056 31.7510148,24.0371684 C31.6567337,24.3152835 31.407617,25.0724594 31.1178751,26.1658184 L29,25.6095883 C29.3939876,24.1212142 29.7151565,23.2226885 29.7289538,23.1852499 C29.739685,23.1546878 29.7519492,23.1241257 29.7665129,23.0943277 C30.2087908,22.1423184 33.7393493,17.3249678 59.8490783,16.000865 C60.2798585,15.9840558 60.6868769,16.2132715 60.8823377,16.598354 C61.0777984,16.9842004 61.0264421,17.4479803 60.752797,17.7826352 C56.0694031,23.4878147 54.6743497,31.8205705 56.6067287,42.5501587 C56.6695827,42.8993306 56.5584384,43.2584353 56.3077887,43.5105726 C56.0571389,43.7634739 55.6999439,43.8788458 55.347348,43.8192498 C36.3056345,40.6346792 31.4804358,46.9365836 31.4336785,47" id="Fill-14" fill="#0081FF" mask="url(#mask-2)"></path>
                <path d="M70.2559217,42 C70.1546083,42 70.0532948,41.9858811 69.9534824,41.9569003 C65.4349039,40.6423582 61.6255194,40.2210211 58.6318955,40.7070078 L58.285929,38.6107257 C61.2682958,38.1269683 64.9088246,38.4353544 69.1272152,39.5262236 C69.0138942,33.9522384 70.2018879,29.502562 72.6694324,26.2515041 C64.6866856,25.8465152 60.6461564,26.4603149 58.6378993,27.0793163 L58,25.0513993 C60.3594769,24.3239054 65.2240219,23.5956685 75.001142,24.2629713 C75.4244069,24.2919522 75.7906362,24.5654126 75.9354768,24.9599981 C76.0803175,25.3553268 75.9767527,25.7967275 75.670561,26.0880223 C72.3947605,29.2053224 70.9335959,34.1811129 71.326842,40.8764344 C71.3471047,41.2219754 71.1962603,41.5548837 70.9230893,41.7696393 C70.730969,41.9212315 70.4953215,42 70.2559217,42" id="Fill-15" fill="#0081FF" mask="url(#mask-2)"></path>
                <path d="M15.0901502,59 L14,57.108037 C16.7926498,55.5017398 17.8965607,53.4577782 17.8109388,50.0542307 L19.9950616,50 C20.0997955,54.1543749 18.5410184,57.0140881 15.0901502,59" id="Fill-16" fill="#0081FF" mask="url(#mask-2)"></path>
                <path d="M36.5,64.0513899 C35.701641,64.0513899 35.0518974,64.7012001 35.0518974,65.500359 C35.0518974,66.2980819 35.701641,66.9478921 36.5,66.9478921 C37.298359,66.9478921 37.9481026,66.2980819 37.9481026,65.500359 C37.9481026,64.7012001 37.298359,64.0513899 36.5,64.0513899 M36.5,69 C34.5701538,69 33,67.4296851 33,65.500359 C33,63.5695969 34.5701538,62 36.5,62 C38.4298462,62 40,63.5695969 40,65.500359 C40,67.4296851 38.4298462,69 36.5,69" id="Fill-17" fill="#0081FF" mask="url(#mask-2)"></path>
                <path d="M47.5,64.0513899 C46.701641,64.0513899 46.0518974,64.7012001 46.0518974,65.500359 C46.0518974,66.2980819 46.701641,66.9478921 47.5,66.9478921 C48.298359,66.9478921 48.9481026,66.2980819 48.9481026,65.500359 C48.9481026,64.7012001 48.298359,64.0513899 47.5,64.0513899 M47.5,69 C45.5701538,69 44,67.4296851 44,65.500359 C44,63.5695969 45.5701538,62 47.5,62 C49.4298462,62 51,63.5695969 51,65.500359 C51,67.4296851 49.4298462,69 47.5,69" id="Fill-18" fill="#0081FF" mask="url(#mask-2)"></path>
                <path d="M59.5,64.0513899 C58.701641,64.0513899 58.0518974,64.7012001 58.0518974,65.500359 C58.0518974,66.2980819 58.701641,66.9478921 59.5,66.9478921 C60.298359,66.9478921 60.9481026,66.2980819 60.9481026,65.500359 C60.9481026,64.7012001 60.298359,64.0513899 59.5,64.0513899 M59.5,69 C57.5701538,69 56,67.4296851 56,65.500359 C56,63.5695969 57.5701538,62 59.5,62 C61.4298462,62 63,63.5695969 63,65.500359 C63,67.4296851 61.4298462,69 59.5,69" id="Fill-19" fill="#0081FF" mask="url(#mask-2)"></path>
                <path d="M63.8888025,50 L61.1111975,50 C60.4976672,50 60,49.5355588 60,48.9629898 L60,43 L62.2216174,43 L62.2216174,47.9259797 L62.777605,47.9259797 L62.777605,43 L65,43 L65,48.9629898 C65,49.5355588 64.5023328,50 63.8888025,50" id="Fill-20" fill="#0081FF" mask="url(#mask-2)"></path>
                <path d="M14.9782062,42.6788581 C18.7697282,42.6788581 21.8523472,43.8608056 24.1618262,46.1963279 C26.3948323,42.9386924 32.800195,33.1239735 38.2022344,24.7928489 L10.1780078,43.2395925 C11.7219939,42.89912 13.3501,42.6788581 14.9782062,42.6788581 M24.2497699,49 L24.2291222,49 C23.8957008,48.9940268 23.582927,48.8387235 23.3810387,48.5796359 C21.4302173,46.0798505 18.6030175,44.8120382 14.9782062,44.8120382 C8.51472414,44.8120382 1.72929156,48.803631 1.66123076,48.8439501 C1.15421601,49.1455968 0.493490921,48.9970134 0.17306984,48.5087041 C-0.147351241,48.0203947 -0.0104649083,47.3723022 0.481255271,47.0490026 L41.2963243,20.182283 C41.7253368,19.9000491 42.2973535,19.9500747 42.6682466,20.3010004 C43.0391397,20.6526727 43.1072005,21.2096739 42.8311337,21.6360112 C41.1456729,24.2433142 26.3275362,47.1475605 25.093265,48.6109952 C24.8860237,48.8573898 24.5763088,49 24.2497699,49" id="Fill-21" fill="#0081FF" mask="url(#mask-2)"></path>
                <path d="M40.8933203,14.8465597 L47.0223561,14.8465597 L47.9567529,12.154194 L40.0007054,12.154194 L40.8933203,14.8465597 Z M48.5705681,17 L39.3223181,17 L37,10 L51,10 L48.5705681,17 Z" id="Fill-22" fill="#0081FF" mask="url(#mask-2)"></path>
                <path d="M45.1318244,2.40508156 L45.1318244,5.74779847 L45.8757617,5.56806698 C46.0794677,5.51826187 48.5082701,4.88811895 50.9430419,4.25508878 L45.1318244,2.40508156 Z M45.1318244,10 L43,10 L43,0.979500505 L44.3990797,0 L55,3.3751985 L54.9432906,5.35080121 C54.6104962,5.4374188 46.7957965,7.47148838 46.3921154,7.56893316 L45.3586619,7.81940234 L45.1318244,6.94312112 L45.1318244,10 Z" id="Fill-23" fill="#0081FF" mask="url(#mask-2)"></path>
                <polygon id="Fill-24" fill="#0081FF" mask="url(#mask-2)" points="46 19 48 19 48 16 46 16"></polygon>
                <path d="M9.45276126,79 C8.68061027,79 7.86118473,78.7613694 7,78.1563255 L8.3134446,76.3704452 C9.57409928,77.2556876 10.4904376,76.7083768 12.4318459,75.1495804 C13.991906,73.8963851 15.7591863,72.4753786 18,73.1935796 L17.2979729,75.2842912 C16.3067832,74.9663737 15.3384428,75.663021 13.861901,76.8484761 C12.673734,77.8022285 11.1830098,79 9.45276126,79" id="Fill-25" fill="#0081FF" mask="url(#mask-2)"></path>
                <path d="M24.5472387,79 C22.8169902,79 21.326266,77.8022416 20.138099,76.8484995 C18.6615572,75.6622877 17.6932168,74.9664177 16.7020271,75.2843318 L16,73.193643 C18.2408137,72.4754498 20.008094,73.895671 21.5681541,75.1496224 C23.5087744,76.7084018 24.4251128,77.2557066 25.6865554,76.3704739 L27,78.1563347 C26.1388153,78.761372 25.3186018,79 24.5472387,79" id="Fill-26" fill="#0081FF" mask="url(#mask-2)"></path>
                <path d="M24.452937,79 C23.6807307,79 22.8612464,78.7613694 22,78.1563255 L23.3135387,76.3704452 C24.5750716,77.2556876 25.4906877,76.7083768 27.432235,75.1495804 C28.9924069,73.8963851 30.7598138,72.4753786 33,73.1935796 L32.2987106,75.2842912 C31.3066619,74.9663737 30.3390401,75.663021 28.8623926,76.8484761 C27.6741404,77.8022285 26.1825215,79 24.452937,79" id="Fill-27" fill="#0081FF" mask="url(#mask-2)"></path>
                <path d="M39.5472387,79 C37.8169902,79 36.3254781,77.8022416 35.138099,76.8484995 C33.6615572,75.6622877 32.6932168,74.9664177 31.7020271,75.2843318 L31,73.193643 C33.2408137,72.4754498 35.008094,73.895671 36.5681541,75.1496224 C38.5095624,76.7084018 39.4251128,77.2557066 40.6857675,76.3704739 L42,78.1563347 C41.1388153,78.761372 40.3186018,79 39.5472387,79" id="Fill-28" fill="#0081FF" mask="url(#mask-2)"></path>
                <path d="M39.4527613,79 C38.6813982,79 37.8611847,78.7613694 37,78.1563255 L38.3142325,76.3704452 C39.5748872,77.2556876 40.4904376,76.7083768 42.4318459,75.1495804 C43.991906,73.8963851 45.7599742,72.4753786 48,73.1935796 L47.2979729,75.2842912 C46.3067832,74.9663737 45.3384428,75.663021 43.861901,76.8484761 C42.6745219,77.8022285 41.1830098,79 39.4527613,79" id="Fill-29" fill="#0081FF" mask="url(#mask-2)"></path>
                <path d="M54.547063,79 C52.8166905,79 51.3258596,77.8022416 50.1376074,76.8484995 C48.6617479,75.6622877 47.6933381,74.9664177 46.7012894,75.2843318 L46,73.193643 C48.2401862,72.4754498 50.0075931,73.895671 51.567765,75.1496224 C53.5093123,76.7084018 54.4249284,77.2557066 55.6864613,76.3704739 L57,78.1563347 C56.1395415,78.761372 55.3184814,79 54.547063,79" id="Fill-30" fill="#0081FF" mask="url(#mask-2)"></path>
                <path d="M54.4527613,79 C53.6806103,79 52.8611847,78.7613694 52,78.1563255 L53.3142325,76.3704452 C54.5748872,77.2556876 55.4904376,76.7083768 57.4318459,75.1495804 C58.991906,73.8963851 60.7591863,72.4753786 63,73.1935796 L62.2979729,75.2842912 C61.3067832,74.9663737 60.3384428,75.663021 58.861901,76.8484761 C57.673734,77.8022285 56.1830098,79 54.4527613,79" id="Fill-31" fill="#0081FF" mask="url(#mask-2)"></path>
                <path d="M69.5472387,79 C67.8169902,79 66.326266,77.8022416 65.138099,76.8484995 C63.6615572,75.6622877 62.6940047,74.9664177 61.7020271,75.2843318 L61,73.193643 C63.2408137,72.4754498 65.008094,73.895671 66.5681541,75.1496224 C68.5095624,76.7084018 69.4251128,77.2557066 70.6865554,76.3704739 L72,78.1563347 C71.1388153,78.761372 70.3186018,79 69.5472387,79" id="Fill-32" fill="#0081FF" mask="url(#mask-2)"></path>
                <path d="M69.4527613,79 C68.6813982,79 67.8611847,78.7613694 67,78.1563255 L68.3142325,76.3704452 C69.5748872,77.2556876 70.4904376,76.7083768 72.4318459,75.1495804 C73.991906,73.8963851 75.7591863,72.4753786 78,73.1935796 L77.2979729,75.2842912 C76.3067832,74.9663737 75.3384428,75.663021 73.861901,76.8484761 C72.6745219,77.8022285 71.1830098,79 69.4527613,79" id="Fill-33" fill="#0081FF" mask="url(#mask-2)"></path>
                <path d="M84.547063,79 C82.8166905,79 81.3258596,77.8022416 80.1376074,76.8484995 C78.6617479,75.6622877 77.6933381,74.9664177 76.7012894,75.2843318 L76,73.193643 C78.2401862,72.4754498 80.0075931,73.895671 81.567765,75.1496224 C83.5093123,76.7084018 84.4249284,77.2557066 85.6864613,76.3704739 L87,78.1563347 C86.1395415,78.761372 85.3192693,79 84.547063,79" id="Fill-34" fill="#0081FF" mask="url(#mask-2)"></path>
                <path d="M84.4527613,79 C83.6806103,79 82.8611847,78.7613694 82,78.1563255 L83.3142325,76.3704452 C84.5748872,77.2556876 85.4912256,76.7083768 87.4318459,75.1495804 C88.991906,73.8963851 90.7591863,72.4753786 93,73.1935796 L92.2979729,75.2842912 C91.3067832,74.9663737 90.3384428,75.663021 88.861901,76.8484761 C87.6745219,77.8022285 86.1830098,79 84.4527613,79" id="Fill-35" fill="#0081FF" mask="url(#mask-2)"></path>
                <path d="M9.45276126,87 C8.68061027,87 7.86118473,86.7613722 7,86.1563354 L8.3134446,84.3704761 C9.57409928,85.2549383 10.4904376,84.707634 12.4318459,83.1488559 C13.991906,81.8956753 15.7591863,80.4754552 18,81.1936478 L17.2979729,83.2835651 C16.3067832,82.9656513 15.3384428,83.6622905 13.861901,84.8485013 C12.673734,85.8014728 11.1830098,87 9.45276126,87" id="Fill-36" fill="#0081FF" mask="url(#mask-2)"></path>
                <path d="M24.5472387,87 C22.8169902,87 21.326266,85.8015298 20.138099,84.8486036 C18.6615572,83.6624491 17.6932168,82.9658431 16.7020271,83.2837418 L16,81.1939238 C18.2408137,80.4749957 20.008094,81.8959179 21.5681541,83.149039 C23.5087744,84.707743 24.4251128,85.2550213 25.6865554,84.3706011 L27,86.1563755 C26.1388153,86.7606139 25.3186018,87 24.5472387,87" id="Fill-37" fill="#0081FF" mask="url(#mask-2)"></path>
                <path d="M24.452937,87 C23.6807307,87 22.8612464,86.7613722 22,86.1563354 L23.3135387,84.3704761 C24.5750716,85.2549383 25.4906877,84.707634 27.432235,83.1488559 C28.9924069,81.8956753 30.7598138,80.4754552 33,81.1936478 L32.2987106,83.2835651 C31.3066619,82.9656513 30.3390401,83.6622905 28.8623926,84.8485013 C27.6741404,85.8014728 26.1825215,87 24.452937,87" id="Fill-38" fill="#0081FF" mask="url(#mask-2)"></path>
                <path d="M39.5472387,87 C37.8169902,87 36.3254781,85.8015298 35.138099,84.8486036 C33.6615572,83.6624491 32.6932168,82.9658431 31.7020271,83.2837418 L31,81.1939238 C33.2408137,80.4749957 35.008094,81.8959179 36.5681541,83.149039 C38.5095624,84.707743 39.4251128,85.2550213 40.6857675,84.3706011 L42,86.1563755 C41.1388153,86.7606139 40.3186018,87 39.5472387,87" id="Fill-39" fill="#0081FF" mask="url(#mask-2)"></path>
                <path d="M39.4527613,87 C38.6813982,87 37.8611847,86.7613722 37,86.1563354 L38.3142325,84.3704761 C39.5748872,85.2549383 40.4904376,84.707634 42.4318459,83.1488559 C43.991906,81.8956753 45.7599742,80.4754552 48,81.1936478 L47.2979729,83.2835651 C46.3067832,82.9656513 45.3384428,83.6622905 43.861901,84.8485013 C42.6745219,85.8014728 41.1830098,87 39.4527613,87" id="Fill-40" fill="#0081FF" mask="url(#mask-2)"></path>
                <path d="M54.547063,87 C52.8166905,87 51.3258596,85.8015298 50.1376074,84.8486036 C48.6617479,83.6624491 47.6933381,82.9658431 46.7012894,83.2837418 L46,81.1939238 C48.2401862,80.4749957 50.0075931,81.8959179 51.567765,83.149039 C53.5093123,84.707743 54.4249284,85.2550213 55.6864613,84.3706011 L57,86.1563755 C56.1395415,86.7606139 55.3184814,87 54.547063,87" id="Fill-41" fill="#0081FF" mask="url(#mask-2)"></path>
                <path d="M54.4527613,87 C53.6806103,87 52.8611847,86.7613722 52,86.1563354 L53.3142325,84.3704761 C54.5748872,85.2549383 55.4904376,84.707634 57.4318459,83.1488559 C58.991906,81.8956753 60.7591863,80.4754552 63,81.1936478 L62.2979729,83.2835651 C61.3067832,82.9656513 60.3384428,83.6622905 58.861901,84.8485013 C57.673734,85.8014728 56.1830098,87 54.4527613,87" id="Fill-42" fill="#0081FF" mask="url(#mask-2)"></path>
                <path d="M69.5472387,87 C67.8169902,87 66.326266,85.8015298 65.138099,84.8486036 C63.6615572,83.6624491 62.6940047,82.9658431 61.7020271,83.2837418 L61,81.1939238 C63.2408137,80.4749957 65.008094,81.8959179 66.5681541,83.149039 C68.5095624,84.707743 69.4251128,85.2550213 70.6865554,84.3706011 L72,86.1563755 C71.1388153,86.7606139 70.3186018,87 69.5472387,87" id="Fill-43" fill="#0081FF" mask="url(#mask-2)"></path>
                <path d="M69.4527613,87 C68.6813982,87 67.8611847,86.7613722 67,86.1563354 L68.3142325,84.3704761 C69.5748872,85.2549383 70.4904376,84.707634 72.4318459,83.1488559 C73.991906,81.8956753 75.7591863,80.4754552 78,81.1936478 L77.2979729,83.2835651 C76.3067832,82.9656513 75.3384428,83.6622905 73.861901,84.8485013 C72.6745219,85.8014728 71.1830098,87 69.4527613,87" id="Fill-44" fill="#0081FF" mask="url(#mask-2)"></path>
                <path d="M84.547063,87 C82.8166905,87 81.3258596,85.8015298 80.1376074,84.8486036 C78.6617479,83.6624491 77.6933381,82.9658431 76.7012894,83.2837418 L76,81.1939238 C78.2401862,80.4749957 80.0075931,81.8959179 81.567765,83.149039 C83.5093123,84.707743 84.4249284,85.2550213 85.6864613,84.3706011 L87,86.1563755 C86.1395415,86.7606139 85.3192693,87 84.547063,87" id="Fill-45" fill="#0081FF" mask="url(#mask-2)"></path>
                <path d="M84.4527613,87 C83.6806103,87 82.8611847,86.7613722 82,86.1563354 L83.3142325,84.3704761 C84.5748872,85.2549383 85.4912256,84.707634 87.4318459,83.1488559 C88.991906,81.8956753 90.7591863,80.4754552 93,81.1936478 L92.2979729,83.2835651 C91.3067832,82.9656513 90.3384428,83.6622905 88.861901,84.8485013 C87.6745219,85.8014728 86.1830098,87 84.4527613,87" id="Fill-46" fill="#0081FF" mask="url(#mask-2)"></path>
            </g>
        </g>
    </g>
</svg>