<?xml version="1.0" encoding="utf-8"?>
<!-- Generator: Adobe Illustrator 23.1.1, SVG Export Plug-In . SVG Version: 6.00 Build 0)  -->
<svg version="1.1" xmlns="http://www.w3.org/2000/svg" xmlns:xlink="http://www.w3.org/1999/xlink" x="0px" y="0px"
	 viewBox="0 0 3551 3552" style="enable-background:new 0 0 3551 3552;" xml:space="preserve">
<style type="text/css">
	.st0{fill:#8BD1C7;}
	.st1{opacity:0.5;fill:#64C2B5;stroke:#64C2B5;stroke-width:200;stroke-miterlimit:10;}
	.st2{fill:#C17056;}
	.st3{fill:#AD401E;}
	.st4{fill:#9BB946;}
	.st5{fill:#B4CA74;}
	.st6{fill:#6E352D;}
	.st7{fill:none;stroke:#B4CA74;stroke-width:10;stroke-miterlimit:10;}
	.st8{fill:#5B8740;}
	.st9{fill:#F3E2DD;}
	.st10{fill:#FFFFFF;}
	.st11{fill:#EAE2CE;}
	.st12{fill:#51E0D9;}
	.st13{fill:#A8EFEC;}
	.st14{fill:none;stroke:#51E0D9;stroke-width:127;stroke-miterlimit:10;}
	.st15{fill:none;stroke:#6E352D;stroke-width:20;stroke-miterlimit:10;}
	.st16{display:none;}
	.st17{display:inline;fill:#AD401E;}
	.st18{display:inline;fill:#B4CA74;}
	.st19{display:inline;fill:#5B8740;}
	.st20{display:inline;}
	.st21{fill:none;}
</style>
<g id="background">
	<rect y="0" class="st0" width="3551" height="3551"/>
</g>
<g id="base">
	<g id="base_1_">
		<path id="base-shadow-island" class="st1" d="M3143.8,1484.4L3143.8,1484.4L3023.4,1364l0,0c-43.7-43.7-103-68.3-164.9-68.3
			h-129.6c-50.9,0-100.3-13.1-143.8-37.4c-1.2-0.7-2.3-1.3-3.5-2c-6.2-3.6-12.3-7.4-18.2-11.4c-1.5-1-3.1-2.1-4.6-3.2
			c-2.8-2-5.6-4-8.3-6.1c-18-13.7-34.6-29.5-49.3-47.3l-68.5-83l-12.3-14.9c-1.5-1.8-3-3.5-4.5-5.3c-1.3-1.6-2.7-3.1-4.1-4.6
			c-1.6-1.7-3.1-3.4-4.7-5.1c-1.5-1.6-3.1-3.2-4.7-4.8c-1-1-1.9-1.9-2.9-2.9c-2.3-2.3-4.7-4.6-7.1-6.8c-1.2-1.1-2.4-2.2-3.6-3.3
			c-2.7-2.4-5.5-4.8-8.3-7.1c-2.5-2.1-5.1-4.2-7.7-6.2c-10.5-8-21.4-15.4-32.8-21.9c-1.2-0.7-2.3-1.3-3.5-2
			c-4.7-2.6-9.5-5.1-14.3-7.5c-2.4-1.2-4.8-2.3-7.3-3.4c-4.9-2.2-9.8-4.3-14.9-6.3c-1.3-0.5-2.5-1-3.8-1.4c-2.5-0.9-5.1-1.9-7.6-2.7
			c-10.5-3.6-21.1-6.6-32-9c-2.1-0.5-4.2-0.9-6.3-1.3c-7.1-1.4-14.2-2.6-21.4-3.5c-2.2-0.3-4.5-0.5-6.7-0.8
			c-9.8-1-19.6-1.5-29.6-1.5l0,0h-292.3h0c-2.2,0-4.4,0.1-6.5,0.3c-6.5,0.5-12.9,1.9-19.1,4.1L1549,1101.3
			c-7.3,2.6-14.4,5.4-21.4,8.7c-2.8,1.3-5.5,2.6-8.2,4c-1.4,0.7-2.7,1.4-4,2.1c-74.7,40.2-122.7,118.6-122.7,205.4v41.2l-69.5,69.5
			l-69.5,69.5c-7.9,7.9-15.3,16.2-22.1,24.8c-2.8,3.5-5.5,7.1-8.2,10.8c-1.7,2.3-3.3,4.6-4.9,7c-1.4,2.1-2.8,4.2-4.2,6.4
			c-6.6,10.2-12.5,20.7-17.7,31.6c-0.7,1.4-1.3,2.8-2,4.2c-2.3,5-4.5,10-6.5,15.1c-0.6,1.5-1.2,3-1.8,4.5
			c-12.5,33.1-19.1,68.5-19.1,104.5v280.3h0l0,0l0.9,0.9v209.7l179.4,191.2v182.7l0.4,0.4v193.9l194.2,177.4h338.1l38.4-55.1h39.6
			c31.6,0,62.2-11.6,85.9-32.6l68.7-72.9v-133.8l1.2-1.1V2516l171.4-156.5h155.8l26.4,16.8l12-16.8h115.1v-2.4l76.2-45.6v0h0.5h83.9
			l47.9-28.8v-50.4l0,0l223.4-133.5l53.1-31.5l-0.1-0.1l15.4-9.2c92.7-55.4,149.4-155.4,149.4-263.4v-219.1L3143.8,1484.4z
			 M2594.8,2231.4l1.4-0.8l-1.4,1.9V2231.4z"/>
		<path class="st2" d="M2601.2,2232.5v124.7l500.3-299.1c92.7-55.4,149.4-155.4,149.4-263.4v-219.1l-100.7-91.1L2601.2,2232.5z"/>
		<polygon class="st3" points="2291.9,2222.9 2291.9,2359.6 2447.8,2359.6 2474.2,2376.3 2486.1,2359.6 2601.2,2359.6 
			2601.2,2222.9 		"/>
		<path class="st3" d="M1548.7,2769.6V2947h338.1l38.4-55.1h39.6c31.6,0,62.2-11.6,85.9-32.6l68.7-72.9v-134.3l-570.6,45.6V2769.6z"
			/>
		<g>
			<path class="st4" d="M1552.5,2759.6l-188.5-188.5V2171c0-2.7-1.1-5.2-2.9-7.1l-177.4-177.4v-276.2c0-37.7,7.3-74.4,21.7-109.2
				c14.4-34.8,35.2-65.9,61.9-92.6l138.9-138.9c1.9-1.9,2.9-4.4,2.9-7.1v-41.2c0-94.8,60.1-179.5,149.6-210.7l325.6-113.6
				c7.2-2.5,14.7-3.8,22.3-3.8H2199c85.4,0,165.6,37.8,220,103.7l80.9,97.9c28.5,34.5,64.9,62.8,105.3,81.8
				c40.4,19,85.4,29.1,130.1,29.1h129.6c29.5,0,58.2,5.7,85.4,17c27.2,11.3,51.6,27.6,72.4,48.4l118.4,118.4v240.5
				c0,48.8-12.6,97.1-36.5,139.7s-58.5,78.5-100.2,103.9l-406.4,248h-305c-2.4,0-4.7,0.9-6.5,2.4L2114,2371.8
				c-2.2,1.9-3.5,4.7-3.5,7.6v267.8l-53.8,51.1c-41.7,39.6-96.3,61.4-153.7,61.4H1552.5z"/>
			<path class="st5" d="M2199,1003.3c40.3,0,80.9,9.1,117.4,26.3c36.5,17.2,69.3,42.7,95,73.8l80.9,97.9
				c14.8,17.9,31.7,34.3,50,48.5c18.2,14.1,37.9,26.2,58.7,36c20.8,9.8,42.7,17.3,65.1,22.4c22.7,5.1,46,7.7,69.3,7.7h129.6
				c28.1,0,55.6,5.5,81.6,16.2c26,10.8,49.3,26.3,69.2,46.2l115.5,115.5v236.3c0,47.1-12.2,93.7-35.2,134.8s-56.5,75.8-96.7,100.3
				l-404,246.5h-302.2c-4.8,0-9.4,1.7-13,4.8l-172.6,147.7c-4.4,3.8-7,9.4-7,15.2v263.5l-50.6,48.1c-19.7,18.7-42.5,33.3-67.8,43.4
				c-25.3,10.1-51.9,15.2-79.1,15.2h-346.3l-182.6-182.6V2171c0-5.3-2.1-10.4-5.9-14.1l-174.5-174.5v-272c0-36.3,7.1-71.8,21-105.4
				c13.9-33.6,34-63.6,59.7-89.3l138.9-138.9c3.8-3.8,5.9-8.8,5.9-14.1v-41.2c0-90.6,57.4-171.4,142.9-201.3l325.6-113.6
				c6.1-2.1,12.5-3.2,19-3.2H2199 M2199,983.3h-292.3c-8.7,0-17.4,1.5-25.6,4.3l-325.6,113.6c-93.6,32.7-156.3,121-156.3,220.2v41.2
				l-138.9,138.9c-55.4,55.4-86.5,130.5-86.5,208.9v280.3l180.3,180.3v404.2l194.3,194.3H1903c59.8,0,117.3-23,160.6-64.1l56.9-54
				v-272.1l172.6-147.7h307.8l408.8-249.4c87.9-53.6,141.5-149.2,141.5-252.1v-244.6l-121.4-121.4c-43.7-43.7-103-68.3-164.9-68.3
				h-129.6c-88.1,0-171.6-39.3-227.7-107.3l-80.9-97.9C2370.6,1022.6,2287.1,983.3,2199,983.3L2199,983.3z"/>
		</g>
		<polygon class="st6" points="1174.6,1990.3 1174.6,2201.3 1354.1,2392.5 1354.5,2170.1 		"/>
		<polygon class="st6" points="1548.7,2769.6 1354.5,2575.3 1354.5,2769.6 1548.7,2947 		"/>
		<polygon class="st2" points="1886.7,2947 1886.7,2819.9 1925.1,2891.8 		"/>
		<polygon class="st2" points="2119.3,2378.7 2291.9,2232.5 2291.9,2359.6 2120.5,2516 		"/>
		<polygon class="st2" points="2474.2,2376.3 2474.2,2340.4 2486.1,2359.6 		"/>
		<polyline class="st3" points="3033.2,2098.9 3033.2,2093.7 3033.2,2014.3 3086.3,2067.4 		"/>
		<polygon class="st2" points="2809.8,2232.5 2809.8,2282.8 2761.9,2311.6 2677.4,2311.6 2697.1,2222.9 		"/>
		<polygon class="st3" points="2678,2311.6 2678,2249.3 2761.9,2311.6 		"/>
		<line class="st7" x1="1558.3" y1="2357.2" x2="1620.6" y2="2357.2"/>
		<line class="st7" x1="1699.7" y1="2462.7" x2="1759.7" y2="2462.7"/>
		<line class="st7" x1="1354.5" y1="1798.5" x2="1395.2" y2="1798.5"/>
		<line class="st7" x1="1426.4" y1="1863.2" x2="1483.9" y2="1863.2"/>
		<line class="st7" x1="1925.1" y1="1383.7" x2="1874.7" y2="1383.7"/>
		<line class="st7" x1="1925.1" y1="1448.4" x2="1975.4" y2="1448.4"/>
		<line class="st7" x1="2761.9" y1="1848.9" x2="2706.7" y2="1848.9"/>
		<line class="st7" x1="2718.7" y1="1920.8" x2="2642" y2="1920.8"/>
		<line class="st7" x1="1843.6" y1="1748.2" x2="1898.7" y2="1748.2"/>
		<line class="st7" x1="2018.6" y1="1863.2" x2="2066.6" y2="1863.2"/>
		<line class="st7" x1="2431" y1="1402.9" x2="2371.1" y2="1402.9"/>
		<line class="st7" x1="1589.4" y1="1256.6" x2="1642.2" y2="1256.6"/>
		<line class="st7" x1="2912.9" y1="1542" x2="2848.2" y2="1542"/>
		<g>
			<g>
				<path class="st3" d="M1641.4,1221h-31.6c0.3-11.5-0.3-23-1.7-34.4c-2.3-16-6.4-31.7-12.5-46.7c-5.3-12.1-11.9-23.6-19.9-34.2
					c-7.2-9.1-15.4-17.4-24.4-24.7c-0.1-0.1-0.2-0.1-0.2-0.2c-1.5-1.1-3-2.2-4.6-3.3l2.4-18.2l23.4-1.9c5,4,9.7,8.2,14.2,12.7
					c19.2,19.4,33.3,43.1,42.5,68.8c4.7,13,7.9,26.5,9.8,40.2C1640.7,1193.1,1641.7,1207,1641.4,1221z"/>
				<path class="st5" d="M1597.6,1036.1c4.6,5,7.7,11.4,8.3,18.7l-33.4,2.6l-23.4,1.9l-2.4,18.2l-5.8,43.1
					c-13.2-1.8-23.3-11.5-26.1-23.7l-10.5,30.8c-15.5-5.3-23.7-22.1-18.4-37.5l17.2-50.3c4.8-14,16-24.9,30.1-29.4l46.7-14.8
					c15.6-4.9,32.2,3.7,37.1,19.2l-36.9,11.7C1586.7,1027.8,1592.9,1031.2,1597.6,1036.1z"/>
			</g>
			<g>
				<path class="st2" d="M1736.7,1153.7c2.5,22.8,4.5,45.8,3.4,68.8h-22.7c0.8-17.8-0.2-35.6-1.8-53.3c-3.3-35.3-9.1-70.4-7.7-105.9
					c0.7-18.1,3.2-36.5,8.4-54l19.9-8.2l4.5,6.5c-4,11.2-6.7,22.9-8.4,34.8c-1.5,12.1-2,24.2-1.9,36.4
					C1730.7,1103.9,1734,1128.8,1736.7,1153.7z"/>
				<path class="st8" d="M1806.5,1036.5l-27.8-25.4c1.3,3.5,2,7.1,2,10.7c0,9.6-4.6,19-13.1,24.9l-26.9-39.1l-4.5-6.5l-19.9,8.2
					l-35.8,14.7c-4.9-11.9-1.6-25.2,7.3-33.5l-31.1,6.1c-3.1-15.6,7.1-30.7,22.6-33.8l50.7-10c14.1-2.8,28.8,1.3,39.4,11l35.2,32.1
					c6.2,5.7,9.4,13.4,9.4,21.2C1814,1024.1,1811.5,1031,1806.5,1036.5z"/>
			</g>
			<g>
				<path class="st2" d="M2520.8,1433.4c0,15.7-11.5,28.7-26.5,31.1c0,0,0,0,0,0c-2.9-2.6-5.4-5.5-7.5-8.9h2.4
					c12.3,0,22.2-10,22.3-22.2H2520.8z"/>
				<path class="st3" d="M2583.9,1597h-33.5c0-22.7-7.7-41.9-17.9-57c-11.7-17.2-26.8-29.2-37.8-35.2c-2.1-1.2-4.3-2.4-6.4-3.6
					h-36.5c-17.4,0-31.6-14.2-31.6-31.6v-36.2h9.4v36.2c0,12.3,10,22.3,22.3,22.3h22.9c-5.7-4.6-10.9-10-15.3-16.6
					c-2.1-3.2-4-6.6-5.6-10.3c0,0,0,0,0,0l-3.5-9.3c0,0,0,0,0-0.1c-2-6.6-3.5-13.9-4.5-22.2h33.7c1.4,9.6,3.7,16.6,7.1,22.2
					c2.1,3.4,4.6,6.3,7.5,8.9c0,0,0,0,0,0c4.4,4,9.9,7.3,16.6,11c17.5,9.6,34.8,25.3,47.4,42.9c1.9,2.7,3.7,5.4,5.4,8.1
					C2577,1548,2583.9,1572.2,2583.9,1597z"/>
				<path class="st3" d="M2454,1464.9c-1.3-2.9-2.5-6-3.5-9.3L2454,1464.9z"/>
				<path class="st5" d="M2556.2,1433.4H2356v-0.3c0-20.4,16.6-37,37-37c9.9,0,18.9,3.9,25.5,10.2c4-19.6,18.9-35.2,38-40.4
					c4.4-1.2,9.1-1.8,13.9-1.8c20.4,0,38.1,11.5,47,28.4c1.4,2.6,2.6,5.4,3.5,8.3c1.6,5.1,2.5,10.6,2.5,16.2c0,0.5,0,0.9,0,1.4
					c2.6-0.9,5.4-1.4,8.4-1.4C2542.8,1417,2552.2,1423.8,2556.2,1433.4z"/>
				<path class="st8" d="M2477.6,1417c0,0.9,0,1.8-0.1,2.6c-0.2,4.7-0.8,9.3-1.8,13.7H2356v-0.3c0-20.4,16.6-37,37-37
					c9.9,0,18.9,3.9,25.5,10.2c4-19.6,18.9-35.2,38-40.4C2469.5,1379,2477.6,1397,2477.6,1417z"/>
				<path class="st6" d="M2583.9,1597h-33.5c0-22.7-7.7-41.9-17.9-57c8.8-7,19.5-11.7,31.1-13.5
					C2577,1548,2583.9,1572.2,2583.9,1597z"/>
			</g>
			<g>
				<path class="st3" d="M2668.8,1396.1v202.7h-33.3v-128.9h-25c-16.6,0-30.1-13.5-30.1-30.1v-43.8h11.6v43.8
					c0,10.2,8.3,18.5,18.5,18.5h25v-62.3H2668.8z"/>
				<path class="st2" d="M2707.9,1396.1v9c0,16.6-13.5,30.1-30.1,30.1h-9v-11.6h9c10.2,0,18.5-8.3,18.5-18.5v-9H2707.9z"/>
				<path class="st5" d="M2759,1396.1h-248v-0.4c0-25.3,20.5-45.8,45.8-45.8c12.3,0,23.4,4.8,31.6,12.6c5-24.3,23.4-43.6,47.1-50.1
					c5.5-1.5,11.3-2.3,17.2-2.3c25.3,0,47.2,14.3,58.2,35.2c1.7,3.3,3.2,6.7,4.3,10.3c2,6.3,3.1,13.1,3.1,20.1c0,0.6,0,1.1,0,1.7
					c3.3-1.1,6.7-1.7,10.4-1.7C2742.3,1375.8,2754.1,1384.2,2759,1396.1z"/>
				<path class="st8" d="M2661.6,1375.8c0,1.1,0,2.2-0.1,3.3c-0.2,5.8-1,11.5-2.2,17H2511v-0.4c0-25.3,20.5-45.8,45.8-45.8
					c12.3,0,23.4,4.8,31.6,12.6c5-24.3,23.4-43.6,47.1-50.1C2651.6,1328.7,2661.6,1351.1,2661.6,1375.8z"/>
				<path class="st6" d="M2668.8,1499.8v99h-33.3v-80.4C2644.7,1509.6,2656.1,1503.1,2668.8,1499.8z"/>
			</g>
			<g>
				<polygon class="st3" points="2900.2,1572.2 2900.2,1614 2719.8,1614 2719.8,1579.1 2778.2,1519 2827,1519 				"/>
				<polygon class="st6" points="2809.5,1551.2 2809.5,1583.5 2778.2,1614 2719.8,1614 2719.8,1579.1 2778.2,1519 				"/>
			</g>
			<g>
				<polygon class="st3" points="2417.3,1628.7 2440,1681 2509.7,1681 2530.6,1646.1 2517.6,1609.5 2456.5,1586 				"/>
				<polygon class="st6" points="2417.3,1628.7 2440,1681 2461.3,1681 2461.3,1681 2481.8,1642.7 2456.5,1586 				"/>
			</g>
			<g>
				<polygon class="st2" points="1998.8,1355.8 1998.8,1397.6 1818.4,1397.6 1818.4,1362.8 1876.8,1302.6 1925.6,1302.6 				"/>
				<polygon class="st3" points="1908.1,1334.9 1908.1,1367.1 1876.8,1397.6 1818.4,1397.6 1818.4,1362.8 1876.8,1302.6 				"/>
			</g>
			<g>
				
					<rect x="1900" y="1086.1" transform="matrix(0.3791 -0.9254 0.9254 0.3791 120.8858 2483.3723)" class="st6" width="21.9" height="131"/>
				
					<rect x="1845.4" y="1140.7" transform="matrix(0.9254 -0.379 0.379 0.9254 -293.9116 810.2294)" class="st6" width="131" height="21.9"/>
				<rect x="1839.4" y="1114.4" class="st6" width="21.9" height="78.8"/>
				<rect x="1960.6" y="1114.4" class="st6" width="21.9" height="78.8"/>
				<rect x="1750.3" y="953.4" class="st6" width="319.8" height="162.4"/>
				<rect x="1741.5" y="1076.4" class="st3" width="337.3" height="21.9"/>
				<rect x="1741.5" y="1038.4" class="st3" width="337.3" height="21.9"/>
				<rect x="1741.5" y="1000.5" class="st3" width="337.3" height="21.9"/>
				<rect x="1811.4" y="945" class="st3" width="195.5" height="201.4"/>
				<path class="st2" d="M2088.7,1010.4l-179.1-78.1c0,0,0,0,0,0l-177.7,78.1c0,0,0,0,0,0l0,0c-11.7-26.7,0.4-57.8,27.1-69.5
					l130.2-57.2c13-5.7,27.7-5.7,40.7-0.1c41.5,18.1,131.8,57.5,131.8,57.5c26.6,11.6,38.8,42.6,27.2,69.2L2088.7,1010.4
					C2088.7,1010.4,2088.7,1010.4,2088.7,1010.4z"/>
				<path class="st2" d="M1803.9,1039.1L1803.9,1039.1c-15.6-18.5-13.3-46.1,5.1-61.7l66.4-56.2c22.3-18.9,55.1-18.4,76.8,1.2
					l60.6,54.5c18,16.2,19.4,43.9,3.3,61.9l0,0l-102.6-92.3L1803.9,1039.1z"/>
				<rect x="1750.3" y="1114.4" class="st6" width="21.9" height="78.8"/>
				<rect x="2048.2" y="1114.4" class="st6" width="21.9" height="78.8"/>
				<circle class="st6" cx="1908.7" cy="1011.4" r="26.3"/>
				<rect x="1877.3" y="1056" class="st2" width="64.2" height="90.5"/>
				<rect x="1890.5" y="1069.1" class="st6" width="39.4" height="78.8"/>
			</g>
		</g>
	</g>
	<g id="opt1">
		<g id="opt1_1_">
			<polygon class="st3" points="1480,1097 1480,1225 1533,1273.3 1553,1312 1650,1312 1666,1273.3 2149,1273.3 2111,1097 			"/>
			<polygon class="st2" points="2323,889 2323,1094 2149,1273 2111,1097 			"/>
			<polygon class="st3" points="2323,889 2397,889 2393,1092 2323,1094 			"/>
			<polygon class="st6" points="1553,1312 1570.7,1098.6 1533,1273.3 			"/>
			<g>
				<g>
					<path class="st4" d="M1490,1087.5V922.7c0-28.3,8.5-55.7,24.5-79.1c16-23.4,38.4-41.2,64.9-51.4l56.3-21.8
						c3.8-1.5,6.4-5.2,6.4-9.3V654.8c0-34.3,19.1-65.2,49.8-80.5l31.6-15.8c12.4-6.2,26.3-9.5,40.2-9.5h471.8l135.4,158.5
						c14.9,17.4,22.5,39.6,21.5,62.5l-4.8,108H2323c-2.7,0-5.2,1.1-7.1,2.9l-206.1,206.6H1490z"/>
					<path class="st5" d="M2230.8,559l132.4,155c13.2,15.5,20,35.2,19.1,55.5l-4.4,98.5H2323c-5.3,0-10.4,2.1-14.2,5.9l-203.1,203.6
						H1500V922.7c0-26.3,7.9-51.7,22.7-73.4c14.9-21.7,35.7-38.2,60.2-47.8l56.3-21.8c7.7-3,12.8-10.4,12.8-18.6V654.8
						c0-14.9,4.1-29.4,11.9-42.1c7.8-12.6,19-22.8,32.3-29.5l31.6-15.8c11.1-5.5,23.4-8.4,35.8-8.4H2230.8 M2240,539h-476.4
						c-15.5,0-30.8,3.6-44.7,10.6l-31.6,15.8c-33.9,16.9-55.3,51.6-55.3,89.4V761l-56.3,21.8c-57.7,22.4-95.7,77.9-95.7,139.8v174.8
						h634L2323,888h74l5.2-117.6c1.1-25.3-7.4-50.1-23.9-69.4L2240,539L2240,539z"/>
				</g>
				<polygon class="st2" points="1650,1312 1636,1193.6 1666,1273.3 				"/>
			</g>
		</g>
		<g id="opt1_x5F_pack1">
			<g>
				<path class="st3" d="M2080.3,580.3c0-4.1,0-8.2,0.1-12.4c0.2-5.7,0.8-11.2,1.6-16.8c1.3-9,4.3-17.3,7.9-25.6
					c3.7-8.2,8.8-15.6,14.6-22.5c4.8-5.8,10.8-10.6,15.7-16.3c0,0,0,0,0,0c0.8-1.1,1.5-2.3,2.1-3.5c0.5-1.5,0.9-3,1.2-4.5
					c0.4-4.4,0.2-8.9-0.2-13.3h9.5h26.7c0.3,3.6,0.5,7.1,0.4,10.7c-0.1,3.7-0.6,7.4-1.2,11c-0.3,2.2-0.9,4.3-1.6,6.4
					c-0.1,0.2-0.2,0.5-0.3,0.7h7.7c6.7,0,12.1-5.4,12.1-12.1v-16.6h7.4V482c0,10.8-8.8,19.5-19.5,19.5h-11c-0.3,0.6-0.6,1.1-0.9,1.7
					c-1.8,3-4,5.7-6.2,8.4c-2.7,3.2-5.7,6.1-8.7,9c-2.8,2.7-5.6,5.6-8.1,8.6c-3.1,4.3-5.8,8.9-8,13.8c-2,5.2-3.5,10.6-4.4,16.1
					c-1.3,12-0.4,24.1-0.9,36.1h-36.2C2080.3,590.3,2080.3,585.3,2080.3,580.3z"/>
				<path class="st5" d="M2236.3,465.4h-83.7c1.1-4.6,1.7-9.4,1.9-14.3c0-0.9,0.1-1.8,0.1-2.7c0-0.2,0-0.4,0-0.6
					c-0.1-20.5-8.5-39.1-22-52.6c4.6-1.3,9.5-1.9,14.5-1.9c21.2,0,39.6,12,48.9,29.6c1.4,2.7,2.7,5.6,3.6,8.6
					c1.7,5.3,2.6,11,2.6,16.9c0,0.5,0,0.9,0,1.4c2.7-0.9,5.7-1.4,8.7-1.4C2222.3,448.4,2232.2,455.4,2236.3,465.4z"/>
				<path class="st8" d="M2154.5,448.4c0,0.9,0,1.8-0.1,2.7c-0.2,4.9-0.8,9.7-1.9,14.3h-124.5v-0.3c0-21.2,17.2-38.4,38.4-38.4
					c10.3,0,19.6,4,26.5,10.6c4.2-20.4,19.6-36.6,39.5-42.1c13.5,13.5,21.8,32.1,22,52.6C2154.5,448,2154.5,448.2,2154.5,448.4z"/>
			</g>
			<g>
				<polygon class="st6" points="1926.1,406.7 1882.2,406.7 1681.7,841.6 1842.4,841.7 1842.4,841.6 1842.4,841.6 				"/>
				<polygon class="st9" points="1926.1,406.6 1959.9,355.1 1957.8,242.7 1957.8,242.7 1957.6,243 1882.2,406.7 1926.1,406.7 				
					"/>
				<polygon class="st2" points="2053,841.7 2233.9,841.6 2052.9,841.6 				"/>
				<polygon class="st3" points="2025.1,565.5 1962.3,482.5 1960,355.6 1960,355.6 1959.9,355.1 1959.9,355.1 1959.9,355.1 
					1926.1,406.7 1842.4,841.6 2052.9,841.6 				"/>
				<polygon class="st3" points="2233.9,841.6 2037.4,415.3 2037.3,415.2 2037.4,415.3 				"/>
				<polygon class="st3" points="1926.1,406.7 1926.1,406.7 1842.4,841.6 1842.4,841.6 1926.1,406.7 				"/>
				<polygon class="st3" points="1926.1,406.7 1926.1,406.7 1926.1,406.7 1959.9,355.1 1959.9,355.1 1926.1,406.6 				"/>
				<polygon class="st2" points="1960,355.6 1962.3,482.5 2025.1,565.5 2052.9,841.6 2233.9,841.6 2037.4,415.3 				"/>
				<polygon class="st10" points="2037.3,415.2 1957.8,242.7 1960,355.6 1960,355.6 				"/>
				<polygon class="st10" points="2037.4,415.3 2037.3,415.2 1960,355.6 1960,355.6 1960,355.6 				"/>
			</g>
			<g>
				<g>
					<polygon class="st3" points="2190.2,494.5 2190.2,494.4 2017.4,842.7 2247.2,842.7 2247.3,841.3 					"/>
					<polygon class="st2" points="2190.2,494.5 2247.3,841.3 2247.2,842.7 2363,842.7 					"/>
				</g>
				<polygon class="st9" points="2146.5,582.5 2176.6,582.5 2214.7,643.2 2190.2,494.3 				"/>
				<polygon class="st10" points="2190.2,494.3 2214.7,642.6 2264,642.6 				"/>
			</g>
			<g>
				<path class="st2" d="M1603.1,686.1c0,14.9-11,27.3-25.2,29.6c0,0,0,0,0,0c-2.8-2.5-5.2-5.2-7.1-8.5h2.3
					c11.7,0,21.2-9.5,21.2-21.1H1603.1z"/>
				<path class="st3" d="M1663.1,841.7h-31.8c0-21.6-7.3-39.8-17-54.2c-11.1-16.4-25.5-27.7-35.9-33.5c-2-1.1-4-2.3-6.1-3.5h-34.7
					c-16.6,0-30.1-13.5-30.1-30.1v-34.4h8.9v34.4c0,11.7,9.5,21.2,21.2,21.2h21.7c-5.4-4.4-10.3-9.5-14.5-15.8c-2-3-3.8-6.3-5.3-9.7
					c0,0,0,0,0,0l-3.3-8.8c0,0,0,0,0-0.1c-1.9-6.2-3.3-13.2-4.3-21.1h32.1c1.3,9.1,3.5,15.8,6.7,21.1c2,3.2,4.3,6,7.1,8.5
					c0,0,0,0,0,0c4.2,3.8,9.4,6.9,15.8,10.4c16.7,9.2,33.1,24,45.1,40.8c1.8,2.5,3.5,5.1,5.1,7.7
					C1656.5,795.1,1663.1,818.1,1663.1,841.7z"/>
				<path class="st3" d="M1539.5,716.1c-1.2-2.8-2.3-5.7-3.3-8.8L1539.5,716.1z"/>
				<path class="st5" d="M1636.7,686.1h-190.4v-0.3c0-19.4,15.7-35.1,35.1-35.1c9.4,0,17.9,3.7,24.2,9.7
					c3.8-18.6,17.9-33.5,36.1-38.4c4.2-1.1,8.7-1.8,13.2-1.8c19.4,0,36.3,11,44.7,27.1c1.3,2.5,2.4,5.2,3.3,7.9
					c1.6,4.9,2.4,10,2.4,15.4c0,0.4,0,0.9,0,1.3c2.5-0.8,5.2-1.3,8-1.3C1623.9,670.6,1633,677,1636.7,686.1z"/>
				<path class="st8" d="M1562,670.6c0,0.8,0,1.7-0.1,2.5c-0.1,4.5-0.7,8.8-1.7,13.1h-113.8v-0.3c0-19.4,15.7-35.1,35.1-35.1
					c9.4,0,17.9,3.7,24.2,9.7c3.8-18.6,17.9-33.5,36.1-38.4C1554.3,634.4,1562,651.6,1562,670.6z"/>
				<path class="st6" d="M1663.1,841.7h-31.8c0-21.6-7.3-39.8-17-54.2c8.4-6.6,18.5-11.2,29.6-12.9
					C1656.5,795.1,1663.1,818.1,1663.1,841.7z"/>
			</g>
			<g>
				<polygon class="st2" points="1914.6,841.7 1575.9,841.7 1745.3,667.2 				"/>
				<polygon class="st3" points="1745.3,667.2 1745.3,841.7 1575.9,841.7 				"/>
			</g>
			<g>
				<path class="st11" d="M1838.4,498.3c-1.6,0-3.2,0.1-4.8,0.2c-14.9-51.6-62.4-89.3-118.8-89.3c-66.1,0-120.2,51.9-123.5,117.3
					c-8.5-4.5-18.3-7-28.6-7c-34.1,0-61.8,27.7-61.8,61.8c0,0.2,0,0.4,0,0.6h409c0.6-3.6,0.9-7.4,0.9-11.1
					C1910.8,530.7,1878.4,498.3,1838.4,498.3z"/>
			</g>
			<g>
				<path class="st10" d="M2441.8,726.4c-1.1,0-2.2,0.1-3.3,0.1c-10.3-35.6-43.2-61.7-82.1-61.7c-45.7,0-83,35.9-85.3,81.1
					c-5.9-3.1-12.6-4.8-19.7-4.8c-23.6,0-42.7,19.1-42.7,42.7c0,0.1,0,0.3,0,0.4h282.7c0.4-2.5,0.6-5.1,0.6-7.7
					C2491.9,748.8,2469.5,726.4,2441.8,726.4z"/>
			</g>
			<g>
				<polygon class="st3" points="1741,946.2 1741,993.7 1536,993.7 1536,954.1 1602.3,885.7 1657.8,885.7 				"/>
				<polygon class="st6" points="1638,922.4 1638,959 1602.3,993.7 1536,993.7 1536,954.1 1602.3,885.7 				"/>
			</g>
			<g>
				<polygon class="st3" points="2078.6,922.6 2104.4,982 2183.6,982 2207.4,942.4 2192.5,900.8 2123.2,874 				"/>
				<polygon class="st6" points="2078.6,922.6 2104.4,982 2128.6,982 2128.6,982 2151.9,938.4 2123.2,874 				"/>
			</g>
			<g>
				<polygon class="st2" points="1819.6,1006.6 1845.4,1066 1924.6,1066 1948.4,1026.4 1933.5,984.8 1864.2,958 				"/>
				<polygon class="st3" points="1819.6,1006.6 1845.4,1066 1869.6,1066 1869.6,1066 1892.9,1022.4 1864.2,958 				"/>
			</g>
		</g>
	</g>
	<g id="opt2">
		<g>
			<path class="st3" d="M2426.4,1735.1l-64-73h-65.5l-40.2-46.2v-71.5l-14.9-17.9h-10.4c-49.4,0-89.4-40-89.4-89.4v-162.3h363.4
				L2486,1616L2426.4,1735.1z"/>
			<g>
				<path class="st4" d="M2491.2,1606l-141.5-201.3c-1.9-2.7-4.9-4.2-8.2-4.2h-64.8c-24.7,0-48.2-6.9-68.1-20
					c-18.7-12.3-33.8-29.6-43.7-50.2s-14.1-43.1-12.1-65.4c2.1-23.7,11.4-46.4,26.7-65.7l83.6-105.2
					c50.2-63.2,115.2-115.1,187.9-150.2c72.7-35.1,153.8-53.6,234.5-53.6h257.6c109.5,0,198.5,89.1,198.5,198.5v250.6L2883.9,1606
					H2491.2z"/>
				<path class="st5" d="M2943.2,900.2c50.4,0,97.7,19.6,133.3,55.2c35.6,35.6,55.2,82.9,55.2,133.3v246.6L2879.6,1596h-383.3
					l-138.5-197c-3.7-5.3-9.8-8.5-16.4-8.5h-64.8c-22.7,0-44.3-6.3-62.6-18.3c-17.1-11.3-31-27.2-40.2-46.1
					c-9.1-18.9-13-39.7-11.1-60.2c2-21.7,10.5-42.6,24.6-60.4l83.6-105.2c24.8-31.3,53.3-59.7,84.5-84.6
					c30.8-24.6,64.4-45.7,100-62.8c35.5-17.1,73-30.3,111.4-39.1c38.9-8.9,78.8-13.5,118.8-13.5H2943.2 M2943.2,880.2h-257.6
					c-167.5,0-325.9,76.4-430.2,207.6l-83.6,105.2c-69.8,87.8-7.3,217.5,104.9,217.5h64.8L2486,1616h402.1l263.6-272.6v-254.7
					C3151.7,973.6,3058.4,880.2,2943.2,880.2L2943.2,880.2z"/>
			</g>
			<polygon class="st3" points="2486,1616 2426.4,1735.1 2980.5,1735.1 2888.1,1616 			"/>
			<polygon class="st2" points="3151.7,1343.4 3151.7,1481.9 3072.8,1569.8 3072.8,1636.8 2980.5,1735.1 2888.1,1616 			"/>
			<polygon class="st6" points="2241.7,1526.6 2341.5,1410.4 2486,1616 2426.4,1735.1 2363.9,1662.1 2363.9,1595.1 2296.9,1662.1 
				2256.6,1616 2256.6,1544.5 			"/>
		</g>
		<g id="opt2_x5F_pack1">
			<g id="waterfall_1_">
				<g>
					<g>
						<rect x="2639.4" y="1631.9" class="st12" width="111" height="200"/>
						<rect x="2663.4" y="1693.9" class="st13" width="11" height="111"/>
						<rect x="2696.4" y="1668.9" class="st13" width="11" height="49"/>
						<rect x="2723.4" y="1712.9" class="st13" width="11" height="111"/>
						<rect x="2723.4" y="1640.9" class="st13" width="11" height="14"/>
						<rect x="2696.4" y="1766.9" class="st13" width="11" height="14"/>
						<rect x="2663.4" y="1682.9" class="st3" width="11" height="11"/>
					</g>
					<path class="st12" d="M2856.4,1503.9v33.6c0,8.5-3.6,16.6-10,22.3l-23.8,21.3c-9.2,8.2-21.1,12.8-33.4,12.8h-38.9v38h-111
						v-37.5c0-4.1-1.7-8.1-4.7-10.9l-61.5-58.1c-3.7-3.5-8.6-5.5-13.7-5.5h-82.1l-46.1-61.5l-4.9-6.5c-7.4-9.9-0.4-24,12-24h289
						l0.6,0.9l49.4,75.1H2856.4z"/>
					<path class="st3" d="M2728.4,1427.9l-0.4,0.9l-14.6,29.6h-282.1l-4.9-6.5c-7.4-9.9-0.4-24,12-24H2728.4z"/>
					<polygon class="st6" points="2728.4,1427.9 2777.4,1503.9 2763.4,1533.9 2713.4,1458.9 					"/>
					<polygon class="st3" points="2777.4,1503.9 2856.4,1503.9 2856.4,1533.9 2763.4,1533.9 					"/>
				</g>
				<rect x="2639.4" y="1599.4" class="st13" width="111" height="38.4"/>
				<path class="st10" d="M2824.3,1784.2c-1,0-2,0-2.9,0.1c-9.1-31.4-38-54.3-72.2-54.3c-40.2,0-73.1,31.6-75.1,71.3
					c-5.2-2.7-11.1-4.3-17.4-4.3c-20.8,0-37.6,16.8-37.6,37.6c0,0.1,0,0.2,0,0.3h248.8c0.3-2.2,0.5-4.5,0.5-6.8
					C2868.4,1803.9,2848.7,1784.2,2824.3,1784.2z"/>
			</g>
			<g>
				<path class="st2" d="M2606.4,929c0,18-13.3,33-30.5,35.8c0,0,0,0,0,0c-3.4-3-6.2-6.3-8.6-10.3h2.8c14.1,0,25.6-11.5,25.6-25.6
					H2606.4z"/>
				<path class="st3" d="M2679,1117.3h-38.5c0-26.2-8.8-48.2-20.6-65.6c-13.4-19.8-30.8-33.6-43.5-40.5c-2.4-1.3-4.9-2.7-7.3-4.2
					h-41.9c-20.1,0-36.4-16.3-36.4-36.4V929h10.8v41.6c0,14.1,11.5,25.6,25.6,25.6h26.3c-6.5-5.3-12.5-11.5-17.6-19.1
					c-2.4-3.7-4.5-7.6-6.4-11.8c0,0,0,0,0,0l-4-10.7c0,0,0-0.1,0-0.1c-2.3-7.5-4-16-5.2-25.6h38.8c1.6,11.1,4.3,19.1,8.2,25.6
					c2.4,3.9,5.2,7.2,8.6,10.3c0,0,0,0,0,0c5.1,4.5,11.4,8.4,19.1,12.6c20.2,11.1,40.1,29.1,54.5,49.4c2.2,3.1,4.2,6.2,6.2,9.3
					C2671,1060.9,2679,1088.7,2679,1117.3z"/>
				<path class="st3" d="M2529.4,965.3c-1.5-3.3-2.8-6.9-4-10.7L2529.4,965.3z"/>
				<path class="st5" d="M2647.1,929h-230.4v-0.4c0-23.5,19-42.5,42.5-42.5c11.4,0,21.7,4.5,29.3,11.7c4.6-22.5,21.7-40.5,43.7-46.5
					c5.1-1.4,10.5-2.1,16-2.1c23.5,0,43.9,13.3,54.1,32.7c1.6,3,2.9,6.2,4,9.6c1.9,5.9,2.9,12.2,2.9,18.7c0,0.5,0,1,0,1.6
					c3-1,6.3-1.6,9.6-1.6C2631.6,910.1,2642.5,917.9,2647.1,929z"/>
				<path class="st8" d="M2556.6,910.1c0,1,0,2-0.1,3c-0.2,5.4-0.9,10.7-2.1,15.8h-137.7v-0.4c0-23.5,19-42.5,42.5-42.5
					c11.4,0,21.7,4.5,29.3,11.7c4.6-22.5,21.7-40.5,43.7-46.5C2547.3,866.4,2556.6,887.2,2556.6,910.1z"/>
				<path class="st6" d="M2679,1117.3h-38.5c0-26.2-8.8-48.2-20.6-65.6c10.2-8,22.4-13.5,35.8-15.6
					C2671,1060.9,2679,1088.7,2679,1117.3z"/>
			</g>
			<g>
				<path class="st2" d="M2697.9,762.3c0,12.9-9.5,23.7-21.9,25.7c0,0,0,0,0,0c-2.4-2.2-4.5-4.6-6.2-7.4h2
					c10.1,0,18.4-8.2,18.4-18.3H2697.9z"/>
				<path class="st3" d="M2750,897.4h-27.6c0-18.8-6.3-34.6-14.8-47.1c-9.7-14.2-22.1-24.1-31.2-29.1c-1.7-1-3.5-2-5.3-3H2641
					c-14.4,0-26.1-11.7-26.1-26.1v-29.9h7.7v29.9c0,10.1,8.3,18.4,18.4,18.4h18.9c-4.7-3.8-9-8.2-12.6-13.7
					c-1.7-2.6-3.3-5.5-4.6-8.5c0,0,0,0,0,0l-2.9-7.6c0,0,0,0,0-0.1c-1.7-5.4-2.9-11.5-3.7-18.3h27.9c1.2,7.9,3.1,13.7,5.9,18.3
					c1.7,2.8,3.8,5.2,6.2,7.4c0,0,0,0,0,0c3.7,3.3,8.2,6,13.7,9.1c14.5,8,28.8,20.9,39.1,35.5c1.6,2.2,3.1,4.4,4.5,6.7
					C2744.2,857,2750,877,2750,897.4z"/>
				<path class="st3" d="M2642.6,788.3c-1.1-2.4-2-4.9-2.9-7.6L2642.6,788.3z"/>
				<path class="st5" d="M2727.1,762.3h-165.4V762c0-16.9,13.7-30.5,30.5-30.5c8.2,0,15.6,3.2,21.1,8.4
					c3.3-16.2,15.6-29.1,31.4-33.4c3.7-1,7.5-1.5,11.5-1.5c16.9,0,31.5,9.5,38.8,23.5c1.1,2.2,2.1,4.5,2.9,6.9
					c1.4,4.2,2.1,8.7,2.1,13.4c0,0.4,0,0.8,0,1.1c2.2-0.7,4.5-1.1,6.9-1.1C2716,748.8,2723.8,754.3,2727.1,762.3z"/>
				<path class="st8" d="M2662.1,748.8c0,0.7,0,1.4,0,2.2c-0.1,3.9-0.6,7.7-1.5,11.3h-98.9V762c0-16.9,13.7-30.5,30.5-30.5
					c8.2,0,15.6,3.2,21.1,8.4c3.3-16.2,15.6-29.1,31.4-33.4C2655.5,717.3,2662.1,732.3,2662.1,748.8z"/>
				<path class="st6" d="M2750,897.4h-27.6c0-18.8-6.3-34.6-14.8-47.1c7.3-5.7,16.1-9.7,25.7-11.2C2744.2,857,2750,877,2750,897.4z"
					/>
			</g>
			<g>
				<polygon class="st6" points="2782,745 2743.2,745 2566.1,1129.4 2708,1129.4 2708.1,1129.4 2708,1129.4 				"/>
				<polygon class="st9" points="2782,745 2811.9,699.4 2810,600.1 2810,600.1 2809.9,600.4 2743.2,745 2782,745 				"/>
				<polygon class="st2" points="2894.1,1129.4 3054,1129.4 2894.1,1129.4 				"/>
				<polygon class="st3" points="2869.5,885.4 2814,812 2812,699.9 2812,699.8 2811.9,699.4 2811.9,699.4 2811.9,699.5 2782,745 
					2708.1,1129.4 2894.1,1129.4 				"/>
				<polygon class="st3" points="3054,1129.4 2880.3,752.6 2880.3,752.6 2880.3,752.7 				"/>
				<polygon class="st3" points="2782,745 2782,745 2708,1129.4 2708.1,1129.4 2782,745 				"/>
				<polygon class="st3" points="2782,745 2782,745 2782,745 2811.9,699.5 2811.9,699.4 2782,745 				"/>
				<polygon class="st2" points="2812,699.9 2814,812 2869.5,885.4 2894.1,1129.4 3054,1129.4 2880.3,752.7 				"/>
				<polygon class="st10" points="2880.3,752.6 2810,600.1 2812,699.8 2812,699.8 				"/>
				<polygon class="st10" points="2880.3,752.7 2880.3,752.6 2812,699.8 2812,699.8 2812,699.9 				"/>
			</g>
			<g>
				<polygon class="st2" points="2781,967.7 2720,967.7 2720,1130.8 2904,1130.8 				"/>
				<polygon class="st6" points="2659,967.7 2536.1,1130.8 2720,1130.8 2720,967.7 				"/>
				<polygon class="st10" points="2781,967.7 2720,886.8 2720,967.7 				"/>
				<polygon class="st9" points="2720,886.8 2659,967.7 2720,967.7 				"/>
			</g>
			<g>
				<path class="st10" d="M3225.9,802.7c-1.8,0-3.5,0.1-5.3,0.2c-16.3-56.4-68.2-97.6-129.8-97.6c-72.3,0-131.3,56.8-134.9,128.2
					c-9.3-4.9-20-7.6-31.2-7.6c-37.3,0-67.6,30.2-67.6,67.6c0,0.2,0,0.4,0,0.6h447c0.6-4,0.9-8,0.9-12.2
					C3305,838.1,3269.6,802.7,3225.9,802.7z"/>
			</g>
			<g>
				<path class="st11" d="M2638.6,637.2c-1,0-2,0-2.9,0.1c-9.1-31.4-38-54.3-72.2-54.3c-40.2,0-73.1,31.6-75.1,71.3
					c-5.2-2.7-11.1-4.3-17.4-4.3c-20.8,0-37.6,16.8-37.6,37.6c0,0.1,0,0.2,0,0.3h248.8c0.3-2.2,0.5-4.5,0.5-6.8
					C2682.7,656.9,2663,637.2,2638.6,637.2z"/>
			</g>
			<g>
				<path class="st3" d="M2364.9,1112.3v173.4h-28.5v-110.2H2315c-14.2,0-25.7-11.5-25.7-25.7v-37.4h9.9v37.4
					c0,8.7,7.1,15.8,15.8,15.8h21.3v-53.3H2364.9z"/>
				<path class="st2" d="M2398.3,1112.3v7.7c0,14.2-11.5,25.7-25.7,25.7h-7.7v-9.9h7.7c8.7,0,15.8-7.1,15.8-15.8v-7.7H2398.3z"/>
				<path class="st5" d="M2442,1112.3h-212.1v-0.3c0-21.6,17.5-39.2,39.2-39.2c10.5,0,20,4.1,27,10.8c4.3-20.8,20-37.3,40.2-42.8
					c4.7-1.3,9.6-2,14.7-2c21.6,0,40.4,12.2,49.8,30.1c1.5,2.8,2.7,5.7,3.7,8.8c1.7,5.4,2.7,11.2,2.7,17.2c0,0.5,0,1,0,1.4
					c2.8-0.9,5.8-1.4,8.9-1.4C2427.8,1094.9,2437.8,1102.1,2442,1112.3z"/>
				<path class="st8" d="M2358.7,1094.9c0,0.9,0,1.9-0.1,2.8c-0.2,5-0.8,9.8-1.9,14.6h-126.8v-0.3c0-21.6,17.5-39.2,39.2-39.2
					c10.5,0,20,4.1,27,10.8c4.3-20.8,20-37.3,40.2-42.8C2350.1,1054.6,2358.7,1073.8,2358.7,1094.9z"/>
				<path class="st6" d="M2364.9,1201v84.7h-28.5v-68.8C2344.2,1209.3,2354,1203.8,2364.9,1201z"/>
			</g>
			<g>
				<polygon class="st3" points="2706.8,1320.9 2706.8,1362.7 2526.4,1362.7 2526.4,1327.8 2584.8,1267.7 2633.6,1267.7 				"/>
				<polygon class="st6" points="2616.2,1300 2616.2,1332.2 2584.8,1362.7 2526.4,1362.7 2526.4,1327.8 2584.8,1267.7 				"/>
			</g>
			<g>
				<polygon class="st3" points="2977,1112.7 2999.6,1165 3069.4,1165 3090.3,1130.1 3077.2,1093.5 3016.2,1070 				"/>
				<polygon class="st6" points="2977,1112.7 2999.6,1165 3020.9,1165 3021,1165 3041.5,1126.7 3016.2,1070 				"/>
			</g>
			<g>
				<path class="st3" d="M2974,1376c0-3.6,0-7.3,0.1-10.9c0.2-5,0.7-9.9,1.4-14.8c1.1-7.9,3.8-15.3,7-22.5
					c3.2-7.3,7.7-13.7,12.8-19.8c4.3-5.1,9.5-9.3,13.8-14.3c0,0,0,0,0,0c0.7-1,1.3-2,1.9-3.1c0.4-1.3,0.8-2.6,1-3.9
					c0.3-3.9,0.1-7.8-0.2-11.7h8.3h23.5c0.2,3.1,0.4,6.3,0.3,9.4c-0.1,3.2-0.6,6.5-1.1,9.7c-0.3,1.9-0.8,3.8-1.4,5.6
					c-0.1,0.2-0.1,0.4-0.2,0.6h6.8c5.9,0,10.7-4.8,10.7-10.7v-14.6h6.5v14.6c0,9.5-7.7,17.2-17.2,17.2h-9.6c-0.3,0.5-0.5,1-0.8,1.5
					c-1.6,2.6-3.5,5-5.5,7.4c-2.3,2.8-5,5.4-7.6,7.9c-2.5,2.4-4.9,4.9-7.1,7.6c-2.7,3.8-5.1,7.9-7.1,12.1c-1.8,4.6-3.1,9.3-3.9,14.2
					c-1.1,10.5-0.3,21.2-0.8,31.8h-31.8C2974,1384.7,2974,1380.3,2974,1376z"/>
				<path class="st5" d="M3111.2,1274.8h-73.7c0.9-4.1,1.5-8.3,1.6-12.6c0-0.8,0.1-1.6,0.1-2.4c0-0.2,0-0.3,0-0.5
					c-0.1-18.1-7.5-34.4-19.3-46.3c4.1-1.1,8.3-1.7,12.7-1.7c18.7,0,34.9,10.6,43,26c1.3,2.4,2.3,5,3.2,7.6
					c1.5,4.7,2.3,9.7,2.3,14.9c0,0.4,0,0.8,0,1.2c2.4-0.8,5-1.2,7.7-1.2C3098.9,1259.9,3107.6,1266,3111.2,1274.8z"/>
				<path class="st8" d="M3039.3,1259.9c0,0.8,0,1.6-0.1,2.4c-0.1,4.3-0.7,8.5-1.6,12.6H2928v-0.3c0-18.7,15.1-33.8,33.8-33.8
					c9,0,17.3,3.5,23.3,9.3c3.7-17.9,17.3-32.2,34.8-37c11.8,11.9,19.2,28.2,19.3,46.3C3039.3,1259.5,3039.3,1259.7,3039.3,1259.9z"
					/>
			</g>
			<g>
				<path class="st3" d="M2814.8,1205c0-3.6,0-7.3-0.1-10.9c-0.2-5-0.7-9.9-1.4-14.8c-1.1-7.9-3.8-15.3-7-22.5
					c-3.2-7.3-7.7-13.7-12.8-19.8c-4.3-5.1-9.5-9.3-13.8-14.3c0,0,0,0,0,0c-0.7-1-1.3-2-1.9-3.1c-0.4-1.3-0.8-2.6-1-3.9
					c-0.3-3.9-0.1-7.8,0.2-11.7h-8.3h-23.5c-0.2,3.1-0.4,6.3-0.3,9.4c0.1,3.2,0.6,6.5,1.1,9.7c0.3,1.9,0.8,3.8,1.4,5.6
					c0.1,0.2,0.1,0.4,0.2,0.6h-6.8c-5.9,0-10.7-4.8-10.7-10.7v-14.6h-6.5v14.6c0,9.5,7.7,17.2,17.2,17.2h9.6c0.3,0.5,0.5,1,0.8,1.5
					c1.6,2.6,3.5,5,5.5,7.4c2.3,2.8,5,5.4,7.6,7.9c2.5,2.4,4.9,4.9,7.1,7.6c2.7,3.8,5.1,7.9,7.1,12.1c1.8,4.6,3.1,9.3,3.9,14.2
					c1.1,10.5,0.3,21.2,0.8,31.8h31.8C2814.7,1213.7,2814.8,1209.3,2814.8,1205z"/>
				<path class="st5" d="M2842.2,1103.8h-73.7c0.9-4.1,1.5-8.3,1.6-12.6c0-0.8,0.1-1.6,0.1-2.4c0-0.2,0-0.3,0-0.5
					c-0.1-18.1-7.5-34.4-19.3-46.3c4.1-1.1,8.3-1.7,12.7-1.7c18.7,0,34.9,10.6,43,26c1.3,2.4,2.3,5,3.2,7.6
					c1.5,4.7,2.3,9.7,2.3,14.9c0,0.4,0,0.8,0,1.2c2.4-0.8,5-1.2,7.7-1.2C2829.9,1088.9,2838.6,1095,2842.2,1103.8z"/>
				<path class="st8" d="M2770.3,1088.9c0,0.8,0,1.6-0.1,2.4c-0.1,4.3-0.7,8.5-1.6,12.6H2659v-0.3c0-18.7,15.1-33.8,33.8-33.8
					c9,0,17.3,3.5,23.3,9.3c3.7-17.9,17.3-32.2,34.8-37c11.8,11.9,19.2,28.2,19.3,46.3C2770.3,1088.5,2770.3,1088.7,2770.3,1088.9z"
					/>
			</g>
			<g id="river-path_1_">
				<path class="st14" d="M2696.4,1835.3V1981c0,27.6-22.4,50-50,50H2000c-27.6,0-50,22.4-50,50v118c0,27.6-22.4,50-50,50h-56
					c-27.6,0-50,22.4-50,50v742"/>
				<rect x="1730" y="2732.2" class="st13" width="128" height="38.4"/>
				<rect x="1758" y="2824" class="st13" width="11" height="111"/>
				<rect x="1791" y="2799" class="st13" width="11" height="49"/>
				<rect x="1818" y="2843" class="st13" width="11" height="111"/>
				<g>
					<path class="st10" d="M1911.2,2998.2c-1,0-2,0-2.9,0.1c-9.1-31.4-38-54.3-72.2-54.3c-40.2,0-73.1,31.6-75.1,71.3
						c-5.2-2.7-11.1-4.3-17.4-4.3c-20.8,0-37.6,16.8-37.6,37.6c0,0.1,0,0.2,0,0.3h248.8c0.3-2.2,0.5-4.5,0.5-6.8
						C1955.2,3017.9,1935.5,2998.2,1911.2,2998.2z"/>
				</g>
			</g>
		</g>
	</g>
	<g id="opt3">
		<g>
			<path class="st3" d="M2593.7,2917.6l-47.8-54.5h-48.9l-30-34.5v-53.3l-11.1-13.3h-7.8c-36.8,0-66.7-29.9-66.7-66.7v-121.1h271.2
				l-14.4,254.5L2593.7,2917.6z"/>
			<g>
				<path class="st4" d="M2643.4,2818.7l-104.8-149.1c-1.9-2.7-4.9-4.2-8.2-4.2h-48.3c-17.9,0-35-5-49.4-14.5
					c-13.5-8.9-24.5-21.5-31.7-36.4c-7.2-14.9-10.2-31.3-8.8-47.5c1.5-17.2,8.2-33.7,19.4-47.7l62.4-78.5
					c37.2-46.8,85.4-85.4,139.3-111.4c53.9-26,114-39.8,173.9-39.8h192.2c80.3,0,145.6,65.3,145.6,145.6v186l-191,197.4H2643.4z"/>
				<path class="st5" d="M2979.4,2299.7c36.2,0,70.3,14.1,95.9,39.7s39.7,59.7,39.7,95.9v182l-185.2,191.5h-281.2l-101.8-144.9
					c-3.7-5.3-9.8-8.5-16.4-8.5h-48.3c-16.2,0-30.9-4.3-43.9-12.8c-12-7.9-21.8-19.1-28.2-32.4c-6.4-13.3-9.1-27.9-7.8-42.2
					c1.4-15.4,7.2-29.7,17.3-42.3l62.4-78.5c18.3-23,39.2-44,62.2-62.3c22.7-18.1,47.5-33.7,73.6-46.3s53.8-22.3,82.1-28.8
					c28.6-6.6,58.1-9.9,87.5-9.9H2979.4 M2979.4,2279.7h-192.2c-125,0-243.2,57-321,154.9l-62.4,78.5
					c-52.1,65.5-5.4,162.3,78.3,162.3h48.3l107.8,153.4h300.1l196.7-203.4v-190.1C3135,2349.3,3065.3,2279.7,2979.4,2279.7
					L2979.4,2279.7z"/>
			</g>
			<polygon class="st3" points="2638.2,2828.7 2593.7,2917.6 3007.2,2917.6 2938.3,2828.7 			"/>
			<polygon class="st2" points="3135,2625.3 3135,2728.7 3076.1,2794.3 3076.1,2844.3 3007.2,2917.6 2938.3,2828.7 			"/>
			<polygon class="st6" points="2455.9,2762 2530.4,2675.3 2638.2,2828.7 2593.7,2917.6 2547.1,2863.2 2547.1,2813.1 2497.1,2863.2 
				2467,2828.7 2467,2775.4 			"/>
		</g>
		<g id="opt3_x5F_pack1_1_">
			<g>
				<path class="st3" d="M2897.6,2338.5v201.7h-33.1V2412h-24.8c-16.5,0-29.9-13.4-29.9-29.9v-43.6h11.5v43.6
					c0,10.1,8.3,18.4,18.4,18.4h24.8v-61.9H2897.6z"/>
				<path class="st2" d="M2936.5,2338.5v9c0,16.5-13.4,29.9-29.9,29.9h-9v-11.5h9c10.1,0,18.4-8.3,18.4-18.4v-9H2936.5z"/>
				<path class="st5" d="M2987.3,2338.5h-246.7v-0.4c0-25.2,20.4-45.6,45.6-45.6c12.2,0,23.3,4.8,31.4,12.6
					c5-24.1,23.2-43.4,46.8-49.8c5.5-1.5,11.2-2.3,17.2-2.3c25.2,0,47,14.2,57.9,35.1c1.7,3.3,3.2,6.7,4.3,10.2c2,6.3,3.1,13,3.1,20
					c0,0.6,0,1.1,0,1.7c3.2-1.1,6.7-1.7,10.3-1.7C2970.7,2318.3,2982.4,2326.6,2987.3,2338.5z"/>
				<path class="st8" d="M2890.4,2318.3c0,1.1,0,2.2-0.1,3.2c-0.2,5.8-1,11.5-2.2,16.9h-147.5v-0.4c0-25.2,20.4-45.6,45.6-45.6
					c12.2,0,23.3,4.8,31.4,12.6c5-24.1,23.2-43.4,46.8-49.8C2880.4,2271.4,2890.4,2293.7,2890.4,2318.3z"/>
				<path class="st6" d="M2897.6,2441.7v98.5h-33.1v-80C2873.6,2451.4,2884.9,2444.9,2897.6,2441.7z"/>
			</g>
			<g>
				<path class="st3" d="M2953.2,2523.4c0-3.6,0-7.3,0.1-10.9c0.2-5,0.7-9.9,1.4-14.8c1.1-7.9,3.8-15.3,7-22.5
					c3.2-7.3,7.7-13.7,12.8-19.8c4.3-5.1,9.5-9.3,13.8-14.3c0,0,0,0,0,0c0.7-1,1.3-2,1.9-3.1c0.4-1.3,0.8-2.6,1-3.9
					c0.3-3.9,0.1-7.8-0.2-11.7h8.3h23.5c0.2,3.1,0.4,6.3,0.3,9.4c-0.1,3.2-0.6,6.5-1.1,9.7c-0.3,1.9-0.8,3.8-1.4,5.6
					c-0.1,0.2-0.1,0.4-0.2,0.6h6.8c5.9,0,10.7-4.8,10.7-10.7v-14.6h6.5v14.6c0,9.5-7.7,17.2-17.2,17.2h-9.6c-0.3,0.5-0.5,1-0.8,1.5
					c-1.6,2.6-3.5,5-5.5,7.4c-2.3,2.8-5,5.4-7.6,7.9c-2.5,2.4-4.9,4.9-7.1,7.6c-2.7,3.8-5.1,7.9-7.1,12.1c-1.8,4.6-3.1,9.3-3.9,14.2
					c-1.1,10.5-0.3,21.2-0.8,31.8h-31.8C2953.3,2532.1,2953.2,2527.7,2953.2,2523.4z"/>
				<path class="st5" d="M3090.5,2422.2h-73.7c0.9-4.1,1.5-8.3,1.6-12.6c0-0.8,0.1-1.6,0.1-2.4c0-0.2,0-0.3,0-0.5
					c-0.1-18.1-7.5-34.4-19.3-46.3c4.1-1.1,8.3-1.7,12.7-1.7c18.7,0,34.9,10.6,43,26c1.3,2.4,2.3,5,3.2,7.6
					c1.5,4.7,2.3,9.7,2.3,14.9c0,0.4,0,0.8,0,1.2c2.4-0.8,5-1.2,7.7-1.2C3078.2,2407.2,3086.9,2413.4,3090.5,2422.2z"/>
				<path class="st8" d="M3018.6,2407.2c0,0.8,0,1.6-0.1,2.4c-0.1,4.3-0.7,8.5-1.6,12.6h-109.5v-0.3c0-18.7,15.1-33.8,33.8-33.8
					c9,0,17.3,3.5,23.3,9.3c3.7-17.9,17.3-32.2,34.8-37c11.8,11.9,19.2,28.2,19.3,46.3C3018.5,2406.9,3018.6,2407.1,3018.6,2407.2z"
					/>
			</g>
			<g>
				<path class="st3" d="M2544,2516.4c0-3.6,0-7.3-0.1-10.9c-0.2-5-0.7-9.9-1.4-14.8c-1.1-7.9-3.8-15.3-7-22.5
					c-3.2-7.3-7.7-13.7-12.8-19.8c-4.3-5.1-9.5-9.3-13.8-14.3c0,0,0,0,0,0c-0.7-1-1.3-2-1.9-3.1c-0.4-1.3-0.8-2.6-1-3.9
					c-0.3-3.9-0.1-7.8,0.2-11.7h-8.3h-23.5c-0.2,3.1-0.4,6.3-0.3,9.4c0.1,3.2,0.6,6.5,1.1,9.7c0.3,1.9,0.8,3.8,1.4,5.6
					c0.1,0.2,0.1,0.4,0.2,0.6h-6.8c-5.9,0-10.7-4.8-10.7-10.7v-14.6h-6.5v14.6c0,9.5,7.7,17.2,17.2,17.2h9.6c0.3,0.5,0.5,1,0.8,1.5
					c1.6,2.6,3.5,5,5.5,7.4c2.3,2.8,5,5.4,7.6,7.9c2.5,2.4,4.9,4.9,7.1,7.6c2.7,3.8,5.1,7.9,7.1,12.1c1.8,4.6,3.1,9.3,3.9,14.2
					c1.1,10.5,0.3,21.2,0.8,31.8h31.8C2544,2525.1,2544,2520.7,2544,2516.4z"/>
				<path class="st5" d="M2571.5,2415.2h-73.7c0.9-4.1,1.5-8.3,1.6-12.6c0-0.8,0.1-1.6,0.1-2.4c0-0.2,0-0.3,0-0.5
					c-0.1-18.1-7.5-34.4-19.3-46.3c4.1-1.1,8.3-1.7,12.7-1.7c18.7,0,34.9,10.6,43,26c1.3,2.4,2.3,5,3.2,7.6
					c1.5,4.7,2.3,9.7,2.3,14.9c0,0.4,0,0.8,0,1.2c2.4-0.8,5-1.2,7.7-1.2C2559.2,2400.2,2567.9,2406.4,2571.5,2415.2z"/>
				<path class="st8" d="M2499.6,2400.2c0,0.8,0,1.6-0.1,2.4c-0.1,4.3-0.7,8.5-1.6,12.6h-109.5v-0.3c0-18.7,15.1-33.8,33.8-33.8
					c9,0,17.3,3.5,23.3,9.3c3.7-17.9,17.3-32.2,34.8-37c11.8,11.9,19.2,28.2,19.3,46.3C2499.5,2399.9,2499.6,2400.1,2499.6,2400.2z"
					/>
			</g>
			<g>
				<polygon class="st2" points="2720.1,2580.2 2720.1,2622.1 2539.7,2622.1 2539.7,2587.2 2598.1,2527.1 2646.9,2527.1 				"/>
				<polygon class="st3" points="2629.5,2559.3 2629.5,2591.6 2598.1,2622.1 2539.7,2622.1 2539.7,2587.2 2598.1,2527.1 				"/>
			</g>
		</g>
		<g id="opt3_x5F_pack2">
			<g>
				
					<rect x="2766.2" y="2541.4" transform="matrix(0.3791 -0.9254 0.9254 0.3791 -687.8813 4188.5874)" class="st6" width="21.9" height="131"/>
				
					<rect x="2711.7" y="2595.9" transform="matrix(0.9254 -0.379 0.379 0.9254 -780.8652 1247.1528)" class="st6" width="131" height="21.9"/>
				<rect x="2705.6" y="2569.6" class="st6" width="21.9" height="78.8"/>
				<rect x="2826.8" y="2569.6" class="st6" width="21.9" height="78.8"/>
				<rect x="2616.5" y="2408.7" class="st6" width="319.8" height="162.4"/>
				<rect x="2607.8" y="2531.7" class="st3" width="337.3" height="21.9"/>
				<rect x="2607.8" y="2493.7" class="st3" width="337.3" height="21.9"/>
				<rect x="2607.8" y="2455.7" class="st3" width="337.3" height="21.9"/>
				<rect x="2677.7" y="2400.3" class="st3" width="195.5" height="201.4"/>
				<path class="st2" d="M2954.9,2465.6l-179.1-78.1c0,0,0,0,0,0l-177.7,78.1c0,0,0,0,0,0v0c-11.7-26.7,0.4-57.8,27.1-69.5
					l130.2-57.2c13-5.7,27.7-5.7,40.7-0.1c41.5,18.1,131.8,57.5,131.8,57.5c26.6,11.6,38.8,42.6,27.2,69.2L2954.9,2465.6
					C2954.9,2465.6,2954.9,2465.6,2954.9,2465.6z"/>
				<path class="st2" d="M2670.1,2494.4L2670.1,2494.4c-15.6-18.5-13.3-46.1,5.1-61.7l66.4-56.2c22.3-18.9,55.1-18.4,76.8,1.2
					l60.6,54.5c18,16.2,19.4,43.9,3.3,61.9v0l-102.6-92.3L2670.1,2494.4z"/>
				<rect x="2616.5" y="2569.6" class="st6" width="21.9" height="78.8"/>
				<rect x="2914.4" y="2569.6" class="st6" width="21.9" height="78.8"/>
				<circle class="st6" cx="2775" cy="2466.7" r="26.3"/>
				<rect x="2743.6" y="2511.2" class="st2" width="64.2" height="90.5"/>
				<rect x="2756.7" y="2524.4" class="st6" width="39.4" height="78.8"/>
			</g>
			<g>
				<path class="st15" d="M2389.2,2616c0,0-61.4,63-132.7,63s-127.7-63-127.7-63v-73c0,0,11,12.3,29.4,26c23.3,17.4,58.5,37,98.3,37
					c71.3,0,132.7-63,132.7-63V2616z"/>
				<line class="st15" x1="2157.8" y1="2640" x2="2157.8" y2="2565.4"/>
				<line class="st15" x1="2199.7" y1="2593.4" x2="2199.7" y2="2666.2"/>
				<line class="st15" x1="2248.1" y1="2605.7" x2="2248.1" y2="2679"/>
				<line class="st15" x1="2296.2" y1="2599.9" x2="2296.2" y2="2672.9"/>
				<line class="st15" x1="2332.8" y1="2584.5" x2="2332.8" y2="2659.6"/>
				<line class="st15" x1="2362.7" y1="2565.4" x2="2362.7" y2="2636.4"/>
			</g>
		</g>
	</g>
	<g id="opt4">
		<g>
			<path class="st3" d="M351.1,2138.8l-47.8-54.5h-48.9l-30-34.5v-53.3l-11.1-13.3h-7.8c-36.8,0-66.7-29.9-66.7-66.7v-121.1H410
				l-14.4,254.5L351.1,2138.8z"/>
			<g>
				<path class="st4" d="M400.8,2039.9l-104.8-149.1c-1.9-2.7-4.9-4.2-8.2-4.2h-48.3c-17.9,0-35-5-49.4-14.5
					c-13.5-8.9-24.5-21.5-31.7-36.4s-10.2-31.3-8.8-47.5c1.5-17.2,8.2-33.7,19.4-47.7l62.4-78.5c37.2-46.9,85.4-85.4,139.3-111.4
					s114-39.8,173.9-39.8h192.2c80.3,0,145.6,65.3,145.6,145.6v186l-191,197.4H400.8z"/>
				<path class="st5" d="M736.8,1520.8c36.2,0,70.3,14.1,95.9,39.7c25.6,25.6,39.7,59.7,39.7,95.9v182l-185.2,191.5H405.9
					L304.1,1885c-3.7-5.3-9.8-8.5-16.4-8.5h-48.3c-16.2,0-30.9-4.3-43.9-12.8c-12-7.9-21.8-19.1-28.2-32.4
					c-6.4-13.3-9.1-27.9-7.8-42.2c1.4-15.4,7.2-29.7,17.3-42.3l62.4-78.5c18.3-23,39.2-44,62.2-62.3c22.7-18.1,47.5-33.7,73.6-46.3
					c26.2-12.6,53.8-22.3,82.1-28.8c28.6-6.6,58.1-9.9,87.5-9.9H736.8 M736.8,1500.8H544.5c-125,0-243.2,57-321,154.9l-62.4,78.5
					c-52.1,65.5-5.4,162.3,78.3,162.3h48.3l107.8,153.4h300.1l196.7-203.4v-190.1C892.4,1570.5,822.7,1500.8,736.8,1500.8
					L736.8,1500.8z"/>
			</g>
			<polygon class="st3" points="395.6,2049.9 351.1,2138.8 764.5,2138.8 695.6,2049.9 			"/>
			<polygon class="st2" points="892.4,1846.5 892.4,1949.8 833.4,2015.4 833.4,2065.4 764.5,2138.8 695.6,2049.9 			"/>
			<polygon class="st6" points="213.3,1983.2 287.8,1896.5 395.6,2049.9 351.1,2138.8 304.4,2084.3 304.4,2034.3 254.4,2084.3 
				224.4,2049.9 224.4,1996.5 			"/>
		</g>
		<g id="opt4_x5F_pack1">
			<g>
				<path class="st3" d="M787.4,1643.5c0-4.9,0-9.8,0.1-14.7c0.2-6.7,1-13.4,1.9-20c1.5-10.7,5.1-20.6,9.5-30.5
					c4.4-9.8,10.5-18.6,17.3-26.8c5.8-6.9,12.8-12.6,18.6-19.4c0,0,0,0,0,0c0.9-1.3,1.8-2.7,2.5-4.2c0.6-1.8,1-3.5,1.4-5.3
					c0.4-5.3,0.2-10.6-0.2-15.8h11.3h31.7c0.3,4.2,0.6,8.5,0.4,12.7c-0.2,4.4-0.8,8.8-1.5,13.1c-0.4,2.6-1,5.1-1.9,7.6
					c-0.1,0.3-0.2,0.5-0.3,0.8h9.2c8,0,14.4-6.5,14.4-14.4v-19.8h8.8v19.8c0,12.8-10.4,23.2-23.3,23.2h-13c-0.3,0.7-0.7,1.3-1.1,2
					c-2.1,3.5-4.8,6.8-7.4,9.9c-3.2,3.8-6.8,7.2-10.3,10.7c-3.4,3.3-6.6,6.6-9.6,10.3c-3.7,5.2-6.9,10.6-9.6,16.4
					c-2.4,6.2-4.2,12.6-5.2,19.2c-1.5,14.3-0.4,28.7-1,43h-43C787.5,1655.3,787.4,1649.4,787.4,1643.5z"/>
				<path class="st5" d="M973,1506.8h-99.6c1.3-5.5,2-11.2,2.2-17c0.1-1.1,0.1-2.2,0.1-3.3c0-0.2,0-0.5,0-0.7
					c-0.2-24.4-10.1-46.5-26.1-62.6c5.5-1.5,11.3-2.3,17.2-2.3c25.2,0,47.2,14.3,58.1,35.2c1.7,3.3,3.2,6.7,4.3,10.3
					c2,6.3,3.1,13.1,3.1,20.1c0,0.6,0,1.1,0,1.7c3.3-1.1,6.7-1.7,10.4-1.7C956.4,1486.5,968.1,1494.9,973,1506.8z"/>
				<path class="st8" d="M875.7,1486.5c0,1.1,0,2.2-0.1,3.3c-0.2,5.8-0.9,11.5-2.2,17H725.3v-0.4c0-25.2,20.5-45.7,45.7-45.7
					c12.2,0,23.3,4.8,31.5,12.6c5-24.2,23.3-43.6,47-50c16,16.1,25.9,38.2,26.1,62.6C875.7,1486.1,875.7,1486.3,875.7,1486.5z"/>
			</g>
			<g>
				<path class="st3" d="M714.2,1468.4v195.9h-32.2v-124.5h-24.1c-16,0-29-13-29-29v-42.3h11.2v42.3c0,9.8,8,17.9,17.9,17.9h24.1
					v-60.2H714.2z"/>
				<path class="st2" d="M752,1468.4v8.7c0,16-13,29-29,29h-8.7V1495h8.7c9.8,0,17.9-8,17.9-17.9v-8.7H752z"/>
				<path class="st5" d="M801.4,1468.4H561.7v-0.4c0-24.4,19.8-44.2,44.2-44.2c11.8,0,22.6,4.6,30.5,12.2
					c4.8-23.4,22.6-42.2,45.5-48.4c5.3-1.4,10.9-2.2,16.7-2.2c24.4,0,45.6,13.8,56.2,34.1c1.7,3.2,3.1,6.5,4.2,9.9
					c2,6.1,3,12.6,3,19.4c0,0.5,0,1.1,0,1.6c3.1-1.1,6.5-1.6,10-1.6C785.3,1448.8,796.6,1456.9,801.4,1468.4z"/>
				<path class="st8" d="M707.2,1448.8c0,1,0,2.1-0.1,3.1c-0.2,5.6-0.9,11.1-2.2,16.4H561.7v-0.4c0-24.4,19.8-44.2,44.2-44.2
					c11.8,0,22.6,4.6,30.5,12.2c4.8-23.4,22.6-42.2,45.5-48.4C697.6,1403.3,707.2,1424.9,707.2,1448.8z"/>
				<path class="st6" d="M714.2,1568.7v95.6h-32.2v-77.7C690.9,1578.1,702,1571.8,714.2,1568.7z"/>
			</g>
			<g>
				<polygon class="st3" points="707,1769.6 732.7,1829 812,1829 835.7,1789.4 820.9,1747.8 751.6,1721 				"/>
				<polygon class="st6" points="707,1769.6 732.7,1829 756.9,1829 757,1829 780.3,1785.4 751.6,1721 				"/>
			</g>
			<g>
				
					<rect x="400.6" y="1642.3" transform="matrix(0.3791 -0.9254 0.9254 0.3791 -1332.1312 1448.2288)" class="st6" width="24.9" height="148.8"/>
				
					<rect x="338.7" y="1704.3" transform="matrix(0.9254 -0.379 0.379 0.9254 -619.8809 284.6669)" class="st6" width="148.8" height="24.9"/>
				<rect x="331.8" y="1674.4" class="st6" width="24.9" height="89.6"/>
				<rect x="469.5" y="1674.4" class="st6" width="24.9" height="89.6"/>
				<rect x="230.5" y="1491.5" class="st6" width="363.4" height="184.6"/>
				<rect x="220.6" y="1631.3" class="st3" width="383.3" height="24.9"/>
				<rect x="220.6" y="1588.1" class="st3" width="383.3" height="24.9"/>
				<rect x="220.6" y="1545" class="st3" width="383.3" height="24.9"/>
				<rect x="300" y="1482" class="st3" width="222.2" height="228.9"/>
				<path class="st2" d="M615.1,1556.2l-203.5-88.8c0,0,0,0,0,0l-201.9,88.7c0,0,0,0,0,0h0c-13.3-30.3,0.5-65.7,30.8-79l147.9-65
					c14.7-6.5,31.5-6.5,46.3-0.1c47.1,20.5,149.7,65.3,149.7,65.3c30.2,13.2,44,48.4,30.9,78.6L615.1,1556.2
					C615.1,1556.2,615.1,1556.2,615.1,1556.2z"/>
				<path class="st2" d="M291.4,1588.9L291.4,1588.9c-17.8-21-15.2-52.4,5.8-70.2l75.4-63.9c25.3-21.5,62.6-20.9,87.3,1.3l68.8,61.9
					c20.4,18.4,22.1,49.9,3.7,70.3v0l-116.6-104.9L291.4,1588.9z"/>
				<rect x="230.5" y="1674.4" class="st6" width="24.9" height="89.6"/>
				<rect x="569" y="1674.4" class="st6" width="24.9" height="89.6"/>
				<circle class="st6" cx="410.6" cy="1557.5" r="29.9"/>
				<rect x="374.9" y="1608.1" class="st2" width="73" height="102.9"/>
				<rect x="389.8" y="1623" class="st6" width="44.8" height="89.6"/>
			</g>
			<g>
				<path class="st15" d="M1162.9,1814.9c0,0-61.4,63-132.7,63s-127.7-63-127.7-63v-73c0,0,11,12.3,29.4,26
					c23.3,17.4,58.5,37,98.3,37c71.3,0,132.7-63,132.7-63V1814.9z"/>
				<line class="st15" x1="931.5" y1="1838.9" x2="931.5" y2="1764.3"/>
				<line class="st15" x1="973.4" y1="1792.3" x2="973.4" y2="1865.1"/>
				<line class="st15" x1="1021.8" y1="1804.6" x2="1021.8" y2="1877.9"/>
				<line class="st15" x1="1069.9" y1="1798.8" x2="1069.9" y2="1871.8"/>
				<line class="st15" x1="1106.5" y1="1783.4" x2="1106.5" y2="1858.5"/>
				<line class="st15" x1="1136.4" y1="1764.3" x2="1136.4" y2="1835.3"/>
			</g>
		</g>
		<g id="opt4_x5F_pack2">
			<g>
				<g>
					<g>
						<rect x="515.3" y="2020.1" class="st12" width="126.1" height="227.3"/>
						<rect x="542.6" y="2090.6" class="st13" width="12.5" height="126.1"/>
						<rect x="580.1" y="2062.2" class="st13" width="12.5" height="55.7"/>
						<rect x="610.8" y="2112.2" class="st13" width="12.5" height="126.1"/>
						<rect x="610.8" y="2030.3" class="st13" width="12.5" height="15.9"/>
						<rect x="580.1" y="2173.5" class="st13" width="12.5" height="15.9"/>
						<rect x="542.6" y="2078.1" class="st3" width="12.5" height="12.5"/>
					</g>
					<path class="st12" d="M761.9,1874.7v38.2c0,9.7-4.1,18.9-11.3,25.4l-27,24.2c-10.4,9.3-23.9,14.5-37.9,14.5h-44.2v43.2H515.3
						v-42.6c0-4.7-1.9-9.2-5.3-12.4l-69.9-66c-4.2-4-9.8-6.2-15.6-6.2h-93.2l-52.4-69.9l-5.6-7.4c-8.4-11.2-0.4-27.3,13.6-27.3
						h328.4l0.6,1l56.2,85.4H761.9z"/>
					<path class="st3" d="M616.5,1788.3l-0.5,1l-16.6,33.7H278.8l-5.6-7.4c-8.4-11.2-0.4-27.3,13.6-27.3H616.5z"/>
					<polygon class="st6" points="616.5,1788.3 672.1,1874.7 656.2,1908.7 599.4,1823.5 					"/>
					<polygon class="st3" points="672.1,1874.7 761.9,1874.7 761.9,1908.7 656.2,1908.7 					"/>
				</g>
				<rect x="515.3" y="1983.2" class="st13" width="126.1" height="43.7"/>
			</g>
			<g>
				<path class="st10" d="M704.9,2205.2c-1,0-2,0-2.9,0.1c-9.1-31.4-38-54.3-72.2-54.3c-40.2,0-73.1,31.6-75.1,71.3
					c-5.2-2.7-11.1-4.3-17.4-4.3c-20.8,0-37.6,16.8-37.6,37.6c0,0.1,0,0.2,0,0.3h248.8c0.3-2.2,0.5-4.5,0.5-6.8
					C748.9,2224.9,729.2,2205.2,704.9,2205.2z"/>
			</g>
			<g class="st16">
				<path class="st17" d="M463.5,1726c0-4.1,0-8.2,0.1-12.4c0.2-5.7,0.8-11.2,1.6-16.8c1.3-9,4.3-17.3,7.9-25.6
					c3.7-8.2,8.8-15.6,14.6-22.5c4.8-5.8,10.8-10.6,15.7-16.3c0,0,0,0,0,0c0.8-1.1,1.5-2.3,2.1-3.5c0.5-1.5,0.9-3,1.2-4.5
					c0.4-4.4,0.2-8.9-0.2-13.3h9.5h26.7c0.3,3.6,0.5,7.1,0.4,10.7c-0.1,3.7-0.6,7.4-1.2,11c-0.3,2.2-0.9,4.3-1.6,6.4
					c-0.1,0.2-0.2,0.5-0.3,0.7h7.7c6.7,0,12.1-5.4,12.1-12.1V1611h7.4v16.6c0,10.8-8.8,19.5-19.5,19.5h-11c-0.3,0.6-0.6,1.1-0.9,1.7
					c-1.8,3-4,5.7-6.2,8.4c-2.7,3.2-5.7,6.1-8.7,9c-2.8,2.7-5.6,5.6-8.1,8.6c-3.1,4.3-5.8,8.9-8,13.8c-2,5.2-3.5,10.6-4.4,16.1
					c-1.3,12-0.4,24.1-0.9,36.1h-36.2C463.5,1735.9,463.5,1730.9,463.5,1726z"/>
				<path class="st18" d="M619.5,1611h-83.7c1.1-4.6,1.7-9.4,1.9-14.3c0-0.9,0.1-1.8,0.1-2.7c0-0.2,0-0.4,0-0.6
					c-0.1-20.5-8.5-39.1-22-52.6c4.6-1.3,9.5-1.9,14.5-1.9c21.2,0,39.6,12,48.9,29.6c1.4,2.7,2.7,5.6,3.6,8.6
					c1.7,5.3,2.6,11,2.6,16.9c0,0.5,0,0.9,0,1.4c2.7-0.9,5.7-1.4,8.7-1.4C605.5,1594,615.3,1601,619.5,1611z"/>
				<path class="st19" d="M537.7,1594c0,0.9,0,1.8-0.1,2.7c-0.2,4.9-0.8,9.7-1.9,14.3H411.3v-0.3c0-21.2,17.2-38.4,38.4-38.4
					c10.3,0,19.6,4,26.5,10.6c4.2-20.4,19.6-36.6,39.5-42.1c13.5,13.5,21.8,32.1,22,52.6C537.7,1593.6,537.7,1593.8,537.7,1594z"/>
			</g>
			<g>
				<path class="st2" d="M697.3,1769c3,27.2,5.3,54.5,4.1,81.9h-27c1-21.1-0.2-42.3-2.2-63.4c-3.9-41.9-10.8-83.8-9.2-126.1
					c0.8-21.6,3.8-43.5,10-64.3l23.6-9.7l5.4,7.8c-4.8,13.4-8,27.3-9.9,41.4c-1.8,14.4-2.4,28.8-2.2,43.3
					C690.1,1709.8,694.1,1739.4,697.3,1769z"/>
				<path class="st8" d="M780.3,1629.6l-33.1-30.2c1.6,4.1,2.3,8.4,2.3,12.8c0,11.4-5.4,22.7-15.5,29.6l-32-46.5l-5.4-7.8l-23.6,9.7
					l-42.5,17.5c-5.9-14.2-1.9-30,8.6-39.9l-37,7.3c-3.7-18.5,8.4-36.5,26.9-40.2l60.4-11.9c16.8-3.3,34.2,1.5,46.9,13.1l41.9,38.2
					c7.4,6.8,11.1,16,11.1,25.3C789.2,1614.8,786.3,1623.1,780.3,1629.6z"/>
			</g>
			<g class="st16">
				<g class="st20">
					<path class="st21" d="M833.4,1626.9c0,0,0.1-0.1,0.1-0.1C833.4,1626.9,833.4,1626.9,833.4,1626.9z"/>
					<path class="st21" d="M833.4,1626.8C833.5,1626.8,833.5,1626.8,833.4,1626.8c0.1-0.1,0.2-0.2,0.2-0.3c0.1-0.1,0.1-0.1,0.2-0.2
						C833.7,1626.5,833.6,1626.7,833.4,1626.8z"/>
					<path class="st6" d="M784.2,1712.4c0.2-0.5,0.4-1,0.7-1.5c0.3-0.7,0.5-1.3,0.8-2C785.2,1710.1,784.7,1711.3,784.2,1712.4z"/>
					<path class="st6" d="M749.1,1848.5c0.1-0.5,0.2-1,0.2-1.6c0.1-0.8,0.2-1.6,0.3-2.4C749.4,1845.8,749.3,1847.2,749.1,1848.5z"/>
					<path class="st6" d="M858.3,1598.5c-0.8,0.8-1.6,1.6-2.4,2.4c-7.8,8.2-15.2,16.7-22.2,25.6c-0.1,0.1-0.2,0.2-0.2,0.3
						c0,0,0,0.1-0.1,0.1c-0.3,0.5-0.7,0.9-1,1.3c-0.8,1.1-1.6,2.2-2.4,3.3c-1.5,2.1-3.1,4.2-4.6,6.3c-3.2,4.6-6.3,9.2-9.3,13.9
						c-12,18.8-22.4,38.7-31.2,59.2c0.1-0.3,0.3-0.7,0.4-1c-0.4,0.8-0.7,1.7-1.1,2.5c0.2-0.5,0.4-1,0.7-1.5
						c-3.8,9-7.2,18.2-10.4,27.5c-12.1,35.2-20,71.7-25.1,108.5c-0.1,0.5-0.1,1-0.2,1.6c0-0.3,0.1-0.5,0.1-0.8
						c-0.3,2.2-0.6,4.4-0.8,6.6h-29.6c2.2-18.9,5.2-37.7,8.9-56.4c9.8-48.2,25.7-95.5,49.4-138.7c16.2-29.4,36.1-57.1,59.7-81.2
						l19.2,1.8L858.3,1598.5z"/>
					<path class="st6" d="M833.4,1626.8c0,0-0.1,0.1-0.1,0.1c-0.7,0.9-1.9,2.7,0.3-0.4C833.6,1626.6,833.6,1626.7,833.4,1626.8
						C833.5,1626.8,833.5,1626.8,833.4,1626.8z"/>
				</g>
				<path class="st19" d="M940.4,1628.3c0,15.3-9.5,29.7-24.8,35.2l-16.6-46.2c-1.1,8.8-5.1,16.8-11.1,22.9
					c-6.1,6.1-14.1,10.3-23.3,11.4l-6.3-53.1l-2.2-18.5l-19.2-1.8l-58.7-5.6c1.6-16.7,13.5-30,28.8-34.2l-39.5-11.8
					c5.9-19.8,26.8-31.1,46.6-25.2l64.5,19.3c18,5.4,32.3,19,38.7,36.6l21,58.4C939.7,1619.8,940.4,1624.1,940.4,1628.3z"/>
			</g>
			<g class="st16">
				<path class="st17" d="M337.7,1737.3c0-5.3,0-10.7-0.1-16c-0.3-7.3-1.1-14.5-2.1-21.8c-1.6-11.6-5.5-22.4-10.3-33.1
					c-4.8-10.7-11.4-20.2-18.8-29.2c-6.3-7.5-13.9-13.7-20.3-21.1c0,0,0,0,0,0c-1-1.5-1.9-3-2.7-4.5c-0.6-1.9-1.1-3.8-1.5-5.8
					c-0.5-5.7-0.2-11.5,0.2-17.2h-12.3h-34.5c-0.4,4.6-0.6,9.2-0.5,13.8c0.2,4.8,0.8,9.5,1.6,14.2c0.4,2.8,1.1,5.6,2.1,8.2
					c0.1,0.3,0.2,0.6,0.3,0.9h-10c-8.7,0-15.7-7-15.7-15.7v-21.5h-9.6v21.5c0,13.9,11.4,25.3,25.3,25.3h14.2
					c0.4,0.7,0.8,1.4,1.2,2.1c2.3,3.8,5.2,7.4,8,10.8c3.4,4.2,7.4,7.9,11.2,11.6c3.7,3.6,7.2,7.2,10.5,11.2
					c4,5.6,7.5,11.6,10.4,17.9c2.6,6.7,4.5,13.7,5.7,20.9c1.6,15.5,0.5,31.2,1.1,46.7h46.8C337.6,1750.1,337.7,1743.7,337.7,1737.3z
					"/>
				<path class="st18" d="M378.1,1588.5H269.7c1.4-6,2.2-12.1,2.4-18.5c0.1-1.2,0.1-2.4,0.1-3.5c0-0.3,0-0.5,0-0.7
					c-0.2-26.6-11-50.6-28.4-68.1c6-1.6,12.3-2.5,18.7-2.5c27.5,0,51.3,15.5,63.2,38.3c1.9,3.6,3.4,7.3,4.7,11.2
					c2.2,6.9,3.4,14.2,3.4,21.9c0,0.6,0,1.2,0,1.8c3.5-1.2,7.3-1.8,11.3-1.8C360,1566.5,372.7,1575.6,378.1,1588.5z"/>
				<path class="st19" d="M272.3,1566.5c0,1.2,0,2.4-0.1,3.5c-0.2,6.3-1,12.5-2.4,18.5H108.6v-0.4c0-27.5,22.3-49.7,49.7-49.7
					c13.3,0,25.4,5.2,34.3,13.7c5.4-26.4,25.4-47.4,51.1-54.4c17.4,17.5,28.2,41.5,28.4,68.1C272.2,1566,272.3,1566.2,272.3,1566.5z
					"/>
			</g>
		</g>
	</g>
	<g id="opt5">
		<g>
			<path class="st3" d="M531.6,2872.1l-47.8-54.5h-48.9l-30-34.5v-53.3l-11.1-13.3H386c-36.8,0-66.7-29.9-66.7-66.7v-121.1h271.2
				L576,2783.2L531.6,2872.1z"/>
			<g>
				<path class="st4" d="M581.2,2773.2l-104.8-149.1c-1.9-2.7-4.9-4.2-8.2-4.2h-48.3c-17.9,0-35-5-49.4-14.5
					c-13.5-8.9-24.5-21.5-31.7-36.4c-7.2-14.9-10.2-31.3-8.8-47.5c1.5-17.2,8.2-33.7,19.4-47.7l62.4-78.5
					c37.2-46.9,85.4-85.4,139.3-111.4s114-39.8,173.9-39.8h192.2c80.3,0,145.6,65.3,145.6,145.6v186l-191,197.4H581.2z"/>
				<path class="st5" d="M917.2,2254.2c36.2,0,70.3,14.1,95.9,39.7c25.6,25.6,39.7,59.7,39.7,95.9v182l-185.2,191.5H586.4
					l-101.8-144.9c-3.7-5.3-9.8-8.5-16.4-8.5h-48.3c-16.2,0-30.9-4.3-43.9-12.8c-12-7.9-21.8-19.1-28.2-32.4
					c-6.4-13.3-9.1-27.9-7.8-42.2c1.4-15.4,7.2-29.7,17.3-42.4l62.4-78.5c18.3-23,39.2-44,62.2-62.3c22.7-18.1,47.5-33.7,73.6-46.3
					c26.2-12.6,53.8-22.3,82.1-28.8c28.6-6.6,58.1-9.9,87.5-9.9H917.2 M917.2,2234.2H725c-125,0-243.2,57-321,154.9l-62.4,78.5
					c-52.1,65.5-5.4,162.3,78.3,162.3h48.3L576,2783.2h300.1l196.7-203.4v-190.1C1072.8,2303.9,1003.2,2234.2,917.2,2234.2
					L917.2,2234.2z"/>
			</g>
			<polygon class="st3" points="576,2783.2 531.6,2872.1 945,2872.1 876.1,2783.2 			"/>
			<polygon class="st2" points="1072.8,2579.9 1072.8,2683.2 1013.9,2748.8 1013.9,2798.8 945,2872.1 876.1,2783.2 			"/>
			<polygon class="st6" points="393.8,2716.6 468.2,2629.9 576,2783.2 531.6,2872.1 484.9,2817.7 484.9,2767.7 434.9,2817.7 
				404.9,2783.2 404.9,2729.9 			"/>
		</g>
		<g id="opt5_x5F_pack2">
			<g>
				<g>
					<path class="st3" d="M699.9,2381.3h-28.5c0.2-10.4-0.2-20.7-1.5-31c-2.1-14.4-5.8-28.6-11.3-42.1
						c-4.8-10.9-10.7-21.3-17.9-30.8c-6.5-8.2-13.8-15.7-22-22.3c-0.1-0.1-0.1-0.1-0.2-0.2c-1.3-1-2.7-2-4.1-3l2.2-16.4l21.1-1.7
						c4.5,3.6,8.7,7.4,12.8,11.5c17.3,17.5,30,38.9,38.3,62c4.2,11.7,7.1,23.9,8.8,36.2C699.2,2356.2,700.2,2368.7,699.9,2381.3z"/>
					<path class="st5" d="M660.3,2214.8c4.2,4.5,6.9,10.3,7.4,16.9l-30.1,2.4l-21.1,1.7l-2.2,16.4l-5.2,38.9
						c-11.9-1.6-21-10.4-23.5-21.4l-9.5,27.8c-13.9-4.7-21.4-19.9-16.6-33.8l15.5-45.3c4.3-12.6,14.4-22.5,27.1-26.5l42.1-13.3
						c14-4.4,29,3.3,33.5,17.3l-33.3,10.6C650.6,2207.2,656.2,2210.3,660.3,2214.8z"/>
				</g>
				<g>
					<path class="st2" d="M737.9,2319.6c2.2,20.6,4.1,41.3,3.1,62h-20.5c0.7-16-0.2-32.1-1.7-48c-3-31.8-8.2-63.5-7-95.5
						c0.6-16.3,2.9-32.9,7.6-48.7l17.9-7.4l4.1,5.9c-3.6,10.1-6,20.7-7.5,31.3c-1.4,10.9-1.8,21.8-1.7,32.8
						C732.5,2274.7,735.5,2297.2,737.9,2319.6z"/>
					<path class="st8" d="M800.8,2214l-25.1-22.9c1.2,3.1,1.8,6.4,1.8,9.7c0,8.7-4.1,17.2-11.8,22.5l-24.3-35.2l-4.1-5.9l-17.9,7.4
						l-32.2,13.3c-4.4-10.8-1.4-22.7,6.5-30.2l-28,5.5c-2.8-14,6.4-27.7,20.4-30.4l45.7-9c12.7-2.5,25.9,1.2,35.5,9.9l31.7,29
						c5.6,5.1,8.4,12.1,8.4,19.1C807.5,2202.8,805.3,2209.1,800.8,2214z"/>
				</g>
				<g>
					<g>
						<path class="st21" d="M844,2225C844,2225,844,2225,844,2225C844,2225,844,2225,844,2225z"/>
						<path class="st21" d="M844.1,2225C844.1,2224.9,844.1,2224.9,844.1,2225c0.1-0.1,0.1-0.1,0.2-0.2c0-0.1,0.1-0.1,0.1-0.2
							C844.2,2224.7,844.1,2224.9,844.1,2225z"/>
						<path class="st6" d="M810,2284.2c0.2-0.4,0.3-0.7,0.5-1.1c0.2-0.5,0.4-0.9,0.6-1.4C810.6,2282.6,810.3,2283.4,810,2284.2z"/>
						<path class="st6" d="M785.7,2378.4c0-0.4,0.1-0.7,0.2-1.1c0.1-0.5,0.1-1.1,0.2-1.6C785.9,2376.5,785.8,2377.4,785.7,2378.4z"
							/>
						<path class="st6" d="M861.2,2205.3c-0.5,0.6-1.1,1.1-1.6,1.7c-5.4,5.6-10.5,11.6-15.4,17.7c-0.1,0.1-0.1,0.1-0.2,0.2
							c0,0,0,0.1-0.1,0.1c-0.2,0.3-0.5,0.6-0.7,0.9c-0.6,0.8-1.1,1.5-1.7,2.3c-1.1,1.4-2.1,2.9-3.2,4.3c-2.2,3.2-4.4,6.4-6.5,9.6
							c-8.3,13-15.5,26.8-21.6,41c0.1-0.2,0.2-0.5,0.3-0.7c-0.2,0.6-0.5,1.2-0.7,1.7c0.2-0.4,0.3-0.7,0.5-1.1
							c-2.6,6.3-5,12.6-7.2,19c-8.4,24.4-13.9,49.6-17.4,75.1c-0.1,0.4-0.1,0.7-0.2,1.1c0-0.2,0.1-0.4,0.1-0.5
							c-0.2,1.5-0.4,3.1-0.6,4.6h-20.5c1.5-13.1,3.6-26.1,6.2-39c6.8-33.4,17.8-66.1,34.2-96c11.2-20.4,25-39.5,41.3-56.2l13.3,1.3
							L861.2,2205.3z"/>
						<path class="st6" d="M844.1,2225C844,2225,844,2225,844.1,2225c-0.5,0.7-1.4,1.9,0.2-0.2
							C844.2,2224.8,844.1,2224.9,844.1,2225C844.1,2224.9,844.1,2224.9,844.1,2225z"/>
					</g>
					<path class="st8" d="M918.1,2226c0,10.6-6.6,20.6-17.2,24.4l-11.5-32c-0.7,6.1-3.5,11.6-7.7,15.8c-4.2,4.2-9.8,7.1-16.1,7.9
						l-4.3-36.8l-1.5-12.8l-13.3-1.3l-40.6-3.9c1.1-11.6,9.3-20.7,19.9-23.7l-27.4-8.2c4.1-13.7,18.6-21.5,32.3-17.4l44.6,13.4
						c12.4,3.7,22.4,13.1,26.8,25.3l14.5,40.4C917.6,2220.1,918.1,2223.1,918.1,2226z"/>
				</g>
				<g>
					<polygon class="st3" points="1048.9,2525.1 1048.9,2556.2 877.9,2556.2 877.9,2509.5 947.8,2448.2 					"/>
					<polygon class="st6" points="1022.1,2556.1 1022.1,2556.2 877.9,2556.2 877.9,2509.5 947.8,2448.2 953.9,2509.5 					"/>
				</g>
			</g>
		</g>
		<g id="opt5_x5F_pack1" class="st16">
			<g class="st20">
				<polygon class="st3" points="555,2657.6 580.8,2717 660,2717 683.8,2677.4 668.9,2635.8 599.6,2609 				"/>
				<polygon class="st6" points="555,2657.6 580.8,2717 605,2717 605,2717 628.3,2673.4 599.6,2609 				"/>
			</g>
			<g class="st20">
				
					<rect x="708.3" y="2484.7" transform="matrix(0.3791 -0.9254 0.9254 0.3791 -1913.2109 2249.0439)" class="st6" width="21.9" height="131"/>
				
					<rect x="653.8" y="2539.2" transform="matrix(0.9254 -0.379 0.379 0.9254 -912.9193 462.9059)" class="st6" width="131" height="21.9"/>
				<rect x="647.7" y="2512.9" class="st6" width="21.9" height="78.8"/>
				<rect x="768.9" y="2512.9" class="st6" width="21.9" height="78.8"/>
				<rect x="558.6" y="2351.9" class="st6" width="319.8" height="162.4"/>
				<rect x="549.9" y="2474.9" class="st3" width="337.3" height="21.9"/>
				<rect x="549.9" y="2437" class="st3" width="337.3" height="21.9"/>
				<rect x="549.9" y="2399" class="st3" width="337.3" height="21.9"/>
				<rect x="619.8" y="2343.6" class="st3" width="195.5" height="201.4"/>
				<path class="st2" d="M897,2408.9l-179.1-78.1c0,0,0,0,0,0l-177.7,78.1c0,0,0,0,0,0l0,0c-11.7-26.7,0.4-57.8,27.1-69.5
					l130.2-57.2c13-5.7,27.7-5.7,40.7-0.1c41.5,18.1,131.8,57.5,131.8,57.5c26.6,11.6,38.8,42.6,27.2,69.2L897,2408.9
					C897,2408.9,897,2408.9,897,2408.9z"/>
				<path class="st2" d="M612.2,2437.6L612.2,2437.6c-15.6-18.5-13.3-46.1,5.1-61.7l66.4-56.2c22.3-18.9,55.1-18.4,76.8,1.2
					l60.6,54.5c18,16.2,19.4,43.9,3.3,61.9l0,0l-102.6-92.3L612.2,2437.6z"/>
				<rect x="558.6" y="2512.9" class="st6" width="21.9" height="78.8"/>
				<rect x="856.5" y="2512.9" class="st6" width="21.9" height="78.8"/>
				<circle class="st6" cx="717.1" cy="2410" r="26.3"/>
				<rect x="685.7" y="2454.5" class="st2" width="64.2" height="90.5"/>
				<rect x="698.8" y="2467.6" class="st6" width="39.4" height="78.8"/>
			</g>
			<g class="st20">
				<path class="st2" d="M868.5,2583.7c2.5,27.2,4.3,54.6,2.6,81.9l-27-0.5c1.4-21.1,0.6-42.3-1-63.4c-3.2-42-9.3-84-6.9-126.2
					c1.2-21.6,4.6-43.4,11.2-64.1l23.8-9.3l5.2,7.9c-5,13.3-8.5,27.1-10.7,41.2c-2.1,14.3-2.9,28.8-3,43.3
					C862.4,2524.3,865.8,2554,868.5,2583.7z"/>
				<path class="st8" d="M954,2445.9l-32.6-30.8c1.5,4.2,2.2,8.5,2.1,12.8c-0.2,11.4-5.8,22.6-16.1,29.4l-31.2-47.1l-5.2-7.9
					l-23.8,9.3l-42.9,16.7c-5.6-14.3-1.4-30,9.4-39.7l-37.1,6.6c-3.3-18.6,9.1-36.4,27.7-39.7l60.6-10.8c16.9-3,34.2,2.2,46.7,14
					l41.1,39c7.3,6.9,10.9,16.2,10.7,25.5C963.3,2431.2,960.2,2439.4,954,2445.9z"/>
			</g>
			<g class="st20">
				<g>
					<path class="st21" d="M1006,2441.6c0,0,0.1-0.1,0.1-0.1C1006.1,2441.5,1006,2441.6,1006,2441.6z"/>
					<path class="st21" d="M1006.1,2441.5C1006.1,2441.5,1006.1,2441.4,1006.1,2441.5c0.1-0.1,0.2-0.2,0.2-0.3
						c0.1-0.1,0.1-0.1,0.2-0.2C1006.4,2441.2,1006.2,2441.3,1006.1,2441.5z"/>
					<path class="st6" d="M956.8,2527.1c0.2-0.5,0.4-1,0.7-1.5c0.3-0.7,0.5-1.3,0.8-2C957.8,2524.8,957.3,2525.9,956.8,2527.1z"/>
					<path class="st6" d="M921.7,2663.1c0.1-0.5,0.2-1,0.2-1.6c0.1-0.8,0.2-1.6,0.3-2.4C922.1,2660.5,921.9,2661.8,921.7,2663.1z"/>
					<path class="st6" d="M1030.9,2413.2c-0.8,0.8-1.6,1.6-2.4,2.4c-7.8,8.2-15.2,16.7-22.2,25.6c-0.1,0.1-0.2,0.2-0.2,0.3
						c0,0,0,0.1-0.1,0.1c-0.3,0.5-0.7,0.9-1,1.3c-0.8,1.1-1.6,2.2-2.4,3.3c-1.5,2.1-3.1,4.2-4.6,6.3c-3.2,4.6-6.3,9.2-9.3,13.9
						c-12,18.8-22.4,38.7-31.2,59.2c0.1-0.3,0.3-0.7,0.4-1c-0.4,0.8-0.7,1.7-1.1,2.5c0.2-0.5,0.4-1,0.7-1.5
						c-3.8,9-7.2,18.2-10.4,27.5c-12.1,35.2-20,71.7-25.1,108.5c-0.1,0.5-0.1,1-0.2,1.6c0-0.3,0.1-0.5,0.1-0.8
						c-0.3,2.2-0.6,4.4-0.8,6.6h-29.6c2.2-18.9,5.2-37.7,8.9-56.4c9.8-48.2,25.7-95.5,49.4-138.7c16.2-29.4,36.1-57.1,59.7-81.2
						l19.2,1.8L1030.9,2413.2z"/>
					<path class="st6" d="M1006.1,2441.5c0,0-0.1,0.1-0.1,0.1c-0.7,0.9-1.9,2.7,0.3-0.4C1006.3,2441.3,1006.2,2441.4,1006.1,2441.5
						C1006.1,2441.4,1006.1,2441.5,1006.1,2441.5z"/>
				</g>
				<path class="st8" d="M1113,2443c0,15.3-9.5,29.7-24.8,35.2l-16.6-46.2c-1.1,8.8-5.1,16.8-11.1,22.9
					c-6.1,6.1-14.1,10.3-23.3,11.4l-6.3-53.1l-2.2-18.5l-19.2-1.8l-58.7-5.6c1.6-16.7,13.5-30,28.8-34.2l-39.5-11.8
					c5.9-19.8,26.8-31.1,46.6-25.2l64.5,19.3c18,5.4,32.3,19,38.7,36.6l21,58.4C1112.3,2434.5,1113,2438.7,1113,2443z"/>
			</g>
			<g class="st20">
				<path class="st3" d="M475.7,2507.6c0-5.3,0-10.7-0.1-16c-0.3-7.3-1.1-14.5-2.1-21.8c-1.6-11.6-5.5-22.4-10.3-33.1
					c-4.8-10.7-11.4-20.2-18.8-29.2c-6.3-7.5-13.9-13.7-20.3-21.1c0,0,0,0,0,0c-1-1.5-1.9-3-2.7-4.5c-0.6-1.9-1.1-3.8-1.5-5.8
					c-0.5-5.7-0.2-11.5,0.2-17.2h-12.3h-34.5c-0.4,4.6-0.6,9.2-0.5,13.8c0.2,4.8,0.8,9.5,1.6,14.2c0.4,2.8,1.1,5.6,2.1,8.2
					c0.1,0.3,0.2,0.6,0.3,0.9h-10c-8.7,0-15.7-7-15.7-15.7v-21.5h-9.6v21.5c0,13.9,11.4,25.3,25.3,25.3H381c0.4,0.7,0.8,1.4,1.2,2.1
					c2.3,3.8,5.2,7.4,8,10.8c3.4,4.2,7.4,7.9,11.2,11.6c3.7,3.6,7.2,7.2,10.5,11.2c4,5.6,7.5,11.6,10.4,17.9
					c2.6,6.7,4.5,13.7,5.7,20.9c1.6,15.5,0.5,31.2,1.1,46.7H476C475.7,2520.4,475.7,2514,475.7,2507.6z"/>
				<path class="st5" d="M516.2,2358.8H407.8c1.4-6,2.2-12.1,2.4-18.5c0.1-1.2,0.1-2.4,0.1-3.5c0-0.3,0-0.5,0-0.7
					c-0.2-26.6-11-50.6-28.4-68.1c6-1.6,12.3-2.5,18.7-2.5c27.5,0,51.3,15.5,63.2,38.3c1.9,3.6,3.4,7.3,4.7,11.2
					c2.2,6.9,3.4,14.2,3.4,21.9c0,0.6,0,1.2,0,1.8c3.5-1.2,7.3-1.8,11.3-1.8C498.1,2336.8,510.8,2345.9,516.2,2358.8z"/>
				<path class="st8" d="M410.3,2336.8c0,1.2,0,2.4-0.1,3.5c-0.2,6.3-1,12.5-2.4,18.5H246.7v-0.4c0-27.5,22.3-49.7,49.7-49.7
					c13.3,0,25.4,5.2,34.3,13.7c5.4-26.4,25.4-47.4,51.1-54.4c17.4,17.5,28.2,41.5,28.4,68.1
					C410.3,2336.3,410.3,2336.6,410.3,2336.8z"/>
			</g>
			<g class="st20">
				<path class="st15" d="M1343.4,2548.2c0,0-61.4,63-132.7,63c-71.3,0-127.7-63-127.7-63v-73c0,0,11,12.3,29.4,26
					c23.3,17.4,58.5,37,98.3,37c71.3,0,132.7-63,132.7-63V2548.2z"/>
				<line class="st15" x1="1112" y1="2572.3" x2="1112" y2="2497.7"/>
				<line class="st15" x1="1153.9" y1="2525.7" x2="1153.9" y2="2598.5"/>
				<line class="st15" x1="1202.2" y1="2538" x2="1202.2" y2="2611.3"/>
				<line class="st15" x1="1250.4" y1="2532.2" x2="1250.4" y2="2605.2"/>
				<line class="st15" x1="1287" y1="2516.8" x2="1287" y2="2591.9"/>
				<line class="st15" x1="1316.9" y1="2497.7" x2="1316.9" y2="2568.7"/>
			</g>
		</g>
	</g>
	<g id="base_x5F_pack1_1_">
		<g>
			<g id="base_x5F_pack1">
				<g>
					
						<rect x="2436.2" y="2017" transform="matrix(0.3791 -0.9254 0.9254 0.3791 -414.8519 3564.5244)" class="st6" width="24.9" height="148.8"/>
					
						<rect x="2374.2" y="2078.9" transform="matrix(0.9254 -0.379 0.379 0.9254 -609.9938 1084.1761)" class="st6" width="148.8" height="24.9"/>
					<rect x="2367.4" y="2049.1" class="st6" width="24.9" height="89.6"/>
					<rect x="2505.1" y="2049.1" class="st6" width="24.9" height="89.6"/>
					<rect x="2266.1" y="1866.1" class="st6" width="363.4" height="184.6"/>
					<rect x="2256.2" y="2005.9" class="st3" width="383.3" height="24.9"/>
					<rect x="2256.2" y="1962.8" class="st3" width="383.3" height="24.9"/>
					<rect x="2256.2" y="1919.6" class="st3" width="383.3" height="24.9"/>
					<rect x="2335.6" y="1856.6" class="st3" width="222.2" height="228.9"/>
					<path class="st2" d="M2650.7,1930.9l-203.5-88.8c0,0,0,0,0,0l-201.9,88.7c0,0,0,0,0,0v0c-13.3-30.3,0.5-65.7,30.8-79l147.9-65
						c14.7-6.5,31.5-6.5,46.3-0.1c47.1,20.5,149.7,65.3,149.7,65.3c30.2,13.2,44,48.4,30.9,78.6L2650.7,1930.9
						C2650.7,1930.9,2650.7,1930.9,2650.7,1930.9z"/>
					<path class="st2" d="M2327,1963.5L2327,1963.5c-17.8-21-15.2-52.4,5.8-70.2l75.4-63.9c25.3-21.5,62.6-20.9,87.3,1.3l68.8,61.9
						c20.4,18.4,22.1,49.9,3.7,70.3l0,0l-116.6-104.9L2327,1963.5z"/>
					<rect x="2266.1" y="2049.1" class="st6" width="24.9" height="89.6"/>
					<rect x="2604.6" y="2049.1" class="st6" width="24.9" height="89.6"/>
					<circle class="st6" cx="2446.2" cy="1932.1" r="29.9"/>
					<rect x="2410.5" y="1982.7" class="st2" width="73" height="102.9"/>
					<rect x="2425.4" y="1997.6" class="st6" width="44.8" height="89.6"/>
				</g>
			</g>
			<g>
				<path class="st2" d="M2778.3,1952.4c3,27.2,5.3,54.5,4.1,81.9h-27c1-21.1-0.2-42.3-2.2-63.4c-3.9-41.9-10.8-83.8-9.2-126.1
					c0.8-21.6,3.8-43.5,10-64.3l23.6-9.7l5.4,7.8c-4.8,13.4-8,27.3-9.9,41.4c-1.8,14.4-2.4,28.8-2.2,43.3
					C2771.2,1893.2,2775.1,1922.8,2778.3,1952.4z"/>
				<path class="st8" d="M2861.3,1813l-33.1-30.2c1.6,4.1,2.3,8.4,2.3,12.8c0,11.4-5.4,22.7-15.5,29.6l-32-46.5l-5.4-7.8l-23.6,9.7
					l-42.5,17.5c-5.9-14.2-1.9-30,8.6-39.9l-37,7.3c-3.7-18.5,8.4-36.5,26.9-40.2l60.4-11.9c16.8-3.3,34.2,1.5,46.9,13.1l41.9,38.2
					c7.4,6.8,11.1,16,11.1,25.3C2870.3,1798.2,2867.3,1806.5,2861.3,1813z"/>
			</g>
			<g>
				<g>
					<path class="st21" d="M2914.4,1810.3c0,0,0.1-0.1,0.1-0.1C2914.5,1810.3,2914.4,1810.3,2914.4,1810.3z"/>
					<path class="st21" d="M2914.5,1810.2C2914.5,1810.2,2914.5,1810.2,2914.5,1810.2c0.1-0.1,0.2-0.2,0.2-0.3
						c0.1-0.1,0.1-0.1,0.2-0.2C2914.8,1809.9,2914.6,1810.1,2914.5,1810.2z"/>
					<path class="st6" d="M2865.2,1895.8c0.2-0.5,0.4-1,0.7-1.5c0.3-0.7,0.5-1.3,0.8-2C2866.2,1893.5,2865.7,1894.7,2865.2,1895.8z"
						/>
					<path class="st6" d="M2830.1,2031.9c0.1-0.5,0.2-1,0.2-1.6c0.1-0.8,0.2-1.6,0.3-2.4C2830.5,2029.2,2830.3,2030.6,2830.1,2031.9
						z"/>
					<path class="st6" d="M2939.3,1781.9c-0.8,0.8-1.6,1.6-2.4,2.4c-7.8,8.2-15.2,16.7-22.2,25.6c-0.1,0.1-0.2,0.2-0.2,0.3
						c0,0,0,0.1-0.1,0.1c-0.3,0.5-0.7,0.9-1,1.3c-0.8,1.1-1.6,2.2-2.4,3.3c-1.5,2.1-3.1,4.2-4.6,6.3c-3.2,4.6-6.3,9.2-9.3,13.9
						c-12,18.8-22.4,38.7-31.2,59.2c0.1-0.3,0.3-0.7,0.4-1c-0.4,0.8-0.7,1.7-1.1,2.5c0.2-0.5,0.4-1,0.7-1.5
						c-3.8,9-7.2,18.2-10.4,27.5c-12.1,35.2-20,71.7-25.1,108.5c-0.1,0.5-0.1,1-0.2,1.6c0-0.3,0.1-0.5,0.1-0.8
						c-0.3,2.2-0.6,4.4-0.8,6.6h-29.6c2.2-18.9,5.2-37.7,8.9-56.4c9.8-48.2,25.7-95.5,49.4-138.7c16.2-29.4,36.1-57.1,59.7-81.2
						l19.2,1.8L2939.3,1781.9z"/>
					<path class="st6" d="M2914.5,1810.2c0,0-0.1,0.1-0.1,0.1c-0.7,0.9-1.9,2.7,0.3-0.4C2914.7,1810,2914.6,1810.1,2914.5,1810.2
						C2914.5,1810.2,2914.5,1810.2,2914.5,1810.2z"/>
				</g>
				<path class="st8" d="M3021.4,1811.7c0,15.3-9.5,29.7-24.8,35.2l-16.6-46.2c-1.1,8.8-5.1,16.8-11.1,22.9
					c-6.1,6.1-14.1,10.3-23.3,11.4l-6.3-53.1l-2.2-18.5l-19.2-1.8l-58.7-5.6c1.6-16.7,13.5-30,28.8-34.2l-39.5-11.8
					c5.9-19.8,26.8-31.1,46.6-25.2l64.5,19.3c18,5.4,32.3,19,38.7,36.6l21,58.4C3020.7,1803.2,3021.4,1807.5,3021.4,1811.7z"/>
			</g>
			<g>
				<path class="st2" d="M1377.5,2302.7c-0.1,23-17,42.2-39,45.8c0,0,0,0,0,0c-4.3-3.9-8-8.1-11-13.1h3.5c18,0,32.7-14.6,32.8-32.7
					H1377.5z"/>
				<path class="st3" d="M1470.3,2543.4h-49.2c0-33.4-11.3-61.6-26.4-83.8c-17.2-25.3-39.4-42.9-55.6-51.8c-3.1-1.7-6.3-3.5-9.4-5.3
					h-53.6c-25.6,0-46.5-20.9-46.5-46.5v-53.2h13.8v53.2c0,18.1,14.7,32.8,32.8,32.8h33.6c-8.3-6.7-16-14.7-22.4-24.5
					c-3.1-4.7-5.8-9.7-8.2-15.1c0,0,0,0,0,0l-5.1-13.6c0,0,0-0.1,0-0.1c-3-9.6-5.2-20.4-6.6-32.7h49.6c2.1,14.1,5.5,24.4,10.4,32.7
					c3.1,5,6.7,9.3,11,13.1c0,0,0,0,0,0c6.5,5.8,14.6,10.7,24.4,16.1c25.8,14.2,51.2,37.2,69.7,63.1c2.8,3.9,5.4,7.9,7.9,11.9
					C1460.1,2471.3,1470.3,2506.9,1470.3,2543.4z"/>
				<path class="st3" d="M1279.1,2349.1c-1.9-4.3-3.6-8.8-5.1-13.6L1279.1,2349.1z"/>
				<path class="st5" d="M1429.6,2302.7h-294.4v-0.5c0-30,24.3-54.4,54.4-54.4c14.5,0,27.7,5.7,37.5,15
					c5.9-28.8,27.7-51.8,55.9-59.5c6.5-1.8,13.4-2.7,20.5-2.7c30,0,56.1,17,69.1,41.8c2,3.9,3.8,8,5.1,12.2
					c2.4,7.5,3.7,15.5,3.7,23.9c0,0.7,0,1.3,0,2c3.9-1.3,8-2,12.3-2C1409.8,2278.6,1423.7,2288.6,1429.6,2302.7z"/>
				<path class="st8" d="M1313.9,2278.6c0,1.3,0,2.6-0.1,3.9c-0.2,6.9-1.1,13.7-2.6,20.2h-176.1v-0.5c0-30,24.3-54.4,54.4-54.4
					c14.5,0,27.7,5.7,37.5,15c5.9-28.8,27.7-51.8,55.9-59.5C1302,2222.7,1313.9,2249.3,1313.9,2278.6z"/>
				<path class="st6" d="M1470.3,2543.4h-49.2c0-33.4-11.3-61.6-26.4-83.8c13-10.2,28.7-17.3,45.8-19.9
					C1460.1,2471.3,1470.3,2506.9,1470.3,2543.4z"/>
			</g>
			<g>
				<path class="st3" d="M2228.3,1948h-36.1c0.3-13.1-0.3-26.3-1.9-39.3c-2.6-18.3-7.3-36.3-14.3-53.4c-6-13.8-13.6-27-22.7-39.1
					c-8.2-10.4-17.6-19.9-27.9-28.2c-0.1-0.1-0.2-0.2-0.3-0.2c-1.7-1.3-3.4-2.5-5.2-3.7l2.8-20.8l26.7-2.1
					c5.7,4.5,11.1,9.4,16.2,14.6c21.9,22.2,38,49.3,48.5,78.6c5.3,14.9,9,30.3,11.2,45.9C2227.5,1916.1,2228.7,1932,2228.3,1948z"/>
				<path class="st5" d="M2178.2,1736.7c5.3,5.7,8.8,13.1,9.4,21.4l-38.2,3l-26.7,2.1l-2.8,20.8l-6.6,49.3
					c-15-2-26.6-13.2-29.9-27.1l-12,35.2c-17.7-6-27.1-25.2-21.1-42.9l19.6-57.5c5.5-16,18.2-28.5,34.4-33.6l53.4-16.9
					c17.8-5.6,36.8,4.2,42.4,22l-42.2,13.4C2165.8,1727.2,2172.9,1731.1,2178.2,1736.7z"/>
			</g>
			<g>
				<path class="st3" d="M1528.9,2119.1v213.1h-35v-135.5h-26.2c-17.4,0-31.6-14.2-31.6-31.6v-46h12.2v46c0,10.7,8.7,19.4,19.4,19.4
					h26.2v-65.5H1528.9z"/>
				<path class="st2" d="M1570,2119.1v9.5c0,17.4-14.2,31.6-31.6,31.6h-9.5V2148h9.5c10.7,0,19.4-8.7,19.4-19.4v-9.5H1570z"/>
				<path class="st5" d="M1623.7,2119.1H1363v-0.4c0-26.6,21.6-48.1,48.1-48.1c12.9,0,24.6,5.1,33.2,13.3
					c5.2-25.5,24.6-45.9,49.5-52.7c5.8-1.6,11.9-2.4,18.1-2.4c26.6,0,49.7,15,61.2,37.1c1.8,3.4,3.3,7.1,4.5,10.8
					c2.1,6.7,3.3,13.8,3.3,21.1c0,0.6,0,1.2,0,1.8c3.4-1.2,7.1-1.8,10.9-1.8C1606.2,2097.8,1618.5,2106.6,1623.7,2119.1z"/>
				<path class="st8" d="M1521.3,2097.8c0,1.1,0,2.3-0.1,3.4c-0.2,6.1-1,12.1-2.3,17.9H1363v-0.4c0-26.6,21.6-48.1,48.1-48.1
					c12.9,0,24.6,5.1,33.2,13.3c5.2-25.5,24.6-45.9,49.5-52.7C1510.8,2048.2,1521.3,2071.8,1521.3,2097.8z"/>
				<path class="st6" d="M1528.9,2228.1v104.1h-35v-84.5C1503.5,2238.4,1515.5,2231.6,1528.9,2228.1z"/>
			</g>
		</g>
	</g>
	<g id="base_x5F_pack2">
		<g>
			<g>
				<polygon class="st3" points="1985.5,1595.2 1985.5,1626.3 1814.5,1626.3 1814.5,1579.7 1884.5,1518.3 				"/>
				<polygon class="st6" points="1958.8,1626.3 1958.7,1626.3 1814.5,1626.3 1814.5,1579.7 1884.5,1518.3 1890.5,1579.7 				"/>
			</g>
			<g>
				<path class="st3" d="M1387.9,1564.9h-31.1c0.3-11.3-0.3-22.6-1.7-33.9c-2.3-15.8-6.3-31.3-12.3-46
					c-5.2-11.9-11.8-23.2-19.6-33.7c-7.1-9-15.1-17.2-24.1-24.4c-0.1-0.1-0.2-0.1-0.2-0.2c-1.5-1.1-3-2.2-4.5-3.2l2.4-17.9l23-1.8
					c4.9,3.9,9.6,8.1,13.9,12.5c18.9,19.1,32.8,42.5,41.8,67.8c4.6,12.8,7.8,26.1,9.6,39.6
					C1387.2,1537.4,1388.2,1551.1,1387.9,1564.9z"/>
				<path class="st5" d="M1344.7,1382.7c4.6,4.9,7.6,11.3,8.1,18.5l-32.9,2.6l-23,1.8l-2.4,17.9l-5.7,42.5
					c-13-1.8-22.9-11.4-25.7-23.4l-10.4,30.4c-15.2-5.2-23.4-21.8-18.2-37l16.9-49.6c4.7-13.8,15.7-24.6,29.6-29l46-14.6
					c15.3-4.9,31.7,3.6,36.6,19l-36.4,11.5C1334,1374.5,1340.1,1377.8,1344.7,1382.7z"/>
			</g>
			<g>
				<path class="st2" d="M1481.8,1498.5c2.4,22.5,4.4,45.2,3.4,67.8h-22.4c0.8-17.5-0.2-35.1-1.8-52.5c-3.3-34.7-9-69.4-7.6-104.4
					c0.7-17.9,3.1-36,8.3-53.2l19.6-8l4.4,6.4c-4,11.1-6.6,22.6-8.2,34.2c-1.5,11.9-2,23.9-1.8,35.9
					C1475.9,1449.5,1479.1,1474,1481.8,1498.5z"/>
				<path class="st8" d="M1550.6,1383.1l-27.4-25c1.3,3.4,1.9,7,1.9,10.6c0,9.5-4.5,18.8-12.9,24.6l-26.5-38.5l-4.4-6.4l-19.6,8
					l-35.2,14.5c-4.8-11.8-1.6-24.8,7.2-33.1l-30.6,6c-3-15.3,7-30.3,22.3-33.3l50-9.9c13.9-2.7,28.3,1.3,38.8,10.9l34.7,31.7
					c6.1,5.6,9.2,13.2,9.2,20.9C1558,1370.8,1555.5,1377.7,1550.6,1383.1z"/>
			</g>
			<g>
				<g>
					<path class="st21" d="M1629.8,1394.3C1629.8,1394.2,1629.8,1394.2,1629.8,1394.3C1629.8,1394.2,1629.8,1394.2,1629.8,1394.3z"
						/>
					<path class="st21" d="M1629.8,1394.2C1629.8,1394.2,1629.9,1394.1,1629.8,1394.2c0.1-0.1,0.1-0.2,0.2-0.2
						c0-0.1,0.1-0.1,0.1-0.2C1630,1393.9,1629.9,1394.1,1629.8,1394.2z"/>
					<path class="st6" d="M1592.5,1459c0.2-0.4,0.3-0.8,0.5-1.2c0.2-0.5,0.4-1,0.6-1.5C1593.3,1457.2,1592.9,1458.1,1592.5,1459z"/>
					<path class="st6" d="M1566,1561.9c0.1-0.4,0.1-0.8,0.2-1.2c0.1-0.6,0.1-1.2,0.2-1.8C1566.3,1559.9,1566.1,1560.9,1566,1561.9z"
						/>
					<path class="st6" d="M1648.6,1372.7c-0.6,0.6-1.2,1.2-1.8,1.8c-5.9,6.2-11.5,12.7-16.8,19.4c-0.1,0.1-0.1,0.1-0.2,0.2
						c0,0,0,0.1-0.1,0.1c-0.3,0.3-0.5,0.7-0.8,1c-0.6,0.8-1.2,1.6-1.8,2.5c-1.2,1.6-2.3,3.1-3.4,4.7c-2.4,3.5-4.8,7-7.1,10.5
						c-9.1,14.2-16.9,29.3-23.6,44.8c0.1-0.3,0.2-0.5,0.3-0.8c-0.3,0.6-0.5,1.3-0.8,1.9c0.2-0.4,0.3-0.8,0.5-1.1
						c-2.8,6.8-5.5,13.8-7.9,20.8c-9.2,26.6-15.2,54.3-19,82.1c-0.1,0.4-0.1,0.8-0.2,1.2c0-0.2,0.1-0.4,0.1-0.6
						c-0.2,1.7-0.4,3.3-0.6,5h-22.4c1.7-14.3,3.9-28.6,6.8-42.7c7.4-36.5,19.4-72.2,37.4-104.9c12.2-22.3,27.3-43.2,45.2-61.4
						l14.5,1.4L1648.6,1372.7z"/>
					<path class="st6" d="M1629.8,1394.2C1629.8,1394.2,1629.8,1394.2,1629.8,1394.2c-0.6,0.7-1.5,2.1,0.2-0.2
						C1630,1394,1629.9,1394.1,1629.8,1394.2C1629.9,1394.1,1629.8,1394.2,1629.8,1394.2z"/>
				</g>
				<path class="st8" d="M1710.8,1395.3c0,11.6-7.2,22.5-18.8,26.7l-12.6-34.9c-0.8,6.7-3.9,12.7-8.4,17.3
					c-4.6,4.6-10.7,7.8-17.6,8.6l-4.7-40.2l-1.7-14l-14.5-1.4l-44.4-4.3c1.2-12.7,10.2-22.7,21.8-25.9l-29.9-8.9
					c4.5-15,20.3-23.5,35.3-19l48.8,14.6c13.6,4.1,24.5,14.3,29.3,27.7l15.9,44.2C1710.2,1388.9,1710.8,1392.1,1710.8,1395.3z"/>
			</g>
			<g>
				<polygon class="st2" points="2229.6,2146 2229.6,2193.6 2024.6,2193.6 2024.6,2154 2091,2085.6 2146.5,2085.6 				"/>
				<polygon class="st3" points="2126.6,2122.3 2126.6,2158.9 2091,2193.6 2024.6,2193.6 2024.6,2154 2091,2085.6 				"/>
			</g>
			<g>
				<path class="st3" d="M1376.4,2113.4c0-5.3,0-10.7-0.1-16c-0.3-7.3-1.1-14.5-2.1-21.8c-1.6-11.6-5.5-22.4-10.3-33.1
					c-4.8-10.7-11.4-20.2-18.8-29.2c-6.3-7.5-13.9-13.7-20.3-21.1c0,0,0,0,0,0c-1-1.5-1.9-3-2.7-4.5c-0.6-1.9-1.1-3.8-1.5-5.8
					c-0.5-5.7-0.2-11.5,0.2-17.2h-12.3h-34.5c-0.4,4.6-0.6,9.2-0.5,13.8c0.2,4.8,0.8,9.5,1.6,14.2c0.4,2.8,1.1,5.6,2.1,8.2
					c0.1,0.3,0.2,0.6,0.3,0.9h-10c-8.7,0-15.7-7-15.7-15.7v-21.5h-9.6v21.5c0,13.9,11.4,25.3,25.3,25.3h14.2
					c0.4,0.7,0.8,1.4,1.2,2.1c2.3,3.8,5.2,7.4,8,10.8c3.4,4.2,7.4,7.9,11.2,11.6c3.7,3.6,7.2,7.2,10.5,11.2
					c4,5.6,7.5,11.6,10.4,17.9c2.6,6.7,4.5,13.7,5.7,20.9c1.6,15.5,0.5,31.2,1.1,46.7h46.8
					C1376.4,2126.2,1376.4,2119.8,1376.4,2113.4z"/>
				<path class="st5" d="M1416.8,1964.6h-108.4c1.4-6,2.2-12.1,2.4-18.5c0.1-1.2,0.1-2.4,0.1-3.5c0-0.3,0-0.5,0-0.7
					c-0.2-26.6-11-50.6-28.4-68.1c6-1.6,12.3-2.5,18.7-2.5c27.5,0,51.3,15.5,63.2,38.3c1.9,3.6,3.4,7.3,4.7,11.2
					c2.2,6.9,3.4,14.2,3.4,21.9c0,0.6,0,1.2,0,1.8c3.5-1.2,7.3-1.8,11.3-1.8C1398.7,1942.6,1411.5,1951.7,1416.8,1964.6z"/>
				<path class="st8" d="M1311,1942.6c0,1.2,0,2.4-0.1,3.5c-0.2,6.3-1,12.5-2.4,18.5h-161.1v-0.4c0-27.5,22.3-49.7,49.7-49.7
					c13.3,0,25.4,5.2,34.3,13.7c5.4-26.4,25.4-47.4,51.1-54.4c17.4,17.5,28.2,41.5,28.4,68.1C1310.9,1942.1,1311,1942.4,1311,1942.6
					z"/>
			</g>
		</g>
	</g>
	<g id="base_x5F_pack3">
		<g>
			<g>
				<path class="st3" d="M1634.7,2481.7v213.9h-35.1v-136h-26.3c-17.5,0-31.7-14.2-31.7-31.7v-46.2h12.2v46.2
					c0,10.7,8.8,19.5,19.5,19.5h26.3v-65.7H1634.7z"/>
				<path class="st2" d="M1676,2481.7v9.5c0,17.5-14.2,31.7-31.7,31.7h-9.5v-12.2h9.5c10.7,0,19.5-8.8,19.5-19.5v-9.5H1676z"/>
				<path class="st5" d="M1729.9,2481.7h-261.7v-0.4c0-26.7,21.6-48.3,48.3-48.3c12.9,0,24.7,5.1,33.3,13.3
					c5.3-25.6,24.6-46.1,49.6-52.9c5.8-1.6,11.9-2.4,18.2-2.4c26.7,0,49.8,15.1,61.4,37.2c1.8,3.5,3.3,7.1,4.6,10.9
					c2.2,6.7,3.3,13.8,3.3,21.2c0,0.6,0,1.2,0,1.8c3.4-1.2,7.1-1.8,11-1.8C1712.3,2460.3,1724.7,2469.1,1729.9,2481.7z"/>
				<path class="st8" d="M1627.1,2460.3c0,1.1,0,2.3-0.1,3.4c-0.2,6.2-1,12.1-2.4,18h-156.5v-0.4c0-26.7,21.6-48.3,48.3-48.3
					c12.9,0,24.7,5.1,33.3,13.3c5.3-25.6,24.6-46.1,49.6-52.9C1616.5,2410.5,1627.1,2434.2,1627.1,2460.3z"/>
				<path class="st6" d="M1634.7,2591.1v104.5h-35.1v-84.8C1609.3,2601.5,1621.3,2594.6,1634.7,2591.1z"/>
			</g>
			<g>
				<path class="st3" d="M3086.9,1555.7v164.7h-27.1v-104.7h-20.3c-13.5,0-24.4-11-24.4-24.4v-35.6h9.4v35.6c0,8.3,6.7,15,15,15
					h20.3v-50.6H3086.9z"/>
				<path class="st2" d="M3118.7,1555.7v7.3c0,13.5-11,24.4-24.4,24.4h-7.3v-9.4h7.3c8.3,0,15-6.7,15-15v-7.3H3118.7z"/>
				<path class="st5" d="M3160.2,1555.7h-201.5v-0.3c0-20.5,16.7-37.2,37.2-37.2c10,0,19,3.9,25.7,10.3c4-19.7,19-35.4,38.2-40.7
					c4.5-1.2,9.2-1.9,14-1.9c20.5,0,38.4,11.6,47.3,28.6c1.4,2.7,2.6,5.5,3.5,8.4c1.7,5.1,2.6,10.6,2.6,16.3c0,0.5,0,0.9,0,1.4
					c2.6-0.9,5.5-1.4,8.4-1.4C3146.6,1539.3,3156.2,1546.1,3160.2,1555.7z"/>
				<path class="st8" d="M3081,1539.3c0,0.9,0,1.8-0.1,2.6c-0.2,4.7-0.8,9.4-1.8,13.8h-120.5v-0.3c0-20.5,16.7-37.2,37.2-37.2
					c10,0,19,3.9,25.7,10.3c4-19.7,19-35.4,38.2-40.7C3072.9,1501,3081,1519.2,3081,1539.3z"/>
				<path class="st6" d="M3086.9,1640v80.4h-27.1v-65.3C3067.3,1647.9,3076.6,1642.7,3086.9,1640z"/>
			</g>
			<g>
				<path class="st3" d="M1937.4,1705v164.7h-27.1V1765H1890c-13.5,0-24.4-11-24.4-24.4V1705h9.4v35.6c0,8.3,6.7,15,15,15h20.3V1705
					H1937.4z"/>
				<path class="st2" d="M1969.1,1705v7.3c0,13.5-11,24.4-24.4,24.4h-7.3v-9.4h7.3c8.3,0,15-6.7,15-15v-7.3H1969.1z"/>
				<path class="st5" d="M2010.6,1705h-201.5v-0.3c0-20.5,16.7-37.2,37.2-37.2c10,0,19,3.9,25.7,10.3c4-19.7,19-35.4,38.2-40.7
					c4.5-1.2,9.2-1.9,14-1.9c20.5,0,38.4,11.6,47.3,28.6c1.4,2.7,2.6,5.5,3.5,8.4c1.7,5.1,2.6,10.6,2.6,16.3c0,0.5,0,0.9,0,1.4
					c2.6-0.9,5.5-1.4,8.4-1.4C1997.1,1688.5,2006.6,1695.3,2010.6,1705z"/>
				<path class="st8" d="M1931.5,1688.5c0,0.9,0,1.8-0.1,2.6c-0.2,4.7-0.8,9.4-1.8,13.8h-120.5v-0.3c0-20.5,16.7-37.2,37.2-37.2
					c10,0,19,3.9,25.7,10.3c4-19.7,19-35.4,38.2-40.7C1923.4,1650.3,1931.5,1668.4,1931.5,1688.5z"/>
				<path class="st6" d="M1937.4,1789.3v80.4h-27.1v-65.3C1917.8,1797.2,1927,1791.9,1937.4,1789.3z"/>
			</g>
			<g>
				
					<rect x="1459.7" y="1571.3" transform="matrix(0.3791 -0.9254 0.9254 0.3791 -608.7714 2384.1245)" class="st6" width="24.9" height="148.8"/>
				
					<rect x="1397.7" y="1633.2" transform="matrix(0.9254 -0.379 0.379 0.9254 -513.9234 680.7826)" class="st6" width="148.8" height="24.9"/>
				<rect x="1390.8" y="1603.4" class="st6" width="24.9" height="89.6"/>
				<rect x="1528.5" y="1603.4" class="st6" width="24.9" height="89.6"/>
				<rect x="1289.6" y="1420.4" class="st6" width="363.4" height="184.6"/>
				<rect x="1279.7" y="1560.2" class="st3" width="383.3" height="24.9"/>
				<rect x="1279.7" y="1517.1" class="st3" width="383.3" height="24.9"/>
				<rect x="1279.7" y="1473.9" class="st3" width="383.3" height="24.9"/>
				<rect x="1359.1" y="1410.9" class="st3" width="222.2" height="228.9"/>
				<path class="st2" d="M1674.2,1485.2l-203.5-88.8c0,0,0,0,0,0l-201.9,88.7c0,0,0,0,0,0v0c-13.3-30.3,0.5-65.7,30.8-79l147.9-65
					c14.7-6.5,31.5-6.5,46.3-0.1c47.1,20.5,149.7,65.3,149.7,65.3c30.2,13.2,44,48.4,30.9,78.6L1674.2,1485.2
					C1674.2,1485.2,1674.2,1485.2,1674.2,1485.2z"/>
				<path class="st2" d="M1350.5,1517.8L1350.5,1517.8c-17.8-21-15.2-52.4,5.8-70.2l75.4-63.9c25.3-21.5,62.6-20.9,87.3,1.3
					l68.8,61.9c20.4,18.4,22.1,49.9,3.7,70.3h0L1475,1412.4L1350.5,1517.8z"/>
				<rect x="1289.6" y="1603.4" class="st6" width="24.9" height="89.6"/>
				<rect x="1628.1" y="1603.4" class="st6" width="24.9" height="89.6"/>
				<circle class="st6" cx="1469.6" cy="1486.4" r="29.9"/>
				<rect x="1434" y="1537" class="st2" width="73" height="102.9"/>
				<rect x="1448.9" y="1551.9" class="st6" width="44.8" height="89.6"/>
			</g>
			<g>
				<polygon class="st3" points="1830.8,2087.8 1830.8,2118.9 1659.8,2118.9 1659.8,2072.3 1729.8,2010.9 				"/>
				<polygon class="st6" points="1804,2118.9 1804,2118.9 1659.8,2118.9 1659.8,2072.3 1729.8,2010.9 1735.8,2072.3 				"/>
			</g>
		</g>
	</g>
	<g id="base_x5F_pack4">
		<g>
			<g>
				<path class="st3" d="M1899,2588.2c0-4.1,0-8.2,0.1-12.4c0.2-5.7,0.8-11.2,1.6-16.8c1.3-9,4.3-17.3,7.9-25.6
					c3.7-8.2,8.8-15.6,14.6-22.5c4.8-5.8,10.8-10.6,15.7-16.3c0,0,0,0,0,0c0.8-1.1,1.5-2.3,2.1-3.5c0.5-1.5,0.9-3,1.2-4.5
					c0.4-4.4,0.2-8.9-0.2-13.3h9.5h26.7c0.3,3.6,0.5,7.1,0.4,10.7c-0.1,3.7-0.6,7.4-1.2,11c-0.3,2.2-0.9,4.3-1.6,6.4
					c-0.1,0.2-0.2,0.5-0.3,0.7h7.7c6.7,0,12.1-5.4,12.1-12.1v-16.6h7.4v16.6c0,10.8-8.8,19.5-19.5,19.5h-11
					c-0.3,0.6-0.6,1.1-0.9,1.7c-1.8,3-4,5.7-6.2,8.4c-2.7,3.2-5.7,6.1-8.7,9c-2.8,2.7-5.6,5.6-8.1,8.6c-3.1,4.3-5.8,8.9-8,13.8
					c-2,5.2-3.5,10.6-4.4,16.1c-1.3,12-0.4,24.1-0.9,36.1h-36.2C1899,2598.1,1899,2593.1,1899,2588.2z"/>
				<path class="st5" d="M2055,2473.2h-83.7c1.1-4.6,1.7-9.4,1.9-14.3c0-0.9,0.1-1.8,0.1-2.7c0-0.2,0-0.4,0-0.6
					c-0.1-20.5-8.5-39.1-22-52.6c4.6-1.3,9.5-1.9,14.5-1.9c21.2,0,39.6,12,48.9,29.6c1.4,2.7,2.7,5.6,3.6,8.6
					c1.7,5.3,2.6,11,2.6,16.9c0,0.5,0,0.9,0,1.4c2.7-0.9,5.7-1.4,8.7-1.4C2041,2456.2,2050.9,2463.3,2055,2473.2z"/>
				<path class="st8" d="M1973.2,2456.2c0,0.9,0,1.8-0.1,2.7c-0.2,4.9-0.8,9.7-1.9,14.3h-124.5v-0.3c0-21.2,17.2-38.4,38.4-38.4
					c10.3,0,19.6,4,26.5,10.6c4.2-20.4,19.6-36.6,39.5-42.1c13.5,13.5,21.8,32.1,22,52.6C1973.2,2455.9,1973.2,2456,1973.2,2456.2z"
					/>
			</g>
			<g>
				
					<rect x="1763.7" y="1834.3" transform="matrix(0.3791 -0.9254 0.9254 0.3791 -663.377 2828.7727)" class="st6" width="24.9" height="148.8"/>
				
					<rect x="1701.7" y="1896.3" transform="matrix(0.9254 -0.379 0.379 0.9254 -590.9288 815.6432)" class="st6" width="148.8" height="24.9"/>
				<rect x="1694.8" y="1866.4" class="st6" width="24.9" height="89.6"/>
				<rect x="1832.6" y="1866.4" class="st6" width="24.9" height="89.6"/>
				<rect x="1593.6" y="1683.4" class="st6" width="363.4" height="184.6"/>
				<rect x="1583.7" y="1823.2" class="st3" width="383.3" height="24.9"/>
				<rect x="1583.7" y="1780.1" class="st3" width="383.3" height="24.9"/>
				<rect x="1583.7" y="1737" class="st3" width="383.3" height="24.9"/>
				<rect x="1663.1" y="1674" class="st3" width="222.2" height="228.9"/>
				<path class="st2" d="M1978.2,1748.2l-203.5-88.8c0,0,0,0,0,0l-201.9,88.7c0,0,0,0,0,0h0c-13.3-30.3,0.5-65.7,30.8-79l147.9-65
					c14.7-6.5,31.5-6.5,46.3-0.1c47.1,20.5,149.7,65.3,149.7,65.3c30.2,13.2,44,48.4,30.9,78.6L1978.2,1748.2
					C1978.2,1748.2,1978.2,1748.2,1978.2,1748.2z"/>
				<path class="st2" d="M1654.5,1780.8L1654.5,1780.8c-17.8-21-15.2-52.4,5.8-70.2l75.4-63.9c25.3-21.5,62.6-20.9,87.3,1.3
					l68.8,61.9c20.4,18.4,22.1,49.9,3.7,70.3v0L1779,1675.4L1654.5,1780.8z"/>
				<rect x="1593.6" y="1866.4" class="st6" width="24.9" height="89.6"/>
				<rect x="1932.1" y="1866.4" class="st6" width="24.9" height="89.6"/>
				<circle class="st6" cx="1773.7" cy="1749.4" r="29.9"/>
				<rect x="1738" y="1800" class="st2" width="73" height="102.9"/>
				<rect x="1752.9" y="1814.9" class="st6" width="44.8" height="89.6"/>
			</g>
			<g>
				<path class="st3" d="M1413.9,1863h-34.9c0.3-12.7-0.3-25.4-1.9-37.9c-2.6-17.7-7.1-35-13.8-51.6c-5.8-13.4-13.2-26-21.9-37.7
					c-7.9-10.1-17-19.2-26.9-27.3c-0.1-0.1-0.2-0.1-0.3-0.2c-1.6-1.2-3.3-2.4-5-3.6l2.7-20.1l25.8-2c5.5,4.4,10.7,9.1,15.6,14.1
					c21.2,21.4,36.7,47.6,46.9,75.9c5.1,14.4,8.7,29.2,10.8,44.3C1413.2,1832.2,1414.3,1847.5,1413.9,1863z"/>
				<path class="st5" d="M1365.5,1659c5.1,5.5,8.5,12.6,9.1,20.7l-36.9,2.9l-25.8,2l-2.7,20.1l-6.4,47.6
					c-14.5-2-25.7-12.7-28.8-26.2l-11.6,34c-17.1-5.8-26.2-24.4-20.3-41.4l18.9-55.5c5.3-15.5,17.6-27.5,33.2-32.5l51.5-16.3
					c17.2-5.4,35.5,4.1,41,21.2l-40.8,12.9C1353.6,1649.8,1360.4,1653.6,1365.5,1659z"/>
			</g>
			<g>
				<polygon class="st2" points="1425.9,2565.2 1448.4,2617 1517.4,2617 1538.1,2582.5 1525.2,2546.3 1464.8,2523 				"/>
				<polygon class="st3" points="1425.9,2565.2 1448.4,2617 1469.5,2617 1469.5,2617 1489.8,2579 1464.8,2523 				"/>
			</g>
		</g>
	</g>
</g>
</svg>
