<?xml version="1.0" encoding="utf-8"?>
<!-- Generator: Adobe Illustrator 23.1.1, SVG Export Plug-In . SVG Version: 6.00 Build 0)  -->
<svg version="1.1" xmlns="http://www.w3.org/2000/svg" xmlns:xlink="http://www.w3.org/1999/xlink" x="0px" y="0px"
	 viewBox="0 0 4420.9 4334.2" style="enable-background:new 0 0 4420.9 4334.2;" xml:space="preserve">
<style type="text/css">
	.st0{fill:#8BD1C7;}
	.st1{opacity:0.5;fill:#64C2B5;stroke:#64C2B5;stroke-width:200;stroke-miterlimit:10;}
	.st2{fill:#C17056;}
	.st3{fill:#AD401E;}
	.st4{fill:#6E352D;}
	.st5{fill:#FFFFFF;}
	.st6{fill:#EAE2CE;}
	.st7{fill:none;stroke:#EFE9DA;stroke-width:10;stroke-miterlimit:10;}
	.st8{fill:#F3E2DD;}
	.st9{fill:#566337;}
	.st10{fill:#35110D;}
	.st11{fill:#5B8740;}
	.st12{fill:#F5B33F;}
	.st13{fill:#D69F8E;}
	.st14{fill:#8B5D57;}
	.st15{fill:#51E0D9;}
	.st16{fill:#A8EFEC;}
	.st17{fill:#E5FAF9;}
</style>
<g id="Calque_2">
	<rect x="-5.6" y="-3.9" class="st0" width="4416" height="4327"/>
</g>
<g id="base">
	<path id="base-shadow_2_" class="st1" d="M3942,2672.7l-65.7-87.2c23-24.1,35.9-56.1,35.9-89.5v-216.3c2.6-9.5,3.9-19.3,3.9-29.3v0
		c0-214.6-174-388.6-388.6-388.6h-522.6c-30.9,0-61.2-6.1-89.2-17.7s-53.8-28.7-75.6-50.5l-99.2-99.2v0c0,0-0.1-0.1-0.1-0.1
		c-2.6-2.6-5.3-5.1-8-7.6c-0.3-0.2-0.5-0.5-0.8-0.7c-5.5-5-11.3-9.7-17.3-14.1c-1.5-1.1-3.1-2.3-4.6-3.3
		c-39-27.4-85.8-42.4-134.1-42.4h-676.5c-51.9,0-101-17.2-140.8-47.3c-1.2-0.9-2.4-1.8-3.5-2.7c-0.9-0.7-1.7-1.4-2.6-2
		c-1.4-1.1-2.8-2.3-4.2-3.5c-0.6-0.5-1.2-1-1.8-1.5c-24.6-21.3-44.8-47.9-59-78.5l-35-75.9c-0.6-1.3-1.3-2.6-1.9-3.9
		c-0.2-0.3-0.3-0.7-0.5-1c-0.6-1.1-1.2-2.2-1.8-3.3c-0.1-0.2-0.2-0.4-0.3-0.6c-0.7-1.3-1.4-2.5-2.1-3.7c-0.2-0.3-0.4-0.6-0.5-0.9
		c-0.6-1-1.2-2-1.9-3c-0.2-0.2-0.3-0.5-0.5-0.8c-0.8-1.2-1.6-2.3-2.4-3.5c-0.2-0.2-0.3-0.4-0.5-0.6c-0.7-1-1.4-1.9-2.1-2.9
		c-0.2-0.3-0.4-0.5-0.6-0.8c-0.9-1.1-1.7-2.2-2.6-3.3c-0.1-0.1-0.1-0.2-0.2-0.3c-0.8-1-1.7-2-2.5-3c-0.2-0.3-0.4-0.5-0.7-0.8
		c-0.9-1-1.8-2-2.8-3c0,0,0,0-0.1-0.1c-1-1-2-2-3-3c-0.2-0.2-0.4-0.4-0.7-0.7c-0.9-0.8-1.8-1.7-2.7-2.5c-0.1-0.1-0.3-0.3-0.4-0.4
		c-1-0.9-2.1-1.9-3.1-2.7c-0.2-0.2-0.4-0.3-0.6-0.5c-0.9-0.8-1.8-1.5-2.8-2.2c-0.2-0.2-0.4-0.3-0.6-0.5c-1.1-0.9-2.2-1.7-3.3-2.5
		c-0.1-0.1-0.3-0.2-0.4-0.3c-1-0.7-2-1.4-3-2.1c-0.2-0.2-0.5-0.3-0.7-0.5c-2.3-1.5-4.6-3-7-4.4c-0.3-0.2-0.5-0.3-0.8-0.5
		c-1.1-0.6-2.3-1.3-3.4-1.9c-0.1,0-0.1-0.1-0.2-0.1c-1.2-0.7-2.5-1.3-3.7-1.9c-0.3-0.1-0.5-0.3-0.8-0.4c-1.1-0.5-2.1-1-3.2-1.5
		c-0.2-0.1-0.4-0.2-0.6-0.3c-1.3-0.6-2.5-1.1-3.8-1.6c-0.2-0.1-0.5-0.2-0.7-0.3c-1.1-0.4-2.2-0.9-3.3-1.3c-0.3-0.1-0.5-0.2-0.8-0.3
		c-1.3-0.5-2.6-0.9-3.9-1.3c-0.1,0-0.3-0.1-0.4-0.1c-1.2-0.4-2.3-0.7-3.5-1.1c-0.3-0.1-0.6-0.2-0.9-0.3c-2.6-0.7-5.3-1.4-7.9-2
		c-0.3-0.1-0.7-0.1-1-0.2c-1.2-0.2-2.3-0.5-3.5-0.7c-0.2,0-0.4-0.1-0.6-0.1c-1.3-0.2-2.7-0.4-4-0.6c-0.3,0-0.6-0.1-1-0.1
		c-1.1-0.2-2.2-0.3-3.3-0.4c-0.3,0-0.6-0.1-0.9-0.1c-1.3-0.1-2.7-0.3-4-0.4c-0.3,0-0.6,0-0.8-0.1c-1.1-0.1-2.2-0.1-3.3-0.2
		c-0.4,0-0.7,0-1.1,0c-1.4,0-2.7-0.1-4.1-0.1c0,0-0.1,0-0.1,0c-0.3,0-0.5,0-0.8,0c-0.8,0-1.6,0-2.5,0c-0.4,0-0.8,0-1.3,0
		c-0.7,0-1.4,0.1-2.1,0.1c-0.5,0-0.9,0.1-1.4,0.1c-0.7,0-1.3,0.1-2,0.1c-0.5,0-1,0.1-1.4,0.1c-0.7,0.1-1.3,0.1-2,0.2
		c-0.5,0.1-1,0.1-1.5,0.2c-0.7,0.1-1.3,0.2-2,0.2c-0.5,0.1-1,0.1-1.4,0.2c-0.7,0.1-1.4,0.2-2,0.3c-0.5,0.1-0.9,0.1-1.4,0.2
		c-0.8,0.1-1.5,0.3-2.3,0.4c-0.4,0.1-0.8,0.1-1.1,0.2c-1.1,0.2-2.2,0.5-3.3,0.7c-0.3,0.1-0.6,0.1-0.9,0.2c-0.8,0.2-1.7,0.4-2.5,0.6
		c-0.4,0.1-0.9,0.2-1.3,0.4c-0.7,0.2-1.4,0.4-2.1,0.6c-0.5,0.1-0.9,0.3-1.4,0.4c-0.6,0.2-1.3,0.4-1.9,0.6c-0.5,0.2-1,0.3-1.4,0.5
		c-0.6,0.2-1.3,0.4-1.9,0.6c-0.5,0.2-1,0.3-1.4,0.5c-0.6,0.2-1.3,0.5-1.9,0.7c-0.5,0.2-0.9,0.3-1.4,0.5c-0.7,0.3-1.3,0.5-2,0.8
		c-0.4,0.2-0.9,0.4-1.3,0.5c-0.7,0.3-1.5,0.6-2.2,1c-0.4,0.2-0.7,0.3-1.1,0.5c-1.1,0.5-2.2,1-3.3,1.5l-115.7,56.4
		c-106.9,52.1-174.7,160.6-174.7,279.5v259.1H556.3c-12.2,0-24.1,1.7-35.7,5c-0.5,0.1-0.9,0.3-1.4,0.4c-1.2,0.4-2.5,0.8-3.7,1.2
		c-1.4,0.5-2.8,1-4.2,1.5c-1.3,0.5-2.5,1-3.8,1.5c-6,2.4-11.8,5.3-17.3,8.6c-0.5,0.3-1,0.6-1.6,0.9c-1.2,0.8-2.5,1.5-3.7,2.4
		c-4.1,2.7-8.1,5.6-11.9,8.8l-155.6,130.4l0,0v0v168.4v427.5c0,143.1,116,259.1,259.1,259.1H859l121.8,51.8l158,199.5v145.1
		l95.9,259.1h399l160.6,119.2h243.5l67.4-119.2h401.6h142.5l-107-251.7l0,0l107,251.7l129.6-152.3c35.9-42.2,55.6-95.8,55.6-151.1
		v-282.1c0.8-8,1.3-16.1,1.3-24.2v-199.1h694.3v0.5h25.2c61.8,0,121.1-24.6,164.9-68.3l27.6-27.6l147.7,7.8L3942,2672.7z
		 M1324,3363.9v36.7l-1.3,0.1L1324,3363.9z"/>
	<g id="base_1_">
		<path class="st2" d="M3529.5,2566.6v243.5h25.2c61.8,0,121.1-24.6,164.9-68.3l154.1-154.1c24.3-24.3,37.9-57.2,37.9-91.6v-216.4
			L3529.5,2566.6z"/>
		<polygon class="st3" points="2835.2,2566.6 2835.2,2809.6 3529.5,2809.6 3529.5,2535.5 		"/>
		<path class="st2" d="M2648.6,3618.5l-107-251.7l292.2-333.8V3315c0,55.4-19.7,109-55.6,151.1L2648.6,3618.5z"/>
		<polygon class="st4" points="858.4,2963 980.2,3014.8 1138.2,3214.3 1418,2963 1138.2,2566.6 858.4,2535.5 		"/>
		<polygon class="st4" points="1138.2,3214.3 1138.2,3359.4 1234.1,3618.5 1322.1,3400.8 1335.1,3032.9 		"/>
		<polygon class="st3" points="1138.2,3214.3 980.2,3014.8 1034.6,2714.3 1331.2,3010.9 1324.7,3032.9 		"/>
		<polygon class="st3" points="1322.1,3400.8 1234.1,3618.5 1633,3618.5 1793.7,3737.6 2037.2,3737.6 2104.6,3618.5 2506.1,3618.5 
			2648.6,3618.5 2516.5,3307.6 		"/>
		<path class="st3" d="M316.9,2108v595.9c0,143.1,116,259.1,259.1,259.1h282.4v-531.1L316.9,2108z"/>
		<g>
			<path class="st5" d="M1333.4,3390.8v-359.2c0-2.7-1.1-5.2-2.9-7.1l-298.3-298.3c-22.7-22.7-49.2-40.4-78.9-52.7
				c-29.7-12.3-61-18.5-93.1-18.5H705.5c-51.1,0-100.7-10-147.4-29.8c-45.1-19.1-85.6-46.4-120.4-81.1
				c-34.8-34.8-62.1-75.3-81.1-120.4c-19.7-46.7-29.8-96.3-29.8-147.4v-163.7l152-127.4c21.5-18,48.7-27.9,76.8-27.9h631.7
				c5.5,0,10-4.5,10-10v-259.1c0-56.5,15.8-111.6,45.7-159.5c29.9-47.9,72.6-86.3,123.3-111l115.7-56.4c16.5-8,34.1-12.1,52.3-12.1
				c46.5,0,89.2,27.3,108.7,69.5l35,75.9c19.5,42.3,50.5,77.9,89.7,103c39.2,25.1,84.5,38.4,131.1,38.4h676.5
				c29.5,0,58.2,5.7,85.4,17c27.2,11.3,51.6,27.5,72.4,48.4l99.2,99.2c22.7,22.7,49.2,40.4,78.9,52.7c29.7,12.3,61,18.5,93.1,18.5
				h522.6c51.1,0,100.7,10,147.4,29.8c45.1,19.1,85.6,46.4,120.4,81.1c34.8,34.8,62.1,75.3,81.1,120.4
				c19.7,46.7,29.8,96.3,29.8,147.4c0,27.4-10.7,53.2-30,72.5l-168.2,168.2c-20.8,20.8-45.2,37.1-72.4,48.4s-55.9,17-85.4,17h-714.3
				c-5.5,0-10,4.5-10,10v442.1c0,58.1-22.2,113.2-62.6,155L2655,3275.2c-35.5,36.8-77.4,65.6-124.4,85.6
				c-47.1,20-96.9,30.1-148,30.1H1333.4z"/>
			<g>
				<path class="st6" d="M1534.4,1359.4c20.6,0,40.8,5.8,58.4,16.8c18,11.3,32.2,27.5,41.2,46.9l35,75.9
					c20.3,44,52.6,81.1,93.4,107.2c40.8,26.1,88,39.9,136.5,39.9h676.5c28.1,0,55.6,5.5,81.6,16.2c26,10.8,49.3,26.3,69.2,46.2
					l99.2,99.2c23.6,23.6,51.3,42.1,82.1,54.9c30.9,12.8,63.5,19.3,96.9,19.3h522.6c49.8,0,98,9.7,143.5,29
					c43.9,18.6,83.3,45.1,117.2,79c33.9,33.9,60.4,73.3,79,117.2c19.2,45.4,29,93.7,29,143.5c0,12.2-2.4,24.1-7,35.4
					c-4.7,11.3-11.4,21.4-20.1,30l-168.2,168.2c-19.9,19.9-43.2,35.4-69.2,46.2c-26,10.8-53.4,16.2-81.6,16.2h-714.3
					c-11,0-20,9-20,20v442.1c0,27.5-5.2,54.3-15.5,79.8c-10.3,25.5-25.2,48.4-44.3,68.2l-107.6,111.5
					c-34.6,35.8-75.3,63.8-121.2,83.3c-45.8,19.5-94.3,29.3-144.1,29.3H1343.4v-349.2c0-5.3-2.1-10.4-5.9-14.1l-298.3-298.3
					c-23.6-23.6-51.3-42.1-82.1-54.9c-30.9-12.8-63.5-19.3-96.9-19.3H705.5c-49.8,0-98-9.7-143.5-29c-43.9-18.6-83.3-45.1-117.2-79
					c-33.9-33.9-60.4-73.3-79-117.2c-19.2-45.4-29-93.7-29-143.5v-159.1L485.4,1993c19.7-16.5,44.7-25.6,70.3-25.6h631.7
					c11,0,20-9,20-20v-259.1c0-54.6,15.3-107.9,44.2-154.2c28.9-46.3,70.2-83.4,119.2-107.3l115.7-56.4
					C1501.7,1363.1,1517.8,1359.4,1534.4,1359.4 M1534.4,1339.4c-19,0-38.4,4.2-56.7,13.1l-115.7,56.4
					c-106.9,52.1-174.7,160.6-174.7,279.5v259.1H555.7c-30.4,0-59.9,10.7-83.2,30.2L316.9,2108v168.4c0,214.6,174,388.6,388.6,388.6
					h154.7c61.8,0,121.1,24.6,164.9,68.3l298.3,298.3v369.2h1059.1c105.5,0,206.4-42.9,279.6-118.7l107.6-111.5
					c42-43.5,65.4-101.5,65.4-161.9v-442.1h714.3c61.8,0,121.1-24.6,164.9-68.3l168.2-168.2c21.1-21.1,33-49.8,33-79.6v0
					c0-214.6-174-388.6-388.6-388.6h-522.6c-61.8,0-121.1-24.6-164.9-68.3l-99.2-99.2c-43.7-43.7-103-68.3-164.9-68.3h-676.5
					c-91,0-173.7-52.9-211.8-135.6l-35-75.9C1630.3,1367.2,1583.4,1339.4,1534.4,1339.4L1534.4,1339.4z"/>
			</g>
		</g>
		<polygon class="st4" points="1633,3618.5 1793.7,3737.6 1793.7,3574.4 1739.3,3437.1 1664.1,3522.6 		"/>
		<polygon class="st2" points="2037.2,3737.6 2011.3,3553.7 2104.6,3618.5 		"/>
		<polygon class="st2" points="3814.5,2504.4 3941.5,2672.8 3894.8,2722.1 3747.1,2714.3 		"/>
		<polygon class="st3" points="3814.5,2504.4 3894.8,2722.1 3747.1,2714.3 		"/>
		<line class="st7" x1="648.5" y1="2222" x2="765.1" y2="2222"/>
		<line class="st7" x1="765.1" y1="2351.6" x2="835.1" y2="2351.6"/>
		<line class="st7" x1="1278.1" y1="2157.3" x2="1335.1" y2="2157.3"/>
		<line class="st7" x1="1374" y1="1960.4" x2="1480.2" y2="1960.4"/>
		<line class="st7" x1="1542.4" y1="2545.9" x2="1633" y2="2545.9"/>
		<line class="st7" x1="1542.4" y1="3139.2" x2="1677.1" y2="3139.2"/>
		<line class="st7" x1="1902.5" y1="2895.6" x2="2011.3" y2="2895.6"/>
		<line class="st7" x1="2057.9" y1="2988.9" x2="2117.5" y2="2988.9"/>
		<line class="st7" x1="2542.4" y1="2416.3" x2="2402.5" y2="2416.3"/>
		<line class="st7" x1="2542.4" y1="2693.6" x2="2586.5" y2="2693.6"/>
		<line class="st7" x1="2511.3" y1="2810.1" x2="2402.5" y2="2810.1"/>
		<line class="st7" x1="2210.8" y1="1833.4" x2="2285.9" y2="1833.4"/>
		<line class="st7" x1="2210.8" y1="1947.4" x2="2104.6" y2="1947.4"/>
		<line class="st7" x1="2861.1" y1="2082.1" x2="2907.7" y2="2082.1"/>
		<line class="st7" x1="2936.2" y1="2183.2" x2="3032.1" y2="2183.2"/>
		<line class="st7" x1="3571" y1="2082.1" x2="3482.9" y2="2082.1"/>
		<line class="st7" x1="3526.9" y1="2206.5" x2="3415.5" y2="2206.5"/>
		<line class="st7" x1="3254.9" y1="2377.5" x2="3343" y2="2377.5"/>
		<line class="st7" x1="1480.2" y1="1644.3" x2="1542.4" y2="1644.3"/>
		<line class="st7" x1="1651.2" y1="1706.5" x2="1589" y2="1706.5"/>
		<g>
			<polygon class="st4" points="1894.8,1541.3 1850.4,1541.3 1648,1980.3 1810.2,1980.4 1810.3,1980.3 1810.2,1980.3 			"/>
			<polygon class="st8" points="1894.8,1541.2 1928.9,1489.2 1926.7,1375.7 1926.7,1375.7 1926.6,1376 1850.4,1541.3 1894.8,1541.3 
							"/>
			<polygon class="st2" points="2022.8,1980.4 2205.5,1980.3 2022.8,1980.3 			"/>
			<polygon class="st3" points="1994.7,1701.6 1931.3,1617.8 1929,1489.7 1929,1489.6 1928.9,1489.2 1928.9,1489.2 1928.9,1489.2 
				1894.8,1541.3 1810.3,1980.3 2022.8,1980.3 			"/>
			<polygon class="st3" points="2205.5,1980.3 2007.1,1549.9 2007,1549.9 2007.1,1550 			"/>
			<polygon class="st3" points="1894.8,1541.3 1894.8,1541.3 1810.2,1980.3 1810.3,1980.3 1894.8,1541.3 			"/>
			<polygon class="st3" points="1894.8,1541.3 1894.8,1541.3 1894.8,1541.3 1928.9,1489.2 1928.9,1489.2 1894.8,1541.2 			"/>
			<polygon class="st2" points="1929,1489.7 1931.3,1617.8 1994.7,1701.6 2022.8,1980.3 2205.5,1980.3 2007.1,1550 			"/>
			<polygon class="st5" points="2007,1549.9 1926.7,1375.7 1929,1489.6 1929,1489.6 			"/>
			<polygon class="st5" points="2007.1,1550 2007,1549.9 1929,1489.6 1929,1489.6 1929,1489.7 			"/>
		</g>
		<g>
			<polygon class="st2" points="1815.9,1816.8 1740.7,1816.8 1740.7,2017.8 1967.5,2017.8 			"/>
			<polygon class="st4" points="1665.5,1816.8 1514,2017.8 1740.7,2017.8 1740.7,1816.8 			"/>
			<polygon class="st5" points="1815.9,1816.8 1740.7,1717.1 1740.7,1816.8 			"/>
			<polygon class="st8" points="1740.7,1717.1 1665.5,1816.8 1740.7,1816.8 			"/>
		</g>
		<polygon class="st9" points="1398.3,1850.8 1271,1850.8 1307.7,1787.2 1286.4,1787.2 1314.9,1737.9 1295.6,1737.9 1334.6,1670.3 
			1373.6,1737.9 1354.3,1737.9 1382.8,1787.2 1361.5,1787.2 		"/>
		<polygon class="st9" points="1583,1578.6 1502.2,1578.6 1522.4,1523.7 1512.2,1523.7 1542.6,1441.2 1573,1523.7 1562.8,1523.7 		
			"/>
		<polygon class="st10" points="1499.6,1619.1 1539.9,1619.1 1499.6,1509.4 1459.2,1619.1 		"/>
		<g>
			<rect x="2289.2" y="2102.7" class="st4" width="30.4" height="40.5"/>
			<g>
				<polygon class="st11" points="2269.7,2016.9 2237.4,2104.7 2304.7,2104.7 2372,2104.7 2329.8,1990.2 				"/>
				<polygon class="st5" points="2304.7,1921.9 2269.7,2016.9 2329.8,1990.2 				"/>
			</g>
		</g>
		<g>
			<polygon class="st3" points="2461.9,1650.2 2461.9,1692 2281.5,1692 2281.5,1657.2 2339.9,1597 2388.7,1597 			"/>
			<polygon class="st4" points="2371.3,1629.3 2371.3,1661.5 2339.9,1692 2281.5,1692 2281.5,1657.2 2339.9,1597 			"/>
		</g>
		<g>
			<path class="st6" d="M2223.6,1511.4c-1.3,0-2.6,0.1-3.9,0.1c-11.9-41.2-49.9-71.3-94.9-71.3c-52.8,0-96,41.5-98.6,93.7
				c-6.8-3.6-14.6-5.6-22.8-5.6c-27.3,0-49.4,22.1-49.4,49.4c0,0.1,0,0.3,0,0.4h326.8c0.4-2.9,0.7-5.9,0.7-8.9
				C2281.5,1537.3,2255.6,1511.4,2223.6,1511.4z"/>
		</g>
		<g>
			<path class="st6" d="M1832.3,1319c-0.7,0-1.5,0-2.2,0.1c-6.8-23.6-28.5-40.8-54.3-40.8c-30.2,0-54.9,23.7-56.4,53.6
				c-3.9-2-8.3-3.2-13-3.2c-15.6,0-28.2,12.6-28.2,28.2c0,0.1,0,0.2,0,0.3H1865c0.3-1.7,0.4-3.4,0.4-5.1
				C1865.3,1333.8,1850.5,1319,1832.3,1319z"/>
		</g>
	</g>
	<g id="base_x5F_pack1">
		<g>
			<g>
				<polygon class="st3" points="2248.7,1697.4 2248.7,1697.4 2075,2047.5 2306.1,2047.5 2306.2,2046.2 				"/>
				<polygon class="st2" points="2248.7,1697.4 2306.2,2046.2 2306.1,2047.5 2422.5,2047.5 				"/>
			</g>
			<polygon class="st8" points="2204.8,1785.9 2235,1785.9 2273.4,1847 2248.7,1697.3 			"/>
			<polygon class="st5" points="2248.7,1697.3 2273.3,1846.4 2322.9,1846.4 			"/>
		</g>
		<g>
			<g>
				<g>
					<polygon class="st2" points="839.9,1931.2 839.5,1931.2 839.5,2093.1 606.4,2093.1 606.4,1930.9 682,1930.9 760.8,1854.2 					
						"/>
					<rect x="482" y="1930.9" class="st4" width="199.8" height="162.1"/>
					<rect x="733.4" y="1984.9" class="st3" width="69.4" height="108.2"/>
					<rect x="747.9" y="2000.9" class="st12" width="40.3" height="92"/>
					<rect x="473.5" y="2044.6" class="st3" width="208.2" height="16.1"/>
					<rect x="473.5" y="2076.9" class="st3" width="208.2" height="16.1"/>
					<rect x="473.5" y="2012.4" class="st3" width="208.2" height="16.1"/>
					<rect x="473.5" y="1980.1" class="st3" width="208.2" height="16.1"/>
					<rect x="473.5" y="1946.2" class="st3" width="208.2" height="16.1"/>
					<rect x="672" y="1946.2" class="st2" width="21" height="16.1"/>
					<rect x="672" y="1980.1" class="st2" width="21" height="16.1"/>
					<rect x="672" y="2012.4" class="st2" width="21" height="16.1"/>
					<rect x="672" y="2044.6" class="st2" width="21" height="16.1"/>
					<rect x="672" y="2076.9" class="st2" width="21" height="16.1"/>
					<path class="st4" d="M685.3,1948.2l-13.6-13.8l95.6-93.8l87,85.4c0.1,5.3,0.1,8.3,0.1,13.7l0,0c-5.3,0.1-8.3,0.1-13.7,0.1
						l-73.5-72.1L685.3,1948.2z"/>
					<polygon class="st4" points="685.3,1948.5 470.3,1947.8 470.3,1931.7 610.7,1865.5 760.6,1854 					"/>
					<polygon class="st5" points="604.5,1841.3 767,1840.6 677.7,1931.7 467.7,1931.7 					"/>
					<rect x="518.7" y="1931.7" class="st5" width="9.7" height="35.5"/>
					<rect x="568.7" y="1931.7" class="st5" width="12.9" height="16.1"/>
					<rect x="605.9" y="1931.7" class="st5" width="9.7" height="29.1"/>
					<rect x="647.8" y="1931.7" class="st5" width="9.7" height="16.1"/>
				</g>
				<rect x="489.6" y="1931.7" class="st5" width="9.7" height="16.1"/>
			</g>
			<rect x="610.8" y="1829.5" class="st2" width="30.5" height="11.3"/>
			<rect x="639.8" y="1829.5" class="st3" width="14.5" height="11.3"/>
			<rect x="610.8" y="1818.2" class="st13" width="30.5" height="11.3"/>
			<rect x="639.8" y="1818.2" class="st2" width="14.5" height="11.3"/>
			<rect x="587" y="1876.5" class="st14" width="47.7" height="25.2"/>
			<polygon class="st4" points="634.7,1901.6 634.7,1876.5 662.5,1876.5 			"/>
			<rect x="748.5" y="1914.9" class="st4" width="39.7" height="39.7"/>
		</g>
		<polygon class="st9" points="2578.5,3226.8 2410.5,3226.8 2459,3142.9 2430.9,3142.9 2468.5,3077.7 2443,3077.7 2494.5,2988.5 
			2546,3077.7 2520.4,3077.7 2558,3142.9 2530,3142.9 		"/>
		<polygon class="st9" points="2373.4,3123.4 2266.8,3123.4 2293.5,3051 2280,3051 2320.1,2942.2 2360.2,3051 2346.7,3051 		"/>
		<polygon class="st10" points="2267,3195.1 2320.3,3195.1 2267,3050.4 2213.7,3195.1 		"/>
		<g>
			<g>
				<g>
					<g>
						<polygon class="st2" points="3375.9,2053.6 3375.4,2053.6 3375.4,2253.8 3087.2,2253.8 3087.2,2053.2 3180.7,2053.2 
							3278.1,1958.3 						"/>
						<rect x="2933.2" y="2053.2" class="st4" width="247.1" height="200.5"/>
						<rect x="3244.2" y="2120" class="st3" width="85.8" height="133.8"/>
						<rect x="3262.2" y="2139.8" class="st12" width="49.9" height="113.8"/>
						<rect x="2922.8" y="2193.9" class="st3" width="257.5" height="20"/>
						<rect x="2922.8" y="2233.8" class="st3" width="257.5" height="20"/>
						<rect x="2922.8" y="2154" class="st3" width="257.5" height="20"/>
						<rect x="2922.8" y="2114" class="st3" width="257.5" height="20"/>
						<rect x="2922.8" y="2072.1" class="st3" width="257.5" height="20"/>
						<rect x="3168.3" y="2072.1" class="st2" width="26" height="20"/>
						<rect x="3168.3" y="2114" class="st2" width="26" height="20"/>
						<rect x="3168.3" y="2154" class="st2" width="26" height="20"/>
						<rect x="3168.3" y="2193.9" class="st2" width="26" height="20"/>
						<rect x="3168.3" y="2233.8" class="st2" width="26" height="20"/>
						<path class="st4" d="M3184.7,2074.7l-16.8-17.1l118.2-116l107.6,105.7c0.1,6.6,0.1,10.3,0.2,16.9l0,0
							c-6.6,0.1-10.3,0.1-16.9,0.2l-90.9-89.2L3184.7,2074.7z"/>
						<polygon class="st4" points="3184.7,2074.9 2918.8,2074.1 2918.8,2054.1 3092.4,1972.3 3277.9,1958.1 						"/>
						<polygon class="st5" points="3084.7,1942.3 3285.8,1941.5 3175.4,2054.1 2915.6,2054.1 						"/>
						<rect x="2978.7" y="2054.1" class="st5" width="12" height="43.9"/>
						<rect x="3040.5" y="2054.1" class="st5" width="16" height="20"/>
						<rect x="3086.5" y="2054.1" class="st5" width="12" height="35.9"/>
						<rect x="3138.4" y="2054.1" class="st5" width="12" height="20"/>
					</g>
					<rect x="2942.7" y="2054.1" class="st5" width="12" height="20"/>
				</g>
				<rect x="3092.6" y="1927.7" class="st2" width="37.8" height="13.9"/>
				<rect x="3128.4" y="1927.7" class="st3" width="17.9" height="13.9"/>
				<rect x="3092.6" y="1913.8" class="st13" width="37.8" height="13.9"/>
				<rect x="3128.4" y="1913.8" class="st2" width="17.9" height="13.9"/>
				<rect x="3063.1" y="1985.9" class="st14" width="59" height="31.1"/>
				<polygon class="st4" points="3122.1,2017 3122.1,1985.9 3156.5,1985.9 				"/>
				<rect x="3262.9" y="2033.4" class="st4" width="49.1" height="49.1"/>
			</g>
			<g>
				<polygon class="st3" points="1243.3,2250.9 1243.3,2284.8 1056.8,2284.8 1056.8,2233.9 1133.1,2167 				"/>
				<polygon class="st4" points="1214.1,2284.8 1214.1,2284.8 1056.8,2284.8 1056.8,2233.9 1133.1,2167 1139.7,2233.9 				"/>
			</g>
			<g>
				<polygon class="st3" points="2107.4,2862.8 2107.4,2914.6 1883.7,2914.6 1883.7,2871.4 1956.1,2796.8 2016.7,2796.8 				"/>
				<polygon class="st4" points="1995,2836.8 1995,2876.8 1956.1,2914.6 1883.7,2914.6 1883.7,2871.4 1956.1,2796.8 				"/>
			</g>
			<g>
				<polygon class="st2" points="2473.3,2550.1 2501.4,2614.9 2587.9,2614.9 2613.8,2571.7 2597.6,2526.3 2521.9,2497.1 				"/>
				<polygon class="st3" points="2473.3,2550.1 2501.4,2614.9 2527.8,2614.9 2527.8,2614.9 2553.3,2567.4 2521.9,2497.1 				"/>
			</g>
			<g>
				<polygon class="st2" points="2767,2208.8 2767,2242.7 2580.4,2242.7 2580.4,2191.8 2656.8,2124.9 				"/>
				<polygon class="st3" points="2737.8,2242.7 2737.8,2242.7 2580.4,2242.7 2580.4,2191.8 2656.8,2124.9 2663.4,2191.8 				"/>
			</g>
			<polygon class="st9" points="1710.9,2647.6 1553.1,2647.6 1598.6,2568.7 1572.3,2568.7 1607.6,2507.5 1583.6,2507.5 1632,2423.7 
				1680.4,2507.5 1656.4,2507.5 1691.7,2568.7 1665.4,2568.7 			"/>
			<polygon class="st10" points="1702.7,2687.8 1752.7,2687.8 1702.7,2551.8 1652.6,2687.8 			"/>
			<polygon class="st11" points="1004.9,2139.5 847.1,2139.5 892.6,2060.7 866.3,2060.7 901.6,1999.5 877.6,1999.5 926,1915.6 
				974.4,1999.5 950.4,1999.5 985.7,2060.7 959.4,2060.7 			"/>
			<polygon class="st11" points="2791.1,2422.1 2841.2,2422.1 2791.1,2286.1 2741,2422.1 			"/>
			<polygon class="st9" points="3564.7,2134.5 3406.9,2134.5 3452.4,2055.7 3426,2055.7 3461.4,1994.5 3437.4,1994.5 3485.8,1910.7 
				3534.2,1994.5 3510.2,1994.5 3545.5,2055.7 3519.1,2055.7 			"/>
			<polygon class="st9" points="2456,2854.1 2355.9,2854.1 2380.9,2786.1 2368.3,2786.1 2405.9,2683.8 2443.6,2786.1 2431,2786.1 
							"/>
			<polygon class="st10" points="2472.9,2888.9 2522.9,2888.9 2472.9,2752.9 2422.8,2888.9 			"/>
		</g>
	</g>
	<g id="base_x5F_pack2">
		<g>
			<g>
				<g>
					<polygon class="st2" points="1218.1,2365.5 1217.6,2365.5 1217.6,2558.6 939.5,2558.6 939.5,2365.1 1029.7,2365.1 
						1123.7,2273.6 					"/>
					<rect x="791" y="2365.1" class="st4" width="238.4" height="193.5"/>
					<rect x="1091" y="2429.6" class="st3" width="82.8" height="129.1"/>
					<rect x="1108.3" y="2448.7" class="st12" width="48.1" height="109.8"/>
					<rect x="780.9" y="2500.9" class="st3" width="248.5" height="19.3"/>
					<rect x="780.9" y="2539.4" class="st3" width="248.5" height="19.3"/>
					<rect x="780.9" y="2462.3" class="st3" width="248.5" height="19.3"/>
					<rect x="780.9" y="2423.8" class="st3" width="248.5" height="19.3"/>
					<rect x="780.9" y="2383.4" class="st3" width="248.5" height="19.3"/>
					<rect x="1017.8" y="2383.4" class="st2" width="25" height="19.3"/>
					<rect x="1017.8" y="2423.8" class="st2" width="25" height="19.3"/>
					<rect x="1017.8" y="2462.3" class="st2" width="25" height="19.3"/>
					<rect x="1017.8" y="2500.9" class="st2" width="25" height="19.3"/>
					<rect x="1017.8" y="2539.4" class="st2" width="25" height="19.3"/>
					<path class="st4" d="M1033.6,2385.8l-16.2-16.5l114-112l103.9,101.9c0.1,6.4,0.1,10,0.2,16.3l0,0c-6.4,0.1-10,0.1-16.3,0.2
						l-87.7-86L1033.6,2385.8z"/>
					<polygon class="st4" points="1033.6,2386.1 777,2385.3 777,2366 944.5,2287.1 1123.5,2273.4 					"/>
					<polygon class="st5" points="937.2,2258.1 1131.1,2257.4 1024.6,2366 774,2366 					"/>
					<rect x="834.8" y="2366" class="st5" width="11.6" height="42.4"/>
					<rect x="894.5" y="2366" class="st5" width="15.4" height="19.3"/>
					<rect x="938.8" y="2366" class="st5" width="11.6" height="34.7"/>
					<rect x="988.9" y="2366" class="st5" width="11.6" height="19.3"/>
				</g>
				<rect x="800.1" y="2366" class="st5" width="11.6" height="19.3"/>
			</g>
			<rect x="944.7" y="2244.1" class="st2" width="36.5" height="13.4"/>
			<rect x="979.3" y="2244.1" class="st3" width="17.3" height="13.4"/>
			<rect x="944.7" y="2230.6" class="st13" width="36.5" height="13.4"/>
			<rect x="979.3" y="2230.6" class="st2" width="17.3" height="13.4"/>
			<rect x="916.3" y="2300.2" class="st14" width="56.9" height="30"/>
			<polygon class="st4" points="973.2,2330.2 973.2,2300.2 1006.3,2300.2 			"/>
			<rect x="1109.1" y="2346" class="st4" width="47.4" height="47.4"/>
		</g>
		<polygon class="st11" points="2737.4,1783.9 2610.1,1783.9 2646.8,1720.3 2625.6,1720.3 2654.1,1671 2634.7,1671 2673.7,1603.4 
			2712.8,1671 2693.4,1671 2721.9,1720.3 2700.7,1720.3 		"/>
		<polygon class="st9" points="722.5,2261.5 556.3,2261.5 604.2,2178.5 576.5,2178.5 613.7,2114 588.4,2114 639.4,2025.8 
			690.3,2114 665,2114 702.3,2178.5 674.5,2178.5 		"/>
		<polygon class="st11" points="2719.1,2705.1 2789.5,2705.1 2719.1,2513.9 2648.7,2705.1 		"/>
		<g>
			<rect x="1575.6" y="3177.6" class="st4" width="15" height="20"/>
			<polygon class="st11" points="1583.8,3178.6 1617,3178.6 1583.8,3088.3 1550.6,3178.6 			"/>
		</g>
		<polygon class="st9" points="2759.7,1824.7 2679,1824.7 2699.2,1769.8 2689,1769.8 2719.4,1687.3 2749.7,1769.8 2739.5,1769.8 		
			"/>
		<polygon class="st10" points="2648.3,2742.1 2699.5,2742.1 2648.3,2603.2 2597.2,2742.1 		"/>
		<g>
			<polygon class="st11" points="964.8,2524.4 931.4,2615.1 1000.9,2615.1 1070.5,2615.1 1026.9,2496.8 			"/>
			<polygon class="st5" points="1000.9,2426.2 964.8,2524.4 1026.9,2496.8 			"/>
		</g>
		<g>
			<polygon class="st9" points="2068.8,2933.5 2051.4,2886.2 2010,2872.5 1987.6,2933.5 2001.2,2933.5 1974.2,3006.8 2082.2,3006.8 
				2055.2,2933.5 			"/>
			<polygon class="st5" points="2028.2,2823.1 2010,2872.5 2051.4,2886.2 			"/>
		</g>
		<g>
			<rect x="648.2" y="2285.3" class="st4" width="27.4" height="36.6"/>
			<g>
				<polygon class="st11" points="630.6,2207.9 601.5,2287.2 662.2,2287.2 723,2287.2 684.9,2183.7 				"/>
				<polygon class="st5" points="662.2,2122.1 630.6,2207.9 684.9,2183.7 				"/>
			</g>
		</g>
		<g>
			<rect x="449.3" y="2126.8" class="st4" width="30.4" height="40.5"/>
			<g>
				<polygon class="st11" points="429.8,2041 397.5,2128.8 464.8,2128.8 532.1,2128.8 489.9,2014.2 				"/>
				<polygon class="st5" points="464.8,1946 429.8,2041 489.9,2014.2 				"/>
			</g>
		</g>
	</g>
	<g id="base_x5F_pack3">
		<g>
			<polygon class="st3" points="2685.1,1899.2 2685.1,1953.7 2630.8,1994.1 2732.9,1994.1 2732.9,1961.8 			"/>
			<polygon class="st4" points="2685.1,1899.2 2614.4,1951.7 2614.4,1994.1 2630.8,1994.1 2685.1,1953.7 			"/>
		</g>
		<g>
			<polygon class="st3" points="2424.4,2348.8 2447.1,2401.1 2516.8,2401.1 2537.7,2366.3 2524.6,2329.6 2463.6,2306.1 			"/>
			<polygon class="st4" points="2424.4,2348.8 2447.1,2401.1 2468.4,2401.1 2468.4,2401.1 2488.9,2362.8 2463.6,2306.1 			"/>
		</g>
		<g>
			<polygon class="st3" points="1549.1,3280.3 1549.1,3322.1 1368.7,3322.1 1368.7,3287.3 1427.1,3227.1 1475.9,3227.1 			"/>
			<polygon class="st4" points="1458.4,3259.4 1458.4,3291.6 1427.1,3322.1 1368.7,3322.1 1368.7,3287.3 1427.1,3227.1 			"/>
		</g>
		<g>
			<polygon class="st3" points="3047.1,2468.8 3047.1,2496.1 2896.7,2496.1 2896.7,2455.1 2958.2,2401.1 			"/>
			<polygon class="st4" points="3023.6,2496.1 3023.6,2496.1 2896.7,2496.1 2896.7,2455.1 2958.2,2401.1 2963.5,2455.1 			"/>
		</g>
		<g>
			<g>
				<g>
					<polygon class="st2" points="1840.7,2715.9 1840.2,2715.9 1840.2,2880.1 1603.8,2880.1 1603.8,2715.6 1680.5,2715.6 
						1760.5,2637.7 					"/>
					<rect x="1477.5" y="2715.6" class="st4" width="202.7" height="164.5"/>
					<rect x="1732.6" y="2770.3" class="st3" width="70.4" height="109.7"/>
					<rect x="1747.4" y="2786.6" class="st12" width="40.9" height="93.3"/>
					<rect x="1468.9" y="2830.9" class="st3" width="211.3" height="16.4"/>
					<rect x="1468.9" y="2863.7" class="st3" width="211.3" height="16.4"/>
					<rect x="1468.9" y="2798.2" class="st3" width="211.3" height="16.4"/>
					<rect x="1468.9" y="2765.4" class="st3" width="211.3" height="16.4"/>
					<rect x="1468.9" y="2731" class="st3" width="211.3" height="16.4"/>
					<rect x="1670.4" y="2731" class="st2" width="21.3" height="16.4"/>
					<rect x="1670.4" y="2765.4" class="st2" width="21.3" height="16.4"/>
					<rect x="1670.4" y="2798.2" class="st2" width="21.3" height="16.4"/>
					<rect x="1670.4" y="2830.9" class="st2" width="21.3" height="16.4"/>
					<rect x="1670.4" y="2863.7" class="st2" width="21.3" height="16.4"/>
					<path class="st4" d="M1683.8,2733.1l-13.8-14l97-95.2l88.3,86.7c0.1,5.4,0.1,8.5,0.1,13.9l0,0c-5.4,0.1-8.5,0.1-13.9,0.1
						l-74.5-73.2L1683.8,2733.1z"/>
					<polygon class="st4" points="1683.9,2733.4 1465.7,2732.7 1465.7,2716.3 1608.1,2649.2 1760.3,2637.5 					"/>
					<polygon class="st5" points="1601.8,2624.6 1766.7,2623.9 1676.2,2716.3 1463.1,2716.3 					"/>
					<rect x="1514.8" y="2716.3" class="st5" width="9.8" height="36"/>
					<rect x="1565.6" y="2716.3" class="st5" width="13.1" height="16.4"/>
					<rect x="1603.2" y="2716.3" class="st5" width="9.8" height="29.5"/>
					<rect x="1645.8" y="2716.3" class="st5" width="9.8" height="16.4"/>
				</g>
				<rect x="1485.3" y="2716.3" class="st5" width="9.8" height="16.4"/>
			</g>
			<rect x="1608.3" y="2612.6" class="st2" width="31" height="11.4"/>
			<rect x="1637.6" y="2612.6" class="st3" width="14.7" height="11.4"/>
			<rect x="1608.3" y="2601.2" class="st13" width="31" height="11.4"/>
			<rect x="1637.6" y="2601.2" class="st2" width="14.7" height="11.4"/>
			<rect x="1584.1" y="2660.3" class="st14" width="48.4" height="25.5"/>
			<polygon class="st4" points="1632.4,2685.8 1632.4,2660.3 1660.7,2660.3 			"/>
			<rect x="1748" y="2699.3" class="st4" width="40.3" height="40.3"/>
		</g>
		<polygon class="st11" points="3803,2286.9 3675.7,2286.9 3712.4,2223.3 3691.1,2223.3 3719.6,2174 3700.3,2174 3739.3,2106.4 
			3778.3,2174 3759,2174 3787.5,2223.3 3766.2,2223.3 		"/>
		<polygon class="st9" points="2254.6,2742.9 2127.3,2742.9 2164,2679.3 2142.8,2679.3 2171.3,2630 2151.9,2630 2190.9,2562.4 
			2230,2630 2210.6,2630 2239.1,2679.3 2217.9,2679.3 		"/>
		<polygon class="st11" points="1306.7,2789.1 1368.5,2789.1 1306.7,2621.2 1244.9,2789.1 		"/>
		<g>
			<rect x="1776.8" y="3223" class="st4" width="24.7" height="32.9"/>
			<polygon class="st11" points="1790.4,3224.6 1845,3224.6 1790.4,3076.1 1735.7,3224.6 			"/>
		</g>
		<polygon class="st9" points="3820.3,2048.7 3739.6,2048.7 3759.7,1993.8 3749.6,1993.8 3779.9,1911.3 3810.3,1993.8 
			3800.1,1993.8 		"/>
		<polygon class="st10" points="3779.9,2322.1 3820.3,2322.1 3779.9,2212.4 3739.5,2322.1 		"/>
		<g>
			<polygon class="st11" points="1293.5,2778.4 1274.1,2831.1 1314.5,2831.1 1354.9,2831.1 1329.6,2762.4 			"/>
			<polygon class="st5" points="1314.5,2721.4 1293.5,2778.4 1329.6,2762.4 			"/>
		</g>
		<g>
			<polygon class="st9" points="2433.1,3360.8 2420.1,3325.5 2389.2,3315.2 2372.4,3360.8 2382.6,3360.8 2362.4,3415.7 
				2443.1,3415.7 2423,3360.8 			"/>
			<polygon class="st5" points="2402.8,3278.3 2389.2,3315.2 2420.1,3325.5 			"/>
		</g>
		<g>
			<rect x="2196.6" y="2790.7" class="st4" width="22" height="29.3"/>
			<g>
				<polygon class="st11" points="2182.5,2728.7 2159.1,2792.2 2207.8,2792.2 2256.5,2792.2 2226,2709.3 				"/>
				<polygon class="st5" points="2207.8,2660 2182.5,2728.7 2226,2709.3 				"/>
			</g>
		</g>
	</g>
</g>
<g id="opt1">
	<g id="opt1_1_">
		<path class="st3" d="M1512.7,2395.1l-93.3-106.4h-95.5l-58.6-67.3v-104.2l-21.7-26h-15.2c-71.9,0-130.2-58.3-130.2-130.2v-236.6
			h529.6l-28.2,497L1512.7,2395.1z"/>
		<g>
			<path class="st5" d="M1604.7,2211.5l-207.5-295.3c-1.9-2.7-4.9-4.2-8.2-4.2h-94.4c-36.8,0-72-10.3-101.7-29.9
				c-27.9-18.3-50.4-44.3-65.2-74.9c-14.8-30.7-21-64.5-18.1-97.7c3.2-35.4,17-69.4,39.9-98.2l121.8-153.3
				c37.1-46.7,79.5-89.2,126.1-126.3c46-36.7,96.2-68.3,149.3-93.8c53-25.6,109-45.3,166.3-58.5c58.1-13.4,117.7-20.1,177.4-20.1
				h375.4c78.5,0,152.3,30.6,207.8,86.1c55.5,55.5,86.1,129.3,86.1,207.8v367.1l-378.4,391.2H1604.7z"/>
			<path class="st6" d="M2265.8,1169.3c38.3,0,75.5,7.5,110.5,22.3c33.8,14.3,64.2,34.8,90.2,60.8c26.1,26.1,46.5,56.4,60.8,90.2
				c14.8,35,22.3,72.2,22.3,110.5v363.1L2177,2201.5h-567.1l-204.6-291c-3.7-5.3-9.8-8.5-16.4-8.5h-94.4c-34.9,0-68.1-9.8-96.2-28.2
				c-26.4-17.4-47.7-41.9-61.7-70.9s-19.9-61-17.1-92.5c3-33.5,16.1-65.6,37.8-92.9l121.8-153.3c36.6-46.1,78.5-88,124.5-124.7
				c45.4-36.2,95-67.4,147.4-92.7c52.4-25.3,107.6-44.7,164.2-57.7c57.3-13.2,116.2-19.9,175.1-19.9H2265.8 M2265.8,1149.3h-375.4
				c-244.2,0-475,111.4-626.9,302.5l-121.8,153.3c-101.8,128-10.6,316.9,152.9,316.9h94.4l210.5,299.5h586l384.2-397.2v-371.1
				C2569.7,1285.3,2433.6,1149.3,2265.8,1149.3L2265.8,1149.3z"/>
		</g>
		<polygon class="st3" points="1599.5,2221.5 1512.7,2395.1 2320.1,2395.1 2185.5,2221.5 		"/>
		<polygon class="st2" points="2569.7,1824.3 2569.7,2026.1 2454.6,2154.2 2454.6,2251.9 2320.1,2395.1 2185.5,2221.5 		"/>
		<polygon class="st4" points="1243.5,2091.2 1388.9,1922 1599.5,2221.5 1512.7,2395.1 1421.5,2288.8 1421.5,2191.1 1323.8,2288.8 
			1265.2,2221.5 1265.2,2117.3 		"/>
		<g>
			<g>
				<polygon class="st4" points="1822.4,919.5 1771.2,919.5 1537.9,1425.7 1724.9,1425.8 1724.9,1425.7 1724.9,1425.7 				"/>
				<polygon class="st8" points="1822.4,919.4 1861.7,859.4 1859.2,728.6 1859.2,728.6 1859,729 1771.2,919.5 1822.4,919.5 				"/>
				<polygon class="st2" points="1970,1425.8 2180.6,1425.7 1970,1425.7 				"/>
				<polygon class="st3" points="1937.6,1104.3 1864.4,1007.7 1861.8,860.1 1861.8,860 1861.7,859.4 1861.7,859.4 1861.7,859.5 
					1822.4,919.5 1724.9,1425.7 1970,1425.7 				"/>
				<polygon class="st3" points="2180.6,1425.7 1951.8,929.4 1951.8,929.4 1951.8,929.5 				"/>
				<polygon class="st3" points="1822.4,919.5 1822.4,919.5 1724.9,1425.7 1724.9,1425.7 1822.4,919.5 				"/>
				<polygon class="st3" points="1822.4,919.5 1822.4,919.5 1822.4,919.5 1861.7,859.5 1861.7,859.4 1822.4,919.4 				"/>
				<polygon class="st2" points="1861.8,860.1 1864.4,1007.7 1937.6,1104.3 1970,1425.7 2180.6,1425.7 1951.8,929.5 				"/>
				<polygon class="st5" points="1951.8,929.4 1859.2,728.6 1861.8,860 1861.8,860 				"/>
				<polygon class="st5" points="1951.8,929.5 1951.8,929.4 1861.8,860 1861.8,860 1861.8,860.1 				"/>
			</g>
			<g>
				<g>
					<polygon class="st3" points="2184.8,1070.1 2184.8,1070 1930.7,1582 2268.7,1582 2268.8,1580 					"/>
					<polygon class="st2" points="2184.8,1070.1 2268.8,1580 2268.7,1582 2438.8,1582 					"/>
				</g>
				<polygon class="st8" points="2120.6,1199.4 2164.8,1199.4 2220.8,1288.7 2184.8,1069.9 				"/>
				<polygon class="st5" points="2184.8,1069.9 2220.8,1287.9 2293.3,1287.9 				"/>
			</g>
			<g>
				<polygon class="st2" points="1735.8,1220.8 1641.2,1220.8 1641.2,1473.5 1926.4,1473.5 				"/>
				<polygon class="st4" points="1546.7,1220.8 1356.1,1473.5 1641.2,1473.5 1641.2,1220.8 				"/>
				<polygon class="st5" points="1735.8,1220.8 1641.2,1095.4 1641.2,1220.8 				"/>
				<polygon class="st8" points="1641.2,1095.4 1546.7,1220.8 1641.2,1220.8 				"/>
			</g>
			<g>
				<path class="st6" d="M1525.7,1292.3c-1.8,0-3.6,0.1-5.4,0.2c-16.6-57.4-69.4-99.3-132.1-99.3c-73.6,0-133.7,57.8-137.3,130.4
					c-9.5-5-20.3-7.8-31.8-7.8c-38,0-68.8,30.8-68.8,68.8c0,0.2,0,0.4,0,0.6h455c0.6-4,1-8.2,1-12.4
					C1606.2,1328.3,1570.1,1292.3,1525.7,1292.3z"/>
			</g>
			<g>
				<path class="st5" d="M2376.4,948.2c-2.4,0-4.7,0.1-7,0.3c-21.5-74.4-90.1-128.9-171.5-128.9c-95.5,0-173.5,75-178.3,169.3
					c-12.3-6.4-26.4-10.1-41.2-10.1c-49.3,0-89.2,40-89.2,89.2c0,0.3,0,0.5,0,0.8h590.5c0.8-5.2,1.2-10.6,1.2-16.1
					C2480.9,995,2434.1,948.2,2376.4,948.2z"/>
			</g>
			<g>
				<polygon class="st3" points="1351.3,1662.4 1379.4,1727.3 1465.9,1727.3 1491.8,1684 1475.6,1638.7 1400,1609.5 				"/>
				<polygon class="st4" points="1351.3,1662.4 1379.4,1727.3 1405.8,1727.3 1405.9,1727.2 1431.3,1679.7 1400,1609.5 				"/>
			</g>
			<g>
				<polygon class="st9" points="1824.8,1478.6 1807.2,1430.5 1765.1,1416.7 1742.3,1478.6 1756.2,1478.6 1728.7,1553 1838.4,1553 
					1811,1478.6 				"/>
				<polygon class="st5" points="1783.6,1366.5 1765.1,1416.7 1807.2,1430.5 				"/>
			</g>
			<g>
				<polygon class="st11" points="1815.8,1487.1 1791.8,1552.5 1841.9,1552.5 1891.9,1552.5 1860.5,1467.2 				"/>
				<polygon class="st5" points="1841.9,1416.4 1815.8,1487.1 1860.5,1467.2 				"/>
			</g>
			<g>
				<polygon class="st9" points="2358.7,1592.2 2333.2,1523.1 2272.8,1503.2 2240,1592.2 2259.9,1592.2 2220.4,1699.3 
					2378.2,1699.3 2338.8,1592.2 				"/>
				<polygon class="st5" points="2299.3,1431 2272.8,1503.2 2333.2,1523.1 				"/>
			</g>
			<g>
				<polygon class="st11" points="2199.1,1677.8 2162.7,1776.8 2238.6,1776.8 2314.5,1776.8 2266.9,1647.6 				"/>
				<polygon class="st5" points="2238.6,1570.7 2199.1,1677.8 2266.9,1647.6 				"/>
			</g>
		</g>
	</g>
	<g id="opt1_x5F_pack1">
		<g>
			<g>
				<g>
					<rect x="1942.9" y="2202.4" class="st15" width="166.8" height="300.5"/>
					<rect x="1978.9" y="2295.5" class="st16" width="16.5" height="166.8"/>
					<rect x="2028.5" y="2257.9" class="st16" width="16.5" height="73.6"/>
					<rect x="2069.1" y="2324" class="st16" width="16.5" height="166.8"/>
					<rect x="2069.1" y="2215.9" class="st16" width="16.5" height="21"/>
					<rect x="2028.5" y="2405.2" class="st16" width="16.5" height="21"/>
					<rect x="1978.9" y="2279" class="st3" width="16.5" height="16.5"/>
				</g>
				<path class="st15" d="M2268.9,2010v50.5c0,12.8-5.5,25-15,33.6l-35.7,32c-13.8,12.3-31.6,19.2-50.1,19.2h-58.4v57.1h-166.8V2146
					c0-6.2-2.6-12.1-7.1-16.4l-92.4-87.3c-5.6-5.3-13-8.2-20.6-8.2h-123.3l-69.3-92.4l-7.3-9.8c-11.1-14.9-0.5-36.1,18-36.1h434.2
					l0.9,1.3l74.3,112.9H2268.9z"/>
				<path class="st3" d="M2076.6,1895.9l-0.6,1.3l-21.9,44.5h-423.8l-7.3-9.8c-11.1-14.9-0.5-36.1,18-36.1H2076.6z"/>
				<polygon class="st4" points="2076.6,1895.9 2150.2,2010 2129.2,2055.1 2054,1942.4 				"/>
				<polygon class="st3" points="2150.2,2010 2268.9,2010 2268.9,2055.1 2129.2,2055.1 				"/>
			</g>
			<rect x="1942.9" y="2153.5" class="st16" width="166.8" height="57.7"/>
		</g>
		<g>
			<path class="st17" d="M2251.6,2434c-1.5,0-3.1,0.1-4.6,0.2c-14.1-48.9-59.2-84.7-112.7-84.7c-62.7,0-114,49.3-117.1,111.2
				c-8.1-4.2-17.3-6.6-27.1-6.6c-32.4,0-58.6,26.2-58.6,58.6c0,0.2,0,0.4,0,0.5h387.9c0.5-3.4,0.8-7,0.8-10.6
				C2320.3,2464.8,2289.5,2434,2251.6,2434z"/>
		</g>
		<g>
			<polygon class="st3" points="1840.5,1965.7 1840.5,2039.8 1520.9,2039.8 1520.9,1978.1 1624.3,1871.5 1710.8,1871.5 			"/>
			<polygon class="st4" points="1679.9,1928.7 1679.9,1985.8 1624.3,2039.8 1520.9,2039.8 1520.9,1978.1 1624.3,1871.5 			"/>
		</g>
		<polygon class="st9" points="1355.7,1575.5 1228.4,1575.5 1265.2,1511.9 1243.9,1511.9 1272.4,1462.5 1253.1,1462.5 
			1292.1,1394.9 1331.1,1462.5 1311.8,1462.5 1340.3,1511.9 1319,1511.9 		"/>
		<polygon class="st9" points="2249.5,1987.8 2161.6,1987.8 2187,1944 2172.3,1944 2192,1909.9 2178.6,1909.9 2205.6,1863.3 
			2232.5,1909.9 2219.1,1909.9 2238.8,1944 2224.1,1944 		"/>
		<polygon class="st10" points="2406.2,1836.1 2461.5,1836.1 2406.2,1685.9 2350.9,1836.1 		"/>
		<g>
			<rect x="2042.5" y="1623.5" class="st4" width="30.4" height="40.5"/>
			<g>
				<polygon class="st11" points="2023,1537.7 1990.7,1625.5 2058,1625.5 2125.3,1625.5 2083.1,1510.9 				"/>
				<polygon class="st5" points="2058,1442.7 2023,1537.7 2083.1,1510.9 				"/>
			</g>
		</g>
	</g>
	<g id="opt1_x5F_pack2">
		<g>
			<g>
				<g>
					<polygon class="st2" points="1873.1,1653 1872.8,1653 1872.8,1767.5 1708,1767.5 1708,1652.8 1761.4,1652.8 1817.1,1598.6 
											"/>
					<rect x="1619.9" y="1652.8" class="st4" width="141.3" height="114.7"/>
					<rect x="1797.7" y="1691" class="st3" width="49.1" height="76.5"/>
					<rect x="1808" y="1702.3" class="st12" width="28.5" height="65.1"/>
					<rect x="1613.9" y="1733.3" class="st3" width="147.3" height="11.4"/>
					<rect x="1613.9" y="1756.1" class="st3" width="147.3" height="11.4"/>
					<rect x="1613.9" y="1710.4" class="st3" width="147.3" height="11.4"/>
					<rect x="1613.9" y="1687.6" class="st3" width="147.3" height="11.4"/>
					<rect x="1613.9" y="1663.6" class="st3" width="147.3" height="11.4"/>
					<rect x="1754.4" y="1663.6" class="st2" width="14.8" height="11.4"/>
					<rect x="1754.4" y="1687.6" class="st2" width="14.8" height="11.4"/>
					<rect x="1754.4" y="1710.4" class="st2" width="14.8" height="11.4"/>
					<rect x="1754.4" y="1733.3" class="st2" width="14.8" height="11.4"/>
					<rect x="1754.4" y="1756.1" class="st2" width="14.8" height="11.4"/>
					<path class="st4" d="M1763.7,1665.1l-9.6-9.8l67.6-66.4l61.6,60.4c0,3.8,0.1,5.9,0.1,9.7l0,0c-3.8,0-5.9,0.1-9.7,0.1l-52-51
						L1763.7,1665.1z"/>
					<polygon class="st4" points="1763.8,1665.2 1611.6,1664.8 1611.6,1653.4 1710.9,1606.6 1817,1598.4 					"/>
					<polygon class="st5" points="1706.6,1589.4 1821.5,1589 1758.4,1653.4 1609.8,1653.4 					"/>
					<rect x="1645.9" y="1653.4" class="st5" width="6.9" height="25.1"/>
					<rect x="1681.3" y="1653.4" class="st5" width="9.1" height="11.4"/>
					<rect x="1707.5" y="1653.4" class="st5" width="6.9" height="20.6"/>
					<rect x="1737.2" y="1653.4" class="st5" width="6.9" height="11.4"/>
				</g>
				<rect x="1625.3" y="1653.4" class="st5" width="6.9" height="11.4"/>
			</g>
			<rect x="1711.1" y="1581.1" class="st2" width="21.6" height="8"/>
			<rect x="1731.5" y="1581.1" class="st3" width="10.2" height="8"/>
			<rect x="1711.1" y="1573.1" class="st13" width="21.6" height="8"/>
			<rect x="1731.5" y="1573.1" class="st2" width="10.2" height="8"/>
			<rect x="1694.2" y="1614.3" class="st14" width="33.7" height="17.8"/>
			<polygon class="st4" points="1727.9,1632.1 1727.9,1614.3 1747.6,1614.3 			"/>
			<rect x="1808.4" y="1641.5" class="st4" width="28.1" height="28.1"/>
		</g>
		<g>
			<rect x="1623.1" y="1809.2" class="st4" width="20.3" height="27"/>
			<g>
				<polygon class="st11" points="1610.1,1751.9 1588.6,1810.5 1633.5,1810.5 1678.5,1810.5 1650.3,1734 				"/>
				<polygon class="st5" points="1633.5,1688.4 1610.1,1751.9 1650.3,1734 				"/>
			</g>
		</g>
	</g>
</g>
<g id="opt2">
	<g id="opt2_1_">
		<path class="st3" d="M3055.5,2405.2l-54.8-62.4h-56l-34.4-39.5v-61.1l-12.7-15.3h-8.9c-42.2,0-76.4-34.2-76.4-76.4v-138.8H3123
			l-16.6,291.7L3055.5,2405.2z"/>
		<g>
			<path class="st5" d="M3111.6,2293.3l-120.6-171.5c-1.9-2.7-4.9-4.2-8.2-4.2h-55.4c-20.8,0-40.7-5.8-57.4-16.8
				c-15.7-10.4-28.5-25-36.8-42.3s-11.9-36.4-10.2-55.2c1.8-20,9.6-39.1,22.5-55.4l71.5-89.9c42.8-53.9,98.2-98.1,160.2-128
				c62-29.9,131.1-45.7,199.9-45.7h220.3c92.8,0,168.3,75.5,168.3,168.3v213.7l-219.7,227.1H3111.6z"/>
			<path class="st6" d="M3497.4,1694.1c42.3,0,82,16.5,111.9,46.4c29.9,29.9,46.4,69.7,46.4,111.9v209.7l-213.9,221.2h-325
				L2999.2,2116c-3.7-5.3-9.8-8.5-16.4-8.5h-55.4c-19.1,0-36.6-5.1-51.9-15.2c-14.2-9.4-25.7-22.6-33.3-38.3
				c-7.6-15.7-10.8-33-9.2-49.9c1.6-18.3,8.5-35.1,20.4-50.1l71.5-89.9c21.1-26.6,45.3-50.7,71.8-71.9
				c26.2-20.9,54.8-38.8,84.9-53.4c30.2-14.6,62-25.7,94.6-33.3c33-7.6,67-11.5,100.9-11.5H3497.4 M3497.4,1674.1h-220.3
				c-143.3,0-278.7,65.4-367.9,177.5l-71.5,89.9c-59.7,75.1-6.2,186,89.7,186h55.4l123.5,175.8h343.9l225.4-233.1v-217.8
				C3675.7,1753.9,3595.9,1674.1,3497.4,1674.1L3497.4,1674.1z"/>
		</g>
		<polygon class="st3" points="3106.4,2303.3 3055.5,2405.2 3529.3,2405.2 3450.3,2303.3 		"/>
		<polygon class="st2" points="3675.7,2070.2 3675.7,2188.6 3608.2,2263.8 3608.2,2321.1 3529.3,2405.2 3450.3,2303.3 		"/>
		<polygon class="st4" points="2897.5,2226.9 2982.9,2127.5 3106.4,2303.3 3055.5,2405.2 3002,2342.8 3002,2285.4 2944.7,2342.8 
			2910.3,2303.3 2910.3,2242.1 		"/>
		<g>
			<g>
				<polygon class="st4" points="3257.2,1445.9 3213.5,1445.9 3014.3,1878.1 3173.9,1878.2 3174,1878.1 3173.9,1878.1 				"/>
				<polygon class="st8" points="3257.2,1445.8 3290.7,1394.6 3288.6,1282.9 3288.6,1282.9 3288.5,1283.2 3213.5,1445.9 
					3257.2,1445.9 				"/>
				<polygon class="st2" points="3383.2,1878.2 3563.1,1878.1 3383.2,1878.1 				"/>
				<polygon class="st3" points="3355.6,1603.7 3293.1,1521.2 3290.9,1395.1 3290.9,1395 3290.7,1394.5 3290.7,1394.6 
					3290.7,1394.6 3257.2,1445.9 3174,1878.1 3383.2,1878.1 				"/>
				<polygon class="st3" points="3563.1,1878.1 3367.7,1454.4 3367.7,1454.3 3367.7,1454.4 				"/>
				<polygon class="st3" points="3257.2,1445.9 3257.2,1445.9 3173.9,1878.1 3174,1878.1 3257.2,1445.9 				"/>
				<polygon class="st3" points="3257.2,1445.9 3257.2,1445.9 3257.2,1445.9 3290.7,1394.6 3290.7,1394.6 3257.2,1445.8 				"/>
				<polygon class="st2" points="3290.9,1395.1 3293.1,1521.2 3355.6,1603.7 3383.2,1878.1 3563.1,1878.1 3367.7,1454.4 				"/>
				<polygon class="st5" points="3367.7,1454.3 3288.6,1282.9 3290.9,1395 3290.9,1395 				"/>
				<polygon class="st5" points="3367.7,1454.4 3367.7,1454.3 3290.9,1395 3290.9,1395 3290.9,1395.1 				"/>
			</g>
			<g>
				<g>
					<polygon class="st3" points="3473.4,1617.6 3473.3,1617.5 3301.2,1964.4 3530.2,1964.4 3530.3,1963 					"/>
					<polygon class="st2" points="3473.4,1617.6 3530.3,1963 3530.2,1964.4 3645.5,1964.4 					"/>
				</g>
				<polygon class="st8" points="3429.8,1705.2 3459.8,1705.2 3497.7,1765.7 3473.3,1617.4 				"/>
				<polygon class="st5" points="3473.3,1617.4 3497.7,1765.2 3546.9,1765.2 				"/>
			</g>
			<g>
				<path class="st6" d="M3560.8,1562.4c-1.3,0-2.5,0.1-3.7,0.1c-11.5-39.8-48.1-68.8-91.6-68.8c-51,0-92.6,40.1-95.2,90.4
					c-6.6-3.4-14.1-5.4-22-5.4c-26.3,0-47.7,21.3-47.7,47.7c0,0.1,0,0.3,0,0.4H3616c0.4-2.8,0.7-5.7,0.7-8.6
					C3616.7,1587.4,3591.7,1562.4,3560.8,1562.4z"/>
			</g>
			<g>
				<path class="st5" d="M3138.7,1362.1c-1.3,0-2.5,0.1-3.7,0.1c-11.5-39.8-48.1-68.8-91.6-68.8c-51,0-92.6,40.1-95.2,90.4
					c-6.6-3.4-14.1-5.4-22-5.4c-26.3,0-47.7,21.3-47.7,47.7c0,0.1,0,0.3,0,0.4h315.4c0.4-2.8,0.7-5.7,0.7-8.6
					C3194.5,1387.1,3169.5,1362.1,3138.7,1362.1z"/>
			</g>
			<g>
				<rect x="3167.1" y="1896.8" class="st4" width="30.4" height="40.5"/>
				<g>
					<polygon class="st11" points="3147.6,1811 3115.3,1898.8 3182.6,1898.8 3249.9,1898.8 3207.7,1784.2 					"/>
					<polygon class="st5" points="3182.6,1716 3147.6,1811 3207.7,1784.2 					"/>
				</g>
			</g>
			<polygon class="st9" points="3590.2,2027.9 3463,2027.9 3499.7,1964.3 3478.4,1964.3 3506.9,1915 3487.6,1915 3526.6,1847.4 
				3565.6,1915 3546.3,1915 3574.8,1964.3 3553.5,1964.3 			"/>
			<g>
				<rect x="3348.5" y="1972.1" class="st4" width="17.3" height="23.1"/>
				<polygon class="st11" points="3358,1973.2 3396.5,1973.2 3358,1868.8 3319.6,1973.2 				"/>
			</g>
		</g>
	</g>
	<g id="opt2_x5F_pack1">
		<g>
			<g>
				<g>
					<polygon class="st2" points="3208.8,1892.7 3208.4,1892.7 3208.4,2044.9 2989.2,2044.9 2989.2,1892.4 3060.3,1892.4 
						3134.4,1820.2 					"/>
					<rect x="2872.2" y="1892.4" class="st4" width="187.9" height="152.5"/>
					<rect x="3108.6" y="1943.2" class="st3" width="65.3" height="101.7"/>
					<rect x="3122.3" y="1958.2" class="st12" width="37.9" height="86.5"/>
					<rect x="2864.2" y="1999.3" class="st3" width="195.8" height="15.2"/>
					<rect x="2864.2" y="2029.7" class="st3" width="195.8" height="15.2"/>
					<rect x="2864.2" y="1969" class="st3" width="195.8" height="15.2"/>
					<rect x="2864.2" y="1938.6" class="st3" width="195.8" height="15.2"/>
					<rect x="2864.2" y="1906.7" class="st3" width="195.8" height="15.2"/>
					<rect x="3050.9" y="1906.7" class="st2" width="19.7" height="15.2"/>
					<rect x="3050.9" y="1938.6" class="st2" width="19.7" height="15.2"/>
					<rect x="3050.9" y="1969" class="st2" width="19.7" height="15.2"/>
					<rect x="3050.9" y="1999.3" class="st2" width="19.7" height="15.2"/>
					<rect x="3050.9" y="2029.7" class="st2" width="19.7" height="15.2"/>
					<path class="st4" d="M3063.4,1908.7l-12.8-13l89.9-88.2l81.9,80.3c0,5,0.1,7.9,0.1,12.9l0,0c-5,0-7.9,0.1-12.9,0.1l-69.1-67.8
						L3063.4,1908.7z"/>
					<polygon class="st4" points="3063.4,1908.9 2861.2,1908.3 2861.2,1893.1 2993.2,1830.9 3134.2,1820.1 					"/>
					<polygon class="st5" points="2987.4,1808.1 3140.2,1807.5 3056.3,1893.1 2858.8,1893.1 					"/>
					<rect x="2906.7" y="1893.1" class="st5" width="9.1" height="33.4"/>
					<rect x="2953.8" y="1893.1" class="st5" width="12.1" height="15.2"/>
					<rect x="2988.7" y="1893.1" class="st5" width="9.1" height="27.3"/>
					<rect x="3028.1" y="1893.1" class="st5" width="9.1" height="15.2"/>
				</g>
				<rect x="2879.4" y="1893.1" class="st5" width="9.1" height="15.2"/>
			</g>
			<rect x="2993.3" y="1797" class="st2" width="28.7" height="10.6"/>
			<rect x="3020.6" y="1797" class="st3" width="13.6" height="10.6"/>
			<rect x="2993.3" y="1786.4" class="st13" width="28.7" height="10.6"/>
			<rect x="3020.6" y="1786.4" class="st2" width="13.6" height="10.6"/>
			<rect x="2970.9" y="1841.2" class="st14" width="44.8" height="23.7"/>
			<polygon class="st4" points="3015.8,1864.8 3015.8,1841.2 3041.9,1841.2 			"/>
			<rect x="3122.8" y="1877.3" class="st4" width="37.4" height="37.4"/>
		</g>
		<polygon class="st11" points="3035.8,2056.9 2908.6,2056.9 2945.3,1993.3 2924,1993.3 2952.5,1944 2933.2,1944 2972.2,1876.4 
			3011.2,1944 2991.9,1944 3020.4,1993.3 2999.1,1993.3 		"/>
		<polygon class="st10" points="2921.8,2078.1 2962.2,2078.1 2921.8,1968.4 2881.4,2078.1 		"/>
	</g>
	<g id="opt2_x5F_pack2">
		<g>
			<g>
				<g>
					<polygon class="st2" points="3480.2,2063.9 3479.7,2063.9 3479.7,2234.3 3234.3,2234.3 3234.3,2063.6 3313.9,2063.6 
						3396.9,1982.8 					"/>
					<rect x="3103.2" y="2063.6" class="st4" width="210.3" height="170.7"/>
					<rect x="3368" y="2120.5" class="st3" width="73.1" height="113.9"/>
					<rect x="3383.3" y="2137.3" class="st12" width="42.4" height="96.9"/>
					<rect x="3094.3" y="2183.4" class="st3" width="219.3" height="17"/>
					<rect x="3094.3" y="2217.3" class="st3" width="219.3" height="17"/>
					<rect x="3094.3" y="2149.4" class="st3" width="219.3" height="17"/>
					<rect x="3094.3" y="2115.4" class="st3" width="219.3" height="17"/>
					<rect x="3094.3" y="2079.7" class="st3" width="219.3" height="17"/>
					<rect x="3303.4" y="2079.7" class="st2" width="22.1" height="17"/>
					<rect x="3303.4" y="2115.4" class="st2" width="22.1" height="17"/>
					<rect x="3303.4" y="2149.4" class="st2" width="22.1" height="17"/>
					<rect x="3303.4" y="2183.4" class="st2" width="22.1" height="17"/>
					<rect x="3303.4" y="2217.3" class="st2" width="22.1" height="17"/>
					<path class="st4" d="M3317.3,2081.9l-14.3-14.6l100.6-98.8l91.6,90c0.1,5.6,0.1,8.8,0.1,14.4l0,0c-5.6,0.1-8.8,0.1-14.4,0.1
						l-77.4-75.9L3317.3,2081.9z"/>
					<polygon class="st4" points="3317.4,2082.1 3090.9,2081.4 3090.9,2064.4 3238.8,1994.7 3396.7,1982.6 					"/>
					<polygon class="st5" points="3232.3,1969.2 3403.4,1968.5 3309.4,2064.4 3088.3,2064.4 					"/>
					<rect x="3141.9" y="2064.4" class="st5" width="10.2" height="37.4"/>
					<rect x="3194.6" y="2064.4" class="st5" width="13.6" height="17"/>
					<rect x="3233.7" y="2064.4" class="st5" width="10.2" height="30.6"/>
					<rect x="3277.9" y="2064.4" class="st5" width="10.2" height="17"/>
				</g>
				<rect x="3111.3" y="2064.4" class="st5" width="10.2" height="17"/>
			</g>
			<rect x="3238.9" y="1956.8" class="st2" width="32.2" height="11.9"/>
			<rect x="3269.4" y="1956.8" class="st3" width="15.2" height="11.9"/>
			<rect x="3238.9" y="1944.9" class="st13" width="32.2" height="11.9"/>
			<rect x="3269.4" y="1944.9" class="st2" width="15.2" height="11.9"/>
			<rect x="3213.8" y="2006.3" class="st14" width="50.2" height="26.5"/>
			<polygon class="st4" points="3264,2032.8 3264,2006.3 3293.3,2006.3 			"/>
			<rect x="3383.9" y="2046.7" class="st4" width="41.8" height="41.8"/>
		</g>
	</g>
</g>
</svg>
