<?xml version="1.0" encoding="utf-8"?>
<!-- Generator: Adobe Illustrator 23.1.1, SVG Export Plug-In . SVG Version: 6.00 Build 0)  -->
<svg version="1.1" xmlns="http://www.w3.org/2000/svg" xmlns:xlink="http://www.w3.org/1999/xlink" x="0px" y="0px"
	 viewBox="0 0 4782.6 4783.7" style="enable-background:new 0 0 4782.6 4783.7;" xml:space="preserve">
<style type="text/css">
	.st0{fill:#8BD1C7;}
	.st1{opacity:0.5;fill:#64C2B5;stroke:#64C2B5;stroke-width:200;stroke-miterlimit:10;}
	.st2{fill:#AD401E;}
	.st3{fill:#6E352D;}
	.st4{fill:#C17056;}
	.st5{fill:#9BB946;stroke:#B4CA74;stroke-width:20;stroke-linejoin:round;stroke-miterlimit:10;}
	.st6{fill:none;stroke:#B4CA74;stroke-width:20;stroke-linejoin:round;stroke-miterlimit:10;}
	.st7{fill:#EFE9DA;}
	.st8{fill:#FFFFFF;}
	.st9{fill:none;stroke:#6E352D;stroke-miterlimit:10;}
	.st10{fill:#EAE2CE;}
	.st11{fill:#566337;}
	.st12{fill:#35110D;}
	.st13{fill:#6C91BD;}
	.st14{fill:#465982;}
	.st15{fill:#5B8740;}
	.st16{fill:#51E0D9;}
	.st17{fill:#A8EFEC;}
	.st18{fill:#9BB946;}
	.st19{fill:#B4CA74;}
	.st20{fill:none;stroke:#B4CA74;stroke-width:10;stroke-miterlimit:10;}
	.st21{fill:#273152;}
	.st22{fill:#E9EEF5;}
	.st23{fill:#DAE3EE;}
	.st24{fill:#51E0D9;stroke:#B4CA74;stroke-width:20;stroke-linejoin:round;stroke-miterlimit:10;}
	.st25{opacity:0.5;}
	.st26{fill:#64C2B5;stroke:#64C2B5;stroke-width:200;stroke-miterlimit:10;}
	.st27{fill:#DDD3BF;}
</style>
<g id="background">
	<rect x="-0.3" y="0.2" class="st0" width="4783.1" height="4783.1"/>
</g>
<g id="base">
	<path id="base-shadow" class="st1" d="M4348.3,2584.2c0-69.4-27-134.7-76.2-183.8c-49.1-49.1-114.3-76.1-183.7-76.2l-301.4-8.6
		c-2.6-23.1-4.8-97.1-5.7-149c0-29.4-11.5-56.9-32.2-77.7l-76.3-76.3c-30.2-30.2-70.4-46.9-113.1-46.9h-28.9
		c-51,0-97.9-27.7-122.5-72.3l-44.2-80c-1.8-3.2-5.1-5.2-8.8-5.2h-840c-60.7,0-110,49.3-110,110v61h-383.7
		c-35.9,0-71.5,9.3-102.8,26.9c-31.3,17.6-57.8,43.1-76.5,73.8l-93.9,154.1c-10.5,17.2-16.1,37-16.1,57.2v323.8l-208.1,208.1
		c-30.2,30.2-46.9,70.4-46.9,113.1v167.7c0,5.8,0.3,11.6,0.9,17.3l-0.3,135.7c-0.1,26.6,10.5,52.1,29.3,71l184.6,184.6h346l30,45
		l-30,104l57,82l68-10l136,72h330l39,39h99l117-62l100-90l88,5l47-10l-23-84l40-60h520c110.5,0,200-89.5,200-200v-267.9
		c0.3-5.3,0.5-10.6,0.5-16v-63.1h113.5l35,35h90l34-34h83l112.2-140.6c14.1-17.7,21.8-39.7,21.8-62.4v-125.3
		c1.7-9.3,2.5-18.8,2.5-28.4V2584.2z"/>
	<g id="base_1_">
		<path class="st2" d="M3135.8,3298.9l720-227v269c0,110.5-89.5,200-200,200h-520V3298.9z"/>
		<path class="st2" d="M3841.8,2817.9c3-3,370,0,370,0v177h-83l-34,34h-90l-35-35h-123.5C3846.3,2993.9,3841.8,2817.9,3841.8,2817.9
			z"/>
		<polygon class="st2" points="2883.8,3779.9 2766.8,3841.9 2667.8,3841.9 2628.8,3802.9 2298.8,3802.9 2409.2,3535.3 
			2883.8,3535.3 		"/>
		<polygon class="st3" points="2298.8,3802.9 2162.8,3730.9 2094.8,3740.9 2037.8,3658.9 2067.8,3554.9 2037.8,3509.9 
			2162.8,3373.9 2409.2,3535.3 		"/>
		<path class="st4" d="M4211.8,2994.9v-178l134-158v133c0,22.7-7.7,44.6-21.8,62.4L4211.8,2994.9z"/>
		<polygon class="st4" points="3135.8,3305.9 3135.8,3540.9 3095.8,3600.9 3118.8,3684.9 3071.8,3694.9 2983.8,3689.9 
			2883.8,3779.9 2883.8,3495.9 		"/>
		<polygon class="st2" points="2037.8,3509.9 1691.8,3509.9 1691.8,3342.9 2179.8,3342.9 2170.8,3373.9 		"/>
		<path class="st3" d="M4004.8,3028.9l-35-35c0,0,22-26,22-28s-4-25-4-25l11-18l-2,13l19,23l-16,24L4004.8,3028.9z"/>
		<polygon class="st2" points="3071.8,3694.9 2983.8,3561.9 2983.8,3686.9 		"/>
		<polygon class="st3" points="2667.8,3841.9 2692.8,3757.9 2680.8,3694.9 2637.8,3723.9 2628.8,3802.9 		"/>
		<polygon class="st2" points="2094.8,3740.9 2170.8,3644.9 2162.8,3730.9 		"/>
		<path class="st3" d="M1691.8,3509.9v-175l-213.5-243.5l-0.4,162.9c-0.1,26.6,10.5,52.1,29.3,71L1691.8,3509.9z"/>
		<path class="st5" d="M4088.3,2331.4c138.1,0,250,111.9,250,250v56.9c0,39.8-15.8,77.9-43.9,106.1l-57.8,57.8
			c-18.8,18.8-44.2,29.3-70.7,29.3h-319.6V3057c0,138.1-111.9,250-250,250h-463.4l-218.3,218.3c-18.8,18.8-44.2,29.3-70.7,29.3h-417
			c-53,0-103.9-21.1-141.4-58.6l-122.2-122.2h-361.9c-66.3,0-129.9-26.3-176.8-73.2l-93.3-93.3c-28.1-28.1-43.9-66.3-43.9-106.1
			v-167.7c0-39.8,15.8-77.9,43.9-106.1l211.1-211.1v-327.9c0-18.4,5.1-36.4,14.6-52l93.9-154.1c36.3-59.6,101-95.9,170.8-95.9h393.7
			v-71c0-55.2,44.8-100,100-100h840l44.2,80c26.4,47.8,76.7,77.5,131.3,77.5h28.9c39.8,0,77.9,15.8,106.1,43.9l76.3,76.3
			c18.8,18.8,29.3,44.2,29.3,70.7c0,0,2.5,146.7,7.4,158.7L4088.3,2331.4z"/>
		<line class="st6" x1="2037.8" y1="3071.9" x2="2105.8" y2="3071.9"/>
		<line class="st6" x1="1686.8" y1="2966.9" x2="1754.8" y2="2966.9"/>
		<line class="st6" x1="2196.8" y1="2758.9" x2="2264.8" y2="2758.9"/>
		<line class="st6" x1="1891.8" y1="2939.9" x2="1959.8" y2="2939.9"/>
		<line class="st6" x1="3163.8" y1="2463.9" x2="3231.8" y2="2463.9"/>
		<line class="st6" x1="2230.8" y1="3315.9" x2="2298.8" y2="3315.9"/>
		<line class="st6" x1="1969.8" y1="3233.9" x2="2037.8" y2="3233.9"/>
		<line class="st6" x1="2859.8" y1="3115.9" x2="2927.8" y2="3115.9"/>
		<line class="st6" x1="2658.8" y1="3433.9" x2="2726.8" y2="3433.9"/>
		<line class="st6" x1="2531.8" y1="3217.9" x2="2599.8" y2="3217.9"/>
		<line class="st6" x1="3163.8" y1="2846.9" x2="3231.8" y2="2846.9"/>
		<line class="st6" x1="2132.8" y1="2515.9" x2="2200.8" y2="2515.9"/>
		<line class="st6" x1="2611.8" y1="2713.9" x2="2679.8" y2="2713.9"/>
		<line class="st6" x1="2825.8" y1="2815.9" x2="2893.8" y2="2815.9"/>
		<line class="st6" x1="3505.8" y1="3071.9" x2="3573.8" y2="3071.9"/>
		<line class="st6" x1="3992.8" y1="2570.9" x2="4060.8" y2="2570.9"/>
		<line class="st6" x1="3095.8" y1="3047.1" x2="3163.8" y2="3047.1"/>
		<line class="st6" x1="3178.8" y1="2066.9" x2="3246.8" y2="2066.9"/>
		<line class="st6" x1="4143.8" y1="2684.9" x2="4211.8" y2="2684.9"/>
		<line class="st6" x1="3732.8" y1="2463.9" x2="3800.8" y2="2463.9"/>
		<line class="st6" x1="2714.8" y1="2330.9" x2="2782.8" y2="2330.9"/>
		<line class="st6" x1="1901.8" y1="2226.9" x2="1969.8" y2="2226.9"/>
	</g>
	<g id="base_2_">
		<g>
			<g>
				<rect x="2080.8" y="1963.8" class="st7" width="352.2" height="158.2"/>
				<rect x="2130.8" y="1963.8" class="st8" width="277.2" height="158.2"/>
				<path class="st8" d="M2438.8,1968.9c6.3,0,8.3-7.3,2.7-9.7l-136.7-59.3c-30.3-13.1-65.9-13.1-96.2,0l-136.7,59.3
					c-5.6,2.4-3.6,9.7,2.7,9.7H2438.8z"/>
				<rect x="2278.3" y="2040" class="st3" width="59.5" height="82.1"/>
				<line class="st9" x1="2433" y1="2109.9" x2="2080.8" y2="2109.9"/>
				<line class="st9" x1="2433" y1="2101.7" x2="2080.8" y2="2101.7"/>
				<line class="st9" x1="2433" y1="1986.2" x2="2080.8" y2="1986.2"/>
				<polygon class="st10" points="2278.3,2040.6 2216.4,2122.1 2278.3,2122.7 				"/>
			</g>
			<g>
				<rect x="3201.5" y="2912.6" class="st7" width="488.9" height="219.7"/>
				<rect x="3270.9" y="2912.6" class="st8" width="384.8" height="219.7"/>
				<path class="st8" d="M3698.5,2919.7c8.7,0,11.5-10.1,3.7-13.5l-189.8-82.3c-42-18.2-91.5-18.2-133.6,0l-189.8,82.3
					c-7.8,3.4-5,13.5,3.7,13.5H3698.5z"/>
				<rect x="3475.7" y="3018.3" class="st3" width="82.6" height="114"/>
				<line class="st9" x1="3690.4" y1="3115.4" x2="3201.5" y2="3115.4"/>
				<line class="st9" x1="3690.4" y1="3103.9" x2="3201.5" y2="3103.9"/>
				<line class="st9" x1="3690.4" y1="2943.6" x2="3201.5" y2="2943.6"/>
				<line class="st9" x1="3690.4" y1="2932.2" x2="3201.5" y2="2932.2"/>
				<polygon class="st10" points="3475.7,3019.1 3389.8,3132.2 3475.7,3133.1 				"/>
			</g>
			<polygon class="st11" points="2829.8,1975.6 2649,1975.6 2701.1,1885.3 2670.9,1885.3 2711.4,1815.1 2683.9,1815.1 
				2739.4,1719.1 2794.8,1815.1 2767.3,1815.1 2807.8,1885.3 2777.6,1885.3 			"/>
			<polygon class="st12" points="2831.4,1983.9 2883.8,1983.9 2831.4,1841.5 2779,1983.9 			"/>
			<polygon class="st11" points="2170.8,2420 2090,2420 2110.2,2365.2 2100,2365.2 2130.4,2282.7 2160.7,2365.2 2150.6,2365.2 			
				"/>
			<g>
				<polygon class="st13" points="2401.6,2498 2401.6,2539.8 2221.2,2539.8 2221.2,2505 2279.6,2444.8 2328.4,2444.8 				"/>
				<polygon class="st14" points="2310.9,2477.1 2310.9,2509.3 2279.6,2539.8 2221.2,2539.8 2221.2,2505 2279.6,2444.8 				"/>
			</g>
			<g>
				<polygon class="st13" points="3071.7,1981.6 3094.4,2033.9 3164.1,2033.9 3185,1999 3172,1962.4 3110.9,1938.9 				"/>
				<polygon class="st14" points="3071.7,1981.6 3094.4,2033.9 3115.7,2033.9 3115.7,2033.9 3136.2,1995.5 3110.9,1938.9 				"/>
			</g>
			<g>
				<rect x="2469.6" y="2251.4" class="st3" width="25.1" height="33.5"/>
				<polygon class="st15" points="2483.4,2253.1 2539,2253.1 2483.4,2101.9 2427.7,2253.1 				"/>
			</g>
			<polygon class="st15" points="1869.2,3134.7 1741.9,3134.7 1778.6,3071.1 1757.4,3071.1 1785.9,3021.7 1766.5,3021.7 
				1805.6,2954.1 1844.6,3021.7 1825.2,3021.7 1853.7,3071.1 1832.5,3071.1 			"/>
			<polygon class="st11" points="2260.8,2975.7 2133.5,2975.7 2170.2,2912.1 2149,2912.1 2177.5,2862.7 2158.1,2862.7 
				2197.2,2795.1 2236.2,2862.7 2216.8,2862.7 2245.3,2912.1 2224.1,2912.1 			"/>
			<g>
				<rect x="2267" y="2960.5" class="st3" width="21.1" height="28.1"/>
				<polygon class="st15" points="2278.6,2961.9 2325.4,2961.9 2278.6,2834.9 2231.9,2961.9 				"/>
			</g>
			<polygon class="st11" points="1845.5,2845.4 1764.8,2845.4 1785,2790.5 1774.8,2790.5 1805.2,2708 1835.5,2790.5 1825.4,2790.5 
							"/>
			<polygon class="st12" points="1869.1,3154.9 1909.5,3154.9 1869.1,3045.2 1828.8,3154.9 			"/>
			<polygon class="st15" points="1764.9,2885.9 1805.3,2885.9 1764.9,2776.2 1724.5,2885.9 			"/>
			<polygon class="st15" points="2967.6,2695.6 2840.3,2695.6 2877,2632 2855.7,2632 2884.2,2582.6 2864.9,2582.6 2903.9,2515 
				2942.9,2582.6 2923.6,2582.6 2952.1,2632 2930.8,2632 			"/>
			<polygon class="st12" points="2967.5,2715.8 3007.9,2715.8 2967.5,2606.1 2927.1,2715.8 			"/>
			<polygon class="st11" points="3242.7,3199.7 3115.5,3199.7 3152.2,3136.1 3130.9,3136.1 3159.4,3086.7 3140.1,3086.7 
				3179.1,3019.1 3218.1,3086.7 3198.8,3086.7 3227.3,3136.1 3206,3136.1 			"/>
			<g>
				<rect x="3251" y="3217.5" class="st3" width="21.1" height="28.1"/>
				<polygon class="st15" points="3262.5,3218.9 3309.3,3218.9 3262.5,3091.9 3215.8,3218.9 				"/>
			</g>
			<g>
				<polygon class="st13" points="2572.2,3104.7 2572.2,3146.6 2391.8,3146.6 2391.8,3111.7 2450.2,3051.6 2499,3051.6 				"/>
				<polygon class="st14" points="2481.6,3083.8 2481.6,3116.1 2450.2,3146.6 2391.8,3146.6 2391.8,3111.7 2450.2,3051.6 				"/>
			</g>
			<g>
				<polygon class="st13" points="3118.3,2960.2 3118.3,2987.6 2967.8,2987.6 2967.8,2946.5 3029.4,2892.6 				"/>
				<polygon class="st14" points="3094.7,2987.5 3094.7,2987.6 2967.8,2987.6 2967.8,2946.5 3029.4,2892.6 3034.7,2946.5 				"/>
			</g>
			<g>
				<polygon class="st13" points="1905.4,2880.6 1928,2932.9 1997.8,2932.9 2018.7,2898 2005.6,2861.4 1944.6,2837.9 				"/>
				<polygon class="st14" points="1905.4,2880.6 1928,2932.9 1949.3,2932.9 1949.4,2932.9 1969.9,2894.5 1944.6,2837.9 				"/>
			</g>
		</g>
	</g>
	<g id="base_x5F_pack1">
		<g>
			<g>
				<g>
					<g>
						<rect x="2562.2" y="3590.9" class="st16" width="162.7" height="293.2"/>
						<rect x="2597.4" y="3681.8" class="st17" width="16.1" height="162.7"/>
						<rect x="2645.7" y="3645.1" class="st17" width="16.1" height="71.8"/>
						<rect x="2685.3" y="3709.6" class="st17" width="16.1" height="162.7"/>
						<rect x="2685.3" y="3604.1" class="st17" width="16.1" height="20.5"/>
						<rect x="2645.7" y="3788.8" class="st17" width="16.1" height="20.5"/>
						<rect x="2597.4" y="3665.7" class="st2" width="16.1" height="16.1"/>
					</g>
					<path class="st16" d="M2880.3,3403.3v49.3c0,12.5-5.3,24.4-14.6,32.7l-34.9,31.2c-13.4,12-30.9,18.7-48.9,18.7h-57v55.7h-162.7
						v-55c0-6.1-2.5-11.8-6.9-16l-90.2-85.2c-5.4-5.1-12.6-8-20.1-8h-120.3l-67.6-90.1l-7.2-9.6c-10.9-14.5-0.5-35.2,17.6-35.2
						h423.6l0.8,1.3l72.5,110.1H2880.3z"/>
					<path class="st2" d="M2692.6,3291.9l-0.6,1.3l-21.4,43.5h-413.5l-7.2-9.6c-10.9-14.5-0.5-35.2,17.6-35.2H2692.6z"/>
					<polygon class="st3" points="2692.6,3291.9 2764.5,3403.3 2743.9,3447.3 2670.7,3337.3 					"/>
					<polygon class="st2" points="2764.5,3403.3 2880.3,3403.3 2880.3,3447.3 2743.9,3447.3 					"/>
				</g>
				<rect x="2562.2" y="3543.2" class="st17" width="162.7" height="56.3"/>
			</g>
			<g>
				<path class="st8" d="M2796.1,3846.4c-1.4,0-2.8,0.1-4.3,0.2c-13.1-45.3-54.9-78.5-104.4-78.5c-58.1,0-105.6,45.7-108.5,103.1
					c-7.5-3.9-16-6.2-25.1-6.2c-30,0-54.3,24.3-54.3,54.3c0,0.2,0,0.3,0,0.5H2859c0.5-3.2,0.8-6.5,0.8-9.8
					C2859.8,3874.9,2831.3,3846.4,2796.1,3846.4z"/>
			</g>
		</g>
		<polygon class="st15" points="1648.2,3013.3 1520.9,3013.3 1557.6,2949.7 1536.4,2949.7 1564.9,2900.3 1545.5,2900.3 
			1584.6,2832.7 1623.6,2900.3 1604.2,2900.3 1632.7,2949.7 1611.5,2949.7 		"/>
		<polygon class="st11" points="2135.8,3324.3 2008.5,3324.3 2045.3,3260.7 2024,3260.7 2052.5,3211.3 2033.2,3211.3 2072.2,3143.7 
			2111.2,3211.3 2091.9,3211.3 2120.4,3260.7 2099.1,3260.7 		"/>
		<polygon class="st15" points="2539.4,2953.9 2579.8,2953.9 2539.4,2844.2 2499,2953.9 		"/>
		<g>
			<rect x="2254.1" y="3170.8" class="st3" width="23.8" height="31.7"/>
			<polygon class="st15" points="2267.1,3172.3 2319.8,3172.3 2267.1,3029.3 2214.5,3172.3 			"/>
		</g>
		<polygon class="st11" points="2711.1,3241.5 2630.3,3241.5 2650.5,3186.7 2640.3,3186.7 2670.7,3104.1 2701,3186.7 2690.9,3186.7 
					"/>
		<polygon class="st12" points="1891.6,2547.9 1932,2547.9 1891.6,2438.2 1851.3,2547.9 		"/>
		<g>
			<polygon class="st13" points="2704.5,2445.6 2704.5,2500.2 2650.3,2540.6 2752.4,2540.6 2752.4,2508.3 			"/>
			<polygon class="st14" points="2704.5,2445.6 2633.8,2498.2 2633.8,2540.6 2650.3,2540.6 2704.5,2500.2 			"/>
		</g>
		<g>
			<polygon class="st13" points="3633.9,3150.6 3656.5,3202.9 3726.3,3202.9 3747.2,3168 3734.1,3131.4 3673.1,3107.9 			"/>
			<polygon class="st14" points="3633.9,3150.6 3656.5,3202.9 3677.8,3202.9 3677.9,3202.9 3698.4,3164.5 3673.1,3107.9 			"/>
		</g>
		<g>
			<polygon class="st13" points="4013.5,2349.8 4013.5,2391.6 3833.1,2391.6 3833.1,2356.7 3891.5,2296.6 3940.3,2296.6 			"/>
			<polygon class="st14" points="3922.9,2328.8 3922.9,2361.1 3891.5,2391.6 3833.1,2391.6 3833.1,2356.7 3891.5,2296.6 			"/>
		</g>
		<g>
			<polygon class="st13" points="3008.6,3321.2 3008.6,3348.6 2858.1,3348.6 2858.1,3307.6 2919.7,3253.6 			"/>
			<polygon class="st14" points="2985,3348.6 2985,3348.6 2858.1,3348.6 2858.1,3307.6 2919.7,3253.6 2925,3307.6 			"/>
		</g>
	</g>
	<g id="base_x5F_pack2">
		<g>
			<rect x="3793.1" y="2297.6" class="st7" width="388.7" height="174.6"/>
			<rect x="3848.2" y="2297.6" class="st8" width="306" height="174.6"/>
			<path class="st8" d="M4188.2,2303.2c6.9,0,9.1-8,2.9-10.7l-150.9-65.4c-33.4-14.5-72.8-14.5-106.2,0l-150.9,65.4
				c-6.2,2.7-4,10.7,2.9,10.7H4188.2z"/>
			<rect x="4011" y="2381.6" class="st3" width="65.7" height="90.6"/>
			<line class="st9" x1="4181.7" y1="2458.8" x2="3793.1" y2="2458.8"/>
			<line class="st9" x1="4181.7" y1="2449.7" x2="3793.1" y2="2449.7"/>
			<line class="st9" x1="4181.7" y1="2322.2" x2="3793.1" y2="2322.2"/>
			<line class="st9" x1="4181.7" y1="2313.1" x2="3793.1" y2="2313.1"/>
			<polygon class="st10" points="4011,2382.2 3942.8,2472.2 4011,2472.8 			"/>
		</g>
		<polygon class="st15" points="4187.8,2775.3 4060.5,2775.3 4097.2,2711.7 4076,2711.7 4104.5,2662.3 4085.1,2662.3 4124.1,2594.7 
			4163.2,2662.3 4143.8,2662.3 4172.3,2711.7 4151.1,2711.7 		"/>
		<polygon class="st11" points="3896.4,2521.3 3769.1,2521.3 3805.8,2457.7 3784.6,2457.7 3813.1,2408.3 3793.7,2408.3 
			3832.8,2340.7 3871.8,2408.3 3852.4,2408.3 3880.9,2457.7 3859.7,2457.7 		"/>
		<polygon class="st15" points="3780,2527.9 3820.4,2527.9 3780,2418.2 3739.6,2527.9 		"/>
		<g>
			<rect x="4250.2" y="2567.5" class="st3" width="22.8" height="30.4"/>
			<polygon class="st15" points="4262.7,2569 4313.2,2569 4262.7,2431.9 4212.2,2569 			"/>
		</g>
		<polygon class="st11" points="3556.8,2646 3443.7,2646 3472,2569.2 3457.7,2569.2 3500.3,2453.6 3542.8,2569.2 3528.5,2569.2 		
			"/>
		<polygon class="st12" points="4076.2,2805.9 4116.6,2805.9 4076.2,2696.2 4035.8,2805.9 		"/>
		<g>
			<polygon class="st13" points="3214.5,2217.6 3214.5,2272.2 3160.3,2312.6 3262.4,2312.6 3262.4,2280.3 			"/>
			<polygon class="st14" points="3214.5,2217.6 3143.8,2270.2 3143.8,2312.6 3160.3,2312.6 3214.5,2272.2 			"/>
		</g>
		<g>
			<polygon class="st13" points="3061.9,2393.6 3084.5,2445.9 3154.3,2445.9 3175.2,2411 3162.1,2374.4 3101.1,2350.9 			"/>
			<polygon class="st14" points="3061.9,2393.6 3084.5,2445.9 3105.8,2445.9 3105.9,2445.9 3126.4,2407.5 3101.1,2350.9 			"/>
		</g>
		<g>
			<polygon class="st13" points="3526.6,2060.2 3526.6,2087.6 3376.1,2087.6 3376.1,2046.6 3437.7,1992.6 			"/>
			<polygon class="st14" points="3503,2087.6 3503,2087.6 3376.1,2087.6 3376.1,2046.6 3437.7,1992.6 3443,2046.6 			"/>
		</g>
		<g>
			<polygon class="st13" points="3910.5,2706.8 3910.5,2748.6 3730.1,2748.6 3730.1,2713.7 3788.5,2653.6 3837.3,2653.6 			"/>
			<polygon class="st14" points="3819.9,2685.8 3819.9,2718.1 3788.5,2748.6 3730.1,2748.6 3730.1,2713.7 3788.5,2653.6 			"/>
		</g>
	</g>
</g>
<g id="opt1">
	<g>
		<path class="st4" d="M2900.4,2275.8v87.3l350.4-209.5c64.9-38.8,104.7-108.9,104.7-184.5v-153.5l-70.5-63.8L2900.4,2275.8z"/>
		<polygon class="st2" points="2683.8,2269.1 2683.8,2364.8 2792.9,2364.8 2811.4,2376.6 2819.8,2364.8 2900.4,2364.8 
			2900.4,2269.1 		"/>
		<path class="st2" d="M2163.2,2652v124.3H2400l26.9-38.6h27.7c22.2,0,43.6-8.1,60.2-22.8l48.1-51.1v-94l-399.7,31.9V2652z"/>
		<g>
			<path class="st18" d="M2167.1,2642l-130.3-130.3v-279c0-2.7-1.1-5.2-2.9-7.1l-123.4-123.4v-192.2c0-26,5-51.3,15-75.3
				c9.9-24,24.3-45.5,42.7-63.9l97.3-97.3c1.9-1.9,2.9-4.4,2.9-7.1v-28.8c0-65.1,41.3-123.3,102.8-144.8l228-79.6
				c4.7-1.6,9.6-2.5,14.6-2.5h204.7c58.9,0,114.3,26.1,151.8,71.5l56.6,68.6c41.3,50.1,102.3,78.8,167.2,78.8h90.8
				c41,0,79.5,15.9,108.4,44.9l82.1,82.1v167.2c0,33.7-8.7,67-25.2,96.4c-16.5,29.4-40.4,54.2-69.1,71.7l-283.9,173.3h-212.8
				c-2.4,0-4.7,0.9-6.5,2.4l-120.9,103.4c-2.2,1.9-3.5,4.7-3.5,7.6V2565l-36.7,34.9c-28.6,27.2-66.1,42.2-105.6,42.2H2167.1z"/>
			<path class="st19" d="M2618.7,1420.9c27.4,0,54.9,6.2,79.6,17.8c24.7,11.7,47,29,64.5,50.1l56.6,68.6
				c21.1,25.6,48.2,46.6,78.3,60.8c30,14.2,63.5,21.6,96.7,21.6h90.8c18.9,0,37.4,3.7,54.9,10.9c17.5,7.2,33.1,17.7,46.5,31.1
				l79.1,79.1v163.1c0,32-8.3,63.6-23.9,91.5c-15.6,27.9-38.3,51.4-65.6,68.1l-281.5,171.8h-210c-4.8,0-9.4,1.7-13,4.8l-120.9,103.4
				c-4.4,3.8-7,9.4-7,15.2v182l-33.6,31.9c-26.8,25.4-61.8,39.4-98.7,39.4h-240.1l-124.4-124.4v-274.8c0-5.3-2.1-10.4-5.9-14.1
				l-120.5-120.5v-188c0-24.7,4.8-48.7,14.2-71.5c9.4-22.8,23.1-43.2,40.5-60.6l97.3-97.3c3.8-3.8,5.9-8.8,5.9-14.1v-28.8
				c0-60.9,38.6-115.3,96.1-135.3l228-79.6c3.7-1.3,7.5-1.9,11.4-1.9H2618.7 M2618.7,1400.9h-204.7c-6.1,0-12.2,1-17.9,3l-228,79.6
				c-65.6,22.9-109.5,84.8-109.5,154.2v28.8l-97.3,97.3c-38.8,38.8-60.6,91.4-60.6,146.3v196.3l126.3,126.3v283.1L2163,2652h248.4
				c41.9,0,82.1-16.1,112.5-44.9l39.8-37.8v-190.6l120.9-103.4h215.6l286.3-174.7c61.6-37.6,99.1-104.5,99.1-176.6v-171.3l-85-85
				c-30.6-30.6-72.2-47.8-115.5-47.8h-90.8c-61.7,0-120.2-27.6-159.5-75.1l-56.6-68.6C2738.9,1428.4,2680.4,1400.9,2618.7,1400.9
				L2618.7,1400.9z"/>
		</g>
		<polygon class="st3" points="1901.2,2106.2 1901.2,2254 2026.9,2387.9 2027.1,2232.2 		"/>
		<polygon class="st3" points="2163.2,2652 2027.1,2516 2027.1,2652 2163.2,2776.3 		"/>
		<polygon class="st4" points="2400,2776.3 2400,2687.3 2426.8,2737.7 		"/>
		<polygon class="st4" points="2562.9,2378.3 2683.8,2275.8 2683.8,2364.8 2563.7,2474.4 		"/>
		<polygon class="st4" points="2811.4,2376.6 2811.4,2351.4 2819.8,2364.8 		"/>
		<polyline class="st2" points="3203,2182.3 3203,2178.6 3203,2123 3240.2,2160.2 		"/>
		<polygon class="st4" points="3046.5,2275.8 3046.5,2311.1 3012.9,2331.2 2953.8,2331.2 2967.6,2269.1 		"/>
		<polygon class="st2" points="2954.2,2331.2 2954.2,2287.6 3012.9,2331.2 		"/>
		<line class="st20" x1="2169.9" y1="2363.2" x2="2213.6" y2="2363.2"/>
		<line class="st20" x1="2269" y1="2437" x2="2311" y2="2437"/>
		<line class="st20" x1="2027.1" y1="1971.9" x2="2055.7" y2="1971.9"/>
		<line class="st20" x1="2077.5" y1="2017.2" x2="2117.8" y2="2017.2"/>
		<line class="st20" x1="2426.8" y1="1681.3" x2="2391.6" y2="1681.3"/>
		<line class="st20" x1="2426.8" y1="1726.7" x2="2462.1" y2="1726.7"/>
		<line class="st20" x1="3012.9" y1="2007.1" x2="2974.3" y2="2007.1"/>
		<line class="st20" x1="2982.7" y1="2057.5" x2="2929" y2="2057.5"/>
		<line class="st20" x1="2369.7" y1="1936.6" x2="2408.4" y2="1936.6"/>
		<line class="st20" x1="2492.3" y1="2017.2" x2="2525.9" y2="2017.2"/>
		<line class="st20" x1="2781.2" y1="1694.8" x2="2739.2" y2="1694.8"/>
		<line class="st20" x1="2191.7" y1="1592.3" x2="2228.7" y2="1592.3"/>
		<line class="st20" x1="3118.7" y1="1792.2" x2="3073.4" y2="1792.2"/>
	</g>
	<g>
		<polygon class="st21" points="2529.5,1215.1 2483.5,1215.1 2273.6,1670.5 2441.8,1670.6 2441.9,1670.5 2441.8,1670.5 		"/>
		<polygon class="st22" points="2529.5,1215 2564.9,1161 2562.7,1043.4 2562.7,1043.4 2562.5,1043.7 2483.5,1215.1 2529.5,1215.1 		
			"/>
		<polygon class="st4" points="2662.3,1670.6 2851.8,1670.5 2662.3,1670.5 		"/>
		<polygon class="st14" points="2633.2,1381.4 2567.4,1294.4 2565,1161.6 2565,1161.5 2564.9,1161 2564.9,1161 2564.9,1161.1 
			2529.5,1215.1 2441.9,1670.5 2662.3,1670.5 		"/>
		<polygon class="st2" points="2851.8,1670.5 2646,1224 2645.9,1224 2646,1224.1 		"/>
		<polygon class="st2" points="2529.5,1215.1 2529.5,1215.1 2529.5,1215.1 2564.9,1161.1 2564.9,1161 2529.5,1215 		"/>
		<polygon class="st13" points="2565,1161.6 2567.4,1294.4 2633.2,1381.4 2662.3,1670.5 2851.8,1670.5 2646,1224.1 		"/>
		<polygon class="st8" points="2645.9,1224 2562.7,1043.4 2565,1161.5 2565,1161.5 		"/>
		<polygon class="st8" points="2646,1224.1 2645.9,1224 2565,1161.5 2565,1161.5 2565,1161.6 		"/>
	</g>
	<g>
		<g>
			<polygon class="st14" points="2893.7,1317.1 2893.7,1317 2640.6,1827.1 2977.3,1827.1 2977.4,1825.1 			"/>
			<polygon class="st13" points="2893.7,1317.1 2977.4,1825.1 2977.3,1827.1 3146.8,1827.1 			"/>
		</g>
		<polygon class="st22" points="2829.7,1446 2873.8,1446 2929.6,1534.9 2893.7,1316.9 		"/>
		<polygon class="st8" points="2893.7,1316.9 2929.6,1534.1 3001.8,1534.1 		"/>
	</g>
	<g>
		<polygon class="st13" points="2518.8,1715 2122.6,1715 2320.7,1511 		"/>
		<polygon class="st14" points="2320.7,1511 2320.7,1715 2122.6,1715 		"/>
	</g>
	<g>
		<polygon class="st13" points="2180.6,1842.5 2180.6,1869.8 2030.1,1869.8 2030.1,1828.8 2091.7,1774.8 		"/>
		<polygon class="st14" points="2157.1,1869.8 2157,1869.8 2030.1,1869.8 2030.1,1828.8 2091.7,1774.8 2097,1828.8 		"/>
	</g>
	<g>
		<path class="st23" d="M2309.9,1503.3c-1.6,0-3.1,0.1-4.7,0.2c-14.4-49.8-60.2-86.2-114.6-86.2c-63.8,0-115.9,50.1-119.1,113.2
			c-8.2-4.3-17.6-6.8-27.6-6.8c-32.9,0-59.6,26.7-59.6,59.6c0,0.2,0,0.4,0,0.5H2379c0.5-3.5,0.8-7.1,0.8-10.7
			C2379.8,1534.5,2348.5,1503.3,2309.9,1503.3z"/>
	</g>
	<g>
		<path class="st8" d="M3255.9,1537.1c-1.7,0-3.4,0.1-5.1,0.2c-15.8-54.8-66.3-94.9-126.2-94.9c-70.3,0-127.7,55.2-131.2,124.6
			c-9.1-4.7-19.4-7.4-30.3-7.4c-36.3,0-65.7,29.4-65.7,65.7c0,0.2,0,0.4,0,0.6h434.6c0.6-3.9,0.9-7.8,0.9-11.8
			C3332.8,1571.6,3298.4,1537.1,3255.9,1537.1z"/>
	</g>
	<g>
		<path class="st8" d="M2807.7,1252.8c-1.2,0-2.5,0.1-3.7,0.1c-11.4-39.5-47.9-68.5-91.1-68.5c-50.7,0-92.1,39.8-94.7,89.9
			c-6.6-3.4-14-5.4-21.9-5.4c-26.2,0-47.4,21.2-47.4,47.4c0,0.1,0,0.3,0,0.4h313.6c0.4-2.8,0.7-5.6,0.7-8.5
			C2863.2,1277.7,2838.3,1252.8,2807.7,1252.8z"/>
	</g>
	<g id="opt1_x5F_pack1">
		<g>
			<path class="st15" d="M3197.8,1914.9v57c0,16.6-13.4,30-30,30h-20c-11,0-20,8.9-20,20v15c0,16.6-13.4,30-30,30h-26.5
				c-8.8,0-17.5,2.4-25.2,6.8l-206.3,120.2h-258v-46.3c0-12.1,4.4-23.7,12.3-32.8l17.3-19.9l28.4-32.7c5.7-6.6,13.9-10.3,22.6-10.3
				h250.3v-37c0-21.6,6.9-41.7,18.5-58c5.7-7.9,12.5-15,20.1-21v0c16.9-13.2,38.2-21,61.3-21H3197.8z"/>
			<polygon class="st15" points="2475.6,1670.5 2718.3,1670.5 2640.8,1826.9 2528.8,1826.9 2391.6,1715 2518.8,1714.9 			"/>
			<path class="st15" d="M2834.3,1973.4v93h-110v-48h-125.7c-38.5,0-69.8-31.3-69.8-69.8v-121.5h110v81.3h130.4
				c19.1,0,36.4,8.3,48.2,21.5C2828,1941.4,2834.3,1956.7,2834.3,1973.4z"/>
			<polygon class="st15" points="3054,2130.2 2973.2,2130.2 2993.4,2075.3 2983.2,2075.3 3013.6,1992.8 3044,2075.3 3033.8,2075.3 
							"/>
			<polygon class="st15" points="2973.3,2170.6 3013.7,2170.6 2973.3,2060.9 2932.9,2170.6 			"/>
			<polygon class="st15" points="3242.3,1860.7 3115,1860.7 3151.7,1797.1 3130.5,1797.1 3159,1747.7 3139.6,1747.7 3178.7,1680.1 
				3217.7,1747.7 3198.3,1747.7 3226.8,1797.1 3205.6,1797.1 			"/>
			<g>
				<rect x="2847.9" y="2005.4" class="st15" width="15" height="20"/>
				<polygon class="st15" points="2856.1,2006.4 2889.3,2006.4 2856.1,1916.1 2822.9,2006.4 				"/>
			</g>
			<polygon class="st15" points="3221.6,1870.9 3262,1870.9 3221.6,1761.2 3181.2,1870.9 			"/>
		</g>
		<g>
			<path class="st24" d="M3197.8,1914.9v57c0,16.6-13.4,30-30,30h-20c-11,0-20,8.9-20,20v15c0,16.6-13.4,30-30,30h-26.5
				c-8.8,0-17.5,2.4-25.2,6.8l-206.3,120.2h-258v-46.3c0-12.1,4.4-23.7,12.3-32.8l17.3-19.9l28.4-32.7c5.7-6.6,13.9-10.3,22.6-10.3
				h250.3v-37c0-21.6,6.9-41.7,18.5-58c5.7-7.9,12.5-15,20.1-21v0c16.9-13.2,38.2-21,61.3-21H3197.8z"/>
			<polygon class="st16" points="2475.6,1670.5 2718.3,1670.5 2640.8,1826.9 2528.8,1826.9 2391.6,1715 2518.8,1714.9 			"/>
			<path class="st16" d="M2834.3,1973.4v93h-110v-48h-125.7c-38.5,0-69.8-31.3-69.8-69.8v-121.5h110v81.3h130.4
				c19.1,0,36.4,8.3,48.2,21.5C2828,1941.4,2834.3,1956.7,2834.3,1973.4z"/>
			<polygon class="st11" points="3054,2130.2 2973.2,2130.2 2993.4,2075.3 2983.2,2075.3 3013.6,1992.8 3044,2075.3 3033.8,2075.3 
							"/>
			<polygon class="st15" points="2973.3,2170.6 3013.7,2170.6 2973.3,2060.9 2932.9,2170.6 			"/>
			<polygon class="st11" points="3242.3,1860.7 3115,1860.7 3151.7,1797.1 3130.5,1797.1 3159,1747.7 3139.6,1747.7 3178.7,1680.1 
				3217.7,1747.7 3198.3,1747.7 3226.8,1797.1 3205.6,1797.1 			"/>
			<g>
				<rect x="2847.9" y="2005.4" class="st3" width="15" height="20"/>
				<polygon class="st15" points="2856.1,2006.4 2889.3,2006.4 2856.1,1916.1 2822.9,2006.4 				"/>
			</g>
			<polygon class="st12" points="3221.6,1870.9 3262,1870.9 3221.6,1761.2 3181.2,1870.9 			"/>
		</g>
	</g>
	<g id="opt1_x5F_pack2">
		<g>
			<rect x="2143.4" y="2323.7" class="st7" width="329.4" height="148"/>
			<rect x="2190.1" y="2323.7" class="st8" width="259.3" height="148"/>
			<path class="st8" d="M2478.2,2328.4c5.9,0,7.7-6.8,2.5-9.1l-127.8-55.5c-28.3-12.3-61.7-12.3-90,0l-127.8,55.5
				c-5.2,2.3-3.4,9.1,2.5,9.1H2478.2z"/>
			<rect x="2328.1" y="2394.9" class="st3" width="55.6" height="76.8"/>
			<line class="st9" x1="2472.7" y1="2460.3" x2="2143.4" y2="2460.3"/>
			<line class="st9" x1="2472.7" y1="2452.6" x2="2143.4" y2="2452.6"/>
			<line class="st9" x1="2472.7" y1="2344.6" x2="2143.4" y2="2344.6"/>
			<line class="st9" x1="2472.7" y1="2336.9" x2="2143.4" y2="2336.9"/>
			<polygon class="st10" points="2328.1,2395.4 2270.2,2471.7 2328.1,2472.2 			"/>
		</g>
		<polygon class="st15" points="2222.9,2521.4 2095.6,2521.4 2132.3,2457.8 2111.1,2457.8 2139.6,2408.4 2120.2,2408.4 
			2159.2,2340.8 2198.3,2408.4 2178.9,2408.4 2207.4,2457.8 2186.2,2457.8 		"/>
		<polygon class="st12" points="2213.8,2546.9 2254.2,2546.9 2213.8,2437.2 2173.4,2546.9 		"/>
		<polygon class="st11" points="2532.9,2489.3 2452.2,2489.3 2472.3,2434.5 2462.2,2434.5 2492.5,2352 2522.9,2434.5 2512.7,2434.5 
					"/>
		<polygon class="st15" points="2452.3,2529.8 2492.6,2529.8 2452.3,2420.1 2411.9,2529.8 		"/>
		<polygon class="st11" points="2635.5,2056.4 2508.2,2056.4 2545,1992.8 2523.7,1992.8 2552.2,1943.4 2532.9,1943.4 2571.9,1875.8 
			2610.9,1943.4 2591.6,1943.4 2620.1,1992.8 2598.8,1992.8 		"/>
		<g>
			<rect x="2450.7" y="2105.1" class="st3" width="20.4" height="27.2"/>
			<polygon class="st15" points="2461.9,2106.5 2507,2106.5 2461.9,1983.9 2416.8,2106.5 			"/>
		</g>
		<g>
			<polygon class="st13" points="3184.9,1849 3184.9,1890.9 3004.5,1890.9 3004.5,1856 3062.9,1795.9 3111.7,1795.9 			"/>
			<polygon class="st14" points="3094.3,1828.1 3094.3,1860.4 3062.9,1890.9 3004.5,1890.9 3004.5,1856 3062.9,1795.9 			"/>
		</g>
	</g>
	<g id="opt1_x5F_pack3">
		<g>
			<polygon class="st13" points="2325.8,1995.3 2325.8,2061.8 2039,2061.8 2039,2006.4 2131.9,1910.8 2209.4,1910.8 			"/>
			<polygon class="st14" points="2181.7,1962 2181.7,2013.3 2131.9,2061.8 2039,2061.8 2039,2006.4 2131.9,1910.8 			"/>
		</g>
		<polygon class="st15" points="2194.2,2212.6 2066.9,2212.6 2103.7,2149 2082.4,2149 2110.9,2099.6 2091.6,2099.6 2130.6,2032 
			2169.6,2099.6 2150.3,2099.6 2178.8,2149 2157.5,2149 		"/>
		<polygon class="st11" points="2383.9,1865.6 2256.6,1865.6 2293.3,1802 2272,1802 2300.5,1752.6 2281.2,1752.6 2320.2,1685 
			2359.2,1752.6 2339.9,1752.6 2368.4,1802 2347.1,1802 		"/>
		<polygon class="st15" points="2337.9,2086.9 2378.3,2086.9 2337.9,1977.2 2297.6,2086.9 		"/>
		<g>
			<rect x="2729.6" y="1858" class="st3" width="18.3" height="24.4"/>
			<polygon class="st15" points="2739.7,1859.2 2780.3,1859.2 2739.7,1748.9 2699,1859.2 			"/>
		</g>
		<polygon class="st11" points="2234.6,2246.3 2153.8,2246.3 2174,2191.4 2163.8,2191.4 2194.2,2108.9 2224.6,2191.4 2214.4,2191.4 
					"/>
		<polygon class="st12" points="2384.2,1889.9 2424.5,1889.9 2384.2,1780.2 2343.8,1889.9 		"/>
		<polygon class="st15" points="2957.8,1885.1 2875.5,1885.1 2899.2,1844 2885.5,1844 2903.9,1812.1 2891.4,1812.1 2916.6,1768.4 
			2941.9,1812.1 2929.4,1812.1 2947.8,1844 2934.1,1844 		"/>
	</g>
</g>
<g id="opt2">
	<g>
		<path class="st2" d="M3679.1,2597.8l-51.5-58.6H3575l-32.3-37.1v-57.4l-12-14.4h-8.4c-39.7,0-71.8-32.1-71.8-71.8V2228h292
			l-15.6,274.1L3679.1,2597.8z"/>
		<g>
			<path class="st18" d="M3732.1,2492.1L3619,2331.2c-1.9-2.7-4.9-4.2-8.2-4.2h-52c-19.4,0-38-5.4-53.6-15.7
				c-14.7-9.7-26.6-23.3-34.4-39.5s-11.1-34-9.5-51.5c1.7-18.6,9-36.5,21-51.7l67.2-84.5c40.2-50.5,92.1-92.1,150.3-120.1
				c58.1-28.1,123-42.9,187.6-42.9h207c86.9,0,157.5,70.7,157.5,157.5V2279l-206.1,213.1H3732.1z"/>
			<path class="st19" d="M4094.4,1930.9c39.4,0,76.5,15.3,104.3,43.2s43.2,64.9,43.2,104.3V2275l-200.3,207.1h-304.3l-110.1-156.7
				c-3.7-5.3-9.8-8.5-16.4-8.5h-52c-17.7,0-33.9-4.7-48.1-14.1c-13.2-8.7-23.9-21-30.9-35.5s-10-30.6-8.6-46.3
				c1.5-16.9,7.9-32.6,18.9-46.4l67.2-84.5c19.8-24.9,42.4-47.5,67.2-67.3c24.5-19.6,51.3-36.4,79.6-50
				c28.3-13.6,58.1-24.1,88.7-31.2c30.9-7.1,62.8-10.7,94.5-10.7H4094.4 M4094.4,1910.9h-207c-134.6,0-261.9,61.4-345.7,166.8
				l-67.2,84.5c-56.1,70.6-5.8,174.7,84.3,174.7h52l116.1,165.2h323.1l211.8-219v-204.6C4261.9,1985.9,4186.9,1910.9,4094.4,1910.9
				L4094.4,1910.9z"/>
		</g>
		<polygon class="st2" points="3726.9,2502.1 3679.1,2597.8 4124.3,2597.8 4050.1,2502.1 		"/>
		<polygon class="st4" points="4261.9,2283.1 4261.9,2394.4 4198.5,2465 4198.5,2518.8 4124.3,2597.8 4050.1,2502.1 		"/>
		<polygon class="st3" points="3530.7,2430.3 3610.9,2336.9 3726.9,2502.1 3679.1,2597.8 3628.8,2539.2 3628.8,2485.3 3575,2539.2 
			3542.6,2502.1 3542.6,2444.6 		"/>
	</g>
	<g>
		<polygon class="st21" points="3916.3,1775 3879,1775 3708.6,2144.5 3845.2,2144.6 3845.2,2144.5 3845.2,2144.5 		"/>
		<polygon class="st22" points="3916.3,1774.9 3945,1731.1 3943.2,1635.7 3943.2,1635.6 3943.1,1635.9 3879,1775 3916.3,1775 		"/>
		<polygon class="st4" points="4024,2144.6 4177.8,2144.5 4024,2144.5 		"/>
		<polygon class="st14" points="4000.4,1909.9 3947,1839.4 3945.1,1731.6 3945.1,1731.5 3945,1731.1 3945,1731.1 3945,1731.2 
			3916.3,1775 3845.2,2144.5 4024,2144.5 		"/>
		<polygon class="st2" points="4177.8,2144.5 4010.8,1782.3 4010.8,1782.2 4010.8,1782.3 		"/>
		<polygon class="st2" points="3916.3,1775 3916.3,1775 3916.3,1775 3945,1731.2 3945,1731.1 3916.3,1774.9 		"/>
		<polygon class="st13" points="3945.1,1731.6 3947,1839.4 4000.4,1909.9 4024,2144.5 4177.8,2144.5 4010.8,1782.3 		"/>
		<polygon class="st8" points="4010.8,1782.2 3943.2,1635.7 3945.1,1731.5 3945.1,1731.5 		"/>
		<polygon class="st8" points="4010.8,1782.3 4010.8,1782.2 3945.1,1731.5 3945.1,1731.5 3945.1,1731.6 		"/>
	</g>
	<g>
		<g>
			<polygon class="st14" points="3820.3,2186.9 3769.2,1799.4 3785.8,1924.9 3755.5,1981.6 3701.2,1981.6 3624.6,2186.9 			"/>
			<polygon class="st22" points="3785.8,1924.9 3769.2,1799.4 3701.2,1981.6 3755.5,1981.6 			"/>
		</g>
		<g>
			<polyline class="st13" points="3816,1925.2 3785.8,1925.2 3820.3,2186.9 3913.8,2186.9 			"/>
			<polygon class="st8" points="3816,1925.2 3769.2,1799.4 3785.8,1925.2 			"/>
		</g>
	</g>
	<g>
		<path class="st8" d="M4212.2,1918.7c-1.4,0-2.7,0.1-4.1,0.1c-12.5-43.2-52.3-74.7-99.5-74.7c-55.4,0-100.6,43.5-103.4,98.2
			c-7.2-3.7-15.3-5.9-23.9-5.9c-28.6,0-51.8,23.2-51.8,51.8c0,0.2,0,0.3,0,0.5h342.4c0.5-3,0.7-6.2,0.7-9.3
			C4272.8,1945.8,4245.7,1918.7,4212.2,1918.7z"/>
	</g>
	<g>
		<path class="st23" d="M3704.8,1729.1c-1,0-2,0-2.9,0.1c-9.1-31.4-38-54.3-72.2-54.3c-40.2,0-73.1,31.6-75.1,71.3
			c-5.2-2.7-11.1-4.3-17.4-4.3c-20.8,0-37.6,16.8-37.6,37.6c0,0.1,0,0.2,0,0.3h248.8c0.3-2.2,0.5-4.5,0.5-6.8
			C3748.9,1748.8,3729.1,1729.1,3704.8,1729.1z"/>
	</g>
	<g id="opt2_x5F_pack1">
		<g>
			<rect x="3730.4" y="2271.4" class="st7" width="340" height="152.8"/>
			<rect x="3778.6" y="2271.4" class="st8" width="267.6" height="152.8"/>
			<path class="st8" d="M4076,2276.4c6.1,0,8-7,2.6-9.4l-132-57.2c-29.2-12.7-63.7-12.7-92.9,0l-132,57.2c-5.4,2.3-3.5,9.4,2.6,9.4
				H4076z"/>
			<rect x="3921.1" y="2344.9" class="st3" width="57.4" height="79.3"/>
			<line class="st9" x1="4070.4" y1="2412.5" x2="3730.4" y2="2412.5"/>
			<line class="st9" x1="4070.4" y1="2404.5" x2="3730.4" y2="2404.5"/>
			<line class="st9" x1="4070.4" y1="2293" x2="3730.4" y2="2293"/>
			<line class="st9" x1="4070.4" y1="2285.1" x2="3730.4" y2="2285.1"/>
			<polygon class="st10" points="3921.1,2345.5 3861.3,2424.2 3921.1,2424.8 			"/>
		</g>
		<polygon class="st11" points="4217.5,2220.3 4090.2,2220.3 4126.9,2156.7 4105.7,2156.7 4134.2,2107.3 4114.8,2107.3 
			4153.9,2039.7 4192.9,2107.3 4173.5,2107.3 4202,2156.7 4180.8,2156.7 		"/>
		<polygon class="st11" points="3613.7,2145.5 3533,2145.5 3553.2,2090.7 3543,2090.7 3573.3,2008.1 3603.7,2090.7 3593.5,2090.7 		
			"/>
		<polygon class="st12" points="4187.3,2248.9 4227.7,2248.9 4187.3,2139.2 4146.9,2248.9 		"/>
	</g>
	<g id="opt2_x5F_pack2">
		<polygon class="st11" points="3883.8,2453.3 3756.6,2453.3 3793.3,2389.7 3772,2389.7 3800.5,2340.3 3781.2,2340.3 3820.2,2272.7 
			3859.2,2340.3 3839.9,2340.3 3868.4,2389.7 3847.1,2389.7 		"/>
		<polygon class="st15" points="3521.4,2237.9 3561.8,2237.9 3521.4,2128.2 3481,2237.9 		"/>
		<g>
			<rect x="3632.6" y="2268.5" class="st3" width="21.1" height="28.1"/>
			<polygon class="st15" points="3644.1,2269.9 3690.8,2269.9 3644.1,2143.2 3597.5,2269.9 			"/>
		</g>
		<polygon class="st11" points="4042.1,2178.5 3961.3,2178.5 3981.5,2123.7 3971.3,2123.7 4001.7,2041.1 4032.1,2123.7 
			4021.9,2123.7 		"/>
		<polygon class="st12" points="4035.7,2199.9 4076,2199.9 4035.7,2090.2 3995.3,2199.9 		"/>
	</g>
</g>
<g id="opt3">
	<g class="st25">
		<path class="st26" d="M1220,2866.2c-0.6-0.9-1.2-1.8-1.8-2.7c-1.4-2-2.8-4-4.3-6c-1-1.3-2-2.6-3-3.8c-0.9-1.1-1.9-2.3-2.8-3.4
			c-0.8-0.9-1.6-1.9-2.4-2.8c-4.4-5-9.2-9.8-14.2-14.2c-1.1-1-2.2-1.9-3.3-2.8c-0.9-0.8-1.9-1.6-2.8-2.3
			c-28.8-23.2-65.3-37.1-105.2-37.1h-207c-20.8,0-41.3,1.5-61.6,4.3c-0.6,0.1-1.2,0.2-1.8,0.3c-26.4,3.8-52.2,10-77.3,18.4
			c-3.9,1.3-7.8,2.7-11.6,4.1c-3.9,1.4-7.7,2.9-11.5,4.4c-1.9,0.8-3.8,1.5-5.7,2.3c-5.7,2.4-11.3,4.8-16.9,7.4
			c-1.9,0.9-3.7,1.7-5.6,2.6c-25.4,12.3-49.6,26.9-72.3,43.9c-7,5.2-13.9,10.7-20.6,16.4c-3,2.5-5.9,5.1-8.8,7.6
			c-1.7,1.5-3.5,3.1-5.2,4.7c-1.5,1.4-3,2.8-4.6,4.2c-3,2.9-6,5.7-8.9,8.7c0,0,0,0-0.1,0.1c-2.9,2.9-5.8,5.9-8.6,8.9
			c-8.6,9.1-16.8,18.6-24.7,28.5l-67.2,84.5c-16.1,20.3-23.4,43.3-23.6,65.8h-0.4v130.4c0,39.7,32.1,71.8,71.8,71.8h8.4l12,14.4
			v57.4l32.3,37.1h52.7l51.5,58.6h445.2l74.2-79v-53.9l63.4-70.6v-111.3v-204.6C1247.7,2924.4,1237.5,2892.7,1220,2866.2z"/>
	</g>
	<g>
		<path class="st2" d="M666.7,3478.2l-51.5-58.6h-52.7l-32.3-37.1V3325l-12-14.4h-8.4c-39.7,0-71.8-32.1-71.8-71.8v-130.4h292
			l-15.6,274.1L666.7,3478.2z"/>
		<g>
			<path class="st18" d="M719.7,3372.5l-113.1-160.9c-1.9-2.7-4.9-4.2-8.2-4.2h-52c-19.4,0-38-5.4-53.6-15.7
				c-14.7-9.7-26.6-23.3-34.4-39.5c-7.8-16.2-11.1-34-9.5-51.5c1.7-18.6,9-36.5,21-51.7l67.2-84.5c40.2-50.5,92.1-92.1,150.3-120.1
				c58.1-28.1,123-42.9,187.6-42.9h207c86.9,0,157.5,70.7,157.5,157.5v200.6l-206.1,213.1H719.7z"/>
			<path class="st19" d="M1082,2811.3c39.4,0,76.5,15.3,104.3,43.2s43.2,64.9,43.2,104.3v196.6l-200.3,207.1H724.9l-110.1-156.7
				c-3.7-5.3-9.8-8.5-16.4-8.5h-52c-17.7,0-33.9-4.7-48.1-14.1c-13.2-8.7-23.9-21-30.9-35.5c-7-14.6-10-30.6-8.6-46.3
				c1.5-16.9,7.9-32.6,18.9-46.4l67.2-84.5c19.8-24.9,42.4-47.5,67.2-67.3c24.5-19.6,51.3-36.4,79.6-50
				c28.3-13.6,58.1-24.1,88.7-31.2c30.9-7.1,62.8-10.7,94.5-10.7H1082 M1082,2791.3H875c-134.6,0-261.9,61.4-345.7,166.8l-67.2,84.5
				c-56.1,70.6-5.8,174.7,84.3,174.7h52l116.1,165.2h323.1l211.8-219v-204.6C1249.5,2866.3,1174.5,2791.3,1082,2791.3L1082,2791.3z"
				/>
		</g>
		<polygon class="st2" points="714.6,3382.5 666.7,3478.2 1111.9,3478.2 1037.7,3382.5 		"/>
		<polygon class="st4" points="1249.5,3163.5 1249.5,3274.8 1186.1,3345.4 1186.1,3399.2 1111.9,3478.2 1037.7,3382.5 		"/>
		<polygon class="st3" points="518.3,3310.7 598.5,3217.3 714.6,3382.5 666.7,3478.2 616.4,3419.6 616.4,3365.7 562.6,3419.6 
			530.3,3382.5 530.3,3325 		"/>
	</g>
	<g>
		<polygon class="st13" points="1087.4,3024.6 1110,3076.9 1179.7,3076.9 1200.7,3042 1187.6,3005.4 1126.6,2981.9 		"/>
		<polygon class="st14" points="1087.4,3024.6 1110,3076.9 1131.3,3076.9 1131.3,3076.9 1151.8,3038.5 1126.6,2981.9 		"/>
	</g>
	<g id="opt3_x5F_pack1">
		<path class="st10" d="M1477.8,3051.9v135h-47c0-37-30-67-67-67s-67,30-67,67h-47v-135H1477.8z"/>
		<rect x="1249.8" y="3009.9" class="st27" width="228" height="83"/>
		<rect x="1249.8" y="3009.9" class="st8" width="228" height="41"/>
		<g>
			<polygon class="st13" points="1128,2852.5 1128,2894.4 947.6,2894.4 947.6,2859.5 1006,2799.4 1054.8,2799.4 			"/>
			<polygon class="st14" points="1037.4,2831.6 1037.4,2863.9 1006,2894.4 947.6,2894.4 947.6,2859.5 1006,2799.4 			"/>
		</g>
		<g>
			<polygon class="st13" points="752.1,3043 752.1,3070.4 601.6,3070.4 601.6,3029.3 663.2,2975.4 			"/>
			<polygon class="st14" points="728.5,3070.4 728.5,3070.4 601.6,3070.4 601.6,3029.3 663.2,2975.4 668.5,3029.3 			"/>
		</g>
		<polygon class="st15" points="998.7,3277.3 871.4,3277.3 908.2,3213.7 886.9,3213.7 915.4,3164.3 896.1,3164.3 935.1,3096.7 
			974.1,3164.3 954.8,3164.3 983.3,3213.7 962,3213.7 		"/>
		<polygon class="st12" points="981.2,3308.9 1021.5,3308.9 981.2,3199.2 940.8,3308.9 		"/>
	</g>
	<g id="opt3_x5F_pac2">
		<g>
			<polygon class="st13" points="726,3152.4 726,3207 671.8,3247.4 773.8,3247.4 773.8,3215 			"/>
			<polygon class="st14" points="726,3152.4 655.3,3204.9 655.3,3247.4 671.8,3247.4 726,3207 			"/>
		</g>
		<polygon class="st11" points="905.4,3065.3 778.1,3065.3 814.8,3001.7 793.5,3001.7 822,2952.3 802.7,2952.3 841.7,2884.7 
			880.7,2952.3 861.4,2952.3 889.9,3001.7 868.6,3001.7 		"/>
		<polygon class="st15" points="1086.9,3218.9 1127.3,3218.9 1086.9,3109.2 1046.6,3218.9 		"/>
		<g>
			<rect x="1013.4" y="3029.5" class="st3" width="15" height="20"/>
			<polygon class="st15" points="1021.7,3030.5 1054.9,3030.5 1021.7,2940.2 988.4,3030.5 			"/>
		</g>
		<polygon class="st11" points="730.6,2914.5 649.8,2914.5 670,2859.7 659.8,2859.7 690.2,2777.2 720.6,2859.7 710.4,2859.7 		"/>
	</g>
</g>
</svg>
