<?xml version="1.0" encoding="utf-8"?>
<!-- Generator: Adobe Illustrator 23.1.1, SVG Export Plug-In . SVG Version: 6.00 Build 0)  -->
<svg version="1.1" xmlns="http://www.w3.org/2000/svg" xmlns:xlink="http://www.w3.org/1999/xlink" x="0px" y="0px"
	 viewBox="0 0 4416 4327" style="enable-background:new 0 0 4416 4327;" xml:space="preserve">
<style type="text/css">
	.st0{fill:#8BD1C7;}
	.st1{opacity:0.5;fill:#64C2B5;stroke:#64C2B5;stroke-width:200;stroke-miterlimit:10;}
	.st2{fill:#273152;}
	.st3{fill:none;stroke:#B5C8DE;stroke-width:10;stroke-miterlimit:10;}
	.st4{fill:#6C91BD;}
	.st5{fill:#465982;}
	.st6{fill:#FFFFFF;}
	.st7{fill:#E9EEF5;}
	.st8{fill:#F5B33F;}
	.st9{fill:#C17056;}
	.st10{fill:#AD401E;}
	.st11{fill:#DAE3EE;}
	.st12{fill:#6E352D;}
	.st13{fill:#5B8740;}
	.st14{fill:#566337;}
	.st15{fill:#C4D3E5;}
	.st16{fill:#91ACCD;}
	.st17{fill:#CCD8E8;}
</style>
<g id="background">
	<rect x="0" y="0" class="st0" width="4416" height="4327"/>
</g>
<g id="base">
	<path id="base-shadow" class="st1" d="M3648.3,2097.4L3648.3,2097.4L3493,1942.3c-14.8-14.8-31-27.9-48.2-39.1
		c-5.4-3.5-10.8-6.8-16.4-10c-2.1-1.2-4.3-2.4-6.4-3.5c-43.2-23-91.7-35.4-141.5-35.4h-167.1c-113.6,0-221.2-50.7-293.6-138.3
		l-104.2-126.2c-72.3-87.6-180-138.3-293.6-138.3h-376.8c-9.8,0-19.6,1.4-29,4.3c-1.3,0.4-2.7,0.8-4,1.3l-419.7,146.5
		c-77.2,27-138.2,83.3-172,153.9c-0.1,0.3-0.3,0.6-0.4,0.8c-1.1,2.3-2.1,4.6-3.2,6.9c-0.7,1.7-1.5,3.4-2.2,5.1
		c-0.9,2.1-1.7,4.1-2.5,6.2c-13.8,34.6-21.2,72.1-21.2,110.9v53.1l-149.2,149.2l-29.8,29.8c-71.4,71.4-111.5,168.2-111.5,269.2V2750
		l0,0v0l1.2,1.2v270.3l231.3,246.5v235.5l0.5,0.5v250l250.3,228.7h435.8l49.4-71.1h51c40.8,0,80.2-14.9,110.7-42l88.6-94v-172.5
		l1.5-1.4v0v-174.5l221-201.7h200.9l34,21.6l15.5-21.6h148.3v-3.1l98.2-58.7l0,0h0.7h108.2l61.8-37.1v-64.9l0,0l288-172.1l68.5-40.7
		l-0.2-0.2l19.9-11.9c119.5-71.4,192.6-200.4,192.6-339.6v-282.5L3648.3,2097.4z M2940.5,3060.4l1.8-1.1l-1.8,2.4V3060.4z"/>
	<g>
		<polygon class="st2" points="1103.5,2748.3 1103.5,3020.3 1334.8,3266.7 1335.3,2980.1 		"/>
		<line class="st3" x1="1335.3" y1="2501.1" x2="1387.9" y2="2501.1"/>
		<line class="st3" x1="1428" y1="2584.5" x2="1502.2" y2="2584.5"/>
		<g>
			<path class="st4" d="M2942.4,3060.5v160.7l644.9-385.5c119.5-71.4,192.6-200.4,192.6-339.6v-282.5l-129.8-117.4L2942.4,3060.5z"
				/>
			<polygon class="st5" points="2543.8,3048.1 2543.8,3224.3 2744.6,3224.3 2778.6,3245.9 2794.1,3224.3 2942.4,3224.3 
				2942.4,3048.1 			"/>
			<path class="st5" d="M1585.7,3752.8v228.7h435.8l49.5-71.1h51c40.8,0,80.2-14.9,110.7-42l88.6-94v-173.1l-735.6,58.7V3752.8z"/>
			<g>
				<path class="st6" d="M1589.4,3742.8l-244.6-244.6v-516.9c0-2.7-1.1-5.2-2.9-7.1l-229.5-229.5v-357.2c0-48.9,9.5-96.7,28.2-141.9
					c18.7-45.2,45.8-85.7,80.4-120.3l179.1-179.1c1.9-1.9,2.9-4.4,2.9-7.1v-53.1c0-123.4,78.3-233.7,194.8-274.4l419.7-146.5
					c9.6-3.3,19.6-5,29.7-5h376.8c54.3,0,108.9,12.2,158,35.4c49.1,23.1,93.3,57.5,127.9,99.3l104.2,126.2
					c36.4,44.1,83,80.3,134.8,104.7c51.7,24.4,109.3,37.3,166.5,37.3h167.1c38.4,0,75.8,7.4,111.2,22.1c35.4,14.7,67.2,35.9,94.3,63
					l153.5,153.5v311.2c0,63.4-16.4,126.2-47.4,181.5c-31,55.3-76.1,102-130.2,135l-524.6,320.1h-394c-2.4,0-4.7,0.9-6.5,2.4
					l-222.4,190.4c-2.2,1.9-3.5,4.7-3.5,7.6v346.4l-70.2,66.7c-54.2,51.5-125.3,79.9-200.1,79.9H1589.4z"/>
				<g>
					<path class="st7" d="M2423.9,1470.2c26.6,0,53.3,3,79.2,8.8c25.6,5.8,50.7,14.4,74.5,25.6c23.8,11.2,46.4,25.1,67.2,41.2
						c21,16.3,40.3,35,57.2,55.5l104.2,126.2c18.8,22.8,40.2,43.5,63.6,61.6c23.1,17.9,48.2,33.3,74.6,45.7s54.3,22,82.8,28.4
						c28.8,6.5,58.4,9.8,88,9.8h167.1c37,0,73.2,7.2,107.4,21.4c34.2,14.2,64.8,34.6,91,60.8l150.6,150.6v307
						c0,61.7-16,122.8-46.2,176.6c-30.2,53.8-74,99.2-126.7,131.4l-522.2,318.6h-391.2c-4.8,0-9.4,1.7-13,4.8l-222.4,190.4
						c-4.4,3.8-7,9.4-7,15.2v342.1l-67.1,63.7c-26,24.7-56,43.9-89.2,57.2c-33.2,13.3-68.2,20-104,20h-448.8L1354.8,3494v-512.7
						c0-5.3-2.1-10.4-5.9-14.1l-226.6-226.6v-353c0-47.6,9.2-94.1,27.5-138.1c18.2-44,44.5-83.4,78.2-117l179.1-179.1
						c3.8-3.8,5.9-8.8,5.9-14.1v-53.1c0-29.4,4.6-58.4,13.5-86.2c8.8-27.2,21.7-52.9,38.3-76.3c16.6-23.4,36.6-44,59.4-61.3
						c23.3-17.7,49.2-31.5,76.9-41.2l419.7-146.5c8.5-3,17.4-4.5,26.4-4.5H2423.9 M2423.9,1450.2h-376.8c-11.2,0-22.4,1.9-33,5.6
						l-419.7,146.5c-120.7,42.1-201.5,156-201.5,283.8v53.1l-179.1,179.1c-71.4,71.4-111.5,168.2-111.5,269.2v361.3l232.5,232.5v521
						l250.5,250.5h457.1c77.1,0,151.2-29.6,207-82.7l73.3-69.6v-350.7l222.4-190.4H2942l527-321.5c113.3-69.1,182.4-192.3,182.4-325
						v-315.3l-156.4-156.4c-56.4-56.4-132.8-88-212.5-88h-167.1c-113.6,0-221.2-50.7-293.6-138.3l-104.2-126.2
						C2645.2,1501,2537.5,1450.2,2423.9,1450.2L2423.9,1450.2z"/>
				</g>
			</g>
			<polygon class="st2" points="1585.7,3752.8 1335.3,3502.4 1335.3,3752.8 1585.7,3981.5 			"/>
			<polygon class="st4" points="2021.4,3981.5 2021.4,3817.7 2070.9,3910.4 			"/>
			<polygon class="st4" points="2321.2,3249 2543.8,3060.5 2543.8,3224.3 2322.8,3426 			"/>
			<polygon class="st4" points="2778.6,3245.9 2778.6,3199.5 2794.1,3224.3 			"/>
			<polyline class="st5" points="3499.2,2888.3 3499.2,2881.6 3499.2,2779.2 3567.7,2847.7 			"/>
			<polygon class="st4" points="3211.3,3060.5 3211.3,3125.4 3149.5,3162.5 3040.7,3162.5 3066.1,3048.1 			"/>
			<polygon class="st5" points="3041.3,3162.5 3041.3,3082.1 3149.5,3162.5 			"/>
			<line class="st3" x1="1598" y1="3221.2" x2="1678.4" y2="3221.2"/>
			<line class="st3" x1="1780.4" y1="3357.2" x2="1857.6" y2="3357.2"/>
			<line class="st3" x1="2070.9" y1="1966.4" x2="2006" y2="1966.4"/>
			<line class="st3" x1="2070.9" y1="2049.8" x2="2135.8" y2="2049.8"/>
			<line class="st3" x1="3149.5" y1="2566" x2="3078.4" y2="2566"/>
			<line class="st3" x1="3093.9" y1="2658.7" x2="2995" y2="2658.7"/>
			<line class="st3" x1="1965.8" y1="2436.2" x2="2036.9" y2="2436.2"/>
			<line class="st3" x1="2191.4" y1="2584.5" x2="2253.2" y2="2584.5"/>
			<line class="st3" x1="2723" y1="1991.1" x2="2645.7" y2="1991.1"/>
			<line class="st3" x1="1638.2" y1="1802.6" x2="1706.2" y2="1802.6"/>
			<line class="st3" x1="3344.2" y1="2170.4" x2="3260.8" y2="2170.4"/>
		</g>
	</g>
	<g>
		<g>
			<polygon class="st4" points="1308.2,2738.6 1802.6,2738.8 1720.1,2557 1529.5,2487 1335,2609 			"/>
			<polygon class="st5" points="1529.4,2487.1 1582.8,2583.6 1455.7,2618 1474.3,2738.7 1308.3,2738.7 1335,2609.1 			"/>
			<path class="st8" d="M1622.2,2738.7c-1.3,0,38.1-99.1,38.1-99.1l64.9,98.5L1622.2,2738.7z"/>
			<polygon class="st2" points="1660.3,2639.6 1725.1,2737.4 1682.5,2738 1645.8,2676.2 			"/>
		</g>
		<g>
			<polygon class="st2" points="2264.8,1273.8 2209,1273.8 1954.5,1825.9 2158.5,1826 2158.5,1825.9 2158.5,1825.9 			"/>
			<polygon class="st7" points="2264.8,1273.7 2307.6,1208.2 2305,1065.6 2305,1065.6 2304.8,1066 2209,1273.8 2264.8,1273.8 			"/>
			<polygon class="st9" points="2425.8,1826 2655.5,1825.9 2425.7,1825.9 			"/>
			<polygon class="st5" points="2390.5,1475.4 2310.7,1370 2307.8,1209 2307.8,1208.9 2307.6,1208.2 2307.6,1208.2 2307.6,1208.3 
				2264.8,1273.8 2158.5,1825.9 2425.7,1825.9 			"/>
			<polygon class="st10" points="2655.5,1825.9 2406,1284.6 2405.9,1284.6 2406,1284.7 			"/>
			<polygon class="st10" points="2264.8,1273.8 2264.8,1273.8 2264.8,1273.8 2307.6,1208.3 2307.6,1208.2 2264.8,1273.7 			"/>
			<polygon class="st4" points="2307.8,1209 2310.7,1370 2390.5,1475.4 2425.7,1825.9 2655.5,1825.9 2406,1284.7 			"/>
			<polygon class="st6" points="2405.9,1284.6 2305,1065.6 2307.8,1208.9 2307.8,1208.9 			"/>
			<polygon class="st6" points="2406,1284.7 2405.9,1284.6 2307.8,1208.9 2307.8,1208.9 2307.8,1209 			"/>
		</g>
		<g>
			<g>
				<polygon class="st5" points="2576.6,1416.5 2576.5,1416.5 2365.2,1842.3 2646.3,1842.3 2646.4,1840.6 				"/>
				<polygon class="st4" points="2576.6,1416.5 2646.4,1840.6 2646.3,1842.3 2787.8,1842.3 				"/>
			</g>
			<polygon class="st7" points="2523.1,1524.1 2559.9,1524.1 2606.5,1598.4 2576.5,1416.3 			"/>
			<polygon class="st6" points="2576.5,1416.3 2606.5,1597.7 2666.8,1597.7 			"/>
		</g>
		<g>
			<polygon class="st4" points="2133.7,1692 2038.7,1692 2038.7,1946.1 2325.4,1946.1 			"/>
			<polygon class="st2" points="1943.6,1692 1752,1946.1 2038.7,1946.1 2038.7,1692 			"/>
			<polygon class="st6" points="2133.7,1692 2038.7,1565.9 2038.7,1692 			"/>
			<polygon class="st7" points="2038.7,1565.9 1943.6,1692 2038.7,1692 			"/>
		</g>
		<g>
			<polygon class="st4" points="2768.7,2025.9 2768.7,2101.1 2444.7,2101.1 2444.7,2038.4 2549.6,1930.4 2637.2,1930.4 			"/>
			<polygon class="st5" points="2605.9,1988.4 2605.9,2046.3 2549.6,2101.1 2444.7,2101.1 2444.7,2038.4 2549.6,1930.4 			"/>
		</g>
		<g>
			<polygon class="st4" points="1492.7,2210.5 1492.7,2271.1 1231.2,2271.1 1231.2,2220.6 1315.8,2133.4 1386.6,2133.4 			"/>
			<polygon class="st5" points="1361.3,2180.1 1361.3,2226.9 1315.8,2271.1 1231.2,2271.1 1231.2,2220.6 1315.8,2133.4 			"/>
		</g>
		<g>
			<polygon class="st4" points="2062.4,2968.5 2062.4,3008.1 1844.2,3008.1 1844.2,2948.7 1933.5,2870.4 			"/>
			<polygon class="st5" points="2028.2,3008.1 2028.2,3008.1 1844.2,3008.1 1844.2,2948.7 1933.5,2870.4 1941.2,2948.7 			"/>
		</g>
		<g>
			<polygon class="st4" points="2763.9,2499.9 2763.9,2593.2 2361.6,2593.2 2361.6,2515.5 2491.8,2381.4 2600.6,2381.4 			"/>
			<polygon class="st5" points="2561.8,2453.3 2561.8,2525.2 2491.8,2593.2 2361.6,2593.2 2361.6,2515.5 2491.8,2381.4 			"/>
		</g>
		<g>
			<polygon class="st4" points="2882,2636.8 2882,2676.5 2663.9,2676.5 2663.9,2617 2753.1,2538.8 			"/>
			<polygon class="st5" points="2847.9,2676.5 2847.8,2676.5 2663.9,2676.5 2663.9,2617 2753.1,2538.8 2760.8,2617 			"/>
		</g>
		<g>
			<path class="st11" d="M2662.9,1126.8c-1.5,0-2.9,0.1-4.4,0.2c-13.4-46.4-56.2-80.3-106.9-80.3c-59.5,0-108.1,46.7-111.1,105.5
				c-7.7-4-16.4-6.3-25.7-6.3c-30.7,0-55.6,24.9-55.6,55.6c0,0.2,0,0.3,0,0.5h368.1c0.5-3.3,0.8-6.6,0.8-10
				C2728,1156,2698.8,1126.8,2662.9,1126.8z"/>
		</g>
		<g>
			<path class="st6" d="M2917.2,1525.2c-1,0-2,0-2.9,0.1c-9.1-31.4-38-54.3-72.2-54.3c-40.2,0-73.1,31.6-75.1,71.3
				c-5.2-2.7-11.1-4.3-17.4-4.3c-20.8,0-37.6,16.8-37.6,37.6c0,0.1,0,0.2,0,0.3h248.8c0.3-2.2,0.5-4.5,0.5-6.8
				C2961.2,1544.9,2941.5,1525.2,2917.2,1525.2z"/>
		</g>
		<g>
			<path class="st6" d="M2179.1,1293.5c-1.7,0-3.4,0.1-5.1,0.2c-15.8-54.7-66.2-94.6-125.9-94.6c-70.1,0-127.4,55.1-130.9,124.3
				c-9.1-4.7-19.4-7.4-30.3-7.4c-36.2,0-65.5,29.3-65.5,65.5c0,0.2,0,0.4,0,0.6h433.6c0.6-3.8,0.9-7.8,0.9-11.8
				C2255.8,1327.8,2221.5,1293.5,2179.1,1293.5z"/>
		</g>
	</g>
	<g id="base_x5F_pack1">
		<g>
			<polygon class="st4" points="3094.3,1942.2 3127.2,2018 3228.3,2018 3258.6,1967.5 3239.6,1914.4 3151.2,1880.3 			"/>
			<polygon class="st5" points="3094.3,1942.2 3127.2,2018 3158.1,2018 3158.1,2018 3187.8,1962.4 3151.2,1880.3 			"/>
		</g>
		<g>
			<polygon class="st4" points="1664.4,3437 1664.4,3476.7 1446.2,3476.7 1446.2,3417.2 1535.5,3339 			"/>
			<polygon class="st5" points="1630.2,3476.7 1630.2,3476.7 1446.2,3476.7 1446.2,3417.2 1535.5,3339 1543.2,3417.2 			"/>
		</g>
		<g>
			<rect x="3189.5" y="2179.9" class="st12" width="41.7" height="55.6"/>
			<g>
				<polygon class="st13" points="3162.8,2062.1 3118.4,2182.6 3210.8,2182.6 3303.3,2182.6 3245.3,2025.3 				"/>
				<polygon class="st6" points="3210.8,1931.6 3162.8,2062.1 3245.3,2025.3 				"/>
			</g>
		</g>
		<g>
			<polygon class="st13" points="3086.8,2193.1 3050.5,2292 3126.2,2292 3202,2292 3154.5,2163 			"/>
			<polygon class="st6" points="3126.2,2086.1 3086.8,2193.1 3154.5,2163 			"/>
		</g>
		<g>
			<polygon class="st14" points="1317.7,2351.9 1297.2,2296.2 1248.5,2280.2 1222.1,2351.9 1238.1,2351.9 1206.3,2438.2 
				1333.4,2438.2 1301.7,2351.9 			"/>
			<polygon class="st6" points="1269.9,2222 1248.5,2280.2 1297.2,2296.2 			"/>
		</g>
		<g>
			<polygon class="st14" points="1450.4,2774.5 1431.5,2723 1386.5,2708.2 1362.1,2774.5 1376.9,2774.5 1347.5,2854.3 1465,2854.3 
				1435.6,2774.5 			"/>
			<polygon class="st6" points="1406.3,2654.4 1386.5,2708.2 1431.5,2723 			"/>
		</g>
	</g>
	<g id="base_x5F_pack2">
		<g>
			<polygon class="st14" points="2535.5,2627.5 2510.5,2559.8 2451.2,2540.2 2419,2627.5 2438.6,2627.5 2399.9,2732.7 
				2554.6,2732.7 2516,2627.5 			"/>
			<polygon class="st6" points="2477.3,2469.4 2451.2,2540.2 2510.5,2559.8 			"/>
		</g>
		<g>
			<polygon class="st13" points="2361.2,2662.3 2327.8,2753 2397.4,2753 2466.9,2753 2423.4,2634.6 			"/>
			<polygon class="st6" points="2397.4,2564 2361.2,2662.3 2423.4,2634.6 			"/>
		</g>
		<g>
			<polygon class="st4" points="2784.2,2891.1 2784.2,2945.7 2729.9,2986.1 2832,2986.1 2832,2953.7 			"/>
			<polygon class="st5" points="2784.2,2891.1 2713.5,2943.6 2713.5,2986.1 2729.9,2986.1 2784.2,2945.7 			"/>
		</g>
		<g>
			<polygon class="st4" points="1739.5,2386.4 1771.4,2460 1869.6,2460 1899,2410.9 1880.6,2359.4 1794.7,2326.3 			"/>
			<polygon class="st5" points="1739.5,2386.4 1771.4,2460 1801.4,2460 1801.4,2460 1830.3,2406 1794.7,2326.3 			"/>
		</g>
		<g>
			<polygon class="st4" points="2095,3612.2 2095,3690.6 1757,3690.6 1757,3625.3 1866.4,3512.6 1957.8,3512.6 			"/>
			<polygon class="st5" points="1925.2,3573 1925.2,3633.4 1866.4,3690.6 1757,3690.6 1757,3625.3 1866.4,3512.6 			"/>
		</g>
		<g>
			<polygon class="st4" points="3565,2333.2 3565,2377.6 3321,2377.6 3321,2311.1 3420.8,2223.6 			"/>
			<polygon class="st5" points="3526.8,2377.6 3526.8,2377.6 3321,2377.6 3321,2311.1 3420.8,2223.6 3429.5,2311.1 			"/>
		</g>
		<g>
			<polygon class="st4" points="2963.7,2613.8 3458.1,2613.9 3375.5,2432.2 3184.9,2362.2 2990.4,2484.2 			"/>
			<polygon class="st5" points="3184.9,2362.2 3238.3,2458.8 3111.2,2493.1 3129.8,2613.9 2963.8,2613.9 2990.4,2484.2 			"/>
			<path class="st8" d="M3277.7,2613.9c-1.3,0,38.1-99.1,38.1-99.1l64.9,98.5L3277.7,2613.9z"/>
			<polygon class="st2" points="3315.8,2514.7 3380.6,2612.6 3338,2613.2 3301.3,2551.4 			"/>
		</g>
		<g>
			<polygon class="st13" points="1866.2,3628.9 1835.6,3712 1899.3,3712 1963,3712 1923.1,3603.6 			"/>
			<polygon class="st6" points="1899.3,3539 1866.2,3628.9 1923.1,3603.6 			"/>
		</g>
		<g>
			<polygon class="st14" points="3083,2637.9 3059.7,2574.5 3004.2,2556.2 2974.1,2637.9 2992.3,2637.9 2956.1,2736.3 3101,2736.3 
				3064.8,2637.9 			"/>
			<polygon class="st6" points="3028.6,2489.9 3004.2,2556.2 3059.7,2574.5 			"/>
		</g>
		<g>
			<rect x="3510.5" y="2386.1" class="st12" width="31.6" height="42.1"/>
			<g>
				<polygon class="st13" points="3490.2,2296.9 3456.6,2388.2 3526.6,2388.2 3596.6,2388.2 3552.7,2269 				"/>
				<polygon class="st6" points="3526.6,2198 3490.2,2296.9 3552.7,2269 				"/>
			</g>
		</g>
	</g>
	<g id="base_x5F_pack3">
		<g>
			<polygon class="st14" points="1926.6,2528.4 1900.9,2458.7 1839.8,2438.5 1806.8,2528.4 1826.9,2528.4 1787,2636.5 
				1946.3,2636.5 1906.5,2528.4 			"/>
			<polygon class="st7" points="1866.7,2365.6 1839.8,2438.5 1900.9,2458.7 			"/>
		</g>
		<g>
			<rect x="2854.4" y="2382.1" class="st12" width="29.6" height="39.4"/>
			<g>
				<polygon class="st13" points="2835.4,2298.5 2803.9,2384 2869.5,2384 2935,2384 2893.9,2272.5 				"/>
				<polygon class="st7" points="2869.5,2206 2835.4,2298.5 2893.9,2272.5 				"/>
			</g>
		</g>
		<g>
			<polygon class="st4" points="1766.1,2989.2 1678.4,2989.2 1678.4,3223.8 1943,3223.8 			"/>
			<polygon class="st2" points="1590.7,2989.2 1413.8,3223.8 1678.4,3223.8 1678.4,2989.2 			"/>
			<polygon class="st6" points="1766.1,2989.2 1678.4,2872.8 1678.4,2989.2 			"/>
			<polygon class="st7" points="1678.4,2872.8 1590.7,2989.2 1678.4,2989.2 			"/>
		</g>
		<g>
			<polygon class="st13" points="1755,3196.1 1716.8,3300 1796.4,3300 1876,3300 1826.1,3164.4 			"/>
			<polygon class="st6" points="1796.4,3083.7 1755,3196.1 1826.1,3164.4 			"/>
		</g>
		<g>
			<polygon class="st4" points="1594.6,2317.9 1594.6,2372.5 1540.4,2412.9 1642.4,2412.9 1642.4,2380.6 			"/>
			<polygon class="st5" points="1594.6,2317.9 1523.9,2370.5 1523.9,2412.9 1540.4,2412.9 1594.6,2372.5 			"/>
		</g>
		<g>
			<polygon class="st4" points="2238,2947.3 2279,3042 2405.2,3042 2443.1,2978.9 2419.4,2912.6 2309,2870 			"/>
			<polygon class="st5" points="2238,2947.3 2279,3042 2317.6,3042 2317.6,3042 2354.7,2972.6 2309,2870 			"/>
		</g>
		<g>
			<polygon class="st4" points="3548.6,2063.1 3548.6,2104.9 3368.2,2104.9 3368.2,2070.1 3426.6,2009.9 3475.4,2009.9 			"/>
			<polygon class="st5" points="3458,2042.2 3458,2074.4 3426.6,2104.9 3368.2,2104.9 3368.2,2070.1 3426.6,2009.9 			"/>
		</g>
		<g>
			<polygon class="st4" points="2262,2497.5 2262,2534.9 2056.2,2534.9 2056.2,2478.8 2140.4,2405 			"/>
			<polygon class="st5" points="2229.8,2534.9 2229.7,2534.9 2056.2,2534.9 2056.2,2478.8 2140.4,2405 2147.7,2478.8 			"/>
		</g>
	</g>
</g>
<g id="opt1">
	<g id="opt1_1_">
		<g>
			<path class="st5" d="M1929.2,2213.5l-94.1-107.2h-96.3l-59.1-67.8v-105.1l-21.9-26.3h-15.3c-72.5,0-131.3-58.8-131.3-131.3
				v-238.6h534l-28.5,501.2L1929.2,2213.5z"/>
			<g>
				<path class="st6" d="M2022,2028.4l-209.3-297.8c-1.9-2.7-4.9-4.2-8.2-4.2h-95.2c-37.2,0-72.6-10.4-102.6-30.1
					c-28.1-18.5-50.9-44.6-65.8-75.6s-21.2-65-18.2-98.6c3.2-35.7,17.1-70,40.2-99.1l122.9-154.6c37.4-47.1,80.2-89.9,127.2-127.4
					c46.4-37,97.1-68.8,150.5-94.6c53.5-25.8,109.9-45.6,167.8-59c58.5-13.5,118.7-20.3,178.9-20.3h378.5
					c79.2,0,153.6,30.8,209.6,86.8c56,56,86.8,130.4,86.8,209.6v370.2l-381.6,394.6H2022z"/>
				<path class="st7" d="M2688.7,977.2c38.7,0,76.2,7.6,111.5,22.5c34.1,14.4,64.7,35.1,91,61.4c26.3,26.3,47,56.9,61.4,91
					c14.9,35.3,22.5,72.8,22.5,111.5v366.2l-375.9,388.6h-572.1l-206.3-293.5c-3.7-5.3-9.8-8.5-16.4-8.5h-95.2
					c-35.2,0-68.8-9.9-97.1-28.5c-26.6-17.5-48.2-42.3-62.3-71.6s-20.1-61.6-17.3-93.3c3-33.8,16.2-66.2,38.1-93.7l122.9-154.6
					c37-46.5,79.2-88.8,125.6-125.8c45.8-36.5,95.8-68,148.7-93.5c52.8-25.5,108.5-45.1,165.7-58.2c57.8-13.3,117.2-20.1,176.6-20.1
					H2688.7 M2688.7,957.2h-378.5c-246.2,0-479,112.3-632.2,305.1l-122.9,154.6c-102.6,129.1-10.7,319.6,154.2,319.6h95.2l212.3,302
					h590.9l387.4-400.5v-374.3C2995.1,1094.4,2857.9,957.2,2688.7,957.2L2688.7,957.2z"/>
			</g>
			<polygon class="st5" points="2016.8,2038.4 1929.2,2213.5 2743.4,2213.5 2607.7,2038.4 			"/>
			<polygon class="st4" points="2995.1,1637.9 2995.1,1841.4 2879.1,1970.5 2879.1,2069 2743.4,2213.5 2607.7,2038.4 			"/>
			<polygon class="st2" points="1657.8,1907.1 1804.5,1736.4 2016.8,2038.4 1929.2,2213.5 1837.3,2106.2 1837.3,2007.7 
				1738.8,2106.2 1679.7,2038.4 1679.7,1933.3 			"/>
		</g>
		<g>
			<polygon class="st2" points="2268.2,691.3 2213.6,691.3 1964.2,1232.3 2164.1,1232.3 2164.1,1232.3 2164.1,1232.3 			"/>
			<polygon class="st7" points="2268.2,691.2 2310.2,627.1 2307.6,487.4 2307.6,487.3 2307.4,487.7 2213.6,691.3 2268.2,691.3 			
				"/>
			<polygon class="st9" points="2425.9,1232.3 2651,1232.3 2425.9,1232.3 			"/>
			<polygon class="st5" points="2391.3,888.8 2313.2,785.5 2310.4,627.8 2310.4,627.7 2310.2,627.1 2310.2,627.1 2310.2,627.2 
				2268.2,691.3 2164.1,1232.3 2425.9,1232.3 			"/>
			<polygon class="st10" points="2651,1232.3 2406.6,701.9 2406.5,701.9 2406.6,702 			"/>
			<polygon class="st10" points="2268.2,691.3 2268.2,691.3 2268.2,691.3 2310.2,627.2 2310.2,627.1 2268.2,691.2 			"/>
			<polygon class="st4" points="2310.4,627.8 2313.2,785.5 2391.3,888.8 2425.9,1232.3 2651,1232.3 2406.6,702 			"/>
			<polygon class="st6" points="2406.5,701.9 2307.6,487.4 2310.4,627.7 2310.4,627.7 			"/>
			<polygon class="st6" points="2406.6,702 2406.5,701.9 2310.4,627.7 2310.4,627.7 2310.4,627.8 			"/>
		</g>
		<g>
			<g>
				<polygon class="st5" points="2021.3,839 2021.3,839 1737.5,1410.7 2114.9,1410.7 2115.1,1408.5 				"/>
				<polygon class="st4" points="2021.3,839 2115.1,1408.5 2114.9,1410.7 2305,1410.7 				"/>
			</g>
			<polygon class="st7" points="1949.6,983.5 1998.9,983.5 2061.5,1083.2 2021.3,838.8 			"/>
			<polygon class="st6" points="2021.3,838.8 2061.5,1082.3 2142.5,1082.3 			"/>
		</g>
		<g>
			<polygon class="st4" points="2711.3,1039 2621.2,1039 2621.2,1280 2893,1280 			"/>
			<polygon class="st2" points="2531.1,1039 2349.5,1280 2621.2,1280 2621.2,1039 			"/>
			<polygon class="st6" points="2711.3,1039 2621.2,919.5 2621.2,1039 			"/>
			<polygon class="st7" points="2621.2,919.5 2531.1,1039 2621.2,1039 			"/>
		</g>
		<g>
			<path class="st11" d="M2700.2,742.8c-1.5,0-3,0.1-4.5,0.2c-13.9-48.3-58.4-83.6-111.2-83.6c-61.9,0-112.5,48.6-115.6,109.8
				c-8-4.2-17.1-6.6-26.7-6.6c-32,0-57.9,25.9-57.9,57.9c0,0.2,0,0.3,0,0.5h382.8c0.5-3.4,0.8-6.9,0.8-10.4
				C2768,773.2,2737.7,742.8,2700.2,742.8z"/>
		</g>
		<g>
			<path class="st6" d="M2075,543.9c-1.6,0-3.2,0.1-4.8,0.2c-14.8-51.3-62.1-88.8-118.1-88.8c-65.8,0-119.5,51.7-122.8,116.6
				c-8.5-4.4-18.2-7-28.4-7c-34,0-61.5,27.5-61.5,61.5c0,0.2,0,0.4,0,0.6h406.8c0.6-3.6,0.8-7.3,0.8-11.1
				C2147,576.2,2114.8,543.9,2075,543.9z"/>
		</g>
	</g>
	<g id="opt1_x5F_pack1">
		<g>
			<polygon class="st4" points="2131.5,1565.4 2649,1565.6 2562.6,1375.3 2363.1,1302.1 2159.5,1429.7 			"/>
			<polygon class="st5" points="2363,1302.1 2418.9,1403.2 2285.9,1439.1 2305.4,1565.5 2131.5,1565.5 2159.5,1429.8 			"/>
			<path class="st8" d="M2460.2,1565.5c-1.4,0,39.8-103.8,39.8-103.8l67.9,103.1L2460.2,1565.5z"/>
			<polygon class="st2" points="2500,1461.7 2567.9,1564.2 2523.3,1564.8 2484.9,1500.1 			"/>
		</g>
		<g>
			<polygon class="st4" points="1743.8,1429.7 1743.8,1518.9 1655.1,1585 1822,1585 1822,1532.1 			"/>
			<polygon class="st5" points="1743.8,1429.7 1628.1,1515.6 1628.1,1585 1655.1,1585 1743.8,1518.9 			"/>
		</g>
		<g>
			<polygon class="st4" points="2045,1883.9 2073.2,1949 2160,1949 2186,1905.6 2169.7,1860.1 2093.8,1830.8 			"/>
			<polygon class="st5" points="2045,1883.9 2073.2,1949 2099.7,1949 2099.7,1949 2125.3,1901.3 2093.8,1830.8 			"/>
		</g>
		<g>
			<polygon class="st4" points="2780,1763.8 2780,1826.3 2510.6,1826.3 2510.6,1774.2 2597.8,1684.4 2670.7,1684.4 			"/>
			<polygon class="st5" points="2644.7,1732.6 2644.7,1780.7 2597.8,1826.3 2510.6,1826.3 2510.6,1774.2 2597.8,1684.4 			"/>
		</g>
		<g>
			<polygon class="st13" points="2791.3,1459.2 2749,1574 2837,1574 2925,1574 2869.8,1424.2 			"/>
			<polygon class="st11" points="2837,1335 2791.3,1459.2 2869.8,1424.2 			"/>
		</g>
		<g>
			<polygon class="st13" points="2337.8,1203.1 2301.4,1302 2377.2,1302 2453,1302 2405.5,1173 			"/>
			<polygon class="st6" points="2377.2,1096.1 2337.8,1203.1 2405.5,1173 			"/>
		</g>
	</g>
	<g id="opt1_x5F_pack2">
		<g>
			<polygon class="st4" points="2076.6,1725.5 2076.6,1752.8 1926.1,1752.8 1926.1,1711.8 1987.7,1657.8 			"/>
			<polygon class="st5" points="2053,1752.8 2053,1752.8 1926.1,1752.8 1926.1,1711.8 1987.7,1657.8 1993,1711.8 			"/>
		</g>
		<g id="Yéti">
			<path class="st4" d="M2568.5,1960.2h1.4c4.7,0,8.5-3.8,8.5-8.5v-45.1c0-4.7-3.8-8.5-8.5-8.5h-1.4c-4.7,0-8.5,3.8-8.5,8.5v45.1
				C2560,1956.4,2563.8,1960.2,2568.5,1960.2z"/>
			<path class="st4" d="M2584.6,1987.2h40.3c11,0,20-9,20-20v-68.7h-60.3c-6.6,0-12,5.4-12,12v64.7
				C2572.6,1981.8,2578,1987.2,2584.6,1987.2z"/>
			<rect x="2626.8" y="1939.8" class="st5" width="4.1" height="47.1"/>
			<rect x="2606.4" y="1939.8" class="st5" width="4.1" height="47.1"/>
			<rect x="2586.6" y="1939.8" class="st5" width="4.1" height="47.1"/>
			<path class="st4" d="M2064.6,1960.2h-1.4c-4.7,0-8.5-3.8-8.5-8.5v-45.1c0-4.7,3.8-8.5,8.5-8.5h1.4c4.7,0,8.5,3.8,8.5,8.5v45.1
				C2073.1,1956.4,2069.3,1960.2,2064.6,1960.2z"/>
			<path class="st4" d="M2048.5,1987.2h-40.3c-11,0-20-9-20-20v-68.7h60.3c6.6,0,12,5.4,12,12v64.7
				C2060.5,1981.8,2055.1,1987.2,2048.5,1987.2z"/>
			<path class="st4" d="M2475,1993h-112.6c-4.2,0-7.6-3.4-7.6-7.6v-19.7h110.1c9.7,0,17.6,7.9,17.6,17.6v2.1
				C2482.5,1989.6,2479.1,1993,2475,1993z"/>
			<path class="st4" d="M2142.1,1993h112.6c4.2,0,7.6-3.4,7.6-7.6v-19.7h-110.1c-9.7,0-17.6,7.9-17.6,17.6v2.1
				C2134.5,1989.6,2137.9,1993,2142.1,1993z"/>
			<path class="st15" d="M2477.7,1547.4h-327.5v272.9c0,18.7,9.5,35.2,23.9,45.1v36.7c0,5.6,4.6,10.2,10.2,10.2h0.7v24.6
				c0,5.6,4.6,10.2,10.2,10.2h1.4v4.9c0,11.3,9.2,20.5,20.5,20.5h36.2c11.3,0,20.5-9.2,20.5-20.5v-5.3c4.3-1.2,7.5-5.2,7.5-9.9
				v-16.1c4.3-1.2,7.5-5.2,7.5-9.9v-36h46.4v36c0,4.7,3.2,8.6,7.5,9.9v16.1c0,4.7,3.2,8.6,7.5,9.9v5.3c0,11.3,9.2,20.5,20.5,20.5
				h36.2c11.3,0,20.5-9.2,20.5-20.5v-4.9h1.4c5.6,0,10.2-4.6,10.2-10.2v-24.6h0.7c5.6,0,10.2-4.6,10.2-10.2V1868
				c16.7-9.4,28-27.2,28-47.6V1547.4z"/>
			<path class="st11" d="M2307.5,1480.6h12.9c42.6,0,77.5,34.9,77.5,77.5v12.9c0,42.6-34.9,77.5-77.5,77.5h-12.9
				c-42.6,0-77.5-34.9-77.5-77.5V1558C2230.1,1515.4,2264.9,1480.6,2307.5,1480.6z"/>
			<g>
				<path class="st4" d="M2383.6,1555.6c0,11.5-4.5,22.3-12.7,30.5c-5.5,5.5-12.3,9.4-19.7,11.3l-4.3,1.1l-0.8,0.2v9.3
					c0,17.7-14.4,32.1-32.1,32.1c-8.5,0-16.6-3.4-22.6-9.4c-6.1-6.1-9.4-14.1-9.4-22.6v-9.3l-0.8-0.2l-4.3-1.1
					c-9.1-2.4-17.3-7.8-23.2-15.2c-6-7.7-9.2-16.9-9.2-26.6c0-11.5,4.5-22.3,12.7-30.5c8.2-8.2,19-12.7,30.5-12.7h52.7
					c11.5,0,22.3,4.5,30.5,12.7C2379.1,1533.3,2383.6,1544.1,2383.6,1555.6z"/>
			</g>
			<circle class="st5" cx="2305.8" cy="1582.9" r="4.1"/>
			<circle class="st5" cx="2320.8" cy="1582.9" r="4.1"/>
			<circle class="st6" cx="2276.5" cy="1557" r="27.3"/>
			<circle class="st5" cx="2278.5" cy="1552.9" r="17.1"/>
			<circle class="st6" cx="2352.2" cy="1557" r="27.3"/>
			<circle class="st5" cx="2350.8" cy="1552.9" r="17.1"/>
			<path class="st15" d="M2340.3,1505.6h-52.7c-13.8,0-26.3,5.6-35.4,14.7c-9.1,9.1-14.7,21.6-14.7,35.4c0,18.2,9.9,34.2,24.5,43
				c4,2.4,8.4,4.3,13,5.5v4.1c0,10.7,4.4,20.4,11.4,27.5c7.1,7,16.8,11.4,27.5,11.4c21.4,0,38.9-17.5,38.9-38.9v-4.1
				c4.6-1.2,9-3.1,13-5.5c3.6-2.1,6.9-4.7,9.8-7.6c9.1-9.1,14.7-21.6,14.7-35.4C2390.4,1528.1,2367.9,1505.6,2340.3,1505.6z
				 M2370.9,1586.2c-5.5,5.5-12.3,9.4-19.7,11.3l-4.3,1.1l-0.8,0.2v9.3c0,17.7-14.4,32.1-32.1,32.1c-8.5,0-16.6-3.4-22.6-9.4
				c-6.1-6.1-9.4-14.1-9.4-22.6v-9.3l-0.8-0.2l-4.3-1.1c-9.1-2.4-17.3-7.8-23.2-15.2c-6-7.7-9.2-16.9-9.2-26.6
				c0-11.5,4.5-22.3,12.7-30.5c8.2-8.2,19-12.7,30.5-12.7h52.7c11.5,0,22.3,4.5,30.5,12.7c8.2,8.2,12.7,19,12.7,30.5
				C2383.6,1567.1,2379.1,1578,2370.9,1586.2z"/>
			
				<rect x="2252.6" y="1524.9" transform="matrix(0.985 0.1724 -0.1724 0.985 298.9454 -370.2458)" class="st2" width="56.6" height="21.8"/>
			
				<rect x="2323.5" y="1524.9" transform="matrix(-0.985 0.1724 -0.1724 -0.985 4933.2744 2643.189)" class="st2" width="56.6" height="21.8"/>
			<path class="st6" d="M2291.5,1598.6h6.4l-3.2-5.5l-2.1-3.7c-0.5-0.8-1.7-0.8-2.1,0l-2.1,3.7l-3.2,5.5H2291.5z"/>
			<path class="st6" d="M2335.8,1598.6h6.4l-3.2-5.5l-2.1-3.7c-0.5-0.8-1.7-0.8-2.1,0l-2.1,3.7l-3.2,5.5H2335.8z"/>
			<polygon class="st2" points="2346.8,1598.6 2346.1,1598.8 2346.1,1605.4 2281.9,1605.4 2281.9,1598.8 2281.1,1598.6 			"/>
			<path class="st4" d="M2403.3,1834h-178.6c-21.4,0-39-17.5-39-39v-85.1c0-21.4,17.6-39,39-39h178.6c21.4,0,39,17.6,39,39v85.1
				C2442.3,1816.5,2424.7,1834,2403.3,1834z"/>
			<circle class="st15" cx="2185.7" cy="1679.8" r="21.8"/>
			<circle class="st15" cx="2222.5" cy="1670.9" r="21.8"/>
			<circle class="st15" cx="2285.3" cy="1670.9" r="21.8"/>
			<circle class="st15" cx="2390.4" cy="1670.9" r="21.8"/>
			<circle class="st15" cx="2342" cy="1670.9" r="15.7"/>
			<circle class="st15" cx="2413.6" cy="1670.9" r="15.7"/>
			<circle class="st15" cx="2439.5" cy="1683.9" r="15.7"/>
			<circle class="st15" cx="2252.6" cy="1670.9" r="13"/>
			<circle class="st15" cx="2314" cy="1670.9" r="13"/>
			<circle class="st15" cx="2367.9" cy="1670.9" r="13"/>
			<circle class="st16" cx="2235.3" cy="1719.4" r="10.9"/>
			<circle class="st5" cx="2235.3" cy="1719.4" r="5.2"/>
			<circle class="st16" cx="2392.7" cy="1719.4" r="10.9"/>
			<circle class="st5" cx="2392.7" cy="1719.4" r="5.2"/>
			<path class="st15" d="M2022.1,1547.4h127.8v97.2h-127.8c-24.7,0-44.9-20.2-44.9-44.9v-7.5
				C1977.2,1567.6,1997.4,1547.4,2022.1,1547.4z"/>
			<path class="st15" d="M2605.8,1547.4h-127.8v97.2h127.8c24.7,0,44.9-20.2,44.9-44.9v-7.5
				C2650.7,1567.6,2630.5,1547.4,2605.8,1547.4z"/>
			<path class="st15" d="M2553.8,1602.8v285.1c0,7.5,6.1,13.6,13.6,13.6h69.9c7.5,0,13.6-6.1,13.6-13.6v-285.1
				c0-26.7-21.9-48.6-48.6-48.6l0,0C2575.6,1554.2,2553.8,1576.1,2553.8,1602.8z"/>
			<path class="st15" d="M1977.2,1602.8v285.1c0,7.5,6.1,13.6,13.6,13.6h69.9c7.5,0,13.6-6.1,13.6-13.6v-285.1
				c0-26.7-21.9-48.6-48.6-48.6h0C1999.1,1554.2,1977.2,1576.1,1977.2,1602.8z"/>
			<path class="st15" d="M2093.3,1716h-4.3c-14,0-25.5-11.5-25.5-25.5v-45.2c0-14,11.5-25.5,25.5-25.5h4.3c14,0,25.5,11.5,25.5,25.5
				v45.2C2118.8,1704.5,2107.4,1716,2093.3,1716z"/>
			<path class="st15" d="M2084.1,1778.1h-2.9c-9.7,0-17.6-7.9-17.6-17.6v-60.9c0-9.7,7.9-17.6,17.6-17.6h2.9
				c9.7,0,17.6,7.9,17.6,17.6v60.9C2101.8,1770.1,2093.8,1778.1,2084.1,1778.1z"/>
			<path class="st15" d="M2068.4,1849h-2.9c-9.7,0-17.6-7.9-17.6-17.6v-60.9c0-9.7,7.9-17.6,17.6-17.6h2.9c9.7,0,17.6,7.9,17.6,17.6
				v60.9C2086.1,1841.1,2078.1,1849,2068.4,1849z"/>
			<path class="st15" d="M2534.6,1716h4.3c14,0,25.5-11.5,25.5-25.5v-45.2c0-14-11.5-25.5-25.5-25.5h-4.3c-14,0-25.5,11.5-25.5,25.5
				v45.2C2509.1,1704.5,2520.6,1716,2534.6,1716z"/>
			<path class="st15" d="M2543.8,1778.1h2.9c9.7,0,17.6-7.9,17.6-17.6v-60.9c0-9.7-7.9-17.6-17.6-17.6h-2.9
				c-9.7,0-17.6,7.9-17.6,17.6v60.9C2526.2,1770.1,2534.1,1778.1,2543.8,1778.1z"/>
			<path class="st15" d="M2559.5,1849h2.9c9.7,0,17.6-7.9,17.6-17.6v-60.9c0-9.7-7.9-17.6-17.6-17.6h-2.9c-9.7,0-17.6,7.9-17.6,17.6
				v60.9C2541.9,1841.1,2549.8,1849,2559.5,1849z"/>
			<circle class="st5" cx="2314" cy="1778.1" r="4.1"/>
			<path class="st5" d="M2277.5,1709.1c0,4.3,0,8.6,0,13c0,4.4,6.8,4.4,6.8,0c0-4.3,0-8.6,0-13
				C2284.3,1704.8,2277.5,1704.7,2277.5,1709.1L2277.5,1709.1z"/>
			<path class="st5" d="M2300.7,1731c0,3.9,0,7.7,0,11.6c0,4.4,6.8,4.4,6.8,0c0-3.9,0-7.7,0-11.6
				C2307.5,1726.6,2300.7,1726.6,2300.7,1731L2300.7,1731z"/>
			<path class="st5" d="M2310.6,1699.6c0,3,0,5.9,0,8.9c0,4.4,6.8,4.4,6.8,0c0-3,0-5.9,0-8.9
				C2317.4,1695.2,2310.6,1695.2,2310.6,1699.6L2310.6,1699.6z"/>
			<path class="st5" d="M2323.5,1724.8c0,3.9,0,7.7,0,11.6c0,4.4,6.8,4.4,6.8,0c0-3.9,0-7.7,0-11.6
				C2330.4,1720.5,2323.5,1720.4,2323.5,1724.8L2323.5,1724.8z"/>
			<path class="st5" d="M2347.8,1705.7c0,2.5,0,5,0,7.5c0,4.4,6.8,4.4,6.8,0c0-2.5,0-5,0-7.5
				C2354.6,1701.3,2347.8,1701.3,2347.8,1705.7L2347.8,1705.7z"/>
			<rect x="2002.2" y="1939.8" class="st5" width="4.1" height="47.1"/>
			<rect x="2022.6" y="1939.8" class="st5" width="4.1" height="47.1"/>
			<rect x="2042.4" y="1939.8" class="st5" width="4.1" height="47.1"/>
		</g>
	</g>
</g>
<g id="opt2">
	<polygon class="st6" points="2562,3302 2962,3302 3024,3394 2962,3514 2344,3514 	"/>
	<rect x="2344" y="3514" class="st11" width="617" height="70"/>
	<polygon class="st7" points="3024,3384 2961,3514 2961,3584 3024,3477 	"/>
	<polygon class="st6" points="3060,3513 3004,3629 3114,3742 3259,3658 3231,3514 	"/>
	<polygon class="st11" points="3004,3629 3004,3691 3114,3791 3114,3742 	"/>
	<polygon class="st7" points="3114,3742 3259,3658 3259,3710 3114,3791 	"/>
	<polygon class="st6" points="2935,3629 2769,3629 2682,3691 2743,3791 2942,3724 	"/>
	<polygon class="st11" points="2682,3691 2682,3742 2743,3848 2743,3791 	"/>
	<polygon class="st7" points="2743,3791 2942,3724 2942,3769 2743,3848 	"/>
	<polygon class="st6" points="2478,3629 2565,3629 2602,3691 2523,3724 2445,3677 	"/>
	<polygon class="st11" points="2445,3677 2443,3712 2524,3770 2524,3724 	"/>
	<polygon class="st7" points="2524,3724 2524,3770 2602,3742 2602,3691 	"/>
	<g>
		<path class="st6" d="M3558.5,3054.9c-2.4,0-4.8,0.1-7.2,0.3c-22.1-76.6-92.7-132.6-176.5-132.6c-98.3,0-178.5,77.2-183.4,174.2
			c-12.7-6.6-27.1-10.4-42.4-10.4c-50.7,0-91.8,41.1-91.8,91.8c0,0.3,0,0.6,0,0.8h607.6c0.8-5.4,1.3-10.9,1.3-16.5
			C3666,3103.1,3617.9,3054.9,3558.5,3054.9z"/>
	</g>
	<g>
		<path class="st7" d="M2511.2,3850.7c-1.8,0-3.7,0.1-5.5,0.2c-16.8-58.2-70.5-100.8-134.1-100.8c-74.7,0-135.7,58.7-139.4,132.4
			c-9.6-5-20.6-7.9-32.3-7.9c-38.6,0-69.8,31.3-69.8,69.8c0,0.2,0,0.4,0,0.6H2592c0.6-4.1,1-8.3,1-12.6
			C2593,3887.3,2556.4,3850.7,2511.2,3850.7z"/>
	</g>
	<g>
		<path class="st7" d="M1250,1829.7c-1.8,0-3.7,0.1-5.5,0.2c-16.8-58.2-70.5-100.8-134.1-100.8c-74.7,0-135.7,58.7-139.4,132.4
			c-9.6-5-20.6-7.9-32.3-7.9c-38.6,0-69.8,31.3-69.8,69.8c0,0.2,0,0.4,0,0.6h461.9c0.6-4.1,1-8.3,1-12.6
			C1331.7,1866.3,1295.1,1829.7,1250,1829.7z"/>
	</g>
</g>
<g id="opt3">
	<polygon class="st6" points="1297,3657 1297,3464 1171,3487 1100,3411 935,3505 856,3632 1020,3778 	"/>
	<polygon class="st11" points="1020,3778 856,3632 856,3686 1020,3846 	"/>
	<polygon class="st7" points="1297,3657 1020,3778 1020,3846 1297,3719 	"/>
	<polygon class="st6" points="1173,3383 1296,3357 1296,3278 1184,3152 967,3152 967,3281 1132,3316 	"/>
	<polygon class="st11" points="1132,3316 1132,3357 967,3331 967,3276 	"/>
	<polygon class="st7" points="1173,3383 1296,3357 1296,3393 1173,3426 	"/>
	<polygon class="st17" points="1132,3316 1173,3383 1173,3426 1132,3357 	"/>
	<polygon class="st6" points="807,3539 878,3447 938,3408 884,3349 747,3357 682,3426 	"/>
	<polygon class="st17" points="682,3426 682,3469 810,3594 810,3539 	"/>
	<polygon class="st11" points="810,3539 878,3444 878,3502 810,3594 	"/>
	<polygon class="st7" points="878,3444 878,3502 938,3473 938,3408 	"/>
	<g>
		<path class="st11" d="M778.3,3693.2c-1.5,0-2.9,0.1-4.4,0.2c-13.5-46.8-56.6-81-107.8-81c-60,0-109,47.1-112,106.4
			c-7.8-4-16.6-6.3-25.9-6.3c-31,0-56.1,25.1-56.1,56.1c0,0.2,0,0.3,0,0.5h371c0.5-3.3,0.8-6.7,0.8-10.1
			C844,3722.6,814.6,3693.2,778.3,3693.2z"/>
	</g>
	<g>
		<path class="st6" d="M1132.4,2922.1c-1.5,0-3.1,0.1-4.6,0.2c-14.1-48.7-58.9-84.3-112.2-84.3c-62.5,0-113.4,49-116.6,110.7
			c-8.1-4.2-17.2-6.6-27-6.6c-32.2,0-58.4,26.1-58.4,58.4c0,0.2,0,0.3,0,0.5h386.2c0.5-3.4,0.8-6.9,0.8-10.5
			C1200.7,2952.7,1170.1,2922.1,1132.4,2922.1z"/>
	</g>
</g>
</svg>
