<?xml version="1.0" encoding="utf-8"?>
<!-- Generator: Adobe Illustrator 23.1.1, SVG Export Plug-In . SVG Version: 6.00 Build 0)  -->
<svg version="1.1" xmlns="http://www.w3.org/2000/svg" xmlns:xlink="http://www.w3.org/1999/xlink" x="0px" y="0px"
	 viewBox="0 0 4265.4 4272.5" style="enable-background:new 0 0 4265.4 4272.5;" xml:space="preserve">
<style type="text/css">
	.st0{fill:#8BD1C7;}
	.st1{opacity:0.5;fill:#64C2B5;stroke:#64C2B5;stroke-width:200;stroke-miterlimit:10;}
	.st2{fill:#C17056;}
	.st3{fill:#AD401E;}
	.st4{fill:#6E352D;}
	.st5{fill:#F5B33F;}
	.st6{fill:#F7C66F;}
	.st7{fill:none;stroke:#F7C66F;stroke-width:10;stroke-miterlimit:10;}
	.st8{fill:#9BB946;}
	.st9{fill:#5B8740;}
	.st10{fill:none;}
	.st11{fill:#B4CA74;}
	.st12{fill:#ED3E4B;}
	.st13{fill:#FF6B36;}
	.st14{fill:#E0553C;}
</style>
<g id="Background">
	<rect x="2.2" y="1.3" class="st0" width="4263" height="4263"/>
</g>
<g id="base_1_">
	<g id="base">
		<path class="st1" d="M3748.6,2412.6c20.5-21.5,32.1-50.1,32.1-79.9v-193c2.3-8.4,3.5-17.2,3.5-26.1v0
			c0-191.5-155.2-346.7-346.7-346.7h-466.3c-27.6,0-54.6-5.5-79.6-15.8c-3.1-1.3-6.2-2.7-9.3-4.1c-21.4-10.1-41.1-23.9-58.2-41
			l-70.8-70.8l-17.7-17.7c-2.4-2.4-4.9-4.8-7.5-7.1c-22-19.9-47.9-34.8-75.8-43.8c-2.2-0.7-4.5-1.4-6.8-2.1
			c-2.4-0.7-4.8-1.3-7.3-1.9c-2.7-0.7-5.4-1.3-8.1-1.8c-0.6-0.1-1.1-0.2-1.7-0.3c-13.1-2.6-26.5-3.9-40-3.9h-603.5
			c-16.5,0-32.8-2-48.4-5.7c-5.8-1.4-11.4-3-17-4.8c-0.2-0.1-0.4-0.1-0.6-0.2c-6.3-2.1-12.5-4.5-18.5-7.2c-2.9-1.3-5.7-2.6-8.6-4
			c-41.5-20.8-75.7-55.2-95.8-99l-12.7-27.5l-18.5-40.2c0,0,0,0,0,0c-0.5-1.2-1.1-2.3-1.7-3.5c-0.2-0.3-0.3-0.6-0.5-0.9
			c-0.5-1-1-1.9-1.5-2.9c-0.1-0.2-0.2-0.4-0.3-0.5c-0.6-1.1-1.2-2.2-1.9-3.3c-0.2-0.3-0.3-0.5-0.5-0.8c-0.5-0.9-1.1-1.8-1.7-2.6
			c-0.2-0.2-0.3-0.5-0.5-0.7c-0.7-1-1.4-2.1-2.1-3.1c-0.1-0.2-0.3-0.4-0.4-0.6c-0.6-0.9-1.2-1.7-1.9-2.5c-0.2-0.2-0.4-0.5-0.6-0.7
			c-0.8-1-1.5-2-2.3-2.9c-0.1-0.1-0.1-0.2-0.2-0.3c-0.7-0.9-1.5-1.8-2.2-2.6c-0.2-0.2-0.4-0.5-0.6-0.7c-0.8-0.9-1.6-1.8-2.5-2.7
			c0,0,0,0-0.1-0.1c-0.9-0.9-1.7-1.8-2.6-2.7c-0.2-0.2-0.4-0.4-0.6-0.6c-0.8-0.8-1.6-1.5-2.4-2.2c-0.1-0.1-0.3-0.2-0.4-0.4
			c-0.9-0.8-1.9-1.6-2.8-2.4c-0.2-0.2-0.4-0.3-0.6-0.5c-0.8-0.7-1.6-1.3-2.5-2c-0.2-0.1-0.4-0.3-0.6-0.4c-1-0.8-2-1.5-3-2.2
			c-0.1-0.1-0.3-0.2-0.4-0.3c-0.9-0.6-1.8-1.3-2.7-1.9c-0.2-0.1-0.4-0.3-0.7-0.4c-2-1.4-4.1-2.7-6.3-3.9c-0.2-0.1-0.5-0.3-0.7-0.4
			c-1-0.6-2-1.1-3-1.7c-0.1,0-0.1-0.1-0.2-0.1c-1.1-0.6-2.2-1.1-3.3-1.7c-0.2-0.1-0.5-0.2-0.7-0.3c-1-0.5-1.9-0.9-2.9-1.3
			c-0.2-0.1-0.3-0.2-0.5-0.2c-1.1-0.5-2.2-1-3.4-1.4c-0.2-0.1-0.4-0.2-0.6-0.2c-1-0.4-1.9-0.8-2.9-1.1c-0.2-0.1-0.5-0.2-0.7-0.3
			c-1.1-0.4-2.3-0.8-3.5-1.2c-0.1,0-0.3-0.1-0.4-0.1c-1-0.3-2.1-0.7-3.1-1c-0.3-0.1-0.6-0.2-0.8-0.2c-2.3-0.7-4.7-1.3-7.1-1.8
			c-0.3-0.1-0.6-0.1-0.9-0.2c-1-0.2-2.1-0.4-3.1-0.6c-0.2,0-0.3-0.1-0.5-0.1c-1.2-0.2-2.4-0.4-3.6-0.6c-0.3,0-0.6-0.1-0.9-0.1
			c-1-0.1-2-0.3-3-0.4c-0.3,0-0.5-0.1-0.8-0.1c-1.2-0.1-2.4-0.2-3.6-0.3c-0.2,0-0.5,0-0.7,0c-1-0.1-2-0.1-3-0.2c-0.3,0-0.6,0-0.9,0
			c-1.2,0-2.4-0.1-3.6-0.1c0,0-0.1,0-0.1,0c-0.2,0-0.5,0-0.7,0c-0.7,0-1.5,0-2.2,0c-0.4,0-0.7,0-1.1,0c-0.6,0-1.3,0-1.9,0.1
			c-0.4,0-0.8,0-1.2,0.1c-0.6,0-1.2,0.1-1.8,0.1c-0.4,0-0.9,0.1-1.3,0.1c-0.6,0.1-1.2,0.1-1.8,0.2c-0.4,0-0.9,0.1-1.3,0.1
			c-0.6,0.1-1.2,0.1-1.8,0.2c-0.4,0.1-0.8,0.1-1.3,0.2c-0.6,0.1-1.2,0.2-1.8,0.3c-0.4,0.1-0.8,0.1-1.2,0.2c-0.7,0.1-1.4,0.2-2,0.4
			c-0.3,0.1-0.7,0.1-1,0.2c-1,0.2-2,0.4-3,0.6c-0.2,0.1-0.5,0.1-0.7,0.2c-0.8,0.2-1.5,0.4-2.3,0.6c-0.4,0.1-0.8,0.2-1.2,0.3
			c-0.6,0.2-1.2,0.3-1.9,0.5c-0.4,0.1-0.8,0.2-1.3,0.4c-0.6,0.2-1.2,0.4-1.8,0.5c-0.4,0.1-0.8,0.3-1.3,0.4c-0.6,0.2-1.2,0.4-1.7,0.6
			c-0.4,0.1-0.8,0.3-1.3,0.4c-0.6,0.2-1.2,0.4-1.7,0.6c-0.4,0.2-0.8,0.3-1.2,0.5c-0.6,0.2-1.2,0.5-1.8,0.7c-0.4,0.2-0.8,0.3-1.1,0.5
			c-0.7,0.3-1.3,0.6-2,0.9c-0.3,0.1-0.6,0.3-0.9,0.4c-1,0.4-2,0.9-2.9,1.4l-103.2,50.3c-6,2.9-11.8,6-17.5,9.3
			c-4.3,2.5-8.4,5-12.5,7.7c-1.4,0.9-2.7,1.8-4.1,2.7c-75.5,51.1-121.8,136.8-121.8,229.6v231.1H786.6c-27.1,0-53.4,9.6-74.2,27
			l-134.2,112.4l-4.7,3.9l0,0l0,0v150.2v381.4c0,127.7,103.5,231.1,231.1,231.1h251.9l108.6,46.2l141,178v129.4l85.5,231.1h356
			l143.3,106.3h217.3l60.1-106.3h358.3h127.1l-95.4-224.6l0,0l95.4,224.6l115.7-135.9c32-37.6,49.6-85.4,49.6-134.8v-251.7
			c0.7-7.1,1.1-14.4,1.1-21.6v-177.6h619.5v0.5h22.5c55.2,0,108.1-21.9,147.1-60.9l24.6-24.6l0,0l131.8,6.9l41.6-43.9L3748.6,2412.6
			z M1471.5,3107.1v32.7l-1.2,0.1L1471.5,3107.1z"/>
		<g>
			<path class="st2" d="M3436.9,2398.1v217.3h22.5c55.2,0,108.1-21.9,147.1-60.9L3744,2417c21.7-21.7,33.9-51.1,33.9-81.7v-193
				L3436.9,2398.1z"/>
			<polygon class="st3" points="2817.5,2398.1 2817.5,2614.9 3436.9,2614.9 3436.9,2370.4 			"/>
			<path class="st2" d="M2651,3336.6l-95.4-224.6l260.7-297.8v251.7c0,49.4-17.6,97.2-49.6,134.8L2651,3336.6z"/>
			<polygon class="st4" points="1053.8,2751.8 1162.5,2798 1303.5,2976 1553.1,2751.8 1303.5,2398.1 1053.8,2370.4 			"/>
			<polygon class="st4" points="1303.5,2976 1303.5,3105.4 1389,3336.6 1467.6,3142.4 1479.1,2814.2 			"/>
			<polygon class="st3" points="1303.5,2976 1162.5,2798 1211,2529.9 1475.7,2794.5 1469.9,2814.2 			"/>
			<polygon class="st3" points="1467.6,3142.4 1389,3336.6 1745,3336.6 1888.3,3442.9 2105.5,3442.9 2165.6,3336.6 2523.9,3336.6 
				2651,3336.6 2533.2,3059.2 			"/>
			<path class="st3" d="M570.8,1989v531.6c0,127.7,103.5,231.1,231.1,231.1h251.9v-473.8L570.8,1989z"/>
			<g>
				<path class="st5" d="M1478.7,3132.4V2813c0-2.7-1.1-5.2-2.9-7.1l-266.1-266.1c-20.3-20.3-44.1-36.2-70.7-47.3
					c-26.6-11-54.7-16.6-83.4-16.6h-138c-89.9,0-174.5-35-238.1-98.6s-98.6-148.2-98.6-238.1v-145.6L716,1880.4
					c19-15.9,43.1-24.6,67.8-24.6h563.6c5.5,0,10-4.5,10-10v-231.1c0-50.2,14.1-99.2,40.6-141.7c26.6-42.5,64.5-76.6,109.6-98.6
					l103.2-50.3c14.6-7.1,30.1-10.7,46.2-10.7c41.1,0,78.8,24.1,96,61.4l31.2,67.7c17.5,37.9,45.3,69.8,80.5,92.4
					c35.2,22.5,75.8,34.4,117.6,34.4h603.5c26.1,0,51.6,5.1,75.8,15.1c24.1,10,45.8,24.4,64.2,42.9l88.5,88.5
					c20.3,20.3,44.1,36.2,70.7,47.3c26.6,11,54.7,16.6,83.4,16.6h466.3c89.9,0,174.5,35,238.1,98.6c63.6,63.6,98.6,148.2,98.6,238.1
					c0,24.2-9.4,46.9-26.5,64l-150,150c-18.5,18.5-40.1,32.9-64.2,42.9s-49.6,15.1-75.8,15.1h-637.3c-5.5,0-10,4.5-10,10v394.4
					c0,51.6-19.7,100.4-55.5,137.5l-96,99.4c-31.6,32.7-68.8,58.3-110.7,76.1c-41.9,17.8-86.1,26.8-131.6,26.8H1478.7z"/>
				<path class="st6" d="M1657,1323.3c18,0,35.6,5.1,50.9,14.7c15.7,9.8,28.1,24,35.9,40.9l31.2,67.7c18.3,39.7,47.4,73.1,84.1,96.6
					c36.8,23.5,79.3,36,122.9,36h603.5c24.8,0,49,4.8,72,14.3c22.9,9.5,43.5,23.2,61,40.8l88.5,88.5c21.3,21.3,46.2,37.9,74,49.4
					s57.2,17.4,87.3,17.4h466.3c44.1,0,86.9,8.6,127.2,25.7c38.9,16.5,73.8,40,103.9,70c30,30,53.6,65,70,103.9
					c17,40.3,25.7,83.1,25.7,127.2c0,21.5-8.4,41.7-23.6,56.9l-150,150c-17.5,17.5-38.1,31.3-61,40.8c-22.9,9.5-47.1,14.3-72,14.3
					h-637.3c-11,0-20,9-20,20v394.4c0,24.2-4.6,47.9-13.7,70.4c-9.1,22.5-22.2,42.7-39.1,60.2l-96,99.4
					c-30.6,31.7-66.8,56.6-107.4,73.8s-83.6,26-127.7,26h-924.9V2813c0-5.3-2.1-10.4-5.9-14.1l-266.1-266.1
					c-21.3-21.3-46.2-37.9-74-49.4c-27.8-11.5-57.2-17.4-87.3-17.4h-138c-44.1,0-86.9-8.6-127.2-25.7c-38.9-16.5-73.8-40-103.9-70
					c-30-30-53.6-65-70-103.9c-17-40.3-25.7-83.1-25.7-127.2v-140.9L722.4,1888c17.2-14.4,39-22.3,61.4-22.3h563.6c11,0,20-9,20-20
					v-231.1c0-48.3,13.5-95.5,39.1-136.4s62.1-73.8,105.5-94.9l103.2-50.3C1628.4,1326.5,1642.5,1323.3,1657,1323.3 M1657,1303.3
					c-17,0-34.2,3.8-50.5,11.7l-103.2,50.3c-95.4,46.5-155.9,143.3-155.9,249.3v231.1H783.8c-27.1,0-53.4,9.6-74.2,27L570.8,1989
					v150.2c0,191.5,155.2,346.7,346.7,346.7h138c55.2,0,108.1,21.9,147.1,60.9l266.1,266.1v329.4h944.9
					c94.1,0,184.1-38.2,249.5-105.9l96-99.4c37.4-38.8,58.4-90.6,58.4-144.5v-394.4h637.3c55.2,0,108.1-21.9,147.1-60.9l150-150
					c18.8-18.8,29.4-44.4,29.4-71v0c0-191.5-155.2-346.7-346.7-346.7h-466.3c-55.2,0-108.1-21.9-147.1-60.9l-88.5-88.5
					c-39-39-91.9-60.9-147.1-60.9h-603.5c-81.2,0-154.9-47.2-188.9-120.9l-31.2-67.7C1742.5,1328.1,1700.6,1303.3,1657,1303.3
					L1657,1303.3z"/>
			</g>
			<polygon class="st4" points="1745,3336.6 1888.3,3442.9 1888.3,3297.3 1839.7,3174.8 1772.7,3251.1 			"/>
			<polygon class="st2" points="3691.2,2342.7 3804.4,2492.9 3762.8,2536.8 3631.1,2529.9 			"/>
			<polygon class="st3" points="3691.2,2342.7 3762.8,2536.8 3631.1,2529.9 			"/>
			<line class="st7" x1="866.6" y1="2090.7" x2="970.6" y2="2090.7"/>
			<line class="st7" x1="970.6" y1="2206.3" x2="1033" y2="2206.3"/>
			<line class="st7" x1="1428.3" y1="2032.9" x2="1479.1" y2="2032.9"/>
			<line class="st7" x1="1513.8" y1="1857.3" x2="1608.6" y2="1857.3"/>
			<line class="st7" x1="1664.1" y1="2379.6" x2="1745" y2="2379.6"/>
			<line class="st7" x1="1664.1" y1="2909" x2="1784.3" y2="2909"/>
			<line class="st7" x1="1985.3" y1="2691.7" x2="2082.4" y2="2691.7"/>
			<line class="st7" x1="2124" y1="2774.9" x2="2177.2" y2="2774.9"/>
			<line class="st7" x1="2556.3" y1="2264.1" x2="2431.5" y2="2264.1"/>
			<line class="st7" x1="2556.3" y1="2511.4" x2="2595.6" y2="2511.4"/>
			<line class="st7" x1="2528.5" y1="2615.4" x2="2431.5" y2="2615.4"/>
			<line class="st7" x1="2260.4" y1="1744" x2="2327.4" y2="1744"/>
			<line class="st7" x1="2260.4" y1="1845.7" x2="2165.6" y2="1845.7"/>
			<line class="st7" x1="2840.6" y1="1965.9" x2="2882.2" y2="1965.9"/>
			<line class="st7" x1="2907.6" y1="2056" x2="2993.1" y2="2056"/>
			<line class="st7" x1="3473.9" y1="1965.9" x2="3395.3" y2="1965.9"/>
			<line class="st7" x1="3434.6" y1="2076.9" x2="3335.2" y2="2076.9"/>
			<line class="st7" x1="3191.9" y1="2229.4" x2="3270.5" y2="2229.4"/>
			<line class="st7" x1="1608.6" y1="1575.3" x2="1664.1" y2="1575.3"/>
			<line class="st7" x1="1761.1" y1="1630.7" x2="1705.7" y2="1630.7"/>
			<g>
				<g>
					<path class="st3" d="M1538.8,1457.5h-30.9c0.3-11.2-0.3-22.5-1.6-33.6c-2.3-15.7-6.3-31-12.2-45.7
						c-5.2-11.8-11.7-23.1-19.4-33.4c-7-8.9-15-17-23.9-24.2c-0.1-0.1-0.2-0.1-0.2-0.2c-1.5-1.1-2.9-2.2-4.5-3.2l2.4-17.8l22.9-1.8
						c4.9,3.9,9.5,8,13.8,12.5c18.8,19,32.5,42.2,41.5,67.3c4.6,12.7,7.7,25.9,9.6,39.3C1538.1,1430.2,1539.1,1443.8,1538.8,1457.5z
						"/>
					<path class="st8" d="M1495.9,1276.8c4.5,4.8,7.5,11.2,8.1,18.3l-32.7,2.6l-22.9,1.8l-2.4,17.8l-5.7,42.2
						c-12.9-1.7-22.7-11.3-25.5-23.2l-10.3,30.1c-15.1-5.2-23.2-21.6-18-36.7l16.8-49.2c4.7-13.7,15.6-24.4,29.4-28.8l45.7-14.5
						c15.2-4.8,31.5,3.6,36.3,18.8l-36.1,11.5C1485.3,1268.6,1491.3,1271.9,1495.9,1276.8z"/>
				</g>
				<g>
					<path class="st2" d="M1631.9,1391.7c2.4,22.3,4.4,44.8,3.4,67.3h-22.2c0.8-17.4-0.2-34.8-1.8-52.1
						c-3.2-34.5-8.9-68.9-7.6-103.6c0.7-17.7,3.1-35.7,8.2-52.8l19.4-8l4.4,6.4c-3.9,11-6.5,22.4-8.2,34c-1.5,11.8-2,23.7-1.8,35.6
						C1626.1,1343,1629.3,1367.4,1631.9,1391.7z"/>
					<path class="st9" d="M1700.2,1277.2l-27.2-24.9c1.3,3.4,1.9,6.9,1.9,10.5c0,9.4-4.5,18.6-12.8,24.4l-26.3-38.3l-4.4-6.4
						l-19.4,8l-35,14.4c-4.8-11.7-1.6-24.6,7.1-32.8l-30.4,6c-3-15.2,6.9-30,22.1-33l49.6-9.8c13.8-2.7,28.1,1.3,38.5,10.8
						l34.4,31.4c6.1,5.6,9.2,13.1,9.2,20.8C1707.5,1265,1705.1,1271.8,1700.2,1277.2z"/>
				</g>
				<g>
					<g>
						<path class="st10" d="M1778.8,1288.2C1778.8,1288.2,1778.8,1288.2,1778.8,1288.2C1778.8,1288.2,1778.8,1288.2,1778.8,1288.2z"
							/>
						<path class="st10" d="M1778.9,1288.1C1778.9,1288.1,1778.9,1288.1,1778.9,1288.1c0.1-0.1,0.1-0.2,0.2-0.2
							c0-0.1,0.1-0.1,0.1-0.2C1779,1287.9,1778.9,1288,1778.9,1288.1z"/>
						<path class="st4" d="M1741.9,1352.4c0.2-0.4,0.3-0.8,0.5-1.1c0.2-0.5,0.4-1,0.6-1.5
							C1742.6,1350.7,1742.2,1351.6,1741.9,1352.4z"/>
						<path class="st4" d="M1715.5,1454.6c0.1-0.4,0.1-0.8,0.2-1.2c0.1-0.6,0.1-1.2,0.2-1.8
							C1715.8,1452.6,1715.6,1453.6,1715.5,1454.6z"/>
						<path class="st4" d="M1797.5,1266.9c-0.6,0.6-1.2,1.2-1.8,1.8c-5.9,6.1-11.4,12.6-16.7,19.3c-0.1,0.1-0.1,0.1-0.2,0.2
							c0,0,0,0.1-0.1,0.1c-0.3,0.3-0.5,0.7-0.8,1c-0.6,0.8-1.2,1.6-1.8,2.5c-1.2,1.6-2.3,3.1-3.4,4.7c-2.4,3.4-4.8,6.9-7,10.4
							c-9,14.1-16.8,29-23.4,44.5c0.1-0.3,0.2-0.5,0.3-0.8c-0.3,0.6-0.5,1.3-0.8,1.9c0.2-0.4,0.3-0.8,0.5-1.1
							c-2.8,6.8-5.4,13.7-7.8,20.6c-9.1,26.4-15,53.9-18.8,81.5c-0.1,0.4-0.1,0.8-0.2,1.2c0-0.2,0.1-0.4,0.1-0.6
							c-0.2,1.7-0.4,3.3-0.6,5h-22.2c1.7-14.2,3.9-28.3,6.7-42.4c7.4-36.2,19.3-71.7,37.1-104.1c12.1-22.1,27.1-42.9,44.8-61
							l14.4,1.4L1797.5,1266.9z"/>
						<path class="st4" d="M1778.9,1288.1C1778.8,1288.2,1778.8,1288.2,1778.9,1288.1c-0.6,0.7-1.5,2.1,0.2-0.2
							C1779,1288,1778.9,1288,1778.9,1288.1C1778.9,1288.1,1778.9,1288.1,1778.9,1288.1z"/>
					</g>
					<path class="st9" d="M1859.2,1289.2c0,11.5-7.1,22.3-18.6,26.5l-12.5-34.7c-0.8,6.6-3.8,12.6-8.4,17.2
						c-4.5,4.6-10.6,7.7-17.5,8.5l-4.7-39.9l-1.6-13.9l-14.4-1.4l-44.1-4.2c1.2-12.6,10.1-22.5,21.6-25.7l-29.7-8.9
						c4.5-14.9,20.1-23.3,35-18.9l48.4,14.5c13.5,4,24.3,14.2,29.1,27.5l15.8,43.9C1858.6,1282.9,1859.2,1286.1,1859.2,1289.2z"/>
				</g>
				<g>
					<polygon class="st3" points="1810.6,1624.2 1810.6,1658.6 1621.5,1658.6 1621.5,1607 1698.8,1539.2 					"/>
					<polygon class="st4" points="1781,1658.6 1780.9,1658.6 1621.5,1658.6 1621.5,1607 1698.8,1539.2 1705.5,1607 					"/>
				</g>
				<g>
					<polygon class="st2" points="2529,1747 1953.6,1747 2241.3,1450.7 					"/>
					<polygon class="st3" points="2241.3,1450.7 2241.3,1747 1953.6,1747 					"/>
				</g>
				<g>
					<path class="st2" d="M2490.6,1602.7c2.1,19.5,3.8,39.1,2.9,58.6h-19.3c0.7-15.1-0.2-30.3-1.6-45.4c-2.8-30-7.8-60-6.6-90.3
						c0.6-15.5,2.7-31.1,7.1-46l16.9-7l3.8,5.6c-3.4,9.6-5.7,19.5-7.1,29.6c-1.3,10.3-1.7,20.7-1.6,31
						C2485.4,1560.2,2488.3,1581.5,2490.6,1602.7z"/>
					<path class="st9" d="M2550,1502.9l-23.7-21.7c1.1,3,1.7,6,1.7,9.1c0,8.2-3.9,16.2-11.1,21.2l-22.9-33.3l-3.8-5.6l-16.9,7
						l-30.5,12.5c-4.2-10.2-1.4-21.5,6.2-28.6l-26.5,5.2c-2.6-13.3,6-26.2,19.3-28.8l43.2-8.5c12-2.4,24.5,1.1,33.6,9.4l30,27.4
						c5.3,4.8,8,11.5,8,18.1C2556.4,1492.2,2554.3,1498.2,2550,1502.9z"/>
				</g>
				<g>
					<path class="st9" d="M1308.5,1785c-5.7,0-10.3,4.6-10.3,10.3v32.3h-33.5v-88.1c0-17.8-14.4-32.3-32.3-32.3
						c-17.8,0-32.3,14.4-32.3,32.3v44.7H1172v-21.5c0-8-6.5-14.5-14.5-14.5c-8,0-14.5,6.5-14.5,14.5v36c0,8,6.5,14.5,14.5,14.5h42.6
						v134.8h64.5v-99.7h43.8c5.7,0,10.3-4.6,10.3-10.3v-42.6C1318.8,1789.6,1314.2,1785,1308.5,1785z"/>
				</g>
				<g>
					<polygon class="st2" points="1320.6,1985.2 1349.1,2050.9 1436.7,2050.9 1463,2007.1 1446.5,1961.1 1369.9,1931.5 					"/>
					<polygon class="st3" points="1320.6,1985.2 1349.1,2050.9 1375.8,2050.9 1375.8,2050.8 1401.6,2002.7 1369.9,1931.5 					"/>
				</g>
				<g>
					<path class="st11" d="M1527.3,1923.5c0,0-37.7-40.2-45-73c-7.3-32.9,4.9-77.9,51.1-81.5c46.2-3.7,64.5,26.8,64.5,43.8
						c0,65.7-25.6,110.7-25.6,110.7H1527.3z"/>
					<circle class="st12" cx="1486.7" cy="1804.4" r="19.5"/>
					<circle class="st12" cx="1590.9" cy="1858.1" r="19.5"/>
				</g>
				<g>
					<path class="st9" d="M1725.2,1866.5c5.1,0,9.2,4.1,9.2,9.2v28.6h29.7v-78c0-15.8,12.8-28.6,28.6-28.6
						c15.8,0,28.6,12.8,28.6,28.6v39.6h24.9v-19c0-7.1,5.7-12.8,12.8-12.8s12.8,5.7,12.8,12.8v31.9c0,7.1-5.7,12.8-12.8,12.8h-37.7
						v119.4h-57.1v-88.3h-38.8c-5.1,0-9.2-4.1-9.2-9.2v-37.7C1716.1,1870.6,1720.2,1866.5,1725.2,1866.5z"/>
				</g>
			</g>
		</g>
	</g>
	<g id="opt1">
		<polygon class="st3" points="2575.5,1776.9 2124,1779.8 2124.3,1941.5 2575.5,1941.5 		"/>
		<polygon class="st2" points="2124.3,1776.9 2124.3,1941.5 1664.4,2273.3 1664.4,1918.9 		"/>
		<path class="st3" d="M1664.4,1941.5v331.8l-211.1-52.8l-134.5,52.8h-149.5l-30.2-66.6h0c-93,0-168.4-75.4-168.4-168.4v-294.1
			L1664.4,1941.5z"/>
		<g>
			<path class="st5" d="M1159.2,1931.5c-98.4,0-178.5-80.1-178.5-178.5v-466.2c0-64.5,25.1-125.1,70.7-170.6
				c45.6-45.6,106.2-70.7,170.6-70.7h625.6c47.7,0,92.5,18.6,126.2,52.3l184.2,184.2c1.9,1.9,4.4,2.9,7.1,2.9h159
				c64.5,0,125.1,25.1,170.6,70.7s70.7,106.2,70.7,170.6v240.7H2157c-22.9,0-45.4,3.9-66.9,11.6l-398.3,142.6
				c-19.4,6.9-39.6,10.4-60.2,10.4H1159.2z"/>
			<path class="st6" d="M1847.7,1055.5c22.2,0,43.9,4.3,64.5,12.8c20.5,8.5,38.9,20.8,54.7,36.5L2151,1289c3.8,3.8,8.8,5.9,14.1,5.9
				h159c31.2,0,61.5,6.1,90,18.2c27.5,11.7,52.3,28.3,73.5,49.6s37.9,46,49.6,73.5c12.1,28.5,18.2,58.8,18.2,90v230.7H2157
				c-24,0-47.7,4.1-70.3,12.2l-398.3,142.6c-18.3,6.5-37.4,9.9-56.8,9.9h-472.4c-45,0-87.3-17.5-119.1-49.4
				c-31.8-31.8-49.4-74.1-49.4-119.1v-466.2c0-31.2,6.1-61.5,18.2-90c11.7-27.5,28.3-52.3,49.6-73.5c21.3-21.3,46-37.9,73.5-49.6
				c28.5-12.1,58.8-18.2,90-18.2H1847.7 M1847.7,1035.5h-625.6c-138.8,0-251.3,112.5-251.3,251.3V1753
				c0,104.1,84.4,188.5,188.5,188.5h472.4c21.6,0,43.1-3.7,63.5-11l398.3-142.6c20.4-7.3,41.9-11,63.5-11h418.4v-250.7
				c0-138.8-112.5-251.3-251.3-251.3h-159L1981,1090.7C1945.6,1055.4,1897.7,1035.5,1847.7,1035.5L1847.7,1035.5z"/>
		</g>
		<line class="st7" x1="1195.7" y1="1619.8" x2="1257.2" y2="1619.8"/>
		<line class="st7" x1="1319.9" y1="1544.6" x2="1381.5" y2="1544.6"/>
		<line class="st7" x1="1573.9" y1="1432.6" x2="1635.5" y2="1432.6"/>
		<line class="st7" x1="1139.1" y1="1291.9" x2="1200.7" y2="1291.9"/>
		<line class="st7" x1="2327.9" y1="1619.8" x2="2389.5" y2="1619.8"/>
		<line class="st7" x1="1807.6" y1="1173.7" x2="1869.2" y2="1173.7"/>
		<line class="st7" x1="1577.7" y1="1820.9" x2="1639.3" y2="1820.9"/>
		<line class="st7" x1="1054.9" y1="1792" x2="1116.5" y2="1792"/>
		<polygon class="st4" points="1169.3,2273.3 1195.7,2165.2 1183.1,2083.5 1139.1,2122.5 1139.1,2206.7 		"/>
		<polygon class="st2" points="1984.8,1924 2058.5,1989 2059,2091.1 1952.2,2177.8 1838.4,2147.8 1905.7,1941.5 		"/>
		<polygon class="st3" points="1948.4,2177.8 1948.7,2068.2 1908.2,1989.3 1857.9,2033.3 1839.1,2142.6 		"/>
		<polygon class="st3" points="2059,1989.3 1984.8,1924 2124.3,1941.5 		"/>
		<g id="opt1_x5F_pack1">
			<g>
				<polygon class="st2" points="1346.4,1122 1346.4,1190.6 1278.3,1241.4 1406.5,1241.4 1406.5,1200.7 				"/>
				<polygon class="st3" points="1346.4,1122 1257.6,1188 1257.6,1241.4 1278.3,1241.4 1346.4,1190.6 				"/>
			</g>
			<g>
				<path class="st3" d="M1608.7,1215.7h-31.2c0.3-11.3-0.3-22.7-1.7-33.9c-2.3-15.8-6.3-31.3-12.4-46.1
					c-5.2-11.9-11.8-23.3-19.6-33.7c-7.1-9-15.2-17.2-24.1-24.4c-0.1-0.1-0.2-0.1-0.2-0.2c-1.5-1.1-3-2.2-4.5-3.2l2.4-17.9l23.1-1.8
					c4.9,3.9,9.6,8.1,14,12.6c18.9,19.2,32.8,42.6,41.9,67.9c4.6,12.8,7.8,26.2,9.7,39.7C1608,1188.2,1609,1201.9,1608.7,1215.7z"/>
				<path class="st8" d="M1565.4,1033.3c4.6,4.9,7.6,11.3,8.1,18.5l-33,2.6l-23.1,1.8l-2.4,17.9l-5.7,42.6
					c-13-1.8-22.9-11.4-25.8-23.4l-10.4,30.4c-15.3-5.2-23.4-21.8-18.2-37l16.9-49.6c4.7-13.8,15.7-24.6,29.7-29l46.1-14.6
					c15.4-4.9,31.8,3.6,36.6,19l-36.5,11.6C1554.7,1025.1,1560.9,1028.4,1565.4,1033.3z"/>
			</g>
			<g>
				<path class="st2" d="M1692.3,1155.3c2.5,22.5,4.4,45.2,3.4,67.9h-22.4c0.8-17.5-0.2-35.1-1.8-52.6c-3.3-34.8-9-69.5-7.6-104.6
					c0.7-17.9,3.2-36,8.3-53.3l19.6-8.1l4.5,6.5c-4,11.1-6.6,22.6-8.2,34.3c-1.5,11.9-2,23.9-1.9,35.9
					C1686.4,1106.1,1689.6,1130.7,1692.3,1155.3z"/>
				<path class="st9" d="M1761.2,1039.7l-27.5-25.1c1.3,3.4,1.9,7,1.9,10.6c0,9.5-4.5,18.8-12.9,24.6l-26.6-38.6l-4.5-6.5l-19.6,8.1
					l-35.3,14.5c-4.9-11.8-1.6-24.9,7.2-33.1l-30.7,6c-3-15.4,7-30.3,22.3-33.3l50.1-9.9c14-2.7,28.4,1.3,38.9,10.9l34.7,31.7
					c6.1,5.6,9.2,13.3,9.2,21C1768.6,1027.4,1766.1,1034.2,1761.2,1039.7z"/>
			</g>
			<g>
				<g>
					<path class="st10" d="M1850.9,1044.9C1851,1044.9,1851,1044.8,1850.9,1044.9C1851,1044.8,1851,1044.8,1850.9,1044.9z"/>
					<path class="st10" d="M1851,1044.8C1851,1044.8,1851,1044.8,1851,1044.8c0.1-0.1,0.1-0.2,0.2-0.2c0-0.1,0.1-0.1,0.1-0.2
						C1851.2,1044.5,1851.1,1044.7,1851,1044.8z"/>
					<path class="st4" d="M1813.7,1109.7c0.2-0.4,0.3-0.8,0.5-1.2c0.2-0.5,0.4-1,0.6-1.5C1814.4,1107.9,1814,1108.8,1813.7,1109.7z"
						/>
					<path class="st4" d="M1787.1,1212.8c0.1-0.4,0.1-0.8,0.2-1.2c0.1-0.6,0.1-1.2,0.2-1.8
						C1787.3,1210.8,1787.2,1211.8,1787.1,1212.8z"/>
					<path class="st4" d="M1869.8,1023.3c-0.6,0.6-1.2,1.2-1.8,1.8c-5.9,6.2-11.5,12.7-16.8,19.4c-0.1,0.1-0.1,0.1-0.2,0.2
						c0,0,0,0.1-0.1,0.1c-0.3,0.3-0.5,0.7-0.8,1c-0.6,0.8-1.2,1.6-1.8,2.5c-1.2,1.6-2.3,3.2-3.5,4.8c-2.4,3.5-4.8,7-7.1,10.5
						c-9.1,14.3-17,29.3-23.6,44.9c0.1-0.3,0.2-0.5,0.3-0.8c-0.3,0.6-0.5,1.3-0.8,1.9c0.2-0.4,0.3-0.8,0.5-1.2
						c-2.9,6.9-5.5,13.8-7.9,20.8c-9.2,26.7-15.2,54.3-19,82.3c-0.1,0.4-0.1,0.8-0.2,1.2c0-0.2,0.1-0.4,0.1-0.6
						c-0.2,1.7-0.4,3.3-0.6,5h-22.4c1.7-14.3,3.9-28.6,6.8-42.7c7.4-36.5,19.5-72.4,37.4-105.1c12.2-22.3,27.4-43.3,45.2-61.5
						l14.6,1.4L1869.8,1023.3z"/>
					<path class="st4" d="M1851,1044.8C1851,1044.8,1851,1044.9,1851,1044.8c-0.6,0.7-1.5,2.1,0.2-0.2
						C1851.1,1044.6,1851.1,1044.7,1851,1044.8C1851,1044.8,1851,1044.8,1851,1044.8z"/>
				</g>
				<path class="st9" d="M1932.1,1045.9c0,11.6-7.2,22.5-18.8,26.7l-12.6-35c-0.8,6.7-3.9,12.7-8.4,17.4c-4.6,4.6-10.7,7.8-17.7,8.6
					l-4.8-40.3l-1.7-14.1l-14.6-1.4l-44.5-4.3c1.2-12.7,10.2-22.7,21.8-25.9l-30-8.9c4.5-15,20.3-23.6,35.3-19.1l48.9,14.6
					c13.6,4.1,24.5,14.4,29.3,27.8l15.9,44.3C1931.5,1039.5,1932.1,1042.7,1932.1,1045.9z"/>
			</g>
			<g>
				<polygon class="st2" points="1858.6,1384.8 1858.6,1437.4 1631.9,1437.4 1631.9,1393.6 1705.3,1318 1766.6,1318 				"/>
				<polygon class="st3" points="1744.7,1358.6 1744.7,1399.1 1705.3,1437.4 1631.9,1437.4 1631.9,1393.6 1705.3,1318 				"/>
			</g>
			<g>
				<path class="st13" d="M2456.3,1555.7c0,70.8-57.4,128.2-128.2,128.2c-9.7,0-19.2-1.1-28.3-3.1c-57.2-12.9-99.9-64-99.9-125.1
					s42.7-112.2,99.9-125.1c9.1-2.1,18.6-3.1,28.3-3.1C2398.9,1427.5,2456.3,1484.9,2456.3,1555.7z"/>
				<ellipse class="st14" cx="2299.7" cy="1555.7" rx="99.9" ry="125.1"/>
				<rect x="2167.9" y="1556" class="st3" width="205.4" height="143.7"/>
				<rect x="2283.4" y="1556" class="st2" width="205.4" height="143.7"/>
				<path class="st4" d="M2406.3,1608h-13.9c-9.1,0-16.4,7.4-16.4,16.4v75.5h46.8v-75.5C2422.7,1615.4,2415.4,1608,2406.3,1608z"/>
				<path class="st4" d="M2198.2,1604.5L2198.2,1604.5c-7.6,0-13.8,6.2-13.8,13.8v15.1h27.5v-15.1
					C2212,1610.7,2205.8,1604.5,2198.2,1604.5z"/>
				<path class="st4" d="M2243.3,1604.5L2243.3,1604.5c-7.6,0-13.8,6.2-13.8,13.8v15.1h27.5v-15.1
					C2257.1,1610.7,2250.9,1604.5,2243.3,1604.5z"/>
				<polygon class="st13" points="2241.5,1528.3 2226.7,1544.7 2211.9,1528.3 				"/>
				<polygon class="st13" points="2289.3,1528.3 2274.5,1544.7 2259.7,1528.3 				"/>
				<polygon class="st13" points="2265.2,1544.7 2250.5,1528.3 2235.7,1544.7 				"/>
				<polygon class="st13" points="2337,1527.7 2322.2,1544.1 2307.4,1527.7 				"/>
				<polygon class="st13" points="2384.7,1527.7 2370,1544.1 2355.2,1527.7 				"/>
				<polygon class="st13" points="2361.3,1544.1 2346.5,1527.7 2331.7,1544.1 				"/>
				<polygon class="st13" points="2313.2,1544.1 2298.5,1527.7 2283.7,1544.1 				"/>
			</g>
			<g>
				<path class="st2" d="M2317.3,1345.3c2.1,19,3.7,38.1,2.9,57.1h-18.8c0.7-14.7-0.2-29.5-1.5-44.2c-2.7-29.3-7.6-58.5-6.4-88
					c0.6-15.1,2.7-30.3,7-44.8l16.5-6.8l3.7,5.4c-3.3,9.3-5.6,19-6.9,28.9c-1.3,10-1.7,20.1-1.6,30.2
					C2312.3,1304,2315.1,1324.6,2317.3,1345.3z"/>
				<path class="st9" d="M2375.2,1248.1l-23.1-21.1c1.1,2.9,1.6,5.9,1.6,8.9c0,8-3.8,15.8-10.8,20.7l-22.4-32.5l-3.7-5.4l-16.5,6.8
					l-29.7,12.2c-4.1-9.9-1.3-20.9,6-27.8l-25.8,5.1c-2.6-12.9,5.9-25.5,18.8-28l42.1-8.3c11.7-2.3,23.9,1.1,32.7,9.1l29.2,26.7
					c5.2,4.7,7.8,11.2,7.8,17.6C2381.5,1237.7,2379.4,1243.5,2375.2,1248.1z"/>
			</g>
			<g>
				<g>
					<path class="st10" d="M2450.7,1252.4C2450.8,1252.4,2450.8,1252.4,2450.7,1252.4C2450.8,1252.4,2450.8,1252.4,2450.7,1252.4z"
						/>
					<path class="st10" d="M2450.8,1252.4C2450.8,1252.4,2450.8,1252.3,2450.8,1252.4c0.1-0.1,0.1-0.1,0.1-0.2c0,0,0.1-0.1,0.1-0.1
						C2451,1252.2,2450.9,1252.3,2450.8,1252.4z"/>
					<path class="st4" d="M2419.4,1307c0.1-0.3,0.3-0.6,0.4-1c0.2-0.4,0.3-0.9,0.5-1.3C2420,1305.5,2419.7,1306.2,2419.4,1307z"/>
					<path class="st4" d="M2397,1393.7c0-0.3,0.1-0.7,0.1-1c0.1-0.5,0.1-1,0.2-1.5C2397.2,1392,2397.1,1392.9,2397,1393.7z"/>
					<path class="st4" d="M2466.6,1234.3c-0.5,0.5-1,1-1.5,1.5c-5,5.2-9.7,10.7-14.2,16.3c-0.1,0.1-0.1,0.1-0.2,0.2
						c0,0,0,0.1-0.1,0.1c-0.2,0.3-0.4,0.6-0.7,0.9c-0.5,0.7-1,1.4-1.5,2.1c-1,1.3-1.9,2.7-2.9,4c-2,2.9-4,5.9-5.9,8.9
						c-7.7,12-14.3,24.7-19.9,37.7c0.1-0.2,0.2-0.4,0.3-0.6c-0.2,0.5-0.5,1.1-0.7,1.6c0.1-0.3,0.3-0.6,0.4-1
						c-2.4,5.8-4.6,11.6-6.6,17.5c-7.7,22.4-12.8,45.7-16,69.2c-0.1,0.3-0.1,0.7-0.1,1c0-0.2,0.1-0.3,0.1-0.5
						c-0.2,1.4-0.4,2.8-0.5,4.2h-18.9c1.4-12.1,3.3-24.1,5.7-36c6.2-30.7,16.4-60.9,31.5-88.4c10.3-18.8,23-36.4,38.1-51.8l12.3,1.2
						L2466.6,1234.3z"/>
					<path class="st4" d="M2450.8,1252.4C2450.8,1252.4,2450.8,1252.4,2450.8,1252.4c-0.5,0.6-1.3,1.8,0.1-0.2
						C2450.9,1252.2,2450.9,1252.3,2450.8,1252.4C2450.8,1252.3,2450.8,1252.4,2450.8,1252.4z"/>
				</g>
				<path class="st9" d="M2519,1253.3c0,9.8-6.1,19-15.8,22.5l-10.6-29.4c-0.7,5.6-3.3,10.7-7.1,14.6c-3.9,3.9-9,6.5-14.9,7.2
					l-4-33.9l-1.4-11.8l-12.3-1.2l-37.4-3.6c1-10.7,8.6-19.1,18.3-21.8l-25.2-7.5c3.8-12.6,17.1-19.8,29.7-16l41.1,12.3
					c11.5,3.4,20.6,12.1,24.7,23.3l13.4,37.2C2518.5,1247.9,2519,1250.6,2519,1253.3z"/>
			</g>
			<g>
				<path class="st3" d="M1066.2,1849.8H1040c0.2-9.5-0.2-19.1-1.4-28.5c-1.9-13.3-5.3-26.3-10.4-38.8c-4.4-10-9.9-19.6-16.5-28.4
					c-6-7.6-12.8-14.5-20.3-20.5c-0.1-0.1-0.1-0.1-0.2-0.2c-1.2-0.9-2.5-1.8-3.8-2.7l2-15.1l19.4-1.5c4.1,3.3,8.1,6.8,11.8,10.6
					c15.9,16.1,27.6,35.8,35.3,57.1c3.9,10.8,6.5,22,8.1,33.4C1065.6,1826.6,1066.4,1838.2,1066.2,1849.8z"/>
				<path class="st8" d="M1029.8,1696.4c3.8,4.1,6.4,9.5,6.9,15.6l-27.8,2.2l-19.4,1.5l-2,15.1l-4.8,35.8
					c-10.9-1.5-19.3-9.6-21.7-19.7l-8.7,25.6c-12.8-4.4-19.7-18.3-15.3-31.2l14.2-41.8c4-11.6,13.2-20.7,25-24.4l38.8-12.3
					c12.9-4.1,26.7,3.1,30.8,16l-30.7,9.7C1020.8,1689.4,1025.9,1692.2,1029.8,1696.4z"/>
			</g>
			<g>
				<path class="st2" d="M1136.5,1799c2.1,19,3.7,38.1,2.9,57.1h-18.8c0.7-14.7-0.2-29.5-1.5-44.2c-2.7-29.3-7.6-58.5-6.4-88
					c0.6-15.1,2.7-30.3,7-44.8l16.5-6.8l3.7,5.4c-3.3,9.3-5.6,19-6.9,28.9c-1.3,10-1.7,20.1-1.6,30.2
					C1131.5,1757.6,1134.3,1778.3,1136.5,1799z"/>
				<path class="st9" d="M1194.4,1701.7l-23.1-21.1c1.1,2.9,1.6,5.9,1.6,8.9c0,8-3.8,15.8-10.8,20.7l-22.4-32.5l-3.7-5.4l-16.5,6.8
					l-29.7,12.2c-4.1-9.9-1.3-20.9,6-27.8l-25.8,5.1c-2.6-12.9,5.9-25.5,18.8-28l42.1-8.3c11.7-2.3,23.9,1.1,32.7,9.1l29.2,26.7
					c5.2,4.7,7.8,11.2,7.8,17.6C1200.7,1691.4,1198.6,1697.1,1194.4,1701.7z"/>
			</g>
			<g>
				<polygon class="st3" points="1293.2,1708.9 1329.7,1793.3 1442.2,1793.3 1475.9,1737 1454.8,1678 1356.4,1640 				"/>
				<polygon class="st4" points="1293.2,1708.9 1329.7,1793.3 1364.1,1793.3 1364.1,1793.2 1397.2,1731.4 1356.4,1640 				"/>
			</g>
		</g>
		<g id="opt1_x5F_pack2">
			<path class="st3" d="M1404.8,1608.4l-67.2-76.6h-68.8l-42.2-48.4v-75l-15.6-18.8h-10.9c-51.8,0-93.8-42-93.8-93.8v-170.3h381.3
				l-20.3,357.8L1404.8,1608.4z"/>
			<g>
				<path class="st5" d="M1472.5,1473.4L1324,1262.1c-1.9-2.7-4.9-4.2-8.2-4.2h-67.9c-26,0-50.7-7.3-71.7-21
					c-19.6-12.9-35.5-31.2-46-52.8c-10.4-21.6-14.8-45.4-12.7-68.9c2.2-24.9,12-48.9,28.1-69.2l87.7-110.3
					c52.7-66.3,121-120.9,197.3-157.7c76.3-36.8,161.5-56.3,246.2-56.3H1947c115.1,0,208.8,93.6,208.8,208.8v263.1l-270.8,280
					H1472.5z"/>
				<path class="st6" d="M1947,731.6c26.8,0,52.9,5.3,77.4,15.6c23.7,10,44.9,24.3,63.2,42.6c18.3,18.3,32.6,39.5,42.6,63.2
					c10.4,24.5,15.6,50.5,15.6,77.4v259.1l-265,274h-403l-145.6-207.1c-3.7-5.3-9.8-8.5-16.4-8.5h-67.9c-24,0-46.9-6.7-66.2-19.4
					c-18.1-11.9-32.8-28.8-42.5-48.8c-9.6-20-13.7-42-11.8-63.6c2.1-23,11.1-45.1,26-63.9l87.7-110.3c26.1-32.8,56-62.8,88.8-88.9
					c32.4-25.8,67.7-48,105-66c37.3-18,76.7-31.8,117.1-41.1c40.9-9.4,82.8-14.2,124.8-14.2H1947 M1947,711.6h-270.2
					c-175.8,0-342,80.2-451.3,217.8l-87.7,110.3c-73.3,92.1-7.6,228.1,110.1,228.1h67.9l151.6,215.6h421.9l276.6-285.9V930.3
					C2165.8,809.5,2067.8,711.6,1947,711.6L1947,711.6z"/>
			</g>
			<polygon class="st3" points="1467.3,1483.4 1404.8,1608.4 1986.1,1608.4 1889.2,1483.4 			"/>
			<polygon class="st2" points="2165.8,1197.5 2165.8,1342.8 2083,1435 2083,1505.3 1986.1,1608.4 1889.2,1483.4 			"/>
			<polygon class="st4" points="1211.1,1389.7 1315.8,1267.8 1467.3,1483.4 1404.8,1608.4 1339.2,1531.9 1339.2,1461.6 
				1268.9,1531.9 1226.7,1483.4 1226.7,1408.4 			"/>
			<g>
				<g>
					<path class="st2" d="M1601.2,895.4c2.1,19,3.7,38.1,2.9,57.1h-18.8c0.7-14.7-0.2-29.5-1.5-44.2c-2.7-29.3-7.6-58.5-6.4-88
						c0.6-15.1,2.7-30.3,7-44.8l16.5-6.8l3.7,5.4c-3.3,9.3-5.6,19-6.9,28.9c-1.3,10-1.7,20.1-1.6,30.2
						C1596.2,854.1,1598.9,874.8,1601.2,895.4z"/>
					<path class="st9" d="M1659.1,798.2l-23.1-21.1c1.1,2.9,1.6,5.9,1.6,8.9c0,8-3.8,15.8-10.8,20.7l-22.4-32.5l-3.7-5.4l-16.5,6.8
						l-29.7,12.2c-4.1-9.9-1.3-20.9,6-27.8l-25.8,5.1c-2.6-12.9,5.9-25.5,18.8-28l42.1-8.3c11.7-2.3,23.9,1.1,32.7,9.1l29.2,26.7
						c5.2,4.7,7.8,11.2,7.8,17.6C1665.4,787.9,1663.3,793.6,1659.1,798.2z"/>
				</g>
				<g>
					<g>
						<path class="st10" d="M1725.8,807.6C1725.9,807.6,1725.9,807.5,1725.8,807.6C1725.9,807.5,1725.9,807.6,1725.8,807.6z"/>
						<path class="st10" d="M1725.9,807.5C1725.9,807.5,1725.9,807.5,1725.9,807.5c0.1-0.1,0.1-0.1,0.1-0.2c0,0,0.1-0.1,0.1-0.1
							C1726.1,807.3,1726,807.4,1725.9,807.5z"/>
						<path class="st4" d="M1694.5,862.1c0.1-0.3,0.3-0.6,0.4-1c0.2-0.4,0.3-0.9,0.5-1.3C1695.1,860.6,1694.8,861.4,1694.5,862.1z"
							/>
						<path class="st4" d="M1672.1,948.8c0-0.3,0.1-0.7,0.1-1c0.1-0.5,0.1-1,0.2-1.5C1672.3,947.2,1672.2,948,1672.1,948.8z"/>
						<path class="st4" d="M1741.7,789.4c-0.5,0.5-1,1-1.5,1.5c-5,5.2-9.7,10.7-14.2,16.3c-0.1,0.1-0.1,0.1-0.2,0.2
							c0,0,0,0.1-0.1,0.1c-0.2,0.3-0.4,0.6-0.7,0.9c-0.5,0.7-1,1.4-1.5,2.1c-1,1.3-1.9,2.7-2.9,4c-2,2.9-4,5.9-5.9,8.9
							c-7.7,12-14.3,24.7-19.9,37.7c0.1-0.2,0.2-0.4,0.3-0.6c-0.2,0.5-0.5,1.1-0.7,1.6c0.1-0.3,0.3-0.6,0.4-1
							c-2.4,5.8-4.6,11.6-6.6,17.5c-7.7,22.4-12.8,45.7-16,69.2c-0.1,0.3-0.1,0.7-0.1,1c0-0.2,0.1-0.3,0.1-0.5
							c-0.2,1.4-0.4,2.8-0.5,4.2h-18.9c1.4-12.1,3.3-24.1,5.7-36c6.2-30.7,16.4-60.9,31.5-88.4c10.3-18.8,23-36.4,38.1-51.8
							l12.3,1.2L1741.7,789.4z"/>
						<path class="st4" d="M1725.9,807.5C1725.9,807.5,1725.9,807.6,1725.9,807.5c-0.5,0.6-1.3,1.8,0.1-0.2
							C1726,807.4,1726,807.4,1725.9,807.5C1725.9,807.5,1725.9,807.5,1725.9,807.5z"/>
					</g>
					<path class="st9" d="M1794.1,808.4c0,9.8-6.1,19-15.8,22.5l-10.6-29.4c-0.7,5.6-3.3,10.7-7.1,14.6c-3.9,3.9-9,6.5-14.9,7.2
						l-4-33.9l-1.4-11.8l-12.3-1.2l-37.4-3.6c1-10.7,8.6-19.1,18.3-21.8l-25.2-7.5c3.8-12.6,17.1-19.8,29.7-16l41.1,12.3
						c11.5,3.4,20.6,12.1,24.7,23.3l13.4,37.2C1793.6,803,1794.1,805.8,1794.1,808.4z"/>
				</g>
				<g>
					<path class="st13" d="M1547.4,1015.1c0,62.5-50.7,113.2-113.2,113.2c-8.6,0-17-1-25-2.8c-50.5-11.4-88.2-56.5-88.2-110.5
						s37.7-99.1,88.2-110.5c8.1-1.8,16.4-2.8,25-2.8C1496.7,901.9,1547.4,952.6,1547.4,1015.1z"/>
					<ellipse class="st14" cx="1409.2" cy="1015.1" rx="88.2" ry="110.5"/>
					<rect x="1292.8" y="1015.4" class="st3" width="181.4" height="126.9"/>
					<rect x="1394.7" y="1015.4" class="st2" width="181.4" height="126.9"/>
					<path class="st4" d="M1346,1061.1h-8.4c-9.1,0-16.4,7.4-16.4,16.4v64.7h41.3v-64.7C1362.4,1068.5,1355.1,1061.1,1346,1061.1z"
						/>
					<path class="st4" d="M1457.7,1100.3L1457.7,1100.3c-6.7,0-12.1,5.4-12.1,12.1v13.3h24.3v-13.3
						C1469.8,1105.7,1464.4,1100.3,1457.7,1100.3z"/>
					<path class="st4" d="M1497.5,1100.3L1497.5,1100.3c-6.7,0-12.1,5.4-12.1,12.1v13.3h24.3v-13.3
						C1509.7,1105.7,1504.2,1100.3,1497.5,1100.3z"/>
					<path class="st4" d="M1537.4,1100.3L1537.4,1100.3c-6.7,0-12.1,5.4-12.1,12.1v13.3h24.3v-13.3
						C1549.5,1105.7,1544.1,1100.3,1537.4,1100.3z"/>
					<path class="st4" d="M1497.5,1045.9L1497.5,1045.9c-6.7,0-12.1,5.4-12.1,12.1v13.3h24.3V1058
						C1509.7,1051.3,1504.2,1045.9,1497.5,1045.9z"/>
					<path class="st4" d="M1537.4,1045.9L1537.4,1045.9c-6.7,0-12.1,5.4-12.1,12.1v13.3h24.3V1058
						C1549.5,1051.3,1544.1,1045.9,1537.4,1045.9z"/>
					<polygon class="st13" points="1357.7,990.9 1344.7,1005.4 1331.6,990.9 					"/>
					<polygon class="st13" points="1399.9,990.9 1386.9,1005.4 1373.8,990.9 					"/>
					<polygon class="st13" points="1378.7,1005.4 1365.6,990.9 1352.6,1005.4 					"/>
					<polygon class="st13" points="1442,990.4 1429,1004.9 1415.9,990.4 					"/>
					<polygon class="st13" points="1484.2,990.4 1471.2,1004.9 1458.1,990.4 					"/>
					<polygon class="st13" points="1463.5,1004.9 1450.4,990.4 1437.4,1004.9 					"/>
					<polygon class="st13" points="1421.1,1004.9 1408,990.4 1395,1004.9 					"/>
				</g>
				<g>
					<polygon class="st3" points="1811.7,1325.8 1811.7,1378.3 1585,1378.3 1585,1334.5 1658.3,1259 1719.7,1259 					"/>
					<polygon class="st4" points="1697.8,1299.5 1697.8,1340 1658.3,1378.3 1585,1378.3 1585,1334.5 1658.3,1259 					"/>
				</g>
				<g>
					<path class="st3" d="M1968.7,1224h-26.2c0.2-9.5-0.2-19.1-1.4-28.5c-1.9-13.3-5.3-26.3-10.4-38.8c-4.4-10-9.9-19.6-16.5-28.4
						c-6-7.6-12.8-14.5-20.3-20.5c-0.1-0.1-0.1-0.1-0.2-0.2c-1.2-0.9-2.5-1.8-3.8-2.7l2-15.1l19.4-1.5c4.1,3.3,8.1,6.8,11.8,10.6
						c15.9,16.1,27.6,35.8,35.3,57.1c3.9,10.8,6.5,22,8.1,33.4C1968.1,1200.8,1969,1212.4,1968.7,1224z"/>
					<path class="st8" d="M1932.3,1070.6c3.8,4.1,6.4,9.5,6.9,15.6l-27.8,2.2l-19.4,1.5l-2,15.1l-4.8,35.8
						c-10.9-1.5-19.3-9.6-21.7-19.7l-8.7,25.6c-12.8-4.4-19.7-18.3-15.3-31.2l14.2-41.8c4-11.6,13.2-20.7,25-24.4l38.8-12.3
						c12.9-4.1,26.7,3.1,30.8,16l-30.7,9.7C1923.3,1063.6,1928.4,1066.4,1932.3,1070.6z"/>
				</g>
				<g>
					<path class="st2" d="M2047.8,1168.1c2.1,19,3.7,38.1,2.9,57.1h-18.8c0.7-14.7-0.2-29.5-1.5-44.2c-2.7-29.3-7.6-58.5-6.4-88
						c0.6-15.1,2.7-30.3,7-44.8l16.5-6.8l3.7,5.4c-3.3,9.3-5.6,19-6.9,28.9c-1.3,10-1.7,20.1-1.6,30.2
						C2042.8,1126.8,2045.6,1147.5,2047.8,1168.1z"/>
					<path class="st9" d="M2105.7,1070.9l-23.1-21.1c1.1,2.9,1.6,5.9,1.6,8.9c0,8-3.8,15.8-10.8,20.7l-22.4-32.5l-3.7-5.4l-16.5,6.8
						l-29.7,12.2c-4.1-9.9-1.3-20.9,6-27.8l-25.8,5.1c-2.6-12.9,5.9-25.5,18.8-28l42.1-8.3c11.7-2.3,23.9,1.1,32.7,9.1l29.2,26.7
						c5.2,4.7,7.8,11.2,7.8,17.6C2112,1060.5,2109.9,1066.3,2105.7,1070.9z"/>
				</g>
				<g>
					<polygon class="st2" points="1882.2,874.3 1910.7,940 1998.3,940 2024.6,896.2 2008.2,850.2 1931.5,820.6 					"/>
					<polygon class="st3" points="1882.2,874.3 1910.7,940 1937.5,940 1937.5,940 1963.3,891.8 1931.5,820.6 					"/>
				</g>
			</g>
			<g>
				<g>
					<path class="st2" d="M1665.5,1674.6c2.1,19,3.7,38.1,2.9,57.1h-18.8c0.7-14.7-0.2-29.5-1.5-44.2c-2.7-29.3-7.6-58.5-6.4-88
						c0.6-15.1,2.7-30.3,7-44.8l16.5-6.8l3.7,5.4c-3.3,9.3-5.6,19-6.9,28.9c-1.3,10-1.7,20.1-1.6,30.2
						C1660.6,1633.2,1663.3,1653.9,1665.5,1674.6z"/>
					<path class="st9" d="M1723.5,1577.3l-23.1-21.1c1.1,2.9,1.6,5.9,1.6,8.9c0,8-3.8,15.8-10.8,20.7l-22.4-32.5l-3.7-5.4l-16.5,6.8
						l-29.7,12.2c-4.1-9.9-1.3-20.9,6-27.8l-25.8,5.1c-2.6-12.9,5.9-25.5,18.8-28l42.1-8.3c11.7-2.3,23.9,1.1,32.7,9.1l29.2,26.7
						c5.2,4.7,7.8,11.2,7.8,17.6C1729.7,1567,1727.7,1572.7,1723.5,1577.3z"/>
				</g>
				<g>
					<path class="st3" d="M1067.6,1276.8h-26.2c0.2-9.5-0.2-19.1-1.4-28.5c-1.9-13.3-5.3-26.3-10.4-38.8c-4.4-10-9.9-19.6-16.5-28.4
						c-6-7.6-12.8-14.5-20.3-20.5c-0.1-0.1-0.1-0.1-0.2-0.2c-1.2-0.9-2.5-1.8-3.8-2.7l2-15.1l19.4-1.5c4.1,3.3,8.1,6.8,11.8,10.6
						c15.9,16.1,27.6,35.8,35.3,57.1c3.9,10.8,6.5,22,8.1,33.4C1067,1253.6,1067.8,1265.2,1067.6,1276.8z"/>
					<path class="st8" d="M1031.2,1123.3c3.8,4.1,6.4,9.5,6.9,15.6l-27.8,2.2l-19.4,1.5l-2,15.1l-4.8,35.8
						c-10.9-1.5-19.3-9.6-21.7-19.7l-8.7,25.6c-12.8-4.4-19.7-18.3-15.3-31.2l14.2-41.8c4-11.6,13.2-20.7,25-24.4l38.8-12.3
						c12.9-4.1,26.7,3.1,30.8,16l-30.7,9.7C1022.2,1116.4,1027.3,1119.2,1031.2,1123.3z"/>
				</g>
				<g>
					<path class="st2" d="M1107.6,1370.5c2.1,19,3.7,38.1,2.9,57.1h-18.8c0.7-14.7-0.2-29.5-1.5-44.2c-2.7-29.3-7.6-58.5-6.4-88
						c0.6-15.1,2.7-30.3,7-44.8l16.5-6.8l3.7,5.4c-3.3,9.3-5.6,19-6.9,28.9c-1.3,10-1.7,20.1-1.6,30.2
						C1102.6,1329.1,1105.4,1349.8,1107.6,1370.5z"/>
					<path class="st9" d="M1165.5,1273.2l-23.1-21.1c1.1,2.9,1.6,5.9,1.6,8.9c0,8-3.8,15.8-10.8,20.7l-22.4-32.5l-3.7-5.4l-16.5,6.8
						l-29.7,12.2c-4.1-9.9-1.3-20.9,6-27.8l-25.8,5.1c-2.6-12.9,5.9-25.5,18.8-28l42.1-8.3c11.7-2.3,23.9,1.1,32.7,9.1l29.2,26.7
						c5.2,4.7,7.8,11.2,7.8,17.6C1171.8,1262.9,1169.7,1268.6,1165.5,1273.2z"/>
				</g>
			</g>
		</g>
	</g>
	<g id="base_x5F_pack1">
		<g>
			<path class="st13" d="M2538.8,2850.8c0,74.5-60.4,134.8-134.8,134.8c-10.2,0-20.2-1.1-29.8-3.3c-60.1-13.6-105-67.3-105-131.5
				s44.9-118,105-131.5c9.6-2.2,19.6-3.3,29.8-3.3C2478.4,2716,2538.8,2776.4,2538.8,2850.8z"/>
			<ellipse class="st14" cx="2374.1" cy="2850.8" rx="105" ry="131.5"/>
			<rect x="2235.5" y="2851.1" class="st3" width="216" height="151.1"/>
			<rect x="2356.9" y="2851.1" class="st2" width="216" height="151.1"/>
			<path class="st4" d="M2487.1,2905.8h-16.3c-9.1,0-16.4,7.4-16.4,16.4v80.2h49.2v-80.2C2503.5,2913.2,2496.1,2905.8,2487.1,2905.8
				z"/>
			<path class="st4" d="M2267.4,2902.1L2267.4,2902.1c-8,0-14.5,6.5-14.5,14.5v15.8h28.9v-15.8
				C2281.8,2908.6,2275.4,2902.1,2267.4,2902.1z"/>
			<path class="st4" d="M2314.8,2902.1L2314.8,2902.1c-8,0-14.5,6.5-14.5,14.5v15.8h28.9v-15.8
				C2329.3,2908.6,2322.8,2902.1,2314.8,2902.1z"/>
			<polygon class="st13" points="2312.9,2822 2297.4,2839.2 2281.8,2822 			"/>
			<polygon class="st13" points="2363.2,2822 2347.6,2839.2 2332.1,2822 			"/>
			<polygon class="st13" points="2337.9,2839.2 2322.3,2822 2306.8,2839.2 			"/>
			<polygon class="st13" points="2413.3,2821.4 2397.7,2838.6 2382.2,2821.4 			"/>
			<polygon class="st13" points="2463.6,2821.4 2448,2838.6 2432.4,2821.4 			"/>
			<polygon class="st13" points="2438.9,2838.6 2423.3,2821.4 2407.8,2838.6 			"/>
			<polygon class="st13" points="2388.4,2838.6 2372.8,2821.4 2357.2,2838.6 			"/>
		</g>
		<g>
			<path class="st13" d="M2135.9,2665.4c0,74.5-60.4,134.8-134.8,134.8c-10.2,0-20.2-1.1-29.8-3.3c-60.1-13.6-105-67.3-105-131.5
				c0-64.2,44.9-118,105-131.5c9.6-2.2,19.6-3.3,29.8-3.3C2075.5,2530.5,2135.9,2590.9,2135.9,2665.4z"/>
			<ellipse class="st14" cx="1971.2" cy="2665.4" rx="105" ry="131.5"/>
			<rect x="1832.6" y="2665.6" class="st3" width="216" height="151.1"/>
			<rect x="1954" y="2665.6" class="st2" width="216" height="151.1"/>
			<path class="st4" d="M1899.1,2720.1h-16.3c-9.1,0-16.4,7.4-16.4,16.4v80.2h49.2v-80.2C1915.6,2727.5,1908.2,2720.1,1899.1,2720.1
				z"/>
			<path class="st4" d="M2029,2766.8L2029,2766.8c-8,0-14.5,6.5-14.5,14.5v15.8h28.9v-15.8C2043.5,2773.2,2037,2766.8,2029,2766.8z"
				/>
			<path class="st4" d="M2076.5,2766.8L2076.5,2766.8c-8,0-14.5,6.5-14.5,14.5v15.8h28.9v-15.8
				C2090.9,2773.2,2084.4,2766.8,2076.5,2766.8z"/>
			<path class="st4" d="M2123.9,2766.8L2123.9,2766.8c-8,0-14.5,6.5-14.5,14.5v15.8h28.9v-15.8
				C2138.4,2773.2,2131.9,2766.8,2123.9,2766.8z"/>
			<path class="st4" d="M2076.5,2701.9L2076.5,2701.9c-8,0-14.5,6.5-14.5,14.5v15.8h28.9v-15.8
				C2090.9,2708.4,2084.4,2701.9,2076.5,2701.9z"/>
			<path class="st4" d="M2123.9,2701.9L2123.9,2701.9c-8,0-14.5,6.5-14.5,14.5v15.8h28.9v-15.8
				C2138.4,2708.4,2131.9,2701.9,2123.9,2701.9z"/>
			<polygon class="st13" points="1910,2636.5 1894.4,2653.8 1878.9,2636.5 			"/>
			<polygon class="st13" points="1960.3,2636.5 1944.7,2653.8 1929.1,2636.5 			"/>
			<polygon class="st13" points="1935,2653.8 1919.4,2636.5 1903.8,2653.8 			"/>
			<polygon class="st13" points="2010.4,2635.9 1994.8,2653.1 1979.3,2635.9 			"/>
			<polygon class="st13" points="2060.6,2635.9 2045.1,2653.1 2029.5,2635.9 			"/>
			<polygon class="st13" points="2035.9,2653.1 2020.4,2635.9 2004.8,2653.1 			"/>
			<polygon class="st13" points="1985.4,2653.1 1969.9,2635.9 1954.3,2653.1 			"/>
		</g>
		<g>
			<path class="st3" d="M695.3,2053.7h-31.6c0.3-11.5-0.3-23-1.7-34.3c-2.3-16-6.4-31.7-12.5-46.7c-5.3-12.1-11.9-23.6-19.9-34.2
				c-7.2-9.1-15.4-17.4-24.4-24.7c-0.1-0.1-0.2-0.1-0.2-0.2c-1.5-1.1-3-2.2-4.6-3.3l2.4-18.2l23.4-1.9c5,4,9.7,8.2,14.1,12.7
				c19.2,19.4,33.2,43.1,42.4,68.7c4.7,13,7.9,26.5,9.8,40.1C694.6,2025.8,695.6,2039.7,695.3,2053.7z"/>
			<path class="st8" d="M651.5,1869c4.6,4.9,7.7,11.4,8.2,18.7l-33.4,2.6l-23.4,1.9l-2.4,18.2l-5.8,43.1
				c-13.1-1.8-23.2-11.5-26.1-23.7l-10.5,30.8c-15.4-5.3-23.7-22.1-18.4-37.5l17.1-50.3c4.8-14,15.9-24.9,30.1-29.4l46.6-14.8
				c15.6-4.9,32.2,3.7,37.1,19.2l-36.9,11.7C640.7,1860.6,646.9,1864.1,651.5,1869z"/>
		</g>
		<g>
			<path class="st2" d="M762.3,1878.1c2.1,19,3.7,38.1,2.9,57.1h-18.8c0.7-14.7-0.2-29.5-1.5-44.2c-2.7-29.3-7.6-58.5-6.4-88
				c0.6-15.1,2.7-30.3,7-44.8l16.5-6.8l3.7,5.4c-3.3,9.3-5.6,19-6.9,28.9c-1.3,10-1.7,20.1-1.6,30.2
				C757.3,1836.8,760,1857.5,762.3,1878.1z"/>
			<path class="st9" d="M820.2,1780.9l-23.1-21.1c1.1,2.9,1.6,5.9,1.6,8.9c0,8-3.8,15.8-10.8,20.7l-22.4-32.5l-3.7-5.4l-16.5,6.8
				l-29.7,12.2c-4.1-9.9-1.3-20.9,6-27.8l-25.8,5.1c-2.6-12.9,5.9-25.5,18.8-28l42.1-8.3c11.7-2.3,23.9,1.1,32.7,9.1l29.2,26.7
				c5.2,4.7,7.8,11.2,7.8,17.6C826.4,1770.5,824.4,1776.3,820.2,1780.9z"/>
		</g>
		<g>
			<g>
				<path class="st10" d="M869.1,1845.6C869.1,1845.5,869.1,1845.5,869.1,1845.6C869.1,1845.5,869.1,1845.5,869.1,1845.6z"/>
				<path class="st10" d="M869.1,1845.5C869.1,1845.5,869.2,1845.5,869.1,1845.5c0.1-0.1,0.1-0.1,0.1-0.2c0,0,0.1-0.1,0.1-0.1
					C869.3,1845.3,869.2,1845.4,869.1,1845.5z"/>
				<path class="st4" d="M837.7,1900.1c0.1-0.3,0.3-0.6,0.4-1c0.2-0.4,0.3-0.9,0.5-1.3C838.3,1898.6,838,1899.3,837.7,1900.1z"/>
				<path class="st4" d="M815.3,1986.8c0-0.3,0.1-0.7,0.1-1c0.1-0.5,0.1-1,0.2-1.5C815.6,1985.1,815.5,1986,815.3,1986.8z"/>
				<path class="st4" d="M884.9,1827.4c-0.5,0.5-1,1-1.5,1.5c-5,5.2-9.7,10.7-14.2,16.3c-0.1,0.1-0.1,0.1-0.2,0.2c0,0,0,0.1-0.1,0.1
					c-0.2,0.3-0.4,0.6-0.7,0.9c-0.5,0.7-1,1.4-1.5,2.1c-1,1.3-1.9,2.7-2.9,4c-2,2.9-4,5.9-5.9,8.9c-7.7,12-14.3,24.7-19.9,37.7
					c0.1-0.2,0.2-0.4,0.3-0.6c-0.2,0.5-0.5,1.1-0.7,1.6c0.1-0.3,0.3-0.6,0.4-1c-2.4,5.8-4.6,11.6-6.6,17.5
					c-7.7,22.4-12.8,45.7-16,69.2c-0.1,0.3-0.1,0.7-0.1,1c0-0.2,0.1-0.3,0.1-0.5c-0.2,1.4-0.4,2.8-0.5,4.2H796
					c1.4-12.1,3.3-24.1,5.7-36c6.2-30.7,16.4-60.9,31.5-88.4c10.3-18.8,23-36.4,38.1-51.8l12.3,1.2L884.9,1827.4z"/>
				<path class="st4" d="M869.1,1845.5C869.1,1845.5,869.1,1845.5,869.1,1845.5c-0.5,0.6-1.3,1.8,0.1-0.2
					C869.2,1845.4,869.2,1845.4,869.1,1845.5C869.2,1845.5,869.1,1845.5,869.1,1845.5z"/>
			</g>
			<path class="st9" d="M937.3,1846.4c0,9.8-6.1,19-15.8,22.5l-10.6-29.4c-0.7,5.6-3.3,10.7-7.1,14.6c-3.9,3.9-9,6.5-14.9,7.2
				l-4-33.9l-1.4-11.8l-12.3-1.2l-37.4-3.6c1-10.7,8.6-19.1,18.3-21.8l-25.2-7.5c3.8-12.6,17.1-19.8,29.7-16l41.1,12.3
				c11.5,3.4,20.6,12.1,24.7,23.3l13.4,37.2C936.8,1841,937.3,1843.7,937.3,1846.4z"/>
		</g>
		<g>
			<path class="st2" d="M1983.7,2941.9c2.5,23.3,4.6,46.8,3.5,70.3H1964c0.8-18.1-0.2-36.4-1.9-54.5c-3.4-36-9.3-72-7.9-108.3
				c0.7-18.5,3.3-37.3,8.6-55.2l20.3-8.3l4.6,6.7c-4.1,11.5-6.8,23.4-8.5,35.5c-1.5,12.3-2.1,24.8-1.9,37.2
				C1977.6,2890.9,1981,2916.4,1983.7,2941.9z"/>
			<path class="st9" d="M2055.1,2822.1l-28.5-26c1.3,3.5,2,7.3,2,11c0,9.8-4.7,19.5-13.4,25.5l-27.5-40l-4.6-6.7l-20.3,8.3l-36.5,15
				c-5-12.2-1.6-25.7,7.4-34.3l-31.8,6.3c-3.2-15.9,7.2-31.4,23.1-34.5l51.8-10.2c14.5-2.8,29.4,1.3,40.3,11.3l36,32.8
				c6.4,5.8,9.6,13.7,9.6,21.7C2062.7,2809.4,2060.2,2816.5,2055.1,2822.1z"/>
		</g>
		<g>
			<polygon class="st3" points="1442.3,2660 1470.8,2725.7 1558.4,2725.7 1584.7,2681.9 1568.3,2635.9 1491.6,2606.3 			"/>
			<polygon class="st4" points="1442.3,2660 1470.8,2725.7 1497.6,2725.7 1497.6,2725.7 1523.4,2677.5 1491.6,2606.3 			"/>
		</g>
		<g>
			<path class="st4" d="M3590.3,1830.6l-1.4-41.3l-15.5,0.5l1.4,41.3c0.3,8.1-6.1,14.9-14.2,15.2l-3.1,0.1V1781
				c0-17.3-14.1-31.4-31.4-31.4h-13.7v15.5h13.7c8.7,0,15.8,7.1,15.8,15.8v33.3h-8.9c-15.1,0-27.5-12.3-27.5-27.5h-15.5
				c0,23.7,19.3,43,43,43h8.9v98.6h15.5V1862l3.6-0.1C3577.8,1861.3,3590.9,1847.3,3590.3,1830.6z"/>
		</g>
		<g>
			<path class="st4" d="M3318.2,2158.7c0,15.5-12.6,28.1-28.1,28.1h-2.1v-16.2c0-17.7-14.4-32.1-32.1-32.1h-14v15.9h14
				c8.9,0,16.2,7.3,16.2,16.2v60h-34.6c-8.3,0-15-6.7-15-15v-8.7h-15.9v8.7c0,17.1,13.9,30.9,30.9,30.9h34.6v74.9h15.9v-118.6h2.1
				c24.3,0,44-19.7,44-44H3318.2z"/>
		</g>
		<g>
			<path class="st9" d="M3635.6,2046.5c-5,0-9.1,4.1-9.1,9.1v28.4H3597v-77.7c0-15.7-12.7-28.4-28.4-28.4
				c-15.7,0-28.4,12.7-28.4,28.4v39.4h-24.8v-19c0-7-5.7-12.8-12.8-12.8c-7,0-12.8,5.7-12.8,12.8v31.7c0,7,5.7,12.8,12.8,12.8h37.6
				v118.9h56.9v-87.9h38.6c5,0,9.1-4.1,9.1-9.1v-37.6C3644.7,2050.6,3640.6,2046.5,3635.6,2046.5z"/>
		</g>
		<g>
			<path class="st9" d="M3031.3,1767.6c4.9,0,8.8,3.9,8.8,8.8v27.4h28.5V1729c0-15.1,12.3-27.4,27.4-27.4
				c15.1,0,27.4,12.3,27.4,27.4v38h23.9v-18.3c0-6.8,5.5-12.3,12.3-12.3s12.3,5.5,12.3,12.3v30.6c0,6.8-5.5,12.3-12.3,12.3h-36.2
				v114.6h-54.9v-84.7h-37.3c-4.9,0-8.8-3.9-8.8-8.8v-36.2C3022.5,1771.6,3026.5,1767.6,3031.3,1767.6z"/>
		</g>
		<g>
			<path class="st11" d="M3301.1,2048.8c0,0-28.8-30.7-34.4-55.8c-5.6-25.1,3.7-59.5,39.1-62.3s49.3,20.5,49.3,33.5
				c0,50.2-19.5,84.6-19.5,84.6H3301.1z"/>
			<circle class="st12" cx="3270.1" cy="1957.8" r="14.9"/>
			<circle class="st12" cx="3349.8" cy="1998.8" r="14.9"/>
		</g>
		<g>
			<polygon class="st2" points="3023,2113.3 3051.5,2179 3139.1,2179 3165.4,2135.2 3148.9,2089.2 3072.3,2059.7 			"/>
			<polygon class="st3" points="3023,2113.3 3051.5,2179 3078.2,2179 3078.2,2179 3104,2130.9 3072.3,2059.7 			"/>
		</g>
	</g>
	<g id="base_x5F_pack2">
		<g>
			<polygon class="st2" points="2895.9,2221.1 2432.2,2221.1 2664.1,1982.3 			"/>
			<polygon class="st3" points="2664.1,1982.3 2664.1,2221.1 2432.2,2221.1 			"/>
		</g>
		<g>
			<path class="st3" d="M2484.5,2084.8h-26.2c0.2-9.5-0.2-19.1-1.4-28.5c-1.9-13.3-5.3-26.3-10.4-38.8c-4.4-10-9.9-19.6-16.5-28.4
				c-6-7.6-12.8-14.5-20.3-20.5c-0.1-0.1-0.1-0.1-0.2-0.2c-1.2-0.9-2.5-1.8-3.8-2.7l2-15.1l19.4-1.5c4.1,3.3,8.1,6.8,11.8,10.6
				c15.9,16.1,27.6,35.8,35.3,57.1c3.9,10.8,6.5,22,8.1,33.4C2483.9,2061.6,2484.7,2073.2,2484.5,2084.8z"/>
			<path class="st8" d="M2448.1,1931.3c3.8,4.1,6.4,9.5,6.9,15.6l-27.8,2.2l-19.4,1.5l-2,15.1l-4.8,35.8
				c-10.9-1.5-19.3-9.6-21.7-19.7l-8.7,25.6c-12.8-4.4-19.7-18.3-15.3-31.2l14.2-41.8c4-11.6,13.2-20.7,25-24.4l38.8-12.3
				c12.9-4.1,26.7,3.1,30.8,16l-30.7,9.7C2439.1,1924.4,2444.2,1927.2,2448.1,1931.3z"/>
		</g>
		<g>
			<path class="st2" d="M2840.3,2046.5c2.1,19,3.7,38.1,2.9,57.1h-18.8c0.7-14.7-0.2-29.5-1.5-44.2c-2.7-29.3-7.6-58.5-6.4-88
				c0.6-15.1,2.7-30.3,7-44.8l16.5-6.8l3.7,5.4c-3.3,9.3-5.6,19-6.9,28.9c-1.3,10-1.7,20.1-1.6,30.2
				C2835.3,2005.2,2838,2025.9,2840.3,2046.5z"/>
			<path class="st9" d="M2898.2,1949.3l-23.1-21.1c1.1,2.9,1.6,5.9,1.6,8.9c0,8-3.8,15.8-10.8,20.7l-22.4-32.5l-3.7-5.4l-16.5,6.8
				l-29.7,12.2c-4.1-9.9-1.3-20.9,6-27.8l-25.8,5.1c-2.6-12.9,5.9-25.5,18.8-28l42.1-8.3c11.7-2.3,23.9,1.1,32.7,9.1l29.2,26.7
				c5.2,4.7,7.8,11.2,7.8,17.6C2904.4,1938.9,2902.4,1944.7,2898.2,1949.3z"/>
		</g>
		<g>
			<g>
				<path class="st10" d="M2973.7,1953.6C2973.7,1953.6,2973.7,1953.6,2973.7,1953.6C2973.7,1953.6,2973.7,1953.6,2973.7,1953.6z"/>
				<path class="st10" d="M2973.8,1953.6C2973.8,1953.6,2973.8,1953.5,2973.8,1953.6c0.1-0.1,0.1-0.1,0.1-0.2c0,0,0.1-0.1,0.1-0.1
					C2973.9,1953.4,2973.8,1953.5,2973.8,1953.6z"/>
				<path class="st4" d="M2942.4,2008.2c0.1-0.3,0.3-0.6,0.4-1c0.2-0.4,0.3-0.9,0.5-1.3C2943,2006.7,2942.7,2007.4,2942.4,2008.2z"
					/>
				<path class="st4" d="M2920,2094.9c0-0.3,0.1-0.7,0.1-1c0.1-0.5,0.1-1,0.2-1.5C2920.2,2093.2,2920.1,2094.1,2920,2094.9z"/>
				<path class="st4" d="M2989.6,1935.5c-0.5,0.5-1,1-1.5,1.5c-5,5.2-9.7,10.7-14.2,16.3c-0.1,0.1-0.1,0.1-0.2,0.2
					c0,0,0,0.1-0.1,0.1c-0.2,0.3-0.4,0.6-0.7,0.9c-0.5,0.7-1,1.4-1.5,2.1c-1,1.3-1.9,2.7-2.9,4c-2,2.9-4,5.9-5.9,8.9
					c-7.7,12-14.3,24.7-19.9,37.7c0.1-0.2,0.2-0.4,0.3-0.6c-0.2,0.5-0.5,1.1-0.7,1.6c0.1-0.3,0.3-0.6,0.4-1
					c-2.4,5.8-4.6,11.6-6.6,17.5c-7.7,22.4-12.8,45.7-16,69.2c-0.1,0.3-0.1,0.7-0.1,1c0-0.2,0.1-0.3,0.1-0.5
					c-0.2,1.4-0.4,2.8-0.5,4.2h-18.9c1.4-12.1,3.3-24.1,5.7-36c6.2-30.7,16.4-60.9,31.5-88.4c10.3-18.8,23-36.4,38.1-51.8l12.3,1.2
					L2989.6,1935.5z"/>
				<path class="st4" d="M2973.8,1953.6C2973.7,1953.6,2973.7,1953.6,2973.8,1953.6c-0.5,0.6-1.3,1.8,0.1-0.2
					C2973.9,1953.4,2973.8,1953.5,2973.8,1953.6C2973.8,1953.5,2973.8,1953.6,2973.8,1953.6z"/>
			</g>
			<path class="st9" d="M3041.9,1954.5c0,9.8-6.1,19-15.8,22.5l-10.6-29.4c-0.7,5.6-3.3,10.7-7.1,14.6c-3.9,3.9-9,6.5-14.9,7.2
				l-4-33.9l-1.4-11.8l-12.3-1.2l-37.4-3.6c1-10.7,8.6-19.1,18.3-21.8l-25.2-7.5c3.8-12.6,17.1-19.8,29.7-16l41.1,12.3
				c11.5,3.4,20.6,12.1,24.7,23.3l13.4,37.2C3041.5,1949.1,3041.9,1951.8,3041.9,1954.5z"/>
		</g>
		<g>
			<path class="st3" d="M796,2433.4h-33c0.3-12-0.3-24-1.8-35.9c-2.4-16.7-6.7-33.1-13.1-48.8c-5.5-12.6-12.5-24.7-20.8-35.7
				c-7.5-9.5-16.1-18.2-25.5-25.8c-0.1-0.1-0.2-0.1-0.2-0.2c-1.6-1.2-3.2-2.3-4.8-3.4l2.6-19l24.4-1.9c5.2,4.2,10.1,8.6,14.8,13.3
				c20,20.3,34.8,45.1,44.4,71.9c4.9,13.6,8.2,27.7,10.2,42C795.3,2404.2,796.3,2418.7,796,2433.4z"/>
			<path class="st8" d="M750.2,2240.2c4.8,5.2,8,12,8.6,19.6l-34.9,2.8l-24.4,1.9l-2.6,19l-6.1,45.1c-13.7-1.9-24.3-12.1-27.3-24.8
				l-11,32.2c-16.2-5.5-24.8-23.1-19.3-39.2l17.9-52.6c5-14.7,16.7-26.1,31.4-30.8l48.8-15.5c16.3-5.1,33.6,3.9,38.8,20.1
				l-38.6,12.2C738.8,2231.5,745.3,2235,750.2,2240.2z"/>
		</g>
		<g>
			<path class="st2" d="M842,2253.5c2.5,22.8,4.5,45.8,3.4,68.7h-22.7c0.8-17.7-0.2-35.5-1.8-53.2c-3.3-35.2-9.1-70.3-7.7-105.8
				c0.7-18.1,3.2-36.5,8.4-53.9l19.8-8.1l4.5,6.5c-4,11.2-6.7,22.9-8.3,34.7c-1.5,12.1-2,24.2-1.9,36.3
				C836,2203.7,839.3,2228.6,842,2253.5z"/>
			<path class="st9" d="M911.7,2136.5l-27.8-25.4c1.3,3.5,1.9,7.1,1.9,10.7c0,9.6-4.6,19-13,24.9l-26.9-39.1l-4.5-6.5l-19.8,8.1
				l-35.7,14.7c-4.9-11.9-1.6-25.2,7.3-33.5l-31,6.1c-3.1-15.6,7-30.7,22.6-33.7l50.7-10c14.1-2.8,28.7,1.3,39.4,11l35.1,32.1
				c6.2,5.7,9.4,13.4,9.4,21.2C919.2,2124,916.7,2131,911.7,2136.5z"/>
		</g>
		<g>
			<g>
				<path class="st10" d="M1004.4,2174.9C1004.4,2174.8,1004.5,2174.8,1004.4,2174.9C1004.5,2174.8,1004.4,2174.8,1004.4,2174.9z"/>
				<path class="st10" d="M1004.5,2174.8C1004.5,2174.8,1004.5,2174.7,1004.5,2174.8c0.1-0.1,0.1-0.2,0.2-0.2c0-0.1,0.1-0.1,0.1-0.2
					C1004.7,2174.5,1004.6,2174.7,1004.5,2174.8z"/>
				<path class="st4" d="M965.2,2243.1c0.2-0.4,0.4-0.8,0.5-1.2c0.2-0.5,0.4-1.1,0.7-1.6C966,2241.2,965.6,2242.1,965.2,2243.1z"/>
				<path class="st4" d="M937.2,2351.6c0.1-0.4,0.1-0.8,0.2-1.2c0.1-0.6,0.2-1.3,0.2-1.9C937.5,2349.5,937.4,2350.5,937.2,2351.6z"
					/>
				<path class="st4" d="M1024.3,2152.2c-0.6,0.6-1.3,1.3-1.9,1.9c-6.3,6.5-12.2,13.3-17.7,20.5c-0.1,0.1-0.1,0.2-0.2,0.2
					c0,0,0,0.1-0.1,0.1c-0.3,0.4-0.5,0.7-0.8,1.1c-0.6,0.9-1.3,1.7-1.9,2.6c-1.2,1.7-2.4,3.3-3.6,5c-2.6,3.6-5,7.3-7.4,11.1
					c-9.6,15-17.9,30.8-24.9,47.2c0.1-0.3,0.2-0.5,0.3-0.8c-0.3,0.7-0.6,1.3-0.8,2c0.2-0.4,0.3-0.8,0.5-1.2
					c-3,7.2-5.8,14.5-8.3,21.9c-9.7,28.1-16,57.2-20,86.6c-0.1,0.4-0.1,0.8-0.2,1.2c0-0.2,0.1-0.4,0.1-0.6c-0.2,1.8-0.5,3.5-0.7,5.3
					h-23.6c1.8-15.1,4.1-30.1,7.1-45c7.8-38.5,20.5-76.1,39.4-110.6c12.9-23.5,28.8-45.6,47.6-64.8l15.3,1.5L1024.3,2152.2z"/>
				<path class="st4" d="M1004.5,2174.8C1004.5,2174.8,1004.4,2174.8,1004.5,2174.8c-0.6,0.8-1.6,2.2,0.2-0.2
					C1004.6,2174.6,1004.6,2174.7,1004.5,2174.8C1004.5,2174.7,1004.5,2174.8,1004.5,2174.8z"/>
			</g>
			<path class="st9" d="M1089.8,2175.9c0,12.2-7.6,23.7-19.8,28.1l-13.3-36.8c-0.9,7-4.1,13.4-8.9,18.3c-4.8,4.9-11.3,8.2-18.6,9.1
				l-5-42.4l-1.7-14.8l-15.3-1.5l-46.8-4.5c1.3-13.3,10.7-23.9,22.9-27.3l-31.5-9.4c4.7-15.8,21.4-24.8,37.2-20.1l51.5,15.4
				c14.3,4.3,25.8,15.1,30.9,29.2l16.8,46.6C1089.2,2169.2,1089.8,2172.6,1089.8,2175.9z"/>
		</g>
		<g>
			<polygon class="st2" points="1114.8,2355.1 1114.8,2407.7 888.1,2407.7 888.1,2363.9 961.4,2288.3 1022.8,2288.3 			"/>
			<polygon class="st3" points="1000.9,2328.8 1000.9,2369.3 961.4,2407.7 888.1,2407.7 888.1,2363.9 961.4,2288.3 			"/>
		</g>
		<g>
			<path class="st13" d="M1566.2,2313.9c0,68.9-55.8,124.7-124.7,124.7c-9.5,0-18.7-1.1-27.6-3.1c-55.6-12.5-97.1-62.2-97.1-121.6
				c0-59.4,41.5-109.1,97.1-121.6c8.9-2,18.1-3.1,27.6-3.1C1510.4,2189.3,1566.2,2245.1,1566.2,2313.9z"/>
			<ellipse class="st14" cx="1414" cy="2313.9" rx="97.1" ry="121.6"/>
			<rect x="1285.8" y="2314.2" class="st3" width="199.7" height="139.8"/>
			<rect x="1398.1" y="2314.2" class="st2" width="199.7" height="139.8"/>
			<path class="st4" d="M1346.1,2364.6h-12.6c-9.1,0-16.4,7.4-16.4,16.4v72.9h45.5V2381C1362.5,2371.9,1355.2,2364.6,1346.1,2364.6z
				"/>
			<path class="st4" d="M1467.4,2407.7L1467.4,2407.7c-7.4,0-13.4,6-13.4,13.4v14.6h26.8v-14.6
				C1480.8,2413.7,1474.8,2407.7,1467.4,2407.7z"/>
			<path class="st4" d="M1511.3,2407.7L1511.3,2407.7c-7.4,0-13.4,6-13.4,13.4v14.6h26.8v-14.6
				C1524.7,2413.7,1518.7,2407.7,1511.3,2407.7z"/>
			<path class="st4" d="M1555.2,2407.7L1555.2,2407.7c-7.4,0-13.4,6-13.4,13.4v14.6h26.8v-14.6
				C1568.5,2413.7,1562.6,2407.7,1555.2,2407.7z"/>
			<path class="st4" d="M1511.3,2347.8L1511.3,2347.8c-7.4,0-13.4,6-13.4,13.4v14.6h26.8v-14.6
				C1524.7,2353.8,1518.7,2347.8,1511.3,2347.8z"/>
			<path class="st4" d="M1555.2,2347.8L1555.2,2347.8c-7.4,0-13.4,6-13.4,13.4v14.6h26.8v-14.6
				C1568.5,2353.8,1562.6,2347.8,1555.2,2347.8z"/>
			<polygon class="st13" points="1357.4,2287.3 1343,2303.2 1328.6,2287.3 			"/>
			<polygon class="st13" points="1403.8,2287.3 1389.5,2303.2 1375.1,2287.3 			"/>
			<polygon class="st13" points="1380.4,2303.2 1366.1,2287.3 1351.7,2303.2 			"/>
			<polygon class="st13" points="1450.2,2286.7 1435.8,2302.6 1421.4,2286.7 			"/>
			<polygon class="st13" points="1496.7,2286.7 1482.3,2302.6 1467.9,2286.7 			"/>
			<polygon class="st13" points="1473.8,2302.6 1459.4,2286.7 1445.1,2302.6 			"/>
			<polygon class="st13" points="1427.1,2302.6 1412.7,2286.7 1398.3,2302.6 			"/>
		</g>
	</g>
	<g id="base_x5F_pack3">
		<g>
			<polygon class="st3" points="2690.7,2446.5 2690.7,2480.8 2501.6,2480.8 2501.6,2429.3 2579,2361.5 			"/>
			<polygon class="st4" points="2661.1,2480.8 2661.1,2480.8 2501.6,2480.8 2501.6,2429.3 2579,2361.5 2585.7,2429.3 			"/>
		</g>
		<g>
			<polygon class="st2" points="2053.9,2377.2 2082.4,2442.9 2170,2442.9 2196.3,2399.1 2179.9,2353.1 2103.2,2323.6 			"/>
			<polygon class="st3" points="2053.9,2377.2 2082.4,2442.9 2109.2,2442.9 2109.2,2442.9 2135,2394.7 2103.2,2323.6 			"/>
		</g>
		<g>
			<path class="st9" d="M2059.3,2112.1c4.8,0,8.7,3.9,8.7,8.7v27.1h28.2v-74.1c0-15,12.1-27.1,27.1-27.1c15,0,27.1,12.1,27.1,27.1
				v37.6h23.7v-18.1c0-6.7,5.5-12.2,12.2-12.2c6.7,0,12.2,5.5,12.2,12.2v30.3c0,6.7-5.5,12.2-12.2,12.2h-35.8v113.4h-54.3v-83.8
				h-36.9c-4.8,0-8.7-3.9-8.7-8.7v-35.8C2050.6,2116,2054.5,2112.1,2059.3,2112.1z"/>
		</g>
		<g>
			<path class="st4" d="M2365,2324.2l-1.9-55.5l-20.9,0.7l1.9,55.5c0.4,10.9-8.2,20-19,20.4l-4.1,0.1v-87.8
				c0-23.2-18.9-42.1-42.1-42.1h-18.4v20.9h18.4c11.7,0,21.3,9.5,21.3,21.3v44.7h-12c-20.3,0-36.9-16.5-36.9-36.9h-20.9
				c0,31.8,25.9,57.7,57.7,57.7h12v132.3h20.9v-89.1l4.8-0.2C2348.3,2365.4,2365.8,2346.6,2365,2324.2z"/>
		</g>
		<g>
			<path class="st9" d="M1973.9,2295.7c-5.3,0-9.6,4.3-9.6,9.6v30.1h-31.2v-82.1c0-16.6-13.5-30.1-30.1-30.1s-30.1,13.5-30.1,30.1
				v41.6h-26.2v-20c0-7.4-6-13.5-13.5-13.5s-13.5,6-13.5,13.5v33.5c0,7.4,6,13.5,13.5,13.5h39.7v125.6h60.1v-92.9h40.8
				c5.3,0,9.6-4.3,9.6-9.6v-39.7C1983.6,2300,1979.3,2295.7,1973.9,2295.7z"/>
		</g>
		<g>
			<path class="st4" d="M1781.2,2158.7c0,15.5-12.6,28.1-28.1,28.1h-2.1v-16.2c0-17.7-14.4-32.1-32.1-32.1h-14v15.9h14
				c8.9,0,16.2,7.3,16.2,16.2v60h-34.6c-8.3,0-15-6.7-15-15v-8.7h-15.9v8.7c0,17.1,13.9,30.9,30.9,30.9h34.6v74.9h15.9v-118.6h2.1
				c24.3,0,44-19.7,44-44H1781.2z"/>
		</g>
		<g>
			<path class="st2" d="M2640.5,2629c2.6,23.7,4.7,47.5,3.6,71.3h-23.5c0.8-18.4-0.2-36.8-1.9-55.2c-3.4-36.5-9.4-72.9-8-109.7
				c0.7-18.8,3.3-37.8,8.7-55.9l20.6-8.5l4.7,6.8c-4.2,11.6-6.9,23.7-8.7,36c-1.6,12.5-2.1,25.1-1.9,37.7
				C2634.3,2577.4,2637.7,2603.2,2640.5,2629z"/>
			<path class="st9" d="M2712.8,2507.7l-28.8-26.3c1.4,3.6,2,7.4,2,11.1c0,10-4.7,19.7-13.5,25.8l-27.9-40.5l-4.7-6.8l-20.6,8.5
				l-37,15.2c-5.1-12.4-1.7-26.1,7.5-34.7l-32.2,6.3c-3.2-16.1,7.3-31.8,23.5-35l52.5-10.4c14.6-2.9,29.8,1.3,40.8,11.4l36.4,33.3
				c6.4,5.9,9.7,13.9,9.7,22C2720.6,2494.8,2718,2502,2712.8,2507.7z"/>
		</g>
		<g>
			<g>
				<path class="st10" d="M2807,2513.1C2807,2513.1,2807,2513.1,2807,2513.1C2807,2513.1,2807,2513.1,2807,2513.1z"/>
				<path class="st10" d="M2807.1,2513C2807.1,2513,2807.1,2513,2807.1,2513c0.1-0.1,0.1-0.2,0.2-0.2c0-0.1,0.1-0.1,0.1-0.2
					C2807.3,2512.8,2807.2,2512.9,2807.1,2513z"/>
				<path class="st4" d="M2767.9,2581.1c0.2-0.4,0.4-0.8,0.5-1.2c0.2-0.5,0.4-1.1,0.7-1.6
					C2768.7,2579.3,2768.3,2580.2,2767.9,2581.1z"/>
				<path class="st4" d="M2740,2689.3c0.1-0.4,0.1-0.8,0.2-1.2c0.1-0.6,0.2-1.3,0.2-1.9C2740.2,2687.2,2740.1,2688.3,2740,2689.3z"
					/>
				<path class="st4" d="M2826.8,2490.5c-0.6,0.6-1.3,1.3-1.9,1.9c-6.2,6.5-12.1,13.3-17.7,20.4c-0.1,0.1-0.1,0.2-0.2,0.2
					c0,0,0,0.1-0.1,0.1c-0.3,0.4-0.5,0.7-0.8,1.1c-0.6,0.9-1.3,1.7-1.9,2.6c-1.2,1.6-2.4,3.3-3.6,5c-2.6,3.6-5,7.3-7.4,11.1
					c-9.6,15-17.8,30.8-24.8,47.1c0.1-0.3,0.2-0.5,0.3-0.8c-0.3,0.7-0.6,1.3-0.8,2c0.2-0.4,0.3-0.8,0.5-1.2
					c-3,7.2-5.8,14.5-8.3,21.8c-9.6,28-15.9,57-20,86.3c-0.1,0.4-0.1,0.8-0.2,1.2c0-0.2,0.1-0.4,0.1-0.6c-0.2,1.8-0.5,3.5-0.7,5.3
					h-23.5c1.8-15,4.1-30,7.1-44.9c7.8-38.3,20.4-75.9,39.3-110.3c12.9-23.4,28.7-45.4,47.5-64.6l15.3,1.5L2826.8,2490.5z"/>
				<path class="st4" d="M2807.1,2513C2807,2513.1,2807,2513.1,2807.1,2513c-0.6,0.8-1.6,2.2,0.2-0.2
					C2807.2,2512.9,2807.2,2512.9,2807.1,2513C2807.1,2513,2807.1,2513,2807.1,2513z"/>
			</g>
			<path class="st9" d="M2892.1,2514.2c0,12.2-7.6,23.7-19.7,28l-13.2-36.7c-0.9,7-4.1,13.4-8.9,18.2c-4.8,4.9-11.2,8.2-18.5,9
				l-5-42.3l-1.7-14.8l-15.3-1.5l-46.7-4.5c1.3-13.3,10.7-23.8,22.9-27.2l-31.4-9.4c4.7-15.8,21.3-24.7,37.1-20l51.3,15.3
				c14.3,4.3,25.7,15.1,30.8,29.1l16.7,46.5C2891.5,2507.4,2892.1,2510.8,2892.1,2514.2z"/>
		</g>
	</g>
</g>
</svg>
