<?xml version="1.0" encoding="utf-8"?>
<!-- Generator: Adobe Illustrator 23.1.1, SVG Export Plug-In . SVG Version: 6.00 Build 0)  -->
<svg version="1.1" xmlns="http://www.w3.org/2000/svg" xmlns:xlink="http://www.w3.org/1999/xlink" x="0px" y="0px"
	 viewBox="0 0 4416 4329" style="enable-background:new 0 0 4416 4329;" xml:space="preserve">
<style type="text/css">
	.st0{fill:#8BD1C7;}
	.st1{opacity:0.5;fill:#64C2B5;stroke:#64C2B5;stroke-width:200;stroke-miterlimit:10;}
	.st2{fill:#465982;}
	.st3{fill:#273152;}
	.st4{fill:#91ACCD;}
	.st5{fill:#B5C8DE;}
	.st6{fill:#6C91BD;}
	.st7{fill:#FF6B36;}
	.st8{fill:#E0553C;}
	.st9{fill:none;stroke:#F5B33F;stroke-width:20;stroke-miterlimit:10;}
	.st10{fill:#F5B33F;}
	.st11{fill:#6E352D;}
	.st12{fill:#AD401E;}
	.st13{fill:#FFFFFF;}
	.st14{fill:none;stroke:#B5C8DE;stroke-width:10;stroke-miterlimit:10;}
	.st15{opacity:0.5;}
	.st16{fill:#64C2B5;}
	.st17{fill:none;stroke:#F7C66F;stroke-miterlimit:10;}
</style>
<g id="background">
	<rect x="6" y="0" class="st0" width="4416" height="4327"/>
</g>
<g id="base">
	<g id="base_1_">
		<g>
			<path id="base-shadow_1_" class="st1" d="M3202.7,1993.9c0-18.8-4.8-37.3-14-53.7c-9.2-16.4-22.5-30.2-38.5-40l-248.1-152.2
				v-40.3c0-115.8-94.2-210-210-210h-477.1c-5.5,0-10,4.5-10,10v212.9h-204.3c-60.4,0-117.9,26-157.8,71.4L1652,2009.1h-289.1
				c-60.7,0-110,49.3-110,110v119.7h-191.5c-5.5,0-10,4.5-10,10v197.1c0,4.1,0.2,8.1,0.7,12.1v218.7l198,167l249,1.9l31-35.9h104
				l35,67l32,208h537l28-33h120.6c25.3,0,49.7-9.6,68.2-26.9l76.2-71.1h200.2c24.4,0,47.9-8.9,66.2-25l151.6-117v-266h52
				c110.5,0,200-89.5,200-200v-95.4c1.1-8.7,1.7-17.5,1.7-26.4V1993.9z M1796.2,2943.6l1-1.5c1.6,1,3.4,1.5,5.3,1.5H2313l0,0H1796.2
				z"/>
			<path class="st2" d="M3200,2229v115c0,110.5-89.5,200-200,200h-84.8v-234L3200,2229z"/>
			<path class="st2" d="M2530,2952h200.2c24.4,0,47.9-8.9,66.2-25l151.6-117l-23-170l-395,58V2952z"/>
			<path class="st2" d="M1700,3083l95.2-141H2312l218-169v179l-76.2,71.1c-18.5,17.3-42.9,26.9-68.2,26.9H2265l-28,33H1700z"/>
			<polygon class="st3" points="1633,2654 1633,2808 1668,2875 1700,3083 1802,2932 			"/>
			<polygon class="st3" points="1249,2607 1249,2842 1051,2675 1051,2402 			"/>
			<g>
				<path class="st4" d="M2477.8,1506H2214v222.9h-214.3c-57.5,0-112.3,24.8-150.2,68l-193.9,220.6h-293.6c-55.2,0-100,44.8-100,100
					v129.7h-201.5v197.1c0,30.3,13.8,59,37.4,78l148.7,119.4H1635l166.5,290.3h510.5c58.1,0,113.3-25.2,151.3-69.2l65.7-76h157.1
					c53,0,103.9-21.1,141.4-58.6l87.9-87.9l-0.4-218.2h76.7c110.5,0,200-89.5,200-200v-229.9c0-34.8-18.1-67-47.7-85.2l-252.9-155.2
					V1706c0-110.5-89.5-200-200-200H2477.8z"/>
				<path class="st5" d="M2312.1,2942h-510.5c-3.6,0-6.9-1.9-8.7-5l-163.6-285.3h-382.7c-2.3,0-4.5-0.8-6.3-2.2l-148.7-119.4
					c-26.1-21-41.1-52.3-41.1-85.8v-197.1c0-5.5,4.5-10,10-10h191.5v-119.7c0-60.7,49.3-110,110-110H1651l190.9-217.2
					c39.9-45.4,97.4-71.4,157.8-71.4H2204V1506c0-5.5,4.5-10,10-10h477.1c115.8,0,210,94.2,210,210v40.3l248.1,152.2
					c16,9.8,29.3,23.7,38.5,40c9.2,16.4,14,35,14,53.7v229.9c0,115.8-94.2,210-210,210H2925l0.4,208.1c0,2.7-1,5.2-2.9,7.1
					l-87.9,87.9c-19.6,19.6-42.5,34.9-68.1,45.5c-25.6,10.6-52.6,16-80.4,16h-152.5l-62.7,72.5C2431,2915.5,2373.1,2942,2312.1,2942
					z M1807.3,2922h504.7c55.2,0,107.6-24,143.7-65.7l65.7-76c1.9-2.2,4.7-3.5,7.6-3.5h157.1c25.1,0,49.5-4.9,72.7-14.5
					s43.9-23.5,61.6-41.2l84.9-84.9l-0.4-214c0-2.7,1-5.2,2.9-7.1c1.9-1.9,4.4-2.9,7.1-2.9h76.7c104.8,0,190-85.2,190-190v-229.9
					c0-31.1-16.4-60.5-42.9-76.7l-252.9-155.2c-3-1.8-4.8-5-4.8-8.5V1706c0-104.8-85.2-190-190-190H2224v212.9c0,5.5-4.5,10-10,10
					h-214.3c-54.6,0-106.7,23.5-142.7,64.6L1663,2024.1c-1.9,2.2-4.6,3.4-7.5,3.4h-293.6c-49.6,0-90,40.4-90,90v129.7
					c0,5.5-4.5,10-10,10h-191.5v187.1c0,27.4,12.3,53,33.7,70.2l146,117.2h385c3.6,0,6.9,1.9,8.7,5L1807.3,2922z"/>
			</g>
			<polygon class="st2" points="1249,2842 1249,2654.2 1633,2654.2 1633,2808 1529,2808 1498.5,2845 			"/>
			<polygon class="st6" points="1498,2845 1498,2735 1529,2808 			"/>
			<polygon class="st6" points="2237,3083 2265,3050 2237,2966 			"/>
			<polygon class="st6" points="2925,2432 2948,2544 2948,2810 2925,2647 			"/>
		</g>
		<g>
			<circle class="st7" cx="1703.2" cy="1410.8" r="66"/>
			<circle class="st8" cx="1763.7" cy="1350.3" r="49.5"/>
			<circle class="st7" cx="1782.7" cy="1429.3" r="49.5"/>
			<circle class="st7" cx="1812.7" cy="1301.3" r="37.5"/>
			<circle class="st7" cx="1926.7" cy="1301.3" r="10.5"/>
			<circle class="st7" cx="1812.7" cy="1368.3" r="55.5"/>
			<g>
				<circle class="st8" cx="1711.9" cy="1470" r="51.4"/>
				<circle class="st8" cx="1779.3" cy="1470" r="43.9"/>
				<circle class="st7" cx="1803.9" cy="1470" r="31"/>
				<path class="st2" d="M2025.3,1865.2v177.9h-562.7v-177.9c0,0,188-199.3,188-394.9h186.7
					C1837.3,1665.9,2025.3,1865.2,2025.3,1865.2z"/>
				<path class="st3" d="M1901.7,1929.5v113.6h-439.1v-177.9c0,0,188-199.3,188-394.9h146.9v39.1h-81.3V1623l80.1,80.1v53.6
					l-74.1,74.1L1901.7,1929.5z"/>
				<path class="st6" d="M2025.3,1865.2v177.9h-64.2v-173c-169-200.1-169-360.5-169-360.5v-39.3h45.2
					C1837.3,1665.9,2025.3,1865.2,2025.3,1865.2z"/>
				<path class="st9" d="M1801.7,1470v97.7c0,14.3,4.8,28.3,13.6,39.6l29.5,37.7c8.8,11.3,13.6,25.2,13.6,39.6v96.9
					c0,17,6.8,33.4,18.8,45.4l37.7,37.7c12,12,18.8,28.4,18.8,45.4v133.4"/>
				<path class="st7" d="M1905.5,1857l-37.7-37.7c-10.1-10.1-15.7-23.5-15.7-37.8v-96.9c0-16.7-5.6-33-15.9-46.2l-29.5-37.7
					c-7.3-9.4-11.4-21.1-11.4-33V1470h-21.4v97.7c0,16.7,5.7,33,15.9,46.2l29.5,37.7c7.3,9.4,11.4,21.1,11.4,33v96.9
					c0,20,7.8,38.8,21.9,53l37.7,37.7c10,10,15.7,23.6,15.7,37.8v0c0,14.6-11.8,26.4-26.4,26.4H1730c-59.1,0-107,47.9-107,107l0,0
					h283h11.2h10.2V1910C1927.5,1890.1,1919.6,1871.1,1905.5,1857z"/>
				<g>
					<polygon class="st6" points="1693.1,1982.8 1693.1,2053.7 1387,2053.7 1387,1994.6 1486.1,1892.6 1568.9,1892.6 					"/>
					<polygon class="st2" points="1539.3,1947.3 1539.3,2002 1486.1,2053.7 1387,2053.7 1387,1994.6 1486.1,1892.6 					"/>
				</g>
				<g>
					<polygon class="st6" points="2112.7,2026 2112.7,2114.9 1623.9,2114.9 1623.9,1981.6 1823.9,1806.3 					"/>
					<polygon class="st2" points="2036.2,2114.9 2036.1,2114.9 1623.9,2114.9 1623.9,1981.6 1823.9,1806.3 1841.2,1981.6 					"/>
				</g>
			</g>
			<circle class="st7" cx="1796.7" cy="1206.3" r="10.5"/>
			<circle class="st10" cx="1602.7" cy="1433.3" r="10.5"/>
			<circle class="st10" cx="1860.7" cy="1429.3" r="10.5"/>
			<circle class="st7" cx="1951.7" cy="1501.3" r="10.5"/>
		</g>
		<g>
			<path class="st11" d="M2274.7,1938.5c0,12.3-10,22.4-22.4,22.4h-1.7V1948c0-14.1-11.5-25.6-25.6-25.6H2214v12.7h11.1
				c7.1,0,12.9,5.8,12.9,12.9v47.7h-27.5c-6.6,0-12-5.4-12-12v-6.9h-12.7v6.9c0,13.6,11,24.6,24.6,24.6h27.5v59.6h12.7v-94.4h1.7
				c19.3,0,35-15.7,35-35H2274.7z"/>
		</g>
		<g>
			<path class="st11" d="M2155.4,1754.5l-1.1-32.9l-12.4,0.4l1.1,32.9c0.2,6.4-4.8,11.9-11.3,12.1l-2.4,0.1V1715
				c0-13.8-11.2-25-25-25h-10.9v12.4h10.9c7,0,12.6,5.7,12.6,12.6v26.5h-7.1c-12,0-21.9-9.8-21.9-21.9h-12.4
				c0,18.9,15.4,34.2,34.2,34.2h7.1v78.4h12.4v-52.8l2.9-0.1C2145.4,1778.9,2155.8,1767.8,2155.4,1754.5z"/>
		</g>
		<g>
			<polygon class="st6" points="2225.3,1784.4 2225.3,1838.9 2171.1,1879.3 2273.1,1879.3 2273.1,1847 			"/>
			<polygon class="st2" points="2225.3,1784.4 2154.6,1836.9 2154.6,1879.3 2171.1,1879.3 2225.3,1838.9 			"/>
		</g>
		<g>
			<polygon class="st6" points="2230.7,1516.7 2253.3,1569 2323,1569 2344,1534.1 2330.9,1497.5 2269.9,1474 			"/>
			<polygon class="st2" points="2230.7,1516.7 2253.3,1569 2274.6,1569 2274.6,1569 2295.2,1530.7 2269.9,1474 			"/>
		</g>
		<g>
			<polygon class="st6" points="2570.3,1885.5 2570.3,1927.4 2389.9,1927.4 2389.9,1892.5 2448.3,1832.4 2497.1,1832.4 			"/>
			<polygon class="st2" points="2479.7,1864.6 2479.7,1896.9 2448.3,1927.4 2389.9,1927.4 2389.9,1892.5 2448.3,1832.4 			"/>
		</g>
		<g>
			<polygon class="st6" points="2264.6,1756.3 2653.6,1756.4 2588.6,1613.4 2438.6,1558.4 2285.6,1654.3 			"/>
			<polygon class="st2" points="2438.6,1558.4 2480.6,1634.4 2380.6,1661.4 2395.3,1756.4 2264.6,1756.4 2285.6,1654.4 			"/>
			<path class="st10" d="M2511.6,1756.4c-1,0,30-78,30-78l51.1,77.5L2511.6,1756.4z"/>
			<polygon class="st3" points="2541.6,1678.4 2592.6,1755.4 2559.1,1755.8 2530.2,1707.2 			"/>
		</g>
		<g>
			<g>
				<g>
					<rect x="1343.8" y="2656.1" class="st7" width="111" height="200"/>
					<rect x="1367.8" y="2718.1" class="st8" width="11" height="111"/>
					<rect x="1400.8" y="2693.1" class="st8" width="11" height="49"/>
					<rect x="1427.8" y="2737.1" class="st8" width="11" height="111"/>
					<rect x="1427.8" y="2665.1" class="st8" width="11" height="14"/>
					<rect x="1400.8" y="2791.1" class="st8" width="11" height="14"/>
					<rect x="1367.8" y="2707.1" class="st12" width="11" height="11"/>
				</g>
				<path class="st7" d="M1560.8,2528.1v33.6c0,8.5-3.6,16.6-10,22.3l-23.8,21.3c-9.2,8.2-21.1,12.8-33.4,12.8h-38.9v38h-111v-37.5
					c0-4.1-1.7-8.1-4.7-10.9l-61.5-58.1c-3.7-3.5-8.6-5.5-13.7-5.5h-82.1l-46.1-61.5l-4.9-6.5c-7.4-9.9-0.4-24,12-24h289l0.6,0.9
					l49.4,75.1H1560.8z"/>
				<path class="st12" d="M1432.8,2452.1l-0.4,0.9l-14.6,29.6h-282.1l-4.9-6.5c-7.4-9.9-0.4-24,12-24H1432.8z"/>
				<polygon class="st11" points="1432.8,2452.1 1481.8,2528.1 1467.8,2558.1 1417.8,2483.1 				"/>
				<polygon class="st12" points="1481.8,2528.1 1560.8,2528.1 1560.8,2558.1 1467.8,2558.1 				"/>
			</g>
			<rect x="1343.8" y="2623.6" class="st8" width="111" height="38.4"/>
		</g>
		<g>
			<path class="st13" d="M1428.7,2826.2c-1,0-2,0-2.9,0.1c-9.1-31.4-38-54.3-72.2-54.3c-40.2,0-73.1,31.6-75.1,71.3
				c-5.2-2.7-11.1-4.3-17.4-4.3c-20.8,0-37.6,16.8-37.6,37.6c0,0.1,0,0.2,0,0.3h248.8c0.3-2.2,0.5-4.5,0.5-6.8
				C1472.8,2845.9,1453,2826.2,1428.7,2826.2z"/>
		</g>
		<g>
			<path class="st11" d="M1840,2656c0,12.3-10,22.4-22.4,22.4h-1.7v-12.9c0-14.1-11.5-25.6-25.6-25.6h-11.1v12.7h11.1
				c7.1,0,12.9,5.8,12.9,12.9v47.7h-27.5c-6.6,0-12-5.4-12-12v-6.9h-12.7v6.9c0,13.6,11,24.6,24.6,24.6h27.5v59.6h12.7V2691h1.7
				c19.3,0,35-15.7,35-35H1840z"/>
		</g>
		<g>
			<path class="st11" d="M3086.6,1850l-1.1-32.9l-12.4,0.4l1.1,32.9c0.2,6.4-4.8,11.9-11.3,12.1l-2.4,0.1v-52.1
				c0-13.8-11.2-25-25-25h-10.9v12.4h10.9c7,0,12.6,5.7,12.6,12.6v26.5h-7.1c-12,0-21.9-9.8-21.9-21.9h-12.4
				c0,18.9,15.4,34.2,34.2,34.2h7.1v78.4h12.4V1875l2.9-0.1C3076.7,1874.4,3087.1,1863.2,3086.6,1850z"/>
		</g>
		<g>
			<polygon class="st6" points="1973.4,2465.3 1973.4,2519.9 1919.2,2560.3 2021.3,2560.3 2021.3,2528 			"/>
			<polygon class="st2" points="1973.4,2465.3 1902.7,2517.9 1902.7,2560.3 1919.2,2560.3 1973.4,2519.9 			"/>
		</g>
		<g>
			<polygon class="st6" points="1279.8,2147.7 1302.4,2200 1372.2,2200 1393.1,2165.1 1380,2128.5 1319,2105 			"/>
			<polygon class="st2" points="1279.8,2147.7 1302.4,2200 1323.7,2200 1323.7,2200 1344.3,2161.7 1319,2105 			"/>
		</g>
		<g>
			<polygon class="st6" points="3082.4,2286.5 3082.4,2328.3 2902,2328.3 2902,2293.5 2960.4,2233.3 3009.2,2233.3 			"/>
			<polygon class="st2" points="2991.8,2265.6 2991.8,2297.8 2960.4,2328.3 2902,2328.3 2902,2293.5 2960.4,2233.3 			"/>
		</g>
		<g>
			<polygon class="st6" points="2554.5,2326 2554.5,2353.3 2404,2353.3 2404,2312.3 2465.6,2258.3 			"/>
			<polygon class="st2" points="2530.9,2353.3 2530.9,2353.3 2404,2353.3 2404,2312.3 2465.6,2258.3 2470.9,2312.3 			"/>
		</g>
	</g>
	<g id="base_x5F_pack1">
		<g>
			<polygon class="st6" points="1175.3,2305.9 1175.3,2360.4 1121,2400.8 1223.1,2400.8 1223.1,2368.5 			"/>
			<polygon class="st2" points="1175.3,2305.9 1104.6,2358.4 1104.6,2400.8 1121,2400.8 1175.3,2360.4 			"/>
		</g>
		<g>
			<polygon class="st6" points="2578.6,2649.7 2601.3,2702 2671,2702 2691.9,2667.1 2678.9,2630.5 2617.8,2607 			"/>
			<polygon class="st2" points="2578.6,2649.7 2601.3,2702 2622.6,2702 2622.6,2702 2643.1,2663.7 2617.8,2607 			"/>
		</g>
		<g>
			<polygon class="st6" points="2154.3,2816 2154.3,2857.8 1973.9,2857.8 1973.9,2823 2032.3,2762.8 2081.1,2762.8 			"/>
			<polygon class="st2" points="2063.7,2795.1 2063.7,2827.3 2032.3,2857.8 1973.9,2857.8 1973.9,2823 2032.3,2762.8 			"/>
		</g>
		<g>
			<polygon class="st6" points="2917.3,1826.5 2917.3,1853.8 2766.9,1853.8 2766.9,1812.8 2828.4,1758.8 			"/>
			<polygon class="st2" points="2893.8,1853.8 2893.8,1853.8 2766.9,1853.8 2766.9,1812.8 2828.4,1758.8 2833.7,1812.8 			"/>
		</g>
		<g>
			<path class="st11" d="M3174.9,1944.9c0,12.3-10,22.4-22.4,22.4h-1.7v-12.9c0-14.1-11.5-25.6-25.6-25.6h-11.1v12.7h11.1
				c7.1,0,12.9,5.8,12.9,12.9v47.7h-27.5c-6.6,0-12-5.4-12-12v-6.9h-12.7v6.9c0,13.6,11,24.6,24.6,24.6h27.5v59.6h12.7v-94.4h1.7
				c19.3,0,35-15.7,35-35H3174.9z"/>
		</g>
		<g>
			<path class="st11" d="M1351.6,2346.9l-1.1-32.9l-12.4,0.4l1.1,32.9c0.2,6.4-4.8,11.9-11.3,12.1l-2.4,0.1v-52.1
				c0-13.8-11.2-25-25-25h-10.9v12.4h10.9c7,0,12.6,5.7,12.6,12.6v26.5h-7.1c-12,0-21.9-9.8-21.9-21.9h-12.4
				c0,18.9,15.4,34.2,34.2,34.2h7.1v78.4h12.4v-52.8l2.9-0.1C1341.6,2371.3,1352,2360.2,1351.6,2346.9z"/>
		</g>
		<g>
			<polygon class="st6" points="2609.5,2100.8 2998.5,2100.9 2933.6,1957.9 2783.6,1902.8 2630.6,1998.8 			"/>
			<polygon class="st2" points="2783.6,1902.8 2825.6,1978.8 2725.6,2005.8 2740.2,2100.8 2609.6,2100.8 2630.6,1998.8 			"/>
			<path class="st10" d="M2856.6,2100.8c-1,0,30-78,30-78l51.1,77.5L2856.6,2100.8z"/>
			<polygon class="st3" points="2886.6,2022.8 2937.6,2099.8 2904.1,2100.3 2875.2,2051.7 			"/>
		</g>
	</g>
	<g id="base_x5F_pack2">
		<g>
			<polygon class="st6" points="2322.1,2136 2322.1,2190.6 2267.8,2231 2369.9,2231 2369.9,2198.7 			"/>
			<polygon class="st2" points="2322.1,2136 2251.4,2188.6 2251.4,2231 2267.8,2231 2322.1,2190.6 			"/>
		</g>
		<g>
			<polygon class="st6" points="2747.4,1613.7 2770.1,1666 2839.8,1666 2860.7,1631.1 2847.7,1594.5 2786.7,1571 			"/>
			<polygon class="st2" points="2747.4,1613.7 2770.1,1666 2791.4,1666 2791.4,1666 2811.9,1627.7 2786.7,1571 			"/>
		</g>
		<g>
			<polygon class="st6" points="2356,2374.5 2356,2440.9 2069.8,2440.9 2069.8,2385.6 2162.4,2290.2 2239.9,2290.2 			"/>
			<polygon class="st2" points="2212.2,2341.3 2212.2,2392.5 2162.4,2440.9 2069.8,2440.9 2069.8,2385.6 2162.4,2290.2 			"/>
		</g>
		<g>
			<polygon class="st6" points="2343.2,2640.7 2343.2,2668 2192.7,2668 2192.7,2627 2254.2,2573 			"/>
			<polygon class="st2" points="2319.6,2668 2319.6,2668 2192.7,2668 2192.7,2627 2254.2,2573 2259.6,2627 			"/>
		</g>
		<g>
			<path class="st11" d="M2387.2,2711.1c0,17.3-14.1,31.4-31.4,31.4h-2.4v-18.2c0-19.8-16.1-35.9-35.9-35.9h-15.7v17.8h15.7
				c10,0,18.1,8.1,18.1,18.1v67.1h-38.7c-9.3,0-16.8-7.5-16.8-16.8v-9.7h-17.8v9.7c0,19.1,15.5,34.6,34.6,34.6h38.7v83.8h17.8
				v-132.8h2.4c27.1,0,49.2-22.1,49.2-49.2H2387.2z"/>
		</g>
		<g>
			<path class="st11" d="M2103.4,2633.1l-1.1-32.9l-12.4,0.4l1.1,32.9c0.2,6.4-4.8,11.9-11.3,12.1l-2.4,0.1v-52.1
				c0-13.8-11.2-25-25-25h-10.9v12.4h10.9c7,0,12.6,5.7,12.6,12.6v26.5h-7.1c-12,0-21.9-9.8-21.9-21.9h-12.4
				c0,18.9,15.4,34.2,34.2,34.2h7.1v78.4h12.4v-52.8l2.9-0.1C2093.4,2657.5,2103.8,2646.3,2103.4,2633.1z"/>
		</g>
	</g>
</g>
<g id="opt1">
	<g id="opt1_1_">
		<polygon class="st3" points="1336.3,1866.5 1336.3,2009 1457.5,2138.2 1457.8,1987.9 		"/>
		<line class="st14" x1="1457.8" y1="1736.9" x2="1485.3" y2="1736.9"/>
		<line class="st14" x1="1506.4" y1="1780.6" x2="1545.3" y2="1780.6"/>
		<g>
			<path class="st6" d="M2300.1,2030.1v84.2l338-202.1c62.6-37.4,100.9-105,100.9-178v-148l-68-61.5L2300.1,2030.1z"/>
			<polygon class="st2" points="2091.1,2023.6 2091.1,2115.9 2196.4,2115.9 2214.2,2127.2 2222.3,2115.9 2300.1,2115.9 
				2300.1,2023.6 			"/>
			<path class="st2" d="M1589,2392.9v119.9h228.4l25.9-37.3h26.7c21.4,0,42-7.8,58-22l46.4-49.3v-90.7l-385.5,30.8V2392.9z"/>
			<g>
				<path class="st4" d="M1593,2382.9l-125.4-125.4v-268.9c0-2.7-1.1-5.2-2.9-7.1l-118.9-118.9v-185.2c0-25,4.9-49.4,14.4-72.5
					c9.6-23.1,23.4-43.8,41.1-61.5l93.8-93.8c1.9-1.9,2.9-4.4,2.9-7.1v-27.8c0-62.7,39.8-118.6,98.9-139.3l219.9-76.8
					c4.5-1.6,9.2-2.4,14-2.4h197.5c56.7,0,110,25.1,146.1,68.8l54.6,66.1c39.9,48.4,98.8,76.1,161.6,76.1h87.5
					c39.4,0,76.5,15.3,104.3,43.2l79.1,79.1v161.1c0,32.4-8.4,64.5-24.3,92.8c-15.9,28.3-38.9,52.1-66.6,69l-273.8,167h-205.1
					c-2.4,0-4.7,0.9-6.5,2.4l-116.6,99.8c-2.2,1.9-3.5,4.7-3.5,7.6v179.5l-35.3,33.5c-27.5,26.2-63.6,40.6-101.6,40.6H1593z"/>
				<g>
					<path class="st5" d="M2028.3,1206.2c26.3,0,52.7,5.9,76.5,17.1c23.8,11.2,45.2,27.8,61.9,48.1l54.6,66.1
						c20.5,24.8,46.6,45.1,75.7,58.8c29.1,13.7,61.4,20.9,93.6,20.9h87.6c18.2,0,35.9,3.5,52.6,10.5c16.8,6.9,31.8,17,44.6,29.8
						l76.1,76.1v157c0,30.7-7.9,61.1-23,87.9c-15,26.8-36.8,49.4-63,65.4l-271.4,165.6h-202.3c-4.8,0-9.4,1.7-13,4.8l-116.6,99.8
						c-4.4,3.8-7,9.4-7,15.2v175.2l-32.2,30.6c-25.7,24.4-59.3,37.8-94.7,37.8h-231.3l-119.6-119.6v-264.8c0-5.3-2.1-10.4-5.9-14.1
						l-116-116v-181.1c0-23.7,4.6-46.8,13.7-68.7c9.1-21.9,22.2-41.5,38.9-58.2l93.8-93.8c3.8-3.8,5.9-8.8,5.9-14.1v-27.8
						c0-58.4,37.1-110.6,92.2-129.8l219.9-76.8c3.5-1.2,7.1-1.8,10.7-1.8H2028.3 M2028.3,1186.2h-197.5c-5.9,0-11.7,1-17.3,2.9
						l-219.9,76.8c-63.2,22.1-105.6,81.7-105.6,148.7v27.8l-93.8,93.8c-37.4,37.4-58.4,88.2-58.4,141.1v189.4l121.8,121.8v273.1
						l131.3,131.3h239.6c40.4,0,79.2-15.5,108.5-43.3l38.4-36.5v-183.8l116.6-99.8h207.9L2576,1861c59.4-36.2,95.6-100.8,95.6-170.3
						v-165.3l-82-82c-29.5-29.5-69.6-46.1-111.4-46.1h-87.6c-59.5,0-115.9-26.6-153.9-72.5l-54.6-66.1
						C2144.3,1212.8,2087.9,1186.2,2028.3,1186.2L2028.3,1186.2z"/>
				</g>
			</g>
			<polygon class="st3" points="1589,2392.9 1457.8,2261.7 1457.8,2392.9 1589,2512.7 			"/>
			<polygon class="st6" points="1817.4,2512.7 1817.4,2426.9 1843.3,2475.5 			"/>
			<polygon class="st6" points="1974.5,2128.9 2091.1,2030.1 2091.1,2115.9 1975.3,2221.6 			"/>
			<polygon class="st6" points="2214.2,2127.2 2214.2,2102.9 2222.3,2115.9 			"/>
			<polyline class="st2" points="2591.9,1939.8 2591.9,1936.3 2591.9,1882.7 2627.7,1918.5 			"/>
			<polygon class="st6" points="2441,2030.1 2441,2064.1 2408.6,2083.5 2351.5,2083.5 2364.8,2023.6 			"/>
			<polygon class="st2" points="2351.9,2083.5 2351.9,2041.4 2408.6,2083.5 			"/>
			<line class="st14" x1="1595.5" y1="2114.3" x2="1637.6" y2="2114.3"/>
			<line class="st14" x1="1691" y1="2185.6" x2="1731.5" y2="2185.6"/>
			<line class="st14" x1="1843.3" y1="1456.7" x2="1809.3" y2="1456.7"/>
			<line class="st14" x1="1843.3" y1="1500.4" x2="1877.3" y2="1500.4"/>
			<line class="st14" x1="2408.6" y1="1770.9" x2="2371.3" y2="1770.9"/>
			<line class="st14" x1="2379.4" y1="1819.5" x2="2327.6" y2="1819.5"/>
			<line class="st14" x1="1788.2" y1="1702.9" x2="1825.5" y2="1702.9"/>
			<line class="st14" x1="1906.5" y1="1780.6" x2="1938.9" y2="1780.6"/>
			<line class="st14" x1="2185.1" y1="1469.6" x2="2144.6" y2="1469.6"/>
			<line class="st14" x1="1616.5" y1="1370.8" x2="1652.2" y2="1370.8"/>
			<line class="st14" x1="2510.6" y1="1563.6" x2="2466.9" y2="1563.6"/>
		</g>
		<g id="volcano">
			<circle class="st8" cx="1864.2" cy="878.6" r="57.2"/>
			<circle class="st8" cx="1939.3" cy="878.6" r="48.9"/>
			<circle class="st7" cx="1966.7" cy="878.6" r="34.6"/>
			<path class="st2" d="M2213.6,1319.2v198.3h-627.2v-198.3c0,0,209.5-222.2,209.5-440.2H2004
				C2004,1097,2213.6,1319.2,2213.6,1319.2z"/>
			<path class="st3" d="M2075.8,1390.9v126.6h-489.4v-198.3c0,0,209.5-222.2,209.5-440.2h163.8v43.6H1869v126.6l89.3,89.3v59.8
				l-82.6,82.6L2075.8,1390.9z"/>
			<path class="st6" d="M2213.6,1319.2v198.3H2142v-192.8c-188.4-223-188.4-401.8-188.4-401.8V879h50.4
				C2004,1097,2213.6,1319.2,2213.6,1319.2z"/>
			<path class="st9" d="M1964.4,878.6v108.9c0,16,5.4,31.5,15.2,44.1l32.9,42c9.9,12.6,15.2,28.1,15.2,44.1v108.1
				c0,19,7.5,37.2,21,50.6l42.1,42.1c13.4,13.4,21,31.6,21,50.6v148.7"/>
			<path class="st7" d="M2080.1,1310L2038,1268c-11.3-11.3-17.5-26.2-17.5-42.2v-108.1c0-18.7-6.2-36.8-17.7-51.4l-32.9-42
				c-8.2-10.4-12.7-23.5-12.7-36.8V878.6h-23.8v108.9c0,18.6,6.3,36.8,17.7,51.5l32.9,42c8.2,10.4,12.7,23.5,12.7,36.8v108.1
				c0,22.3,8.7,43.3,24.4,59l42.1,42.1c11.2,11.2,17.5,26.3,17.5,42.2v0c0,16.3-13.2,29.5-29.5,29.5h-166.7
				c-65.9,0-119.2,53.4-119.2,119.2v0h315.4h12.5h11.4v-148.7C2104.5,1346.9,2095.7,1325.7,2080.1,1310z"/>
			<g>
				<polygon class="st6" points="1843.3,1450.2 1843.3,1529.3 1502.1,1529.3 1502.1,1463.4 1612.5,1349.7 1704.8,1349.7 				"/>
				<polygon class="st2" points="1671.9,1410.6 1671.9,1471.6 1612.5,1529.3 1502.1,1529.3 1502.1,1463.4 1612.5,1349.7 				"/>
			</g>
			<g>
				<polygon class="st6" points="2311,1498.4 2311,1597.5 1766.2,1597.5 1766.2,1448.9 1989.1,1253.5 				"/>
				<polygon class="st2" points="2225.7,1597.4 2225.6,1597.5 1766.2,1597.5 1766.2,1448.9 1989.1,1253.5 2008.3,1448.9 				"/>
			</g>
		</g>
		<g id="lava">
			<path class="st7" d="M1595,2184h-20v-102c0-16.5,13.5-30,30-30h43c11,0,20-9,20-20v-164c0-16.5-13.5-30-30-30h-33
				c-16.5,0-30-13.5-30-30v-64c0-22.1,17.9-40,40-40h105c5.5,0,10-4.5,10-10v-164.7h20V1694c0,16.5-13.5,30-30,30h-105
				c-11,0-20,9-20,20v64c0,5.5,4.5,10,10,10h33c27.6,0,50,22.4,50,50v164c0,22.1-17.9,40-40,40h-43c-5.5,0-10,4.5-10,10V2184z"/>
			<path class="st7" d="M2289,1917h-20v-48c0-5.5-4.5-10-10-10h-88c-27.6,0-50-22.4-50-50v-18c0-11-9-20-20-20h-190
				c-16.5,0-30-13.5-30-30v-46c0-5.3-2.1-10.4-5.9-14.1c-3.8-3.8-8.8-5.9-14.1-5.9l-121,0l0-20l121,0c10.7,0,20.7,4.2,28.3,11.7
				s11.7,17.6,11.7,28.3v46c0,5.5,4.5,10,10,10h190c22.1,0,40,17.9,40,40v18c0,16.5,13.5,30,30,30h88c16.5,0,30,13.5,30,30V1917z"/>
			<path class="st7" d="M2355,1737h-20v-20c0-22.1,17.9-40,40-40h94c5.5,0,10-4.5,10-10v-28c0-5.5-4.5-10-10-10h-43
				c-22.1,0-40-17.9-40-40v-39.7c0-5.5-4.5-10-10-10h-65v-20h65c16.5,0,30,13.5,30,30v39.7c0,11,9,20,20,20h43c16.5,0,30,13.5,30,30
				v28c0,16.5-13.5,30-30,30h-94c-11,0-20,9-20,20V1737z"/>
			<g>
				<polygon class="st7" points="2289,1917 2225,1917 2200,1942 2236,1964 2340,1949 				"/>
				<rect x="2225" y="1917" class="st2" width="43" height="12"/>
				<polygon class="st6" points="2200,1942 2208.1,1947 2225,1929 2225,1917 				"/>
				<polygon class="st3" points="2289,1917 2340,1949 2328.3,1950.7 2289,1929 				"/>
			</g>
			<g>
				<polygon class="st7" points="2355.1,1733.6 2291.1,1733.6 2266.1,1758.6 2302.1,1780.6 2406.1,1765.6 				"/>
				<rect x="2291.1" y="1733.6" class="st2" width="43" height="12"/>
				<polygon class="st6" points="2266.1,1758.6 2274.2,1763.6 2291.1,1745.6 2291.1,1733.6 				"/>
				<polygon class="st3" points="2355.1,1733.6 2406.1,1765.6 2394.4,1767.3 2355.1,1745.6 				"/>
			</g>
			<g>
				<polygon class="st7" points="1595.8,2183.8 1531.8,2183.8 1506.8,2208.8 1542.8,2230.8 1646.8,2215.8 				"/>
				<rect x="1531.8" y="2183.8" class="st2" width="43" height="12"/>
				<polygon class="st6" points="1506.8,2208.8 1515,2213.8 1531.8,2195.8 1531.8,2183.8 				"/>
				<polygon class="st3" points="1595.8,2183.8 1646.8,2215.8 1635.2,2217.5 1595.8,2195.8 				"/>
			</g>
		</g>
		<g>
			<path class="st11" d="M1544.7,1587.5c0,12.3-10,22.4-22.4,22.4h-1.7v-12.9c0-14.1-11.5-25.6-25.6-25.6H1484v12.7h11.1
				c7.1,0,12.9,5.8,12.9,12.9v47.7h-27.5c-6.6,0-12-5.4-12-12v-6.9h-12.7v6.9c0,13.6,11,24.6,24.6,24.6h27.5v59.6h12.7v-94.4h1.7
				c19.3,0,35-15.7,35-35H1544.7z"/>
		</g>
		<g>
			<path class="st11" d="M2590.4,1661.5l-1.1-32.9l-12.4,0.4l1.1,32.9c0.2,6.4-4.8,11.9-11.3,12.1l-2.4,0.1V1622
				c0-13.8-11.2-25-25-25h-10.9v12.4h10.9c7,0,12.6,5.7,12.6,12.6v26.5h-7.1c-12,0-21.9-9.8-21.9-21.9h-12.4
				c0,18.9,15.4,34.2,34.2,34.2h7.1v78.4h12.4v-52.8l2.9-0.1C2580.4,1685.9,2590.8,1674.7,2590.4,1661.5z"/>
		</g>
		<g>
			<path class="st11" d="M1829.2,2169.8c0,13.4-10.9,24.3-24.3,24.3h-1.8v-14c0-15.3-12.5-27.8-27.8-27.8h-12.1v13.8h12.1
				c7.7,0,14,6.3,14,14v51.9h-29.9c-7.2,0-13-5.8-13-13v-7.5h-13.8v7.5c0,14.8,12,26.8,26.8,26.8h29.9v64.8h13.8v-102.6h1.8
				c21,0,38.1-17.1,38.1-38.1H1829.2z"/>
		</g>
		<g>
			<polygon class="st6" points="1419.7,1815.1 1440.3,1862.8 1503.9,1862.8 1523,1831 1511.1,1797.6 1455.4,1776.2 			"/>
			<polygon class="st2" points="1419.7,1815.1 1440.3,1862.8 1459.8,1862.8 1459.8,1862.8 1478.5,1827.8 1455.4,1776.2 			"/>
		</g>
		<g>
			<polygon class="st6" points="2208,1671.6 2208,1695.7 2104.2,1695.7 2104.2,1675.6 2137.8,1641 2165.9,1641 			"/>
			<polygon class="st2" points="2155.9,1659.6 2155.9,1678.1 2137.8,1695.7 2104.2,1695.7 2104.2,1675.6 2137.8,1641 			"/>
		</g>
		<g>
			<polygon class="st6" points="2014,1966.6 2014,1988.7 1892.3,1988.7 1892.3,1955.6 1942.1,1911.9 			"/>
			<polygon class="st2" points="1994.9,1988.7 1994.9,1988.7 1892.3,1988.7 1892.3,1955.6 1942.1,1911.9 1946.4,1955.6 			"/>
		</g>
	</g>
	<g id="opt1_x5F_pack1">
	</g>
	<g id="opt1_x5F_pack2">
	</g>
</g>
<g id="opt2">
	<g id="opt2_1_">
		<circle class="st7" cx="3158" cy="2426" r="66"/>
		<circle class="st8" cx="3218.5" cy="2365.5" r="49.5"/>
		<circle class="st7" cx="3237.5" cy="2444.5" r="49.5"/>
		<circle class="st7" cx="3267.5" cy="2316.5" r="37.5"/>
		<circle class="st7" cx="3381.5" cy="2316.5" r="10.5"/>
		<circle class="st7" cx="3267.5" cy="2383.5" r="55.5"/>
		<g>
			<path class="st2" d="M3035.2,3435.7l-52.1-59.4h-53.3l-32.7-37.6v-58.2l-12.1-14.5h-8.5c-40.2,0-72.7-32.6-72.7-72.7v-132.1
				h295.8l-15.8,277.6L3035.2,3435.7z"/>
			<g>
				<path class="st4" d="M3088.9,3328.7l-114.6-163c-1.9-2.7-4.9-4.2-8.2-4.2h-52.7c-19.7,0-38.5-5.5-54.4-16
					c-14.9-9.8-27-23.7-34.9-40.1s-11.3-34.5-9.7-52.2c1.7-18.9,9.1-37.1,21.3-52.5l68-85.6c40.7-51.2,93.4-93.3,152.3-121.7
					c58.9-28.4,124.6-43.5,190-43.5h209.6c88.1,0,159.7,71.6,159.7,159.7v203.2l-208.8,215.9H3088.9z"/>
				<path class="st5" d="M3455.8,2759.9c40,0,77.6,15.6,105.9,43.8c28.3,28.3,43.8,65.9,43.8,105.9v199.2l-203,209.9h-308.4
					l-111.6-158.8c-3.7-5.3-9.8-8.5-16.4-8.5h-52.7c-18,0-34.4-4.8-48.9-14.3c-13.4-8.8-24.2-21.3-31.4-36.1
					c-7.1-14.8-10.1-31-8.7-47c1.5-17.2,8-33.1,19.2-47.2l68-85.6c20-25.2,43-48.2,68.1-68.2c24.9-19.8,52-36.9,80.6-50.7
					c28.6-13.8,58.9-24.4,89.9-31.6c31.4-7.2,63.6-10.9,95.8-10.9H3455.8 M3455.8,2739.9h-209.6c-136.4,0-265.3,62.2-350.1,168.9
					l-68,85.6c-56.8,71.5-5.9,177,85.4,177h52.7l117.6,167.3h327.3l214.6-221.8v-207.3C3625.5,2815.9,3549.5,2739.9,3455.8,2739.9
					L3455.8,2739.9z"/>
			</g>
			<polygon class="st2" points="3083.7,3338.7 3035.2,3435.7 3486.1,3435.7 3410.9,3338.7 			"/>
			<polygon class="st6" points="3625.5,3116.9 3625.5,3229.6 3561.3,3301.1 3561.3,3355.6 3486.1,3435.7 3410.9,3338.7 			"/>
			<polygon class="st3" points="2884.9,3265.9 2966.1,3171.4 3083.7,3338.7 3035.2,3435.7 2984.3,3376.3 2984.3,3321.7 
				2929.7,3376.3 2897,3338.7 2897,3280.5 			"/>
		</g>
		<g>
			<circle class="st8" cx="3166.6" cy="2485.2" r="51.4"/>
			<circle class="st8" cx="3234" cy="2485.2" r="43.9"/>
			<circle class="st7" cx="3258.6" cy="2485.2" r="31"/>
			<path class="st2" d="M3480.1,2880.4v177.9h-562.7v-177.9c0,0,188-199.3,188-394.9h186.7C3292.1,2681,3480.1,2880.4,3480.1,2880.4
				z"/>
			<path class="st3" d="M3356.5,2944.7v113.6h-439.1v-177.9c0,0,188-199.3,188-394.9h146.9v39.1H3171v113.6l80.1,80.1v53.6
				L3177,2846L3356.5,2944.7z"/>
			<path class="st6" d="M3480.1,2880.4v177.9h-64.2v-173c-169-200.1-169-360.5-169-360.5v-39.3h45.2
				C3292.1,2681,3480.1,2880.4,3480.1,2880.4z"/>
			<path class="st9" d="M3256.5,2485.2v97.7c0,14.3,4.8,28.3,13.6,39.6l29.5,37.7c8.8,11.3,13.6,25.2,13.6,39.6v96.9
				c0,17,6.8,33.4,18.8,45.4l37.7,37.7c12,12,18.8,28.4,18.8,45.4v133.4"/>
			<path class="st7" d="M3360.3,2872.2l-37.7-37.7c-10.1-10.1-15.7-23.5-15.7-37.8v-96.9c0-16.7-5.6-33-15.9-46.2l-29.5-37.7
				c-7.3-9.4-11.4-21.1-11.4-33v-97.7h-21.4v97.7c0,16.7,5.7,33,15.9,46.2l29.5,37.7c7.3,9.4,11.4,21.1,11.4,33v96.9
				c0,20,7.8,38.8,21.9,53l37.7,37.7c10,10,15.7,23.6,15.7,37.8v0c0,14.6-11.8,26.4-26.4,26.4h-149.6c-59.1,0-107,47.9-107,107l0,0
				h283h11.2h10.2v-133.4C3382.2,2905.3,3374.4,2886.3,3360.3,2872.2z"/>
			<g>
				<polygon class="st6" points="3147.9,2998 3147.9,3068.9 2841.8,3068.9 2841.8,3009.8 2940.8,2907.7 3023.7,2907.7 				"/>
				<polygon class="st2" points="2994.1,2962.5 2994.1,3017.2 2940.8,3068.9 2841.8,3068.9 2841.8,3009.8 2940.8,2907.7 				"/>
			</g>
			<g>
				<polygon class="st6" points="3567.5,3041.2 3567.5,3130.1 3078.7,3130.1 3078.7,2996.8 3278.7,2821.5 				"/>
				<polygon class="st2" points="3491,3130 3490.9,3130.1 3078.7,3130.1 3078.7,2996.8 3278.7,2821.5 3295.9,2996.8 				"/>
			</g>
		</g>
		<circle class="st7" cx="3251.5" cy="2221.5" r="10.5"/>
		<circle class="st10" cx="3057.5" cy="2448.5" r="10.5"/>
		<circle class="st10" cx="3315.5" cy="2444.5" r="10.5"/>
		<circle class="st7" cx="3406.5" cy="2516.5" r="10.5"/>
	</g>
	<g id="opt2_x5F_pack1">
		<g>
			<g>
				<g>
					<g>
						<rect x="3223.7" y="3340.2" class="st7" width="102.4" height="184.5"/>
						<rect x="3245.8" y="3397.4" class="st8" width="10.1" height="102.4"/>
						<rect x="3276.3" y="3374.3" class="st8" width="10.1" height="45.2"/>
						<rect x="3301.2" y="3414.9" class="st8" width="10.1" height="102.4"/>
						<rect x="3301.2" y="3348.5" class="st8" width="10.1" height="12.9"/>
						<rect x="3276.3" y="3464.7" class="st8" width="10.1" height="12.9"/>
						<rect x="3245.8" y="3387.3" class="st12" width="10.1" height="10.1"/>
					</g>
					<path class="st7" d="M3423.9,3222.1v31c0,7.9-3.3,15.4-9.2,20.6l-21.9,19.7c-8.5,7.6-19.4,11.8-30.8,11.8h-35.9v35.1h-102.4
						v-34.6c0-3.8-1.6-7.5-4.3-10.1l-56.8-53.6c-3.4-3.2-8-5-12.7-5h-75.7l-42.5-56.7l-4.5-6c-6.8-9.1-0.3-22.1,11.1-22.1h266.6
						l0.5,0.8l45.6,69.3H3423.9z"/>
					<path class="st12" d="M3305.8,3152l-0.4,0.8l-13.4,27.4h-260.3l-4.5-6c-6.8-9.1-0.3-22.1,11.1-22.1H3305.8z"/>
					<polygon class="st11" points="3305.8,3152 3351,3222.1 3338.1,3249.8 3292,3180.6 					"/>
					<polygon class="st12" points="3351,3222.1 3423.9,3222.1 3423.9,3249.8 3338.1,3249.8 					"/>
				</g>
				<rect x="3223.7" y="3310.2" class="st8" width="102.4" height="35.4"/>
			</g>
			<g>
				<path class="st13" d="M3450.3,3466.8c-1.2,0-2.3,0.1-3.4,0.1c-10.6-36.6-44.3-63.3-84.2-63.3c-46.9,0-85.2,36.8-87.5,83.1
					c-6.1-3.2-12.9-5-20.3-5c-24.2,0-43.8,19.6-43.8,43.8c0,0.1,0,0.3,0,0.4h290c0.4-2.6,0.6-5.2,0.6-7.9
					C3501.6,3489.8,3478.6,3466.8,3450.3,3466.8z"/>
			</g>
		</g>
	</g>
	<g id="opt2_x5F_pack2">
		<g>
			<path class="st11" d="M3030.7,3007.6c0,12.3-10,22.4-22.4,22.4h-1.7V3017c0-14.1-11.5-25.6-25.6-25.6H2970v12.7h11.1
				c7.1,0,12.9,5.8,12.9,12.9v47.7h-27.5c-6.6,0-12-5.4-12-12v-6.9h-12.7v6.9c0,13.6,11,24.6,24.6,24.6h27.5v59.6h12.7v-94.4h1.7
				c19.3,0,35-15.7,35-35H3030.7z"/>
		</g>
		<g>
			<path class="st11" d="M3558.3,2783.6l-1.1-32.9l-12.4,0.4l1.1,32.9c0.2,6.4-4.8,11.9-11.3,12.1l-2.4,0.1v-52.1
				c0-13.8-11.2-25-25-25h-10.9v12.4h10.9c7,0,12.6,5.7,12.6,12.6v26.5h-7.1c-12,0-21.9-9.8-21.9-21.9h-12.4
				c0,18.9,15.4,34.2,34.2,34.2h7.1v78.4h12.4v-52.8l2.9-0.1C3548.4,2808,3558.8,2796.8,3558.3,2783.6z"/>
		</g>
		<g>
			<path class="st11" d="M3496.5,3123.7l-1.1-32.9l-12.4,0.4l1.1,32.9c0.2,6.4-4.8,11.9-11.3,12.1l-2.4,0.1v-52.1
				c0-13.8-11.2-25-25-25h-10.9v12.4h10.9c7,0,12.6,5.7,12.6,12.6v26.5h-7.1c-12,0-21.9-9.8-21.9-21.9h-12.4
				c0,18.9,15.4,34.2,34.2,34.2h7.1v78.4h12.4v-52.8l2.9-0.1C3486.5,3148.2,3496.9,3137,3496.5,3123.7z"/>
		</g>
	</g>
	<g id="opt2_x5F_pack3">
		<g class="st15">
			<line class="st16" x1="3536" y1="2521" x2="3654" y2="2521"/>
			<g>
				<path class="st16" d="M3536,2561c34.4,0,68.9,0,103.3,0c4.9,0,9.8,0,14.7,0c20.9,0,41-18.4,40-40c-1-21.7-17.6-40-40-40
					c-34.4,0-68.9,0-103.3,0c-4.9,0-9.8,0-14.7,0c-20.9,0-41,18.4-40,40C3497,2542.7,3513.6,2561,3536,2561L3536,2561z"/>
			</g>
		</g>
		<g class="st15">
			<line class="st16" x1="3718" y1="3178" x2="3789" y2="3178"/>
			<g>
				<path class="st16" d="M3718,3218c23.7,0,47.3,0,71,0c20.9,0,41-18.4,40-40c-1-21.7-17.6-40-40-40c-23.7,0-47.3,0-71,0
					c-20.9,0-41,18.4-40,40C3679,3199.7,3695.6,3218,3718,3218L3718,3218z"/>
			</g>
		</g>
		<g>
			<polygon class="st6" points="3606,2422.8 3606,2477.3 3551.7,2517.7 3653.8,2517.7 3653.8,2485.4 			"/>
			<polygon class="st2" points="3606,2422.8 3535.3,2475.3 3535.3,2517.7 3551.7,2517.7 3606,2477.3 			"/>
		</g>
		<g>
			<polygon class="st6" points="3696.3,3125.7 3719,3178 3788.7,3178 3809.6,3143.1 3796.6,3106.5 3735.6,3083 			"/>
			<polygon class="st2" points="3696.3,3125.7 3719,3178 3740.3,3178 3740.3,3178 3760.8,3139.7 3735.6,3083 			"/>
		</g>
		<g class="st15">
			<line class="st16" x1="2512" y1="3342" x2="2746" y2="3342"/>
			<g>
				<path class="st16" d="M2512,3382c26.4,0,52.7,0,79.1,0c42,0,84,0,126,0c9.6,0,19.2,0,28.8,0c20.9,0,41-18.4,40-40
					c-1-21.7-17.6-40-40-40c-26.4,0-52.7,0-79.1,0c-42,0-84,0-126,0c-9.6,0-19.2,0-28.8,0c-20.9,0-41,18.4-40,40
					C2473,3363.7,2489.6,3382,2512,3382L2512,3382z"/>
			</g>
		</g>
		<g>
			<polygon class="st6" points="2746,3287.6 2746,3342 2511.6,3342 2511.6,3296.7 2587.5,3218.5 2650.9,3218.5 			"/>
			<polygon class="st2" points="2628.2,3260.4 2628.2,3302.3 2587.5,3342 2511.6,3342 2511.6,3296.7 2587.5,3218.5 			"/>
		</g>
		<g class="st15">
			<line class="st16" x1="3441" y1="3712" x2="3594" y2="3712"/>
			<g>
				<path class="st16" d="M3441,3752c44.6,0,89.2,0,133.8,0c6.4,0,12.8,0,19.2,0c20.9,0,41-18.4,40-40c-1-21.7-17.6-40-40-40
					c-44.6,0-89.2,0-133.8,0c-6.4,0-12.8,0-19.2,0c-20.9,0-41,18.4-40,40C3402,3733.7,3418.6,3752,3441,3752L3441,3752z"/>
			</g>
		</g>
		<g>
			<polygon class="st6" points="3594,3684.4 3594,3711.7 3443.6,3711.7 3443.6,3670.7 3505.1,3616.7 			"/>
			<polygon class="st2" points="3570.5,3711.7 3570.5,3711.7 3443.6,3711.7 3443.6,3670.7 3505.1,3616.7 3510.4,3670.7 			"/>
		</g>
	</g>
</g>
<g id="opt3">
	<g>
		<path class="st2" d="M3349.1,1813.3v87.5h324.8c18.6,0,36.4-7.4,49.5-20.5l101.2-101.2v-82L3349.1,1813.3z"/>
		<path class="st2" d="M3062.2,1552.5l166.4,135.3l-11.7,80.1l-19.4-20.2h-65.3c-38.6,0-70-31.3-70-70V1552.5z"/>
		<path class="st3" d="M3197.4,1747.6l19.4,20.2l32.8,87.5c10.2,27.3,36.4,45.4,65.5,45.4h33.9v-87.5l-120.5-125.6L3197.4,1747.6z"
			/>
		<g>
			<path class="st4" d="M3335,1803.3c-26.7,0-51-15.8-61.9-40.2l-35.4-79.5c-1.6-3.6-5.2-5.9-9.1-5.9h-73.1
				c-45.9,0-83.3-37.4-83.3-83.3v-50.8c0-7.7,3-15,8.5-20.4l77.6-77.6l115.1-3.3c12.5-0.4,24.3-5.4,33.1-14.3l32-32
				c12.8-12.8,29.8-19.8,47.9-19.8h100.1l222.9,11c14.1,0.7,26.9,9,33.7,21.8c3,5.7,6.9,11,11.5,15.6l38.3,38.3
				c12.8,12.8,19.8,29.8,19.8,47.9V1693l-82.6,82.6c-17.9,17.9-41.8,27.8-67.2,27.8H3335z"/>
			<g>
				<path class="st5" d="M3486.2,1386.3l222.7,11c10.5,0.5,20.2,6.8,25.3,16.5c3.5,6.6,7.9,12.7,13.2,18l38.3,38.3
					c10.9,10.9,16.9,25.4,16.9,40.8v178l-79.6,79.6c-16,16-37.4,24.9-60.1,24.9H3335c-22.8,0-43.5-13.4-52.7-34.2l-35.4-79.5
					c-3.2-7.2-10.4-11.9-18.3-11.9h-73.1c-40.4,0-73.3-32.9-73.3-73.3v-50.8c0-5,2-9.8,5.5-13.3l74.7-74.7l111.1-3.2
					c15.1-0.4,29.3-6.6,39.9-17.2l32-32c10.9-10.9,25.4-16.9,40.8-16.9H3486.2 M3486.7,1366.3h-100.4c-20.6,0-40.4,8.2-55,22.8
					l-32,32c-7,7-16.4,11.1-26.4,11.4l-119.1,3.4l-80.4,80.4c-7.3,7.3-11.4,17.2-11.4,27.5v50.8c0,51.5,41.8,93.3,93.3,93.3h73.1
					l35.4,79.5c12.5,28,40.3,46.1,71,46.1h327.9c27.8,0,54.5-11.1,74.2-30.7l85.5-85.5v-186.3c0-20.6-8.2-40.4-22.8-55l-38.3-38.3
					c-3.9-3.9-7.2-8.3-9.7-13.1c-8.3-15.8-24.2-26.2-42-27.1L3486.7,1366.3L3486.7,1366.3z"/>
			</g>
		</g>
		<path class="st17" d="M3486.7,1365.9"/>
		<polygon class="st6" points="3764.6,1839 3764.6,1767.8 3804.7,1799 3822.6,1825.4 3810.9,1839.4 		"/>
		<polygon class="st6" points="3596.9,1900.8 3618.1,1942 3661.5,1900.8 3597.1,1831.6 		"/>
		<polygon class="st2" points="3764.3,1767.8 3810.9,1839.4 3764.3,1839.4 		"/>
		<polygon class="st2" points="3597.1,1831.6 3564.4,1900.8 3618.1,1942 		"/>
		<line class="st14" x1="3197.4" y1="1544.7" x2="3227.8" y2="1544.7"/>
		<line class="st14" x1="3228.5" y1="1583.6" x2="3251.9" y2="1583.6"/>
		<line class="st14" x1="3359.2" y1="1687.8" x2="3380.9" y2="1687.8"/>
		<line class="st14" x1="3370" y1="1618.6" x2="3401.2" y2="1618.6"/>
		<line class="st14" x1="3529.4" y1="1729.8" x2="3561.3" y2="1729.8"/>
		<line class="st14" x1="3641.4" y1="1481.7" x2="3672.5" y2="1481.7"/>
		<line class="st14" x1="3702.8" y1="1618.6" x2="3723" y2="1618.6"/>
		<line class="st14" x1="3408.9" y1="1481.7" x2="3442.4" y2="1481.7"/>
		<line class="st14" x1="3517" y1="1618.6" x2="3554.3" y2="1618.6"/>
	</g>
	<g id="opt3_x5F_pack1">
		<g>
			<path class="st11" d="M3569.2,1681.5l-1.1-32.9l-12.4,0.4l1.1,32.9c0.2,6.4-4.8,11.9-11.3,12.1l-2.4,0.1V1642
				c0-13.8-11.2-25-25-25h-10.9v12.4h10.9c7,0,12.6,5.7,12.6,12.6v26.5h-7.1c-12,0-21.9-9.8-21.9-21.9h-12.4
				c0,18.9,15.4,34.2,34.2,34.2h7.1v78.4h12.4v-52.8l2.9-0.1C3559.2,1705.9,3569.6,1694.7,3569.2,1681.5z"/>
		</g>
		<g>
			<path class="st11" d="M3218.5,1378.5c0,12.3-10,22.4-22.4,22.4h-1.7V1388c0-14.1-11.5-25.6-25.6-25.6h-11.1v12.7h11.1
				c7.1,0,12.9,5.8,12.9,12.9v47.7h-27.5c-6.6,0-12-5.4-12-12v-6.9h-12.7v6.9c0,13.6,11,24.6,24.6,24.6h27.5v59.6h12.7v-94.4h1.7
				c19.3,0,35-15.7,35-35H3218.5z"/>
		</g>
		<g>
			<polygon class="st6" points="3758,1443.3 3758,1541.7 3333.4,1541.7 3333.4,1459.7 3470.8,1318.1 3585.7,1318.1 			"/>
			<polygon class="st2" points="3544.7,1394 3544.7,1469.9 3470.8,1541.7 3333.4,1541.7 3333.4,1459.7 3470.8,1318.1 			"/>
		</g>
		<g>
			<polygon class="st6" points="3616.2,1662.7 3638.9,1715 3708.6,1715 3729.5,1680.1 3716.5,1643.5 3655.4,1620 			"/>
			<polygon class="st2" points="3616.2,1662.7 3638.9,1715 3660.2,1715 3660.2,1715 3680.7,1676.7 3655.4,1620 			"/>
		</g>
		<g>
			<polygon class="st6" points="3391.9,1642.4 3391.9,1697 3337.6,1737.4 3439.7,1737.4 3439.7,1705.1 			"/>
			<polygon class="st2" points="3391.9,1642.4 3321.2,1695 3321.2,1737.4 3337.6,1737.4 3391.9,1697 			"/>
		</g>
		<g>
			<polygon class="st6" points="3491,1563 3491,1609.3 3236.4,1609.3 3236.4,1539.9 3340.6,1448.6 			"/>
			<polygon class="st2" points="3451.1,1609.3 3451.1,1609.3 3236.4,1609.3 3236.4,1539.9 3340.6,1448.6 3349.6,1539.9 			"/>
		</g>
	</g>
	<g id="opt3_x5F_pack2">
		<g class="st15">
			<line class="st16" x1="3777.9" y1="2020.1" x2="4011.9" y2="2020.1"/>
			<g>
				<path class="st16" d="M3777.9,2060.1c26.4,0,52.7,0,79.1,0c42,0,84,0,126,0c9.6,0,19.2,0,28.8,0c20.9,0,41-18.4,40-40
					c-1-21.7-17.6-40-40-40c-26.4,0-52.7,0-79.1,0c-42,0-84,0-126,0c-9.6,0-19.2,0-28.8,0c-20.9,0-41,18.4-40,40
					C3738.9,2041.8,3755.5,2060.1,3777.9,2060.1L3777.9,2060.1z"/>
			</g>
		</g>
		<polyline class="st6" points="3916.8,1896.6 4011.9,1965.7 4011.9,2020 3777.5,2020 3777.5,1974.8 3853.4,1896.6 		"/>
		<polyline class="st2" points="3853.4,1896.6 3894.1,1938.5 3894.1,1980.4 3853.4,2020 3777.5,2020 3777.5,1974.8 3853.4,1896.6 		
			"/>
		<g class="st15">
			<line class="st16" x1="2893.9" y1="1484" x2="3011.9" y2="1484"/>
			<g>
				<path class="st16" d="M2893.9,1524c34.4,0,68.9,0,103.3,0c4.9,0,9.8,0,14.7,0c20.9,0,41-18.4,40-40c-1-21.7-17.6-40-40-40
					c-34.4,0-68.9,0-103.3,0c-4.9,0-9.8,0-14.7,0c-20.9,0-41,18.4-40,40C2854.9,1505.6,2871.5,1524,2893.9,1524L2893.9,1524z"/>
			</g>
		</g>
		<g class="st15">
			<line class="st16" x1="4072.9" y1="1853" x2="4143.9" y2="1853"/>
			<g>
				<path class="st16" d="M4072.9,1893c23.7,0,47.3,0,71,0c20.9,0,41-18.4,40-40c-1-21.7-17.6-40-40-40c-23.7,0-47.3,0-71,0
					c-20.9,0-41,18.4-40,40C4033.9,1874.6,4050.5,1893,4072.9,1893L4072.9,1893z"/>
			</g>
		</g>
		<g>
			<polygon class="st6" points="2963.9,1385.7 2963.9,1440.3 2909.6,1480.7 3011.7,1480.7 3011.7,1448.4 			"/>
			<polygon class="st2" points="2963.9,1385.7 2893.2,1438.3 2893.2,1480.7 2909.6,1480.7 2963.9,1440.3 			"/>
		</g>
		<g>
			<polygon class="st6" points="4051.2,1800.7 4073.9,1853 4143.6,1853 4164.5,1818.1 4151.5,1781.5 4090.4,1758 			"/>
			<polygon class="st2" points="4051.2,1800.7 4073.9,1853 4095.2,1853 4095.2,1853 4115.7,1814.6 4090.4,1758 			"/>
		</g>
		<g class="st15">
			<line class="st16" x1="4011.9" y1="1624" x2="4164.9" y2="1624"/>
			<g>
				<path class="st16" d="M4011.9,1664c44.6,0,89.2,0,133.8,0c6.4,0,12.8,0,19.2,0c20.9,0,41-18.4,40-40c-1-21.7-17.6-40-40-40
					c-44.6,0-89.2,0-133.8,0c-6.4,0-12.8,0-19.2,0c-20.9,0-41,18.4-40,40C3972.9,1645.6,3989.5,1664,4011.9,1664L4011.9,1664z"/>
			</g>
		</g>
		<g>
			<polygon class="st6" points="4164.9,1596.4 4164.9,1623.7 4014.5,1623.7 4014.5,1582.7 4076,1528.7 			"/>
			<polygon class="st2" points="4141.4,1623.7 4141.4,1623.7 4014.5,1623.7 4014.5,1582.7 4076,1528.7 4081.3,1582.7 			"/>
		</g>
	</g>
</g>
</svg>
