<?xml version="1.0" encoding="utf-8"?>
<!-- Generator: Adobe Illustrator 24.0.1, SVG Export Plug-In . SVG Version: 6.00 Build 0)  -->
<svg version="1.1" id="Calque_1" xmlns="http://www.w3.org/2000/svg" xmlns:xlink="http://www.w3.org/1999/xlink" x="0px" y="0px"
	 viewBox="0 0 1000 1000" style="enable-background:new 0 0 1000 1000;" xml:space="preserve">
<style type="text/css">
	.st0{fill:#FFC248;}
	.st1{fill:#FFA300;}
	.st2{fill:#EF8200;}
</style>
<g>
	<ellipse class="st0" cx="517.4" cy="534" rx="276.4" ry="257.2"/>
	<circle class="st1" cx="539.8" cy="534" r="257.2"/>
	<circle class="st2" cx="546.2" cy="534" r="190.1"/>
	<circle class="st0" cx="539.8" cy="534" r="190.1"/>
	<path class="st1" d="M656.2,475.7c-4.4-9-10.5-16.4-18.2-22c-7.7-5.6-16.7-9.7-27.1-12.3c-10.4-2.6-21.4-3.8-33.1-3.8H510
		c-3.1,0-6.2,0.6-9.2,1.7c-3.1,1.1-6,2.8-8.6,5.1c-2.7,2.3-4.8,5.1-6.5,8.5c-1.6,3.4-2.5,7.2-2.5,11.5v12.5h-30.8
		c-5.9,0-10.6,4.8-10.6,10.6v15.9c0,5.9,4.8,10.6,10.6,10.6h30.8v13.8h-30.8c-5.9,0-10.6,4.8-10.6,10.6v15.9
		c0,5.9,4.8,10.6,10.6,10.6h30.8v79.5c0,2.1,0.8,3.8,2.3,5.4c1.5,1.5,3.3,2.3,5.4,2.3h44c2,0,3.8-0.8,5.4-2.3
		c1.5-1.5,2.3-3.3,2.3-5.4v-57c0-2.9,0.9-5.1,2.8-6.8c1.8-1.6,4-2.5,6.5-2.5h25.9c11.7,0,22.7-1.2,33-3.5
		c10.3-2.4,19.2-6.3,26.9-11.7c7.7-5.4,13.8-12.6,18.3-21.6c4.5-8.9,6.8-19.9,6.8-32.8C662.8,495.7,660.6,484.8,656.2,475.7z
		 M596,527.8c-4.7,4.5-11.3,6.8-19.7,6.8h-24.9c-2.5,0-4.7-0.9-6.6-2.6c-2-1.7-2.9-4.1-2.9-6.9v-26.5c0-2.7-0.6-5.1-1.8-7.2
		c-1.2-2.2-2.7-4-4.5-5.4c-1.7-1.4-3.6-2.5-5.7-3.2c-2.1-0.7-3.9-1.1-5.5-1.1h52c8.6,0,15.2,2.3,19.9,6.9s6.9,11.2,6.9,19.9
		C603,516.8,600.7,523.3,596,527.8z"/>
</g>
</svg>
